<svg width="500" height="500" viewBox="0 0 500 500" fill="none" xmlns="http://www.w3.org/2000/svg">
<rect width="500" height="500" fill="#FAAA19" fill-opacity="0.4"/>
<path d="M446.332 145.29C446.332 145.29 365.932 29.54 265.552 17.29C176.942 6.40996 94.6925 48.79 83.2425 140.35C79.1625 173 71.9025 209.07 59.0025 238.83C44.5325 272.21 19.8425 300 38.7525 364.17C57.6625 428.34 137.522 486.29 195.572 486.17C253.622 486.05 308.152 433.28 353.142 385.29C398.132 337.3 541.402 292.17 446.332 145.29Z" fill="#FF880D"/>
<path opacity="0.7" d="M446.332 145.29C446.332 145.29 365.932 29.54 265.552 17.29C176.942 6.40996 94.6925 48.79 83.2425 140.35C79.1625 173 71.9025 209.07 59.0025 238.83C44.5325 272.21 19.8425 300 38.7525 364.17C57.6625 428.34 137.522 486.29 195.572 486.17C253.622 486.05 308.152 433.28 353.142 385.29C398.132 337.3 541.402 292.17 446.332 145.29Z" fill="white"/>
<g opacity="0.3">
<path d="M123.882 177.63H48.8125L49.5725 163.14H124.643L123.882 177.63Z" stroke="black" stroke-linecap="round" stroke-linejoin="round"/>
<path d="M123.882 197.92H48.8125L49.5725 183.43H124.643L123.882 197.92Z" stroke="black" stroke-linecap="round" stroke-linejoin="round"/>
<path d="M123.882 218.21H48.8125L49.5725 203.72H124.643L123.882 218.21Z" stroke="black" stroke-linecap="round" stroke-linejoin="round"/>
<path d="M123.882 238.5H48.8125L49.5725 224.01H124.643L123.882 238.5Z" stroke="black" stroke-linecap="round" stroke-linejoin="round"/>
<path d="M123.882 258.8H48.8125L49.5725 244.3H124.643L123.882 258.8Z" stroke="black" stroke-linecap="round" stroke-linejoin="round"/>
<path d="M123.882 279.09H48.8125L49.5725 264.59H124.643L123.882 279.09Z" stroke="black" stroke-linecap="round" stroke-linejoin="round"/>
<path d="M123.882 299.38H48.8125L49.5725 284.88H124.643L123.882 299.38Z" stroke="black" stroke-linecap="round" stroke-linejoin="round"/>
<path d="M123.882 319.67H48.8125L49.5725 305.17H124.643L123.882 319.67Z" stroke="black" stroke-linecap="round" stroke-linejoin="round"/>
<path d="M123.882 339.96H48.8125L49.5725 325.46H124.643L123.882 339.96Z" stroke="black" stroke-linecap="round" stroke-linejoin="round"/>
<path d="M123.882 360.25H48.8125L49.5725 345.75H124.643L123.882 360.25Z" stroke="black" stroke-linecap="round" stroke-linejoin="round"/>
<path d="M123.882 380.54H48.8125L49.5725 366.05H124.643L123.882 380.54Z" stroke="black" stroke-linecap="round" stroke-linejoin="round"/>
<path d="M203.265 177.63H128.195L128.955 163.14H204.025L203.265 177.63Z" stroke="black" stroke-linecap="round" stroke-linejoin="round"/>
<path d="M203.265 197.92H128.195L128.955 183.43H204.025L203.265 197.92Z" stroke="black" stroke-linecap="round" stroke-linejoin="round"/>
<path d="M203.265 218.21H128.195L128.955 203.72H204.025L203.265 218.21Z" stroke="black" stroke-linecap="round" stroke-linejoin="round"/>
<path d="M203.265 238.5H128.195L128.955 224.01H204.025L203.265 238.5Z" stroke="black" stroke-linecap="round" stroke-linejoin="round"/>
<path d="M203.265 258.8H128.195L128.955 244.3H204.025L203.265 258.8Z" stroke="black" stroke-linecap="round" stroke-linejoin="round"/>
<path d="M203.265 279.09H128.195L128.955 264.59H204.025L203.265 279.09Z" stroke="black" stroke-linecap="round" stroke-linejoin="round"/>
<path d="M203.265 299.38H128.195L128.955 284.88H204.025L203.265 299.38Z" stroke="black" stroke-linecap="round" stroke-linejoin="round"/>
<path d="M203.265 319.67H128.195L128.955 305.17H204.025L203.265 319.67Z" stroke="black" stroke-linecap="round" stroke-linejoin="round"/>
<path d="M203.265 339.96H128.195L128.955 325.46H204.025L203.265 339.96Z" stroke="black" stroke-linecap="round" stroke-linejoin="round"/>
<path d="M203.265 360.25H128.195L128.955 345.75H204.025L203.265 360.25Z" stroke="black" stroke-linecap="round" stroke-linejoin="round"/>
<path d="M203.265 380.54H128.195L128.955 366.05H204.025L203.265 380.54Z" stroke="black" stroke-linecap="round" stroke-linejoin="round"/>
</g>
<g opacity="0.3">
<path d="M434.087 192.63H337.188V265.94H434.087V192.63Z" stroke="black" stroke-linecap="round" stroke-linejoin="round"/>
<path d="M428.818 198.69H342.438V259.89H428.818V198.69Z" stroke="black" stroke-linecap="round" stroke-linejoin="round"/>
<path d="M370.609 208.33H400.659" stroke="black" stroke-linecap="round" stroke-linejoin="round"/>
<path d="M351.148 217.21H420.118" stroke="black" stroke-linecap="round" stroke-linejoin="round"/>
<path d="M366.516 234.96H404.746" stroke="black" stroke-linecap="round" stroke-linejoin="round"/>
<path d="M351.828 252.72H366.858" stroke="black" stroke-linecap="round" stroke-linejoin="round"/>
<path d="M404.406 252.72H419.426" stroke="black" stroke-linecap="round" stroke-linejoin="round"/>
</g>
<g opacity="0.3">
<path d="M460.398 281.4H389.078V335.36H460.398V281.4Z" stroke="black" stroke-linecap="round" stroke-linejoin="round"/>
<path d="M456.525 285.86H392.945V330.91H456.525V285.86Z" stroke="black" stroke-linecap="round" stroke-linejoin="round"/>
<path d="M413.688 292.96H435.797" stroke="black" stroke-linecap="round" stroke-linejoin="round"/>
<path d="M399.359 299.49H450.129" stroke="black" stroke-linecap="round" stroke-linejoin="round"/>
<path d="M410.672 312.56H438.822" stroke="black" stroke-linecap="round" stroke-linejoin="round"/>
<path d="M399.859 325.63H410.919" stroke="black" stroke-linecap="round" stroke-linejoin="round"/>
<path d="M438.555 325.63H449.615" stroke="black" stroke-linecap="round" stroke-linejoin="round"/>
</g>
<path d="M377.78 319.36L274.25 315.76C269.983 315.613 265.717 315.613 261.45 315.76L165 319.36L169.28 183.94C169.44 178.813 169.44 173.68 169.28 168.54L165 40.76H377.78V319.36Z" fill="#263238" stroke="#263238" stroke-linecap="round" stroke-linejoin="round"/>
<path d="M381.202 35.98H168.422V314.58H381.202V35.98Z" fill="white" stroke="#263238" stroke-linecap="round" stroke-linejoin="round"/>
<path d="M367.052 111.91H182.562V298.67H367.052V111.91Z" fill="white" stroke="#263238" stroke-linecap="round" stroke-linejoin="round"/>
<path d="M184.289 83.9999V49.8499H194.289C196.028 49.7735 197.755 50.1673 199.289 50.9899C200.571 51.752 201.565 52.9154 202.119 54.2999C202.761 55.9738 203.067 57.7578 203.019 59.5499C203.099 61.4075 202.707 63.255 201.879 64.9199C201.18 66.2441 200.062 67.2991 198.699 67.9199C197.174 68.5728 195.527 68.89 193.869 68.8499H190.499V83.9999H184.289ZM190.529 64.4399H192.889C193.795 64.4813 194.698 64.3136 195.529 63.9499C195.841 63.7933 196.118 63.5739 196.342 63.3055C196.565 63.0371 196.731 62.7254 196.829 62.3899C197.099 61.4512 197.22 60.4761 197.189 59.4999C197.21 58.493 197.119 57.4869 196.919 56.4999C196.849 56.1495 196.709 55.817 196.506 55.523C196.303 55.2289 196.042 54.9794 195.739 54.7899C194.852 54.3659 193.87 54.1765 192.889 54.2399H190.529V64.4399Z" fill="#FF880D"/>
<path d="M191.883 100.47L198.753 82.3501L192.093 66.3501H197.913L202.333 76.9301L206.213 66.3501H211.613L205.003 83.5301L212.083 100.47H206.303L201.453 89.0001L197.233 100.46L191.883 100.47Z" fill="#FF880D"/>
<path d="M287.57 60.3799H366.44" stroke="#263238" stroke-linecap="round" stroke-linejoin="round"/>
<path d="M287.57 77.3999H366.44" stroke="#263238" stroke-linecap="round" stroke-linejoin="round"/>
<path d="M304.602 70.03H366.442" stroke="#263238" stroke-linecap="round" stroke-linejoin="round"/>
<path d="M304.602 85.3501H366.442" stroke="#263238" stroke-linecap="round" stroke-linejoin="round"/>
<path d="M188.844 132.44H250.694" stroke="#263238" stroke-linecap="round" stroke-linejoin="round"/>
<path d="M188.844 148.59H250.694" stroke="#263238" stroke-linecap="round" stroke-linejoin="round"/>
<path d="M188.844 140.79H282.474" stroke="#263238" stroke-linecap="round" stroke-linejoin="round"/>
<path d="M188.844 168.27H250.694" stroke="#263238" stroke-linecap="round" stroke-linejoin="round"/>
<path d="M188.844 184.42H250.694" stroke="#263238" stroke-linecap="round" stroke-linejoin="round"/>
<path d="M188.844 176.62H282.474" stroke="#263238" stroke-linecap="round" stroke-linejoin="round"/>
<path d="M187.523 288.6H246.153" stroke="#263238" stroke-linecap="round" stroke-linejoin="round"/>
<path d="M298.703 288.6H357.333" stroke="#263238" stroke-linecap="round" stroke-linejoin="round"/>
<path d="M195.789 224.23C192.283 226.454 189.515 229.668 187.835 233.465C186.155 237.262 185.638 241.472 186.35 245.562C187.062 249.653 188.97 253.441 191.834 256.447C194.698 259.453 198.388 261.543 202.439 262.452C206.491 263.362 210.72 263.05 214.594 261.556C218.468 260.062 221.813 257.454 224.204 254.06C226.596 250.666 227.928 246.639 228.032 242.489C228.137 238.338 227.008 234.249 224.789 230.74C223.314 228.407 221.393 226.387 219.137 224.797C216.88 223.207 214.332 222.077 211.639 221.472C208.945 220.868 206.159 220.8 203.439 221.273C200.72 221.746 198.12 222.751 195.789 224.23ZM215.939 256C213.168 257.756 209.938 258.651 206.658 258.571C203.378 258.492 200.195 257.442 197.512 255.554C194.829 253.666 192.766 251.024 191.584 247.964C190.402 244.904 190.154 241.561 190.871 238.36C191.588 235.158 193.238 232.241 195.613 229.978C197.988 227.714 200.981 226.205 204.213 225.642C207.445 225.079 210.772 225.487 213.772 226.815C216.772 228.142 219.312 230.33 221.069 233.1C222.236 234.94 223.03 236.993 223.404 239.14C223.778 241.287 223.725 243.486 223.248 245.613C222.772 247.74 221.881 249.751 220.627 251.534C219.373 253.316 217.78 254.834 215.939 256Z" fill="#FF880D"/>
<path d="M214.851 235.149L196.969 246.479L198.794 249.36L216.676 238.029L214.851 235.149Z" fill="#FF880D"/>
<path d="M196.906 282C196.906 282 197.196 288.66 205.906 276.78C214.616 264.9 213.446 265.78 211.126 272.44C209.349 277.05 206.997 281.418 204.126 285.44C204.126 285.44 214.566 268.92 214.566 273.55C214.566 278.18 204.706 297.9 206.736 296.16C208.766 294.42 215.146 285.73 215.146 285.73C215.146 285.73 214.276 291.52 216.586 288.91C218.896 286.3 221.516 281.09 221.226 283.99C220.936 286.89 217.166 290.36 220.936 286.89C224.706 283.42 227.606 279.06 226.736 282.25C225.866 285.44 223.546 286.6 225.866 285.44C228.186 284.28 241.226 262.54 237.166 265.15C233.106 267.76 225.576 290.36 229.056 288.62C232.536 286.88 236.586 278.19 236.296 282.54C236.006 286.89 237.166 286.89 238.296 285.44" stroke="#263238" stroke-linecap="round" stroke-linejoin="round"/>
<path d="M483.087 465.25H26.5469" stroke="#263238" stroke-linecap="round" stroke-linejoin="round"/>
<path d="M483.087 474.81H26.5469" stroke="#263238" stroke-linecap="round" stroke-linejoin="round"/>
<path d="M458.086 359.8H361.286C359.758 359.799 358.281 360.348 357.126 361.347C355.971 362.346 355.214 363.728 354.996 365.24L340.516 464.24H455.626L464.416 366.7C464.492 365.823 464.385 364.939 464.101 364.106C463.818 363.272 463.364 362.506 462.769 361.857C462.173 361.208 461.45 360.69 460.643 360.336C459.837 359.982 458.966 359.8 458.086 359.8Z" fill="#263238" stroke="#263238" stroke-linecap="round" stroke-linejoin="round"/>
<path d="M327.003 343.64C327.003 343.64 300.813 356.64 291.823 360.23C282.833 363.82 280.623 365.43 279.823 367.63C279.023 369.83 244.043 424.8 240.053 429.8C236.063 434.8 227.453 445.59 228.653 452.98C229.853 460.37 239.453 466.78 248.653 466.58C257.853 466.38 263.653 464.58 264.653 461.98C265.653 459.38 291.043 413.98 291.043 413.98L299.043 464.55H401.193C401.193 464.55 409.193 395.39 409.193 385.19C409.193 374.99 411.193 363 406.993 360.4C402.793 357.8 385.403 351.81 372.603 347.61C359.803 343.41 355.813 342.61 352.823 342.61C349.833 342.61 327.003 343.64 327.003 343.64Z" fill="#E2E1E1" stroke="#263238" stroke-linecap="round" stroke-linejoin="round"/>
<path d="M324.23 344C324.23 344 320.83 350.4 320.63 355.6C320.43 360.8 319.63 370.39 316.63 376.19C313.63 381.99 311.43 385.19 313.03 384.58C314.63 383.97 323.82 373.79 324.82 371.58C325.82 369.37 327.42 373.58 327.42 373.58C327.42 373.58 324.42 382.17 324.02 383.37C323.62 384.57 336.61 401.16 336.61 401.16C336.61 401.16 347.81 392.37 350.41 390.37C353.01 388.37 352.21 386.77 352.41 384.17C352.61 381.57 353.41 377.78 354.8 375.58C356.19 373.38 360.21 382 363 386C365.79 390 368.6 391.4 368.2 388.4C367.8 385.4 366.4 379.6 365.4 369.4C364.4 359.2 364.6 347.01 362 343.21C359.4 339.41 345.76 338.66 336.81 338.02C334.364 337.747 331.891 338.162 329.668 339.219C327.446 340.275 325.562 341.931 324.23 344Z" fill="#F2F0EF" stroke="#263238" stroke-linecap="round" stroke-linejoin="round"/>
<path d="M283.85 378.05L291.05 414.01L281.75 390.1" stroke="#263238" stroke-linecap="round" stroke-linejoin="round"/>
<path d="M325.234 353.64C325.234 353.64 328.034 369.23 330.634 381.22C332.064 388.045 334.071 394.736 336.634 401.22C336.634 401.22 349.834 379.03 353.634 367.44C355.793 361.046 357.464 354.497 358.634 347.85H325.234V353.64Z" fill="#D9D9D9" stroke="#263238" stroke-linecap="round" stroke-linejoin="round"/>
<path d="M339.823 359L332.633 368L337.633 377.6L332.713 389.51C333.798 393.471 335.107 397.367 336.633 401.18C336.633 401.18 340.753 394.26 345.043 386.18L341.433 377.85L345.833 367.85L339.823 359Z" fill="#FF880D" stroke="#263238" stroke-linecap="round" stroke-linejoin="round"/>
<path d="M325.234 347.84V353.64C325.234 353.64 327.164 364.4 329.304 374.91L339.424 364.23L350.094 376.05C351.429 373.244 352.608 370.366 353.624 367.43C355.783 361.035 357.454 354.487 358.624 347.84H325.234Z" fill="#FDFDFD" stroke="#263238" stroke-linecap="round" stroke-linejoin="round"/>
<path d="M238.086 435.72C238.086 435.72 256.756 428.9 266.826 445.49" stroke="#263238" stroke-linecap="round" stroke-linejoin="round"/>
<path d="M267.15 440.37C267.15 440.37 256.72 442.73 251.15 451.62C245.58 460.51 256.91 461.5 260.04 461.5C263.17 461.5 266.13 459.4 266.3 458.31C266.47 457.22 270.57 446.68 270.41 444.22C270.391 443.302 270.057 442.418 269.463 441.716C268.87 441.015 268.053 440.54 267.15 440.37Z" fill="#D6B3A6" stroke="#263238" stroke-linecap="round" stroke-linejoin="round"/>
<path d="M262.352 444.05C262.352 444.05 256.582 449.05 256.972 451.05C257.362 453.05 265.922 460.75 267.572 459.64C267.87 459.489 268.135 459.28 268.352 459.026C268.568 458.772 268.733 458.478 268.836 458.16C268.939 457.843 268.979 457.508 268.952 457.175C268.926 456.842 268.834 456.517 268.682 456.22C268.212 455.47 262.352 444.05 262.352 444.05Z" fill="#D6B3A6" stroke="#263238" stroke-linecap="round" stroke-linejoin="round"/>
<path d="M257.003 451C257.003 451 253.613 454.61 254.723 456.26C255.833 457.91 263.583 462.12 265.593 460.85C267.603 459.58 266.303 458.28 266.303 458.28L257.003 451Z" fill="#D6B3A6" stroke="#263238" stroke-linecap="round" stroke-linejoin="round"/>
<path d="M276.862 443.86L269.922 442.66L271.552 452.65L278.642 452.87L276.862 443.86Z" fill="#D6B3A6" stroke="#263238" stroke-linecap="round" stroke-linejoin="round"/>
<path d="M264.372 428.15L272.502 456.64L276.452 460.23V455.16L267.852 427.16C267.782 426.927 267.665 426.711 267.509 426.524C267.353 426.337 267.161 426.184 266.944 426.074C266.727 425.964 266.49 425.899 266.247 425.882C266.005 425.866 265.761 425.899 265.532 425.98C265.1 426.129 264.741 426.435 264.526 426.838C264.311 427.24 264.256 427.709 264.372 428.15Z" fill="#263238" stroke="#263238" stroke-linecap="round" stroke-linejoin="round"/>
<path d="M267.151 440.37C267.151 440.37 262.351 443.18 262.831 445.31C263.311 447.44 268.491 457.4 270.361 457.53C272.231 457.66 273.361 456.53 273.091 454.37C272.821 452.21 271.091 444.37 269.921 442.66C268.751 440.95 268.621 440.27 267.151 440.37Z" fill="#D6B3A6" stroke="#263238" stroke-linecap="round" stroke-linejoin="round"/>
<path d="M276.865 443.86C276.865 443.86 281.975 444.5 282.865 446.06C283.755 447.62 280.185 453.84 279.045 455.26C277.905 456.68 275.865 456.62 275.805 453.02C275.901 449.942 276.255 446.878 276.865 443.86Z" fill="#D6B3A6" stroke="#263238" stroke-linecap="round" stroke-linejoin="round"/>
<path d="M249.226 455.89H305.296C306.863 455.893 308.365 456.516 309.472 457.624C310.58 458.732 311.204 460.234 311.206 461.8C311.206 463.126 310.679 464.398 309.742 465.336C308.804 466.273 307.532 466.8 306.206 466.8H250.006C248.786 466.8 247.616 466.316 246.754 465.453C245.891 464.59 245.406 463.42 245.406 462.2V459.7C245.406 459.199 245.505 458.703 245.697 458.24C245.889 457.777 246.171 457.356 246.526 457.003C246.881 456.649 247.302 456.368 247.765 456.177C248.229 455.986 248.725 455.889 249.226 455.89Z" fill="white" stroke="#263238" stroke-linecap="round" stroke-linejoin="round"/>
<path d="M348.999 443C348.999 443 334.409 441.4 330.809 440.2C327.209 439 321.409 438 319.409 439.6C317.409 441.2 307.619 452.6 307.409 453.99C307.199 455.38 305.209 459.99 306.209 461.19C307.047 462.026 308.077 462.644 309.209 462.99C309.209 462.99 322.209 466.59 323.599 466.79C324.989 466.99 338.389 466.39 338.389 466.39L345.389 463.79L355.179 463.59C355.179 463.59 355.379 466.79 355.579 458.99C355.779 451.19 348.999 443 348.999 443Z" fill="#D6B3A6" stroke="#263238" stroke-linecap="round" stroke-linejoin="round"/>
<path d="M309.242 463C309.242 463 309.442 458.4 310.442 456.4C311.442 454.4 322.832 444.21 322.832 444.21" stroke="#263238" stroke-linecap="round" stroke-linejoin="round"/>
<path d="M313 464.18C313 464.18 315 459.18 315.8 458.78C316.6 458.38 325.99 452.38 325.99 452.38" stroke="#263238" stroke-linecap="round" stroke-linejoin="round"/>
<path d="M319.836 465.58C319.836 465.58 320.236 463.58 321.236 463.18C322.236 462.78 330.636 458.98 330.636 458.98" stroke="#263238" stroke-linecap="round" stroke-linejoin="round"/>
<path d="M328.834 466.58L332.634 465.58L332.234 463.78L328.234 464.78" stroke="#263238" stroke-linecap="round" stroke-linejoin="round"/>
<path d="M394.79 378.62C394.79 378.62 384.2 400.81 384.79 408.62C385.38 416.43 388 429.4 388 429.4C388 429.4 371.21 435.99 365.41 438.4C359.61 440.81 349 443 349 443L354.39 464.19L353.6 466.39H411.76C411.76 466.39 416.16 465.59 416.96 464.59C417.76 463.59 418.56 463.19 418.96 459.99C419.36 456.79 421.96 428.81 421.36 420.99C420.76 413.17 412.56 372.62 411.56 368.42C410.56 364.22 408.77 361.42 406.97 360.42C405.17 359.42 397.37 358.63 397.37 358.63" fill="#ECECEC"/>
<path d="M394.79 378.62C394.79 378.62 384.2 400.81 384.79 408.62C385.38 416.43 388 429.4 388 429.4C388 429.4 371.21 435.99 365.41 438.4C359.61 440.81 349 443 349 443L354.39 464.19L353.6 466.39H411.76C411.76 466.39 416.16 465.59 416.96 464.59C417.76 463.59 418.56 463.19 418.96 459.99C419.36 456.79 421.96 428.81 421.36 420.99C420.76 413.17 412.56 372.62 411.56 368.42C410.56 364.22 408.77 361.42 406.97 360.42C405.17 359.42 397.37 358.63 397.37 358.63" stroke="#263238" stroke-linecap="round" stroke-linejoin="round"/>
<path d="M389.406 429.8C389.406 429.8 404.796 430.6 412.406 435.39" stroke="#263238" stroke-linecap="round" stroke-linejoin="round"/>
<path d="M392.195 427.8C392.195 427.8 402.995 427.2 408.795 429" stroke="#263238" stroke-linecap="round" stroke-linejoin="round"/>
<path d="M389.2 378C389.2 378 383.8 390.6 383.6 395.4C383.4 400.2 383 403 383 403" stroke="#263238" stroke-linecap="round" stroke-linejoin="round"/>
<path d="M364.609 344.64C364.609 344.64 376.799 362 366.999 410.41" stroke="#263238" stroke-width="2" stroke-linecap="round" stroke-linejoin="round"/>
<path d="M372.805 411.81C372.805 410.623 372.453 409.463 371.794 408.477C371.134 407.49 370.197 406.721 369.101 406.267C368.004 405.813 366.798 405.694 365.634 405.925C364.47 406.157 363.401 406.728 362.562 407.567C361.723 408.407 361.151 409.476 360.92 410.64C360.688 411.803 360.807 413.01 361.261 414.106C361.716 415.203 362.485 416.14 363.471 416.799C364.458 417.458 365.618 417.81 366.805 417.81C368.396 417.81 369.922 417.178 371.047 416.053C372.173 414.927 372.805 413.401 372.805 411.81Z" fill="white" stroke="#263238" stroke-linecap="round" stroke-linejoin="round"/>
<path d="M323.003 346.44C323.003 346.44 316.812 350.44 315.812 366.63" stroke="#263238" stroke-width="2" stroke-linecap="round" stroke-linejoin="round"/>
<path d="M324.41 391.16C322.9 402.08 320.84 413.81 320.41 416.38C319.41 421.88 312.88 423.8 308.68 422" stroke="#263238" stroke-width="2" stroke-linecap="round" stroke-linejoin="round"/>
<path d="M308.752 391.88C307.382 385.76 306.542 380.45 306.842 378.02C308.242 366.83 315.842 366.63 315.842 366.63C315.842 366.63 324.842 367.83 325.432 377.43C325.494 382.027 325.159 386.621 324.432 391.16" stroke="#263238" stroke-width="2" stroke-linecap="round" stroke-linejoin="round"/>
<path d="M325.63 421.2C325.63 421.2 321.43 423.6 318.63 422C316.74 420.92 311.63 404.64 308.75 391.88" stroke="#263238" stroke-width="2" stroke-linecap="round" stroke-linejoin="round"/>
<path d="M327.095 419.033L325.442 419.745C324.645 420.088 324.278 421.012 324.622 421.808L324.641 421.854C324.985 422.651 325.908 423.018 326.705 422.675L328.358 421.962C329.154 421.619 329.521 420.695 329.178 419.899L329.158 419.853C328.815 419.057 327.891 418.689 327.095 419.033Z" stroke="#263238" stroke-linecap="round" stroke-linejoin="round"/>
<path d="M309.201 420.117L307.658 419.19C306.915 418.744 305.951 418.984 305.504 419.728L305.478 419.771C305.032 420.514 305.273 421.478 306.016 421.925L307.559 422.852C308.302 423.298 309.267 423.057 309.713 422.314L309.739 422.271C310.185 421.528 309.945 420.563 309.201 420.117Z" stroke="#263238" stroke-linecap="round" stroke-linejoin="round"/>
<path d="M315.839 298.07C315.839 298.07 312.639 305.66 313.239 310.46C313.839 315.26 320.239 320.46 320.239 320.46C320.239 320.46 322.439 299.07 322.439 298.27C322.439 297.47 318.429 295.67 315.839 298.07Z" fill="#263238" stroke="#263238" stroke-linecap="round" stroke-linejoin="round"/>
<path d="M313.539 325.26L317.789 322.29" stroke="#263238" stroke-width="2" stroke-linecap="round" stroke-linejoin="round"/>
<path d="M318.231 299.47C318.231 299.47 317.431 320.66 317.831 324.65C318.231 328.64 319.831 341.44 321.231 345.44C322.631 349.44 327.231 362.23 330.831 363.63C334.431 365.03 341.621 366.03 344.021 364.43C346.421 362.83 355.211 356.84 357.611 351.04C359.034 347.658 359.976 344.093 360.411 340.45C362.406 339.385 364.13 337.875 365.448 336.037C366.766 334.199 367.643 332.082 368.011 329.85C369.211 322.25 366.011 320.06 366.011 320.06L366.211 306.86C366.211 306.86 364.011 297.67 358.211 292.67C352.411 287.67 345.621 287.27 338.621 291.07C331.621 294.87 318.231 299.47 318.231 299.47Z" fill="#D6B3A6" stroke="#263238" stroke-linecap="round" stroke-linejoin="round"/>
<path d="M355.813 298.27C355.813 298.27 356.013 293.07 351.023 294.87C346.033 296.67 344.823 300.07 337.423 303.07C330.023 306.07 320.233 302.67 316.843 300.67C313.453 298.67 311.043 295.87 315.643 290.67C320.243 285.47 331.033 280.28 342.643 280.28C354.253 280.28 363.233 289.87 367.033 293.87C370.833 297.87 371.433 302.87 370.033 306.46C368.633 310.05 366.033 320.06 366.033 320.06C366.033 320.06 364.433 319.86 363.833 322.25C363.233 324.64 363.433 327.25 360.833 327.45C358.233 327.65 358.433 320.66 358.433 320.66C358.433 320.66 352.043 318.66 351.243 314.06C350.443 309.46 355.813 302.67 355.813 298.27Z" fill="#263238" stroke="#263238" stroke-linecap="round" stroke-linejoin="round"/>
<path d="M332.006 328.52L313.516 325.26L314.586 333.55C314.651 334.065 314.882 334.546 315.242 334.921C315.602 335.295 316.073 335.544 316.586 335.63L327.826 337.4C328.444 337.5 329.076 337.355 329.589 336.997C330.103 336.639 330.456 336.095 330.576 335.48L332.006 328.52Z" stroke="#263238" stroke-width="2" stroke-linecap="round" stroke-linejoin="round"/>
<path d="M335.375 328.87L356.815 328.25L354.715 336.01C354.534 336.533 354.189 336.983 353.731 337.293C353.273 337.603 352.727 337.756 352.175 337.73L339.175 337.91C338.501 337.956 337.833 337.759 337.293 337.353C336.753 336.947 336.378 336.36 336.235 335.7L335.375 328.87Z" stroke="#263238" stroke-width="2" stroke-linecap="round" stroke-linejoin="round"/>
<path d="M332.031 328.52L335.371 328.87" stroke="#263238" stroke-width="2" stroke-linecap="round" stroke-linejoin="round"/>
<path d="M356.812 328.25L363.812 322.25" stroke="#263238" stroke-width="2" stroke-linecap="round" stroke-linejoin="round"/>
<path d="M338.227 326.45C338.227 326.45 344.227 321.86 349.827 324.65" stroke="#263238" stroke-width="2" stroke-linecap="round" stroke-linejoin="round"/>
<path d="M329.23 325.45C329.23 325.45 324.63 320.45 319.43 323.85" stroke="#263238" stroke-width="2" stroke-linecap="round" stroke-linejoin="round"/>
<path d="M330.429 342.84C330.429 342.84 329.429 347.04 330.429 347.84C332.131 348.78 334.096 349.131 336.019 348.84" stroke="#263238" stroke-linecap="round" stroke-linejoin="round"/>
<path d="M327.43 351C327.43 351 331.43 354 335.23 354.2C339.03 354.4 343.42 351.6 343.42 351.6" stroke="#263238" stroke-linecap="round" stroke-linejoin="round"/>
<path d="M342.227 330.65C342.227 330.65 344.627 333.45 348.627 330.45" stroke="#263238" stroke-linecap="round" stroke-linejoin="round"/>
<path d="M322.531 329.42C322.531 329.42 324.531 332.52 328.891 330.09" stroke="#263238" stroke-linecap="round" stroke-linejoin="round"/>
<path d="M198.499 298.25C198.499 298.25 199.769 317.3 198.809 318.89L195.999 323.65C195.999 323.65 197.269 337.31 194.729 338.89C192.761 339.944 190.602 340.593 188.379 340.8C188.379 340.8 185.839 350.96 184.879 352.23C183.919 353.5 178.209 357.63 176.309 358.23C174.409 358.83 168.369 359.23 154.079 350.61C139.789 341.99 134.389 339.18 134.709 334.42C135.029 329.66 135.709 324.26 135.709 324.26C135.709 324.26 137.299 301.39 140.159 294.41C143.019 287.43 179.219 283.61 187.159 285.52C195.099 287.43 198.499 298.25 198.499 298.25Z" fill="#FDD8BA" stroke="#263238" stroke-linecap="round" stroke-linejoin="round"/>
<path d="M161.664 329.68L163.894 331.27C163.894 331.27 161.984 338.89 162.894 342.39" stroke="#263238" stroke-linecap="round" stroke-linejoin="round"/>
<path d="M193.412 323.3C193.092 324.76 192.322 325.82 191.702 325.68C191.082 325.54 190.832 324.26 191.162 322.8C191.492 321.34 192.252 320.28 192.872 320.42C193.492 320.56 193.742 321.85 193.412 323.3Z" fill="#263238"/>
<path d="M190.172 317.47C190.172 317.47 193.632 314.01 196.522 317.28" stroke="#263238" stroke-linecap="round" stroke-linejoin="round"/>
<path d="M185.8 295.71C185.8 295.71 189.92 303.33 189.61 304.92C189.3 306.51 176.27 310.32 176.27 310.32C176.27 310.32 175 317.94 173.09 318.89L171.19 319.84C169.667 317.771 168.388 315.533 167.38 313.17C165.16 308.41 161.98 307.17 158.49 311.9C155 316.63 157.85 327.78 159.76 328.73L161.66 329.68C161.66 329.68 160.07 331.27 154.04 332.23C148.01 333.19 143.56 334.45 139.12 333.18C134.68 331.91 128.32 319.84 126.12 304.28C123.92 288.72 130.88 275.39 140.12 271.28C149.36 267.17 170.29 270.96 171.87 271.91C173.45 272.86 184.26 267.79 190.61 270.96C196.96 274.13 196.61 277.63 198.23 279.85C199.85 282.07 208.07 279.22 208.71 287.16C209.35 295.1 206.17 299.86 202.04 300.49C197.91 301.12 185.8 295.71 185.8 295.71Z" fill="#263238" stroke="#263238" stroke-linecap="round" stroke-linejoin="round"/>
<path d="M110.611 345.56C110.611 345.56 80.181 361.79 74.381 365C68.581 368.21 67.711 371.09 67.381 374C67.051 376.91 67.381 474.85 67.381 474.85H231.751C231.751 474.85 206.821 400 206.001 391.64C205.181 383.28 203.401 368.45 201.081 366.71C198.761 364.97 166.001 350.48 166.001 350.48C166.001 350.48 158.171 342.08 139.631 342.08C121.091 342.08 110.611 345.56 110.611 345.56Z" fill="#FF880D" stroke="#263238" stroke-linecap="round" stroke-linejoin="round"/>
<path d="M129.453 405.19C130.313 405.53 131.183 405.84 132.053 406.13" stroke="#263238" stroke-linecap="round" stroke-linejoin="round"/>
<path d="M97 378.31C97 378.31 109 395.05 125.39 403.31" stroke="#263238" stroke-linecap="round" stroke-linejoin="round"/>
<path d="M107.422 397.72C107.422 397.72 114.082 404.39 127.992 408.16" stroke="#263238" stroke-linecap="round" stroke-linejoin="round"/>
<path d="M190.005 373.7C185.375 378.96 178.855 387.37 176.695 395.11" stroke="#263238" stroke-linecap="round" stroke-linejoin="round"/>
<path d="M194.938 368.45C194.938 368.45 194.018 369.34 192.578 370.87" stroke="#263238" stroke-linecap="round" stroke-linejoin="round"/>
<path d="M178.421 385.84C178.421 385.84 174.071 394.24 173.211 399.46" stroke="#263238" stroke-linecap="round" stroke-linejoin="round"/>
<path d="M108.875 347C108.875 347 125.685 346.42 141.625 346.71C157.565 347 168.005 351.93 168.005 351.93C168.005 351.93 158.435 340.34 154.095 337.73C149.755 335.12 136.415 330.73 125.405 334.25C118.622 336.529 112.801 341.019 108.875 347Z" fill="#FF880D" stroke="#263238" stroke-linecap="round" stroke-linejoin="round"/>
<path d="M61.0716 474.74L45.7516 416C45.6029 415.287 45.6151 414.549 45.7874 413.841C45.9597 413.133 46.2876 412.473 46.7475 411.908C47.2073 411.342 47.7873 410.887 48.4454 410.574C49.1035 410.261 49.823 410.099 50.5516 410.1H172.442C173.562 410.101 174.648 410.484 175.52 411.186C176.393 411.888 177 412.866 177.242 413.96L190.772 474.8" fill="#263238"/>
<path d="M61.0716 474.74L45.7516 416C45.6029 415.287 45.6151 414.549 45.7874 413.841C45.9597 413.133 46.2876 412.473 46.7475 411.908C47.2073 411.342 47.7873 410.887 48.4454 410.574C49.1035 410.261 49.823 410.099 50.5516 410.1H172.442C173.562 410.101 174.648 410.484 175.52 411.186C176.393 411.888 177 412.866 177.242 413.96L190.772 474.8" stroke="#263238" stroke-linecap="round" stroke-linejoin="round"/>
</svg>
