<svg width="1444" height="464" viewBox="0 0 1444 464" fill="none" xmlns="http://www.w3.org/2000/svg">
<g filter="url(#filter0_b_675_10436)">
<path d="M1443.75 464.444L-0.224179 473.078L-0.938181 353.665L1441.24 45.3903L1443.75 464.444Z" fill="#8468F5" fill-opacity="0.8"/>
<path d="M1443.75 464.444L-0.224179 473.078L-0.938181 353.665L1441.24 45.3903L1443.75 464.444Z" fill="url(#paint0_radial_675_10436)" fill-opacity="0.7"/>
<path d="M1443.75 464.444L-0.224179 473.078L-0.938181 353.665L1441.24 45.3903L1443.75 464.444Z" fill="url(#paint1_radial_675_10436)"/>
</g>
<path d="M648.469 285.772L213.725 373.913L213.299 302.639L648.043 214.498L648.469 285.772Z" fill="#F4C15D"/>
<path d="M330.957 315.135L-0.809369 375.195L-1.23253 304.423L330.534 244.363L330.957 315.135Z" fill="url(#paint2_linear_675_10436)"/>
<path d="M524.231 379.903L234.752 439.71L234.329 368.938L523.808 309.131L524.231 379.903Z" fill="#F1DAA4"/>
<path d="M1158.78 243.055L878.356 303.016L877.931 231.99L1158.36 172.028L1158.78 243.055Z" fill="#E4C6EF"/>
<path d="M1305.72 150.54L844.159 238.296L843.735 167.476L1305.3 79.7198L1305.72 150.54Z" fill="#C4A5EF"/>
<path d="M1441.4 71.3202L1042.6 132.231L1042.17 60.9104L1440.98 -0.000256893L1441.4 71.3202Z" fill="url(#paint3_linear_675_10436)"/>
<path d="M921.046 158.833L496.614 246.367L496.19 175.547L920.623 88.0128L921.046 158.833Z" fill="url(#paint4_linear_675_10436)"/>
<defs>
<filter id="filter0_b_675_10436" x="-112.049" y="-65.721" width="1666.91" height="649.91" filterUnits="userSpaceOnUse" color-interpolation-filters="sRGB">
<feFlood flood-opacity="0" result="BackgroundImageFix"/>
<feGaussianBlur in="BackgroundImageFix" stdDeviation="55.5556"/>
<feComposite in2="SourceAlpha" operator="in" result="effect1_backgroundBlur_675_10436"/>
<feBlend mode="normal" in="SourceGraphic" in2="effect1_backgroundBlur_675_10436" result="shape"/>
</filter>
<radialGradient id="paint0_radial_675_10436" cx="0" cy="0" r="1" gradientUnits="userSpaceOnUse" gradientTransform="translate(1062.18 379.419) rotate(-160.597) scale(809.719 526.617)">
<stop stop-color="white" stop-opacity="0.59"/>
<stop offset="0.697917" stop-color="white" stop-opacity="0"/>
<stop offset="1" stop-color="white" stop-opacity="0"/>
</radialGradient>
<radialGradient id="paint1_radial_675_10436" cx="0" cy="0" r="1" gradientUnits="userSpaceOnUse" gradientTransform="translate(195.388 105.223) rotate(77.1928) scale(366.589 1347.82)">
<stop offset="0.01" stop-color="#FAAA19"/>
<stop offset="0.24" stop-color="#FF450D" stop-opacity="0.85"/>
<stop offset="0.43" stop-color="#FF880D" stop-opacity="0.85"/>
<stop offset="0.695" stop-color="#FF450D" stop-opacity="0.8"/>
<stop offset="0.95" stop-color="#F78500" stop-opacity="0.9"/>
</radialGradient>
<linearGradient id="paint2_linear_675_10436" x1="330.919" y1="308.786" x2="-1.19457" y2="310.772" gradientUnits="userSpaceOnUse">
<stop stop-color="#F4C15D"/>
<stop offset="0.985" stop-color="#FAAA19"/>
</linearGradient>
<linearGradient id="paint3_linear_675_10436" x1="1441.37" y1="64.922" x2="1042.21" y2="67.3087" gradientUnits="userSpaceOnUse">
<stop offset="0.32" stop-color="#9C7FF3"/>
<stop offset="1" stop-color="#C4A5EF"/>
</linearGradient>
<linearGradient id="paint4_linear_675_10436" x1="921.089" y1="165.919" x2="496.148" y2="168.46" gradientUnits="userSpaceOnUse">
<stop stop-color="#C4A5EF"/>
<stop offset="1" stop-color="#F0B747"/>
</linearGradient>
</defs>
</svg>
