<svg width="750" height="500" viewBox="0 0 750 500" fill="none" xmlns="http://www.w3.org/2000/svg">
<rect width="750" height="500" fill="#8468F5" fill-opacity="0.3"/>
<path d="M73.0001 379.38C92.3601 390.15 80.0001 406.38 64.0001 414.38C56.2376 418.176 49.6886 424.064 45.0901 431.38H724.6C728.6 410.38 749.83 282.22 694 183.38C633 75.3799 544 57.3799 473 57.3799C402 57.3799 341 114.38 312 154.38C283 194.38 236.78 214.26 164.39 207.32C92.0001 200.38 43.0001 269.38 40.0001 303.38C37.0001 337.38 53.6401 368.62 73.0001 379.38Z" fill="#8568F5"/>
<path opacity="0.7" d="M73.0001 379.38C92.3601 390.15 80.0001 406.38 64.0001 414.38C56.2376 418.176 49.6886 424.064 45.0901 431.38H724.6C728.6 410.38 749.83 282.22 694 183.38C633 75.3799 544 57.3799 473 57.3799C402 57.3799 341 114.38 312 154.38C283 194.38 236.78 214.26 164.39 207.32C92.0001 200.38 43.0001 269.38 40.0001 303.38C37.0001 337.38 53.6401 368.62 73.0001 379.38Z" fill="white"/>
<path d="M545.778 75.59C543.318 73.04 539.058 70.7 531.658 70.52C514.998 70.11 519.498 81.87 514.998 84.71C510.498 87.55 509.328 83.08 504.868 85.92C500.408 88.76 502.428 94.44 498.778 95.25C495.128 96.06 490.268 91.6 485.778 94.44C481.288 97.28 481.318 99.71 479.288 99.71C477.258 99.71 473.208 98.08 470.778 99.71C468.348 101.34 465.508 103.36 465.508 103.36H509.038" fill="white"/>
<path d="M545.778 75.59C543.318 73.04 539.058 70.7 531.658 70.52C514.998 70.11 519.498 81.87 514.998 84.71C510.498 87.55 509.328 83.08 504.868 85.92C500.408 88.76 502.428 94.44 498.778 95.25C495.128 96.06 490.268 91.6 485.778 94.44C481.288 97.28 481.318 99.71 479.288 99.71C477.258 99.71 473.208 98.08 470.778 99.71C468.348 101.34 465.508 103.36 465.508 103.36H509.038" stroke="#263238" stroke-linecap="round" stroke-linejoin="round"/>
<path d="M550.358 82.85L549.098 82.27C548.902 80.7573 548.391 79.3025 547.598 78" fill="white"/>
<path d="M550.358 82.85L549.098 82.27C548.902 80.7573 548.391 79.3025 547.598 78" stroke="#263238" stroke-linecap="round" stroke-linejoin="round"/>
<path d="M514.691 103.36H568.151C568.151 103.36 569.371 99.71 564.911 97.27C560.451 94.83 558.421 96.87 556.801 94.84C555.351 93 560.001 88.66 552.471 84" fill="white"/>
<path d="M514.691 103.36H568.151C568.151 103.36 569.371 99.71 564.911 97.27C560.451 94.83 558.421 96.87 556.801 94.84C555.351 93 560.001 88.66 552.471 84" stroke="#263238" stroke-linecap="round" stroke-linejoin="round"/>
<path d="M126.08 87.4001C124.67 85.9301 122.22 84.5901 117.97 84.4801C108.42 84.2501 110.97 91.0101 108.42 92.6401C105.87 94.2701 105.15 91.7101 102.59 93.3401C100.03 94.9701 101.19 98.2301 99.0995 98.7001C97.0095 99.1701 94.1995 96.6001 91.6395 98.2301C89.0795 99.8601 89.0795 101.23 87.9095 101.23C86.7395 101.23 84.4195 100.3 83.0195 101.23C81.6195 102.16 80.0195 103.33 80.0195 103.33H105.02" fill="white"/>
<path d="M126.08 87.4001C124.67 85.9301 122.22 84.5901 117.97 84.4801C108.42 84.2501 110.97 91.0101 108.42 92.6401C105.87 94.2701 105.15 91.7101 102.59 93.3401C100.03 94.9701 101.19 98.2301 99.0995 98.7001C97.0095 99.1701 94.1995 96.6001 91.6395 98.2301C89.0795 99.8601 89.0795 101.23 87.9095 101.23C86.7395 101.23 84.4195 100.3 83.0195 101.23C81.6195 102.16 80.0195 103.33 80.0195 103.33H105.02" stroke="#263238" stroke-linecap="round" stroke-linejoin="round"/>
<path d="M128.709 91.57L127.989 91.24C127.878 90.3687 127.585 89.5305 127.129 88.78" fill="white"/>
<path d="M128.709 91.57L127.989 91.24C127.878 90.3687 127.585 89.5305 127.129 88.78" stroke="#263238" stroke-linecap="round" stroke-linejoin="round"/>
<path d="M108.211 103.36H138.941C138.941 103.36 139.641 101.26 137.071 99.86C134.501 98.46 133.351 99.63 132.411 98.46C131.471 97.29 134.261 94.91 129.931 92.23" fill="white"/>
<path d="M108.211 103.36H138.941C138.941 103.36 139.641 101.26 137.071 99.86C134.501 98.46 133.351 99.63 132.411 98.46C131.471 97.29 134.261 94.91 129.931 92.23" stroke="#263238" stroke-linecap="round" stroke-linejoin="round"/>
<path d="M427.24 142.47H448.4C448.4 142.47 449.12 140.31 446.47 138.87C443.82 137.43 442.63 138.63 441.67 137.43C440.71 136.23 444.31 133.1 437.1 129.98C437.1 129.98 436.62 123.25 426.77 122.98C422.52 122.88 420.6 124.12 419.57 125.69" fill="white"/>
<path d="M427.24 142.47H448.4C448.4 142.47 449.12 140.31 446.47 138.87C443.82 137.43 442.63 138.63 441.67 137.43C440.71 136.23 444.31 133.1 437.1 129.98C437.1 129.98 436.62 123.25 426.77 122.98C422.52 122.88 420.6 124.12 419.57 125.69" stroke="#263238" stroke-linecap="round" stroke-linejoin="round"/>
<path d="M420.789 142.47H424.309" stroke="#263238" stroke-linecap="round" stroke-linejoin="round"/>
<path d="M418.288 129C418.131 129.932 417.645 130.777 416.918 131.38C414.278 133.06 413.558 130.38 410.918 132.1C408.278 133.82 409.478 137.15 407.318 137.63C405.158 138.11 402.268 135.46 399.628 137.15C396.988 138.84 396.988 140.27 395.788 140.27C394.588 140.27 392.178 139.27 390.788 140.27C389.398 141.27 387.668 142.43 387.668 142.43H414.668" fill="white"/>
<path d="M418.288 129C418.131 129.932 417.645 130.777 416.918 131.38C414.278 133.06 413.558 130.38 410.918 132.1C408.278 133.82 409.478 137.15 407.318 137.63C405.158 138.11 402.268 135.46 399.628 137.15C396.988 138.84 396.988 140.27 395.788 140.27C394.588 140.27 392.178 139.27 390.788 140.27C389.398 141.27 387.668 142.43 387.668 142.43H414.668" stroke="#263238" stroke-linecap="round" stroke-linejoin="round"/>
<path d="M258.558 103.36H319.478C319.478 103.36 321.558 97.1301 313.998 93.0001C306.438 88.8701 302.928 92.3001 300.158 88.8401C297.388 85.3801 307.718 76.3701 286.998 67.3701C286.998 67.3701 285.618 48.0001 257.248 47.3101C244.998 47.0101 239.458 50.5801 236.508 55.1201" fill="white"/>
<path d="M258.558 103.36H319.478C319.478 103.36 321.558 97.1301 313.998 93.0001C306.438 88.8701 302.928 92.3001 300.158 88.8401C297.388 85.3801 307.718 76.3701 286.998 67.3701C286.998 67.3701 285.618 48.0001 257.248 47.3101C244.998 47.0101 239.458 50.5801 236.508 55.1201" stroke="#263238" stroke-linecap="round" stroke-linejoin="round"/>
<path d="M239.969 103.36H250.109" stroke="#263238" stroke-linecap="round" stroke-linejoin="round"/>
<path d="M232.771 64.6702C231.901 67.6702 230.971 70.1702 228.841 71.5202C221.231 76.3702 219.151 68.7602 211.541 73.6002C203.931 78.4402 207.391 88.1302 201.161 89.5202C194.931 90.9102 186.631 83.2902 179.001 88.1302C171.371 92.9702 171.381 97.1302 167.921 97.1302C164.461 97.1302 157.541 94.3602 153.391 97.1302C149.241 99.9002 144.391 103.36 144.391 103.36H222.201" fill="white"/>
<path d="M232.771 64.6702C231.901 67.6702 230.971 70.1702 228.841 71.5202C221.231 76.3702 219.151 68.7602 211.541 73.6002C203.931 78.4402 207.391 88.1302 201.161 89.5202C194.931 90.9102 186.631 83.2902 179.001 88.1302C171.371 92.9702 171.381 97.1302 167.921 97.1302C164.461 97.1302 157.541 94.3602 153.391 97.1302C149.241 99.9002 144.391 103.36 144.391 103.36H222.201" stroke="#263238" stroke-linecap="round" stroke-linejoin="round"/>
<path d="M619.21 431.38H703.47C701.85 421.07 695.23 422.89 694.35 406.92C693.91 398.92 701.35 388.92 700.71 378.36C700.18 369.66 691.6 360.74 690.93 350.78C690.33 341.78 697.66 331.83 696.93 322.15C696.26 312.99 687.57 304.21 686.79 294.7C686.04 285.42 693.22 275.34 692.37 265.96C691.52 256.58 682.67 247.96 681.73 238.71C680.73 229.2 687.73 218.96 686.65 209.86C685.52 200.2 676.4 191.86 675.17 182.95C673.79 173.04 680.25 162.46 678.74 153.95C676.89 143.47 667.13 135.88 665.08 128.15C661.25 113.74 661.73 99.8599 657.21 98.9499C652.39 97.9499 651.29 111.6 647.64 126.82C645.8 134.46 636.26 142.21 634.69 152.7C633.42 161.19 640.17 171.52 639.06 181.39C638.06 190.22 629.19 198.72 628.32 208.33C627.51 217.33 634.72 227.33 634.01 236.78C633.32 245.96 624.7 254.72 624.11 264.05C623.52 273.38 630.95 283.15 630.44 292.36C629.92 301.8 621.44 310.71 621.02 319.8C620.56 329.4 628.14 339.09 627.77 348.01C627.36 357.88 619.02 366.93 618.71 375.56C618.34 386.04 626.03 395.71 625.79 403.69C625.28 421 617.35 417.42 617.07 431.35L619.21 431.38Z" fill="#8568F5"/>
<path opacity="0.3" d="M619.21 431.38H703.47C701.85 421.07 695.23 422.89 694.35 406.92C693.91 398.92 701.35 388.92 700.71 378.36C700.18 369.66 691.6 360.74 690.93 350.78C690.33 341.78 697.66 331.83 696.93 322.15C696.26 312.99 687.57 304.21 686.79 294.7C686.04 285.42 693.22 275.34 692.37 265.96C691.52 256.58 682.67 247.96 681.73 238.71C680.73 229.2 687.73 218.96 686.65 209.86C685.52 200.2 676.4 191.86 675.17 182.95C673.79 173.04 680.25 162.46 678.74 153.95C676.89 143.47 667.13 135.88 665.08 128.15C661.25 113.74 661.73 99.8599 657.21 98.9499C652.39 97.9499 651.29 111.6 647.64 126.82C645.8 134.46 636.26 142.21 634.69 152.7C633.42 161.19 640.17 171.52 639.06 181.39C638.06 190.22 629.19 198.72 628.32 208.33C627.51 217.33 634.72 227.33 634.01 236.78C633.32 245.96 624.7 254.72 624.11 264.05C623.52 273.38 630.95 283.15 630.44 292.36C629.92 301.8 621.44 310.71 621.02 319.8C620.56 329.4 628.14 339.09 627.77 348.01C627.36 357.88 619.02 366.93 618.71 375.56C618.34 386.04 626.03 395.71 625.79 403.69C625.28 421 617.35 417.42 617.07 431.35L619.21 431.38Z" fill="white"/>
<path d="M655.379 126.59V427.49" stroke="#263238" stroke-linecap="round" stroke-linejoin="round"/>
<path d="M668.542 158.14L654.822 169.98L643.602 155.02" stroke="#263238" stroke-linecap="round" stroke-linejoin="round"/>
<path d="M668.542 210.51L654.822 222.36L643.602 207.39" stroke="#263238" stroke-linecap="round" stroke-linejoin="round"/>
<path d="M668.542 259.77L654.822 271.62L643.602 256.65" stroke="#263238" stroke-linecap="round" stroke-linejoin="round"/>
<path d="M668.542 318.38L654.822 330.22L643.602 315.26" stroke="#263238" stroke-linecap="round" stroke-linejoin="round"/>
<path d="M668.542 377.61L654.822 389.46L643.602 374.49" stroke="#263238" stroke-linecap="round" stroke-linejoin="round"/>
<path d="M560.66 431.38H633.23C631.84 422.5 626.14 424.07 625.38 410.31C625 403.39 631.38 394.81 630.86 385.71C630.4 378.22 623.01 370.53 622.44 361.96C621.92 354.22 628.23 345.63 627.61 337.29C627.03 329.41 619.54 321.84 618.88 313.65C618.23 305.65 624.41 296.98 623.68 288.9C622.95 280.82 615.33 273.39 614.52 265.42C613.69 257.23 619.67 248.42 618.75 240.57C617.75 232.25 609.93 225.06 608.87 217.4C607.68 208.86 613.24 199.75 611.94 192.4C610.35 183.4 601.94 176.83 600.17 170.17C596.88 157.76 597.29 145.8 593.4 145.02C589.25 144.19 588.3 155.92 585.15 169.02C583.57 175.61 575.35 182.28 574 191.31C572.91 198.63 578.72 207.53 577.77 216.03C576.91 223.64 569.26 230.96 568.52 239.23C567.82 247.02 574.03 255.6 573.42 263.74C572.82 271.65 565.42 279.19 564.88 287.23C564.34 295.27 570.77 303.68 570.34 311.61C569.89 319.74 562.6 327.42 562.23 335.25C561.83 343.52 568.36 351.87 568.04 359.54C567.69 368.05 560.5 375.84 560.23 383.28C559.91 392.28 566.54 400.63 566.34 407.5C565.89 422.42 559.06 419.33 558.82 431.33L560.66 431.38Z" fill="#8568F5"/>
<path opacity="0.3" d="M560.66 431.38H633.23C631.84 422.5 626.14 424.07 625.38 410.31C625 403.39 631.38 394.81 630.86 385.71C630.4 378.22 623.01 370.53 622.44 361.96C621.92 354.22 628.23 345.63 627.61 337.29C627.03 329.41 619.54 321.84 618.88 313.65C618.23 305.65 624.41 296.98 623.68 288.9C622.95 280.82 615.33 273.39 614.52 265.42C613.69 257.23 619.67 248.42 618.75 240.57C617.75 232.25 609.93 225.06 608.87 217.4C607.68 208.86 613.24 199.75 611.94 192.4C610.35 183.4 601.94 176.83 600.17 170.17C596.88 157.76 597.29 145.8 593.4 145.02C589.25 144.19 588.3 155.92 585.15 169.02C583.57 175.61 575.35 182.28 574 191.31C572.91 198.63 578.72 207.53 577.77 216.03C576.91 223.64 569.26 230.96 568.52 239.23C567.82 247.02 574.03 255.6 573.42 263.74C572.82 271.65 565.42 279.19 564.88 287.23C564.34 295.27 570.77 303.68 570.34 311.61C569.89 319.74 562.6 327.42 562.23 335.25C561.83 343.52 568.36 351.87 568.04 359.54C567.69 368.05 560.5 375.84 560.23 383.28C559.91 392.28 566.54 400.63 566.34 407.5C565.89 422.42 559.06 419.33 558.82 431.33L560.66 431.38Z" fill="white"/>
<path d="M591.809 168.85V428.03" stroke="#263238" stroke-linecap="round" stroke-linejoin="round"/>
<path d="M603.15 196.02L591.33 206.23L581.66 193.34" stroke="#263238" stroke-linecap="round" stroke-linejoin="round"/>
<path d="M603.15 241.14L591.33 251.34L581.66 238.45" stroke="#263238" stroke-linecap="round" stroke-linejoin="round"/>
<path d="M603.15 283.56L591.33 293.77L581.66 280.88" stroke="#263238" stroke-linecap="round" stroke-linejoin="round"/>
<path d="M603.15 334.05L591.33 344.25L581.66 331.36" stroke="#263238" stroke-linecap="round" stroke-linejoin="round"/>
<path d="M603.15 385.07L591.33 395.27L581.66 382.38" stroke="#263238" stroke-linecap="round" stroke-linejoin="round"/>
<path d="M409.771 300.9H409.001C408.177 300.898 407.366 300.701 406.633 300.326C405.9 299.951 405.267 299.407 404.784 298.74C404.301 298.073 403.983 297.302 403.856 296.488C403.728 295.675 403.795 294.843 404.051 294.06C405.051 290.84 406.861 287.59 409.821 287.06C415.961 286.06 432.821 291.15 432.821 294.73C432.821 298.31 432.821 299.84 430.821 299.84H418.001L407.781 311.08L407.561 310.9C407.033 310.458 406.609 309.906 406.318 309.282C406.027 308.658 405.876 307.978 405.876 307.29C405.876 306.602 406.027 305.922 406.318 305.298C406.609 304.674 407.033 304.122 407.561 303.68C408.448 302.884 409.195 301.944 409.771 300.9Z" fill="#263238" stroke="#263238" stroke-linecap="round" stroke-linejoin="round"/>
<path d="M525.27 396H694.94C694.94 396 719.469 379.65 714.359 336.72C709.249 293.79 681.65 322.36 671.43 351H595.799C595.799 351 579.44 318.29 552.87 322.38C526.3 326.47 525.27 396 525.27 396Z" fill="#263238" stroke="#263238" stroke-linecap="round" stroke-linejoin="round"/>
<path d="M567 387.45C567 374.85 563.39 363.45 557.61 355.45V343.45H537.12C520.63 343.45 507.27 363.12 507.27 387.38C507.27 411.64 520.63 431.31 537.12 431.31H557.57V419.31C563.35 411.41 567 400.06 567 387.45Z" fill="#263238" stroke="#263238" stroke-linecap="round" stroke-linejoin="round"/>
<path d="M557.569 431.38C574.054 431.38 587.419 411.712 587.419 387.45C587.419 363.188 574.054 343.52 557.569 343.52C541.083 343.52 527.719 363.188 527.719 387.45C527.719 411.712 541.083 431.38 557.569 431.38Z" fill="#263238"/>
<mask id="mask0_678_2386" style="mask-type:luminance" maskUnits="userSpaceOnUse" x="527" y="343" width="61" height="89">
<path d="M557.569 431.38C574.054 431.38 587.419 411.712 587.419 387.45C587.419 363.188 574.054 343.52 557.569 343.52C541.083 343.52 527.719 363.188 527.719 387.45C527.719 411.712 541.083 431.38 557.569 431.38Z" fill="white"/>
</mask>
<g mask="url(#mask0_678_2386)">
<path opacity="0.2" d="M557.569 431.38C574.054 431.38 587.419 411.712 587.419 387.45C587.419 363.188 574.054 343.52 557.569 343.52C541.083 343.52 527.719 363.188 527.719 387.45C527.719 411.712 541.083 431.38 557.569 431.38Z" fill="white" stroke="#263238" stroke-linecap="round" stroke-linejoin="round"/>
</g>
<path d="M557.569 431.38C574.054 431.38 587.419 411.712 587.419 387.45C587.419 363.188 574.054 343.52 557.569 343.52C541.083 343.52 527.719 363.188 527.719 387.45C527.719 411.712 541.083 431.38 557.569 431.38Z" stroke="#263238" stroke-linecap="round" stroke-linejoin="round"/>
<path d="M382.591 343.52H363.251C347.681 343.52 335.051 363.19 335.051 387.45C335.051 411.71 347.681 431.38 363.251 431.38H382.591C398.171 431.38 410.801 411.71 410.801 387.45C410.801 363.19 398.171 343.52 382.591 343.52Z" fill="#263238" stroke="#263238" stroke-linecap="round" stroke-linejoin="round"/>
<path d="M557.572 422.5C570.722 422.5 581.382 406.808 581.382 387.45C581.382 368.092 570.722 352.4 557.572 352.4C544.422 352.4 533.762 368.092 533.762 387.45C533.762 406.808 544.422 422.5 557.572 422.5Z" fill="white" stroke="#263238" stroke-linecap="round" stroke-linejoin="round"/>
<path d="M706.731 387.45C706.731 374.85 704.431 363.45 700.731 355.45V343.45H682.691C672.201 343.45 663.691 363.12 663.691 387.38C663.691 411.64 672.191 431.31 682.691 431.31H700.751V419.31C704.431 411.41 706.731 400.06 706.731 387.45Z" fill="#263238" stroke="#263238" stroke-linecap="round" stroke-linejoin="round"/>
<path d="M700.752 431.38C711.24 431.38 719.742 411.712 719.742 387.45C719.742 363.188 711.24 343.52 700.752 343.52C690.264 343.52 681.762 363.188 681.762 387.45C681.762 411.712 690.264 431.38 700.752 431.38Z" fill="#263238"/>
<mask id="mask1_678_2386" style="mask-type:luminance" maskUnits="userSpaceOnUse" x="681" y="343" width="39" height="89">
<path d="M700.752 431.38C711.24 431.38 719.742 411.712 719.742 387.45C719.742 363.188 711.24 343.52 700.752 343.52C690.264 343.52 681.762 363.188 681.762 387.45C681.762 411.712 690.264 431.38 700.752 431.38Z" fill="white"/>
</mask>
<g mask="url(#mask1_678_2386)">
<path opacity="0.2" d="M700.752 431.38C711.24 431.38 719.742 411.712 719.742 387.45C719.742 363.188 711.24 343.52 700.752 343.52C690.264 343.52 681.762 363.188 681.762 387.45C681.762 411.712 690.264 431.38 700.752 431.38Z" fill="white" stroke="#263238" stroke-linecap="round" stroke-linejoin="round"/>
</g>
<path d="M700.752 431.38C711.24 431.38 719.742 411.712 719.742 387.45C719.742 363.188 711.24 343.52 700.752 343.52C690.264 343.52 681.762 363.188 681.762 387.45C681.762 411.712 690.264 431.38 700.752 431.38Z" stroke="#263238" stroke-linecap="round" stroke-linejoin="round"/>
<path d="M700.752 422.5C709.119 422.5 715.902 406.808 715.902 387.45C715.902 368.092 709.119 352.4 700.752 352.4C692.384 352.4 685.602 368.092 685.602 387.45C685.602 406.808 692.384 422.5 700.752 422.5Z" fill="white" stroke="#263238" stroke-linecap="round" stroke-linejoin="round"/>
<path d="M532.422 398.18C532.422 363.18 544.582 334.8 559.592 334.8C574.602 334.8 586.752 363.18 586.752 398.18C586.752 400.11 586.752 402 586.642 403.88H683.412C683.412 402 683.332 400.11 683.332 398.18C683.332 363.18 692.192 334.8 703.122 334.8C710.422 334.8 716.792 347.48 720.222 366.33V314.63C720.221 312.273 719.396 309.991 717.889 308.179C716.383 306.367 714.289 305.14 711.972 304.71L711.502 304.62C704.792 303.28 692.722 290.54 673.942 274.44C655.162 258.34 638.392 257 638.392 257H469.002C465.801 256.994 462.689 258.049 460.152 260L402.362 304.6C402.362 304.6 350.712 314.66 339.312 326.06C327.912 337.46 329.252 403.86 329.252 403.86H532.542C532.472 402 532.422 400.11 532.422 398.18Z" fill="#D6D0D0" stroke="#263238" stroke-linecap="round" stroke-linejoin="round"/>
<path d="M596.809 257H468.999C465.799 256.994 462.687 258.049 460.149 260L402.359 304.6H565.999L596.809 257Z" fill="white" stroke="#263238" stroke-linecap="round" stroke-linejoin="round"/>
<path d="M529.841 322.56C520.641 322.68 504.531 323.29 497.551 326.08C491.776 328.359 486.172 331.049 480.781 334.13H513.641L529.841 322.56Z" fill="#263238" stroke="#263238" stroke-linecap="round" stroke-linejoin="round"/>
<path d="M515.661 344.19V338.19H480.781L487.101 344C486.999 344.053 486.905 344.121 486.821 344.2L515.661 344.19Z" fill="#263238" stroke="#263238" stroke-linecap="round" stroke-linejoin="round"/>
<path d="M519 335.47V344.24C520.356 344.121 521.666 343.692 522.829 342.987C523.992 342.281 524.978 341.317 525.71 340.17C529.06 334.8 536.61 322.56 536.61 322.56L519 335.47Z" fill="#263238" stroke="#263238" stroke-linecap="round" stroke-linejoin="round"/>
<path d="M342.512 344L348.822 338.17H333.942C333.472 340.05 333.052 342.07 332.672 344.17H342.792C342.703 344.106 342.61 344.049 342.512 344Z" fill="#263238" stroke="#263238" stroke-linecap="round" stroke-linejoin="round"/>
<path d="M337.52 328.4C336.498 330.215 335.677 332.137 335.07 334.13H348.82C345.159 332.02 341.387 330.107 337.52 328.4Z" fill="#263238" stroke="#263238" stroke-linecap="round" stroke-linejoin="round"/>
<path d="M566 304.62H665.26C665.26 304.62 679.35 299.92 675.32 282.49C673.96 276.57 645.81 263.04 641.79 263.04H593.46L566 304.62Z" fill="#263238"/>
<mask id="mask2_678_2386" style="mask-type:luminance" maskUnits="userSpaceOnUse" x="566" y="263" width="111" height="42">
<path d="M566 304.62H665.26C665.26 304.62 679.35 299.92 675.32 282.49C673.96 276.57 645.81 263.04 641.79 263.04H593.46L566 304.62Z" fill="white"/>
</mask>
<g mask="url(#mask2_678_2386)">
<path opacity="0.2" d="M566 304.62H665.26C665.26 304.62 679.35 299.92 675.32 282.49C673.96 276.57 645.81 263.04 641.79 263.04H593.46L566 304.62Z" fill="white" stroke="#263238" stroke-linecap="round" stroke-linejoin="round"/>
</g>
<path d="M566 304.62H665.26C665.26 304.62 679.35 299.92 675.32 282.49C673.96 276.57 645.81 263.04 641.79 263.04H593.46L566 304.62Z" stroke="#263238" stroke-linecap="round" stroke-linejoin="round"/>
<path d="M456.189 263.04L402.309 304.62H565.959L592.899 263.04H456.189Z" fill="#263238" stroke="#263238" stroke-linecap="round" stroke-linejoin="round"/>
<path d="M351.332 335.47V349.56L361.392 356.93H442.552L461.332 348.89V335.47H351.332Z" fill="#263238" stroke="#263238" stroke-linecap="round" stroke-linejoin="round"/>
<path opacity="0.3" d="M355.082 335.47H351.332V339.22H355.082V335.47Z" fill="white" stroke="#263238" stroke-linecap="round" stroke-linejoin="round"/>
<path opacity="0.3" d="M359.23 339.62H355.48V343.37H359.23V339.62Z" fill="white" stroke="#263238" stroke-linecap="round" stroke-linejoin="round"/>
<path opacity="0.3" d="M363.379 343.77H359.629V347.52H363.379V343.77Z" fill="white" stroke="#263238" stroke-linecap="round" stroke-linejoin="round"/>
<path opacity="0.3" d="M367.52 347.91H363.77V351.66H367.52V347.91Z" fill="white" stroke="#263238" stroke-linecap="round" stroke-linejoin="round"/>
<path opacity="0.3" d="M460.582 335.47H456.832V339.22H460.582V335.47Z" fill="white" stroke="#263238" stroke-linecap="round" stroke-linejoin="round"/>
<path opacity="0.3" d="M456.441 339.62H452.691V343.37H456.441V339.62Z" fill="white" stroke="#263238" stroke-linecap="round" stroke-linejoin="round"/>
<path opacity="0.3" d="M452.289 343.77H448.539V347.52H452.289V343.77Z" fill="white" stroke="#263238" stroke-linecap="round" stroke-linejoin="round"/>
<path opacity="0.3" d="M448.141 347.91H444.391V351.66H448.141V347.91Z" fill="white" stroke="#263238" stroke-linecap="round" stroke-linejoin="round"/>
<path opacity="0.3" d="M373.281 347.91H369.531V351.66H373.281V347.91Z" fill="white" stroke="#263238" stroke-linecap="round" stroke-linejoin="round"/>
<path opacity="0.3" d="M379.039 347.91H375.289V351.66H379.039V347.91Z" fill="white" stroke="#263238" stroke-linecap="round" stroke-linejoin="round"/>
<path opacity="0.3" d="M384.801 347.91H381.051V351.66H384.801V347.91Z" fill="white" stroke="#263238" stroke-linecap="round" stroke-linejoin="round"/>
<path opacity="0.3" d="M390.559 347.91H386.809V351.66H390.559V347.91Z" fill="white" stroke="#263238" stroke-linecap="round" stroke-linejoin="round"/>
<path opacity="0.3" d="M396.32 347.91H392.57V351.66H396.32V347.91Z" fill="white" stroke="#263238" stroke-linecap="round" stroke-linejoin="round"/>
<path opacity="0.3" d="M402.07 347.91H398.32V351.66H402.07V347.91Z" fill="white" stroke="#263238" stroke-linecap="round" stroke-linejoin="round"/>
<path opacity="0.3" d="M407.832 347.91H404.082V351.66H407.832V347.91Z" fill="white" stroke="#263238" stroke-linecap="round" stroke-linejoin="round"/>
<path opacity="0.3" d="M413.59 347.91H409.84V351.66H413.59V347.91Z" fill="white" stroke="#263238" stroke-linecap="round" stroke-linejoin="round"/>
<path opacity="0.3" d="M419.352 347.91H415.602V351.66H419.352V347.91Z" fill="white" stroke="#263238" stroke-linecap="round" stroke-linejoin="round"/>
<path opacity="0.3" d="M425.109 347.91H421.359V351.66H425.109V347.91Z" fill="white" stroke="#263238" stroke-linecap="round" stroke-linejoin="round"/>
<path opacity="0.3" d="M430.871 347.91H427.121V351.66H430.871V347.91Z" fill="white" stroke="#263238" stroke-linecap="round" stroke-linejoin="round"/>
<path opacity="0.3" d="M436.629 347.91H432.879V351.66H436.629V347.91Z" fill="white" stroke="#263238" stroke-linecap="round" stroke-linejoin="round"/>
<path opacity="0.3" d="M442.379 347.91H438.629V351.66H442.379V347.91Z" fill="white" stroke="#263238" stroke-linecap="round" stroke-linejoin="round"/>
<path d="M500.231 374.37H333.231L331.001 356.48C330.001 366.31 329.511 376.79 329.301 385.4L329.881 387.79L333.231 381.08H347.561L338.561 388.46H471.361L466.621 381.08H500.201L509.591 386.45H516.301V352.24L500.231 374.37Z" fill="#263238" stroke="#263238" stroke-linecap="round" stroke-linejoin="round"/>
<path d="M631.391 304.62H637C636.41 296.4 634.06 278.27 624.85 263.04H619.23C622.46 270.05 630.131 288.12 631.391 304.62Z" fill="#263238" stroke="#263238" stroke-linecap="round" stroke-linejoin="round"/>
<path d="M510.45 274.32L512.5 280C509.974 282.402 508.503 285.706 508.41 289.19V304.67H495.83L506.36 274.37L510.45 274.32ZM451.68 282C443.05 287.25 430.01 298.84 423.68 304.63H465.68L487.41 271.27L473.1 272.27C465.566 274.565 458.365 277.836 451.68 282ZM538.56 277.91L533.45 276.91H526.29L524.29 278.91C524.29 278.91 529.4 279.42 529.91 282.49C530.26 285.544 530.431 288.616 530.42 291.69H534C534 291.69 534 286.07 536.55 283.51C537.997 282.053 539.534 280.687 541.15 279.42L538.56 277.91Z" fill="#525252" stroke="#263238" stroke-linecap="round" stroke-linejoin="round"/>
<path d="M600.912 300.9H600.082C599.254 300.906 598.437 300.715 597.698 300.343C596.959 299.971 596.318 299.429 595.83 298.761C595.342 298.093 595.019 297.318 594.889 296.501C594.759 295.683 594.825 294.847 595.082 294.06C596.082 290.84 597.892 287.59 600.862 287.06C606.992 286.06 623.862 291.15 623.862 294.73C623.862 298.31 623.862 299.84 621.862 299.84H609.082L598.862 311.08L598.652 310.9C598.126 310.457 597.703 309.904 597.413 309.281C597.123 308.657 596.973 307.978 596.973 307.29C596.973 306.602 597.123 305.923 597.413 305.299C597.703 304.676 598.126 304.123 598.652 303.68C599.557 302.887 600.321 301.948 600.912 300.9Z" fill="white" stroke="#263238" stroke-linecap="round" stroke-linejoin="round"/>
<path d="M598.651 310.94L598.861 311.12L609.081 299.88H621.861C623.551 299.88 623.861 298.81 623.861 296.43H594.941C595.117 297.669 595.733 298.803 596.678 299.624C597.622 300.445 598.83 300.898 600.081 300.9H600.911C600.318 301.963 599.547 302.917 598.631 303.72C598.107 304.164 597.685 304.718 597.397 305.343C597.109 305.967 596.96 306.647 596.962 307.335C596.964 308.022 597.116 308.701 597.408 309.324C597.7 309.947 598.124 310.498 598.651 310.94Z" fill="#263238" stroke="#263238" stroke-linecap="round" stroke-linejoin="round"/>
<path d="M630.191 316.97H618.691V319.44H630.191V316.97Z" fill="#263238" stroke="#263238" stroke-linecap="round" stroke-linejoin="round"/>
<path d="M681.961 316.97H670.461V319.44H681.961V316.97Z" fill="#263238" stroke="#263238" stroke-linecap="round" stroke-linejoin="round"/>
<path d="M682.781 307.11C682.781 307.11 691.111 312.76 695.931 332.58C695.931 332.58 675.391 335.05 675.391 391.74" stroke="#263238" stroke-linecap="round" stroke-linejoin="round"/>
<path d="M672.921 394.21H586.691C586.691 395.52 586.751 396.85 586.751 398.21C586.751 400.14 586.751 402.03 586.641 403.91H683.411C683.411 402.03 683.331 400.14 683.331 398.21V397.82L672.921 394.21Z" fill="#263238" stroke="#263238" stroke-linecap="round" stroke-linejoin="round"/>
<path d="M532.42 398.18C532.42 396.85 532.42 395.52 532.48 394.18H329.16C329.16 400.08 329.16 403.85 329.16 403.85H532.54C532.47 402 532.42 400.11 532.42 398.18Z" fill="#263238" stroke="#263238" stroke-linecap="round" stroke-linejoin="round"/>
<path d="M716.612 312C715.59 312 714.586 312.266 713.698 312.772C712.81 313.277 712.069 314.005 711.548 314.884C711.026 315.762 710.742 316.761 710.724 317.783C710.705 318.804 710.952 319.813 711.442 320.71L720.222 336.81V314.63C720.212 313.754 720.084 312.882 719.842 312.04H716.612V312Z" fill="#263238" stroke="#263238" stroke-linecap="round" stroke-linejoin="round"/>
<path d="M637.699 313.16C637.699 313.16 656.099 339.74 637.699 384.71" stroke="#263238" stroke-linecap="round" stroke-linejoin="round"/>
<path d="M56.7383 431.38H727.998" stroke="#263238" stroke-linecap="round" stroke-linejoin="round"/>
<path d="M45.0898 431.38H51.7198" stroke="#263238" stroke-linecap="round" stroke-linejoin="round"/>
<path d="M28 431.38H38.1" stroke="#263238" stroke-linecap="round" stroke-linejoin="round"/>
<path d="M70.1213 214.42L66.1213 215.42L69.3913 180.24L74.1613 174.46V167.68L59.5913 171.2L61.0813 180C61.0813 180 52.5413 222 52.0813 224.72C51.6213 227.44 52.8413 234.52 53.5913 234.77C54.3413 235.02 72.6913 230.5 72.6913 230.5L70.1213 214.42Z" fill="#FDD8BA" stroke="#263238" stroke-linecap="round" stroke-linejoin="round"/>
<path d="M166.852 195.08L190.222 154.38L189.712 141.81L191.222 138.3L205.542 137.54C205.542 137.54 202.542 148.09 202.542 148.85C202.542 149.61 198.022 156.85 198.022 156.85L179.422 206.09L166.102 209.9L166.852 195.08Z" fill="#FDD8BA" stroke="#263238" stroke-linecap="round" stroke-linejoin="round"/>
<path d="M46.0898 176.74L349.88 100.51" stroke="#263238" stroke-width="3" stroke-linecap="round" stroke-linejoin="round"/>
<path d="M194.239 141.56L205.039 140.56L205.289 135.03H191.979L191.719 139.55L194.239 141.56Z" fill="#FDD8BA" stroke="#263238" stroke-linecap="round" stroke-linejoin="round"/>
<path d="M191.719 150.36L186.199 140.05L189.459 134.53L195.999 131.53C196.246 131.607 196.473 131.739 196.663 131.914C196.853 132.09 197.001 132.306 197.097 132.547C197.193 132.787 197.234 133.046 197.217 133.305C197.2 133.563 197.126 133.814 196.999 134.04C196.249 136.04 192.479 137.56 192.479 137.56C192.479 137.56 195.479 142.84 195.739 145.85" fill="#FDD8BA"/>
<path d="M191.719 150.36L186.199 140.05L189.459 134.53L195.999 131.53C196.246 131.607 196.473 131.739 196.663 131.914C196.853 132.09 197.001 132.306 197.097 132.547C197.193 132.787 197.234 133.046 197.217 133.305C197.2 133.563 197.126 133.814 196.999 134.04C196.249 136.04 192.479 137.56 192.479 137.56C192.479 137.56 195.479 142.84 195.739 145.85" stroke="#263238" stroke-linecap="round" stroke-linejoin="round"/>
<path d="M97.2096 421.68C97.2096 421.68 86.2096 428.8 84.9096 433.33C83.6096 437.86 87.8296 439.15 92.9996 437.21C98.1696 435.27 103.68 429.44 103.68 429.44C103.68 429.44 107.24 430.74 108.21 426.53C109.18 422.32 105.94 417.47 105.94 417.47L97.2096 421.68Z" fill="#FDD8BA" stroke="#263238" stroke-linecap="round" stroke-linejoin="round"/>
<path d="M154.801 420.71C154.801 420.71 159.011 429.44 164.191 432.03C169.371 434.62 174.301 435.03 173.891 430.74C173.251 423.94 160.301 417.15 160.301 417.15L154.801 420.71Z" fill="#FDD8BA" stroke="#263238" stroke-linecap="round" stroke-linejoin="round"/>
<path d="M91.4805 284.27L91.7105 346.93C91.7105 346.93 92.0305 370.23 92.3605 385.76C92.6905 401.29 96.2405 423.3 96.2405 423.3C98.6517 424.044 101.214 424.155 103.68 423.62C104.687 423.374 105.622 422.895 106.409 422.221C107.196 421.547 107.813 420.697 108.21 419.74L110.8 381.56L116 324L119.88 325L135.09 374.18L151.91 419.81C151.91 419.81 152.23 422.07 155.47 422.07C158.71 422.07 162.91 418.19 162.91 418.19C162.91 418.19 157.09 377.1 155.79 370.63C155.198 367.328 154.335 364.08 153.21 360.92L136.7 286.5L135.41 284.23L93.0005 280.93L91.4805 284.27Z" fill="#263238" stroke="#263238" stroke-linecap="round" stroke-linejoin="round"/>
<path d="M109.071 205.13L91.0006 206.38L68.8906 213.92L72.8906 237.54L89.4706 234L91.4706 284.25C91.4706 284.25 93.2306 286.25 102.471 288.02C111.711 289.79 124.581 288.27 129.361 287.51C134.141 286.75 135.641 285.51 136.361 284.51C137.081 283.51 146.001 227.23 146.001 227.23L167.611 220.7L167.351 193.32L148.001 199.85L119.611 205.13H109.071Z" fill="#D3CDCD" stroke="#263238" stroke-linecap="round" stroke-linejoin="round"/>
<path d="M106.43 196.65L107.47 206.29L114.59 225.71L124.38 207.62L124.82 204.36L109.99 191.01L106.43 196.65Z" fill="#FDD8BA" stroke="#263238" stroke-linecap="round" stroke-linejoin="round"/>
<path d="M113.18 202.45L120.15 214.25L124.44 205.93L113.18 202.45Z" fill="#263238" stroke="#263238" stroke-linecap="round" stroke-linejoin="round"/>
<path d="M130.46 175.74C130.46 175.74 131.64 185.38 131.35 188.05C131.06 190.72 131.05 197.98 130.35 200.36C129.65 202.74 129.61 205.1 127.97 205.99C126.33 206.88 120.12 205.99 118.19 205.84C116.26 205.69 112.85 203.03 112.11 201.25C111.37 199.47 109.74 194.13 109.74 194.13C109.74 194.13 107.07 185.97 106.92 185.38C106.77 184.79 106.03 179.3 110.18 176.38C114.33 173.46 120.71 173.38 122.78 173.38C124.85 173.38 130.46 175.74 130.46 175.74Z" fill="#FDD8BA" stroke="#263238" stroke-linecap="round" stroke-linejoin="round"/>
<path d="M129.059 197.67C129.059 197.67 126.119 198.85 124.059 197.82" stroke="#263238" stroke-linecap="round" stroke-linejoin="round"/>
<path d="M123 189.15C123 189.88 122.73 190.47 122.41 190.47C122.09 190.47 121.82 189.88 121.82 189.15C121.82 188.42 122.09 187.83 122.41 187.83C122.73 187.83 123 188.42 123 189.15Z" fill="#263238"/>
<path d="M130.75 184.34L128.23 186.71L129.86 194.72L125.27 195.17" stroke="#263238" stroke-linecap="round" stroke-linejoin="round"/>
<path d="M124.509 185.33L119.379 186.44" stroke="#263238" stroke-linecap="round" stroke-linejoin="round"/>
<path d="M110.29 185.82C110.29 185.82 113.29 183.75 114 183.3C114.71 182.85 112.51 179.89 114 177.82C115.49 175.75 123.78 176.04 127.19 176.04C130.6 176.04 134.01 176.19 132.68 171.14C131.35 166.09 124.82 163.29 121.11 162.99C117.4 162.69 110.11 166.4 110.11 166.4C110.11 166.4 104.48 167.4 101.11 169.81C97.7402 172.22 96.9502 177.81 99.3302 182.27C101.71 186.73 103.03 188.94 103.03 188.94L109.85 187.46L110.29 185.82Z" fill="#525252" stroke="#263238" stroke-linecap="round" stroke-linejoin="round"/>
<path d="M105.909 184.79C105.909 184.79 106.289 169.22 110.139 166.4C110.139 166.4 105.139 165.21 101.839 169.22C100.681 175.223 101.193 181.428 103.319 187.16L106.319 187.31L105.909 184.79Z" fill="#263238" stroke="#263238" stroke-linecap="round" stroke-linejoin="round"/>
<path d="M112.361 191.24C112.361 192.516 111.983 193.763 111.274 194.823C110.565 195.884 109.558 196.711 108.379 197.199C107.201 197.687 105.904 197.815 104.653 197.566C103.401 197.317 102.252 196.703 101.35 195.801C100.448 194.899 99.8338 193.75 99.5849 192.498C99.336 191.247 99.4637 189.95 99.9519 188.772C100.44 187.593 101.267 186.586 102.328 185.877C103.388 185.168 104.635 184.79 105.911 184.79C107.622 184.79 109.262 185.47 110.472 186.679C111.681 187.889 112.361 189.529 112.361 191.24Z" fill="#263238" stroke="#263238" stroke-linecap="round" stroke-linejoin="round"/>
<path d="M59.5703 168.7L61.0803 174.98L73.6403 171.21L72.3903 164.17L59.5703 168.7Z" fill="#FDD8BA" stroke="#263238" stroke-linecap="round" stroke-linejoin="round"/>
<path d="M67.6116 178C65.1016 175.24 68.3616 172.73 68.3616 172.73L65.1016 173L64.6016 171.24L73.8916 168.73C73.8916 168.73 73.3916 173.5 74.1416 174.5C74.8916 175.5 69.3716 180.28 69.3716 180.28" fill="#FDD8BA"/>
<path d="M67.6116 178C65.1016 175.24 68.3616 172.73 68.3616 172.73L65.1016 173L64.6016 171.24L73.8916 168.73C73.8916 168.73 73.3916 173.5 74.1416 174.5C74.8916 175.5 69.3716 180.28 69.3716 180.28" stroke="#263238" stroke-linecap="round" stroke-linejoin="round"/>
<path d="M362.179 158.36L356.269 158.79C355.59 158.842 354.917 158.633 354.387 158.206C353.858 157.778 353.511 157.164 353.419 156.49L348.489 121C348.445 120.64 348.474 120.275 348.575 119.926C348.676 119.578 348.846 119.254 349.076 118.973C349.306 118.693 349.591 118.462 349.913 118.295C350.235 118.127 350.587 118.027 350.949 118L360.399 117.31C360.765 117.284 361.132 117.333 361.478 117.455C361.824 117.577 362.142 117.768 362.411 118.018C362.68 118.267 362.895 118.569 363.042 118.905C363.19 119.241 363.267 119.603 363.269 119.97L364.669 155.75C364.653 156.417 364.389 157.054 363.929 157.537C363.468 158.019 362.844 158.313 362.179 158.36Z" fill="#263238"/>
<path d="M345.27 100.91L346.9 118C346.927 118.279 347.01 118.55 347.145 118.796C347.279 119.042 347.463 119.258 347.683 119.431C347.904 119.604 348.158 119.73 348.429 119.802C348.7 119.874 348.982 119.891 349.26 119.85L354.26 119.1C354.756 119.022 355.207 118.766 355.527 118.379C355.848 117.992 356.016 117.502 356 117L355 99.43C354.98 99.1353 354.898 98.8482 354.758 98.5881C354.618 98.3279 354.424 98.1007 354.189 97.9217C353.954 97.7426 353.684 97.6159 353.396 97.5501C353.108 97.4843 352.809 97.4808 352.52 97.54L346.95 98.7C346.445 98.7927 345.993 99.0707 345.682 99.4795C345.371 99.8883 345.224 100.399 345.27 100.91Z" fill="#263238"/>
<path d="M244.473 251.25L243.723 278.19" stroke="#263238" stroke-width="4" stroke-linecap="round" stroke-linejoin="round"/>
<path d="M242.192 269.4C242.192 269.4 234.822 271.28 232.822 272.34C230.822 273.4 225.742 273.51 225.742 273.51L226.282 262.7L238.512 263.59L241.152 263.78L242.192 269.4Z" fill="#FDD8BA" stroke="#263238" stroke-linecap="round" stroke-linejoin="round"/>
<path d="M239.632 264.88L240.372 271.2C241.37 271.593 242.396 271.91 243.442 272.15C244.162 272.2 246.442 270.44 246.442 270.44L247.102 261.32L239.582 261.98L239.632 264.88Z" fill="#FDD8BA" stroke="#263238" stroke-linecap="round" stroke-linejoin="round"/>
<path d="M237.281 263.98L238.421 268.17L240.101 268.29L239.591 261.98L237.281 263.98Z" fill="#FDD8BA" stroke="#263238" stroke-linecap="round" stroke-linejoin="round"/>
<path d="M192.403 417.43C192.403 417.43 187.853 427 188.673 429C189.493 431 194.803 430.89 194.803 430.89L195.023 417.89C195.023 417.89 193.823 414.4 192.403 417.43Z" fill="#FDD8BA" stroke="#263238" stroke-linecap="round" stroke-linejoin="round"/>
<path d="M204.912 424.36C204.912 424.36 210.682 427.92 212.312 428.76C213.942 429.6 220.822 431.06 220.962 432.52C221.102 433.98 214.272 434.93 210.862 435.4C207.452 435.87 192.452 433.34 191.772 432.81C191.092 432.28 193.642 423.55 193.642 423.55L204.912 424.36Z" fill="#FDD8BA" stroke="#263238" stroke-linecap="round" stroke-linejoin="round"/>
<path d="M227.483 299.43C227.483 299.43 224.483 350.81 224.713 357.57C224.943 364.33 222.433 368.98 222.293 370.9C222.153 372.82 206.003 412.63 206.003 412.63L202.923 421.81L196.633 412.19L203.273 367.11L196.773 300.58L213.563 298.43L227.483 299.43Z" fill="#525252" stroke="#263238" stroke-linecap="round" stroke-linejoin="round"/>
<path d="M174.812 300.92C174.812 300.92 178.512 323.12 182.402 332.57C186.292 342.02 191.202 367.44 191.202 367.44C191.202 367.44 188.113 380.23 190.143 385.44C192.173 390.65 192.283 419.11 192.283 419.11C192.038 420.766 191.915 422.437 191.913 424.11C192.083 425.11 192.202 426.79 192.202 426.79C192.202 426.79 197.083 425.93 198.783 425.79C200.483 425.65 206.342 424.65 206.342 424.65C206.342 424.65 206.603 421.05 206.993 418.91C207.383 416.77 205.993 413.29 205.993 412.57C205.993 411.85 208.372 392.97 208.372 392.97C208.372 392.97 211.912 367.44 212.262 362.64C212.612 357.84 207.152 306.82 207.152 306.82C207.152 306.82 191.962 296.82 186.232 296.14C180.502 295.46 174.812 300.92 174.812 300.92Z" fill="#525252" stroke="#263238" stroke-linecap="round" stroke-linejoin="round"/>
<path d="M192.073 209.57C192.073 209.57 170.913 221.44 170.833 222.57C170.753 223.7 178.103 270.2 178.103 270.2C178.103 270.2 172.413 295.83 172.203 298.68C172.098 300.727 172.141 302.779 172.333 304.82L184.423 299.19C184.423 299.19 205.763 308.58 208.593 309.19L214.253 310.37L217.113 305.21L217.403 311.75C219.862 309.913 222.131 307.833 224.173 305.54L228.823 299.54L226.733 270.29C226.733 270.29 228.003 223.66 228.153 221.57C228.303 219.48 228.503 216.81 226.503 215.32C224.503 213.83 209.813 210.47 209.813 210.47L195.273 207.69L192.073 209.57Z" fill="#BC9999" stroke="#263238" stroke-linecap="round" stroke-linejoin="round"/>
<path d="M207.17 213.52L219.07 217.23C219.435 217.342 219.819 217.377 220.198 217.332C220.576 217.288 220.942 217.164 221.27 216.97L224.93 214.81C224.971 214.267 224.829 213.725 224.526 213.272C224.223 212.819 223.778 212.48 223.26 212.31C220.26 211.31 214.26 209.4 212.84 209.42C210.93 209.46 206.89 210.21 207.17 213.52Z" fill="#828282" stroke="#263238" stroke-linecap="round" stroke-linejoin="round"/>
<path d="M194.59 193.28L196.35 206.05L208.4 216.69L211.05 206.54L198.4 190.88L194.59 193.28Z" fill="#FDD8BA" stroke="#263238" stroke-linecap="round" stroke-linejoin="round"/>
<path d="M203.531 204.15L208.991 211.71L210.461 207.72L203.531 204.15Z" fill="#263238"/>
<path d="M221.26 179.33L220.84 187.72L219.74 189.72L219.94 197.58L218.51 198.82C218.51 198.82 216.29 205.55 215.87 206.09C214.851 207.121 213.693 208.006 212.43 208.72C211.64 209.04 203.91 204.65 202.7 202.84C201.49 201.03 200.12 198.84 200.12 198.84L200.36 192.92L199.82 181.92L221.26 179.33Z" fill="#FDD8BA" stroke="#263238" stroke-linecap="round" stroke-linejoin="round"/>
<path d="M214.703 190.33V192.53C214.189 192.779 213.616 192.884 213.047 192.833C212.479 192.782 211.934 192.577 211.473 192.24" stroke="#263238" stroke-linecap="round" stroke-linejoin="round"/>
<path d="M215.733 201.78C215.733 201.78 215.003 201.93 213.383 200.9" stroke="#263238" stroke-linecap="round" stroke-linejoin="round"/>
<path d="M209.831 184L220.751 184.63L221.261 179.33L208.781 182.74L209.831 184Z" fill="#263238"/>
<path d="M216.52 189.32L210.43 188.69" stroke="#263238" stroke-linecap="round" stroke-linejoin="round"/>
<path d="M218.511 198.85L214.461 199.13" stroke="#263238" stroke-linecap="round" stroke-linejoin="round"/>
<path d="M221.26 179.33C221.26 179.33 221.87 168.27 219.18 165.77C216.49 163.27 203.92 162.37 202.53 163.03C201.553 163.525 200.616 164.097 199.73 164.74C197.005 166.297 194.383 168.027 191.88 169.92C189.64 171.86 188.37 173.49 188.12 176.92C187.87 180.35 188.94 186.75 188.94 186.75L221.26 179.33Z" fill="#8568F5" stroke="#263238" stroke-linecap="round" stroke-linejoin="round"/>
<path d="M199.82 182C199.82 182 220.62 177.58 224.65 177.49C228.68 177.4 232.92 176.94 232.92 176.94C232.92 176.94 222.55 180.01 217.26 181.74C212.404 183.093 207.467 184.142 202.48 184.88L199.82 182Z" fill="#8568F5" stroke="#263238" stroke-linecap="round" stroke-linejoin="round"/>
<path d="M198.092 180.71C198.092 180.71 198.012 175.15 198.282 171.53C198.474 169.214 198.962 166.932 199.732 164.74C199.732 164.74 194.302 165.69 193.332 168.49C192.362 171.29 194.772 183 194.772 183L198.432 182.69L198.142 181.33L198.092 180.71Z" fill="#263238" stroke="#263238" stroke-linecap="round" stroke-linejoin="round"/>
<path d="M205.24 189C205.13 190.525 204.569 191.983 203.63 193.189C202.691 194.395 201.415 195.296 199.964 195.777C198.513 196.258 196.951 196.298 195.477 195.892C194.004 195.486 192.683 194.652 191.683 193.495C190.683 192.339 190.049 190.912 189.86 189.395C189.671 187.878 189.936 186.339 190.622 184.972C191.308 183.606 192.384 182.473 193.713 181.718C195.042 180.963 196.566 180.619 198.09 180.73C200.134 180.881 202.035 181.836 203.375 183.387C204.716 184.937 205.386 186.956 205.24 189Z" fill="#263238" stroke="#263238" stroke-linecap="round" stroke-linejoin="round"/>
<path d="M192.412 202.32L205.012 208.02L208.882 218.06L189.992 209.22L192.412 202.32Z" fill="#FDD8BA" stroke="#263238" stroke-linecap="round" stroke-linejoin="round"/>
<path d="M225.742 256.88L224.992 283.83" stroke="#263238" stroke-width="4" stroke-linecap="round" stroke-linejoin="round"/>
<path d="M177.411 219C177.411 219 166.411 222.42 166.271 224.71C166.131 227 173.831 276.19 175.411 278.22C176.991 280.25 186.511 280.94 186.511 280.94L191.781 266.38L188.841 264.64L187.171 227" fill="#FDD8BA"/>
<path d="M177.411 219C177.411 219 166.411 222.42 166.271 224.71C166.131 227 173.831 276.19 175.411 278.22C176.991 280.25 186.511 280.94 186.511 280.94L191.781 266.38L188.841 264.64L187.171 227" stroke="#263238" stroke-linecap="round" stroke-linejoin="round"/>
<path d="M194.611 267L216.611 269.37L220.981 264.51L230.661 265.6C231.001 265.89 231.269 266.255 231.442 266.666C231.616 267.078 231.691 267.524 231.661 267.97C231.535 268.962 231.06 269.876 230.321 270.55C230.321 270.55 228.961 276.2 228.131 277.09C227.301 277.98 215.801 278.09 215.801 278.09L188.801 280.92C188.801 280.92 190.611 274.35 191.721 272.33C192.831 270.31 194.611 267 194.611 267Z" fill="#FDD8BA" stroke="#263238" stroke-linecap="round" stroke-linejoin="round"/>
<path d="M188.751 263.32C188.751 263.32 184.551 268.38 184.171 271.03C183.791 273.68 183.101 283.03 184.061 283.09C185.021 283.15 188.401 283.97 189.191 283.65C189.981 283.33 191.281 275.95 191.281 275.95C191.281 275.95 196.701 267.15 196.171 266.54C195.641 265.93 188.751 263.32 188.751 263.32Z" fill="#FDD8BA" stroke="#263238" stroke-linecap="round" stroke-linejoin="round"/>
<path d="M172.412 217.81L189.002 223C189.509 223.158 190.043 223.208 190.57 223.146C191.097 223.084 191.606 222.912 192.062 222.64L197.162 219.64C197.216 218.884 197.016 218.131 196.594 217.5C196.172 216.87 195.552 216.398 194.832 216.16C190.592 214.76 182.302 212.16 180.342 212.16C177.642 212.17 172.002 213.2 172.412 217.81Z" fill="#828282" stroke="#263238" stroke-linecap="round" stroke-linejoin="round"/>
<path d="M191.73 220.66L212.7 227.25L236.15 219.78L223.63 216.22" stroke="#263238" stroke-width="2" stroke-linecap="round" stroke-linejoin="round"/>
<path d="M232.663 257.86L225.163 254.91L219.473 256.91L212.453 253.99L213.313 235.49L224.403 232.19L240.723 236.51L240.243 256.48L232.663 257.86Z" fill="#828282" stroke="#263238" stroke-linecap="round" stroke-linejoin="round"/>
<path d="M213.312 235.49L220.143 237.67L225.533 236.61L233.743 239.62L241.663 236.82L224.402 232.19L213.312 235.49Z" stroke="#263238" stroke-linecap="round" stroke-linejoin="round"/>
<path d="M219.473 256.91L220.143 237.67L225.533 236.61L225.163 254.91L219.473 256.91Z" fill="#263238" stroke="#263238" stroke-linecap="round" stroke-linejoin="round"/>
<path d="M236.04 236.43L247.75 232.68L246.37 255L236.02 259.74L236.04 236.43Z" fill="#828282" stroke="#263238" stroke-linecap="round" stroke-linejoin="round"/>
<path d="M236.441 232.34L250.771 227.6L247.751 232.68L236.871 236.47L236.441 232.34Z" fill="#263238" stroke="#263238" stroke-linecap="round" stroke-linejoin="round"/>
<path d="M250.771 227.6L250.131 259.61L246.371 255L247.751 232.68L250.771 227.6Z" fill="#263238" stroke="#263238" stroke-linecap="round" stroke-linejoin="round"/>
<path d="M232.641 261.48L246.371 255L250.131 259.61L235.651 266.52L232.641 261.48Z" fill="#263238" stroke="#263238" stroke-linecap="round" stroke-linejoin="round"/>
<path d="M231.693 238.03L231.203 261.37L235.653 266.52L236.443 232.34L231.693 238.03Z" fill="#263238" stroke="#263238" stroke-linecap="round" stroke-linejoin="round"/>
<path d="M244.792 246.93C245.186 241.499 243.786 236.971 241.665 236.817C239.545 236.663 237.506 240.942 237.112 246.373C236.718 251.804 238.118 256.332 240.238 256.486C242.359 256.64 244.398 252.361 244.792 246.93Z" fill="#263238" stroke="#263238" stroke-linecap="round" stroke-linejoin="round"/>
<path d="M226.77 222.72L226.88 234.54" stroke="#263238" stroke-width="2" stroke-linecap="round" stroke-linejoin="round"/>
<path d="M231.91 221.65L232.02 206.95" stroke="#263238" stroke-width="2" stroke-linecap="round" stroke-linejoin="round"/>
<path d="M234.432 193.62L234.082 215.06L249.072 211.08L250.112 190.18L234.432 193.62Z" fill="#828282" stroke="#263238" stroke-linecap="round" stroke-linejoin="round"/>
<path d="M234.431 193.62L232.151 195.15L226.551 195.94L226.531 206.07L231.911 208.39L234.081 215.06L234.431 193.62Z" fill="#263238" stroke="#263238" stroke-linecap="round" stroke-linejoin="round"/>
<path d="M139.649 171.31C139.649 171.31 133.279 175.51 132.459 178.31C131.639 181.11 129.779 186.45 131.149 189.15C132.519 191.85 134.719 198.76 135.519 199.9C136.319 201.04 139.059 206.45 139.059 206.45L139.139 212.35L159.329 214.44C159.329 214.44 161.869 212.19 162.429 210.04C162.989 207.89 164.429 202.95 164.429 202.95C164.429 202.95 167.359 201.38 167.429 200.29C167.499 199.2 165.579 194.72 165.579 194.72L167.809 190.27L167.969 187.66C167.969 187.66 172.969 187.74 171.969 183.09C170.969 178.44 164.469 173.47 156.969 170.4C149.469 167.33 142.329 170.38 139.649 171.31Z" fill="#D6B3A6" stroke="#263238" stroke-linecap="round" stroke-linejoin="round"/>
<path d="M157.692 211.83L156.352 207.83L161.182 212.12C161.182 212.12 160.112 213.46 157.692 211.85" fill="#263238"/>
<path d="M157.692 211.83L156.352 207.83L161.182 212.12C161.182 212.12 160.112 213.46 157.692 211.85" stroke="#263238" stroke-linecap="round" stroke-linejoin="round"/>
<path d="M157.002 170.39C149.542 167.32 142.372 170.39 139.692 171.31C139.692 171.31 133.322 175.51 132.502 178.31C131.682 181.11 129.822 186.45 131.192 189.15C132.562 191.85 134.762 198.76 135.562 199.9C136.362 201.04 139.102 206.45 139.102 206.45V206.51C141.432 205.87 146.802 204.46 148.832 204.41C151.462 204.35 156.172 202.23 156.172 202.23C156.172 202.23 154.242 201.68 153.322 198.79C152.402 195.9 153.562 191.16 154.472 190.56C155.382 189.96 157.342 193.79 157.342 193.79L160.142 190.68C160.142 190.68 162.602 189.74 163.322 188.68C164.042 187.62 161.262 183.09 161.262 183.09L167.972 187.65C167.972 187.65 172.972 187.73 171.972 183.08C170.972 178.43 164.422 173.46 157.002 170.39Z" fill="#263238" stroke="#263238" stroke-linecap="round" stroke-linejoin="round"/>
<path d="M134.402 218.61C134.402 218.61 142.162 216.67 147.012 215.87C151.862 215.07 162.362 214.87 162.362 214.87C159.595 212.962 156.611 211.391 153.472 210.19C149.402 208.85 140.392 209.83 138.112 211.44C135.832 213.05 134.402 218.61 134.402 218.61Z" fill="#8568F5" stroke="#263238" stroke-linecap="round" stroke-linejoin="round"/>
<path d="M122.591 276.86C122.591 276.86 123.461 280.41 125.801 281.43C128.141 282.45 133.231 281.43 134.801 277.6C136.371 273.77 132.801 271.36 132.801 271.36L121.891 274L122.591 276.86Z" fill="#D6B3A6" stroke="#263238" stroke-linecap="round" stroke-linejoin="round"/>
<path d="M119.081 266.17C119.081 266.17 117.251 267.59 117.181 268.68C117.111 269.77 119.491 277.55 120.571 277.62C121.651 277.69 126.571 278.85 129.571 277.5C131.547 276.403 133.162 274.757 134.221 272.76L133.001 263.51L119.081 266.17Z" fill="#8568F5" stroke="#263238" stroke-linecap="round" stroke-linejoin="round"/>
<path d="M125.332 427.08L124.422 434.88C125.436 435.585 126.606 436.031 127.832 436.18C129.582 436.29 135.752 435.35 136.402 435.39L142.062 435.73C143.362 435.81 143.832 435.4 143.662 434.51C143.492 433.62 137.882 428.92 137.882 428.92L136.772 425.58L126.102 425.16L125.332 427.08Z" fill="#D6B3A6" stroke="#263238" stroke-linecap="round" stroke-linejoin="round"/>
<path d="M189.712 427.9C189.712 427.9 188.342 436.12 189.362 437.27C190.382 438.42 193.022 438.14 194.542 438.27C196.062 438.4 203.982 437.52 205.542 437.62C207.102 437.72 215.142 437.76 217.202 436.35C219.262 434.94 217.572 433.75 215.202 432.96C212.832 432.17 204.922 429.5 203.442 428.75C202.129 428.028 200.863 427.223 199.652 426.34L189.712 427.9Z" fill="#D6B3A6" stroke="#263238" stroke-linecap="round" stroke-linejoin="round"/>
<path d="M133.79 286.71C133.79 286.71 132.27 304.53 133.42 307.22C134.57 309.91 134.64 326.95 134.49 329.34C134.34 331.73 135.16 368.92 135.16 368.92C135.16 368.92 129.31 397.18 128.58 402.15C127.85 407.12 126.77 421.27 126.77 421.27C126.77 421.27 132.77 422.5 133.9 422.57C135.168 422.48 136.425 422.262 137.65 421.92C137.65 421.92 150 384.44 151 381C152 377.56 153.15 367.15 153.22 366.07C153.29 364.99 161.17 324.61 161.17 324.61L165.91 332.98L180.55 376.45L188.55 424.11L198.3 423C198.3 423 199.3 389 199.6 383.32C199.689 378.984 199.354 374.65 198.6 370.38C198.6 370.38 196 333.75 193.5 328.14C191 322.53 184.61 301.61 184.61 301.61L181.26 288.31C173.741 289.616 166.095 290.032 158.48 289.55C145.68 288.74 133.79 286.71 133.79 286.71Z" fill="#6B6B6B" stroke="#263238" stroke-linecap="round" stroke-linejoin="round"/>
<path d="M161.202 324.62L150.402 317.17L157.532 326.02L155.952 350.75L161.202 324.62Z" fill="#263238" stroke="#263238" stroke-linecap="round" stroke-linejoin="round"/>
<path d="M199.492 417.79C199.492 417.79 193.292 419.16 191.312 419.48L186.242 420.26L188.322 429.13C188.322 429.13 197.512 428.81 201.582 426.65L199.492 417.79Z" fill="#A6A6A6" stroke="#263238" stroke-linecap="round" stroke-linejoin="round"/>
<path d="M125.851 418.37C125.851 418.37 133.591 420.37 135.121 420.46L140.341 420.77L139.341 427.04C136.826 427.717 134.236 428.077 131.631 428.11C128.631 427.93 124.461 427.46 124.461 427.46L125.851 418.37Z" fill="#A6A6A6" stroke="#263238" stroke-linecap="round" stroke-linejoin="round"/>
<path d="M201.24 232.9L210.37 226.46L192.67 219.28C192.67 219.28 181.6 225.38 178.51 229.56C175.42 233.74 174.93 234.56 174.93 234.56L187.69 247.56C187.69 247.56 197.42 234.64 201.24 232.9Z" fill="white" stroke="#263238" stroke-linecap="round" stroke-linejoin="round"/>
<path d="M187.702 254.58L192.482 244.17C192.482 244.17 192.172 238.47 193.092 237.65C194.003 236.62 194.804 235.497 195.482 234.3C195.482 234.3 195.892 231.05 196.782 230.88C197.672 230.71 198.062 231.4 197.962 232.88C197.733 234.226 197.287 235.526 196.642 236.73L201.242 232.86C201.427 234.748 201.461 236.647 201.342 238.54C201.052 239.62 198.002 243.15 198.002 243.15C198.002 243.15 194.262 265.42 193.932 267.15C193.602 268.88 187.642 273.76 185.182 274.7C182.722 275.64 179.252 275.22 179.982 266.7L187.702 254.58Z" fill="#D6B3A6" stroke="#263238" stroke-linecap="round" stroke-linejoin="round"/>
<path d="M135.541 217.8C135.541 217.8 116.131 228.21 116.001 230.6C115.871 232.99 118.471 240.36 118.471 240.36C118.471 240.36 119.241 260.28 119.271 263.36C119.301 266.44 118.511 268.77 121.401 271.57C124.291 274.37 127.691 272.17 129.501 271.18C130.544 270.651 131.368 269.774 131.831 268.7C131.831 268.7 133.961 276.91 133.591 279.51C133.221 282.11 131.591 287.69 131.921 289.02C132.251 290.35 135.851 292.75 148.921 293.1C161.991 293.45 174.701 292.91 178.921 291.85C183.141 290.79 184.091 289.33 184.181 287.8C184.271 286.27 181.791 273 181.791 273L180.871 270.1C180.871 270.1 188.431 267.94 189.571 267.1C190.711 266.26 191.681 261.1 191.111 259.55C190.541 258 189.771 256.41 189.771 256.41C189.771 256.41 185.601 231.48 185.461 230.16C185.321 228.84 186.941 223.7 185.791 221.01C184.641 218.32 162.131 215.01 160.221 214.01C158.311 213.01 141.351 215.53 135.541 217.8Z" fill="#8568F5" stroke="#263238" stroke-linecap="round" stroke-linejoin="round"/>
<path d="M131.812 268.68L124.742 244.67" stroke="#263238" stroke-linecap="round" stroke-linejoin="round"/>
<path d="M138.191 286.1L160.641 272.39" stroke="#263238" stroke-linecap="round" stroke-linejoin="round"/>
<path d="M154.252 272.84L143.242 282.04" stroke="#263238" stroke-linecap="round" stroke-linejoin="round"/>
<path d="M159.573 268.39L156.562 270.9" stroke="#263238" stroke-linecap="round" stroke-linejoin="round"/>
<path d="M180.871 270.11L178.031 233.9" stroke="#263238" stroke-linecap="round" stroke-linejoin="round"/>
<path d="M180.199 262.34C180.199 262.34 187.119 260.66 187.769 260.7C188.419 260.74 189.599 255.79 189.599 255.79C189.599 255.79 189.599 255.13 190.899 255.86C192.199 256.59 193.089 259.49 192.249 262.5C191.409 265.51 191.319 267.03 188.619 268.39C186.131 269.526 183.576 270.511 180.969 271.34L180.199 262.34Z" fill="#8568F5" stroke="#263238" stroke-linecap="round" stroke-linejoin="round"/>
<path d="M328.711 204.03L328.351 211.85L324.041 211.65L317.981 211.38L312.741 211.14L306.691 210.87L301.451 210.63L295.391 210.36L292.621 210.23L292.981 202.4L299.231 202.69L305.541 202.97L310.521 203.2L316.831 203.49L321.811 203.72L328.121 204L328.711 204.03Z" fill="#263238" stroke="#263238" stroke-linecap="round" stroke-linejoin="round"/>
<path d="M301.451 210.63L305.541 202.97L299.231 202.69L295.391 210.36" fill="#FFFCFA"/>
<path d="M301.451 210.63L305.541 202.97L299.231 202.69L295.391 210.36" stroke="#263238" stroke-linecap="round" stroke-linejoin="round"/>
<path d="M312.741 211.14L316.831 203.49L310.521 203.2L306.691 210.87" fill="#FCFCFC"/>
<path d="M312.741 211.14L316.831 203.49L310.521 203.2L306.691 210.87" stroke="#263238" stroke-linecap="round" stroke-linejoin="round"/>
<path d="M324.04 211.65L328.12 204L321.81 203.72L317.98 211.38" fill="#FDD8BA"/>
<path d="M324.04 211.65L328.12 204L321.81 203.72L317.98 211.38" stroke="#263238" stroke-linecap="round" stroke-linejoin="round"/>
<path d="M328.578 212.252L292.852 214.025L293.847 234.09L329.573 232.318L328.578 212.252Z" fill="#263238" stroke="#263238" stroke-linecap="round" stroke-linejoin="round"/>
<path d="M328.902 218.89L323.962 219.14L319.032 219.39L314.162 219.63L309.272 219.88L304.382 220.13L299.522 220.37L293.182 220.69L292.852 214.02L296.342 213.85L301.662 213.58L306.112 213.36L311.462 213.1L315.862 212.88L321.242 212.61L328.572 212.25L328.902 218.89Z" fill="#263238" stroke="#263238" stroke-linecap="round" stroke-linejoin="round"/>
<path d="M304.38 220.13L301.66 213.58L296.34 213.85L299.52 220.37" fill="#FFFDFC"/>
<path d="M304.38 220.13L301.66 213.58L296.34 213.85L299.52 220.37" stroke="#263238" stroke-linecap="round" stroke-linejoin="round"/>
<path d="M314.159 219.63L309.269 219.88L306.109 213.36L311.459 213.1L314.159 219.63Z" fill="#F5F5F5" stroke="#263238" stroke-linecap="round" stroke-linejoin="round"/>
<path d="M323.959 219.14L319.029 219.39L315.859 212.88L321.239 212.61L323.959 219.14Z" fill="#FAF7F5" stroke="#263238" stroke-linecap="round" stroke-linejoin="round"/>
<path d="M332.443 201.58C332.443 201.58 326.523 199.1 325.703 199.46C324.883 199.82 314.543 203 314.543 203L320.903 203.27C319.368 204.089 317.789 204.823 316.173 205.47C315.363 205.63 317.473 207.94 318.893 207.6C320.455 207.066 321.967 206.396 323.413 205.6L327.823 205.8C329.024 205.765 330.203 205.475 331.283 204.95L357.333 233.69L361.993 237.52L372.633 229.15L347.563 209.71L332.443 201.58Z" fill="#FDD8BA" stroke="#263238" stroke-linecap="round" stroke-linejoin="round"/>
<path d="M336.41 264.77C336.41 264.77 322.21 238.11 320.5 236C318.79 233.89 317.09 232.15 315.67 232C314.25 231.85 309.96 230.47 308.16 230.56C306.36 230.65 305.39 231.5 306.43 232.26C307.585 232.858 308.827 233.269 310.11 233.48L300.48 233.96C300.48 233.96 302.89 237.86 304.35 238.96C305.81 240.06 315.62 238.96 315.62 238.96C315.62 238.96 324.53 268.5 325.33 272.48C326.13 276.46 330.15 280.29 330.75 280.26C331.35 280.23 339.75 274.79 339.75 274.79L336.41 264.77Z" fill="#FDD8BA" stroke="#263238" stroke-linecap="round" stroke-linejoin="round"/>
<path d="M376.742 427.83C376.742 427.83 377.462 433.99 377.352 434.55C377.242 435.11 374.812 436.19 374.132 436.22C373.452 436.25 365.412 435.28 364.992 435.3C364.572 435.32 364.152 426.66 364.152 426.66L371.022 426.32C371.572 426.3 376.742 427.83 376.742 427.83Z" fill="#FDD8BA" stroke="#263238" stroke-linecap="round" stroke-linejoin="round"/>
<path d="M356.321 426.92C356.321 426.92 353.321 428.44 350.551 429.92C347.781 431.4 342.881 433.6 342.231 434.32C341.581 435.04 343.031 436.62 343.591 436.87C348.372 437.836 353.243 438.288 358.121 438.22C363.611 437.94 367.871 437.73 368.211 436.22C368.395 434.757 368.412 433.277 368.261 431.81C368.261 431.81 359.511 430.34 356.321 426.92Z" fill="#FDD8BA" stroke="#263238" stroke-linecap="round" stroke-linejoin="round"/>
<path d="M348.45 296.08C348.45 296.08 348.38 296.22 348.27 296.47C347.27 298.69 342.46 309.99 341.32 321.77C340.538 329.517 340.835 337.335 342.2 345L349.39 378.93C349.39 378.93 348.84 389.93 350.61 395.12C352.38 400.31 357.15 424.4 357.15 424.4C357.15 424.4 355.79 424.6 355.82 425.29C355.77 425.959 355.619 426.617 355.37 427.24C355.37 427.24 355.89 426.66 358.22 429.16C360.55 431.66 365.34 433.9 366.3 433.86L368.36 433.75V427.56C368.36 427.56 372.04 429.56 374.24 429.47C375.481 429.433 376.694 429.089 377.77 428.47C377.77 428.47 377.57 421.73 377.66 420.76C377.75 419.79 379.46 396.03 378.19 389.76C376.92 383.49 374.5 370.94 374.5 370.94C374.5 370.94 386.15 336.62 387.38 330.94C388.61 325.26 389.19 311.84 388.26 306.94C387.492 303.358 386.49 299.831 385.26 296.38L382.71 292.9C382.71 292.9 372.06 297.56 363.29 295.65C354.52 293.74 350.9 292.82 350.9 292.82L348.45 296.08Z" fill="#525252" stroke="#263238" stroke-linecap="round" stroke-linejoin="round"/>
<path d="M383.272 323.55L368.762 330.88C368.762 330.88 365.272 363.13 365.012 363.56C364.752 363.99 365.562 374.56 365.642 376.19C365.651 377.492 365.53 378.792 365.282 380.07C366.502 383.968 367.257 387.995 367.532 392.07C368.012 398.93 367.952 414.36 367.952 414.36L368.832 426.57" stroke="#263238" stroke-linecap="round" stroke-linejoin="round"/>
<path d="M363.193 236.88C363.193 236.88 350.623 242.94 350.483 244.15C350.343 245.36 337.883 261.88 337.883 261.88C337.883 261.88 338.203 268.3 339.353 271.26L341.193 276L350.563 270.1L352.093 284.71L348.263 296.77C348.263 296.77 353.183 302.57 360.023 302.63C366.863 302.69 376.633 300.8 379.383 299.46C382.133 298.12 385.263 296.35 385.263 296.35L381.763 282.64C381.763 282.64 392.823 258.15 393.243 250.48C393.663 242.81 391.313 231.87 389.663 230.94C388.943 230.504 388.183 230.139 387.393 229.85L363.193 236.88Z" fill="#F3CBCB" stroke="#263238" stroke-linecap="round" stroke-linejoin="round"/>
<path d="M340.551 258.93C340.551 258.93 339.241 265.03 340.811 268.17C342.381 271.31 344.211 275.85 344.211 275.85L338.911 278.53C338.911 278.53 335.541 275.53 335.331 271.26C335.121 266.99 335.121 263.02 335.121 263.02C335.121 263.02 338.881 257.81 340.551 258.93Z" fill="#EDE8E8" stroke="#263238" stroke-linecap="round" stroke-linejoin="round"/>
<path d="M350.562 270.1L360.182 265.4" stroke="#263238" stroke-linecap="round" stroke-linejoin="round"/>
<path d="M356.359 196.38C356.359 196.38 354.549 200.49 354.659 202.7C354.769 204.91 354.299 207.55 354.329 208.35C354.359 209.15 352.049 210.88 352.139 212.69C352.312 213.917 352.94 215.035 353.899 215.82C353.899 215.82 354.739 224.63 356.029 226.37C357.319 228.11 362.399 224.85 362.399 224.85L365.659 233.94L374.419 231.94C374.419 231.94 373.029 216.12 371.669 209.14C370.309 202.16 365.759 195.35 362.929 195.14C360.099 194.93 356.359 196.38 356.359 196.38Z" fill="#FDD8BA" stroke="#263238" stroke-linecap="round" stroke-linejoin="round"/>
<path d="M355.07 217.33C355.07 217.33 356.8 217.18 357.07 216.17" stroke="#263238" stroke-linecap="round" stroke-linejoin="round"/>
<path d="M355.5 205.17C355.5 205.17 356.37 203.87 357.5 206.33" stroke="#263238" stroke-linecap="round" stroke-linejoin="round"/>
<path d="M356.302 210.67C356.661 210.67 356.952 209.86 356.952 208.86C356.952 207.86 356.661 207.05 356.302 207.05C355.943 207.05 355.652 207.86 355.652 208.86C355.652 209.86 355.943 210.67 356.302 210.67Z" fill="#263238"/>
<path d="M372.7 229.77C372.7 229.77 360.64 233.99 359.87 234.84C359.1 235.69 359.28 239.09 359.28 239.09L376.33 234L374.7 229.45L372.7 229.77Z" fill="#FDD8BA" stroke="#263238" stroke-linecap="round" stroke-linejoin="round"/>
<path d="M358.17 188.24C358.17 188.24 354.38 189.04 354.62 193.85C354.86 198.66 357.84 201.94 359.55 204.07C361.26 206.2 367.26 209.32 367.26 209.32C367.26 209.32 367.54 218.96 367.14 223.21C366.74 227.46 362.14 231.3 362.14 231.3C365.843 233.477 370.075 234.592 374.37 234.52C379.423 234.136 384.382 232.948 389.06 231C390.63 230.32 391.92 227.84 391.92 227.84C391.92 227.84 389.92 219.89 389.87 219.09C389.82 218.29 389.02 214.09 389.02 214.09L387.47 207.09C388.619 205.728 389.307 204.038 389.436 202.262C389.565 200.485 389.129 198.714 388.19 197.2C384.9 191.73 378.47 187.82 370.19 186.42C361.91 185.02 358.17 188.24 358.17 188.24Z" fill="#263238" stroke="#263238" stroke-linecap="round" stroke-linejoin="round"/>
<path d="M384.09 203.86C384.846 205.975 385.293 208.188 385.42 210.43C385.561 212.319 385.454 214.219 385.1 216.08C385.1 216.08 389.76 216.85 391.67 214.75C393.58 212.65 391.88 206.69 389.35 204.4C386.82 202.11 384.16 201.24 384.09 203.86Z" fill="#263238" stroke="#263238" stroke-linecap="round" stroke-linejoin="round"/>
<path d="M543.43 422.1C545.166 423.215 546.772 424.52 548.22 425.99C549.82 427.81 557.84 432.9 558.3 435.18C558.76 437.46 557.38 437.92 557.38 437.92C557.38 437.92 555.38 438.84 550.76 438.15C546.14 437.46 538.4 433.29 538.18 432.38C537.96 431.47 536.12 430.78 536.12 430.78L535.89 432.15C534.525 431.709 533.222 431.098 532.01 430.33C531.236 429.58 530.683 428.632 530.41 427.59C530.41 427.59 532.69 423.02 532.69 422.33C532.69 421.64 543.43 422.1 543.43 422.1Z" fill="#263238" stroke="#263238" stroke-linecap="round" stroke-linejoin="round"/>
<path d="M475.368 428.19C475.368 428.19 472.858 433.19 471.488 435.5C470.118 437.81 466.488 439.61 464.178 440.3C461.868 440.99 458.928 440.98 458.478 438.93C458.028 436.88 459.848 432.99 462.588 430.25C464.619 428.378 466.93 426.836 469.438 425.68L475.368 428.19Z" fill="#263238" stroke="#263238" stroke-linecap="round" stroke-linejoin="round"/>
<path d="M545.71 276.41C545.71 276.41 548.22 301.98 548.22 302.9C548.22 303.82 550.05 333.04 549.82 344.69C549.59 356.34 545 379.4 545 379.4C545 379.4 545.22 404.52 545.22 406.58C545.22 408.64 546.14 423.25 546.14 423.25C546.14 423.25 537.46 424.39 535.86 424.39C534.26 424.39 529.47 422.1 529.47 422.1C529.47 422.1 527.64 400.87 527.64 396.3C527.64 391.73 528.1 368.21 528.1 368.21L523.99 329.21L522.16 317.11L516.45 318.93C516.45 318.93 504.12 354.79 501.38 359.81C498.64 364.83 493.38 392.62 490.38 398.33C487.38 404.04 483.82 414 483.82 414L482.23 428.84C482.23 428.84 477.66 428.84 476.06 429.07C474.46 429.3 467.84 425.87 467.84 425.87C467.84 425.87 470.84 413.08 471.26 409.43C471.68 405.78 476.74 371.37 477.43 368.17C478.12 364.97 480.86 358.58 480.86 357.44C480.86 356.3 492.05 302.44 492.05 302.44L500.95 279.83C500.95 279.83 511.46 282.34 520.13 282.34C528.8 282.34 545.71 276.41 545.71 276.41Z" fill="#525252" stroke="#263238" stroke-linecap="round" stroke-linejoin="round"/>
<path d="M483.82 414.04L485.65 398.51" stroke="#263238" stroke-linecap="round" stroke-linejoin="round"/>
<path d="M499.32 284L500.95 279.86C500.95 279.86 511.46 282.37 520.13 282.37C528.8 282.37 545.71 276.44 545.71 276.44C545.71 276.44 546.03 279.68 546.44 283.9C544.09 285.5 539.09 287.96 529.95 288.73C516.04 289.91 502.95 285.21 502.32 285.21C501.297 284.868 500.295 284.464 499.32 284Z" fill="#263238"/>
<path d="M542.3 287.72L541.9 280.67L539.75 280.86L540.14 288.12" fill="#525252"/>
<path d="M542.3 287.72L541.9 280.67L539.75 280.86L540.14 288.12" stroke="#263238" stroke-linecap="round" stroke-linejoin="round"/>
<path d="M512.508 289.49L513.098 282.43L511.328 281.84L510.348 289.68" fill="#525252"/>
<path d="M512.508 289.49L513.098 282.43L511.328 281.84L510.348 289.68" stroke="#263238" stroke-linecap="round" stroke-linejoin="round"/>
<path d="M523.915 289.358L530.184 289.229L530.103 285.31L523.834 285.439L523.915 289.358Z" fill="white" stroke="#263238" stroke-linecap="round" stroke-linejoin="round"/>
<path d="M522.417 208.73C522.417 208.73 527.137 211.47 528.357 214.37C529.577 217.27 537.357 236.29 538.557 241.16C539.757 246.03 544.647 262.16 544.947 266.59C545.247 271.02 545.997 279.53 545.997 279.53C541.778 282.692 536.774 284.639 531.527 285.16C522.397 286.23 508.237 283.64 508.237 283.64C508.237 283.64 507.167 252.12 506.717 247.71C506.267 243.3 500.777 215.13 500.777 215.13C500.777 215.13 505.187 210.87 509.457 210.26C513.727 209.65 522.417 208.73 522.417 208.73Z" fill="white" stroke="#263238" stroke-linecap="round" stroke-linejoin="round"/>
<path d="M508.258 220.23C508.258 220.23 515.568 252.88 515.568 258.14C515.568 263.4 501.638 311.58 501.638 311.58C501.638 311.58 486.558 309.52 483.818 308.15C481.078 306.78 473.548 301.07 473.548 301.07C473.548 301.07 490.448 259.96 490.678 259.07C490.908 258.18 486.108 242.63 486.108 242.63C486.108 242.63 476.518 243.77 472.858 243.54C469.985 243.228 467.152 242.615 464.408 241.71C464.408 241.71 464.868 231.71 463.958 229.38C463.048 227.05 460.758 222.99 460.758 222.99C460.758 222.99 471.488 223.67 472.628 224.13C473.768 224.59 480.628 221.85 480.628 221.85C480.628 221.85 481.538 216.37 483.138 215C484.738 213.63 500.998 212.46 500.998 212.46C500.998 212.46 507.568 214.75 508.258 220.23Z" fill="#8568F5" stroke="#263238" stroke-linecap="round" stroke-linejoin="round"/>
<path d="M500.949 212.46L501.649 224.14L506.829 227.79L503.479 230.84L514.139 256.72" fill="#8568F5"/>
<path d="M500.949 212.46L501.649 224.14L506.829 227.79L503.479 230.84L514.139 256.72" stroke="#263238" stroke-linecap="round" stroke-linejoin="round"/>
<path d="M563.999 300.16L558.519 304.27L557.609 312.27H558.749C558.749 312.27 558.749 315.27 559.429 315.47C560.259 315.633 561.104 315.71 561.949 315.7L563.999 314.55H568.799C569.709 314.55 570.619 307.02 570.619 304.55V299.29L564.909 298.38L563.999 300.16Z" fill="#FDD8BA" stroke="#263238" stroke-linecap="round" stroke-linejoin="round"/>
<path d="M570.83 291.94L571.289 300.61L563.979 300.16L563.52 294.45L570.83 291.94Z" fill="white" stroke="#263238" stroke-linecap="round" stroke-linejoin="round"/>
<path d="M523.328 208.35L528.328 214.35L536.328 242.35L549.118 288.25L548.888 259.02L556.648 264.5L560.998 295.82L571.998 295.13L571.088 259.28L552.788 223.2C552.788 223.2 551.648 211.32 550.278 211.09C548.908 210.86 529.948 210.64 529.948 210.64L523.328 208.35Z" fill="#8568F5" stroke="#263238" stroke-linecap="round" stroke-linejoin="round"/>
<path d="M530.887 211.96L537.277 221.4L533.627 225.66L540.927 229.93L540.627 251.54" fill="#8568F5"/>
<path d="M530.887 211.96L537.277 221.4L533.627 225.66L540.927 229.93L540.627 251.54" stroke="#263238" stroke-linecap="round" stroke-linejoin="round"/>
<path d="M543.199 265.9C543.199 265.9 545.709 291.02 545.709 294.22C545.941 297.58 546.399 300.921 547.079 304.22C549.18 303.502 551.316 302.891 553.479 302.39C555.069 302.16 557.129 299.88 557.129 299.88C557.129 299.88 548.679 282.29 547.539 279.55C546.399 276.81 543.199 265.9 543.199 265.9Z" fill="#8568F5" stroke="#263238" stroke-linecap="round" stroke-linejoin="round"/>
<path d="M525.828 223.28L524.828 230.96L537.828 252.08C541.828 258.58 552.828 266.86 552.828 266.86L553.497 280.59L542.497 273.21C539.742 270.747 537.23 268.025 534.997 265.08C532.337 261.24 523.347 236.13 523.177 235.08C523.007 234.03 522.347 231.08 522.347 231.08L517.188 228.57L516.188 223.99L520.188 220.99L525.828 223.28Z" fill="#263238"/>
<path d="M522.3 207.9C522.3 207.9 526.64 211.55 527.44 213.72C528.24 215.89 531.32 224.91 531.44 225.72C531.494 226.144 531.571 226.564 531.67 226.98L521.39 223.21L518.65 225.38L515.11 233.94C515.11 233.94 510.89 229.6 510.2 228.23C509.184 225.228 508.448 222.138 508 219C508 218 514.62 209.64 517 207.47C519.38 205.3 522.3 207.9 522.3 207.9Z" fill="white" stroke="#263238" stroke-linecap="round" stroke-linejoin="round"/>
<path d="M521.85 206.75C522.506 209.067 522.964 211.435 523.22 213.83C523.123 217.087 522.789 220.332 522.22 223.54C521.88 224.34 521.42 226.54 520.62 226.54C519.82 226.54 511.14 221.54 510.46 220.6C509.78 219.66 520.85 205.19 520.85 205.19L521.85 206.75Z" fill="white" stroke="#263238" stroke-linecap="round" stroke-linejoin="round"/>
<path d="M521.209 208.48L516.869 224.09L511.719 221.52L519.119 207.2L521.209 208.48Z" fill="#263238" stroke="#263238" stroke-linecap="round" stroke-linejoin="round"/>
<path d="M497.867 207.33C497.867 207.33 495.587 205.33 494.557 204.59C493.527 203.85 491.817 197.59 491.817 197.59V202.39C490.576 200.769 489.469 199.05 488.507 197.25C487.707 195.42 489.417 189.6 489.877 188.34C490.337 187.08 491.247 182.06 492.957 180.46C494.667 178.86 502.207 174.52 505.517 174.52C508.827 174.52 519.447 177.38 521.047 178.64C522.647 179.9 528.357 188.46 528.357 190.28C528.357 192.1 528.697 196.68 529.267 197.59C529.837 198.5 531.897 200.1 531.317 201.81C530.859 203.017 530.203 204.139 529.377 205.13L528.577 203.87C527.785 204.938 526.909 205.942 525.957 206.87C525.178 207.52 524.287 208.021 523.327 208.35C522.118 208.535 520.899 208.652 519.677 208.7L520.127 204.47C520.127 204.47 505.747 194 505.397 193.85C505.047 193.7 498.327 201.5 498.327 201.5L497.867 207.33Z" fill="#263238" stroke="#263238" stroke-linecap="round" stroke-linejoin="round"/>
<path d="M521.93 200.69C521.93 200.69 522.93 196.82 524.83 197.54C526.73 198.26 527.01 203.1 525.32 205.04C524.262 206.222 522.934 207.131 521.45 207.69C521.45 207.69 515.45 219.78 513.72 220.74C511.99 221.7 507.43 222.68 506.47 222.19C505.51 221.7 499.7 216.64 499.7 216.64L495.59 200L504.05 190L520 197L521.93 200.69Z" fill="#FDD8BA" stroke="#263238" stroke-linecap="round" stroke-linejoin="round"/>
<path d="M502.547 201.73L503.457 210.18L507.797 209.5" stroke="#263238" stroke-linecap="round" stroke-linejoin="round"/>
<path d="M503.578 213.83L510.538 212.58L512.938 213.26" stroke="#263238" stroke-linecap="round" stroke-linejoin="round"/>
<path d="M510.199 214.86L504.719 215.89" stroke="#263238" stroke-linecap="round" stroke-linejoin="round"/>
<path d="M505.4 201.27L507.23 205.84L512.92 205.32C513.445 205.27 513.947 205.078 514.372 204.764C514.796 204.45 515.127 204.027 515.33 203.54C515.78 202.44 516.33 201.13 516.33 200.82C516.44 200.25 515.98 199.22 515.64 199.22C515.3 199.22 505.25 200.7 505.25 200.7L505.4 201.27Z" fill="#263238" stroke="#263238" stroke-linecap="round" stroke-linejoin="round"/>
<path d="M505.289 200.7L502.209 201.27L502.549 206.27L496.959 207.07L494.789 204.07C494.789 204.07 494.789 202.36 495.239 202.36C495.689 202.36 501.179 201.36 501.179 201.36L505.289 200.7Z" fill="#263238" stroke="#263238" stroke-linecap="round" stroke-linejoin="round"/>
<path d="M515.68 199.22L522.88 198.19" stroke="#263238" stroke-linecap="round" stroke-linejoin="round"/>
<path d="M515.22 197.85H511.57C511.23 197.85 506.57 200.13 506.57 200.13" stroke="#263238" stroke-linecap="round" stroke-linejoin="round"/>
<path d="M502.207 201.27C500.636 200.268 498.82 199.718 496.957 199.68" stroke="#263238" stroke-linecap="round" stroke-linejoin="round"/>
<path d="M548.91 259.05L548 224.8L551.77 260.34L548.91 259.05Z" fill="#263238"/>
<path d="M485.879 222.06C485.879 222.06 494.329 232.06 495.239 237.58C496.149 243.1 497.069 246.95 497.069 246.95" stroke="#263238" stroke-linecap="round" stroke-linejoin="round"/>
<path d="M480.629 221.83C480.629 221.83 486.339 224.11 487.929 227.54" stroke="#263238" stroke-linecap="round" stroke-linejoin="round"/>
<path d="M493.189 240.78L486.109 242.61" stroke="#263238" stroke-linecap="round" stroke-linejoin="round"/>
<path d="M473.547 224.8C476.232 226.424 478.376 228.808 479.707 231.65" stroke="#263238" stroke-linecap="round" stroke-linejoin="round"/>
<path d="M462.81 223.43L451.57 222.27C451.57 222.27 455.74 227.99 455.74 230.73C455.74 233.47 451.57 235.01 451.57 235.01L465.78 239.41C466.486 237.035 466.873 234.577 466.93 232.1C466.93 228.45 462.81 223.43 462.81 223.43Z" fill="white" stroke="#263238" stroke-linecap="round" stroke-linejoin="round"/>
<path d="M452.178 223.51C452.178 223.51 449.718 217.96 449.098 216.11C448.478 214.26 440.468 214.26 438.408 214.26C436.348 214.26 435.738 217.54 435.738 220.01C435.738 222.48 436.968 231.73 440.668 232.55C443.932 233.152 447.227 233.563 450.538 233.78L457.328 235.3C457.328 235.3 458.478 230.3 458.018 227.99C457.558 225.68 452.178 223.51 452.178 223.51Z" fill="#FDD8BA" stroke="#263238" stroke-linecap="round" stroke-linejoin="round"/>
<path d="M446.628 209.32L445.808 216.93L448.478 227.41L442.728 228.85L438.618 216.31L425.878 214.46L425.668 205.21L446.628 209.32Z" fill="#525252" stroke="#263238" stroke-linecap="round" stroke-linejoin="round"/>
<path d="M425.878 214.46L422.588 214.67L421.148 206.24L425.668 205.21L425.878 214.46Z" fill="#263238" stroke="#263238" stroke-linecap="round" stroke-linejoin="round"/>
<path d="M424.999 208.64C424.999 209.85 424.479 210.84 423.849 210.84C423.219 210.84 422.699 209.84 422.699 208.64C422.699 207.44 423.209 206.45 423.849 206.45C424.489 206.45 424.999 207.43 424.999 208.64Z" fill="white"/>
<path d="M441.5 209.94L435.74 208.91L435.07 207.06L442.59 208.53L441.5 209.94Z" fill="#263238" stroke="#263238" stroke-linecap="round" stroke-linejoin="round"/>
<path d="M435.328 216.72C435.328 216.72 440.468 216.11 440.668 217.34C440.868 218.57 441.288 219.81 440.668 219.81C440.048 219.81 435.738 220.01 435.738 220.01L435.328 216.72Z" fill="white" stroke="#263238" stroke-linecap="round" stroke-linejoin="round"/>
<path d="M435.539 215.9L435.739 220.01H439.849L440.059 221.86L433.269 221.24L432.449 215.69L435.539 215.9Z" fill="#263238" stroke="#263238" stroke-linecap="round" stroke-linejoin="round"/>
<path d="M433.277 221.24C433.277 221.24 432.447 220.83 432.277 221.66C432.107 222.49 433.097 224.94 433.097 224.94L441.317 225.77C441.317 225.77 444.807 223.71 444.807 223.09C444.593 222.289 444.256 221.527 443.807 220.83L440.107 221.83L433.277 221.24Z" fill="#FDD8BA" stroke="#263238" stroke-linecap="round" stroke-linejoin="round"/>
<path d="M433.07 224.94C433.181 225.689 433.251 226.443 433.28 227.2C433.28 228.03 436.36 228.85 436.36 228.85C436.36 228.85 442.11 229.47 442.73 228.85C443.35 228.23 445.2 226.59 445.2 225.77C445.2 224.95 443.96 223.92 443.96 223.92L441.29 225.77L433.07 224.94Z" fill="#FDD8BA" stroke="#263238" stroke-linecap="round" stroke-linejoin="round"/>
<path d="M434.098 228.23L436.098 231.11C436.098 231.11 441.038 231.73 441.858 231.73C442.678 231.73 445.348 229.26 445.348 229.26L444.938 226.79L442.678 228.85H436.308L434.098 228.23Z" fill="#FDD8BA" stroke="#263238" stroke-linecap="round" stroke-linejoin="round"/>
<path d="M451.357 223.09C451.357 223.09 451.157 216.72 451.157 215.28C451.157 213.84 450.327 212.2 449.507 212.2C448.687 212.2 443.347 212.61 442.727 213.02C442.107 213.43 441.727 218.78 441.727 218.78L443.787 220.83L445.837 217.96L447.687 224.53" fill="#FDD8BA"/>
<path d="M451.357 223.09C451.357 223.09 451.157 216.72 451.157 215.28C451.157 213.84 450.327 212.2 449.507 212.2C448.687 212.2 443.347 212.61 442.727 213.02C442.107 213.43 441.727 218.78 441.727 218.78L443.787 220.83L445.837 217.96L447.687 224.53" stroke="#263238" stroke-linecap="round" stroke-linejoin="round"/>
<path d="M445.809 217.96L447.869 215.49" stroke="#263238" stroke-linecap="round" stroke-linejoin="round"/>
</svg>
