<svg width="558" height="551" viewBox="0 0 558 551" fill="none" xmlns="http://www.w3.org/2000/svg">
<g clip-path="url(#clip0_542_19208)" filter="url(#filter0_d_542_19208)">
<g filter="url(#filter1_d_542_19208)">
<path opacity="0.7" d="M27.5705 202.986C27.5705 202.986 5.93596 275.874 66.3234 339.389C126.711 402.903 232.139 427.603 316.838 449.338C401.537 471.072 480.868 445.969 510.629 390.022C540.39 334.075 480.273 303.933 467.022 230.864C453.771 157.795 464.318 136.751 402.524 81.1121C340.731 25.4734 213.83 26.8019 128.036 83.918C42.2414 141.034 27.5705 202.986 27.5705 202.986Z" fill="#8568F5"/>
<path d="M554 421.258H4V421.533H554V421.258Z" fill="#EBEBEB"/>
<path d="M90.307 431.73H61.707V432.005H90.307V431.73Z" fill="#EBEBEB"/>
<path d="M224.475 428.749H164.965V429.024H224.475V428.749Z" fill="#EBEBEB"/>
<path d="M120.358 441.949H91.4062V442.224H120.358V441.949Z" fill="#EBEBEB"/>
<path d="M498.891 440.101H477.738V440.376H498.891V440.101Z" fill="#EBEBEB"/>
<path d="M467.936 440.101H434.617V440.376H467.936V440.101Z" fill="#EBEBEB"/>
<path d="M348.071 435.459H288.055V435.734H348.071V435.459Z" fill="#EBEBEB"/>
<path d="M264.7 372.198H52.3013C50.6373 372.195 49.0426 371.532 47.867 370.354C46.6915 369.177 46.0312 367.581 46.0313 365.917V67.3437C46.0457 65.6893 46.7124 64.1075 47.8863 62.9417C49.0603 61.776 50.6468 61.1205 52.3013 61.1177H264.7C266.366 61.1177 267.964 61.7794 269.142 62.9573C270.32 64.1353 270.981 65.7329 270.981 67.3987V365.917C270.981 367.583 270.32 369.18 269.142 370.358C267.964 371.536 266.366 372.198 264.7 372.198ZM52.3013 61.3377C50.7103 61.3406 49.1854 61.9746 48.0615 63.1007C46.9375 64.2267 46.3062 65.7527 46.3063 67.3437V365.917C46.3062 367.508 46.9375 369.034 48.0615 370.16C49.1854 371.286 50.7103 371.92 52.3013 371.923H264.7C266.292 371.92 267.818 371.286 268.944 370.16C270.07 369.035 270.703 367.509 270.706 365.917V67.3437C270.703 65.7517 270.07 64.2257 268.944 63.1C267.818 61.9743 266.292 61.3406 264.7 61.3377H52.3013Z" fill="#EBEBEB"/>
<path d="M502.64 372.198H290.23C288.565 372.195 286.969 371.532 285.792 370.355C284.615 369.178 283.952 367.582 283.949 365.917V67.3437C283.967 65.6883 284.636 64.1065 285.811 62.941C286.987 61.7756 288.575 61.1205 290.23 61.1177H502.64C504.293 61.1234 505.876 61.7801 507.048 62.9456C508.22 64.111 508.885 65.6912 508.899 67.3437V365.917C508.899 367.579 508.241 369.173 507.067 370.35C505.894 371.528 504.302 372.192 502.64 372.198ZM290.23 61.3377C288.638 61.3406 287.112 61.9743 285.987 63.1C284.861 64.2257 284.227 65.7517 284.224 67.3437V365.917C284.227 367.509 284.861 369.035 285.987 370.16C287.112 371.286 288.638 371.92 290.23 371.923H502.64C504.232 371.92 505.758 371.286 506.884 370.16C508.01 369.035 508.643 367.509 508.646 365.917V67.3437C508.643 65.7517 508.01 64.2257 506.884 63.1C505.758 61.9743 504.232 61.3406 502.64 61.3377H290.23Z" fill="#EBEBEB"/>
<path d="M489.375 305.692H459.125V421.258H489.375V305.692Z" fill="#E6E6E6"/>
<path d="M483.633 421.258H489.375V404.912H477.605L483.633 421.258Z" fill="#F0F0F0"/>
<path d="M316.762 305.692H286.512V421.258H316.762V305.692Z" fill="#E6E6E6"/>
<path d="M489.374 305.692H311.746V411.226H489.374V305.692Z" fill="#F0F0F0"/>
<path d="M317.652 311.038V390.788H370.309V311.038H317.652Z" fill="#E6E6E6"/>
<path d="M349.19 315.614H338.773C336.534 315.614 334.318 315.159 332.26 314.276C330.203 313.393 328.347 312.1 326.805 310.477H361.158C359.616 312.1 357.759 313.393 355.702 314.276C353.644 315.159 351.429 315.614 349.19 315.614Z" fill="#F0F0F0"/>
<path d="M374.238 311.049V390.799H426.895V311.049H374.238Z" fill="#E6E6E6"/>
<path d="M406.304 315.614H395.887C393.649 315.613 391.436 315.157 389.38 314.274C387.325 313.391 385.47 312.099 383.93 310.477H418.272C416.73 312.1 414.873 313.393 412.816 314.276C410.758 315.159 408.543 315.614 406.304 315.614Z" fill="#F0F0F0"/>
<path d="M430.812 311.049V390.799H483.47V311.049H430.812Z" fill="#E6E6E6"/>
<path d="M462.889 315.614H452.472C450.233 315.614 448.017 315.159 445.96 314.276C443.902 313.393 442.046 312.1 440.504 310.477H474.802C473.266 312.093 471.419 313.382 469.371 314.265C467.324 315.148 465.119 315.607 462.889 315.614Z" fill="#F0F0F0"/>
<path d="M317.488 421.258H311.746V404.912H323.516L317.488 421.258Z" fill="#F0F0F0"/>
<path d="M245.736 82.0068H79.0859V238.097H245.736V82.0068Z" fill="#E6E6E6"/>
<path d="M251.719 82.0068H81.8789V238.097H251.719V82.0068Z" fill="#F0F0F0"/>
<path d="M245.736 238.097H79.0859V249.218H245.736V238.097Z" fill="#E6E6E6"/>
<path d="M261.688 238.097H91.8477V249.218H261.688V238.097Z" fill="#F0F0F0"/>
<path d="M243.348 229.715V90.3887L90.2606 90.3887V229.715H243.348Z" fill="#FAFAFA"/>
<path d="M106.289 229.715L155.47 90.3887H178.68L129.499 229.715H106.289Z" fill="white"/>
<path d="M94.1331 182.448C94.2935 182.448 94.4474 182.384 94.5609 182.271C94.6743 182.157 94.7381 182.003 94.7381 181.843V95.8337C94.7352 95.6752 94.6702 95.5241 94.557 95.413C94.4439 95.3019 94.2916 95.2397 94.1331 95.2397C93.9755 95.2397 93.8244 95.3023 93.713 95.4137C93.6016 95.5251 93.5391 95.6762 93.5391 95.8337V181.843C93.539 182.001 93.6013 182.154 93.7124 182.267C93.8234 182.38 93.9745 182.445 94.1331 182.448Z" fill="#F0F0F0"/>
<path d="M134.492 229.715L183.673 90.3887H192.715L143.545 229.715H134.492Z" fill="white"/>
<path d="M243.34 229.715V90.3887H242.273V229.715H243.34Z" fill="#E6E6E6"/>
<path opacity="0.5" d="M253.701 104.832H87.0512L86.2812 93.6445H252.931L253.701 104.832Z" fill="#E6E6E6"/>
<path opacity="0.5" d="M253.701 113.016H87.0512L86.2812 101.829H252.931L253.701 113.016Z" fill="#E6E6E6"/>
<path opacity="0.5" d="M253.701 122.839H87.0512L86.2812 111.652H252.931L253.701 122.839Z" fill="#E6E6E6"/>
<path opacity="0.5" d="M253.701 133.773H87.0512L86.2812 122.586H252.931L253.701 133.773Z" fill="#E6E6E6"/>
<path opacity="0.5" d="M253.701 146.874H87.0512L86.2812 135.687H252.931L253.701 146.874Z" fill="#E6E6E6"/>
<path opacity="0.5" d="M253.701 161.603H87.0512L86.2812 150.416H252.931L253.701 161.603Z" fill="#E6E6E6"/>
<path d="M255.492 317.638H206.168V421.258H255.492V317.638Z" fill="#E6E6E6"/>
<path d="M250.531 421.258H255.492V407.145H245.328L250.531 421.258Z" fill="#F0F0F0"/>
<path d="M134.164 317.638H84.8398V421.258H134.164V317.638Z" fill="#E6E6E6"/>
<path d="M255.481 317.638H129.828V412.601H255.481V317.638Z" fill="#F0F0F0"/>
<path d="M251.644 321.84H133.68V347.888H251.644V321.84Z" fill="#E6E6E6"/>
<path d="M198.225 329.936H187.082C182.242 329.936 177.622 326.724 174.289 321.048H211.029C207.696 326.724 203.098 329.936 198.225 329.936Z" fill="#F0F0F0"/>
<path d="M134.789 421.258H129.828V407.145H139.992L134.789 421.258Z" fill="#F0F0F0"/>
<path d="M251.644 352.09H133.68V378.138H251.644V352.09Z" fill="#E6E6E6"/>
<path d="M198.225 360.186H187.082C182.242 360.186 177.622 356.974 174.289 351.298H211.029C207.696 357.018 203.098 360.186 198.225 360.186Z" fill="#F0F0F0"/>
<path d="M251.644 382.34H133.68V408.388H251.644V382.34Z" fill="#E6E6E6"/>
<path d="M198.225 390.436H187.082C182.242 390.436 177.622 387.224 174.289 381.548H211.029C207.696 387.224 203.098 390.436 198.225 390.436Z" fill="#F0F0F0"/>
<path d="M454.637 103.435H358.871V231.519H454.637V103.435Z" fill="#E6E6E6"/>
<path d="M460.865 103.435H360.215V231.519H460.865V103.435Z" fill="#F0F0F0"/>
<path d="M446.926 217.582V117.361H374.139V217.582H446.926Z" fill="white"/>
<path d="M446.926 217.582V117.361H445.837V217.582H446.926Z" fill="#E6E6E6"/>
<path d="M411.89 146.28H390.099C389.885 146.28 389.68 146.364 389.527 146.514C389.375 146.665 389.288 146.869 389.285 147.083V168.83C389.303 174.076 391.394 179.102 395.104 182.811C398.813 186.521 403.839 188.612 409.085 188.63H430.832C431.048 188.63 431.255 188.544 431.408 188.391C431.56 188.239 431.646 188.032 431.646 187.816V166.113C431.64 160.868 429.56 155.838 425.858 152.122C422.157 148.406 417.135 146.306 411.89 146.28ZM409.173 187.057C404.342 187.051 399.71 185.128 396.295 181.711C392.88 178.294 390.96 173.661 390.957 168.83V147.93H411.857C416.688 147.936 421.319 149.856 424.735 153.271C428.152 156.685 430.075 161.315 430.084 166.146L409.173 187.057Z" fill="#F0F0F0"/>
</g>
<path d="M279.002 470.934C396.792 470.934 492.281 465.359 492.281 458.482C492.281 451.605 396.792 446.03 279.002 446.03C161.211 446.03 65.7227 451.605 65.7227 458.482C65.7227 465.359 161.211 470.934 279.002 470.934Z" fill="#FAAA19" fill-opacity="0.3"/>
<path d="M275.248 97.4175C274.247 91.3455 278.35 86.4175 284.422 86.4175H240.059C233.987 86.4175 229.884 91.3345 230.885 97.4175H275.248Z" fill="#8568F5"/>
<path opacity="0.3" d="M275.248 97.4175C274.247 91.3455 278.35 86.4175 284.422 86.4175H240.059C233.987 86.4175 229.884 91.3345 230.885 97.4175H275.248Z" fill="black"/>
<path d="M284.422 86.4175H240.059C243.129 86.5195 246.072 87.6648 248.404 89.6645C250.735 91.6642 252.316 94.3989 252.885 97.4175L262.598 156.069C263.168 159.087 264.749 161.821 267.08 163.82C269.412 165.819 272.354 166.966 275.424 167.069H297.798C303.87 167.069 307.973 162.141 306.972 156.069L297.248 97.4175C296.679 94.3989 295.099 91.6642 292.767 89.6645C290.435 87.6648 287.492 86.5195 284.422 86.4175Z" fill="#8468F5" fill-opacity="0.8"/>
<path d="M284.422 86.4175H240.059C243.129 86.5195 246.072 87.6648 248.404 89.6645C250.735 91.6642 252.316 94.3989 252.885 97.4175L262.598 156.069C263.168 159.087 264.749 161.821 267.08 163.82C269.412 165.819 272.354 166.966 275.424 167.069H297.798C303.87 167.069 307.973 162.141 306.972 156.069L297.248 97.4175C296.679 94.3989 295.099 91.6642 292.767 89.6645C290.435 87.6648 287.492 86.5195 284.422 86.4175Z" fill="url(#paint0_radial_542_19208)" fill-opacity="0.7"/>
<path d="M284.422 86.4175H240.059C243.129 86.5195 246.072 87.6648 248.404 89.6645C250.735 91.6642 252.316 94.3989 252.885 97.4175L262.598 156.069C263.168 159.087 264.749 161.821 267.08 163.82C269.412 165.819 272.354 166.966 275.424 167.069H297.798C303.87 167.069 307.973 162.141 306.972 156.069L297.248 97.4175C296.679 94.3989 295.099 91.6642 292.767 89.6645C290.435 87.6648 287.492 86.5195 284.422 86.4175Z" fill="url(#paint1_linear_542_19208)"/>
<path d="M284.596 156.103C285.597 162.175 281.494 167.103 275.422 167.103H319.785C321.166 167.149 322.539 166.88 323.8 166.316C325.061 165.751 326.176 164.906 327.061 163.845C327.946 162.784 328.577 161.535 328.906 160.193C329.234 158.852 329.253 157.452 328.959 156.103H284.596Z" fill="#8568F5"/>
<path opacity="0.3" d="M284.596 156.103C285.597 162.175 281.494 167.103 275.422 167.103H319.785C321.166 167.149 322.539 166.88 323.8 166.316C325.061 165.751 326.176 164.906 327.061 163.845C327.946 162.784 328.577 161.535 328.906 160.193C329.234 158.852 329.253 157.452 328.959 156.103H284.596Z" fill="black"/>
<path d="M291.738 102.511H260.069C259.885 102.504 259.709 102.435 259.569 102.315C259.429 102.195 259.334 102.031 259.299 101.851C259.28 101.769 259.281 101.685 259.3 101.604C259.319 101.523 259.357 101.448 259.41 101.384C259.463 101.32 259.531 101.269 259.607 101.236C259.683 101.202 259.766 101.187 259.849 101.191H291.518C291.702 101.197 291.879 101.266 292.018 101.386C292.158 101.506 292.253 101.67 292.288 101.851C292.307 101.932 292.307 102.016 292.287 102.097C292.268 102.178 292.23 102.253 292.177 102.317C292.124 102.381 292.056 102.432 291.98 102.465C291.904 102.499 291.821 102.514 291.738 102.511Z" fill="white"/>
<path d="M274.192 107.087H260.827C260.643 107.08 260.466 107.011 260.327 106.891C260.187 106.771 260.092 106.608 260.057 106.427C260.038 106.346 260.038 106.261 260.058 106.18C260.077 106.099 260.115 106.024 260.168 105.96C260.221 105.896 260.289 105.845 260.365 105.812C260.441 105.778 260.524 105.763 260.607 105.767H273.972C274.156 105.773 274.332 105.842 274.472 105.962C274.612 106.082 274.707 106.246 274.742 106.427C274.758 106.508 274.756 106.591 274.736 106.671C274.716 106.751 274.678 106.826 274.626 106.889C274.573 106.952 274.506 107.003 274.431 107.037C274.356 107.071 274.274 107.088 274.192 107.087Z" fill="white"/>
<path d="M286.556 107.086H277.316C277.133 107.079 276.958 107.01 276.82 106.89C276.682 106.77 276.589 106.606 276.557 106.426C276.538 106.346 276.538 106.263 276.557 106.183C276.576 106.103 276.612 106.028 276.664 105.964C276.717 105.9 276.782 105.85 276.857 105.815C276.932 105.781 277.014 105.764 277.096 105.766H286.336C286.519 105.773 286.693 105.843 286.831 105.963C286.969 106.083 287.062 106.246 287.095 106.426C287.113 106.506 287.113 106.59 287.094 106.67C287.076 106.75 287.039 106.825 286.987 106.888C286.935 106.952 286.869 107.003 286.794 107.037C286.72 107.072 286.638 107.088 286.556 107.086Z" fill="white"/>
<path d="M293.298 111.717H261.585C261.402 111.713 261.225 111.647 261.085 111.528C260.945 111.41 260.85 111.248 260.815 111.068C260.796 110.987 260.796 110.903 260.815 110.822C260.835 110.741 260.872 110.666 260.926 110.602C260.979 110.538 261.046 110.487 261.122 110.453C261.199 110.42 261.282 110.404 261.365 110.408H293.034C293.218 110.415 293.394 110.484 293.534 110.604C293.674 110.724 293.769 110.887 293.804 111.068C293.82 111.145 293.819 111.224 293.801 111.301C293.783 111.377 293.749 111.448 293.701 111.51C293.653 111.572 293.592 111.622 293.522 111.658C293.453 111.694 293.376 111.714 293.298 111.717Z" fill="white"/>
<path d="M290.889 116.249H262.344C262.16 116.243 261.983 116.174 261.843 116.054C261.703 115.934 261.608 115.77 261.574 115.589C261.557 115.508 261.559 115.425 261.579 115.345C261.599 115.265 261.637 115.19 261.69 115.127C261.743 115.064 261.809 115.013 261.884 114.979C261.959 114.945 262.041 114.928 262.124 114.929H290.724C290.908 114.936 291.084 115.005 291.224 115.125C291.364 115.245 291.459 115.408 291.494 115.589C291.512 115.675 291.509 115.764 291.486 115.848C291.463 115.933 291.42 116.01 291.361 116.075C291.302 116.14 291.228 116.189 291.146 116.219C291.064 116.25 290.976 116.26 290.889 116.249Z" fill="white"/>
<path d="M282.301 120.826H263.106C262.922 120.819 262.745 120.75 262.605 120.63C262.465 120.51 262.37 120.346 262.336 120.166C262.319 120.085 262.321 120.002 262.341 119.923C262.361 119.843 262.399 119.769 262.452 119.707C262.505 119.644 262.572 119.594 262.647 119.561C262.722 119.529 262.804 119.513 262.886 119.517H282.092C282.274 119.525 282.448 119.593 282.587 119.71C282.726 119.827 282.823 119.988 282.862 120.166C282.878 120.247 282.876 120.332 282.856 120.413C282.835 120.494 282.796 120.569 282.742 120.632C282.688 120.696 282.62 120.746 282.544 120.78C282.467 120.813 282.384 120.829 282.301 120.826Z" fill="white"/>
<path d="M295.499 125.412H263.863C263.679 125.406 263.503 125.337 263.363 125.217C263.223 125.097 263.128 124.933 263.093 124.752C263.077 124.672 263.079 124.588 263.099 124.508C263.119 124.428 263.157 124.354 263.21 124.29C263.262 124.227 263.329 124.176 263.404 124.142C263.479 124.108 263.561 124.091 263.643 124.092H295.312C295.496 124.099 295.673 124.168 295.813 124.288C295.952 124.408 296.047 124.571 296.082 124.752C296.102 124.836 296.101 124.924 296.08 125.008C296.06 125.091 296.019 125.169 295.962 125.233C295.904 125.298 295.833 125.348 295.752 125.379C295.672 125.41 295.585 125.422 295.499 125.412Z" fill="white"/>
<path d="M296.29 129.989H264.621C264.437 129.982 264.261 129.913 264.121 129.793C263.981 129.673 263.886 129.509 263.851 129.329C263.834 129.248 263.836 129.164 263.856 129.084C263.877 129.004 263.915 128.93 263.967 128.866C264.02 128.803 264.087 128.752 264.162 128.718C264.237 128.684 264.318 128.667 264.401 128.669H296.081C296.264 128.676 296.439 128.745 296.577 128.865C296.715 128.985 296.808 129.149 296.84 129.329C296.859 129.41 296.859 129.494 296.839 129.575C296.82 129.656 296.782 129.731 296.729 129.795C296.676 129.859 296.608 129.91 296.532 129.943C296.456 129.977 296.373 129.992 296.29 129.989Z" fill="white"/>
<path d="M284.585 134.564H265.379C265.197 134.556 265.023 134.488 264.883 134.371C264.744 134.254 264.647 134.093 264.609 133.915C264.592 133.835 264.594 133.751 264.614 133.671C264.634 133.591 264.672 133.517 264.725 133.453C264.778 133.39 264.844 133.339 264.919 133.305C264.994 133.271 265.076 133.254 265.159 133.255H284.365C284.549 133.262 284.725 133.331 284.865 133.451C285.005 133.571 285.1 133.735 285.135 133.915C285.152 133.996 285.15 134.079 285.13 134.158C285.11 134.238 285.071 134.312 285.018 134.374C284.965 134.437 284.899 134.487 284.824 134.52C284.748 134.553 284.667 134.568 284.585 134.564Z" fill="white"/>
<path d="M302.768 147.158L304.75 148.388L335.15 99.3771L333.168 98.1479L302.768 147.158Z" fill="#263238"/>
<path opacity="0.3" d="M302.768 147.158L304.75 148.388L335.15 99.3771L333.168 98.1479L302.768 147.158Z" fill="black"/>
<path d="M298.811 144.709L300.793 145.938L331.193 96.9274L329.211 95.6982L298.811 144.709Z" fill="#263238"/>
<path opacity="0.3" d="M298.811 144.709L300.793 145.938L331.193 96.9274L329.211 95.6982L298.811 144.709Z" fill="black"/>
<path d="M300.803 145.929L302.785 147.158L333.185 98.1476L331.203 96.9184L300.803 145.929Z" fill="#263238"/>
<path d="M298.766 149.426L300.548 150.537L304.761 148.392L298.821 144.707L298.766 149.426Z" fill="#FF8B7B"/>
<path d="M298.742 151.46L300.546 150.536L298.764 149.425L298.742 151.46Z" fill="#263238"/>
<path d="M297.698 151.868H297.621C296.147 151.26 294.844 150.301 293.826 149.074C293.187 148.389 292.492 147.76 291.747 147.193C291.634 147.099 291.492 147.047 291.345 147.047C291.199 147.047 291.056 147.099 290.944 147.193C290.854 147.29 290.804 147.418 290.804 147.55C290.804 147.683 290.854 147.81 290.944 147.908C291.208 148.304 291.505 148.678 291.802 149.008C291.921 149.138 291.995 149.304 292.013 149.481C292.031 149.657 291.992 149.834 291.901 149.987C291.805 150.12 291.669 150.219 291.512 150.269C291.355 150.319 291.187 150.316 291.032 150.262C290.613 150.125 290.202 149.967 289.8 149.789C289.764 149.757 289.718 149.74 289.67 149.741C289.622 149.743 289.577 149.762 289.543 149.796C289.51 149.83 289.49 149.875 289.489 149.923C289.487 149.971 289.504 150.017 289.536 150.053L289.591 150.196C289.656 150.341 289.682 150.5 289.667 150.658C289.651 150.816 289.595 150.968 289.503 151.098C289.409 151.222 289.285 151.32 289.142 151.384C289 151.447 288.844 151.474 288.689 151.461C283.847 151.232 278.997 151.251 274.158 151.516C274.085 151.516 274.015 151.487 273.963 151.435C273.912 151.383 273.883 151.314 273.883 151.241C273.883 151.168 273.912 151.098 273.963 151.046C274.015 150.995 274.085 150.966 274.158 150.966C279.016 150.701 283.884 150.682 288.744 150.911C288.806 150.921 288.869 150.914 288.927 150.891C288.986 150.868 289.036 150.829 289.074 150.779C289.107 150.722 289.124 150.657 289.124 150.592C289.124 150.526 289.107 150.461 289.074 150.405L289.019 150.284C288.942 150.144 288.912 149.983 288.935 149.825C288.957 149.667 289.03 149.52 289.143 149.407C289.256 149.294 289.403 149.221 289.561 149.199C289.719 149.176 289.88 149.206 290.02 149.283C290.397 149.46 290.787 149.611 291.186 149.734C291.22 149.76 291.263 149.775 291.307 149.775C291.351 149.775 291.393 149.76 291.428 149.734C291.455 149.682 291.465 149.622 291.455 149.565C291.445 149.507 291.416 149.454 291.373 149.415C291.054 149.041 290.757 148.645 290.482 148.249C290.323 148.042 290.243 147.787 290.255 147.527C290.267 147.267 290.371 147.02 290.548 146.83C290.751 146.641 291.018 146.536 291.296 146.536C291.573 146.536 291.84 146.641 292.044 146.83C292.836 147.408 293.573 148.06 294.244 148.777C295.184 149.878 296.366 150.748 297.698 151.318C297.733 151.329 297.765 151.347 297.793 151.371C297.821 151.395 297.844 151.424 297.86 151.457C297.876 151.489 297.886 151.525 297.888 151.562C297.891 151.598 297.886 151.635 297.874 151.67C297.864 151.715 297.842 151.757 297.811 151.791C297.78 151.826 297.741 151.852 297.698 151.868Z" fill="white"/>
<path d="M292.981 192.171L300.34 179.444H285.633L292.981 192.171Z" fill="#8568F5"/>
<path d="M375.558 154.793C372.43 152.026 368.358 150.569 364.184 150.723C361.511 145.333 356 142.187 350.17 143.254C341.81 144.783 339.258 154.826 345.066 158.489C346.987 159.706 349.067 160.65 351.248 161.294V161.558C347.833 162.79 344.845 164.981 342.644 167.869C340.443 170.757 339.122 174.218 338.84 177.838C337.982 190.29 351.358 197.572 358.64 190.642C359.647 189.686 360.602 188.676 361.5 187.617C362.908 189.597 364.426 191.621 366.065 193.733C384.259 185.351 387.328 164.946 375.558 154.793Z" fill="#263238"/>
<path d="M338.985 203.204C338.875 204.744 338.743 206.086 338.545 207.494C338.347 208.902 338.16 210.266 337.929 211.641C337.467 214.402 336.829 217.141 336.18 219.836C334.842 225.319 332.97 230.657 330.592 235.775L330.361 236.259C330.273 236.446 330.251 236.512 330.086 236.842C329.811 237.386 329.483 237.902 329.107 238.382C328.398 239.253 327.547 239.997 326.588 240.582C325.005 241.526 323.259 242.164 321.44 242.463C318.443 242.925 315.396 242.965 312.387 242.584C306.818 241.901 301.344 240.584 296.074 238.657L297.284 234.257C299.825 234.642 302.476 234.994 305.072 235.225C307.629 235.504 310.2 235.636 312.772 235.621C315.134 235.664 317.491 235.413 319.79 234.873C320.622 234.672 321.409 234.318 322.111 233.828C322.285 233.702 322.431 233.541 322.54 233.355C322.57 233.3 322.592 233.241 322.606 233.179L322.914 232.387C323.376 231.21 323.827 230.022 324.212 228.801C324.597 227.58 325.004 226.37 325.389 225.149C326.082 222.674 326.764 220.199 327.325 217.669C327.886 215.139 328.348 212.609 328.777 210.057C329.206 207.505 329.547 204.865 329.8 202.489L338.985 203.204Z" fill="#FFB573"/>
<path d="M332.724 192.193C329.006 193.128 326.41 208.407 326.41 208.407L336.64 215.359C336.64 215.359 346.452 199.959 343.592 195.878C340.6 191.621 338.136 190.807 332.724 192.193Z" fill="#263238"/>
<path opacity="0.2" d="M333.056 195.604L330.207 210.993L335.949 214.898L333.056 195.604Z" fill="black"/>
<path d="M293.457 234.455L286.516 237.117L294.359 241.847C294.359 241.847 299.364 238.954 299.232 235.247L298.462 234.807C297.706 234.381 296.865 234.128 295.999 234.067C295.133 234.006 294.265 234.139 293.457 234.455Z" fill="#FFB573"/>
<path opacity="0.1" d="M292.94 234.796L289.508 236.017C288.837 236.244 288.18 236.508 287.539 236.809C287.539 236.809 289.805 237.755 290.938 237.117C292.656 237.247 294.384 237.143 296.075 236.809L292.94 234.796Z" fill="black"/>
<path d="M282.191 242.277L288.098 247.194L294.346 241.892L286.514 237.162L282.191 242.277Z" fill="#FFB573"/>
<path d="M352.802 449.286H343.804L343.199 428.43H352.208L352.802 449.286Z" fill="#FFB573"/>
<path d="M343.493 448.24H353.602C353.777 448.236 353.948 448.296 354.082 448.41C354.216 448.524 354.303 448.683 354.328 448.856L355.428 456.864C355.449 457.066 355.428 457.27 355.365 457.463C355.303 457.656 355.2 457.834 355.064 457.984C354.928 458.135 354.762 458.255 354.576 458.337C354.39 458.419 354.19 458.461 353.987 458.459C350.467 458.404 348.762 458.195 344.307 458.195C341.579 458.195 333.714 458.481 329.93 458.481C326.146 458.481 325.948 454.741 327.521 454.4C334.583 452.882 339.621 450.792 341.942 448.79C342.378 448.43 342.927 448.235 343.493 448.24Z" fill="#263238"/>
<g opacity="0.2">
<path d="M343.199 428.43L343.507 439.188H352.516L352.208 428.43H343.199Z" fill="black"/>
</g>
<path d="M332.723 192.193C332.723 192.193 328.433 193.7 337.024 246.544H373.599C372.983 231.661 372.972 222.476 380.089 191.929C374.969 190.869 369.778 190.186 364.557 189.883C359.028 189.487 353.477 189.487 347.947 189.883C340.808 190.532 332.723 192.193 332.723 192.193Z" fill="#263238"/>
<path d="M357.914 206.681C354.892 206.591 351.956 205.661 349.433 203.997C349.403 203.977 349.378 203.951 349.359 203.922C349.34 203.892 349.327 203.859 349.32 203.824C349.314 203.789 349.315 203.753 349.323 203.718C349.331 203.684 349.346 203.651 349.367 203.623C349.387 203.592 349.413 203.566 349.443 203.545C349.473 203.525 349.507 203.511 349.543 203.503C349.579 203.496 349.616 203.496 349.652 203.503C349.688 203.511 349.722 203.525 349.752 203.546C352.449 205.314 355.626 206.205 358.849 206.098C360.048 205.339 368.342 199.806 368.969 190.225C368.972 190.188 368.981 190.153 368.998 190.121C369.014 190.089 369.037 190.06 369.065 190.036C369.092 190.013 369.124 189.995 369.159 189.984C369.193 189.973 369.23 189.969 369.266 189.972C369.302 189.974 369.337 189.984 369.37 190.001C369.402 190.017 369.431 190.04 369.454 190.068C369.478 190.095 369.495 190.127 369.507 190.162C369.518 190.196 369.522 190.233 369.519 190.269C368.881 200.07 360.719 205.592 359.08 206.593C359.04 206.603 358.998 206.603 358.959 206.593C358.607 206.67 358.255 206.681 357.914 206.681Z" fill="white"/>
<path d="M342.35 204.986C342.304 205.002 342.254 205.002 342.207 204.986C341.806 204.675 341.478 204.279 341.246 203.826C341.014 203.374 340.884 202.876 340.865 202.368C340.348 199.013 341.591 193.15 344.165 190.114C344.191 190.088 344.222 190.067 344.256 190.052C344.29 190.038 344.326 190.03 344.363 190.03C344.4 190.03 344.437 190.038 344.471 190.052C344.505 190.067 344.536 190.088 344.561 190.114C344.612 190.166 344.64 190.235 344.64 190.307C344.64 190.379 344.612 190.448 344.561 190.499C342.119 193.348 340.854 199.079 341.349 202.313C341.399 203.15 341.764 203.937 342.372 204.513C343.895 204.249 345.375 203.779 346.772 203.116C346.84 203.09 346.915 203.09 346.982 203.116C347.049 203.143 347.104 203.194 347.135 203.259C347.15 203.293 347.158 203.328 347.158 203.365C347.159 203.401 347.153 203.437 347.139 203.471C347.126 203.504 347.106 203.535 347.081 203.561C347.056 203.587 347.026 203.608 346.992 203.622C345.518 204.295 343.955 204.754 342.35 204.986Z" fill="white"/>
<path d="M362.908 171.184C361.863 176.519 360.818 186.32 364.558 189.884C364.558 189.884 363.095 195.307 353.162 195.307C342.239 195.307 347.948 189.884 347.948 189.884C353.899 188.454 353.745 184.032 352.711 179.885L362.908 171.184Z" fill="#FFB573"/>
<path d="M364.547 189.883C359.018 189.487 353.467 189.487 347.937 189.883L346.837 189.993C345.506 192.501 345.176 196.362 348.355 202.093C348.355 202.093 362.919 196.219 366.714 190.081C366.01 189.971 365.284 189.916 364.547 189.883Z" fill="#FFB573"/>
<path opacity="0.2" d="M358.753 174.736L352.703 179.917C352.965 180.882 353.138 181.869 353.22 182.865C355.497 182.535 358.621 180.038 358.863 177.651C359.008 176.681 358.971 175.693 358.753 174.736Z" fill="black"/>
<path d="M368.672 161.922C366.637 170.623 365.955 174.352 360.741 178.103C352.909 183.757 342.668 179.357 342.041 170.216C341.491 161.999 344.923 149.14 354.141 147.116C356.168 146.659 358.278 146.727 360.271 147.314C362.265 147.901 364.075 148.988 365.53 150.471C366.986 151.954 368.038 153.784 368.588 155.788C369.138 157.792 369.167 159.903 368.672 161.922Z" fill="#FFB573"/>
<path d="M337.028 246.544C337.028 246.544 329.922 315.921 330.516 343.344C331.132 371.944 341.593 437.053 341.593 437.053H353.803C353.803 437.053 351.878 373.572 352.956 345.522C354.133 314.931 363.846 246.522 363.846 246.522L337.028 246.544Z" fill="#8568F5"/>
<path opacity="0.3" d="M337.028 246.544C337.028 246.544 329.922 315.921 330.516 343.344C331.132 371.944 341.593 437.053 341.593 437.053H353.803C353.803 437.053 351.878 373.572 352.956 345.522C354.133 314.931 363.846 246.522 363.846 246.522L337.028 246.544Z" fill="white"/>
<path d="M354.826 437.537H340.537L339.492 432.983L355.497 432.422L354.826 437.537Z" fill="#263238"/>
<path opacity="0.2" d="M352.801 263.804C343.825 281.877 350.997 314.844 354.176 327.109C355.804 308.695 358.576 286.167 360.699 269.634C359.302 260.284 356.948 255.477 352.801 263.804Z" fill="black"/>
<path d="M394.899 449.286H385.89L382.59 428.43H391.588L394.899 449.286Z" fill="#FFB573"/>
<path d="M385.447 448.24H395.6C395.781 448.243 395.956 448.305 396.098 448.416C396.241 448.527 396.344 448.682 396.392 448.856L398.592 456.864C398.645 457.054 398.654 457.253 398.616 457.446C398.578 457.64 398.495 457.821 398.374 457.977C398.253 458.132 398.097 458.257 397.919 458.34C397.741 458.424 397.546 458.465 397.349 458.459C393.818 458.404 392.091 458.195 387.636 458.195C384.897 458.195 377.076 458.481 373.336 458.481C369.596 458.481 368.87 454.741 370.399 454.4C377.263 452.882 381.971 450.792 384.094 448.79C384.464 448.45 384.944 448.255 385.447 448.24Z" fill="#263238"/>
<g opacity="0.2">
<path d="M382.59 428.43L384.295 439.188H393.304L391.599 428.43H382.59Z" fill="black"/>
</g>
<path d="M347.203 246.544C347.203 246.544 354.76 315.921 358.918 343.344C363.241 371.944 382.161 437.053 382.161 437.053H394.283C394.283 437.053 384.119 373.572 381.556 345.522C378.762 314.931 373.933 246.522 373.933 246.522L347.203 246.544Z" fill="#8568F5"/>
<path opacity="0.3" d="M347.203 246.544C347.203 246.544 354.76 315.921 358.918 343.344C363.241 371.944 382.161 437.053 382.161 437.053H394.283C394.283 437.053 384.119 373.572 381.556 345.522C378.762 314.931 373.933 246.522 373.933 246.522L347.203 246.544Z" fill="white"/>
<path d="M395.393 437.537H381.104L379.465 432.983L395.393 432.422V437.537Z" fill="#263238"/>
<path d="M382.268 449.813C381.477 449.877 380.686 449.684 380.013 449.263C379.853 449.14 379.723 448.982 379.634 448.801C379.544 448.619 379.497 448.42 379.496 448.218C379.483 448.107 379.504 447.995 379.555 447.895C379.605 447.795 379.684 447.713 379.782 447.657C380.805 447.052 384.633 448.878 385.062 449.098C385.105 449.116 385.142 449.147 385.168 449.186C385.193 449.225 385.206 449.272 385.205 449.318C385.205 449.36 385.192 449.4 385.165 449.433C385.139 449.465 385.103 449.487 385.062 449.494C384.143 449.69 383.207 449.797 382.268 449.813ZM380.42 447.954C380.287 447.945 380.154 447.972 380.035 448.031C379.995 448.054 379.962 448.088 379.943 448.129C379.923 448.171 379.917 448.217 379.925 448.262C379.926 448.393 379.957 448.522 380.014 448.64C380.071 448.758 380.153 448.862 380.255 448.944C380.871 449.439 382.356 449.516 384.314 449.186C383.09 448.571 381.775 448.155 380.42 447.954Z" fill="#8568F5"/>
<path d="M385.017 449.494H384.929C383.829 448.999 381.42 447.063 381.453 446.04C381.453 445.798 381.596 445.501 382.179 445.435C382.619 445.398 383.057 445.532 383.4 445.809C384.322 446.767 384.948 447.97 385.204 449.274C385.212 449.31 385.21 449.347 385.198 449.382C385.186 449.417 385.166 449.448 385.138 449.472C385.101 449.491 385.059 449.499 385.017 449.494ZM382.399 445.842H382.278C381.893 445.842 381.882 446.04 381.882 446.084C381.882 446.7 383.499 448.229 384.676 448.889C384.45 447.84 383.927 446.878 383.169 446.117C382.951 445.941 382.68 445.844 382.399 445.842Z" fill="#8568F5"/>
<path d="M354.253 161.866C354.132 162.581 353.648 163.098 353.153 162.966C352.658 162.834 352.394 162.24 352.526 161.525C352.658 160.81 353.12 160.293 353.626 160.37C354.132 160.447 354.374 161.151 354.253 161.866Z" fill="#263238"/>
<path d="M346.155 160.491C346.034 161.206 345.55 161.723 345.055 161.591C344.56 161.459 344.307 160.876 344.428 160.15C344.549 159.424 345.022 158.918 345.528 159.05C346.034 159.182 346.276 159.776 346.155 160.491Z" fill="#263238"/>
<path d="M345.729 159.127L344.09 158.335C344.09 158.335 344.75 159.831 345.729 159.127Z" fill="#263238"/>
<path d="M348.433 162.208C347.526 163.73 346.416 165.122 345.133 166.344C345.456 166.665 345.844 166.912 346.271 167.07C346.698 167.227 347.154 167.291 347.608 167.257L348.433 162.208Z" fill="#ED893E"/>
<path d="M350.998 170.721C350.629 170.721 350.261 170.688 349.898 170.622C349.87 170.618 349.844 170.609 349.82 170.594C349.796 170.58 349.775 170.561 349.759 170.538C349.742 170.516 349.731 170.49 349.724 170.463C349.718 170.436 349.717 170.408 349.722 170.38C349.732 170.324 349.765 170.273 349.812 170.241C349.86 170.208 349.918 170.195 349.975 170.204C350.861 170.374 351.775 170.333 352.642 170.085C353.51 169.837 354.307 169.388 354.969 168.774C354.988 168.753 355.012 168.736 355.039 168.724C355.065 168.713 355.094 168.707 355.123 168.707C355.152 168.707 355.18 168.713 355.207 168.724C355.233 168.736 355.257 168.753 355.277 168.774C355.296 168.794 355.312 168.817 355.323 168.842C355.333 168.868 355.339 168.895 355.339 168.923C355.339 168.95 355.333 168.978 355.323 169.003C355.312 169.029 355.296 169.052 355.277 169.071C354.125 170.166 352.586 170.759 350.998 170.721Z" fill="#263238"/>
<path d="M372.919 148.369C371.886 147.645 370.713 147.143 369.476 146.895C368.475 138.315 361.6 132.859 353.933 134.586C345.243 136.544 342.218 147.324 348.059 150.998C351.495 153.098 355.376 154.36 359.389 154.683C359.543 161.8 363.976 167.883 367.089 168.213C375.977 164.671 378.276 152.142 372.919 148.369Z" fill="#263238"/>
<path d="M369.684 170.392C368.808 171.881 367.382 172.967 365.713 173.417C363.513 173.978 362.413 171.987 363.095 169.919C363.678 168.06 365.548 165.519 367.759 165.86C368.239 165.947 368.69 166.153 369.071 166.458C369.452 166.763 369.752 167.158 369.943 167.607C370.134 168.056 370.21 168.546 370.165 169.032C370.12 169.518 369.955 169.985 369.684 170.392Z" fill="#FFB573"/>
<path d="M357.783 160.767C357.692 160.766 357.604 160.737 357.531 160.684C357.458 160.631 357.404 160.556 357.376 160.47C356.793 158.589 354.384 157.775 354.362 157.775C354.254 157.739 354.165 157.663 354.113 157.562C354.062 157.461 354.052 157.344 354.087 157.236C354.103 157.181 354.13 157.131 354.166 157.088C354.203 157.044 354.247 157.008 354.298 156.983C354.348 156.957 354.403 156.942 354.46 156.938C354.516 156.934 354.573 156.942 354.626 156.961C354.736 156.961 357.486 157.918 358.19 160.261C358.225 160.369 358.215 160.486 358.164 160.587C358.112 160.688 358.023 160.764 357.915 160.8L357.783 160.767Z" fill="#263238"/>
<path d="M344.362 156.334C344.287 156.333 344.213 156.314 344.148 156.278C344.082 156.241 344.027 156.188 343.988 156.125C343.933 156.025 343.919 155.908 343.95 155.799C343.981 155.69 344.054 155.597 344.153 155.542C344.732 155.191 345.387 154.984 346.062 154.938C346.738 154.893 347.414 155.009 348.036 155.278C348.122 155.336 348.184 155.424 348.21 155.525C348.236 155.626 348.225 155.733 348.177 155.827C348.13 155.92 348.051 155.992 347.954 156.031C347.857 156.07 347.749 156.072 347.651 156.037C347.154 155.833 346.617 155.749 346.082 155.791C345.547 155.833 345.03 156 344.571 156.279C344.508 156.317 344.435 156.336 344.362 156.334Z" fill="#263238"/>
<path d="M384.294 202.413C385.394 207.594 386.12 212.687 386.736 217.89C387.386 223.113 387.754 228.368 387.836 233.631C387.836 233.895 387.836 234.445 387.836 234.929C387.836 235.413 387.759 235.809 387.704 236.216C387.572 237.019 387.429 237.767 387.242 238.416C386.89 239.824 386.472 241.133 386.032 242.42C385.152 244.983 384.107 247.414 383.051 249.812C380.9 254.567 378.51 259.212 375.89 263.727L371.754 261.802L374.207 254.564C375.032 252.166 375.824 249.746 376.561 247.337C377.298 244.928 378.013 242.541 378.629 240.187C378.926 239.01 379.179 237.844 379.355 236.744C379.443 236.194 379.509 235.644 379.553 235.204C379.553 234.973 379.553 234.764 379.553 234.577L379.498 233.95C379.3 231.486 379.014 229.011 378.717 226.525L377.683 219.045C376.924 214.073 376.077 209.035 375.23 204.118L384.294 202.413Z" fill="#FFB573"/>
<path d="M380.091 191.929C383.754 193.029 388.154 205.657 388.154 205.657L373.931 215.821C373.931 215.821 368.75 205.294 370.29 200.553C371.896 195.625 375.9 190.653 380.091 191.929Z" fill="#263238"/>
<path d="M340.105 449.813C339.33 449.891 338.552 449.697 337.905 449.263C337.759 449.135 337.647 448.972 337.58 448.79C337.512 448.607 337.492 448.411 337.52 448.218C337.525 448.102 337.56 447.99 337.622 447.891C337.684 447.793 337.77 447.712 337.872 447.657C338.972 447.052 342.569 448.878 342.976 449.098C343.015 449.119 343.047 449.151 343.067 449.191C343.087 449.23 343.093 449.275 343.086 449.318C343.08 449.361 343.061 449.401 343.031 449.433C343.002 449.464 342.963 449.486 342.921 449.494C341.994 449.688 341.052 449.794 340.105 449.813ZM338.499 447.954C338.363 447.946 338.226 447.973 338.103 448.031C338.06 448.053 338.025 448.086 338 448.127C337.974 448.168 337.961 448.215 337.96 448.262C337.943 448.387 337.956 448.514 337.999 448.633C338.041 448.751 338.11 448.858 338.202 448.944C338.752 449.439 340.237 449.516 342.228 449.186C341.065 448.564 339.804 448.148 338.499 447.954Z" fill="#8568F5"/>
<path d="M342.9 449.495H342.801C341.701 449 339.6 447.063 339.776 446.04C339.776 445.798 339.985 445.502 340.568 445.436C340.781 445.414 340.996 445.437 341.2 445.501C341.405 445.565 341.594 445.67 341.756 445.809C342.856 446.755 343.098 449.175 343.098 449.274C343.104 449.312 343.099 449.351 343.084 449.387C343.068 449.422 343.042 449.452 343.01 449.472C342.976 449.489 342.938 449.497 342.9 449.495ZM340.755 445.842H340.601C340.216 445.842 340.194 446.04 340.183 446.084C340.084 446.7 341.525 448.229 342.614 448.889C342.543 447.874 342.159 446.905 341.514 446.117C341.305 445.933 341.034 445.835 340.755 445.842Z" fill="#8568F5"/>
<path d="M353.803 160.502L352.164 159.71C352.164 159.71 352.846 161.217 353.803 160.502Z" fill="#263238"/>
<path d="M374.153 244.399L375.088 247.699C375.22 247.963 374.912 248.216 374.494 248.216H336.841C336.511 248.216 336.247 248.051 336.225 247.853L335.895 244.553C335.895 244.322 336.159 244.135 336.511 244.135H373.603C373.709 244.133 373.814 244.155 373.909 244.201C374.005 244.247 374.088 244.315 374.153 244.399Z" fill="#8568F5"/>
<path d="M369.202 248.536H370.192C370.39 248.536 370.533 248.437 370.522 248.316L370.06 244.059C370.06 243.938 369.873 243.828 369.675 243.828H368.685C368.487 243.828 368.333 243.938 368.344 244.059L368.817 248.316C368.806 248.437 368.982 248.536 369.202 248.536Z" fill="#8568F5"/>
<g opacity="0.3">
<path d="M369.202 248.536H370.192C370.39 248.536 370.533 248.437 370.522 248.316L370.06 244.059C370.06 243.938 369.873 243.828 369.675 243.828H368.685C368.487 243.828 368.333 243.938 368.344 244.059L368.817 248.316C368.806 248.437 368.982 248.536 369.202 248.536Z" fill="white"/>
</g>
<path d="M339.634 248.536H340.624C340.822 248.536 340.976 248.437 340.965 248.316L340.492 244.059C340.492 243.938 340.305 243.828 340.107 243.828H339.117C338.919 243.828 338.765 243.938 338.787 244.059L339.249 248.316C339.26 248.437 339.436 248.536 339.634 248.536Z" fill="#8568F5"/>
<path opacity="0.3" d="M339.634 248.536H340.624C340.822 248.536 340.976 248.437 340.965 248.316L340.492 244.059C340.492 243.938 340.305 243.828 340.107 243.828H339.117C338.919 243.828 338.765 243.938 338.787 244.059L339.249 248.316C339.26 248.437 339.436 248.536 339.634 248.536Z" fill="white"/>
<path d="M354.408 248.536H355.398C355.596 248.536 355.75 248.437 355.728 248.316L355.266 244.059C355.266 243.938 355.079 243.828 354.881 243.828H353.891C353.693 243.828 353.539 243.938 353.561 244.059L354.023 248.316C354.034 248.437 354.21 248.536 354.408 248.536Z" fill="#8568F5"/>
<path opacity="0.3" d="M354.408 248.536H355.398C355.596 248.536 355.75 248.437 355.728 248.316L355.266 244.059C355.266 243.938 355.079 243.828 354.881 243.828H353.891C353.693 243.828 353.539 243.938 353.561 244.059L354.023 248.316C354.034 248.437 354.21 248.536 354.408 248.536Z" fill="white"/>
<path d="M371.919 260.987L364.934 267.763L374.042 268.676C374.042 268.676 377.342 263.913 375.615 260.591L371.919 260.987Z" fill="#FFB573"/>
<path d="M363.898 275.266L371.576 275.618L374.04 268.677L364.932 267.764L363.898 275.266Z" fill="#FFB573"/>
<path d="M185.828 450.639C186.695 450.74 187.57 450.525 188.292 450.034C188.392 449.922 188.456 449.782 188.476 449.633C188.496 449.484 188.47 449.332 188.402 449.198C188.352 449.087 188.278 448.988 188.185 448.91C188.091 448.832 187.981 448.776 187.863 448.747C186.565 448.384 183.463 449.99 183.375 450.067C183.338 450.084 183.306 450.112 183.285 450.147C183.263 450.183 183.252 450.223 183.254 450.265C183.256 450.301 183.27 450.336 183.294 450.364C183.318 450.392 183.35 450.411 183.386 450.419C184.192 450.564 185.009 450.637 185.828 450.639ZM187.346 449.077C187.466 449.059 187.589 449.059 187.709 449.077C187.781 449.091 187.849 449.123 187.906 449.169C187.963 449.215 188.009 449.274 188.039 449.341C188.138 449.583 188.039 449.704 188.039 449.77C187.588 450.287 185.542 450.298 184.068 450.089C185.093 449.562 186.203 449.219 187.346 449.077Z" fill="#8568F5"/>
<path d="M183.421 450.419H183.509C184.543 449.979 186.732 448.219 186.721 447.317C186.721 447.097 186.6 446.833 186.083 446.778C185.689 446.751 185.298 446.868 184.983 447.108C184.136 447.966 183.545 449.044 183.278 450.221C183.267 450.252 183.267 450.286 183.277 450.318C183.286 450.35 183.306 450.377 183.333 450.397C183.36 450.413 183.39 450.42 183.421 450.419ZM185.874 447.119H185.995C186.325 447.119 186.336 447.284 186.336 447.328C186.336 447.878 184.829 449.253 183.74 449.847C183.984 448.904 184.478 448.045 185.17 447.361C185.376 447.215 185.622 447.138 185.874 447.141V447.119Z" fill="#8568F5"/>
<path d="M174.566 450.232H182.651L186.204 431.51H178.119L174.566 450.232Z" fill="#B55B52"/>
<path d="M182.728 449.297H173.928C173.76 449.303 173.597 449.358 173.46 449.456C173.324 449.554 173.218 449.69 173.158 449.847L170.507 457.03C170.433 457.186 170.401 457.358 170.413 457.53C170.425 457.702 170.481 457.868 170.576 458.012C170.671 458.156 170.802 458.273 170.956 458.351C171.109 458.43 171.281 458.467 171.453 458.46C174.654 458.46 179.274 458.229 183.278 458.229C187.953 458.229 187.524 458.482 193.013 458.482C196.313 458.482 197.743 455.127 196.401 454.819C190.285 453.444 189.57 453.29 184.609 449.924C184.061 449.527 183.405 449.308 182.728 449.297Z" fill="#263238"/>
<path opacity="0.2" d="M186.203 431.521L184.366 441.168H176.281L178.118 431.521H186.203Z" fill="black"/>
<path d="M186.808 248.613L192.099 254.168L183.563 257.149C183.563 257.149 180.461 252.617 182.848 249.515L186.808 248.613Z" fill="#B55B52"/>
<path d="M193.682 261.934L185.234 263.166L183.562 257.149L192.098 254.168L193.682 261.934Z" fill="#B55B52"/>
<path d="M155.095 294.714L196.323 296.518C197.292 296.533 198.236 296.212 198.996 295.611C199.756 295.01 200.284 294.164 200.492 293.218L205.42 268.028C205.523 267.601 205.528 267.157 205.435 266.728C205.342 266.299 205.154 265.896 204.885 265.55C204.616 265.203 204.272 264.922 203.879 264.726C203.486 264.531 203.054 264.426 202.615 264.42L161.387 262.605C160.42 262.592 159.479 262.914 158.721 263.515C157.964 264.116 157.437 264.96 157.229 265.905L152.29 291.095C152.186 291.522 152.18 291.968 152.271 292.398C152.363 292.829 152.551 293.233 152.82 293.581C153.09 293.928 153.435 294.211 153.828 294.407C154.222 294.603 154.655 294.708 155.095 294.714Z" fill="#263238"/>
<path d="M157.922 302.458L208.852 304.658C210.007 304.702 211.135 304.301 212.003 303.537C212.871 302.774 213.412 301.706 213.516 300.555L216.211 269.293C216.265 268.737 216.205 268.177 216.034 267.645C215.864 267.114 215.585 266.623 215.217 266.204C214.849 265.784 214.399 265.444 213.895 265.206C213.39 264.967 212.842 264.834 212.284 264.816L161.365 262.616C160.21 262.577 159.084 262.98 158.215 263.742C157.347 264.504 156.801 265.569 156.69 266.719L153.995 297.981C153.942 298.536 154.003 299.096 154.175 299.627C154.346 300.158 154.625 300.648 154.992 301.067C155.36 301.486 155.81 301.826 156.313 302.065C156.817 302.304 157.365 302.438 157.922 302.458Z" fill="#8568F5"/>
<path opacity="0.2" d="M157.922 302.458L208.852 304.658C210.007 304.702 211.135 304.301 212.003 303.537C212.871 302.774 213.412 301.706 213.516 300.555L216.211 269.293C216.265 268.737 216.205 268.177 216.034 267.645C215.864 267.114 215.585 266.623 215.217 266.204C214.849 265.784 214.399 265.444 213.895 265.206C213.39 264.967 212.842 264.834 212.284 264.816L161.365 262.616C160.21 262.577 159.084 262.98 158.215 263.742C157.347 264.504 156.801 265.569 156.69 266.719L153.995 297.981C153.942 298.536 154.003 299.096 154.175 299.627C154.346 300.158 154.625 300.648 154.992 301.067C155.36 301.486 155.81 301.826 156.313 302.065C156.817 302.304 157.365 302.438 157.922 302.458Z" fill="black"/>
<path d="M195.29 273.099H195.158L180.374 272.45C179.989 272.436 179.61 272.344 179.262 272.179C178.914 272.015 178.603 271.78 178.348 271.491C178.094 271.201 177.901 270.863 177.782 270.496C177.663 270.129 177.621 269.742 177.657 269.359L178.24 262.616C178.384 261.237 179.042 259.964 180.085 259.05C181.127 258.136 182.476 257.65 183.861 257.688L193.761 258.117C194.476 258.145 195.179 258.319 195.825 258.627C196.471 258.935 197.048 259.372 197.52 259.91C197.992 260.448 198.35 261.076 198.572 261.757C198.794 262.438 198.875 263.157 198.81 263.87L198.249 270.404C198.176 271.139 197.833 271.821 197.287 272.319C196.74 272.816 196.029 273.094 195.29 273.099ZM180.99 269.161L194.971 269.777L195.51 263.573C195.541 263.301 195.515 263.026 195.434 262.765C195.353 262.504 195.219 262.263 195.04 262.056C194.861 261.85 194.642 261.682 194.395 261.565C194.148 261.447 193.88 261.382 193.607 261.373L183.707 260.933C183.168 260.928 182.647 261.122 182.241 261.477C181.836 261.832 181.574 262.323 181.507 262.858L180.99 269.161Z" fill="#8568F5"/>
<path d="M214.297 304.933L163.378 302.733C162.215 302.665 161.118 302.165 160.304 301.331C159.49 300.496 159.017 299.388 158.978 298.223L158.296 266.818C158.274 266.264 158.368 265.711 158.572 265.195C158.776 264.679 159.086 264.212 159.482 263.823C159.878 263.435 160.351 263.133 160.87 262.939C161.39 262.744 161.944 262.66 162.498 262.693L213.428 264.893C214.593 264.958 215.69 265.458 216.505 266.293C217.319 267.127 217.792 268.237 217.828 269.403L218.499 300.808C218.52 301.362 218.425 301.914 218.22 302.429C218.015 302.944 217.705 303.411 217.31 303.799C216.914 304.187 216.442 304.489 215.923 304.684C215.404 304.879 214.851 304.964 214.297 304.933Z" fill="#8568F5"/>
<path d="M199.216 187.09C198.677 188.19 198.039 189.444 197.467 190.643C196.895 191.842 196.367 193.118 195.762 194.361C194.662 196.858 193.562 199.366 192.616 201.885C191.67 204.404 190.79 206.945 190.009 209.464C189.646 210.729 189.272 211.983 188.997 213.226C188.832 213.853 188.689 214.48 188.579 215.085L188.403 216.009C188.337 216.328 188.271 216.647 188.249 216.867C188.249 217.351 188.117 217.791 188.095 218.44C188.073 219.089 188.018 219.617 188.018 220.288C188.018 221.575 188.018 222.928 188.018 224.281C188.073 227.02 188.238 229.781 188.403 232.619C188.722 238.24 189.195 243.949 189.635 249.581L179.559 251.209C178.195 245.478 177.117 239.802 176.149 233.983C175.687 231.079 175.291 228.153 174.961 225.183C174.807 223.665 174.653 222.158 174.576 220.563C174.51 219.804 174.499 218.946 174.488 218.11C174.477 217.274 174.488 216.328 174.587 215.382C174.609 214.951 174.653 214.521 174.719 214.095L174.873 212.885C174.961 212.071 175.082 211.279 175.225 210.509C175.489 208.925 175.819 207.396 176.149 205.867C176.864 202.842 177.678 199.861 178.646 196.979C179.614 194.097 180.637 191.237 181.781 188.443C182.353 187.046 182.881 185.66 183.563 184.274C184.245 182.888 184.784 181.568 185.543 180.05L199.216 187.09Z" fill="#8568F5"/>
<path d="M221.261 244.675C221.261 244.675 213.484 305.098 208.985 329.738C204.299 355.368 187.7 439.298 187.7 439.298H173.961C173.961 439.298 180.935 356.864 184.026 331.696C187.403 304.196 192.826 244.675 192.826 244.675H221.261Z" fill="#263238"/>
<path d="M191.088 433.842C191.154 433.842 189.482 439.529 189.482 439.529H172.828L173.125 434.458L191.088 433.842Z" fill="#8568F5"/>
<path d="M227.883 144.333C227.883 145.015 228.246 145.576 228.697 145.576C229.148 145.576 229.5 145.015 229.5 144.333C229.5 143.651 229.137 143.101 228.697 143.101C228.257 143.101 227.883 143.618 227.883 144.333Z" fill="#263238"/>
<path d="M228.18 145.576C229.006 147.669 230.116 149.638 231.48 151.428C231.008 151.766 230.468 151.996 229.898 152.103C229.328 152.209 228.741 152.189 228.18 152.044V145.576Z" fill="#A02724"/>
<path d="M225.464 140.538C225.545 140.538 225.625 140.516 225.695 140.472C226.094 140.162 226.563 139.952 227.06 139.86C227.558 139.769 228.07 139.797 228.555 139.944C228.654 139.98 228.763 139.976 228.86 139.933C228.956 139.89 229.032 139.811 229.072 139.713C229.091 139.664 229.1 139.612 229.099 139.559C229.098 139.506 229.086 139.454 229.065 139.406C229.043 139.358 229.012 139.314 228.974 139.278C228.935 139.242 228.89 139.214 228.841 139.196C228.232 139 227.586 138.953 226.956 139.061C226.326 139.168 225.731 139.426 225.222 139.812C225.137 139.876 225.08 139.97 225.064 140.075C225.047 140.179 225.072 140.286 225.134 140.373C225.171 140.425 225.221 140.468 225.278 140.496C225.336 140.525 225.399 140.539 225.464 140.538Z" fill="#263238"/>
<path d="M206.224 151.89C207.324 157.808 208.534 168.643 204.398 172.581C204.398 172.581 206.015 178.576 217.004 178.576C229.104 178.576 222.768 172.581 222.768 172.581C216.168 171.008 216.355 166.124 217.499 161.526L206.224 151.89Z" fill="#B55B52"/>
<path d="M202.812 174.638C201.954 172.746 200.997 170.568 202.966 169.886C205.166 169.138 217.013 168.379 221.105 169.787C221.645 169.936 222.15 170.192 222.59 170.538C223.031 170.884 223.398 171.314 223.671 171.803C223.944 172.292 224.118 172.83 224.181 173.386C224.245 173.943 224.198 174.507 224.042 175.045L202.812 174.638Z" fill="#263238"/>
<path d="M188.481 174.902C181.408 178.114 177.008 202.468 177.008 202.468L190.879 206.868C193.604 200.437 195.868 193.82 197.655 187.068C200.174 176.904 195.719 171.624 188.481 174.902Z" fill="#8568F5"/>
<path d="M274.598 235.204H283.134L281.638 245.412C281.638 245.412 274.95 245.17 271.914 240.132L274.598 235.204Z" fill="#B55B52"/>
<path d="M291.164 238.757L286.874 246.644L281.594 245.434L283.09 235.226L291.164 238.757Z" fill="#B55B52"/>
<path d="M205.058 142.881C205.575 151.285 205.454 156.235 209.7 160.547C216.08 167.037 226.453 163.187 228.455 154.794C230.27 147.248 229.115 134.774 220.887 131.43C219.077 130.684 217.107 130.413 215.163 130.643C213.219 130.873 211.366 131.596 209.78 132.743C208.194 133.89 206.928 135.424 206.101 137.198C205.275 138.972 204.916 140.928 205.058 142.881Z" fill="#B55B52"/>
<path d="M204.091 154.31C204.091 154.31 196.479 142.892 198.129 135.445C199.636 128.636 215.003 126.205 221.383 126.887C228.159 127.624 230.799 130.539 227.081 136.413C224.887 137.453 222.58 138.235 220.206 138.745C220.206 138.745 223.979 143.376 224.012 146.445C222.912 147.017 219.513 148.381 219.513 148.381C219.513 148.381 214.695 160.272 214.552 160.25C212.693 160.03 208.392 159.964 206.852 160.547C205.761 158.548 204.837 156.462 204.091 154.31Z" fill="#263238"/>
<path d="M216.18 147.149C216.735 149.159 217.932 150.932 219.59 152.198C221.79 153.848 223.429 152.286 223.264 149.811C223.121 147.611 221.801 144.058 219.381 143.365C216.961 142.672 215.542 144.718 216.18 147.149Z" fill="#B55B52"/>
<path opacity="0.3" d="M215.43 267.258C204.617 269.766 206.63 308.882 208.709 331.179C208.808 330.673 208.885 330.2 208.973 329.738C211.657 315.064 215.496 287.718 218.169 267.984C217.337 267.503 216.391 267.252 215.43 267.258Z" fill="black"/>
<path d="M225.892 450.639C226.926 450.639 227.927 450.496 228.268 450.034C228.356 449.912 228.403 449.766 228.403 449.616C228.403 449.466 228.356 449.319 228.268 449.198C228.203 449.085 228.116 448.988 228.012 448.91C227.908 448.833 227.789 448.777 227.663 448.747C226.321 448.384 223.494 449.99 223.373 450.067C223.34 450.086 223.313 450.116 223.297 450.152C223.282 450.187 223.277 450.227 223.285 450.265C223.293 450.303 223.312 450.337 223.339 450.365C223.366 450.392 223.401 450.411 223.439 450.419C224.249 450.561 225.07 450.634 225.892 450.639ZM227.179 449.077C227.299 449.059 227.422 449.059 227.542 449.077C227.619 449.092 227.693 449.123 227.757 449.169C227.822 449.214 227.876 449.273 227.916 449.341C228.059 449.583 228.004 449.704 227.916 449.77C227.542 450.287 225.496 450.298 223.989 450.089C224.976 449.547 226.06 449.203 227.179 449.077Z" fill="#8568F5"/>
<path d="M223.451 450.419H223.528C224.507 449.979 226.443 448.219 226.289 447.317C226.289 447.097 226.102 446.833 225.574 446.778C225.378 446.754 225.179 446.771 224.99 446.827C224.8 446.884 224.625 446.98 224.474 447.108C223.44 447.955 223.231 450.133 223.22 450.221C223.216 450.254 223.221 450.288 223.234 450.319C223.248 450.35 223.27 450.377 223.297 450.397C223.344 450.424 223.399 450.431 223.451 450.419ZM225.42 447.119H225.541C225.882 447.119 225.904 447.284 225.915 447.328C226.003 447.878 224.683 449.253 223.715 449.847C223.816 448.924 224.2 448.056 224.815 447.361C224.988 447.223 225.2 447.146 225.42 447.141V447.119Z" fill="#8568F5"/>
<path d="M214.562 450.232H222.648L223.451 431.51H215.377L214.562 450.232Z" fill="#B55B52"/>
<path d="M222.592 449.297H213.792C213.632 449.297 213.476 449.352 213.35 449.452C213.225 449.552 213.136 449.691 213.099 449.847L211.504 457.03C211.466 457.203 211.467 457.383 211.509 457.556C211.55 457.728 211.629 457.889 211.741 458.027C211.854 458.164 211.995 458.275 212.156 458.35C212.317 458.425 212.493 458.462 212.67 458.46C215.849 458.46 220.447 458.229 224.451 458.229C229.137 458.229 233.174 458.482 238.663 458.482C241.963 458.482 242.898 455.127 241.512 454.819C235.187 453.444 230.028 453.29 224.561 449.924C223.976 449.535 223.294 449.317 222.592 449.297Z" fill="#263238"/>
<path opacity="0.2" d="M223.448 431.521L223.03 441.168H214.945L215.363 431.521H223.448Z" fill="black"/>
<path d="M235.683 244.675C235.683 244.675 236.783 305.098 235.914 329.738C235.001 355.368 226.014 439.298 226.014 439.298H212.363C212.363 439.298 211.857 356.864 211.263 331.696C210.592 304.196 207.281 244.675 207.281 244.675H235.683Z" fill="#263238"/>
<path d="M228.687 433.842C228.742 433.842 227.906 439.529 227.906 439.529H211.263L210.801 434.458L228.687 433.842Z" fill="#8568F5"/>
<path d="M235.199 174.825C235.199 174.825 244.901 189.609 236.772 249.746H191.122C190.825 243.146 196.336 205.669 189.934 174.407C194.711 173.487 199.543 172.877 204.399 172.581C210.517 172.228 216.65 172.228 222.769 172.581C226.964 173.003 231.12 173.754 235.199 174.825Z" fill="#8568F5"/>
<path opacity="0.2" d="M240.015 205.592L230.445 189.73C230.445 189.73 234.042 212.214 239.553 222.356C239.927 216.009 240.059 210.443 240.015 205.592Z" fill="black"/>
<path d="M244.095 186.397C245.668 191.424 247.395 196.572 249.166 201.61C250.937 206.648 252.785 211.653 254.809 216.46L255.579 218.242C255.645 218.374 255.704 218.51 255.755 218.649C255.8 218.751 255.851 218.85 255.909 218.946C256.397 219.674 256.965 220.346 257.603 220.948C259.339 222.564 261.204 224.036 263.18 225.348C265.248 226.778 267.437 228.164 269.692 229.473C271.947 230.782 274.279 232.124 276.501 233.279L272.222 243.267C266.807 241.28 261.552 238.882 256.503 236.095C253.801 234.587 251.226 232.861 248.803 230.936C247.359 229.772 246.049 228.452 244.898 226.998C244.568 226.525 244.249 226.107 243.93 225.579C243.611 225.051 243.259 224.391 243.16 224.171L242.192 222.246C239.673 217.12 237.418 211.994 235.339 206.846C233.26 201.698 231.324 196.517 229.465 191.16L244.095 186.397Z" fill="#8568F5"/>
<path d="M224.416 178.477C221.589 185.671 238.782 214.634 238.782 214.634L249.969 203.931C249.969 203.931 247.527 194.834 244.271 183.878C241.059 173.109 227.111 171.602 224.416 178.477Z" fill="#8568F5"/>
</g>
<defs>
<filter id="filter0_d_542_19208" x="0" y="0.617676" width="558" height="558" filterUnits="userSpaceOnUse" color-interpolation-filters="sRGB">
<feFlood flood-opacity="0" result="BackgroundImageFix"/>
<feColorMatrix in="SourceAlpha" type="matrix" values="0 0 0 0 0 0 0 0 0 0 0 0 0 0 0 0 0 0 127 0" result="hardAlpha"/>
<feOffset dy="4"/>
<feGaussianBlur stdDeviation="2"/>
<feComposite in2="hardAlpha" operator="out"/>
<feColorMatrix type="matrix" values="0 0 0 0 0 0 0 0 0 0 0 0 0 0 0 0 0 0 0.25 0"/>
<feBlend mode="normal" in2="BackgroundImageFix" result="effect1_dropShadow_542_19208"/>
<feBlend mode="normal" in="SourceGraphic" in2="effect1_dropShadow_542_19208" result="shape"/>
</filter>
<filter id="filter1_d_542_19208" x="-56" y="-15.7822" width="670" height="536.897" filterUnits="userSpaceOnUse" color-interpolation-filters="sRGB">
<feFlood flood-opacity="0" result="BackgroundImageFix"/>
<feColorMatrix in="SourceAlpha" type="matrix" values="0 0 0 0 0 0 0 0 0 0 0 0 0 0 0 0 0 0 127 0" result="hardAlpha"/>
<feOffset dy="4"/>
<feGaussianBlur stdDeviation="30"/>
<feComposite in2="hardAlpha" operator="out"/>
<feColorMatrix type="matrix" values="0 0 0 0 0 0 0 0 0 0 0 0 0 0 0 0 0 0 0.4 0"/>
<feBlend mode="normal" in2="BackgroundImageFix" result="effect1_dropShadow_542_19208"/>
<feBlend mode="normal" in="SourceGraphic" in2="effect1_dropShadow_542_19208" result="shape"/>
</filter>
<radialGradient id="paint0_radial_542_19208" cx="0" cy="0" r="1" gradientUnits="userSpaceOnUse" gradientTransform="translate(257.756 103.22) rotate(56.0875) scale(63.4395 60.0794)">
<stop stop-color="white" stop-opacity="0.59"/>
<stop offset="0.697917" stop-color="white" stop-opacity="0"/>
<stop offset="1" stop-color="white" stop-opacity="0"/>
</radialGradient>
<linearGradient id="paint1_linear_542_19208" x1="301.61" y1="225.878" x2="233.979" y2="131.124" gradientUnits="userSpaceOnUse">
<stop offset="0.52" stop-color="#FAAA19"/>
<stop offset="1" stop-color="#FF450D" stop-opacity="0.8"/>
</linearGradient>
<clipPath id="clip0_542_19208">
<rect width="550" height="550" fill="white" transform="translate(4 0.617676)"/>
</clipPath>
</defs>
</svg>
