<svg width="700" height="501" viewBox="0 0 700 501" fill="none" xmlns="http://www.w3.org/2000/svg">
<g clip-path="url(#clip0_542_19589)">
<g filter="url(#filter0_d_542_19589)">
<path d="M627.436 235.652C608.267 199.482 584.63 166.269 557.316 136.967C527.842 105.349 497.796 83.9736 459.035 70.1406C432.793 60.7746 405.419 55.4156 377.922 54.4196C326.79 52.5676 284.614 65.6126 242.608 98.5246C197.575 133.81 155.564 173.74 111.679 210.796C107.099 214.664 102.5 218.504 97.8772 222.306C21.3402 285.254 -15.8354 397.07 35.9189 424.403H631.452C631.452 424.403 685.622 421.335 672.271 358.968C662.927 315.314 647.671 273.835 627.436 235.652Z" fill="#8468F5" fill-opacity="0.8"/>
<path d="M627.436 235.652C608.267 199.482 584.63 166.269 557.316 136.967C527.842 105.349 497.796 83.9736 459.035 70.1406C432.793 60.7746 405.419 55.4156 377.922 54.4196C326.79 52.5676 284.614 65.6126 242.608 98.5246C197.575 133.81 155.564 173.74 111.679 210.796C107.099 214.664 102.5 218.504 97.8772 222.306C21.3402 285.254 -15.8354 397.07 35.9189 424.403H631.452C631.452 424.403 685.622 421.335 672.271 358.968C662.927 315.314 647.671 273.835 627.436 235.652Z" fill="url(#paint0_radial_542_19589)" fill-opacity="0.7"/>
<path d="M627.436 235.652C608.267 199.482 584.63 166.269 557.316 136.967C527.842 105.349 497.796 83.9736 459.035 70.1406C432.793 60.7746 405.419 55.4156 377.922 54.4196C326.79 52.5676 284.614 65.6126 242.608 98.5246C197.575 133.81 155.564 173.74 111.679 210.796C107.099 214.664 102.5 218.504 97.8772 222.306C21.3402 285.254 -15.8354 397.07 35.9189 424.403H631.452C631.452 424.403 685.622 421.335 672.271 358.968C662.927 315.314 647.671 273.835 627.436 235.652Z" fill="url(#paint1_linear_542_19589)"/>
<path opacity="0.7" d="M627.436 235.652C608.267 199.482 584.63 166.269 557.316 136.967C527.842 105.349 497.796 83.9736 459.035 70.1406C432.793 60.7746 405.419 55.4156 377.922 54.4196C326.79 52.5676 284.614 65.6126 242.608 98.5246C197.575 133.81 155.564 173.74 111.679 210.796C107.099 214.664 102.5 218.504 97.8772 222.306C21.3402 285.254 -15.8354 397.07 35.9189 424.403H631.452C631.452 424.403 685.622 421.335 672.271 358.968C662.927 315.314 647.671 273.835 627.436 235.652Z" fill="white"/>
</g>
<path d="M42.7473 354.695C44.782 355.647 49.7595 355.527 49.7641 355.527C49.8155 355.526 48.6945 352.036 48.6003 351.824C47.5083 349.376 44.0549 345.334 41.2437 345.741C39.2193 346.034 38.0937 348.205 38.5501 350.247C39.0177 352.334 41.0141 353.883 42.7473 354.695Z" fill="#263238"/>
<path d="M44.4664 370.142C46.5776 370.472 51.0193 369.092 51.3731 368.98C52.0749 371.645 52.9961 374.318 54.0676 376.967C54.678 378.483 55.3379 379.989 56.0164 381.49C55.6113 380.854 55.2445 380.289 55.1857 380.215C53.5281 378.163 49.2012 375.242 46.5916 376.43C44.7109 377.285 44.1603 379.697 45.1048 381.538C46.0689 383.418 48.378 384.348 50.2493 384.64C52.1487 384.937 55.9576 383.841 56.9628 383.537C57.2288 384.11 57.4883 384.685 57.7571 385.257C59.0432 388.001 60.3378 390.734 61.5315 393.456C61.9524 394.415 62.3341 395.376 62.7196 396.336C62.3593 395.771 62.0514 395.299 61.9972 395.232C60.3406 393.181 56.0136 390.259 53.4031 391.447C51.5224 392.302 50.9717 394.715 51.9163 396.555C52.8813 398.435 55.1895 399.364 57.0608 399.656C58.8733 399.939 62.3976 398.962 63.5923 398.607C63.9591 399.603 64.3278 400.6 64.6414 401.583C64.8411 402.259 65.0781 402.895 65.2424 403.586C65.4197 404.267 65.5952 404.941 65.7688 405.608C66.06 406.906 66.3671 408.243 66.6209 409.517C66.8039 410.402 66.9625 411.248 67.1249 412.101C66.7161 411.141 65.8789 409.28 65.7931 409.133C64.4463 406.836 60.5823 403.247 57.8336 403.997C55.854 404.538 54.9683 406.832 55.6421 408.805C56.3291 410.819 58.4795 412.113 60.2883 412.705C62.28 413.357 66.6891 412.761 67.2388 412.683C67.5029 414.094 67.7475 415.47 67.9584 416.772C68.4316 419.645 68.7881 422.221 69.0588 424.401H70.918C70.5941 422.146 70.1704 419.459 69.6095 416.442C69.3472 415.008 69.0392 413.48 68.7097 411.915C69.0411 411.774 70.9217 410.959 72.5877 409.961C74.0391 411.645 77.7584 413.616 78.24 413.867C77.7341 415.201 77.2292 416.492 76.7355 417.703C75.7069 420.239 74.7307 422.488 73.8683 424.401H75.8787C76.6197 422.638 77.4345 420.629 78.2839 418.404C78.8028 417.052 79.3329 415.596 79.864 414.097C80.3979 414.216 84.7621 415.166 86.7959 414.674C88.6401 414.227 90.8745 413.109 91.7015 411.155C92.5097 409.242 91.7864 406.883 89.8488 406.186C87.1617 405.218 83.0579 408.489 81.5543 410.673C81.4647 410.802 80.6489 412.314 80.1487 413.277C80.3624 412.663 80.5761 412.069 80.7889 411.434C81.2183 410.181 81.6121 408.917 82.0396 407.559C82.2253 406.895 82.412 406.225 82.6015 405.548C82.8021 404.881 82.9347 404.149 83.1064 403.444C83.4723 401.799 83.7672 400.114 84.0304 398.409C85.0552 398.809 88.7139 400.172 90.6095 400.029C92.4967 399.887 94.8627 399.145 95.9547 397.347C97.0243 395.588 96.6425 393.138 94.8272 392.134C92.3063 390.741 87.788 393.309 85.9932 395.223C85.8812 395.342 84.7379 396.871 84.1247 397.723C84.2749 396.697 84.4299 395.673 84.5503 394.629C84.8993 391.617 85.1644 388.555 85.4425 385.503C85.5265 384.568 85.6217 383.637 85.7132 382.705C86.0763 382.851 90.392 384.573 92.5153 384.413C94.4016 384.271 96.7685 383.528 97.8615 381.731C98.9311 379.972 98.5493 377.522 96.734 376.519C94.214 375.126 89.6957 377.693 87.9009 379.607C87.7656 379.751 86.1229 381.953 85.73 382.535C85.9325 380.482 86.1519 378.439 86.4449 376.434C86.8444 373.667 87.3811 370.976 88.0792 368.41C88.2481 368.479 92.7449 370.297 94.9196 370.134C96.8068 369.992 99.1738 369.249 100.266 367.452C101.335 365.692 100.954 363.243 99.1383 362.239C96.6174 360.846 92.1 363.414 90.3043 365.328C90.1643 365.478 88.3975 367.848 88.1053 368.302C88.1473 368.15 88.1753 367.987 88.2183 367.835C88.9967 365.106 90.0709 362.567 91.1853 360.242C91.8303 358.89 92.5181 357.636 93.2116 356.432C94.0171 356.863 97.7168 358.788 99.6889 358.872C101.579 358.953 104.007 358.493 105.278 356.835C106.522 355.212 106.393 352.732 104.692 351.521C102.328 349.84 97.5749 351.861 95.5953 353.552C95.488 353.644 94.4893 354.709 93.7735 355.495C94.0945 354.957 94.4156 354.395 94.7329 353.886C95.9192 351.972 97.1157 350.298 98.1863 348.823C98.8013 347.991 99.3726 347.251 99.9148 346.564C100.911 346.546 104.923 346.415 106.678 345.532C108.389 344.67 110.348 343.064 110.761 340.965C111.166 338.91 109.985 336.772 107.955 336.538C105.135 336.212 101.784 340.352 100.754 342.831C100.665 343.046 99.632 346.567 99.6843 346.566C99.6843 346.566 99.7328 346.566 99.7449 346.565C99.2111 347.214 98.6464 347.917 98.0425 348.698C96.9393 350.15 95.7055 351.801 94.4763 353.695C93.2424 355.584 91.9525 357.674 90.7784 360.007C89.5987 362.344 88.4693 364.866 87.62 367.626C87.6097 367.657 87.6041 367.691 87.5939 367.722C87.6088 366.832 87.5724 364.342 87.5491 364.152C87.2233 361.461 85.1196 356.467 82.3299 355.914C80.3213 355.517 78.6199 357.203 78.4593 359.296C78.296 361.434 79.7427 363.573 81.1539 364.924C82.7443 366.446 87.1608 367.921 87.5117 368.037C86.7249 370.673 86.1173 373.447 85.646 376.291C85.3753 377.917 85.1495 379.563 84.9432 381.216C84.9329 380.446 84.918 379.758 84.9059 379.662C84.5801 376.971 82.4755 371.978 79.6867 371.425C77.6772 371.027 75.9767 372.714 75.8161 374.807C75.6528 376.945 77.0995 379.084 78.5097 380.434C79.9415 381.804 83.6823 383.142 84.6763 383.482C84.6035 384.117 84.5241 384.751 84.4532 385.387C84.1125 388.436 83.7859 391.481 83.3799 394.456C83.238 395.505 83.0607 396.532 82.888 397.56C82.8777 396.876 82.8637 396.301 82.8535 396.213C82.5277 393.522 80.4231 388.528 77.6352 387.976C75.6257 387.579 73.9243 389.264 73.7637 391.358C73.6004 393.495 75.048 395.635 76.4583 396.985C77.8237 398.292 81.2668 399.561 82.4465 399.971C82.2393 401.018 82.034 402.068 81.7895 403.073C81.6075 403.755 81.4777 404.425 81.2593 405.1C81.0568 405.772 80.8561 406.438 80.6583 407.097C80.2317 408.352 79.7996 409.649 79.3553 410.862C79.052 411.708 78.7487 412.508 78.4453 413.315C78.5984 412.273 78.8588 410.226 78.8625 410.053C78.9008 408.251 78.3044 405.321 77.1153 403.261C77.1228 402.995 77.1088 402.73 77.0696 402.466C76.7588 400.393 74.9407 398.852 72.9657 399.416C70.2255 400.197 68.4876 405.351 68.3579 408.061C68.3504 408.221 68.4475 409.965 68.5259 411.065C68.3877 410.426 68.2608 409.805 68.1115 409.149C67.824 407.85 67.5011 406.564 67.1595 405.177C66.9728 404.514 66.7833 403.845 66.592 403.168C66.4165 402.493 66.1496 401.805 65.9293 401.115C65.3871 399.528 64.7664 397.946 64.1075 396.369C65.1687 396.097 68.9225 395.071 70.4289 393.832C71.9297 392.599 73.5211 390.58 73.5071 388.436C73.4931 386.335 71.9139 384.518 69.8829 384.754C67.0633 385.082 64.6171 389.894 64.1047 392.551C64.0729 392.717 63.9059 394.668 63.8331 395.741C63.4299 394.796 63.0323 393.851 62.5955 392.909C61.3355 390.19 59.9821 387.48 58.6419 384.77C58.2312 383.94 57.8308 383.108 57.4267 382.277C57.8056 382.184 62.2912 381.069 63.9806 379.681C65.4804 378.448 67.0727 376.429 67.0587 374.284C67.0447 372.184 65.4655 370.366 63.4345 370.603C60.6149 370.931 58.1687 375.743 57.6563 378.4C57.618 378.6 57.3809 381.407 57.3539 382.124C56.4663 380.293 55.5973 378.459 54.8087 376.614C53.7185 374.07 52.7787 371.509 52.0404 368.956C52.2168 368.913 56.904 367.771 58.6335 366.35C60.1343 365.116 61.7256 363.098 61.7116 360.953C61.6976 358.853 60.1184 357.036 58.0875 357.272C55.2679 357.6 52.8216 362.412 52.3101 365.069C52.27 365.278 52.0171 368.298 52.0077 368.849C51.9639 368.697 51.9032 368.545 51.8612 368.393C51.1052 365.656 50.6936 362.904 50.4267 360.306C50.2689 358.797 50.1961 357.346 50.1551 355.932C51.0483 355.815 55.1251 355.234 56.8135 354.139C58.4319 353.089 60.2201 351.271 60.4264 349.137C60.6271 347.048 59.2439 345.055 57.2008 345.051C54.3644 345.045 51.4393 349.541 50.6591 352.121C50.6161 352.262 50.3324 353.739 50.1392 354.819C50.1299 354.181 50.1093 353.522 50.1112 352.91C50.1149 350.612 50.2503 348.508 50.3847 346.646C50.4687 345.588 50.5648 344.632 50.6637 343.74C51.4841 343.135 54.7639 340.655 55.7728 338.882C56.7575 337.152 57.562 334.655 56.8275 332.659C56.1079 330.706 54.0228 329.621 52.2084 330.625C49.6893 332.02 49.0267 337.454 49.4429 340.13C49.4793 340.361 50.4304 343.909 50.4733 343.878C50.4733 343.878 50.5135 343.848 50.5228 343.841C50.4117 344.698 50.3025 345.618 50.2017 346.626C50.0291 348.489 49.8499 350.595 49.7995 352.901C49.7435 355.206 49.7425 357.712 49.9647 360.351C50.184 362.996 50.5405 365.768 51.2527 368.573C51.2611 368.605 51.2732 368.637 51.2816 368.668C50.8355 367.917 49.5223 365.862 49.4047 365.717C47.748 363.665 43.4211 360.744 40.8105 361.931C38.9308 362.787 38.3792 365.199 39.3237 367.04C40.2869 368.921 42.5951 369.85 44.4664 370.142Z" fill="#263238"/>
<path d="M93.0933 355.868C93.1372 355.897 93.9987 352.323 94.0295 352.091C94.3785 349.404 93.5787 343.992 91.0251 342.67C89.1864 341.718 87.1293 342.863 86.4592 344.837C85.7741 346.852 86.6421 349.325 87.6707 351.026C88.8756 353.024 93.0896 355.865 93.0933 355.868Z" fill="#263238"/>
<path d="M622.825 354.695C624.859 355.647 629.837 355.527 629.841 355.527C629.893 355.526 628.772 352.036 628.677 351.824C627.585 349.376 624.131 345.334 621.322 345.741C619.297 346.034 618.172 348.205 618.628 350.247C619.094 352.334 621.091 353.883 622.825 354.695Z" fill="#263238"/>
<path d="M624.543 370.142C626.654 370.472 631.096 369.092 631.45 368.98C632.151 371.645 633.073 374.318 634.144 376.967C634.754 378.483 635.414 379.989 636.093 381.49C635.688 380.854 635.321 380.289 635.262 380.215C633.605 378.163 629.278 375.242 626.668 376.43C624.786 377.285 624.237 379.697 625.18 381.538C626.144 383.418 628.454 384.348 630.325 384.64C632.224 384.937 636.033 383.841 637.038 383.537C637.304 384.11 637.564 384.685 637.833 385.257C639.119 388.001 640.413 390.734 641.607 393.456C642.028 394.415 642.41 395.376 642.795 396.336C642.435 395.771 642.127 395.299 642.073 395.232C640.416 393.181 636.089 390.259 633.479 391.447C631.598 392.302 631.047 394.715 631.991 396.555C632.956 398.435 635.264 399.364 637.135 399.656C638.948 399.939 642.472 398.962 643.668 398.607C644.035 399.603 644.403 400.6 644.717 401.583C644.917 402.259 645.154 402.895 645.318 403.586C645.495 404.267 645.671 404.941 645.844 405.608C646.136 406.906 646.443 408.243 646.696 409.517C646.879 410.402 647.038 411.248 647.2 412.101C646.792 411.141 645.954 409.28 645.869 409.133C644.522 406.836 640.658 403.247 637.909 403.997C635.93 404.538 635.044 406.832 635.718 408.805C636.405 410.819 638.555 412.113 640.364 412.705C642.356 413.357 646.765 412.761 647.314 412.683C647.578 414.094 647.823 415.47 648.034 416.772C648.507 419.645 648.864 422.221 649.134 424.401H650.994C650.67 422.146 650.246 419.459 649.686 416.442C649.424 415.008 649.116 413.48 648.785 411.915C649.117 411.774 650.997 410.959 652.663 409.961C654.115 411.645 657.834 413.616 658.316 413.867C657.81 415.201 657.305 416.492 656.811 417.703C655.782 420.239 654.806 422.488 653.944 424.401H655.954C656.695 422.638 657.51 420.629 658.359 418.404C658.878 417.052 659.409 415.596 659.94 414.097C660.473 414.216 664.838 415.166 666.871 414.674C668.716 414.227 670.95 413.109 671.777 411.155C672.585 409.242 671.862 406.883 669.924 406.186C667.237 405.218 663.133 408.489 661.63 410.673C661.54 410.802 660.724 412.314 660.224 413.277C660.438 412.663 660.652 412.069 660.864 411.434C661.294 410.181 661.688 408.917 662.115 407.559C662.301 406.895 662.488 406.225 662.677 405.548C662.878 404.881 663.01 404.149 663.182 403.444C663.548 401.799 663.843 400.114 664.106 398.409C665.131 398.809 668.789 400.172 670.685 400.029C672.572 399.887 674.938 399.145 676.03 397.347C677.1 395.588 676.718 393.138 674.903 392.134C672.382 390.741 667.864 393.309 666.069 395.223C665.957 395.342 664.813 396.871 664.2 397.723C664.35 396.697 664.505 395.673 664.626 394.629C664.975 391.617 665.241 388.555 665.518 385.503C665.603 384.568 665.697 383.637 665.789 382.705C666.153 382.851 670.468 384.573 672.591 384.413C674.477 384.271 676.844 383.528 677.937 381.731C679.007 379.972 678.625 377.522 676.81 376.519C674.29 375.126 669.771 377.693 667.976 379.607C667.841 379.751 666.198 381.953 665.806 382.535C666.009 380.482 666.228 378.439 666.521 376.434C666.921 373.667 667.458 370.976 668.156 368.41C668.325 368.479 672.821 370.297 674.996 370.134C676.883 369.992 679.25 369.249 680.342 367.452C681.412 365.692 681.03 363.243 679.215 362.239C676.694 360.846 672.176 363.414 670.381 365.328C670.241 365.478 668.474 367.848 668.182 368.302C668.224 368.15 668.252 367.987 668.295 367.835C669.073 365.106 670.147 362.567 671.262 360.242C671.907 358.89 672.594 357.636 673.288 356.432C674.094 356.863 677.793 358.788 679.765 358.872C681.655 358.953 684.084 358.493 685.353 356.835C686.597 355.212 686.469 352.732 684.767 351.521C682.405 349.84 677.65 351.861 675.671 353.552C675.564 353.644 674.565 354.709 673.849 355.495C674.17 354.957 674.491 354.395 674.808 353.886C675.995 351.972 677.191 350.298 678.262 348.823C678.877 347.991 679.448 347.251 679.99 346.564C680.986 346.546 684.999 346.415 686.753 345.532C688.465 344.67 690.423 343.064 690.838 340.965C691.243 338.91 690.062 336.772 688.032 336.538C685.212 336.212 681.862 340.352 680.831 342.831C680.743 343.046 679.709 346.567 679.761 346.566C679.761 346.566 679.809 346.566 679.821 346.565C679.288 347.214 678.723 347.917 678.12 348.698C677.017 350.15 675.783 351.801 674.554 353.695C673.32 355.584 672.03 357.674 670.856 360.007C669.676 362.344 668.547 364.866 667.697 367.626C667.687 367.657 667.682 367.691 667.671 367.722C667.686 366.832 667.65 364.342 667.626 364.152C667.301 361.461 665.197 356.467 662.407 355.914C660.398 355.517 658.697 357.203 658.537 359.296C658.373 361.434 659.82 363.573 661.231 364.924C662.822 366.446 667.238 367.921 667.589 368.037C666.802 370.673 666.195 373.447 665.723 376.291C665.453 377.917 665.227 379.563 665.021 381.216C665.01 380.446 664.995 379.758 664.983 379.662C664.658 376.971 662.553 371.978 659.764 371.425C657.755 371.027 656.054 372.714 655.894 374.807C655.73 376.945 657.177 379.084 658.587 380.434C660.019 381.804 663.76 383.142 664.754 383.482C664.681 384.117 664.601 384.751 664.531 385.387C664.19 388.436 663.863 391.481 663.457 394.456C663.315 395.505 663.138 396.532 662.965 397.56C662.955 396.876 662.941 396.301 662.931 396.213C662.605 393.522 660.5 388.528 657.713 387.976C655.703 387.579 654.002 389.264 653.841 391.358C653.678 393.495 655.124 395.635 656.536 396.985C657.901 398.292 661.344 399.561 662.524 399.971C662.318 401.018 662.111 402.068 661.867 403.073C661.685 403.755 661.554 404.425 661.337 405.1C661.134 405.772 660.934 406.438 660.736 407.097C660.309 408.352 659.877 409.649 659.433 410.862C659.129 411.708 658.826 412.508 658.523 413.315C658.676 412.273 658.936 410.226 658.94 410.053C658.978 408.251 658.382 405.321 657.193 403.261C657.2 402.995 657.186 402.73 657.147 402.466C656.836 400.393 655.018 398.852 653.043 399.416C650.303 400.197 648.565 405.351 648.435 408.061C648.428 408.221 648.525 409.965 648.603 411.065C648.465 410.426 648.338 409.805 648.189 409.149C647.901 407.85 647.578 406.564 647.237 405.177C647.05 404.514 646.861 403.845 646.669 403.168C646.493 402.493 646.227 401.805 646.007 401.115C645.464 399.528 644.844 397.946 644.185 396.369C645.246 396.097 649 395.071 650.506 393.832C652.007 392.599 653.598 390.58 653.584 388.436C653.57 386.335 651.991 384.518 649.96 384.754C647.141 385.082 644.694 389.894 644.182 392.551C644.15 392.717 643.983 394.668 643.91 395.741C643.507 394.796 643.11 393.851 642.673 392.909C641.413 390.19 640.059 387.48 638.718 384.77C638.308 383.94 637.907 383.108 637.504 382.277C637.883 382.184 642.369 381.069 644.057 379.681C645.558 378.448 647.149 376.429 647.135 374.284C647.121 372.184 645.542 370.366 643.511 370.603C640.691 370.931 638.245 375.743 637.734 378.4C637.695 378.6 637.458 381.407 637.431 382.124C636.544 380.293 635.675 378.459 634.886 376.614C633.795 374.07 632.856 371.509 632.118 368.956C632.294 368.913 636.981 367.771 638.711 366.35C640.212 365.116 641.803 363.098 641.788 360.953C641.775 358.853 640.195 357.036 638.164 357.272C635.344 357.6 632.898 362.412 632.387 365.069C632.346 365.278 632.094 368.298 632.084 368.849C632.04 368.697 631.98 368.545 631.938 368.393C631.182 365.656 630.77 362.904 630.503 360.306C630.345 358.797 630.273 357.346 630.232 355.932C631.125 355.815 635.202 355.234 636.89 354.139C638.508 353.089 640.297 351.271 640.503 349.137C640.704 347.048 639.32 345.055 637.277 345.051C634.442 345.045 631.516 349.541 630.736 352.121C630.693 352.262 630.409 353.739 630.216 354.819C630.206 354.181 630.186 353.522 630.188 352.91C630.191 350.612 630.327 348.508 630.461 346.646C630.545 345.588 630.641 344.632 630.74 343.74C631.561 343.135 634.84 340.655 635.849 338.882C636.834 337.152 637.638 334.655 636.904 332.659C636.184 330.706 634.099 329.621 632.285 330.625C629.766 332.02 629.103 337.454 629.519 340.13C629.556 340.361 630.507 343.909 630.551 343.878C630.551 343.878 630.591 343.848 630.6 343.841C630.489 344.698 630.38 345.618 630.28 346.626C630.107 348.489 629.928 350.595 629.878 352.901C629.822 355.206 629.821 357.712 630.043 360.351C630.262 362.996 630.619 365.768 631.331 368.573C631.339 368.605 631.351 368.637 631.36 368.668C630.914 367.917 629.601 365.862 629.483 365.717C627.826 363.665 623.499 360.744 620.889 361.931C619.008 362.787 618.458 365.199 619.402 367.04C620.363 368.921 622.672 369.85 624.543 370.142Z" fill="#263238"/>
<path d="M673.172 355.868C673.215 355.897 674.077 352.323 674.108 352.091C674.457 349.404 673.657 343.992 671.103 342.67C669.264 341.718 667.207 342.863 666.537 344.837C665.852 346.852 666.72 349.325 667.748 351.026C668.955 353.024 673.169 355.865 673.172 355.868Z" fill="#263238"/>
<path d="M35.5352 424.402H691.455" stroke="#263238" stroke-miterlimit="10" stroke-linecap="round" stroke-linejoin="round"/>
<path d="M531.447 128.571C531.051 128.794 520.238 142.34 518.326 167.253C517.743 167.55 535.662 158.533 531.447 128.571Z" stroke="#263238" stroke-miterlimit="10" stroke-linecap="round" stroke-linejoin="round"/>
<path d="M509.447 112.688C509.586 113.43 507.66 132.929 517.461 153.575C517.537 154.449 526.129 131.698 509.447 112.688Z" stroke="#263238" stroke-miterlimit="10" stroke-linecap="round" stroke-linejoin="round"/>
<path d="M499.484 137.395C499.827 137.763 502.121 155.832 517.178 168.359C517.672 168.803 517.987 144.085 499.484 137.395Z" stroke="#263238" stroke-miterlimit="10" stroke-linecap="round" stroke-linejoin="round"/>
<path d="M536.103 154.533C535.675 154.695 522.799 165.832 516.913 190.223C516.305 190.44 535.367 184.622 536.103 154.533Z" stroke="#263238" stroke-miterlimit="10" stroke-linecap="round" stroke-linejoin="round"/>
<path d="M499.352 158.03C499.644 158.345 499.793 176.119 513.537 189.894C513.982 190.297 516.881 166.347 499.352 158.03Z" stroke="#263238" stroke-miterlimit="10" stroke-linecap="round" stroke-linejoin="round"/>
<path d="M534.522 183.808C534.07 183.895 519.452 191.987 509.358 214.794C508.733 214.914 528.452 212.937 534.522 183.808Z" stroke="#263238" stroke-miterlimit="10" stroke-linecap="round" stroke-linejoin="round"/>
<path d="M497.833 179.653C498.058 180.001 495.051 197.415 506.103 213.786C506.472 214.25 513.55 191.327 497.833 179.653Z" stroke="#263238" stroke-miterlimit="10" stroke-linecap="round" stroke-linejoin="round"/>
<path d="M527.783 212.07C527.311 212.073 511.582 216.981 497.543 237.523C496.902 237.536 516.684 239.443 527.783 212.07Z" stroke="#263238" stroke-miterlimit="10" stroke-linecap="round" stroke-linejoin="round"/>
<path d="M492.505 200.522C492.667 200.895 486.622 217.458 494.519 235.876C494.816 236.394 505.876 215.175 492.505 200.522Z" stroke="#263238" stroke-miterlimit="10" stroke-linecap="round" stroke-linejoin="round"/>
<path d="M516.145 238.526C515.656 238.437 499.413 240.099 481.692 257.682C481.042 257.58 500.329 263.338 516.145 238.526Z" stroke="#263238" stroke-miterlimit="10" stroke-linecap="round" stroke-linejoin="round"/>
<path d="M483.542 220.039C483.644 220.432 474.689 235.635 479.012 255.453C479.239 256.019 494.08 237.196 483.542 220.039Z" stroke="#263238" stroke-miterlimit="10" stroke-linecap="round" stroke-linejoin="round"/>
<path d="M499.884 262.363C499.382 262.174 483.191 260.601 462.056 274.525C461.4 274.298 479.664 283.798 499.884 262.363Z" stroke="#263238" stroke-miterlimit="10" stroke-linecap="round" stroke-linejoin="round"/>
<path d="M471.131 237.588C471.175 237.993 459.446 251.312 459.817 271.788C459.978 272.397 478.389 256.679 471.131 237.588Z" stroke="#263238" stroke-miterlimit="10" stroke-linecap="round" stroke-linejoin="round"/>
<path d="M479.279 282.75C478.766 282.453 463.158 277.733 438.882 287.285C438.224 286.926 454.974 299.982 479.279 282.75Z" stroke="#263238" stroke-miterlimit="10" stroke-linecap="round" stroke-linejoin="round"/>
<path d="M455.461 252.538C455.45 252.949 441.088 263.841 437.176 284.135C437.271 284.779 459.034 272.894 455.461 252.538Z" stroke="#263238" stroke-miterlimit="10" stroke-linecap="round" stroke-linejoin="round"/>
<path d="M188.771 128.571C189.168 128.794 199.982 142.34 201.892 167.253C202.476 167.55 184.557 158.533 188.771 128.571Z" stroke="#263238" stroke-miterlimit="10" stroke-linecap="round" stroke-linejoin="round"/>
<path d="M210.77 112.688C210.631 113.43 212.557 132.929 202.755 153.575C202.68 154.449 194.088 131.698 210.77 112.688Z" stroke="#263238" stroke-miterlimit="10" stroke-linecap="round" stroke-linejoin="round"/>
<path d="M220.732 137.395C220.389 137.763 218.095 155.832 203.039 168.359C202.543 168.803 202.229 144.085 220.732 137.395Z" stroke="#263238" stroke-miterlimit="10" stroke-linecap="round" stroke-linejoin="round"/>
<path d="M184.113 154.533C184.541 154.695 197.417 165.832 203.304 190.223C203.911 190.44 184.849 184.622 184.113 154.533Z" stroke="#263238" stroke-miterlimit="10" stroke-linecap="round" stroke-linejoin="round"/>
<path d="M220.865 158.03C220.573 158.345 220.423 176.119 206.679 189.894C206.235 190.297 203.335 166.347 220.865 158.03Z" stroke="#263238" stroke-miterlimit="10" stroke-linecap="round" stroke-linejoin="round"/>
<path d="M185.691 183.808C186.143 183.895 200.761 191.987 210.855 214.794C211.481 214.914 191.762 212.937 185.691 183.808Z" stroke="#263238" stroke-miterlimit="10" stroke-linecap="round" stroke-linejoin="round"/>
<path d="M222.383 179.653C222.158 180.001 225.165 197.415 214.113 213.786C213.744 214.25 206.666 191.327 222.383 179.653Z" stroke="#263238" stroke-miterlimit="10" stroke-linecap="round" stroke-linejoin="round"/>
<path d="M192.434 212.07C192.906 212.073 208.635 216.981 222.675 237.523C223.315 237.536 203.533 239.443 192.434 212.07Z" stroke="#263238" stroke-miterlimit="10" stroke-linecap="round" stroke-linejoin="round"/>
<path d="M227.709 200.522C227.547 200.895 233.592 217.458 225.695 235.876C225.398 236.394 214.337 215.175 227.709 200.522Z" stroke="#263238" stroke-miterlimit="10" stroke-linecap="round" stroke-linejoin="round"/>
<path d="M204.07 238.526C204.559 238.437 220.802 240.099 238.523 257.682C239.174 257.58 219.888 263.338 204.07 238.526Z" stroke="#263238" stroke-miterlimit="10" stroke-linecap="round" stroke-linejoin="round"/>
<path d="M236.674 220.039C236.573 220.432 245.527 235.635 241.205 255.453C240.978 256.019 226.136 237.196 236.674 220.039Z" stroke="#263238" stroke-miterlimit="10" stroke-linecap="round" stroke-linejoin="round"/>
<path d="M220.332 262.363C220.834 262.174 237.025 260.601 258.16 274.525C258.816 274.298 240.553 283.798 220.332 262.363Z" stroke="#263238" stroke-miterlimit="10" stroke-linecap="round" stroke-linejoin="round"/>
<path d="M249.084 237.588C249.04 237.993 260.769 251.312 260.398 271.788C260.237 272.397 241.826 256.679 249.084 237.588Z" stroke="#263238" stroke-miterlimit="10" stroke-linecap="round" stroke-linejoin="round"/>
<path d="M240.938 282.75C241.45 282.453 257.058 277.733 281.334 287.285C281.992 286.926 265.242 299.982 240.938 282.75Z" stroke="#263238" stroke-miterlimit="10" stroke-linecap="round" stroke-linejoin="round"/>
<path d="M264.756 252.538C264.767 252.949 279.128 263.841 283.041 284.135C282.945 284.779 261.183 272.894 264.756 252.538Z" stroke="#263238" stroke-miterlimit="10" stroke-linecap="round" stroke-linejoin="round"/>
<path d="M477.998 175.483L445.71 84.6346H456.2C458.894 84.6346 461.017 82.0056 460.453 79.0106C460.042 76.8326 458.16 75.3256 456.087 75.3256H431.349C430.622 75.3256 429.946 75.5356 429.344 75.8746L380.279 60.2686C379.371 58.0416 377.301 56.4816 374.888 56.4816L368.523 55.1656V52.7716C368.523 49.1336 365.77 46.1846 362.375 46.1846C358.979 46.1846 356.227 49.1336 356.227 52.7716V55.0216L349.164 56.4826C346.485 56.4826 344.248 58.4136 343.537 61.0386L296.889 75.8766C296.287 75.5376 295.611 75.3276 294.884 75.3276H270.146C268.073 75.3276 266.19 76.8346 265.78 79.0126C265.216 82.0076 267.339 84.6366 270.033 84.6366H279.781V85.6496L247.905 175.339H246.646C246.451 175.339 246.277 175.468 246.209 175.664C246.141 175.859 246.193 176.079 246.34 176.216L254.137 183.497C254.222 183.576 254.331 183.62 254.444 183.62C254.444 183.62 306.648 183.576 306.733 183.497C306.733 183.497 318.153 175.881 318.255 175.637C318.357 175.393 315.185 175.732 315.096 175.484L282.808 84.6356H294.885C296.511 84.6356 297.912 83.6666 298.657 82.2496L345.22 67.4386C346.265 68.4576 347.641 69.0946 349.165 69.0946L356.228 67.6816V72.5316H360.387V248.455H354.82V256.124H312.608V262.764H412.144V256.124H369.931V248.455H364.364V72.5306H368.523V67.7306L374.888 69.0926C376.665 69.0926 378.239 68.2316 379.317 66.8976L427.576 82.2486C428.321 83.6656 429.722 84.6346 431.348 84.6346H442.684V85.6476L410.808 175.337H409.549C409.355 175.337 409.18 175.466 409.112 175.662C409.044 175.857 409.096 176.077 409.243 176.214L417.04 183.495C417.125 183.574 417.234 183.618 417.347 183.618C417.347 183.618 469.551 183.574 469.636 183.495C469.636 183.495 481.056 175.879 481.158 175.635C481.259 175.392 478.087 175.732 477.998 175.483ZM279.782 175.339H249.902L279.782 91.2646V175.339ZM282.112 175.339V88.2926L313.049 175.339H282.112ZM362.462 60.8286C361.258 60.8286 360.282 59.7826 360.282 58.4926C360.282 57.2026 361.258 56.1566 362.462 56.1566C363.666 56.1566 364.643 57.2026 364.643 58.4926C364.643 59.7826 363.666 60.8286 362.462 60.8286ZM442.684 175.339H412.804L442.684 91.2646V175.339ZM445.014 175.339V88.2926L475.951 175.339H445.014Z" stroke="#263238" stroke-miterlimit="10" stroke-linecap="round" stroke-linejoin="round"/>
<path d="M296.42 291.799C296.42 291.799 294.444 315.805 294.442 317.239C294.441 318.673 268.498 384.973 266.484 391.03C264.47 397.087 260.443 408.961 261.777 414.167C263.111 419.372 270.467 424.334 274.705 425.837C278.942 427.34 287.419 427.237 288.981 426.935C290.542 426.633 298.797 426.779 298.797 426.779L306.848 406.137L299.712 402.361L310.453 369.181L306.029 329.208L296.42 291.799Z" fill="#263238" stroke="#263238" stroke-miterlimit="10" stroke-linecap="round" stroke-linejoin="round"/>
<path d="M299.713 402.361C299.713 402.361 282.99 394.191 274.289 394.541" stroke="#EDDFD4" stroke-miterlimit="10" stroke-linecap="round" stroke-linejoin="round"/>
<path d="M313.957 396.214L311.822 424.397H426.963C422.886 398.843 422.886 378.799 422.886 378.799C422.886 378.799 428.666 328.994 428.672 323.088C428.677 317.182 433.103 300.173 432.004 297.264C430.904 294.355 406.66 286.474 396.192 282.466C385.724 278.458 370.845 274.924 370.845 274.924L343.559 278.09C343.559 278.09 311.585 284.398 304.694 285.561C297.804 286.724 296.975 288.53 296.42 291.8C295.866 295.071 306.029 329.209 306.029 329.209L313.957 396.214Z" fill="#263238" stroke="#263238" stroke-miterlimit="10" stroke-linecap="round" stroke-linejoin="round"/>
<path d="M339.996 295.893C339.996 295.893 342.127 311.442 344.904 324.205C347.68 336.969 355.387 355.971 355.387 355.971C355.387 355.971 374.087 323.489 376.891 308.431C379.694 293.373 380.558 288.74 380.558 288.74L340.217 288.296L339.996 295.893Z" fill="#FAFAFA" stroke="#263238" stroke-miterlimit="10" stroke-linecap="round" stroke-linejoin="round"/>
<path d="M344.313 268.128C344.313 268.128 340.441 278.4 338.506 282.387C336.571 286.374 325.396 303.378 326.038 304.731C326.68 306.085 332.262 304.25 333.764 303.5C335.267 302.75 342.136 299.944 342.136 299.944C342.136 299.944 340.631 303.453 341.274 304.577C341.917 305.701 352.207 315.863 352.207 315.863L360.361 315.994C360.361 315.994 361.65 314.333 363.153 312.893C364.657 311.453 374.749 304.609 377.326 302.666C379.903 300.723 380.122 295.656 380.122 295.656C380.122 295.656 393.418 303.397 394.065 300.612C394.712 297.827 391.281 294.516 387.858 284.998C384.433 275.479 383.152 269.323 380.367 264.837C377.582 260.351 376.508 260.164 376.508 260.164L344.313 268.128Z" fill="#FAFAFA" stroke="#263238" stroke-miterlimit="10" stroke-linecap="round" stroke-linejoin="round"/>
<path d="M347.098 273.994C347.098 273.994 347.931 299.251 348.142 303.611C348.352 307.971 356.702 327.638 358.206 325.048C359.711 322.458 369.386 302.985 372.398 295.737C375.408 288.488 376.496 273.96 376.928 270.953C377.36 267.947 377.802 254.364 377.802 254.364C377.802 254.364 366.627 272.518 362.118 275.229C357.609 277.939 347.098 273.994 347.098 273.994Z" fill="#EDDFD4" stroke="#263238" stroke-miterlimit="10" stroke-linecap="round" stroke-linejoin="round"/>
<path d="M361.127 280.741L347.651 289.626L347.098 273.994L361.127 280.741Z" fill="#263238" stroke="#263238" stroke-miterlimit="10" stroke-linecap="round" stroke-linejoin="round"/>
<path d="M306.849 406.138C306.849 406.138 332.278 409.655 334.062 409.583C335.847 409.511 343.873 414.446 346.771 416.72C349.669 418.993 355.337 424.268 355.337 424.268L325.793 424.974C325.793 424.974 322.447 424.153 320.662 424.225C318.878 424.297 316.422 425.83 311.292 425.798C306.161 425.766 300.363 423.131 300.363 423.131L306.849 406.138Z" fill="#EDDFD4" stroke="#263238" stroke-miterlimit="10" stroke-linecap="round" stroke-linejoin="round"/>
<path d="M316.332 419.585C316.332 419.585 321.792 418.277 323.569 419.158C325.345 420.039 332.324 424.382 332.324 424.382" stroke="#263238" stroke-miterlimit="10" stroke-linecap="round" stroke-linejoin="round"/>
<path d="M320.781 415.325C320.781 415.325 329.16 415.26 330.556 415.748C331.952 416.236 340.577 424.322 340.577 424.322" stroke="#263238" stroke-miterlimit="10" stroke-linecap="round" stroke-linejoin="round"/>
<path d="M328.781 412.281C328.781 412.281 335.51 412.282 336.524 413.329C337.539 414.376 347.433 422.82 348.194 423.877" stroke="#263238" stroke-miterlimit="10" stroke-linecap="round" stroke-linejoin="round"/>
<path d="M394.687 414.518L390.344 404.071L400.694 402.817C400.694 402.817 401.581 411.472 394.687 414.518Z" fill="#EDDFD4" stroke="#263238" stroke-miterlimit="10" stroke-linecap="round" stroke-linejoin="round"/>
<path d="M412.968 318.405C412.968 318.405 398.894 337.575 398.614 342.311C398.334 347.047 404.634 386.066 404.634 386.066L392.23 389.223C392.23 389.223 395.528 398.539 395.523 403.855C395.519 409.17 394.686 414.519 394.686 414.519C394.686 414.519 419.208 419.732 425.823 418.875C432.438 418.018 434.37 415.283 438.51 408.915C442.65 402.547 437.7 391.821 435.501 386.004C433.302 380.187 434.132 377.201 434.132 377.201L427.852 316.625" fill="#263238"/>
<path d="M412.968 318.405C412.968 318.405 398.894 337.575 398.614 342.311C398.334 347.047 404.634 386.066 404.634 386.066L392.23 389.223C392.23 389.223 395.528 398.539 395.523 403.855C395.519 409.17 394.686 414.519 394.686 414.519C394.686 414.519 419.208 419.732 425.823 418.875C432.438 418.018 434.37 415.283 438.51 408.915C442.65 402.547 437.7 391.821 435.501 386.004C433.302 380.187 434.132 377.201 434.132 377.201L427.852 316.625" stroke="#263238" stroke-miterlimit="10" stroke-linecap="round" stroke-linejoin="round"/>
<path d="M404.637 386.065C404.637 386.065 419.522 382.513 428.617 382.146Z" fill="#EDDFD4"/>
<path d="M404.637 386.065C404.637 386.065 419.522 382.513 428.617 382.146" stroke="#263238" stroke-miterlimit="10" stroke-linecap="round" stroke-linejoin="round"/>
<path d="M358.161 367.079L354.084 342.764C354.084 342.764 330.261 343.933 319.716 344.567C309.171 345.201 277.734 344.166 277.734 344.166C277.734 344.166 295.845 395.323 297.403 399.445C298.96 403.567 300.324 407.068 300.324 407.068C300.324 407.068 318.675 410.513 337.031 409.983C355.387 409.453 363.592 404.729 363.592 404.729L358.161 367.079Z" fill="#FAFAFA" stroke="#263238" stroke-miterlimit="10" stroke-linecap="round" stroke-linejoin="round"/>
<path d="M392.232 389.222L383.528 385.515C383.528 385.515 368.699 373.35 367.335 371.94C365.969 370.53 358.162 367.079 358.162 367.079L359.91 376.842C359.91 376.842 333.342 389.628 331.583 391.164C329.824 392.699 333.532 394.015 333.532 394.015C333.532 394.015 330.016 396.458 331.771 397.643C333.528 398.828 339.581 398.584 339.581 398.584C339.581 398.584 343.289 400.736 347.194 401.206C351.1 401.676 360.081 402.151 360.081 402.151C360.081 402.151 359.103 403.864 356.173 404.819C353.243 405.774 344.453 408.848 345.624 410.474C346.794 412.101 355.191 410.507 355.191 410.507C355.191 410.507 371.206 406.724 371.792 406.7C372.379 406.676 377.454 407.936 379.993 407.834C382.531 407.732 388.39 406.659 388.39 406.659L395.42 406.585C395.42 406.585 395.27 393.994 392.232 389.222Z" fill="#EDDFD4" stroke="#263238" stroke-miterlimit="10" stroke-linecap="round" stroke-linejoin="round"/>
<path d="M359.91 376.842L364.794 374.344" stroke="#263238" stroke-miterlimit="10" stroke-linecap="round" stroke-linejoin="round"/>
<path d="M333.531 394.015L360.292 384.568" stroke="#263238" stroke-miterlimit="10" stroke-linecap="round" stroke-linejoin="round"/>
<path d="M339.582 398.585L364.58 393.812" stroke="#263238" stroke-miterlimit="10" stroke-linecap="round" stroke-linejoin="round"/>
<path d="M360.078 402.151L367.108 401.659" stroke="#263238" stroke-miterlimit="10" stroke-linecap="round" stroke-linejoin="round"/>
<path d="M363.691 190.269C363.691 190.269 365.286 180.983 368.004 180.388C370.723 179.793 387.825 181.145 390.99 186.599C394.156 192.053 395.38 210.834 393.793 212.839C392.206 214.844 382.465 216.693 381.332 216.738C380.2 216.784 376.362 203.348 370.253 198.256C364.142 193.163 363.691 190.269 363.691 190.269Z" fill="#263238" stroke="#263238" stroke-miterlimit="10" stroke-linecap="round" stroke-linejoin="round"/>
<path d="M333.791 193.172C333.791 193.172 326.313 197.113 324.949 201.779C323.586 206.445 323.354 211.55 323.354 211.55C323.354 211.55 313.838 215.088 314.964 222.808C316.088 230.528 324.011 235.305 324.69 235.764C325.369 236.222 332.152 248.083 332.152 248.083L332.841 238.105C332.841 238.105 332.389 236.424 342.809 235.519C353.228 234.614 360.475 235.778 363.42 234.931C366.365 234.084 367.497 233.796 367.497 233.796C367.497 233.796 368.176 234.739 371.344 236.553C374.514 238.367 378.813 242.319 380.4 241.042C381.986 239.765 384.036 228.762 384.036 228.762C384.036 228.762 385.414 210.02 385.416 206.623C385.42 203.225 378.405 196.47 376.594 194.845C374.784 193.219 359.842 186.541 356.446 185.464C353.049 184.387 343.082 185.76 339.229 188.341C335.378 190.924 333.791 193.172 333.791 193.172Z" fill="#263238" stroke="#263238" stroke-miterlimit="10" stroke-linecap="round" stroke-linejoin="round"/>
<path d="M328.543 233.668C328.543 233.668 334.862 256.953 335.536 261.78C336.12 265.95 340.82 270.123 343.437 272.882C346.145 275.737 355.549 286.683 359.524 282.654C362.018 280.127 371.469 270.295 374.19 266.303C376.912 262.311 377.442 256.452 378.351 252.775C379.26 249.098 379.26 249.098 379.26 249.098C379.26 249.098 383.794 246.003 384.477 241.85C385.16 237.697 387.434 228.384 384.036 228.763C380.639 229.143 380.406 234.976 380.178 236.684C379.95 238.392 378.139 236.766 377.008 235.598C375.877 234.43 372.932 234.306 371.575 232.662C370.218 231.018 373.401 218.271 371.815 219.305C370.228 220.34 369.088 229.365 358.895 230.018C348.702 230.671 341.682 229.013 341.682 229.013C341.682 229.013 337.147 236.962 328.543 233.668Z" fill="#EDDFD4" stroke="#263238" stroke-miterlimit="10" stroke-linecap="round" stroke-linejoin="round"/>
<path d="M350.886 242.895C350.886 242.895 331.119 242.093 330.559 242.715C329.999 243.337 331.856 250.855 333.532 253.186C335.209 255.516 343.788 255.171 346.399 253.867C349.012 252.561 350.886 242.895 350.886 242.895Z" stroke="#263238" stroke-miterlimit="10" stroke-linecap="round" stroke-linejoin="round"/>
<path d="M354.43 242.752C354.43 242.752 357.963 252.8 360.014 253.917C362.064 255.033 367.285 255.422 370.084 254.91C372.882 254.398 374.934 252.716 375.308 251.902C375.682 251.088 376.623 241.658 376.623 241.658L354.43 242.752Z" stroke="#263238" stroke-miterlimit="10" stroke-linecap="round" stroke-linejoin="round"/>
<path d="M354.431 242.752L350.887 242.895" stroke="#263238" stroke-miterlimit="10" stroke-linecap="round" stroke-linejoin="round"/>
<path d="M376.621 241.659L380.172 233.723" stroke="#263238" stroke-miterlimit="10" stroke-linecap="round" stroke-linejoin="round"/>
<path d="M338.57 248.787C338.57 248.787 342.67 252.419 346.217 248.479" stroke="#263238" stroke-miterlimit="10" stroke-linecap="round" stroke-linejoin="round"/>
<path d="M360.949 248.684C360.949 248.684 366.168 251.071 368.783 248.169" stroke="#263238" stroke-miterlimit="10" stroke-linecap="round" stroke-linejoin="round"/>
<path d="M347.155 242.246C347.155 242.246 340.63 239.512 335.594 241.113" stroke="#263238" stroke-miterlimit="10" stroke-linecap="round" stroke-linejoin="round"/>
<path d="M357.602 241.226C357.602 241.226 365.808 239.497 370.47 240.508" stroke="#263238" stroke-miterlimit="10" stroke-linecap="round" stroke-linejoin="round"/>
<path d="M349.939 258.918C349.939 258.918 349.749 262.722 350.121 263.307C350.494 263.892 351.984 265.63 353.476 265.37C354.968 265.11 357.954 262.992 357.954 262.992" stroke="#263238" stroke-miterlimit="10" stroke-linecap="round" stroke-linejoin="round"/>
<path d="M348.25 267.779C348.25 267.779 353.468 271.565 359.253 267.136" stroke="#263238" stroke-miterlimit="10" stroke-linecap="round" stroke-linejoin="round"/>
<path d="M518.578 196.977C518.578 196.977 529.314 174.747 533.49 174.898C537.666 175.05 537.735 182.779 537.735 182.779C537.735 182.779 545.888 176.132 546.955 178.746C548.022 181.36 548.022 181.36 548.022 181.36C548.022 181.36 567.399 186.654 574.928 196.446C582.458 206.238 586.092 216.895 582.713 224.611C579.334 232.327 572.984 257.964 572.984 257.964L575.575 268.584L546.565 287.016L539.775 273.668C539.775 273.668 524.89 278.391 522.966 276.418C521.042 274.445 513.187 248.516 513.187 248.516L504.098 241.803C504.098 241.803 512.006 223.053 512.687 218.039C513.368 213.025 516.184 203.273 518.578 196.977Z" fill="#D6B3A6" stroke="#263238" stroke-miterlimit="10" stroke-linecap="round" stroke-linejoin="round"/>
<path d="M516.93 254.522C516.93 254.522 518.989 256.163 521.761 250.695" stroke="#263238" stroke-miterlimit="10" stroke-linecap="round" stroke-linejoin="round"/>
<path d="M518.578 196.977C518.578 196.977 529.314 174.747 533.49 174.898C537.666 175.05 537.735 182.779 537.735 182.779C537.735 182.779 545.887 176.132 546.955 178.746C548.022 181.36 548.022 181.36 548.022 181.36C548.022 181.36 567.399 186.654 574.928 196.446C582.457 206.238 586.092 216.895 582.713 224.611C580.101 230.576 575.716 247.241 573.859 254.503C571.761 255.438 569.564 256.157 567.389 256.417C558.052 257.534 549.033 248.584 549.033 248.584C549.033 248.584 554.487 244.639 552.46 236.055C550.432 227.471 544.895 227.382 544.895 227.382C544.895 227.382 541.962 234.218 537.505 233.049C533.049 231.879 540.38 224.755 540.709 220.96C541.038 217.165 536.558 213.419 535.268 211.244C533.978 209.07 540.817 207.638 542.975 205.477C545.134 203.316 529.639 200.85 526.226 199.718C522.813 198.586 529.205 198.034 532.126 194.893C535.047 191.751 518.578 196.977 518.578 196.977Z" fill="#263238" stroke="#263238" stroke-miterlimit="10" stroke-linecap="round" stroke-linejoin="round"/>
<path d="M516.918 225.552C516.815 227.601 517.396 229.301 518.216 229.348C519.036 229.395 519.784 227.772 519.887 225.723C519.99 223.674 519.409 221.974 518.589 221.927C517.768 221.879 517.021 223.502 516.918 225.552Z" fill="#263238"/>
<path d="M522.62 217.841C522.62 217.841 518.728 208.741 514.152 214.622" stroke="#263238" stroke-miterlimit="10" stroke-linecap="round" stroke-linejoin="round"/>
<path d="M549.031 248.585L542.545 248.797L542.367 254.39" stroke="#263238" stroke-miterlimit="10" stroke-linecap="round" stroke-linejoin="round"/>
<path d="M536.153 291.745C536.153 291.745 530.821 297.101 530.154 300.315C529.488 303.529 529.154 306.386 529.154 306.386C529.154 306.386 519.489 320.669 518.489 328.525C517.49 336.381 520.488 353.521 520.488 353.521L539.819 292.102L536.153 291.745Z" fill="#263238" stroke="#263238" stroke-miterlimit="10" stroke-linecap="round" stroke-linejoin="round"/>
<path d="M576.24 256.666C576.24 256.666 536.348 287.138 536.137 288.042C535.926 288.947 535.715 297.766 535.715 297.766L581.726 265.202L576.24 256.666Z" fill="#FAFAFA" stroke="#263238" stroke-miterlimit="10" stroke-linecap="round" stroke-linejoin="round"/>
<path d="M535.717 297.766C535.717 297.766 524.742 318.344 524.108 321.51C523.474 324.676 516.932 369.451 516.932 369.451L508.691 424.402H612.332C612.332 424.402 610.074 401.948 608.807 383.631C607.541 365.314 606.942 338.326 600.724 314.34C597.226 300.85 581.728 265.201 581.728 265.201L535.717 297.766Z" fill="#F18F01" stroke="#263238" stroke-miterlimit="10" stroke-linecap="round" stroke-linejoin="round"/>
<path d="M485.679 364.467C485.679 364.467 480.309 354.191 479.158 352.753C478.007 351.314 472.636 349.259 471.101 348.643C469.567 348.027 456.907 343.505 456.14 343.505C455.373 343.505 454.413 345.355 454.605 347.41C454.797 349.465 458.058 351.931 458.825 352.137C459.592 352.343 449.043 352.343 445.398 352.754C441.753 353.165 434.849 354.604 434.273 356.248C433.697 357.892 434.273 359.536 436.383 359.742C438.493 359.948 442.521 359.331 442.521 359.331L452.495 360.359C452.495 360.359 439.644 362.414 437.725 362.825C435.807 363.236 434.656 365.908 435.615 367.346C436.574 368.785 442.136 367.962 442.136 367.962L451.535 367.346C451.535 367.346 439.259 371.456 438.684 372.278C438.108 373.1 438.491 375.566 440.218 375.977C441.945 376.388 450 375.361 450 375.361L454.029 375.977C454.029 375.977 448.275 376.799 448.275 377.621C448.275 378.443 448.275 379.676 449.618 379.676C450.961 379.676 459.784 379.47 459.784 379.47C459.784 379.47 463.812 381.936 467.264 381.731C470.717 381.526 484.911 379.676 484.911 379.676L485.679 364.467Z" fill="#D6B3A6" stroke="#263238" stroke-miterlimit="10" stroke-linecap="round" stroke-linejoin="round"/>
<path d="M458.824 352.137L464.89 355.324C464.89 355.324 464.89 361.543 470.248 365.61" stroke="#263238" stroke-miterlimit="10" stroke-linecap="round" stroke-linejoin="round"/>
<path d="M452.391 358.673C452.391 358.673 453.73 371.351 454.623 374.46" stroke="#263238" stroke-miterlimit="10" stroke-linecap="round" stroke-linejoin="round"/>
<path d="M520.592 366.902L494.25 365.425V381.041L517.247 384.417L520.592 366.902Z" fill="#F18F01" stroke="#263238" stroke-miterlimit="10" stroke-linecap="round" stroke-linejoin="round"/>
<path d="M494.252 365.425L485.68 364.158L484.844 379.775L494.252 381.041V365.425Z" fill="#FAFAFA" stroke="#263238" stroke-miterlimit="10" stroke-linecap="round" stroke-linejoin="round"/>
<path d="M569.771 300.203C569.771 300.203 561.849 294.092 557.096 295.11C552.344 296.128 538.401 301.221 535.232 308.011C532.063 314.801 512.734 376.591 512.734 376.591L439.269 370.754L436.551 399.201C436.551 399.201 515.585 416.992 521.923 418.011C528.26 419.029 535.231 419.029 538.4 415.634C541.569 412.239 574.84 335.511 574.84 335.511" fill="#F18F01"/>
<path d="M569.771 300.203C569.771 300.203 561.849 294.092 557.096 295.11C552.344 296.128 538.401 301.221 535.232 308.011C532.063 314.801 512.734 376.591 512.734 376.591L439.269 370.754L436.551 399.201C436.551 399.201 515.585 416.992 521.923 418.011C528.26 419.029 535.231 419.029 538.4 415.634C541.569 412.239 574.84 335.511 574.84 335.511" stroke="#263238" stroke-miterlimit="10" stroke-linecap="round" stroke-linejoin="round"/>
<path d="M439.269 370.753L427.352 368.962L426.328 393.248L436.76 394.945L439.269 370.753Z" fill="#FAFAFA" stroke="#263238" stroke-miterlimit="10" stroke-linecap="round" stroke-linejoin="round"/>
<path d="M427.351 368.963C427.351 368.963 421.288 360.675 420.034 357.315C418.779 353.955 412.298 353.507 409.371 352.611C406.444 351.715 402.263 349.923 401.845 351.491C401.427 353.059 401.218 356.419 402.89 357.763C404.563 359.107 408.535 360.003 409.58 360.899C410.626 361.795 411.671 362.691 411.671 362.691L392.646 364.707C392.646 364.707 383.865 363.363 379.893 364.707C375.921 366.051 372.785 366.051 372.576 367.843C372.367 369.635 372.785 372.099 373.83 372.323C374.875 372.547 378.221 372.099 378.848 372.099C378.848 372.099 376.548 374.563 376.757 375.459C376.966 376.355 378.43 378.819 379.266 378.819C380.102 378.819 385.329 379.267 386.165 379.491C387.001 379.715 390.765 383.747 391.601 384.195C392.437 384.643 398.291 386.883 398.291 386.883C398.291 386.883 400.382 388.675 404.563 389.795C408.744 390.915 426.327 393.25 426.327 393.25L427.351 368.963Z" fill="#D6B3A6" stroke="#263238" stroke-miterlimit="10" stroke-linecap="round" stroke-linejoin="round"/>
<path d="M398.465 386.275C398.465 386.275 400.604 386.716 402.908 387.068" stroke="#263238" stroke-miterlimit="10" stroke-linecap="round" stroke-linejoin="round"/>
<path d="M378.848 372.097L389.092 371.649L399.127 372.769" stroke="#263238" stroke-miterlimit="10" stroke-linecap="round" stroke-linejoin="round"/>
<path d="M386.164 379.489L391.809 379.937L400.59 380.385" stroke="#263238" stroke-miterlimit="10" stroke-linecap="round" stroke-linejoin="round"/>
<path d="M632.45 424.611L638.283 362.131C639.106 353.319 632.808 345.595 624.547 345.284C617.234 345.009 610.905 350.692 609.879 358.455L601.133 424.611H632.45Z" fill="#263238" stroke="#263238" stroke-miterlimit="10" stroke-linecap="round" stroke-linejoin="round"/>
<path d="M175.948 252.996C175.948 252.996 137.701 274.968 136.057 276.786C134.412 278.604 124.93 409.465 124.93 409.465L240.922 392.669C240.922 392.669 252.932 335.207 255.14 312.001C257.348 288.794 256.714 271.686 256.087 269.73C255.459 267.773 238.103 258.182 234.077 256.141C230.053 254.101 223.958 251.663 223.958 251.663L175.948 252.996Z" fill="#8468F5" stroke="#263238" stroke-miterlimit="10" stroke-linecap="round" stroke-linejoin="round"/>
<path d="M228.986 341.208C219.546 351.622 198.288 373.731 179.273 383.973" stroke="#263238" stroke-miterlimit="10" stroke-linecap="round" stroke-linejoin="round"/>
<path d="M233.968 335.564C233.968 335.564 232.77 336.983 230.648 339.361" stroke="#263238" stroke-miterlimit="10" stroke-linecap="round" stroke-linejoin="round"/>
<path d="M173.031 378.699C170.256 380.08 167.783 381.085 165.957 381.425" stroke="#263238" stroke-miterlimit="10" stroke-linecap="round" stroke-linejoin="round"/>
<path d="M198.772 362.571C198.772 362.571 187.434 370.705 177.48 376.323" stroke="#263238" stroke-miterlimit="10" stroke-linecap="round" stroke-linejoin="round"/>
<path d="M180.021 393.88C180.021 393.88 153.446 379.768 150.162 378.436C146.879 377.105 133.633 393.146 133.633 393.146L187.027 406.456L180.021 393.88Z" fill="#FDD8BA" stroke="#263238" stroke-miterlimit="10" stroke-linecap="round" stroke-linejoin="round"/>
<path d="M139.434 394.853C139.434 394.853 147.817 382.525 151.958 380.834" stroke="#263238" stroke-miterlimit="10" stroke-linecap="round" stroke-linejoin="round"/>
<path d="M147.465 396.202C147.465 396.202 154.609 385.176 157.13 383.066" stroke="#263238" stroke-miterlimit="10" stroke-linecap="round" stroke-linejoin="round"/>
<path d="M153.922 397.629C153.922 397.629 159.13 387.69 162.124 385.806" stroke="#263238" stroke-miterlimit="10" stroke-linecap="round" stroke-linejoin="round"/>
<path d="M158.305 398.658C158.305 398.658 161.457 396.021 162.627 396.462C163.796 396.903 169.124 400.867 170.09 401.565" stroke="#263238" stroke-miterlimit="10" stroke-linecap="round" stroke-linejoin="round"/>
<path d="M256.09 269.73C256.09 269.73 254.282 277.269 249.699 291.649C245.115 306.029 241.665 312.902 241.665 312.902L231.128 381.718L180.023 393.88L187.029 406.457C187.029 406.457 216.43 409.255 231.215 405.31C246 401.365 252.369 399.318 253.114 397.543C253.859 395.768 260.538 356.945 260.229 330.88C259.921 304.815 259.31 267.835 256.09 269.73Z" fill="#8468F5" stroke="#263238" stroke-miterlimit="10" stroke-linecap="round" stroke-linejoin="round"/>
<path d="M241.668 312.903L257.084 288.312" stroke="#263238" stroke-miterlimit="10" stroke-linecap="round" stroke-linejoin="round"/>
<path d="M245.426 311.975L255.859 297.312" stroke="#263238" stroke-miterlimit="10" stroke-linecap="round" stroke-linejoin="round"/>
<path d="M233.988 380.834C233.988 380.834 244.765 380.064 249.865 386.523" stroke="#263238" stroke-miterlimit="10" stroke-linecap="round" stroke-linejoin="round"/>
<path d="M185.559 392.619L193.575 406.388" stroke="#263238" stroke-miterlimit="10" stroke-linecap="round" stroke-linejoin="round"/>
<path d="M233.496 377.878C233.496 377.878 238.765 373.649 247.806 376.191" stroke="#263238" stroke-miterlimit="10" stroke-linecap="round" stroke-linejoin="round"/>
<path d="M212.722 405.71L226.421 407.282L223.854 429.016L209.547 428.219L212.722 405.71Z" fill="#FAFAFA" stroke="#263238" stroke-miterlimit="10" stroke-linecap="round" stroke-linejoin="round"/>
<path d="M145.716 271.103C145.716 271.103 124.018 281.096 122.887 286.118C121.757 291.14 109.21 345.151 104.072 373.467C98.9332 401.783 97.0889 421.495 98.7754 422.655C100.462 423.815 128.015 428.69 161.13 430.067C194.244 431.444 208.079 432.015 209.521 430.455C210.963 428.895 213.507 406.914 212.72 405.71C211.935 404.506 137.731 390.962 137.731 390.962C137.731 390.962 156.841 321.979 156.821 319.248C156.802 316.517 147.014 298.114 143.172 293.084" fill="#8468F5"/>
<path d="M145.716 271.103C145.716 271.103 124.018 281.096 122.887 286.118C121.757 291.14 109.21 345.151 104.072 373.467C98.9332 401.783 97.0889 421.495 98.7754 422.655C100.462 423.815 128.015 428.69 161.13 430.067C194.244 431.444 208.079 432.015 209.521 430.455C210.963 428.895 213.507 406.914 212.72 405.71C211.935 404.506 137.731 390.962 137.731 390.962C137.731 390.962 156.841 321.979 156.821 319.248C156.802 316.517 147.014 298.114 143.172 293.084" stroke="#263238" stroke-miterlimit="10" stroke-linecap="round" stroke-linejoin="round"/>
<path d="M137.733 390.961C137.733 390.961 125.06 389.068 116.023 399.259" stroke="#263238" stroke-miterlimit="10" stroke-linecap="round" stroke-linejoin="round"/>
<path d="M116.02 393.654C116.02 393.654 110.313 399.769 108.887 405.374" stroke="#263238" stroke-miterlimit="10" stroke-linecap="round" stroke-linejoin="round"/>
<path d="M226.419 407.282C226.419 407.282 255.092 396.951 257.025 398.348C258.958 399.745 270.039 409.889 270.171 411.372C270.305 412.856 269.963 416.598 268.882 417.147C267.801 417.696 265.821 418.289 265.821 418.289C265.821 418.289 262.749 429.367 261.488 430.421C260.227 431.476 256.469 432.403 254.692 432.737C252.914 433.072 223.852 429.015 223.852 429.015L226.419 407.282Z" fill="#FDD8BA" stroke="#263238" stroke-miterlimit="10" stroke-linecap="round" stroke-linejoin="round"/>
<path d="M265.822 418.29C265.822 418.29 263.397 413.937 262.205 413.249C261.014 412.562 254.223 409.91 254.223 409.91" stroke="#263238" stroke-miterlimit="10" stroke-linecap="round" stroke-linejoin="round"/>
<path d="M253.156 418.157C253.156 418.157 261.208 419.754 263.748 422.86" stroke="#263238" stroke-miterlimit="10" stroke-linecap="round" stroke-linejoin="round"/>
<path d="M252.52 426.137C252.52 426.137 259.237 428.719 262.77 427.803" stroke="#263238" stroke-miterlimit="10" stroke-linecap="round" stroke-linejoin="round"/>
<path d="M191.676 292.224L199.242 306.015L187.438 400.973L195.835 416.463L211.67 399.054L202.64 306.099L211.455 288.533L201.678 280.313L191.676 292.224Z" fill="url(#paint2_radial_542_19589)" fill-opacity="0.7"/>
<path d="M191.676 292.224L199.242 306.015L187.438 400.973L195.835 416.463L211.67 399.054L202.64 306.099L211.455 288.533L201.678 280.313L191.676 292.224Z" fill="url(#paint3_linear_542_19589)"/>
<path d="M191.676 292.224L199.242 306.015L187.438 400.973L195.835 416.463L211.67 399.054L202.64 306.099L211.455 288.533L201.678 280.313L191.676 292.224Z" stroke="#263238" stroke-miterlimit="10" stroke-linecap="round" stroke-linejoin="round"/>
<path d="M180.839 247.046L173.973 251.104C173.973 251.104 173.912 265.513 177.542 278.253C181.172 290.993 184.424 299.529 184.424 299.529L202.254 289.227L219.811 301.044C219.811 301.044 222.21 287.515 221.1 275.15C219.989 262.785 215.144 249.11 215.144 249.11C215.144 249.11 190.339 242.115 180.839 247.046Z" fill="#8468F5" stroke="#263238" stroke-miterlimit="10" stroke-linecap="round" stroke-linejoin="round"/>
<path d="M187.52 266.097C187.52 266.097 190.705 273.891 192.861 277.761C195.016 281.631 202.252 289.229 202.252 289.229C202.252 289.229 209.555 277.45 210.952 275.395C212.349 273.34 212.349 273.34 212.349 273.34C212.349 273.34 202.944 274.292 200.852 273.649C198.761 273.004 187.52 266.097 187.52 266.097Z" fill="#263238" stroke="#263238" stroke-miterlimit="10" stroke-linecap="round" stroke-linejoin="round"/>
<path d="M230.408 219.73C230.408 219.73 226.739 240.229 226.807 242.961C226.875 245.693 228.511 254.016 227.375 257.197C226.239 260.378 213.605 274.082 209.637 277.401C205.669 280.72 199.953 280.41 196.859 277.629C193.765 274.848 183.266 262.851 181.535 259.418C179.805 255.985 177.922 246.892 177.922 246.892C177.922 246.892 172.881 244.205 169.914 238.878C166.946 233.551 165.375 229.914 169.413 227.374L167.562 204.797C167.562 204.797 174.526 197.23 191.001 198.581C207.476 199.933 230.408 219.73 230.408 219.73Z" fill="#FDD8BA" stroke="#263238" stroke-miterlimit="10" stroke-linecap="round" stroke-linejoin="round"/>
<path d="M176.398 231.92L180.316 241.891L182.652 242.169L181.44 234.607C181.44 234.607 190.738 229.272 191.233 228.857C191.729 228.442 189.177 215.865 189.073 214.698C188.968 213.531 189.663 209.394 202.843 213.64C216.024 217.886 216.478 222.945 222.989 224.193C229.501 225.441 230.141 222.674 230.141 222.674C230.141 222.674 237.236 224.48 241.171 218.818C245.106 213.156 233.486 206.489 233.486 206.489C233.486 206.489 235.374 195.846 230.689 191.188C226.005 186.53 221.805 191.228 221.857 191.811C221.909 192.395 204.934 179.539 196.528 178.969C188.123 178.399 169.099 192.217 165.817 199.215C162.535 206.213 169.414 227.373 169.414 227.373C169.414 227.373 173.697 225.603 176.398 231.92Z" fill="#263238" stroke="#263238" stroke-miterlimit="10" stroke-linecap="round" stroke-linejoin="round"/>
<path d="M216.222 243.865L216.541 259.286L209.34 258.267" stroke="#263238" stroke-miterlimit="10" stroke-linecap="round" stroke-linejoin="round"/>
<path d="M202.027 261.943C202.027 261.943 207.986 266.93 214.307 264.084" stroke="#263238" stroke-miterlimit="10" stroke-linecap="round" stroke-linejoin="round"/>
<path d="M206.616 241.79C206.616 241.79 204.522 246.19 197.5 243.209" stroke="#263238" stroke-miterlimit="10" stroke-linecap="round" stroke-linejoin="round"/>
<path d="M218.422 240.632C218.422 240.632 221.464 242.829 224.776 240.129" stroke="#263238" stroke-miterlimit="10" stroke-linecap="round" stroke-linejoin="round"/>
<path d="M189.895 239.669C189.895 239.669 198.357 236.914 213.985 236.743C213.985 236.743 212.6 241.109 211.161 244.891C209.724 248.673 209.278 251.626 203.525 252.881C197.772 254.137 192.943 251.83 192.025 249.53C191.107 247.231 189.895 239.669 189.895 239.669Z" stroke="#263238" stroke-miterlimit="10" stroke-linecap="round" stroke-linejoin="round"/>
<path d="M213.984 236.743C213.984 236.743 228.784 233.291 233.156 232.493C233.156 232.493 233.221 237.179 232.103 240.555C230.984 243.931 228.61 247.172 226.378 248.062C224.147 248.952 219.12 250.368 217.831 247.89C217.193 246.666 213.984 236.743 213.984 236.743Z" stroke="#263238" stroke-miterlimit="10" stroke-linecap="round" stroke-linejoin="round"/>
<path d="M233.153 232.493L228.68 228.216" stroke="#263238" stroke-miterlimit="10" stroke-linecap="round" stroke-linejoin="round"/>
<path d="M189.894 239.669L176.398 231.92" stroke="#263238" stroke-miterlimit="10" stroke-linecap="round" stroke-linejoin="round"/>
<path d="M195.277 236.282C195.277 236.282 200.908 233.665 208.287 234.675" stroke="#263238" stroke-miterlimit="10" stroke-linecap="round" stroke-linejoin="round"/>
<path d="M218.004 234.009C218.004 234.009 220.167 230.387 226.662 231.44" stroke="#263238" stroke-miterlimit="10" stroke-linecap="round" stroke-linejoin="round"/>
<path d="M470.495 448.498L447.895 436.281H548.224L577.334 448.498H470.495Z" fill="white" stroke="#263238" stroke-miterlimit="10" stroke-linecap="round"/>
<path d="M481.406 448.054L462.055 437.594H547.96L572.884 448.054H481.406Z" fill="white" stroke="#263238" stroke-miterlimit="10" stroke-linecap="round"/>
<path d="M470.496 448.498H577.335L591.905 374.815H485.066L470.496 448.498Z" fill="white" stroke="#263238" stroke-miterlimit="10" stroke-linecap="round"/>
<path d="M526.614 409.409C523.919 412.277 523.712 416.736 526.152 419.369C528.593 422.002 532.755 421.812 535.451 418.944C538.146 416.077 538.353 411.617 535.913 408.984C533.473 406.351 529.31 406.541 526.614 409.409Z" fill="white" stroke="#263238" stroke-miterlimit="10" stroke-linecap="round"/>
<path d="M324.008 428.217L277.891 450.416L361.435 455.429L399.532 429.649L324.008 428.217Z" fill="white" stroke="#263238" stroke-miterlimit="10" stroke-linecap="round" stroke-linejoin="round"/>
<path d="M330.646 428.721L290.605 456.861L375.854 464.703L389.201 429.183L330.646 428.721Z" fill="white" stroke="#263238" stroke-miterlimit="10" stroke-linecap="round" stroke-linejoin="round"/>
<path d="M192.925 412.327C192.925 408.473 193.846 404.938 195.378 402.182H116.276C111.196 402.182 107.078 406.594 107.078 412.037C107.078 417.48 111.196 421.892 116.276 421.892H195.086C193.735 419.225 192.925 415.921 192.925 412.327Z" fill="white" stroke="#263238" stroke-miterlimit="10" stroke-linecap="round"/>
<path d="M195.086 423.628H116.276C110.31 423.628 105.457 418.428 105.457 412.036C105.457 405.644 110.31 400.444 116.276 400.444H195.378C196.274 400.444 196.999 401.222 196.999 402.181C196.999 403.14 196.273 403.918 195.378 403.918H116.276C112.099 403.918 108.699 407.56 108.699 412.036C108.699 416.512 112.099 420.154 116.276 420.154H195.086C195.982 420.154 196.707 420.932 196.707 421.891C196.707 422.85 195.981 423.628 195.086 423.628Z" fill="#8C8C8C" stroke="#263238" stroke-miterlimit="10" stroke-linecap="round"/>
<path d="M184.379 402.182C182.846 404.938 181.926 408.473 181.926 412.327C181.926 415.921 182.736 419.226 184.086 421.892H195.088C193.737 419.226 192.927 415.921 192.927 412.327C192.927 408.473 193.848 404.938 195.38 402.182H184.379Z" fill="white" stroke="#263238" stroke-miterlimit="10" stroke-linecap="round"/>
<path d="M195.156 435.321C195.156 431.467 196.076 427.933 197.608 425.176H118.507C113.426 425.176 109.309 429.588 109.309 435.031C109.309 440.474 113.426 444.886 118.507 444.886H197.316C195.966 442.22 195.156 438.915 195.156 435.321Z" fill="white" stroke="#263238" stroke-miterlimit="10" stroke-linecap="round"/>
<path d="M197.316 446.623H118.507C112.541 446.623 107.688 441.423 107.688 435.031C107.688 428.639 112.541 423.439 118.507 423.439H197.609C198.504 423.439 199.23 424.217 199.23 425.176C199.23 426.135 198.504 426.913 197.609 426.913H118.507C114.329 426.913 110.93 430.555 110.93 435.031C110.93 439.507 114.329 443.149 118.507 443.149H197.316C198.212 443.149 198.938 443.927 198.938 444.886C198.938 445.845 198.212 446.623 197.316 446.623Z" fill="#92E3A9" stroke="#263238" stroke-miterlimit="10" stroke-linecap="round"/>
<path d="M186.609 425.177C185.077 427.933 184.156 431.468 184.156 435.322C184.156 438.916 184.966 442.221 186.317 444.887H197.318C195.968 442.221 195.157 438.916 195.157 435.322C195.157 431.468 196.078 427.934 197.61 425.177H186.609Z" fill="white" stroke="#263238" stroke-miterlimit="10" stroke-linecap="round"/>
</g>
<defs>
<filter id="filter0_d_542_19589" x="-48.0703" y="-1.75195" width="782.457" height="490.154" filterUnits="userSpaceOnUse" color-interpolation-filters="sRGB">
<feFlood flood-opacity="0" result="BackgroundImageFix"/>
<feColorMatrix in="SourceAlpha" type="matrix" values="0 0 0 0 0 0 0 0 0 0 0 0 0 0 0 0 0 0 127 0" result="hardAlpha"/>
<feOffset dy="4"/>
<feGaussianBlur stdDeviation="30"/>
<feComposite in2="hardAlpha" operator="out"/>
<feColorMatrix type="matrix" values="0 0 0 0 0 0 0 0 0 0 0 0 0 0 0 0 0 0 0.3 0"/>
<feBlend mode="normal" in2="BackgroundImageFix" result="effect1_dropShadow_542_19589"/>
<feBlend mode="normal" in="SourceGraphic" in2="effect1_dropShadow_542_19589" result="shape"/>
</filter>
<radialGradient id="paint0_radial_542_19589" cx="0" cy="0" r="1" gradientUnits="userSpaceOnUse" gradientTransform="translate(186.745 131.364) rotate(34.6482) scale(425.001 406.571)">
<stop stop-color="white" stop-opacity="0.59"/>
<stop offset="0.697917" stop-color="white" stop-opacity="0"/>
<stop offset="1" stop-color="white" stop-opacity="0"/>
</radialGradient>
<linearGradient id="paint1_linear_542_19589" x1="619.939" y1="694.307" x2="423.823" y2="102.921" gradientUnits="userSpaceOnUse">
<stop offset="0.52" stop-color="#FAAA19"/>
<stop offset="1" stop-color="#FF450D" stop-opacity="0.8"/>
</linearGradient>
<radialGradient id="paint2_radial_542_19589" cx="0" cy="0" r="1" gradientUnits="userSpaceOnUse" gradientTransform="translate(193.832 308.678) rotate(81.8114) scale(89.7912 25.8917)">
<stop stop-color="white" stop-opacity="0.59"/>
<stop offset="0.697917" stop-color="white" stop-opacity="0"/>
<stop offset="1" stop-color="white" stop-opacity="0"/>
</radialGradient>
<linearGradient id="paint3_linear_542_19589" x1="199.554" y1="280.313" x2="199.554" y2="416.463" gradientUnits="userSpaceOnUse">
<stop stop-color="#FF880D" stop-opacity="0.6"/>
<stop offset="1" stop-color="#FAAA19"/>
</linearGradient>
<clipPath id="clip0_542_19589">
<rect width="700" height="500" fill="white" transform="translate(0 0.618164)"/>
</clipPath>
</defs>
</svg>
