<svg width="700" height="500" viewBox="0 0 700 500" fill="none" xmlns="http://www.w3.org/2000/svg">
<path d="M614.888 87.7198C590.388 70.4898 561.445 59.9298 532.307 55.5498C491.604 49.4198 449.865 55.2398 410.665 68.9098C376.972 80.6698 344.772 97.6998 310.089 106.5C271.169 116.37 235.068 112.23 196.689 102.2C159.057 92.3698 118.625 80.6198 80.9559 96.8498C42.1292 113.58 20.0185 157.37 12.4212 200.57C4.33855 246.51 7.10121 298.25 13.8959 344.22C20.0559 385.88 32.3852 430.5 70.4559 449.37C114.323 471.13 164.387 456.26 210.363 455.37C265.551 454.37 320.907 451.47 376.076 454.84C435.165 458.46 494.609 461.33 553.745 458.84C582.128 457.65 613.068 459.38 639.519 446.04C672.577 429.36 679.176 378.42 683.012 343.27C689.386 284.85 690.917 220.86 672.26 164.36C661.293 131.13 640.536 105.77 614.888 87.7198Z" fill="#8468F5" fill-opacity="0.8"/>
<path d="M614.888 87.7198C590.388 70.4898 561.445 59.9298 532.307 55.5498C491.604 49.4198 449.865 55.2398 410.665 68.9098C376.972 80.6698 344.772 97.6998 310.089 106.5C271.169 116.37 235.068 112.23 196.689 102.2C159.057 92.3698 118.625 80.6198 80.9559 96.8498C42.1292 113.58 20.0185 157.37 12.4212 200.57C4.33855 246.51 7.10121 298.25 13.8959 344.22C20.0559 385.88 32.3852 430.5 70.4559 449.37C114.323 471.13 164.387 456.26 210.363 455.37C265.551 454.37 320.907 451.47 376.076 454.84C435.165 458.46 494.609 461.33 553.745 458.84C582.128 457.65 613.068 459.38 639.519 446.04C672.577 429.36 679.176 378.42 683.012 343.27C689.386 284.85 690.917 220.86 672.26 164.36C661.293 131.13 640.536 105.77 614.888 87.7198Z" fill="url(#paint0_radial_543_23134)" fill-opacity="0.7"/>
<path d="M614.888 87.7198C590.388 70.4898 561.445 59.9298 532.307 55.5498C491.604 49.4198 449.865 55.2398 410.665 68.9098C376.972 80.6698 344.772 97.6998 310.089 106.5C271.169 116.37 235.068 112.23 196.689 102.2C159.057 92.3698 118.625 80.6198 80.9559 96.8498C42.1292 113.58 20.0185 157.37 12.4212 200.57C4.33855 246.51 7.10121 298.25 13.8959 344.22C20.0559 385.88 32.3852 430.5 70.4559 449.37C114.323 471.13 164.387 456.26 210.363 455.37C265.551 454.37 320.907 451.47 376.076 454.84C435.165 458.46 494.609 461.33 553.745 458.84C582.128 457.65 613.068 459.38 639.519 446.04C672.577 429.36 679.176 378.42 683.012 343.27C689.386 284.85 690.917 220.86 672.26 164.36C661.293 131.13 640.536 105.77 614.888 87.7198Z" fill="url(#paint1_linear_543_23134)"/>
<path opacity="0.7" d="M614.888 87.7198C590.388 70.4898 561.445 59.9298 532.307 55.5498C491.604 49.4198 449.865 55.2398 410.665 68.9098C376.972 80.6698 344.772 97.6998 310.089 106.5C271.169 116.37 235.068 112.23 196.689 102.2C159.057 92.3698 118.625 80.6198 80.9559 96.8498C42.1292 113.58 20.0185 157.37 12.4212 200.57C4.33855 246.51 7.10121 298.25 13.8959 344.22C20.0559 385.88 32.3852 430.5 70.4559 449.37C114.323 471.13 164.387 456.26 210.363 455.37C265.551 454.37 320.907 451.47 376.076 454.84C435.165 458.46 494.609 461.33 553.745 458.84C582.128 457.65 613.068 459.38 639.519 446.04C672.577 429.36 679.176 378.42 683.012 343.27C689.386 284.85 690.917 220.86 672.26 164.36C661.293 131.13 640.536 105.77 614.888 87.7198Z" fill="white" fill-opacity="0.6"/>
<path d="M7.51172 424.16H692.578" stroke="#263238" stroke-miterlimit="10" stroke-linecap="round"/>
<g opacity="0.3">
<path d="M534.323 80.9902H392.055V416.81H534.323V80.9902Z" fill="white" stroke="black" stroke-miterlimit="10" stroke-linecap="round"/>
<path d="M527.614 89.6001H398.758V416.82H527.614V89.6001Z" fill="white" stroke="black" stroke-miterlimit="10" stroke-linecap="round"/>
<path d="M461.626 96.2104H405.309V131.7H461.626V96.2104Z" fill="white" stroke="black" stroke-miterlimit="10" stroke-linecap="round"/>
<path d="M523.142 96.2104H466.824V131.7H523.142V96.2104Z" fill="white" stroke="black" stroke-miterlimit="10" stroke-linecap="round"/>
<path d="M461.626 139.36H405.309V407.25H461.626V139.36Z" fill="white" stroke="black" stroke-miterlimit="10" stroke-linecap="round"/>
<path d="M523.142 139.36H466.824V407.25H523.142V139.36Z" fill="white" stroke="black" stroke-miterlimit="10" stroke-linecap="round"/>
</g>
<g opacity="0.3">
<path d="M550.493 110.05V122.41H545.883V107.08H546.797V110.05H550.493Z" fill="white" stroke="black" stroke-miterlimit="10" stroke-linecap="round"/>
<path d="M556.494 107.08H546.797V110.05H556.494V107.08Z" fill="white" stroke="black" stroke-miterlimit="10" stroke-linecap="round"/>
<path d="M575.403 81.3799C575.404 85.5792 573.936 89.6265 571.289 92.7234C568.643 95.8204 565.009 97.7423 561.104 98.1099C560.645 98.1584 560.184 98.1818 559.723 98.1799C558.638 98.1826 557.555 98.062 556.494 97.8199C553.594 97.1661 550.927 95.6456 548.801 93.4345C546.675 91.2234 545.178 88.4122 544.482 85.3265C543.786 82.2409 543.92 79.0071 544.869 75.9999C545.818 72.9926 547.542 70.3349 549.843 68.3347C552.144 66.3344 554.926 65.0735 557.868 64.698C560.81 64.3225 563.791 64.8478 566.466 66.213C569.141 67.5782 571.4 69.7274 572.982 72.4117C574.563 75.096 575.403 78.2055 575.403 81.3799Z" fill="white" stroke="black" stroke-miterlimit="10" stroke-linecap="round"/>
<path d="M561.103 98.1098V122.41H556.492V97.8198C557.554 98.0619 558.636 98.1825 559.722 98.1798C560.183 98.1817 560.644 98.1583 561.103 98.1098Z" fill="white" stroke="black" stroke-miterlimit="10" stroke-linecap="round"/>
</g>
<g opacity="0.3">
<path d="M361.415 110.05V122.41H356.805V107.08H357.729V110.05H361.415Z" fill="white" stroke="black" stroke-miterlimit="10" stroke-linecap="round"/>
<path d="M367.418 107.08H357.73V110.05H367.418V107.08Z" fill="white" stroke="black" stroke-miterlimit="10" stroke-linecap="round"/>
<path d="M372.029 98.1103V122.41H367.418V97.8203C368.48 98.0623 369.562 98.183 370.647 98.1803C371.109 98.1822 371.57 98.1588 372.029 98.1103Z" fill="white" stroke="black" stroke-miterlimit="10" stroke-linecap="round"/>
<path d="M386.336 81.3801C386.337 85.581 384.868 89.6296 382.219 92.7268C379.57 95.824 375.934 97.7448 372.028 98.1101C371.569 98.1586 371.108 98.182 370.646 98.1801C369.561 98.1828 368.479 98.0622 367.417 97.8201C364.515 97.1662 361.846 95.6448 359.719 93.432C357.591 91.2193 356.092 88.4059 355.396 85.3179C354.699 82.2299 354.834 78.9937 355.784 75.9843C356.734 72.9749 358.461 70.3155 360.763 68.3143C363.066 66.3132 365.851 65.0522 368.796 64.6774C371.74 64.3027 374.723 64.8296 377.4 66.197C380.076 67.5644 382.336 69.7165 383.917 72.4037C385.499 75.0909 386.337 78.2033 386.336 81.3801Z" fill="white" stroke="black" stroke-miterlimit="10" stroke-linecap="round"/>
</g>
<g opacity="0.3">
<path d="M292.972 88.02H210.68V195.33H292.972V88.02Z" fill="white" stroke="black" stroke-miterlimit="10" stroke-linecap="round"/>
<path d="M289.517 92.5298H214.141V190.82H289.517V92.5298Z" fill="white" stroke="black" stroke-miterlimit="10" stroke-linecap="round"/>
<path d="M265.82 123.42H237.82V159.94H265.82V123.42Z" fill="white" stroke="black" stroke-miterlimit="10" stroke-linecap="round"/>
</g>
<g opacity="0.3">
<path d="M660.175 88.02H577.883V195.33H660.175V88.02Z" fill="white" stroke="black" stroke-miterlimit="10" stroke-linecap="round"/>
<path d="M656.72 92.5298H581.344V190.82H656.72V92.5298Z" fill="white" stroke="black" stroke-miterlimit="10" stroke-linecap="round"/>
<path d="M633.035 123.42H605.035V159.94H633.035V123.42Z" fill="white" stroke="black" stroke-miterlimit="10" stroke-linecap="round"/>
</g>
<path d="M619.733 294.65C619.733 294.65 617.727 300.57 613.452 301.38C609.177 302.19 601.645 293.31 606.424 288.73C611.203 284.15 617.755 291.42 619.733 294.65Z" fill="#FF880D" stroke="#263238" stroke-width="0.75" stroke-linecap="round" stroke-linejoin="round"/>
<path d="M626.267 265.58C626.267 265.58 619.986 282 622.534 290.08C625.082 298.16 640.622 304.08 645.149 293.57C649.675 283.06 639.614 268.27 635.815 265.05C632.017 261.83 627.555 262.89 626.267 265.58Z" fill="#FF880D" stroke="#263238" stroke-width="0.75" stroke-linecap="round" stroke-linejoin="round"/>
<path d="M662.973 272.58C662.973 272.58 652.165 283.08 650.914 293.58C649.664 304.08 656.944 307.85 664.476 306.5C672.008 305.15 675.778 284.7 673.52 275.28C671.261 265.86 662.973 272.58 662.973 272.58Z" fill="#FF880D" stroke="#263238" stroke-width="0.75" stroke-linecap="round" stroke-linejoin="round"/>
<path d="M664.98 330.72C664.98 330.72 652.921 331.25 652.417 337.44C651.913 343.63 657.691 344.98 663.468 339.6C669.245 334.22 670.001 331 664.98 330.72Z" fill="#FF880D" stroke="#263238" stroke-width="0.75" stroke-linecap="round" stroke-linejoin="round"/>
<path d="M652.625 338.92C652.625 338.92 662.126 334.26 666.401 333.45" stroke="#263238" stroke-width="0.75" stroke-miterlimit="10"/>
<path d="M667.668 371.22C667.668 371.22 658.81 362.44 654.358 366.42C649.906 370.4 653.089 375.74 660.724 376.34C668.358 376.94 671.065 375.23 667.668 371.22Z" fill="#FF880D" stroke="#263238" stroke-width="0.75" stroke-linecap="round" stroke-linejoin="round"/>
<path d="M653.52 367.61C653.52 367.61 663.301 371.55 666.857 374.23" stroke="#263238" stroke-width="0.75" stroke-miterlimit="10"/>
<path d="M620.947 368.63C620.947 368.63 633.155 356.53 639.334 362C645.512 367.47 641.079 374.85 630.56 375.67C620.042 376.49 616.308 374.16 620.947 368.63Z" fill="#FF880D" stroke="#263238" stroke-width="0.75" stroke-linecap="round" stroke-linejoin="round"/>
<path d="M640.444 363.66C640.444 363.66 626.957 369.09 622.066 372.78" stroke="#263238" stroke-width="0.75" stroke-miterlimit="10"/>
<path d="M635.087 343.63C635.087 343.63 633.827 350.09 629.31 352.52C624.792 354.95 616.747 349.82 621.022 342.02C625.296 334.22 632.8 340.4 635.087 343.63Z" fill="#FF880D" stroke="#263238" stroke-width="0.75" stroke-linecap="round" stroke-linejoin="round"/>
<path d="M624.54 323.45C624.54 323.45 622.272 318.07 613.48 321.56C604.688 325.05 601.179 330.45 606.704 332.33C612.229 334.21 624.54 323.45 624.54 323.45Z" fill="#FF880D" stroke="#263238" stroke-width="0.75" stroke-linecap="round" stroke-linejoin="round"/>
<path d="M622.849 323.2C622.849 323.2 613.516 324.28 608.504 328.87" stroke="#263238" stroke-width="0.75" stroke-miterlimit="10"/>
<path d="M649.656 258.85C649.656 258.85 651.168 262.62 654.183 261.85C657.198 261.08 657.916 256.19 662.723 257.54C667.53 258.89 671.515 264.81 671.515 262.11C671.515 259.41 665.486 252.43 658.7 252.43C651.915 252.43 649.908 255.36 649.656 258.85Z" fill="#FF880D" stroke="#263238" stroke-width="0.75" stroke-linecap="round" stroke-linejoin="round"/>
<path d="M624.539 323.45C624.539 323.45 635.356 321.22 639.855 334.09C640.297 335.381 640.674 336.696 640.984 338.03" stroke="#263238" stroke-width="0.75" stroke-miterlimit="10"/>
<path d="M669.676 311C669.676 311 671.934 305.62 680.726 309.12C689.518 312.62 693.037 318 687.512 319.88C681.986 321.76 669.676 311 669.676 311Z" fill="#FF880D" stroke="#263238" stroke-width="0.75" stroke-linecap="round" stroke-linejoin="round"/>
<path d="M671.691 311.34C671.691 311.34 680.745 310.8 685.029 316.46" stroke="#263238" stroke-width="0.75" stroke-miterlimit="10"/>
<path d="M669.678 311C667.143 310.62 664.559 310.997 662.211 312.09" stroke="#263238" stroke-width="0.75" stroke-miterlimit="10"/>
<path d="M630.297 301.33C624.996 295.53 619.76 294.65 619.76 294.65C619.76 294.65 612.032 292.46 609.008 295.42" stroke="#263238" stroke-width="0.75" stroke-miterlimit="10"/>
<path d="M631.382 271.51L630.906 269.26" stroke="#263238" stroke-width="0.75" stroke-miterlimit="10"/>
<path d="M643.609 390.5C643.609 390.5 644.738 344.15 643.609 330.07C642.479 315.99 637.234 299.51 637.234 299.51L631.867 273.9" stroke="#263238" stroke-width="0.75" stroke-miterlimit="10"/>
<path d="M665.934 281.46L666.904 279.24" stroke="#263238" stroke-width="0.75" stroke-miterlimit="10"/>
<path d="M646.238 390.45C646.238 390.45 646.612 348.17 648.105 336.1C649.598 324.03 655.572 305.1 655.572 305.1L664.84 284" stroke="#263238" stroke-width="0.75" stroke-miterlimit="10"/>
<path d="M652.623 338.92C652.623 338.92 649.991 363.16 648.488 390.5" stroke="#263238" stroke-width="0.75" stroke-miterlimit="10"/>
<path d="M639.854 390.45C639.854 390.45 640.61 351.79 639.108 346.56C637.605 341.33 635.085 343.63 635.085 343.63C635.085 343.63 628.141 344.51 625.621 348.83" stroke="#263238" stroke-width="0.75" stroke-miterlimit="10"/>
<path d="M641.582 341C643.542 352.79 641.731 390.45 641.731 390.45" stroke="#263238" stroke-width="0.75" stroke-miterlimit="10"/>
<path d="M660.063 313.34C657.396 315.393 655.401 318.294 654.36 321.63C649.852 334.5 650.365 390.5 650.365 390.5" stroke="#263238" stroke-width="0.75" stroke-miterlimit="10"/>
<path d="M631.613 302.86C634.434 306.509 636.593 310.691 637.979 315.19C643.989 333.69 646.239 381.6 645.109 390.45" stroke="#263238" stroke-width="0.75" stroke-miterlimit="10"/>
<path d="M646.864 320.17C646.5 343.52 646.238 390.45 646.238 390.45" stroke="#263238" stroke-width="0.75" stroke-miterlimit="10"/>
<path d="M646.914 317.27C647.157 301.83 647.446 286.72 647.745 278.59C648.491 257.68 649.611 258.85 649.611 258.85C649.611 258.85 651.002 254.16 658.805 254.7" stroke="#263238" stroke-width="0.75" stroke-miterlimit="10"/>
<path d="M637.299 334.9C637.299 334.9 631.017 328.9 633.565 325.95C636.113 323 651.653 320.83 656.171 324.67C660.688 328.51 650.645 333.92 646.837 335.1C643.029 336.28 638.549 335.88 637.299 334.9Z" fill="#FF880D" stroke="#263238" stroke-width="0.75" stroke-linecap="round" stroke-linejoin="round"/>
<path d="M643.066 330C642.978 330.592 642.931 331.19 642.926 331.79" stroke="#263238" stroke-width="0.75" stroke-miterlimit="10"/>
<path d="M645.25 323C644.605 324.439 644.068 325.93 643.645 327.46" stroke="#263238" stroke-width="0.75" stroke-miterlimit="10"/>
<path d="M637.299 374.13C637.299 374.13 631.017 368.13 633.565 365.18C636.113 362.23 651.653 360.06 656.171 363.9C660.688 367.74 650.645 373.15 646.837 374.33C643.029 375.51 638.549 375.11 637.299 374.13Z" fill="#FF880D" stroke="#263238" stroke-width="0.75" stroke-linecap="round" stroke-linejoin="round"/>
<path d="M645.249 362.21C645.249 362.21 642.953 367.14 642.953 371.01" stroke="#263238" stroke-width="0.75" stroke-miterlimit="10"/>
<path d="M641.977 357.54C641.977 357.54 637.711 353.46 639.419 351.46C641.127 349.46 651.693 347.99 654.763 350.59C657.834 353.19 651.03 356.87 648.454 357.67C645.878 358.47 642.826 358.21 641.977 357.54Z" fill="#FF880D" stroke="#263238" stroke-width="0.75" stroke-linecap="round" stroke-linejoin="round"/>
<path d="M647.38 349.45C646.506 351.325 645.974 353.362 645.812 355.45" stroke="#263238" stroke-width="0.75" stroke-miterlimit="10"/>
<path d="M653.074 383.77H636.078V424.16H653.074V383.77Z" fill="#263238" stroke="#263238" stroke-width="0.75" stroke-linecap="round" stroke-linejoin="round"/>
<g opacity="0.3">
<path d="M97.4405 157.33C124.234 157.33 145.955 134.058 145.955 105.35C145.955 76.6424 124.234 53.3701 97.4405 53.3701C70.6465 53.3701 48.9258 76.6424 48.9258 105.35C48.9258 134.058 70.6465 157.33 97.4405 157.33Z" fill="white" stroke="black" stroke-miterlimit="10" stroke-linecap="round"/>
<path d="M97.4401 151.78C121.373 151.78 140.775 130.993 140.775 105.35C140.775 79.7073 121.373 58.9199 97.4401 58.9199C73.5071 58.9199 54.1055 79.7073 54.1055 105.35C54.1055 130.993 73.5071 151.78 97.4401 151.78Z" fill="white" stroke="black" stroke-miterlimit="10" stroke-linecap="round"/>
<path d="M134.633 107.35L134.707 105.74C135.715 106.734 136.717 107.81 137.713 108.97C137.713 109.26 137.713 109.55 137.666 109.84L137.545 110.71C136.645 109.522 135.672 108.399 134.633 107.35Z" fill="white" stroke="black" stroke-miterlimit="10" stroke-linecap="round"/>
<path d="M134.074 112.65L134.308 111.06C134.756 111.62 135.241 112.21 135.652 112.82C136.062 113.43 136.585 114.06 136.912 114.69L136.51 116.38C136.128 115.72 135.736 115.08 135.344 114.46L134.746 113.55L134.074 112.65Z" fill="white" stroke="black" stroke-miterlimit="10" stroke-linecap="round"/>
<path d="M132.852 117.82C133.031 117.319 133.175 116.805 133.281 116.28C134.069 117.558 134.771 118.895 135.381 120.28L134.821 121.92C134.196 120.45 133.533 119.09 132.852 117.82Z" fill="white" stroke="black" stroke-miterlimit="10" stroke-linecap="round"/>
<path d="M130.965 122.75L131.618 121.3C132.178 122.64 132.71 124.05 133.214 125.54C132.969 126.062 132.698 126.569 132.402 127.06C132.022 125.588 131.542 124.147 130.965 122.75Z" fill="white" stroke="black" stroke-miterlimit="10" stroke-linecap="round"/>
<path d="M128.52 127.4L129.304 126.02C129.752 127.469 130.108 128.949 130.368 130.45L129.388 131.85C129.175 130.351 128.885 128.865 128.52 127.4Z" fill="white" stroke="black" stroke-miterlimit="10" stroke-linecap="round"/>
<path d="M125.488 131.62C125.84 131.237 126.167 130.829 126.468 130.4C126.705 131.899 126.864 133.412 126.944 134.93C126.571 135.35 126.226 135.81 125.824 136.2C125.796 134.65 125.647 133.09 125.488 131.62Z" fill="white" stroke="black" stroke-miterlimit="10" stroke-linecap="round"/>
<path d="M121.958 135.4L123.078 134.31C123.078 135.79 123.078 137.31 123.022 138.9L121.715 139.9C121.799 139.13 121.864 138.37 121.92 137.63C121.976 136.89 121.958 136.14 121.958 135.4Z" fill="white" stroke="black" stroke-miterlimit="10" stroke-linecap="round"/>
<path d="M118.019 138.66C118.458 138.39 118.831 138.03 119.242 137.72C119.176 138.46 119.12 139.25 118.999 139.99C118.878 140.73 118.756 141.47 118.607 142.23L117.207 143.13C117.543 141.6 117.814 140.1 118.019 138.66Z" fill="white" stroke="black" stroke-miterlimit="10" stroke-linecap="round"/>
<path d="M113.681 141.27L115.044 140.57C114.708 141.99 114.307 143.45 113.84 144.94C113.588 145.06 113.345 145.2 113.093 145.31L112.328 145.61C112.874 144.2 113.326 142.749 113.681 141.27Z" fill="white" stroke="black" stroke-miterlimit="10" stroke-linecap="round"/>
<path d="M109.078 143.29L110.488 142.74C110.245 143.44 109.974 144.14 109.694 144.85L109.256 145.92L108.761 146.92L107.184 147.36C107.538 146.68 107.874 146 108.192 145.36C108.527 144.691 108.823 143.999 109.078 143.29Z" fill="white" stroke="black" stroke-miterlimit="10" stroke-linecap="round"/>
<path d="M104.255 144.61L105.002 144.48L105.73 144.28C105.063 145.622 104.315 146.914 103.49 148.15L101.875 148.41C102.74 147.13 103.533 145.864 104.255 144.61Z" fill="white" stroke="black" stroke-miterlimit="10" stroke-linecap="round"/>
<path d="M99.3085 145.2L100.811 145.12C99.9898 146.29 99.0845 147.47 98.1138 148.65C97.5702 148.695 97.0241 148.695 96.4805 148.65C97.497 147.572 98.442 146.419 99.3085 145.2Z" fill="white" stroke="black" stroke-miterlimit="10" stroke-linecap="round"/>
<path d="M94.3309 145.14L95.8336 145.22C95.3482 145.76 94.8442 146.29 94.3309 146.83C93.8178 147.373 93.2788 147.887 92.7162 148.37L91.1016 148.1C91.6802 147.63 92.2309 147.15 92.7722 146.67L93.5562 145.94L94.3309 145.14Z" fill="white" stroke="black" stroke-miterlimit="10" stroke-linecap="round"/>
<path d="M89.4028 144.35C89.8867 144.489 90.3796 144.59 90.8775 144.65C89.7849 145.619 88.6275 146.502 87.4148 147.29L85.8281 146.85C87.0975 146.043 88.289 145.21 89.4028 144.35Z" fill="white" stroke="black" stroke-miterlimit="10" stroke-linecap="round"/>
<path d="M84.6337 142.84L86.0431 143.39C84.8577 144.12 83.6071 144.83 82.3097 145.51C81.7976 145.314 81.2986 145.08 80.8164 144.81C82.1301 144.25 83.4056 143.591 84.6337 142.84Z" fill="white" stroke="black" stroke-miterlimit="10" stroke-linecap="round"/>
<path d="M80.0728 140.7L81.4355 141.4C80.147 142.025 78.8219 142.559 77.4688 143L76.0781 142.1C76.7781 141.9 77.4688 141.69 78.1408 141.47C78.8128 141.25 79.4101 141 80.0728 140.7Z" fill="white" stroke="black" stroke-miterlimit="10" stroke-linecap="round"/>
<path d="M75.8437 137.89C76.2364 138.225 76.6513 138.529 77.085 138.8C76.411 139.026 75.7254 139.209 75.0317 139.35C74.3472 139.497 73.6472 139.637 72.9317 139.77C72.493 139.41 72.0543 139.08 71.625 138.71C73.081 138.5 74.4997 138.21 75.8437 137.89Z" fill="white" stroke="black" stroke-miterlimit="10" stroke-linecap="round"/>
<path d="M71.9982 134.5L73.1089 135.59C71.7462 135.78 70.3089 135.91 68.8342 135.99L67.7422 134.7C68.4609 134.7 69.1702 134.7 69.8609 134.7C70.5515 134.7 71.2982 134.58 71.9982 134.5Z" fill="white" stroke="black" stroke-miterlimit="10" stroke-linecap="round"/>
<path d="M68.5735 130.63C68.8815 131.05 69.2361 131.43 69.5721 131.83C68.8721 131.83 68.1535 131.83 67.4255 131.83C66.6975 131.83 66.0348 131.71 65.3161 131.63L64.3828 130.23C65.7921 130.42 67.2015 130.56 68.5735 130.63Z" fill="white" stroke="black" stroke-miterlimit="10" stroke-linecap="round"/>
<path d="M65.7072 126.27L66.4912 127.64C65.1378 127.43 63.7472 127.15 62.3192 126.79L61.8992 126.05L61.5352 125.26L62.5525 125.58L63.6165 125.84C64.3258 126 65.0258 126.14 65.7072 126.27Z" fill="white" stroke="black" stroke-miterlimit="10" stroke-linecap="round"/>
<path d="M63.3744 121.56L64.0278 123.01C63.3558 122.81 62.6744 122.6 61.9838 122.37C61.2961 122.149 60.62 121.889 59.9584 121.59L59.3984 119.95C60.0611 120.26 60.7238 120.55 61.3771 120.83L62.3104 121.22L63.3744 121.56Z" fill="white" stroke="black" stroke-miterlimit="10" stroke-linecap="round"/>
<path d="M61.6574 116.55C61.7227 116.81 61.7787 117.07 61.8534 117.33L62.1147 118.08C60.7998 117.511 59.5241 116.842 58.2974 116.08L57.8867 114.38C59.1685 115.187 60.4254 115.91 61.6574 116.55Z" fill="white" stroke="black" stroke-miterlimit="10" stroke-linecap="round"/>
<path d="M60.6111 111.34L60.8351 112.93C59.6653 112.17 58.4831 111.327 57.2884 110.4C57.2044 109.824 57.1576 109.243 57.1484 108.66C58.2421 109.64 59.3993 110.536 60.6111 111.34Z" fill="white" stroke="black" stroke-miterlimit="10" stroke-linecap="round"/>
<path d="M60.182 106L60.2567 107.61C59.706 107.15 59.1553 106.67 58.614 106.17L57.7833 105.4C57.522 105.14 57.2793 104.88 57.0273 104.61L57.1113 102.86C57.606 103.43 58.11 103.97 58.614 104.49L59.3607 105.26C59.622 105.54 59.9113 105.78 60.182 106Z" fill="white" stroke="black" stroke-miterlimit="10" stroke-linecap="round"/>
<path d="M60.4229 100.69C60.3419 101.223 60.2982 101.761 60.2922 102.3C59.283 101.227 58.3472 100.077 57.4922 98.8601L57.7442 97.1401C58.6215 98.4001 59.5175 99.5901 60.4229 100.69Z" fill="white" stroke="black" stroke-miterlimit="10" stroke-linecap="round"/>
<path d="M61.3488 95.4503L60.9755 97.0003C60.1728 95.8203 59.3919 94.5536 58.6328 93.2003C58.7075 92.9203 58.7635 92.6303 58.8475 92.3603L59.1275 91.5303C59.7818 92.8908 60.5241 94.2006 61.3488 95.4503Z" fill="white" stroke="black" stroke-miterlimit="10" stroke-linecap="round"/>
<path d="M62.8776 90.3801L62.3643 91.8901C62.0283 91.2401 61.6923 90.5701 61.375 89.8901L60.8896 88.8901L60.4883 87.8901L61.1976 86.3101C61.4496 87.0401 61.711 87.7501 61.9816 88.4501C62.2508 89.1086 62.5499 89.7527 62.8776 90.3801Z" fill="white" stroke="black" stroke-miterlimit="10" stroke-linecap="round"/>
<path d="M65.0527 85.5899L64.6607 86.2699L64.334 86.9999L63.942 85.9299L63.6153 84.8699C63.41 84.1499 63.214 83.4199 63.0273 82.6699L63.8673 81.1699C64.222 82.7199 64.6233 84.1899 65.0527 85.5899Z" fill="white" stroke="black" stroke-miterlimit="10" stroke-linecap="round"/>
<path d="M67.8165 81.1499L66.8832 82.4399C66.5752 80.9999 66.3045 79.4999 66.0898 77.9299C66.4352 77.4799 66.8178 77.0599 67.1725 76.6299C67.2378 77.3999 67.3032 78.1499 67.3872 78.8899C67.4712 79.6299 67.6765 80.4099 67.8165 81.1499Z" fill="white" stroke="black" stroke-miterlimit="10" stroke-linecap="round"/>
<path d="M71.0648 77.1001L70.0568 78.3001C69.9822 77.5501 69.9168 76.7901 69.8608 76.0101C69.8048 75.2301 69.8608 74.5101 69.8608 73.7301L71.0648 72.5601C70.9995 74.1301 71.0088 75.6501 71.0648 77.1001Z" fill="white" stroke="black" stroke-miterlimit="10" stroke-linecap="round"/>
<path d="M74.8446 73.6201C74.4433 73.9501 74.0326 74.2601 73.6406 74.6201C73.6966 73.1501 73.8273 71.6201 74.014 70.1001C74.4423 69.7375 74.8912 69.4035 75.358 69.1001C75.2086 69.8401 75.1153 70.6201 75.0313 71.3901C74.9473 72.1601 74.8913 72.8801 74.8446 73.6201Z" fill="white" stroke="black" stroke-miterlimit="10" stroke-linecap="round"/>
<path d="M78.9779 70.6602L77.6992 71.5002C77.8112 70.7702 77.9419 70.0202 78.0912 69.2702C78.2265 68.5048 78.3978 67.7471 78.6046 67.0002L80.0699 66.2402C79.6148 67.686 79.25 69.1626 78.9779 70.6602Z" fill="white" stroke="black" stroke-miterlimit="10" stroke-linecap="round"/>
<path d="M83.4595 68.3301C82.9855 68.5082 82.5239 68.7221 82.0781 68.9701C82.4737 67.5108 82.9666 66.0838 83.5528 64.7001L85.0835 64.1001C84.4675 65.5301 83.9261 67.0001 83.4595 68.3301Z" fill="white" stroke="black" stroke-miterlimit="10" stroke-linecap="round"/>
<path d="M88.1904 66.69L86.7344 67.09C87.3193 65.7567 87.985 64.4234 88.7317 63.09C89.2571 62.9487 89.7901 62.8419 90.3277 62.77C89.531 64.0218 88.8168 65.3316 88.1904 66.69Z" fill="white" stroke="black" stroke-miterlimit="10" stroke-linecap="round"/>
<path d="M93.0817 65.6903L91.5977 65.9403C91.971 65.3103 92.363 64.6703 92.7737 64.0403L93.399 63.0403L94.071 62.1603L95.695 62.0703C95.219 62.6603 94.7617 63.2503 94.3323 63.8403C93.8839 64.4318 93.4664 65.0494 93.0817 65.6903Z" fill="white" stroke="black" stroke-miterlimit="10" stroke-linecap="round"/>
<path d="M98.0574 65.4304C97.5573 65.3854 97.0547 65.3854 96.5547 65.4304C97.4495 64.25 98.4227 63.1405 99.4667 62.1104L101.091 62.2004C100.008 63.2804 98.9907 64.3604 98.0574 65.4304Z" fill="white" stroke="black" stroke-miterlimit="10" stroke-linecap="round"/>
<path d="M103.021 65.8903L101.527 65.6503C102.554 64.6836 103.655 63.7269 104.831 62.7803L105.634 62.9103L106.427 63.1303C105.234 63.9654 104.096 64.8876 103.021 65.8903Z" fill="white" stroke="black" stroke-miterlimit="10" stroke-linecap="round"/>
<path d="M107.886 67.0002L106.43 66.6002C106.996 66.1668 107.584 65.7468 108.194 65.3402C108.81 64.9202 109.435 64.5202 110.06 64.1802L111.6 64.7802C110.978 65.1335 110.356 65.4668 109.734 65.7802L108.8 66.3302L107.886 67.0002Z" fill="white" stroke="black" stroke-miterlimit="10" stroke-linecap="round"/>
<path d="M112.549 68.8501C112.325 68.7401 112.101 68.6101 111.877 68.5101L111.168 68.2301C112.425 67.5237 113.725 66.909 115.06 66.3901L116.525 67.1501C115.135 67.6801 113.809 68.2501 112.549 68.8501Z" fill="white" stroke="black" stroke-miterlimit="10" stroke-linecap="round"/>
<path d="M116.947 71.35L115.668 70.52C116.965 70.05 118.328 69.62 119.765 69.23C120.232 69.53 120.643 69.92 121.091 70.23C120.381 70.38 119.7 70.5 119 70.69C118.3 70.88 117.6 71.13 116.947 71.35Z" fill="white" stroke="black" stroke-miterlimit="10" stroke-linecap="round"/>
<path d="M121.024 74.4202L119.82 73.4202C120.502 73.2702 121.202 73.1202 121.92 73.0002C122.639 72.8802 123.311 72.8102 124.039 72.7402L125.243 73.9102C123.778 74.0502 122.387 74.1802 121.024 74.4202Z" fill="white" stroke="black" stroke-miterlimit="10" stroke-linecap="round"/>
<path d="M124.636 78.0901C124.291 77.7001 123.983 77.2701 123.609 76.9101C125 76.8001 126.409 76.8201 127.856 76.9101C128.233 77.3289 128.588 77.7696 128.92 78.2301C127.496 78.0991 126.065 78.0524 124.636 78.0901Z" fill="white" stroke="black" stroke-miterlimit="10" stroke-linecap="round"/>
<path d="M127.801 82.2099L126.867 80.9199C128.293 81.017 129.714 81.1905 131.123 81.4399L131.973 82.9299C130.599 82.5884 129.205 82.3478 127.801 82.2099Z" fill="white" stroke="black" stroke-miterlimit="10" stroke-linecap="round"/>
<path d="M130.426 86.7403C130.203 86.2587 129.953 85.7912 129.68 85.3403C131.078 85.6166 132.456 85.9975 133.805 86.4803L134.514 88.0503C133.114 87.5403 131.752 87.1103 130.426 86.7403Z" fill="white" stroke="black" stroke-miterlimit="10" stroke-linecap="round"/>
<path d="M132.423 91.6303L131.91 90.1104C133.189 90.6104 134.505 91.1804 135.849 91.8304C136.042 92.3774 136.198 92.9389 136.315 93.5104C135.06 92.7882 133.76 92.16 132.423 91.6303Z" fill="white" stroke="black" stroke-miterlimit="10" stroke-linecap="round"/>
<path d="M133.842 96.7402L133.469 95.1802C134.094 95.5102 134.719 95.8702 135.335 96.2402L136.269 96.8202L137.155 97.4402L137.398 99.1702C136.801 98.7202 136.213 98.2902 135.625 97.8902C135.05 97.4727 134.455 97.0888 133.842 96.7402Z" fill="white" stroke="black" stroke-miterlimit="10" stroke-linecap="round"/>
<path d="M134.567 102C134.567 101.74 134.567 101.47 134.567 101.2L134.445 100.4C135.628 101.24 136.754 102.169 137.815 103.18L137.899 104.92C136.772 103.873 135.662 102.9 134.567 102Z" fill="white" stroke="black" stroke-miterlimit="10" stroke-linecap="round"/>
<path d="M97.1149 92.8101L90.6562 128.63" stroke="black" stroke-miterlimit="10" stroke-linecap="round"/>
<path d="M104.216 128.63L97.7578 92.8101" stroke="black" stroke-miterlimit="10" stroke-linecap="round"/>
<path d="M107.895 128.63L101.082 90.8101" stroke="black" stroke-miterlimit="10" stroke-linecap="round"/>
<path d="M95.0234 84.0302L96.7968 74.2002" stroke="black" stroke-miterlimit="10" stroke-linecap="round"/>
<path d="M98.0859 74.2002L99.8593 84.0302" stroke="black" stroke-miterlimit="10" stroke-linecap="round"/>
<path d="M86.9766 128.63L93.7992 90.8101" stroke="black" stroke-miterlimit="10" stroke-linecap="round"/>
<path d="M74.079 88.9999H73.855C73.6396 88.9999 73.4331 88.9082 73.2808 88.7451C73.1285 88.5819 73.043 88.3606 73.043 88.1299V87.9999C73.043 87.7691 73.1285 87.5479 73.2808 87.3847C73.4331 87.2215 73.6396 87.1299 73.855 87.1299H93.063" fill="white"/>
<path d="M74.079 88.9999H73.855C73.6396 88.9999 73.4331 88.9082 73.2808 88.7451C73.1285 88.5819 73.043 88.3606 73.043 88.1299V87.9999C73.043 87.7691 73.1285 87.5479 73.2808 87.3847C73.4331 87.2215 73.6396 87.1299 73.855 87.1299H93.063" stroke="black" stroke-miterlimit="10" stroke-linecap="round"/>
<path d="M74.0898 88.9702H93.0645" stroke="black" stroke-miterlimit="10" stroke-linecap="round"/>
<path d="M74.0781 88.9702H74.0881" stroke="black" stroke-miterlimit="10" stroke-linecap="round"/>
<path d="M120.296 88.9702H101.816" stroke="black" stroke-miterlimit="10" stroke-linecap="round"/>
<ellipse cx="120.299" cy="88.9702" rx="0.466667" ry="0.5" fill="white"/>
<path d="M120.296 88.9999H121.024C121.238 88.9973 121.442 88.9044 121.593 88.7416C121.743 88.5787 121.827 88.3589 121.827 88.1299V87.9999C121.827 87.7709 121.743 87.5511 121.593 87.3882C121.442 87.2253 121.238 87.1325 121.024 87.1299H101.816" fill="white"/>
<path d="M120.296 88.9999H121.024C121.238 88.9973 121.442 88.9044 121.593 88.7416C121.743 88.5787 121.827 88.3589 121.827 88.1299V87.9999C121.827 87.7709 121.743 87.5511 121.593 87.3882C121.442 87.2253 121.238 87.1325 121.024 87.1299H101.816" stroke="black" stroke-miterlimit="10" stroke-linecap="round"/>
<path d="M107.892 128.63H104.215" stroke="black" stroke-miterlimit="10" stroke-linecap="round"/>
<path d="M86.9766 128.63H90.6539" stroke="black" stroke-miterlimit="10" stroke-linecap="round"/>
<path d="M86.9787 128.63H78V134.36H116.873V128.63H107.895" fill="white"/>
<path d="M86.9787 128.63H78V134.36H116.873V128.63H107.895" stroke="black" stroke-miterlimit="10" stroke-linecap="round"/>
<path d="M90.6562 128.63H104.218" stroke="black" stroke-miterlimit="10" stroke-linecap="round"/>
<path d="M101.816 89.0002C101.928 88.3927 101.928 87.7676 101.816 87.1602Z" fill="white"/>
<path d="M101.816 89.0002C101.928 88.3927 101.928 87.7676 101.816 87.1602" stroke="black" stroke-miterlimit="10" stroke-linecap="round"/>
<path d="M97.1133 92.8101H97.4399H97.7573" fill="white"/>
<path d="M97.1133 92.8101H97.4399H97.7573" stroke="black" stroke-miterlimit="10" stroke-linecap="round"/>
<path d="M95.0225 84C94.5179 84.3488 94.0842 84.8031 93.7474 85.3358C93.4106 85.8685 93.1777 86.4685 93.0625 87.1" fill="white"/>
<path d="M95.0225 84C94.5179 84.3488 94.0842 84.8031 93.7474 85.3358C93.4106 85.8685 93.1777 86.4685 93.0625 87.1" stroke="black" stroke-miterlimit="10" stroke-linecap="round"/>
<path d="M95.0234 84.0003C95.7434 83.5013 96.5833 83.2372 97.4408 83.2403C98.3011 83.2382 99.1436 83.502 99.8674 84.0003" fill="white"/>
<path d="M95.0234 84.0003C95.7434 83.5013 96.5833 83.2372 97.4408 83.2403C98.3011 83.2382 99.1436 83.502 99.8674 84.0003" stroke="black" stroke-miterlimit="10" stroke-linecap="round"/>
<path d="M101.818 87.13C101.705 86.4948 101.475 85.8903 101.139 85.3526C100.804 84.8149 100.372 84.3549 99.8672 84" fill="white"/>
<path d="M101.818 87.13C101.705 86.4948 101.475 85.8903 101.139 85.3526C100.804 84.8149 100.372 84.3549 99.8672 84" stroke="black" stroke-miterlimit="10" stroke-linecap="round"/>
<path d="M93.7998 90.81C93.4362 90.27 93.1848 89.6528 93.0625 89Z" fill="white"/>
<path d="M93.7998 90.81C93.4362 90.27 93.1848 89.6528 93.0625 89" stroke="black" stroke-miterlimit="10" stroke-linecap="round"/>
<path d="M97.7578 92.8101C98.4151 92.7603 99.054 92.5551 99.6285 92.2093C100.203 91.8635 100.699 91.3856 101.08 90.8101" fill="white"/>
<path d="M97.7578 92.8101C98.4151 92.7603 99.054 92.5551 99.6285 92.2093C100.203 91.8635 100.699 91.3856 101.08 90.8101" stroke="black" stroke-miterlimit="10" stroke-linecap="round"/>
<path d="M93.0644 89.0002C92.9525 88.3927 92.9525 87.7676 93.0644 87.1602Z" fill="white"/>
<path d="M93.0644 89.0002C92.9525 88.3927 92.9525 87.7676 93.0644 87.1602" stroke="black" stroke-miterlimit="10" stroke-linecap="round"/>
<path d="M101.082 90.8102C101.446 90.2591 101.697 89.6322 101.819 88.9702Z" fill="white"/>
<path d="M101.082 90.8102C101.446 90.2591 101.697 89.6322 101.819 88.9702" stroke="black" stroke-miterlimit="10" stroke-linecap="round"/>
<path d="M97.1141 92.8101C96.4578 92.7616 95.8198 92.557 95.2466 92.211C94.6735 91.865 94.1795 91.3864 93.8008 90.8101" fill="white"/>
<path d="M97.1141 92.8101C96.4578 92.7616 95.8198 92.557 95.2466 92.211C94.6735 91.865 94.1795 91.3864 93.8008 90.8101" stroke="black" stroke-miterlimit="10" stroke-linecap="round"/>
<path d="M98.0849 74.2002C97.8739 74.2553 97.658 74.2855 97.4409 74.2902C97.2237 74.2862 97.0077 74.256 96.7969 74.2002" fill="white"/>
<path d="M98.0849 74.2002C97.8739 74.2553 97.658 74.2855 97.4409 74.2902C97.2237 74.2862 97.0077 74.256 96.7969 74.2002" stroke="black" stroke-miterlimit="10" stroke-linecap="round"/>
<path d="M98.0857 74.2001C98.6902 74.0322 99.2169 73.634 99.567 73.0799C99.9171 72.5258 100.067 71.854 99.9877 71.1903C99.9088 70.5266 99.6066 69.9164 99.1379 69.4742C98.6693 69.032 98.0662 68.7881 97.4417 68.7881C96.8172 68.7881 96.2141 69.032 95.7454 69.4742C95.2767 69.9164 94.9746 70.5266 94.8956 71.1903C94.8166 71.854 94.9662 72.5258 95.3164 73.0799C95.6665 73.634 96.1931 74.0322 96.7977 74.2001" fill="white"/>
<path d="M98.0857 74.2001C98.6902 74.0322 99.2169 73.634 99.567 73.0799C99.9171 72.5258 100.067 71.854 99.9877 71.1903C99.9088 70.5266 99.6066 69.9164 99.1379 69.4742C98.6693 69.032 98.0662 68.7881 97.4417 68.7881C96.8172 68.7881 96.2141 69.032 95.7454 69.4742C95.2767 69.9164 94.9746 70.5266 94.8956 71.1903C94.8166 71.854 94.9662 72.5258 95.3164 73.0799C95.6665 73.634 96.1931 74.0322 96.7977 74.2001" stroke="black" stroke-miterlimit="10" stroke-linecap="round"/>
<path d="M79.8672 106.62L74.0898 88.9702" stroke="black" stroke-miterlimit="10" stroke-linecap="round"/>
<path d="M74.0805 88.9702L68.3125 106.62" stroke="black" stroke-miterlimit="10" stroke-linecap="round"/>
<path d="M66.9492 106.85C67.275 108.59 68.1531 110.156 69.4344 111.28C70.7156 112.405 72.3209 113.02 73.9772 113.02C75.6336 113.02 77.2388 112.405 78.5201 111.28C79.8013 110.156 80.6795 108.59 81.0052 106.85H66.9492Z" fill="white" stroke="black" stroke-miterlimit="10" stroke-linecap="round"/>
<path d="M120.297 88.9702L126.074 106.62" stroke="black" stroke-miterlimit="10" stroke-linecap="round"/>
<path d="M120.297 88.9702L114.52 106.62" stroke="black" stroke-miterlimit="10" stroke-linecap="round"/>
<path d="M120.196 113C121.855 113.001 123.464 112.384 124.746 111.255C126.028 110.126 126.904 108.555 127.224 106.81H113.168C113.488 108.555 114.364 110.126 115.646 111.255C116.928 112.384 118.536 113.001 120.196 113Z" fill="white" stroke="black" stroke-miterlimit="10" stroke-linecap="round"/>
</g>
<path d="M79.2366 280.18L76.3805 182.89C76.3656 182.344 76.453 181.8 76.6375 181.29C76.822 180.781 77.1 180.316 77.455 179.924C77.81 179.531 78.2348 179.219 78.7043 179.006C79.1738 178.792 79.6785 178.681 80.1886 178.68H155.518C156.481 178.68 157.408 179.071 158.113 179.774C158.818 180.478 159.248 181.441 159.317 182.47L165.523 276.09L79.2366 280.18Z" fill="#9C9C9C" stroke="#263238" stroke-miterlimit="10"/>
<path d="M126.586 189.46C126.586 189.46 100.164 198.8 99.9023 200.46C99.641 202.12 95.3477 258.18 95.3477 258.18H189.698L199.965 252.88C194.338 249.55 188.871 245.918 183.585 242C177.341 237.12 174.252 234.89 174.252 234.89L158.898 198.63L138.85 192.08L126.586 189.46Z" fill="#263238" stroke="#263238" stroke-miterlimit="10" stroke-linecap="round"/>
<path d="M158.34 207.31L165.76 258.2" stroke="#949494" stroke-miterlimit="10" stroke-linecap="round"/>
<path d="M199.985 252.9C199.985 252.9 205.967 252.34 207.013 252.76C208.058 253.18 214.946 258.2 214.946 258.2H189.699L199.985 252.9Z" stroke="#263238" stroke-miterlimit="10" stroke-linecap="round"/>
<path d="M205.051 254.16C207.171 255.043 209.051 256.48 210.52 258.34" stroke="#263238" stroke-miterlimit="10" stroke-linecap="round"/>
<path d="M207.262 253.88C207.262 253.88 211.303 255.88 212.862 258.06" stroke="#263238" stroke-miterlimit="10" stroke-linecap="round"/>
<path d="M199.73 255.83C200.466 255.753 201.207 255.753 201.942 255.83C202.876 255.97 204.808 255.97 205.844 256.67C206.88 257.37 205.974 257.67 205.974 257.67" stroke="#263238" stroke-miterlimit="10" stroke-linecap="round"/>
<path d="M124.375 190C124.544 193.114 125.439 196.133 126.979 198.78C129.574 203.38 138.179 216.07 138.179 216.07L142.08 194.46C142.08 194.46 125.934 186.81 124.375 190Z" fill="white" stroke="#263238" stroke-miterlimit="10" stroke-linecap="round"/>
<path d="M125.353 157.64C125.353 157.64 120.014 160.99 117.989 165.34C115.963 169.69 117.251 173.82 119.099 178.34C120.612 181.615 122.6 184.612 124.989 187.22C124.989 187.22 124.055 191.36 125.922 194.52C127.789 197.68 133.286 202.41 136.413 202.21C139.539 202.01 141.574 197.48 141.574 197.48C141.574 197.48 145.251 197.48 147.286 195.7C149.321 193.92 149.489 185.64 149.489 185.64C150.098 185.125 150.519 184.398 150.677 183.584C150.836 182.77 150.722 181.923 150.357 181.19L148.789 178.06C148.789 178.06 149.125 172.22 148.201 169.46C147.277 166.7 144.523 159.4 139.735 157.23C134.947 155.06 128.115 156.06 125.353 157.64Z" fill="#BA8B7A" stroke="#263238" stroke-miterlimit="10" stroke-linecap="round"/>
<path d="M146.223 188.09L148.211 187.51" stroke="#263238" stroke-miterlimit="10" stroke-linecap="round"/>
<path d="M149.48 185.66C148.102 185.875 146.71 185.975 145.317 185.96C144.767 185.76 144.384 183.24 144.384 183.24C143.471 184.444 142.792 185.831 142.387 187.32" stroke="#263238" stroke-miterlimit="10" stroke-linecap="round"/>
<path d="M132.819 156.65C133.539 156.503 134.25 156.31 134.947 156.07C131.149 155.74 127.275 156.54 125.353 157.64C125.353 157.64 120.014 160.99 117.989 165.34C115.963 169.69 117.251 173.82 119.099 178.34C120.577 181.562 122.524 184.512 124.867 187.08L126.855 185.13L125.371 180.68L127.817 179.89C127.817 179.89 130.906 178.75 130.906 177.61C130.906 176.47 130.047 176.12 130.579 175.21C131.111 174.3 134.098 173.5 133.669 170.42C133.239 167.34 130.159 163.58 128.778 162.79C127.397 162 125.689 162.1 126.435 160.85C127.182 159.6 131.438 156.88 132.819 156.65Z" fill="#DBDBDB" stroke="#263238" stroke-miterlimit="10" stroke-linecap="round"/>
<path d="M129.518 180.7C129.518 180.7 126.541 175.35 124.198 176.6C121.856 177.85 123.666 184.6 125.374 186.06C127.082 187.52 128.566 185.95 129.108 185.61" fill="#BA8B7A"/>
<path d="M129.518 180.7C129.518 180.7 126.541 175.35 124.198 176.6C121.856 177.85 123.666 184.6 125.374 186.06C127.082 187.52 128.566 185.95 129.108 185.61" stroke="#263238" stroke-miterlimit="10" stroke-linecap="round"/>
<path d="M143.246 174.43C142.169 174.157 141.049 174.138 139.965 174.374C138.88 174.611 137.857 175.097 136.965 175.8" stroke="#263238" stroke-miterlimit="10" stroke-linecap="round"/>
<path d="M148.779 178.08L146.969 173.52L148.565 172.72" stroke="#263238" stroke-miterlimit="10" stroke-linecap="round"/>
<path d="M141.119 179.22C141.588 179.22 141.968 178.531 141.968 177.68C141.968 176.83 141.588 176.14 141.119 176.14C140.65 176.14 140.27 176.83 140.27 177.68C140.27 178.531 140.65 179.22 141.119 179.22Z" fill="#263238"/>
<path d="M141.564 197.5C137.962 197.65 132.819 194.38 131.755 193.24C130.945 192.088 130.364 190.771 130.047 189.37" stroke="#263238" stroke-miterlimit="10" stroke-linecap="round"/>
<path d="M143.879 178.88C143.259 179.736 142.504 180.471 141.648 181.05" stroke="#263238" stroke-miterlimit="10" stroke-linecap="round"/>
<path d="M144.526 192C144.526 192 136.864 195 136.761 196.1C136.658 197.2 136.332 209.67 136.332 209.67L130.797 223.24L135.37 236.35L143.462 210.35C144.203 209.929 144.882 209.393 145.478 208.76C146.405 207.071 147.225 205.317 147.933 203.51C147.933 203.51 147.933 207.28 148.568 207.16C148.908 207.11 149.221 206.935 149.454 206.665C149.687 206.395 149.826 206.047 149.846 205.68C149.949 204.77 149.949 200.55 149.949 200.55C149.949 200.55 145.478 196.1 145.058 195.99C144.638 195.88 143.033 196.1 142.501 195.99C141.969 195.88 145.161 194.39 145.161 194.39C145.161 194.39 147.186 195.31 147.961 194.62C148.736 193.93 148.278 193.37 147.317 192.91C146.453 192.409 145.504 192.1 144.526 192Z" fill="#BA8B7A" stroke="#263238" stroke-miterlimit="10" stroke-linecap="round"/>
<path d="M142.499 195.98L138.672 197.69" stroke="#263238" stroke-miterlimit="10" stroke-linecap="round"/>
<path d="M145.693 196.78L139.523 199.97" stroke="#263238" stroke-miterlimit="10" stroke-linecap="round"/>
<path d="M148.034 199.17L143.992 201.22" stroke="#263238" stroke-miterlimit="10" stroke-linecap="round"/>
<path d="M109.274 206.05C111.082 209.761 112.69 213.581 114.09 217.49C115.527 221.95 117.478 230.31 117.478 230.31L131.534 219.31L138.562 257.93L90.7656 258.21L99.651 205.65" fill="#263238"/>
<path d="M109.274 206.05C111.082 209.761 112.69 213.581 114.09 217.49C115.527 221.95 117.478 230.31 117.478 230.31L131.534 219.31L138.562 257.93L90.7656 258.21L99.651 205.65" stroke="#263238" stroke-miterlimit="10" stroke-linecap="round"/>
<path d="M116.327 231.38L104.371 240.7" stroke="#949494" stroke-miterlimit="10" stroke-linecap="round"/>
<path d="M104.551 234.88L112.885 233.52" stroke="#949494" stroke-miterlimit="10" stroke-linecap="round"/>
<path d="M112.41 213.81L116.33 231.38L131.898 220.4" stroke="#949494" stroke-miterlimit="10" stroke-linecap="round"/>
<path d="M135.367 236.34L138.559 257.92" stroke="#949494" stroke-miterlimit="10" stroke-linecap="round"/>
<path d="M40.2174 424.16H81.3867L81.3867 264.46H40.2174L40.2174 424.16Z" fill="#9C9C9C" stroke="#263238" stroke-miterlimit="10"/>
<path d="M297.22 264.46H81.3867V424.16H297.22V264.46Z" fill="#C7C7C7" stroke="#263238" stroke-miterlimit="10"/>
<path d="M262.853 264.46H115.75V424.16H262.853V264.46Z" fill="#C7C7C7" stroke="#263238" stroke-miterlimit="10"/>
<path d="M257.608 264.46H120.996V424.16H257.608V264.46Z" fill="#C7C7C7" stroke="#263238" stroke-miterlimit="10"/>
<path d="M252.017 264.46H126.586V424.16H252.017V264.46Z" fill="#C7C7C7" stroke="#263238" stroke-miterlimit="10"/>
<path d="M247.292 264.46H131.316V424.16H247.292V264.46Z" fill="#C7C7C7" stroke="#263238" stroke-miterlimit="10"/>
<path d="M143.451 300.32C143.207 300.32 142.964 300.3 142.723 300.26V388.09C142.964 388.05 143.207 388.03 143.451 388.03C144.953 388.03 146.394 388.67 147.457 389.808C148.519 390.946 149.116 392.49 149.116 394.1C149.121 394.19 149.121 394.28 149.116 394.37H230.251C230.246 394.28 230.246 394.19 230.251 394.1C230.251 392.49 230.848 390.946 231.91 389.808C232.972 388.67 234.413 388.03 235.916 388.03V300.32C234.413 300.32 232.972 299.68 231.91 298.542C230.848 297.404 230.251 295.86 230.251 294.25H149.116C149.116 295.047 148.969 295.836 148.685 296.573C148.4 297.309 147.983 297.978 147.457 298.542C146.931 299.106 146.306 299.553 145.619 299.858C144.931 300.163 144.195 300.32 143.451 300.32Z" stroke="#263238" stroke-miterlimit="10" stroke-linecap="round"/>
<path d="M308.045 258.05H33.3555V270.44H308.045V258.05Z" fill="#9C9C9C" stroke="#263238" stroke-miterlimit="10"/>
<path d="M304.303 258.05H70.6992V270.44H304.303V258.05Z" fill="#C7C7C7" stroke="#263238" stroke-miterlimit="10"/>
<path d="M240.951 174C240.951 174 238.767 166.82 237.367 164.81C235.967 162.8 233.634 162.31 231.767 160.97C229.9 159.63 227.1 158.46 227.558 161.14C228.015 163.82 231.459 164.65 231.459 164.65L221.192 167.82C221.192 167.82 213.39 169.66 214.659 171.66C215.928 173.66 219.186 173 223.236 174.17C226.043 174.889 228.932 175.172 231.814 175.01L233.68 179.01L240.382 177.33L240.951 174Z" fill="#D6B3A6" stroke="#263238" stroke-miterlimit="10" stroke-linecap="round"/>
<path d="M234.399 170.53C233.161 170.339 231.903 170.339 230.665 170.53C228.799 170.87 226.764 171.37 226.764 171.37C226.764 171.37 220.231 166.52 219.596 167.69C218.961 168.86 222.088 171.2 223.021 172.04C223.955 172.88 224.113 173.54 226.456 174.21C228.197 174.655 229.971 174.936 231.757 175.05" fill="#D6B3A6"/>
<path d="M234.399 170.53C233.161 170.339 231.903 170.339 230.665 170.53C228.799 170.87 226.764 171.37 226.764 171.37C226.764 171.37 220.231 166.52 219.596 167.69C218.961 168.86 222.088 171.2 223.021 172.04C223.955 172.88 224.113 173.54 226.456 174.21C228.197 174.655 229.971 174.936 231.757 175.05" stroke="#263238" stroke-miterlimit="10" stroke-linecap="round"/>
<path d="M243.76 179.56L240.951 174.04L231.281 178.72L233.465 185.24L243.76 179.56Z" fill="white" stroke="#263238" stroke-miterlimit="10" stroke-linecap="round"/>
<path d="M263.77 266.55C263.77 266.55 264.227 339.02 267.718 366.16C271.209 393.3 271.209 403.51 271.209 403.51C271.209 403.51 269.342 405.25 269.575 406.75C269.809 408.25 270.042 410.98 270.042 410.98C268.218 413.8 266.016 416.317 263.509 418.45C259.775 421.45 256.303 421.45 259.327 423.45C262.351 425.45 274.195 424.45 276.986 423.7C278.721 423.229 280.429 422.648 282.101 421.96L282.334 423.96L287.449 423.21C287.801 421.494 287.955 419.737 287.906 417.98V411.98C287.906 411.98 288.839 405.98 288.839 404.51C288.839 403.04 287.682 400.51 288.839 396.04C289.997 391.57 292.134 346.73 292.134 346.73L297.939 296.93L308.635 358.69L315.841 406.5C315.841 406.5 315.141 409.73 316.065 410.73C316.925 411.96 317.631 413.304 318.165 414.73C318.165 414.73 317.931 419.21 318.622 419.95C319.313 420.69 320.946 421.2 322.813 421.7C323.875 421.996 324.964 422.163 326.061 422.2L328.385 420.45C329.158 421.226 330.017 421.897 330.942 422.45C332.566 423.45 339.538 424.45 341.862 424.45C344.186 424.45 347.91 424.7 346.977 422.21C346.043 419.72 342.795 418.21 341.171 417.21C339.547 416.21 333.266 411.73 332.771 410.98C332.277 410.23 332.771 408.24 332.314 406.5C331.857 404.76 330.447 403.26 330.447 402.02C330.447 400.78 330.914 340.26 330.914 339.26C330.914 338.26 330.214 269.04 330.214 269.04L263.77 266.55Z" fill="#263238" stroke="#263238" stroke-miterlimit="10" stroke-linecap="round"/>
<path d="M292.685 155.36L260.606 170.36L251.861 198.27L243.461 178.27L231.02 184.52C231.02 184.52 239.42 213.06 241.716 220.34C244.012 227.62 246.961 232.63 249.686 232.84C252.412 233.05 263.873 221.84 263.873 221.84L260.569 269.95C260.569 269.95 275.148 279.12 288.952 279.74C302.756 280.36 320.05 278.91 323.354 277.24C326.658 275.57 332.296 273.08 332.296 273.08L330.55 223.72C330.55 223.72 338.904 229.97 341.05 228.51C343.197 227.05 358.737 191.23 358.737 191.23L351.737 177.69L337.97 196C337.97 196 331.754 171 331.362 170.17C331.026 169.511 330.635 168.886 330.196 168.3L305.117 155.59L292.685 155.36Z" fill="#FF880D" stroke="#263238" stroke-miterlimit="10" stroke-linecap="round"/>
<path d="M263.911 221.8L264.928 184.38L262.371 174.42" stroke="#263238" stroke-miterlimit="10" stroke-linecap="round"/>
<path d="M337.973 195.98L332.793 204.55" stroke="#263238" stroke-miterlimit="10" stroke-linecap="round"/>
<path d="M251.863 198.27L257.958 208.78" stroke="#263238" stroke-miterlimit="10" stroke-linecap="round"/>
<path d="M330.587 223.68L329.309 191.85V176.16" stroke="#263238" stroke-miterlimit="10" stroke-linecap="round"/>
<path d="M285.152 158.73L282.128 173.42L289.333 176.91L280.504 181.91C280.504 181.91 280.961 184.4 290.491 196.6C300.02 208.8 302.811 212.79 302.811 212.79" stroke="#263238" stroke-miterlimit="10" stroke-linecap="round"/>
<path d="M316.292 162.47L319.782 170.68L314.182 175.91L321.388 183.91C321.388 183.91 310.934 211.8 300.238 221.51" stroke="#263238" stroke-miterlimit="10" stroke-linecap="round"/>
<path d="M290.586 155C290.586 155 290.847 156.68 291.631 160.87C292.415 165.06 305.043 204.54 305.043 204.54C305.043 204.54 309.337 177.75 310.251 170.49C310.818 166.317 310.73 162.072 309.99 157.93L290.586 155Z" fill="white" stroke="#263238" stroke-miterlimit="10" stroke-linecap="round"/>
<path d="M298.922 172.6L302.702 177.62L299.967 188.09L305.045 204.55L307.91 187.53L305.175 177.2L307.387 171.62L303.477 165.9L298.922 172.6Z" fill="#263238" stroke="#263238" stroke-miterlimit="10" stroke-linecap="round"/>
<path d="M309.99 157.94L290.586 155C290.586 155 290.847 156.68 291.631 160.87C291.93 162.47 293.955 169.23 296.354 176.97L296.839 177.33L303.606 169.8L309.206 176.35L309.467 176.08C309.813 173.76 310.083 171.81 310.251 170.49C310.817 166.32 310.729 162.079 309.99 157.94Z" fill="white" stroke="#263238" stroke-miterlimit="10" stroke-linecap="round"/>
<path d="M290.324 149.99L290.847 156.41L303.606 169.81L308.823 161.57L309.206 155.29L290.324 149.99Z" fill="#D6B3A6" stroke="#263238" stroke-miterlimit="10" stroke-linecap="round"/>
<path d="M292.024 118.11C292.024 118.11 286.246 120.99 285.985 125.59C285.907 128.892 286.268 132.188 287.058 135.38C287.058 135.38 283.428 136.68 283.969 139.99C284.51 143.3 284.37 144.16 285.444 144.59C286.517 145.02 288.132 145.59 288.132 145.59C288.161 147.689 288.667 149.748 289.606 151.59C291.09 154.04 298.342 160.52 302.104 160.95C304.571 161.155 307.05 160.762 309.356 159.8C309.356 159.8 313.92 153.03 314.592 150.59C315.264 148.15 317.28 137.34 316.608 131.01C315.936 124.68 314.06 120.65 309.626 118.49C305.193 116.33 299.817 114.8 292.024 118.11Z" fill="#D6B3A6" stroke="#263238" stroke-miterlimit="10" stroke-linecap="round"/>
<path d="M293.507 127.75C293.367 124.87 291.892 124.15 292.293 122C292.695 119.85 292.293 118.83 296.857 117.25C298.082 116.838 299.329 116.504 300.591 116.25C297.654 116.286 294.752 116.928 292.041 118.14C292.041 118.14 286.264 121.02 286.003 125.62C285.924 128.921 286.286 132.218 287.076 135.41C287.076 135.41 288.691 136.27 288.943 137.14C289.195 138.01 289.344 138.72 289.876 138.58C290.408 138.44 291.089 138 290.809 135.7C290.645 133.785 290.598 131.861 290.669 129.94C290.669 129.94 293.637 130.63 293.507 127.75Z" fill="#263238" stroke="#263238" stroke-miterlimit="10" stroke-linecap="round"/>
<path d="M308.281 133.8L308.01 135.52L308.953 145.31L305.191 145.6" stroke="#263238" stroke-miterlimit="10" stroke-linecap="round"/>
<path d="M309.086 150.64C306.418 150.053 303.658 150.149 301.031 150.92C301.031 150.92 306.137 154 309.086 150.64Z" stroke="#263238" stroke-miterlimit="10" stroke-linecap="round"/>
<path d="M303.038 133.94C303.038 133.94 299.547 131.94 296.598 132.94" stroke="#263238" stroke-miterlimit="10" stroke-linecap="round"/>
<path d="M309.758 133.8C310.455 133.284 311.249 132.938 312.085 132.788C312.92 132.637 313.776 132.686 314.592 132.93" stroke="#263238" stroke-miterlimit="10" stroke-linecap="round"/>
<path d="M301.832 138.27C301.832 139.27 301.384 140 300.824 140C300.264 140 299.816 139.23 299.816 138.27C299.816 137.31 300.264 136.53 300.824 136.53C301.384 136.53 301.832 137.31 301.832 138.27Z" fill="#263238"/>
<path d="M312.379 138.27C312.379 139.27 311.922 140 311.371 140C310.821 140 310.363 139.23 310.363 138.27C310.363 137.31 310.811 136.53 311.371 136.53C311.931 136.53 312.379 137.31 312.379 138.27Z" fill="#263238"/>
<path d="M302.104 140.42C301.035 141.579 299.768 142.506 298.371 143.15" stroke="#263238" stroke-miterlimit="10" stroke-linecap="round"/>
<path d="M309.625 140.85C310.484 141.609 311.492 142.149 312.574 142.43" stroke="#263238" stroke-miterlimit="10" stroke-linecap="round"/>
<path d="M285.602 138.69C285.602 138.69 286.264 137.39 287.207 137.97C287.866 138.476 288.38 139.169 288.691 139.97C288.691 139.97 286.675 140.4 287.076 141.69L288.551 142.27" stroke="#263238" stroke-miterlimit="10" stroke-linecap="round"/>
<path d="M350.122 163.68C350.122 163.68 349.338 159 349.814 157.83C350.29 156.66 351.68 154.83 351.988 153.16C352.296 151.49 354.723 150.82 355.115 152.49C355.507 154.16 353.864 159.09 353.864 159.09V162L350.122 163.68Z" fill="#D6B3A6" stroke="#263238" stroke-miterlimit="10" stroke-linecap="round"/>
<path d="M381.155 159.51H348.871V205.63H381.155V159.51Z" fill="#FAFAFA" stroke="#263238" stroke-miterlimit="10" stroke-linecap="round"/>
<path d="M355.669 154.16H355.342C354.527 154.16 353.867 154.868 353.867 155.74V159.26C353.867 160.133 354.527 160.84 355.342 160.84H355.669C356.483 160.84 357.143 160.133 357.143 159.26V155.74C357.143 154.868 356.483 154.16 355.669 154.16Z" fill="#D6B3A6" stroke="#263238" stroke-miterlimit="10" stroke-linecap="round"/>
<path d="M359.251 153.99H358.924C358.109 153.99 357.449 154.698 357.449 155.57V159.09C357.449 159.963 358.109 160.67 358.924 160.67H359.251C360.065 160.67 360.725 159.963 360.725 159.09V155.57C360.725 154.698 360.065 153.99 359.251 153.99Z" fill="#D6B3A6" stroke="#263238" stroke-miterlimit="10" stroke-linecap="round"/>
<path d="M362.844 155.32H362.518C361.703 155.32 361.043 156.028 361.043 156.9V158.59C361.043 159.463 361.703 160.17 362.518 160.17H362.844C363.659 160.17 364.319 159.463 364.319 158.59V156.9C364.319 156.028 363.659 155.32 362.844 155.32Z" fill="#D6B3A6" stroke="#263238" stroke-miterlimit="10" stroke-linecap="round"/>
<path d="M366.586 155.75H366.26C365.445 155.75 364.785 156.457 364.785 157.33V159.02C364.785 159.893 365.445 160.6 366.26 160.6H366.586C367.401 160.6 368.061 159.893 368.061 159.02V157.33C368.061 156.457 367.401 155.75 366.586 155.75Z" fill="#D6B3A6" stroke="#263238" stroke-miterlimit="10" stroke-linecap="round"/>
<path d="M353.242 168.36H377.257" stroke="#263238" stroke-miterlimit="10" stroke-linecap="round"/>
<path d="M353.242 174.54H377.257" stroke="#263238" stroke-miterlimit="10" stroke-linecap="round"/>
<path d="M353.242 180.73H377.257" stroke="#263238" stroke-miterlimit="10" stroke-linecap="round"/>
<path d="M353.242 186.91H377.257" stroke="#263238" stroke-miterlimit="10" stroke-linecap="round"/>
<path d="M353.242 193.09H377.257" stroke="#263238" stroke-miterlimit="10" stroke-linecap="round"/>
<path d="M324.119 311H318.668V424.98H324.119V311Z" fill="#9C9C9C" stroke="#263238" stroke-miterlimit="10"/>
<path d="M327.882 311H322.422V424.98H327.882V311Z" fill="#9C9C9C" stroke="#263238" stroke-miterlimit="10"/>
<path d="M356.179 311H350.719V424.98H356.179V311Z" fill="#9C9C9C" stroke="#263238" stroke-miterlimit="10"/>
<path d="M359.923 311H354.473V424.98H359.923V311Z" fill="#C7C7C7" stroke="#263238" stroke-miterlimit="10"/>
<path d="M525.638 311H520.188V424.98H525.638V311Z" fill="#9C9C9C" stroke="#263238" stroke-miterlimit="10"/>
<path d="M529.38 311H523.93V424.98H529.38V311Z" fill="#C7C7C7" stroke="#263238" stroke-miterlimit="10"/>
<path d="M583.941 311H578.48V424.98H583.941V311Z" fill="#9C9C9C" stroke="#263238" stroke-miterlimit="10"/>
<path d="M587.685 311H582.234V424.98H587.685V311Z" fill="#C7C7C7" stroke="#263238" stroke-miterlimit="10"/>
<path d="M599.062 296.73H308.926V301.8H599.062V296.73Z" fill="#9C9C9C" stroke="#263238" stroke-miterlimit="10"/>
<path d="M599.052 296.73H364.02V301.8H599.052V296.73Z" fill="#C7C7C7" stroke="#263238" stroke-miterlimit="10"/>
<path d="M594.17 301.84H316.625V311.65H594.17V301.84Z" fill="#9C9C9C" stroke="#263238" stroke-miterlimit="10"/>
<path d="M594.171 301.84H360.613V311.65H594.171V301.84Z" fill="#C7C7C7" stroke="#263238" stroke-miterlimit="10"/>
<path d="M525.999 409.43C525.999 409.43 523.843 414.55 522.76 415.37C521.678 416.19 518.756 417.37 518.448 418.84C518.14 420.31 517.375 422.47 518.915 423.29C520.455 424.11 530.115 425.11 530.115 425.11C530.115 425.11 539.047 425.27 541.203 424.61C543.359 423.95 542.902 421.81 542.594 418.18C542.421 416.055 542.059 413.952 541.511 411.9L525.999 409.43Z" fill="white" stroke="#263238" stroke-miterlimit="10" stroke-linecap="round"/>
<path d="M540.019 422.3C538.153 422.3 529.855 422.63 528.623 422.63C527.391 422.63 518.002 421.48 518.002 421.48C517.965 421.848 518.035 422.219 518.202 422.543C518.369 422.867 518.625 423.128 518.935 423.29C520.475 424.12 530.135 425.11 530.135 425.11C530.135 425.11 539.067 425.27 541.223 424.61C542.492 424.22 542.857 423.31 542.875 421.89C541.936 422.113 540.98 422.25 540.019 422.3Z" fill="white" stroke="#263238" stroke-miterlimit="10" stroke-linecap="round"/>
<path d="M527.234 418.67L528.009 424.61" stroke="#263238" stroke-miterlimit="10" stroke-linecap="round"/>
<path d="M518.234 345.17L527.082 404.48C527.082 404.48 524.768 405.63 524.768 406.29V410.58C527.114 413.069 530.041 414.837 533.242 415.7C538.628 417.19 541.558 415.7 542.174 415.37C542.79 415.04 542.79 409.1 542.79 409.1C542.79 409.1 542.333 401.18 542.482 399.69C542.632 398.2 542.109 346.99 542.109 346.99L518.234 345.17Z" fill="#263238" stroke="#263238" stroke-miterlimit="10" stroke-linecap="round"/>
<path d="M495.845 280.78C495.845 280.78 495.042 284.26 495.845 285.4C496.648 286.54 497.712 288.8 498.505 289.14C499.298 289.48 499.849 288.4 499.69 287.59C499.347 286.233 498.932 284.898 498.449 283.59C497.635 282.598 496.765 281.66 495.845 280.78Z" fill="#FDD8BA" stroke="#263238" stroke-miterlimit="10" stroke-linecap="round"/>
<path d="M497.899 276.26C497.899 276.26 495.314 279.95 495.846 280.78C496.378 281.61 498.45 285.72 498.991 286.15C499.532 286.58 500.139 287.91 500.746 286.94C501.043 286.354 501.199 285.697 501.199 285.03C501.199 284.363 501.043 283.706 500.746 283.12C500.148 281.79 499.514 276.64 499.514 276.64L497.899 276.26Z" fill="#FDD8BA" stroke="#263238" stroke-miterlimit="10" stroke-linecap="round"/>
<path d="M504.004 271.83C504.004 271.83 497.872 275.15 497.918 276.26C498.163 278.497 498.607 280.704 499.244 282.85C499.673 283.77 500.625 285.72 501.362 285.96C502.1 286.2 502.912 284.83 502.473 284.11C501.962 282.814 501.547 281.476 501.232 280.11L502.996 275.88L504.004 271.83Z" fill="#FDD8BA" stroke="#263238" stroke-miterlimit="10" stroke-linecap="round"/>
<path d="M506.57 270.65C505.558 270.994 504.58 271.443 503.649 271.99C502.631 272.43 502.062 272.36 501.353 274.89C501.353 274.89 499.411 280.55 498.973 282.13C498.534 283.71 498.487 284.72 500.205 284C501.922 283.28 503.443 278.33 503.938 277.85C503.938 277.85 507.027 277.85 508.605 276.97C510.182 276.09 512.655 274.15 511.601 272.49C511.022 271.69 510.237 271.09 509.342 270.763C508.448 270.436 507.485 270.396 506.57 270.65Z" fill="#FDD8BA" stroke="#263238" stroke-miterlimit="10" stroke-linecap="round"/>
<path d="M494.884 405C494.884 405 489.648 412.43 488.565 413.25C487.483 414.07 478.868 416.89 477.935 417.71C477.001 418.53 477.477 421.01 477.785 421.51C478.093 422.01 483.18 423.98 493.493 424.31C503.807 424.64 511.059 424.48 513.093 423.98C515.128 423.48 514.96 421.34 515.091 418.21C515.057 415.11 514.802 412.018 514.325 408.96L494.884 405Z" fill="white" stroke="#263238" stroke-miterlimit="10" stroke-linecap="round"/>
<path d="M514.967 420.28C508.78 421.738 502.418 422.143 496.113 421.48C487.209 420.7 480.088 419.63 477.447 419.19C477.4 419.975 477.532 420.761 477.829 421.48C478.137 421.97 483.224 423.95 493.547 424.28C503.869 424.61 511.103 424.45 513.147 423.95C514.575 423.58 514.855 422.26 514.967 420.28Z" fill="white" stroke="#263238" stroke-miterlimit="10" stroke-linecap="round"/>
<path d="M525.169 313.49C525.169 313.49 520.699 313.65 520.083 314.64C519.295 315.86 518.575 317.129 517.927 318.44C517.768 318.93 507.296 318.27 494.201 320.25C481.107 322.23 472.175 325.04 471.867 331.15C471.559 337.26 492.727 388.8 492.727 388.8L496.46 401.01L493.847 402.83L494.155 407.94C494.155 407.94 500.156 412.23 503.544 412.73C506.932 413.23 514.175 414.38 514.744 413.55C515.313 412.72 515.827 410.25 515.976 408.93C516.125 407.61 513.979 401.51 513.512 398.2C513.027 395.187 512.36 392.211 511.515 389.29C511.207 388.29 502.359 347.82 502.359 347.82C502.359 347.82 560.281 350.95 564.892 350.29C569.503 349.63 574.767 345 575.868 342.37C576.969 339.74 577.557 332.96 576.176 326.19C574.795 319.42 574.309 316.62 574.309 316.62L527.643 311.01L525.169 313.49Z" fill="#263238" stroke="#263238" stroke-miterlimit="10" stroke-linecap="round"/>
<path d="M524.797 328.61C525.436 329.769 526.18 330.857 527.018 331.86" stroke="#949494" stroke-miterlimit="10" stroke-linecap="round"/>
<path d="M519.469 318.16C519.469 318.16 521.279 322.1 523.258 325.84" stroke="#949494" stroke-miterlimit="10" stroke-linecap="round"/>
<path d="M517.77 319C517.77 319 519.636 327.91 520.7 329.56" stroke="#949494" stroke-miterlimit="10" stroke-linecap="round"/>
<path d="M502.369 347.82C502.369 347.82 494.818 347.54 491.887 346.55C488.957 345.56 484.188 341.1 484.188 341.1" stroke="#263238" stroke-miterlimit="10" stroke-linecap="round"/>
<path d="M510.219 301.82L525.684 295.92L532.273 297.79L531.303 275.78L510.219 301.82Z" fill="#263238" stroke="#263238" stroke-miterlimit="10" stroke-linecap="round"/>
<path d="M541.036 241.25C541.036 241.25 523.162 250 522.546 251C521.93 252 515.92 265.52 515.92 265.52C515.92 265.52 502.676 282.19 500.828 288.3C498.98 294.41 500.053 300.3 502.984 301.5C505.914 302.7 508.836 302.5 510.226 301.83C511.617 301.16 520.698 294.07 520.698 294.07L529.014 286C529.014 286 528.081 298.87 527.148 302.34C526.214 305.81 521.912 313.72 524.068 316.53C526.224 319.34 538.702 323.3 541.633 323.96C544.564 324.62 562.885 328.58 567.197 326.76C571.509 324.94 574.132 321.15 575.522 318.68C576.913 316.21 579.256 307.95 580.189 302.34C581.122 296.73 586.041 272.46 586.657 266.34C587.273 260.22 587.273 248.19 584.968 244.56C582.662 240.93 572.946 238.95 572.946 238.95C562.349 236.099 551.182 236.904 541.036 241.25Z" fill="#FF880D" stroke="#263238" stroke-miterlimit="10" stroke-linecap="round"/>
<path d="M541.651 198.17C541.651 198.17 536.873 206.92 537.181 208.24C537.452 209.145 537.504 210.108 537.33 211.04C537.181 211.7 532.253 216.49 532.561 217.64C532.869 218.79 535.949 221.11 535.949 221.11C535.949 221.11 535.174 230.85 535.333 231.67C535.491 232.49 535.79 234.48 537.33 234.81C538.87 235.14 545.039 233.49 545.039 233.49L544.573 237.62L566.45 235.14L567.066 229.36C567.066 229.36 575.382 214.67 576.306 210.22C577.23 205.77 573.842 198 570.454 195.22C567.066 192.44 557.826 187.46 554.895 187.79C551.965 188.12 543.695 190.79 543.695 190.79C543.695 190.79 540.307 187.79 539.85 189.64C539.581 190.784 539.633 191.988 539.999 193.1C539.999 193.1 535.529 191.1 536.611 193.43C537.694 195.76 537.843 197.23 538.917 197.43C539.844 197.602 540.759 197.85 541.651 198.17Z" fill="#FDD8BA" stroke="#263238" stroke-miterlimit="10" stroke-linecap="round"/>
<path d="M570.457 195.2C567.069 192.39 557.829 187.44 554.898 187.77C551.968 188.1 543.698 190.77 543.698 190.77C543.698 190.77 540.31 187.77 539.853 189.62C539.584 190.764 539.636 191.968 540.002 193.08C540.002 193.08 535.532 191.08 536.614 193.41C537.697 195.74 537.846 197.21 538.92 197.41C539.872 197.608 540.808 197.886 541.72 198.24C541.72 198.24 547.88 197.24 547.105 198.57C546.33 199.9 542.644 204.02 543.876 205.5C545.108 206.98 549.261 208.64 549.261 208.64C549.261 208.64 546.956 213.75 547.394 214.58C547.833 215.41 549.709 215.9 549.709 215.9C549.709 215.9 552.509 209.96 553.713 211.11C554.917 212.26 557.26 218.38 556.513 220.52C555.766 222.66 552.042 224.65 552.042 224.65C552.042 224.65 555.776 230.92 558.977 231.08C562.178 231.24 567.144 229.43 567.144 229.43C567.144 229.43 575.46 214.74 576.384 210.29C577.308 205.84 573.845 198 570.457 195.2Z" fill="#263238" stroke="#263238" stroke-miterlimit="10" stroke-linecap="round"/>
<path d="M537.184 208.24C537.184 208.24 539.498 206.09 540.917 207.58" stroke="#263238" stroke-miterlimit="10" stroke-linecap="round"/>
<path d="M540.113 211.37C540.113 212.28 539.796 213.02 539.413 213.02C539.031 213.02 538.723 212.28 538.723 211.37C538.723 210.46 539.031 209.72 539.413 209.72C539.796 209.72 540.113 210.46 540.113 211.37Z" fill="#263238"/>
<path d="M568.609 233.16C568.609 233.16 554.898 233.82 551.043 234.48C547.189 235.14 541.803 236.48 541.803 236.48L537.641 243.58C537.641 243.58 550.427 240.77 557.054 239.95C563.681 239.13 572.921 238.95 572.921 238.95L568.609 233.16Z" fill="#FF880D" stroke="#263238" stroke-miterlimit="10" stroke-linecap="round"/>
<path d="M536.1 277.56L529.016 285.98L536.1 282.01" stroke="#263238" stroke-miterlimit="10" stroke-linecap="round"/>
<path d="M526.242 253C526.242 253 531.329 258.77 533.177 264.71" stroke="#263238" stroke-miterlimit="10" stroke-linecap="round"/>
<path d="M596.804 351L599.903 423C599.91 423.188 599.882 423.375 599.82 423.55C599.759 423.726 599.664 423.886 599.543 424.022C599.422 424.157 599.276 424.265 599.115 424.339C598.954 424.412 598.78 424.45 598.605 424.45C598.286 424.449 597.979 424.32 597.744 424.089C597.51 423.857 597.364 423.54 597.336 423.2L590.504 351.2L596.804 351Z" fill="white" stroke="#263238" stroke-miterlimit="10" stroke-linecap="round"/>
<path d="M557.669 351L560.767 423C560.775 423.187 560.747 423.373 560.686 423.548C560.625 423.723 560.531 423.883 560.411 424.018C560.291 424.154 560.146 424.262 559.986 424.336C559.826 424.41 559.654 424.449 559.479 424.45C559.158 424.452 558.847 424.324 558.609 424.093C558.371 423.861 558.222 423.543 558.191 423.2L551.359 351.2L557.669 351Z" fill="white" stroke="#263238" stroke-miterlimit="10" stroke-linecap="round"/>
<path d="M513.009 351L509.92 423C509.911 423.187 509.937 423.374 509.998 423.55C510.059 423.725 510.152 423.886 510.273 424.021C510.393 424.157 510.538 424.265 510.699 424.339C510.86 424.412 511.033 424.45 511.208 424.45C511.529 424.449 511.838 424.321 512.076 424.09C512.314 423.859 512.463 423.542 512.496 423.2L519.318 351.2L513.009 351Z" fill="white" stroke="#263238" stroke-miterlimit="10" stroke-linecap="round"/>
<path d="M553.619 351L550.521 423C550.513 423.187 550.541 423.373 550.602 423.548C550.663 423.723 550.757 423.883 550.877 424.018C550.997 424.154 551.142 424.262 551.302 424.336C551.462 424.41 551.634 424.449 551.809 424.45C552.13 424.452 552.441 424.324 552.679 424.093C552.917 423.861 553.066 423.543 553.097 423.2L559.929 351.2L553.619 351Z" fill="white" stroke="#263238" stroke-miterlimit="10" stroke-linecap="round"/>
<path d="M604.373 280.16H550.24C550.24 280.16 544.584 340.71 544.257 346.09C543.931 351.47 509.603 347.41 509.603 347.41L509.117 351.41C509.117 351.41 550.259 357.41 567.488 357.41C584.717 357.41 599.483 355.9 601.947 350.62C604.411 345.34 604.373 280.16 604.373 280.16Z" fill="#9C9C9C" stroke="#263238" stroke-miterlimit="10"/>
<path d="M395.444 320C395.444 320 386.465 320 384.244 323.41C382.023 326.82 382.004 333.03 384.431 336.84C386.857 340.65 411.367 401.18 411.367 401.18C411.367 401.18 405.001 414.01 403.9 415.41C401.871 417.557 399.612 419.44 397.171 421.02C395.668 421.83 395.668 422.63 396.975 423.43C398.281 424.23 416.995 423.43 416.995 423.43C418.206 422.709 419.285 421.756 420.177 420.62C421.297 419.02 427.093 407.8 427.644 405.62C428.195 403.44 425.208 398.62 423.911 397.4C423.104 396.728 422.407 395.917 421.848 395C421.475 394.4 407.073 345.69 407.073 345.69L395.444 320Z" fill="#FDD8BA" stroke="#263238" stroke-miterlimit="10" stroke-linecap="round"/>
<path d="M416.018 399.35C414.42 403.194 412.409 406.826 410.026 410.17C407.226 413.98 404.976 417.59 404.426 417.79C403.489 417.834 402.55 417.77 401.626 417.6C400.23 418.861 398.737 419.995 397.164 420.99C395.662 421.8 395.662 422.6 396.969 423.4C398.275 424.2 416.988 423.4 416.988 423.4C418.2 422.679 419.279 421.727 420.171 420.59C421.291 418.99 427.087 407.77 427.638 405.59C428.188 403.41 425.202 398.59 423.904 397.37C423.098 396.698 422.401 395.887 421.842 394.97C421.842 394.97 417.325 396.34 416.018 399.35Z" fill="#263238" stroke="#263238" stroke-miterlimit="10" stroke-linecap="round"/>
<path d="M424.436 405C422.007 408.334 419.757 411.813 417.697 415.42C415.084 420.23 412.097 423.24 411.528 423.42C411.433 423.465 411.35 423.533 411.285 423.62C414.486 423.52 416.95 423.42 416.95 423.42C418.162 422.699 419.241 421.747 420.133 420.61C421.253 419.01 427.03 407.83 427.6 405.61C427.153 405.253 426.634 405.012 426.085 404.906C425.536 404.8 424.971 404.833 424.436 405Z" fill="white" stroke="#263238" stroke-miterlimit="10" stroke-linecap="round"/>
<path d="M427.618 405.56C427.618 405.56 423.884 404.56 422.559 406.76C421.765 408.28 421.439 410.03 421.626 411.76L423.492 422.99H426.106L428.579 410.42C428.748 409.584 428.752 408.718 428.591 407.88C428.43 407.041 428.108 406.248 427.646 405.55L427.618 405.56Z" fill="#263238" stroke="#263238" stroke-miterlimit="10" stroke-linecap="round"/>
<path d="M417.48 347.83L432.666 405.36L440.142 402.24L434.504 350.84L417.48 347.83Z" fill="#FDD8BA" stroke="#263238" stroke-miterlimit="10" stroke-linecap="round"/>
<path d="M440.329 399.75C440.329 399.75 436.026 396.14 433.226 400.35C430.426 404.56 430.79 416.35 430.977 417.19C431.164 418.03 430.23 423.19 430.23 423.19H444.23C444.23 423.19 445.733 422.59 445.164 419.58C444.594 416.57 443.297 411.96 442.541 407.58C442.092 404.886 441.35 402.258 440.329 399.75Z" fill="#263238" stroke="#263238" stroke-miterlimit="10" stroke-linecap="round"/>
<path d="M444.268 423.2C444.268 423.2 445.77 422.6 445.201 419.59C445.136 419.29 445.07 418.95 444.996 418.59C444.65 417.45 444.268 416.15 443.885 414.75C442.578 409.94 440.898 404.75 437.529 404.93C434.16 405.11 433.973 407.33 433.226 410.74C432.708 412.965 431.953 415.119 430.977 417.16C431.164 417.96 430.23 423.16 430.23 423.16L444.268 423.2Z" fill="white" stroke="#263238" stroke-miterlimit="10" stroke-linecap="round"/>
<path d="M437.53 405C437.158 404.991 436.788 405.074 436.45 405.241C436.112 405.409 435.814 405.657 435.579 405.967C435.344 406.276 435.178 406.639 435.094 407.028C435.01 407.417 435.01 407.821 435.094 408.21C435.468 411.41 437.157 422.84 437.157 422.84H439.957L440.713 407.4C440.44 406.725 439.998 406.144 439.436 405.721C438.875 405.297 438.215 405.048 437.53 405Z" fill="#263238" stroke="#263238" stroke-miterlimit="10" stroke-linecap="round"/>
<path d="M423.576 317.79C423.576 317.79 398.618 319.57 395.445 319.97C392.272 320.37 391.142 331.2 393.009 336.97C394.876 342.74 400.121 346.39 402.342 346.97C404.564 347.55 439.797 354.05 453.909 353.97C467.657 353.9 475.609 352.76 479.342 346.35C483.076 339.94 480.276 332.35 480.276 332.35L423.576 317.79Z" fill="#FF880D" stroke="#263238" stroke-miterlimit="10" stroke-linecap="round"/>
<path d="M434.049 204.52C433.641 206.128 433.427 207.785 433.414 209.45C433.634 211.62 433.472 213.814 432.938 215.92C432.303 218.13 429.289 220.51 429.447 221.7C429.606 222.89 432.303 224.42 432.303 224.42C432.303 224.42 434.833 235.27 436.895 236.29C438.958 237.31 441.833 235.64 441.833 235.64L443.419 239.56L455.002 236.16L458.978 235.81L458.185 223.4C458.185 223.4 456.271 209.4 451.194 202.31C446.117 195.22 439.135 197.04 438.501 197.55C437.866 198.06 434.049 204.52 434.049 204.52Z" fill="#FDD8BA" stroke="#263238" stroke-miterlimit="10" stroke-linecap="round"/>
<path d="M445.64 192.27C445.64 192.27 445.481 189.55 439.452 189.72C433.422 189.89 430.398 191.59 430.398 194.83C430.398 198.07 432.778 200.27 432.778 200.78C432.778 201.29 431.033 200.95 431.35 202.48C431.668 204.01 434.048 204.48 434.048 204.48L437.38 199.72C437.38 199.72 436.586 201 438.668 205C440.208 207.905 442.016 210.639 444.062 213.16C445.471 215.248 446.445 217.635 446.918 220.16C447.236 222.88 444.697 223.56 451.202 227.3C457.708 231.04 463.429 228.3 465.492 226.3C467.554 224.3 473.266 213.37 471.838 205.89C470.41 198.41 469.617 193.31 459.938 190.89C450.26 188.47 445.64 192.27 445.64 192.27Z" fill="#263238" stroke="#263238" stroke-miterlimit="10" stroke-linecap="round"/>
<path d="M442.97 216.31C442.97 216.31 443.576 212.07 445.098 214.19C446.619 216.31 446.964 220.7 446.162 223.63C445.359 226.56 442.82 224.63 442.82 224.63" fill="#FDD8BA"/>
<path d="M442.97 216.31C442.97 216.31 443.576 212.07 445.098 214.19C446.619 216.31 446.964 220.7 446.162 223.63C445.359 226.56 442.82 224.63 442.82 224.63" stroke="#263238" stroke-miterlimit="10" stroke-linecap="round"/>
<path d="M433.414 209.45C433.414 209.45 435.159 206.9 436.587 209.79" stroke="#263238" stroke-miterlimit="10" stroke-linecap="round"/>
<path d="M434.684 216.26C435.122 216.26 435.477 215.459 435.477 214.47C435.477 213.482 435.122 212.68 434.684 212.68C434.246 212.68 433.891 213.482 433.891 214.47C433.891 215.459 434.246 216.26 434.684 216.26Z" fill="#263238"/>
<path d="M461.836 234.28C461.836 234.28 453.734 234.62 448.657 236.5C445.774 237.528 443.007 238.897 440.406 240.58V243.64C440.406 243.64 450.244 240.07 455.797 239.22C461.35 238.37 463.87 238 463.87 238L461.836 234.28Z" fill="white" stroke="#263238" stroke-miterlimit="10" stroke-linecap="round"/>
<path d="M372.895 290.27C372.895 290.27 362.628 291.27 359.595 291.81C357.332 292.288 355.15 293.134 353.127 294.32C352.044 294.89 352.585 296.24 355.105 295.86C357.625 295.48 359.959 294.86 359.959 294.86C359.959 294.86 361.751 295.25 364.271 295.63C366.065 295.839 367.878 295.775 369.656 295.44L373.389 295.25L372.895 290.27Z" fill="white" stroke="#263238" stroke-miterlimit="10" stroke-linecap="round"/>
<path d="M486.755 248.23C484.966 245.033 482.591 242.257 479.774 240.07C478.84 239.56 464.056 235.81 464.056 235.81C464.056 235.81 452.94 237.86 447.256 239.39C441.572 240.92 439.006 242.62 439.006 242.62L438.847 244.49C438.847 244.49 426.144 249.08 425.78 250.27C425.51 251.27 408.98 272.58 404.108 281.67L372.142 287.88C371.468 289.123 370.983 290.474 370.704 291.88C370.533 293.496 370.654 295.133 371.059 296.7L409.074 297.08V297.01C410.372 297.143 411.682 297 412.928 296.59C414.039 296.08 429.588 285.27 429.588 285.27L432.762 300.27C432.762 300.27 428.478 313.03 428.16 313.54C427.843 314.05 423.559 316.6 423.559 317.79C423.559 318.98 422.448 331.06 426.732 337.01C431.016 342.96 447.07 350.11 456.403 348.24C465.736 346.37 478.206 345.88 482.331 339.42C486.456 332.96 483.264 313.03 482.602 308.61C481.939 304.19 481.668 293.61 481.332 290.92C480.996 288.23 485.616 267.28 486.568 260.31C487.52 253.34 488.818 252.14 486.755 248.23Z" fill="#FF880D" stroke="#263238" stroke-miterlimit="10" stroke-linecap="round"/>
<path d="M460.404 217.28C460.404 217.28 458.538 220.17 455 225.78C451.463 231.39 451.827 236.5 455.794 239.22C459.76 241.94 458.976 242.45 457.866 243.64C456.755 244.83 444.37 247.72 455.794 256.56C467.218 265.4 472.463 264.73 470.559 266.56C468.655 268.39 468.692 271.49 472.146 271.83C472.811 271.88 473.478 271.779 474.105 271.534C474.731 271.289 475.302 270.905 475.781 270.408C476.26 269.911 476.636 269.312 476.884 268.649C477.133 267.986 477.248 267.274 477.223 266.56C476.906 264.69 482.151 264.35 483.896 258.06C485.642 251.77 485.763 243.6 481.04 240.2C476.318 236.8 473.415 237.14 475.954 233.39C478.492 229.64 481.199 228.12 475.02 220.47C468.842 212.82 464.054 209.11 460.404 217.28Z" fill="#263238" stroke="#263238" stroke-miterlimit="10" stroke-linecap="round"/>
<path d="M429.605 285.31L437.063 277.99" stroke="#263238" stroke-miterlimit="10" stroke-linecap="round"/>
<path d="M487.966 351L491.064 423C491.072 423.188 491.044 423.375 490.982 423.55C490.92 423.726 490.826 423.886 490.705 424.022C490.583 424.157 490.438 424.265 490.277 424.339C490.115 424.412 489.942 424.45 489.767 424.45C489.447 424.449 489.139 424.321 488.902 424.089C488.666 423.858 488.518 423.541 488.488 423.2L481.656 351.2L487.966 351Z" fill="white" stroke="#263238" stroke-miterlimit="10" stroke-linecap="round"/>
<path d="M448.842 351L451.931 423C451.94 423.187 451.914 423.374 451.853 423.55C451.792 423.725 451.699 423.886 451.578 424.021C451.458 424.157 451.313 424.265 451.152 424.339C450.991 424.412 450.818 424.45 450.643 424.45C450.322 424.449 450.013 424.321 449.775 424.09C449.537 423.859 449.388 423.542 449.355 423.2L442.523 351.2L448.842 351Z" fill="white" stroke="#263238" stroke-miterlimit="10" stroke-linecap="round"/>
<path d="M404.134 351L401.045 423C401.036 423.187 401.063 423.374 401.123 423.55C401.184 423.725 401.277 423.886 401.398 424.021C401.518 424.157 401.663 424.265 401.824 424.339C401.985 424.412 402.158 424.45 402.333 424.45C402.654 424.449 402.963 424.321 403.201 424.09C403.439 423.859 403.588 423.542 403.621 423.2L410.453 351.2L404.134 351Z" fill="white" stroke="#263238" stroke-miterlimit="10" stroke-linecap="round"/>
<path d="M444.783 351L441.685 423C441.677 423.188 441.705 423.375 441.767 423.55C441.829 423.726 441.923 423.886 442.044 424.022C442.166 424.157 442.311 424.265 442.472 424.339C442.634 424.412 442.807 424.45 442.982 424.45C443.304 424.452 443.614 424.324 443.853 424.093C444.091 423.861 444.24 423.543 444.27 423.2L451.102 351.2L444.783 351Z" fill="white" stroke="#263238" stroke-miterlimit="10" stroke-linecap="round"/>
<path d="M495.536 280.16H441.403C441.403 280.16 435.747 340.71 435.42 346.09C435.094 351.47 400.747 347.41 400.747 347.41L400.262 351.41C400.262 351.41 441.403 357.41 458.632 357.41C475.862 357.41 490.627 355.9 493.091 350.62C495.555 345.34 495.536 280.16 495.536 280.16Z" fill="#9C9C9C" stroke="#263238" stroke-miterlimit="10"/>
<defs>
<radialGradient id="paint0_radial_543_23134" cx="0" cy="0" r="1" gradientUnits="userSpaceOnUse" gradientTransform="translate(186.883 138.125) rotate(36.5863) scale(446.882 437.447)">
<stop stop-color="white" stop-opacity="0.59"/>
<stop offset="0.697917" stop-color="white" stop-opacity="0"/>
<stop offset="1" stop-color="white" stop-opacity="0"/>
</radialGradient>
<linearGradient id="paint1_linear_543_23134" x1="631.473" y1="758.679" x2="402.753" y2="116.547" gradientUnits="userSpaceOnUse">
<stop offset="0.52" stop-color="#FAAA19"/>
<stop offset="1" stop-color="#FF450D" stop-opacity="0.8"/>
</linearGradient>
</defs>
</svg>
