<svg width="796" height="581" viewBox="0 0 796 581" fill="none" xmlns="http://www.w3.org/2000/svg">
<g filter="url(#filter0_d_540_16636)">
<path d="M660.26 118.878C635.76 101.618 606.817 91.088 577.678 86.698C536.976 80.578 495.2 86.398 456.028 100.068C422.334 111.818 390.144 128.858 355.452 137.618C316.532 147.488 280.431 143.338 242.052 133.308C204.467 123.518 163.988 111.778 126.347 127.998C87.5198 144.738 65.3998 188.528 57.8118 231.718C49.7292 277.658 52.4918 329.398 59.2865 375.378C65.4465 417.038 77.7852 461.648 115.847 480.518C159.713 502.278 209.777 487.408 255.753 486.518C310.941 485.518 366.297 482.608 421.466 485.988C480.556 489.598 540 492.468 599.145 489.988C627.518 488.798 658.458 490.528 684.909 477.178C717.968 460.498 724.566 409.568 728.402 374.418C734.777 315.998 736.308 251.998 717.65 195.498C706.665 162.278 685.908 136.918 660.26 118.878Z" fill="#8568F5"/>
<path opacity="0.7" d="M660.26 118.878C635.76 101.618 606.817 91.088 577.678 86.698C536.976 80.578 495.2 86.398 456.028 100.068C422.334 111.818 390.144 128.858 355.452 137.618C316.532 147.488 280.431 143.338 242.052 133.308C204.467 123.518 163.988 111.778 126.347 127.998C87.5198 144.738 65.3998 188.528 57.8118 231.718C49.7292 277.658 52.4918 329.398 59.2865 375.378C65.4465 417.038 77.7852 461.648 115.847 480.518C159.713 502.278 209.777 487.408 255.753 486.518C310.941 485.518 366.297 482.608 421.466 485.988C480.556 489.598 540 492.468 599.145 489.988C627.518 488.798 658.458 490.528 684.909 477.178C717.968 460.498 724.566 409.568 728.402 374.418C734.777 315.998 736.308 251.998 717.65 195.498C706.665 162.278 685.908 136.918 660.26 118.878Z" fill="white"/>
<g opacity="0.3">
<path d="M434.265 161.778C452.759 141.962 452.759 109.836 434.265 90.0203C415.771 70.2051 385.786 70.2051 367.291 90.0203C348.797 109.836 348.797 141.962 367.291 161.778C385.786 181.593 415.771 181.593 434.265 161.778Z" stroke="black" stroke-linecap="round" stroke-linejoin="round"/>
<path d="M441.43 128.078L441.532 126.318C442.634 127.411 443.729 128.588 444.818 129.848C444.818 130.168 444.818 130.488 444.762 130.848L444.631 131.788C443.644 130.474 442.574 129.235 441.43 128.078Z" stroke="black" stroke-linecap="round" stroke-linejoin="round"/>
<path d="M440.82 133.878L441.072 132.128C441.558 132.748 442.052 133.388 442.538 134.058C443.031 134.698 443.492 135.366 443.919 136.058L443.48 137.918C443.06 137.188 442.631 136.488 442.202 135.818L441.558 134.818L440.82 133.878Z" stroke="black" stroke-linecap="round" stroke-linejoin="round"/>
<path d="M439.488 139.518C439.682 138.971 439.838 138.409 439.955 137.838C440.812 139.223 441.58 140.67 442.251 142.168L441.635 143.958C440.944 142.398 440.229 140.918 439.488 139.518Z" stroke="black" stroke-linecap="round" stroke-linejoin="round"/>
<path d="M437.426 144.918L438.135 143.328C438.751 144.788 439.339 146.328 439.88 147.958C439.621 148.531 439.328 149.085 439.003 149.618C438.584 148.013 438.057 146.442 437.426 144.918Z" stroke="black" stroke-linecap="round" stroke-linejoin="round"/>
<path d="M434.754 149.998L435.603 148.488C436.096 150.071 436.486 151.688 436.77 153.328L435.697 154.858C435.465 153.221 435.151 151.598 434.754 149.998Z" stroke="black" stroke-linecap="round" stroke-linejoin="round"/>
<path d="M431.434 154.618C431.816 154.198 432.174 153.754 432.507 153.288C432.769 154.923 432.943 156.572 433.03 158.228C432.619 158.688 432.246 159.228 431.807 159.618C431.76 157.946 431.636 156.277 431.434 154.618Z" stroke="black" stroke-linecap="round" stroke-linejoin="round"/>
<path d="M427.587 158.728L428.8 157.548C428.847 159.158 428.847 160.858 428.744 162.548L427.316 163.698C427.41 162.858 427.484 162.028 427.54 161.218C427.596 160.408 427.587 159.548 427.587 158.728Z" stroke="black" stroke-linecap="round" stroke-linejoin="round"/>
<path d="M423.277 162.298C423.753 161.998 424.164 161.608 424.612 161.298C424.547 162.108 424.481 162.968 424.351 163.778C424.22 164.588 424.08 165.398 423.912 166.228L422.391 167.228C422.764 165.508 423.053 163.878 423.277 162.298Z" stroke="black" stroke-linecap="round" stroke-linejoin="round"/>
<path d="M418.533 165.148L420.017 164.388C419.653 165.938 419.215 167.538 418.701 169.168C418.431 169.298 418.169 169.448 417.899 169.568L417.059 169.898C417.65 168.352 418.143 166.765 418.533 165.148Z" stroke="black" stroke-linecap="round" stroke-linejoin="round"/>
<path d="M413.533 167.358L415.073 166.758C414.802 167.518 414.513 168.288 414.205 169.058L413.729 170.228L413.188 171.338L411.461 171.808C411.853 171.068 412.226 170.338 412.572 169.598C412.927 168.869 413.248 168.122 413.533 167.358Z" stroke="black" stroke-linecap="round" stroke-linejoin="round"/>
<path d="M408.229 168.798C408.5 168.748 408.78 168.718 409.041 168.658L409.844 168.438C409.118 169.907 408.298 171.321 407.389 172.668L405.625 172.958C406.577 171.558 407.445 170.171 408.229 168.798Z" stroke="black" stroke-linecap="round" stroke-linejoin="round"/>
<path d="M402.828 169.448L404.47 169.358C403.537 170.638 402.604 171.928 401.521 173.218C400.927 173.263 400.332 173.263 399.738 173.218C400.849 172.041 401.882 170.781 402.828 169.448Z" stroke="black" stroke-linecap="round" stroke-linejoin="round"/>
<path d="M397.386 169.378L399.029 169.468C398.506 170.048 397.955 170.638 397.386 171.228C396.825 171.82 396.236 172.381 395.622 172.908L393.867 172.618C394.493 172.098 395.099 171.618 395.687 171.048L396.546 170.258L397.386 169.378Z" stroke="black" stroke-linecap="round" stroke-linejoin="round"/>
<path d="M392.008 168.518C392.536 168.668 393.072 168.779 393.614 168.848C392.417 169.904 391.15 170.867 389.824 171.728L388.098 171.248C389.479 170.368 390.786 169.448 392.008 168.518Z" stroke="black" stroke-linecap="round" stroke-linejoin="round"/>
<path d="M386.791 166.858L388.331 167.468C387.043 168.268 385.662 169.048 384.215 169.778C383.653 169.57 383.107 169.316 382.582 169.018C384.031 168.406 385.438 167.684 386.791 166.858Z" stroke="black" stroke-linecap="round" stroke-linejoin="round"/>
<path d="M381.799 164.528L383.283 165.288C381.86 165.969 380.394 166.544 378.896 167.008L377.375 166.008C378.14 165.798 378.896 165.558 379.634 165.318C380.371 165.078 381.08 164.858 381.799 164.528Z" stroke="black" stroke-linecap="round" stroke-linejoin="round"/>
<path d="M377.189 161.448C377.615 161.814 378.064 162.148 378.533 162.448C377.8 162.687 377.055 162.884 376.302 163.038C375.555 163.208 374.781 163.358 373.997 163.498C373.53 163.108 373.063 162.738 372.578 162.338C374.165 162.128 375.723 161.808 377.189 161.448Z" stroke="black" stroke-linecap="round" stroke-linejoin="round"/>
<path d="M372.98 157.758L374.193 158.938C372.7 159.148 371.141 159.298 369.527 159.378L368.332 157.968C369.116 157.968 369.891 157.968 370.647 157.968C371.403 157.968 372.224 157.838 372.98 157.758Z" stroke="black" stroke-linecap="round" stroke-linejoin="round"/>
<path d="M369.235 153.528C369.58 153.978 369.963 154.398 370.327 154.838C369.561 154.838 368.777 154.838 367.984 154.838C367.191 154.838 366.463 154.708 365.679 154.608L364.605 153.078C366.201 153.288 367.741 153.438 369.235 153.528Z" stroke="black" stroke-linecap="round" stroke-linejoin="round"/>
<path d="M366.109 148.748L366.959 150.258C365.484 150.028 363.963 149.718 362.404 149.328L361.947 148.508L361.555 147.658L362.665 147.998L363.823 148.278C364.597 148.458 365.363 148.618 366.109 148.748Z" stroke="black" stroke-linecap="round" stroke-linejoin="round"/>
<path d="M363.551 143.618L364.27 145.198C363.532 144.988 362.795 144.758 362.039 144.508C361.283 144.258 360.527 143.978 359.818 143.658L359.211 141.858C359.939 142.198 360.658 142.531 361.367 142.858L362.431 143.288L363.551 143.618Z" stroke="black" stroke-linecap="round" stroke-linejoin="round"/>
<path d="M361.685 138.138C361.759 138.418 361.806 138.708 361.899 138.988L362.179 139.808C360.742 139.189 359.348 138.46 358.007 137.628L357.531 135.778C358.95 136.651 360.334 137.438 361.685 138.138Z" stroke="black" stroke-linecap="round" stroke-linejoin="round"/>
<path d="M360.538 132.438L360.79 134.178C359.508 133.345 358.214 132.425 356.907 131.418C356.816 130.789 356.766 130.154 356.758 129.518C357.952 130.586 359.215 131.562 360.538 132.438Z" stroke="black" stroke-linecap="round" stroke-linejoin="round"/>
<path d="M360.062 126.618L360.146 128.378C359.549 127.878 358.951 127.378 358.354 126.808L357.421 125.968C357.131 125.678 356.87 125.388 356.59 125.098L356.683 123.188C357.225 123.808 357.775 124.398 358.326 124.968L359.147 125.808C359.455 126.098 359.773 126.368 360.062 126.618Z" stroke="black" stroke-linecap="round" stroke-linejoin="round"/>
<path d="M360.33 120.808C360.242 121.387 360.195 121.972 360.19 122.558C359.084 121.391 358.061 120.138 357.129 118.808L357.4 116.918C358.361 118.308 359.341 119.618 360.33 120.808Z" stroke="black" stroke-linecap="round" stroke-linejoin="round"/>
<path d="M361.339 115.078L360.928 116.788C360.06 115.488 359.202 114.098 358.371 112.628C358.455 112.318 358.511 112.008 358.604 111.708L358.912 110.808C359.632 112.287 360.443 113.714 361.339 115.078Z" stroke="black" stroke-linecap="round" stroke-linejoin="round"/>
<path d="M363.02 109.538L362.45 111.188C362.086 110.478 361.722 109.748 361.368 108.988L360.845 107.838L360.406 106.688L361.181 104.968C361.461 105.768 361.741 106.548 362.04 107.298C362.326 108.064 362.653 108.812 363.02 109.538Z" stroke="black" stroke-linecap="round" stroke-linejoin="round"/>
<path d="M365.401 104.298L364.972 105.048L364.608 105.838L364.178 104.678L363.824 103.508C363.6 102.728 363.385 101.928 363.18 101.108L364.113 99.478C364.486 101.158 364.925 102.768 365.401 104.298Z" stroke="black" stroke-linecap="round" stroke-linejoin="round"/>
<path d="M368.414 99.4481L367.425 100.858C367.089 99.2881 366.8 97.6481 366.566 95.9381C366.94 95.4381 367.36 94.9381 367.752 94.5081C367.817 95.3481 367.892 96.1681 367.985 96.9781C368.078 97.7881 368.256 98.6181 368.414 99.4481Z" stroke="black" stroke-linecap="round" stroke-linejoin="round"/>
<path d="M371.962 95.0279L370.861 96.3279C370.777 95.5179 370.702 94.6779 370.646 93.8379C370.59 92.9979 370.646 92.1879 370.646 91.3479L371.962 90.0579C371.887 91.7779 371.897 93.4279 371.962 95.0279Z" stroke="black" stroke-linecap="round" stroke-linejoin="round"/>
<path d="M376.088 91.218C375.659 91.578 375.201 91.918 374.781 92.288C374.837 90.678 374.987 89.038 375.192 87.288C375.657 86.8897 376.146 86.5256 376.657 86.198C376.495 87.0235 376.377 87.8582 376.303 88.698C376.2 89.618 376.144 90.408 376.088 91.218Z" stroke="black" stroke-linecap="round" stroke-linejoin="round"/>
<path d="M380.611 87.988L379.211 88.898C379.332 88.098 379.472 87.288 379.64 86.468C379.787 85.6382 379.974 84.8171 380.2 84.008L381.806 83.178C381.308 84.7512 380.909 86.3581 380.611 87.988Z" stroke="black" stroke-linecap="round" stroke-linejoin="round"/>
<path d="M385.53 85.4379C385.015 85.636 384.514 85.8698 384.027 86.1379C384.458 84.5423 384.995 82.9817 385.633 81.4679L387.313 80.8079C386.603 82.3779 386.015 83.9279 385.53 85.4379Z" stroke="black" stroke-linecap="round" stroke-linejoin="round"/>
<path d="M390.682 83.6179L389.086 84.0479C389.73 82.6079 390.458 81.1279 391.261 79.6379C391.833 79.4927 392.412 79.3858 392.997 79.3179C392.126 80.6875 391.353 82.1249 390.682 83.6179Z" stroke="black" stroke-linecap="round" stroke-linejoin="round"/>
<path d="M396.022 82.5579L394.398 82.8279C394.809 82.1379 395.238 81.438 395.686 80.748L396.377 79.748L397.105 78.748L398.878 78.6479C398.365 79.2979 397.861 79.9379 397.385 80.5779C396.899 81.2116 396.444 81.8726 396.022 82.5579Z" stroke="black" stroke-linecap="round" stroke-linejoin="round"/>
<path d="M401.463 82.2679C400.916 82.2229 400.367 82.2229 399.82 82.2679C400.797 80.9795 401.857 79.7665 402.994 78.6379L404.776 78.7379C403.591 79.9179 402.48 81.0979 401.463 82.2679Z" stroke="black" stroke-linecap="round" stroke-linejoin="round"/>
<path d="M406.878 82.7779L405.254 82.5079C406.374 81.4479 407.578 80.4013 408.866 79.3679C409.155 79.3679 409.454 79.4579 409.743 79.5179L410.602 79.7579C409.3 80.6758 408.056 81.6847 406.878 82.7779Z" stroke="black" stroke-linecap="round" stroke-linejoin="round"/>
<path d="M412.196 84.008L410.609 83.568C411.225 83.098 411.879 82.648 412.541 82.198C413.196 81.7333 413.876 81.3093 414.576 80.928L416.256 81.578C415.537 81.958 414.847 82.338 414.175 82.728L413.185 83.328L412.196 84.008Z" stroke="black" stroke-linecap="round" stroke-linejoin="round"/>
<path d="M417.266 86.0079C417.023 85.8779 416.781 85.7379 416.529 85.6279L415.754 85.3279C417.125 84.5581 418.544 83.8898 420.001 83.3279L421.615 84.1579C420.109 84.7312 418.66 85.3479 417.266 86.0079Z" stroke="black" stroke-linecap="round" stroke-linejoin="round"/>
<path d="M422.109 88.738L420.699 87.828C422.118 87.318 423.621 86.828 425.179 86.428C425.693 86.748 426.113 87.168 426.635 87.538C425.851 87.698 425.114 87.828 424.349 88.048C423.583 88.268 422.865 88.498 422.109 88.738Z" stroke="black" stroke-linecap="round" stroke-linejoin="round"/>
<path d="M426.597 92.0879L425.281 91.0879C426.028 90.9179 426.793 90.7579 427.577 90.6179C428.361 90.4779 429.099 90.4179 429.892 90.3379L431.171 91.6179C429.575 91.6879 428.053 91.8379 426.597 92.0879Z" stroke="black" stroke-linecap="round" stroke-linejoin="round"/>
<path d="M430.511 96.0979C430.137 95.6779 429.801 95.2079 429.391 94.8179C430.944 94.7113 432.502 94.6913 434.057 94.7579C434.465 95.2167 434.852 95.6973 435.215 96.1979C433.649 96.074 432.079 96.0406 430.511 96.0979Z" stroke="black" stroke-linecap="round" stroke-linejoin="round"/>
<path d="M433.96 100.618L432.98 99.208C434.474 99.328 436.079 99.478 437.647 99.768L438.58 101.408C437.06 101.025 435.516 100.761 433.96 100.618Z" stroke="black" stroke-linecap="round" stroke-linejoin="round"/>
<path d="M436.867 105.558C436.627 105.03 436.356 104.519 436.055 104.028C437.583 104.326 439.09 104.74 440.563 105.268L441.337 106.998C439.779 106.428 438.285 105.958 436.867 105.558Z" stroke="black" stroke-linecap="round" stroke-linejoin="round"/>
<path d="M439.013 110.898L438.453 109.248C439.853 109.788 441.3 110.408 442.756 111.128C442.968 111.721 443.139 112.329 443.269 112.948C441.896 112.161 440.474 111.476 439.013 110.898Z" stroke="black" stroke-linecap="round" stroke-linejoin="round"/>
<path d="M440.598 116.488L440.188 114.778C440.869 115.148 441.55 115.528 442.241 115.938L443.277 116.568L444.21 117.248L444.481 119.138C443.828 118.648 443.183 118.138 442.539 117.738C441.913 117.285 441.265 116.868 440.598 116.488Z" stroke="black" stroke-linecap="round" stroke-linejoin="round"/>
<path d="M441.363 122.248C441.363 121.958 441.363 121.658 441.317 121.368L441.195 120.498C442.483 121.409 443.711 122.411 444.873 123.498L444.957 125.408C443.762 124.288 442.558 123.228 441.363 122.248Z" stroke="black" stroke-linecap="round" stroke-linejoin="round"/>
<path d="M400.427 112.198L393.371 151.328" stroke="black" stroke-miterlimit="10"/>
<path d="M408.193 151.328L401.137 112.198" stroke="black" stroke-miterlimit="10"/>
<path d="M412.215 151.328L404.758 110.008" stroke="black" stroke-miterlimit="10"/>
<path d="M398.141 102.598L400.082 91.8479" stroke="black" stroke-miterlimit="10"/>
<path d="M401.48 91.8479L403.422 102.598" stroke="black" stroke-miterlimit="10"/>
<path d="M389.348 151.328L396.805 110.008" stroke="black" stroke-miterlimit="10"/>
<path d="M375.264 107.988H375.002C374.77 107.988 374.547 107.889 374.382 107.713C374.217 107.536 374.125 107.297 374.125 107.048V106.928C374.125 106.679 374.217 106.44 374.382 106.263C374.547 106.087 374.77 105.988 375.002 105.988H395.993" stroke="black" stroke-miterlimit="10"/>
<path d="M375.266 107.988H395.995" stroke="black" stroke-miterlimit="10"/>
<path d="M425.768 107.988H405.57" stroke="black" stroke-miterlimit="10"/>
<path d="M425.768 107.988H426.598C426.831 107.988 427.054 107.889 427.219 107.713C427.383 107.536 427.476 107.297 427.476 107.048V106.928C427.476 106.679 427.383 106.44 427.219 106.263C427.054 106.087 426.831 105.988 426.598 105.988H405.57" stroke="black" stroke-miterlimit="10"/>
<path d="M412.214 151.328H408.191" stroke="black" stroke-miterlimit="10"/>
<path d="M389.348 151.328H393.37" stroke="black" stroke-miterlimit="10"/>
<path d="M389.348 151.328H379.539V157.598H422.024V151.328H412.215" stroke="black" stroke-miterlimit="10"/>
<path d="M393.371 151.328H408.192" stroke="black" stroke-miterlimit="10"/>
<path d="M405.57 107.988C405.696 107.328 405.696 106.648 405.57 105.988" stroke="black" stroke-miterlimit="10"/>
<path d="M400.465 112.198H401.174" stroke="black" stroke-miterlimit="10"/>
<path d="M398.139 102.618C397.588 103 397.114 103.498 396.745 104.08C396.376 104.662 396.12 105.318 395.992 106.008" stroke="black" stroke-miterlimit="10"/>
<path d="M398.141 102.618C398.929 102.076 399.845 101.788 400.782 101.788C401.718 101.788 402.635 102.076 403.423 102.618" stroke="black" stroke-miterlimit="10"/>
<path d="M405.569 105.988C405.441 105.298 405.185 104.642 404.816 104.06C404.447 103.477 403.973 102.98 403.422 102.598" stroke="black" stroke-miterlimit="10"/>
<path d="M396.804 110.008C396.409 109.408 396.132 108.727 395.992 108.008" stroke="black" stroke-miterlimit="10"/>
<path d="M401.137 112.198C401.853 112.139 402.549 111.913 403.174 111.534C403.8 111.156 404.341 110.635 404.758 110.008" stroke="black" stroke-miterlimit="10"/>
<path d="M395.994 107.988C395.882 107.327 395.882 106.649 395.994 105.988" stroke="black" stroke-miterlimit="10"/>
<path d="M404.758 110.008C405.153 109.408 405.43 108.727 405.57 108.008" stroke="black" stroke-miterlimit="10"/>
<path d="M400.465 112.198C399.749 112.139 399.053 111.913 398.427 111.534C397.802 111.156 397.261 110.635 396.844 110.008" stroke="black" stroke-miterlimit="10"/>
<path d="M401.482 91.8479C401.025 91.9947 400.539 91.9947 400.082 91.8479" stroke="black" stroke-miterlimit="10"/>
<path d="M401.48 91.8479C402.14 91.6653 402.715 91.2312 403.098 90.6268C403.48 90.0225 403.644 89.2895 403.558 88.5651C403.472 87.8407 403.143 87.1748 402.631 86.6921C402.12 86.2094 401.462 85.9431 400.78 85.9431C400.099 85.9431 399.441 86.2094 398.929 86.6921C398.418 87.1748 398.089 87.8407 398.003 88.5651C397.917 89.2895 398.081 90.0225 398.463 90.6268C398.846 91.2312 399.421 91.6653 400.08 91.8479" stroke="black" stroke-miterlimit="10"/>
<path d="M381.575 127.278L375.266 107.988" stroke="black" stroke-miterlimit="10"/>
<path d="M375.264 107.988L368.945 127.278" stroke="black" stroke-miterlimit="10"/>
<path d="M367.461 127.528C367.813 129.433 368.772 131.148 370.172 132.381C371.573 133.614 373.33 134.287 375.142 134.287C376.955 134.287 378.711 133.614 380.112 132.381C381.513 131.148 382.471 129.433 382.824 127.528H367.461Z" stroke="black" stroke-miterlimit="10"/>
<path d="M425.766 107.988L432.084 127.278" stroke="black" stroke-miterlimit="10"/>
<path d="M425.766 107.988L419.457 127.278" stroke="black" stroke-miterlimit="10"/>
<path d="M425.665 134.298C427.478 134.296 429.235 133.62 430.636 132.385C432.036 131.151 432.994 129.434 433.346 127.528H417.965C418.317 129.438 419.278 131.157 420.682 132.392C422.087 133.626 423.848 134.3 425.665 134.298Z" stroke="black" stroke-miterlimit="10"/>
</g>
<g opacity="0.3">
<path d="M265.582 189.498H238.516V354.508H265.582V189.498Z" stroke="black" stroke-linecap="round" stroke-linejoin="round"/>
<path d="M330.569 56.698C330.569 56.698 300.599 67.808 285.199 101.128C269.799 134.448 266.141 181.908 266.141 181.908H237.795C237.795 181.908 234.165 134.448 218.737 101.128C203.309 67.808 173.367 56.698 173.367 56.698" stroke="black" stroke-linecap="round" stroke-linejoin="round"/>
<path d="M271.217 181.948H231.289V189.588H271.217V181.948Z" stroke="black" stroke-linecap="round" stroke-linejoin="round"/>
</g>
<g opacity="0.3">
<path d="M586.723 189.498H559.656V354.508H586.723V189.498Z" stroke="black" stroke-linecap="round" stroke-linejoin="round"/>
<path d="M651.709 56.698C651.709 56.698 621.758 67.808 606.34 101.128C590.921 134.448 587.281 181.908 587.281 181.908H558.936C558.936 181.908 555.305 134.448 539.877 101.128C524.449 67.808 494.508 56.698 494.508 56.698" stroke="black" stroke-linecap="round" stroke-linejoin="round"/>
<path d="M592.35 181.948H552.422V189.588H592.35V181.948Z" stroke="black" stroke-linecap="round" stroke-linejoin="round"/>
</g>
<path d="M118.197 114.338H115.453V339.808H118.197V114.338Z" fill="#263238" stroke="#263238" stroke-linecap="round" stroke-linejoin="round"/>
<path d="M142.211 339.798L116.694 121.108L97.3555 339.798H142.211Z" fill="#8468F5" fill-opacity="0.8"/>
<path d="M142.211 339.798L116.694 121.108L97.3555 339.798H142.211Z" fill="url(#paint0_radial_540_16636)" fill-opacity="0.7"/>
<path d="M142.211 339.798L116.694 121.108L97.3555 339.798H142.211Z" fill="url(#paint1_linear_540_16636)"/>
<path d="M142.211 339.798L116.694 121.108L97.3555 339.798H142.211Z" stroke="#263238" stroke-linecap="round" stroke-linejoin="round"/>
<path d="M141.988 339.798L134.437 273.458L104.738 324.758L124.609 339.798H141.988Z" fill="#FAAA19" stroke="#263238" stroke-linecap="round" stroke-linejoin="round"/>
<path d="M142.669 300.898L104.738 324.758L116.694 121.108L142.669 300.898Z" fill="#FAAA19" stroke="#263238" stroke-linecap="round" stroke-linejoin="round"/>
<path d="M116.695 121.108L142.67 300.898L122.463 286.328L116.695 121.108Z" fill="#FAAA19" stroke="#263238" stroke-linecap="round" stroke-linejoin="round"/>
<path d="M122.463 286.328L131.946 269.098L120.82 247.448L122.463 286.328Z" fill="#8468F5" fill-opacity="0.8"/>
<path d="M122.463 286.328L131.946 269.098L120.82 247.448L122.463 286.328Z" fill="url(#paint2_radial_540_16636)" fill-opacity="0.7"/>
<path d="M122.463 286.328L131.946 269.098L120.82 247.448L122.463 286.328Z" fill="url(#paint3_linear_540_16636)"/>
<path d="M122.463 286.328L131.946 269.098L120.82 247.448L122.463 286.328Z" stroke="#263238" stroke-linecap="round" stroke-linejoin="round"/>
<path d="M116.695 121.108L100.613 248.778L131.945 269.098L116.695 121.108Z" fill="#FAAA19" stroke="#263238" stroke-linecap="round" stroke-linejoin="round"/>
<path d="M115.451 114.338L111.914 107.658L117.01 96.948L122.115 108.088L118.205 114.338H115.451Z" fill="#263238" stroke="#263238" stroke-linecap="round" stroke-linejoin="round"/>
<path d="M671.002 114.338H668.258V339.808H671.002V114.338Z" fill="#263238" stroke="#263238" stroke-linecap="round" stroke-linejoin="round"/>
<path d="M695.004 339.798L669.487 121.108L650.148 339.798H695.004Z" fill="#FAAA19" stroke="#263238" stroke-linecap="round" stroke-linejoin="round"/>
<path d="M694.79 339.798L687.239 273.458L657.531 324.758L677.402 339.798H694.79Z" fill="#8468F5" fill-opacity="0.8"/>
<path d="M694.79 339.798L687.239 273.458L657.531 324.758L677.402 339.798H694.79Z" fill="url(#paint4_radial_540_16636)" fill-opacity="0.7"/>
<path d="M694.79 339.798L687.239 273.458L657.531 324.758L677.402 339.798H694.79Z" fill="url(#paint5_linear_540_16636)"/>
<path d="M694.79 339.798L687.239 273.458L657.531 324.758L677.402 339.798H694.79Z" stroke="#263238" stroke-linecap="round" stroke-linejoin="round"/>
<path d="M695.462 300.898L657.531 324.758L669.487 121.108L695.462 300.898Z" fill="#FAAA19" stroke="#263238" stroke-linecap="round" stroke-linejoin="round"/>
<path d="M669.488 121.108L695.463 300.898L675.266 286.328L669.488 121.108Z" fill="#FAAA19" stroke="#263238" stroke-linecap="round" stroke-linejoin="round"/>
<path d="M675.265 286.328L684.748 269.098L673.613 247.448L675.265 286.328Z" fill="#8468F5" fill-opacity="0.8"/>
<path d="M675.265 286.328L684.748 269.098L673.613 247.448L675.265 286.328Z" fill="url(#paint6_radial_540_16636)" fill-opacity="0.7"/>
<path d="M675.265 286.328L684.748 269.098L673.613 247.448L675.265 286.328Z" fill="url(#paint7_linear_540_16636)"/>
<path d="M675.265 286.328L684.748 269.098L673.613 247.448L675.265 286.328Z" stroke="#263238" stroke-linecap="round" stroke-linejoin="round"/>
<path d="M669.488 121.108L653.406 248.778L684.748 269.098L669.488 121.108Z" fill="#FAAA19" stroke="#263238" stroke-linecap="round" stroke-linejoin="round"/>
<path d="M668.258 114.338L664.711 107.658L669.816 96.948L674.912 108.088L671.002 114.338H668.258Z" fill="#263238" stroke="#263238" stroke-linecap="round" stroke-linejoin="round"/>
<path d="M609.962 220.228C609.962 220.228 595.533 218.678 588.999 215.328C582.466 211.978 571.182 209.398 562.997 209.658C554.811 209.918 546.197 216.878 537.965 217.658C529.733 218.438 524.973 219.718 524.245 224.368C523.517 229.018 531.077 334.368 531.077 334.368H610.895L613.331 224.618C613.331 224.618 613.331 222.288 609.962 220.228Z" fill="#878787" stroke="#263238" stroke-linecap="round" stroke-linejoin="round"/>
<path d="M553.756 241.078C553.756 241.078 524.822 254.078 524.234 255.028C523.646 255.978 527.398 330.668 527.398 330.668H606.732C606.732 330.668 611.865 255.808 611.501 254.438C611.137 253.068 582.913 242.618 580.897 242.058C578.881 241.498 553.756 241.078 553.756 241.078Z" fill="#8568F5" stroke="#263238" stroke-linecap="round" stroke-linejoin="round"/>
<path d="M552.066 243.618C552.066 243.618 556.63 259.698 559.038 264.438C561.446 269.178 564.536 274.198 564.536 274.198L567.336 279.368C567.336 279.368 572.161 268.888 576.044 259.558C579.926 250.228 580.608 246.058 580.608 246.058L552.066 243.618Z" fill="white" stroke="#263238" stroke-linecap="round" stroke-linejoin="round"/>
<path d="M559.038 264.388C559.972 266.148 560.905 267.948 561.838 269.518H562.286L567.242 263.198L571.909 269.128C573.244 266.128 574.709 262.708 576.053 259.468C579.945 250.138 580.617 245.968 580.617 245.968L552.066 243.618C552.066 243.618 556.63 259.618 559.038 264.388Z" fill="white" stroke="#263238" stroke-linecap="round" stroke-linejoin="round"/>
<path d="M564.137 266.968L565.471 269.848L564.538 274.148L567.347 279.318L569.895 273.718L568.019 269.698L570.166 266.688L567.217 263.238L564.137 266.968Z" fill="#263238" stroke="#263238" stroke-linecap="round" stroke-linejoin="round"/>
<path d="M552.066 243.618C553.494 247.53 555.436 251.204 557.834 254.528C561.446 259.268 564.265 263.288 567.168 263.288C570.07 263.288 576.818 254.288 578.424 251.368C579.603 248.996 580.542 246.495 581.224 243.908L552.066 243.618Z" fill="#D6B2A5" stroke="#263238" stroke-linecap="round" stroke-linejoin="round"/>
<path d="M549.63 222.348C549.63 222.348 547.912 219.588 547.24 223.468C546.568 227.348 549.387 233.808 549.387 233.808L549.63 222.348Z" fill="#C69786" stroke="#263238" stroke-linecap="round" stroke-linejoin="round"/>
<path d="M583.697 221.168C583.697 221.168 585.844 220.448 585.844 223.468C585.844 226.488 583.977 233.658 583.977 233.658L583.398 223.038L583.697 221.168Z" fill="#C69786" stroke="#263238" stroke-linecap="round" stroke-linejoin="round"/>
<path d="M558.723 199.348C558.723 199.348 553.879 201.158 550.463 209.968C548.205 215.778 549.633 222.348 549.633 222.348C549.633 222.348 548.849 238.908 550.566 242.448C552.283 245.988 557.855 251.558 560.833 253.228C563.81 254.898 572.807 254.528 575.243 253.048C577.679 251.568 582.878 245.238 583.223 240.398C583.569 235.558 584.091 226.268 583.223 218.828C582.355 211.388 581.301 207.428 578.351 204.088C574.599 199.838 570.026 195.208 558.723 199.348Z" fill="#BA8B7A" stroke="#263238" stroke-linecap="round" stroke-linejoin="round"/>
<path d="M560.739 224.278C560.659 224.549 560.512 224.792 560.312 224.978C560.112 225.165 559.867 225.289 559.606 225.336C559.344 225.384 559.075 225.352 558.829 225.246C558.583 225.14 558.369 224.962 558.212 224.734C558.054 224.505 557.958 224.234 557.935 223.951C557.912 223.668 557.963 223.384 558.081 223.129C558.2 222.875 558.382 222.661 558.607 222.511C558.832 222.36 559.092 222.28 559.357 222.278C560.123 222.318 560.739 223.198 560.739 224.278Z" fill="#263238"/>
<path d="M574.625 224.278C574.546 224.549 574.398 224.792 574.198 224.978C573.998 225.165 573.754 225.289 573.492 225.336C573.231 225.384 572.962 225.352 572.716 225.246C572.47 225.14 572.256 224.962 572.098 224.734C571.941 224.505 571.845 224.234 571.822 223.951C571.799 223.668 571.849 223.384 571.968 223.129C572.087 222.875 572.269 222.661 572.494 222.511C572.719 222.36 572.979 222.28 573.244 222.278C574.009 222.318 574.625 223.198 574.625 224.278Z" fill="#263238"/>
<path d="M561.988 230.938C561.824 231.129 561.705 231.359 561.642 231.61C561.579 231.86 561.573 232.123 561.625 232.377C561.677 232.63 561.786 232.866 561.942 233.065C562.098 233.264 562.296 233.419 562.52 233.518C563.32 234.134 564.231 234.566 565.194 234.788C566.158 235.01 567.154 235.017 568.12 234.808C569.987 234.238 571.34 232.808 571.209 231.218" stroke="#263238" stroke-linecap="round" stroke-linejoin="round"/>
<path d="M558.91 238.828C559.283 238.898 567.487 243.278 574.59 238.108" stroke="#263238" stroke-linecap="round" stroke-linejoin="round"/>
<path d="M554.465 221.168C554.465 221.168 557.143 219.168 563.303 220.738" stroke="#263238" stroke-linecap="round" stroke-linejoin="round"/>
<path d="M569.492 220.738C569.492 220.738 574.99 218.738 578.2 221.028" stroke="#263238" stroke-linecap="round" stroke-linejoin="round"/>
<path d="M561.847 226.198C560.79 227.238 559.506 227.978 558.113 228.348" stroke="#263238" stroke-linecap="round" stroke-linejoin="round"/>
<path d="M570.566 226.478C570.849 227.133 571.302 227.685 571.872 228.069C572.442 228.452 573.104 228.65 573.777 228.638" stroke="#263238" stroke-linecap="round" stroke-linejoin="round"/>
<path d="M555.398 245.148C555.398 245.148 558.03 252.558 560.802 253.228" stroke="#263238" stroke-linecap="round" stroke-linejoin="round"/>
<path d="M576.866 245.718C576.866 245.718 576.595 252.038 573.375 253.908" stroke="#263238" stroke-linecap="round" stroke-linejoin="round"/>
<path d="M524.237 255.028C520.219 255.651 516.355 257.119 512.869 259.348C507.007 263.078 490.469 304.538 489.031 311.218C487.594 317.898 484.999 329.488 489.769 334.398C494.538 339.308 504.431 341.278 505.355 341.668C506.279 342.058 512.318 344.808 516.35 343.828C520.382 342.848 532.861 343.828 532.861 343.828C532.861 343.828 542.39 343.828 543.855 342.258C545.321 340.688 550.277 329.878 552.255 328.308C554.234 326.738 558.854 329.088 558.677 326.308C558.499 323.528 550.79 317.668 550.79 317.668L540.925 312.618C540.925 312.618 542.941 312.428 538.722 307.908L534.503 303.388C534.503 303.388 530.107 283.738 528.455 278.038C526.803 272.338 524.237 255.028 524.237 255.028Z" fill="#8568F5" stroke="#263238" stroke-linecap="round" stroke-linejoin="round"/>
<path d="M497.664 327.738C501.761 325.788 507.688 323.058 512.14 321.428C519.653 318.678 535.053 315.738 535.977 313.378C536.901 311.018 535.791 311.018 530.293 312.588C524.796 314.158 518.001 318.488 518.001 318.488" fill="#8568F5"/>
<path d="M497.664 327.738C501.761 325.788 507.688 323.058 512.14 321.428C519.653 318.678 535.053 315.738 535.977 313.378C536.901 311.018 535.791 311.018 530.293 312.588C524.796 314.158 518.001 318.488 518.001 318.488" stroke="#263238" stroke-linecap="round" stroke-linejoin="round"/>
<path d="M492.867 330.078L494.398 329.318Z" fill="#8568F5"/>
<path d="M492.867 330.078L494.398 329.318" stroke="#263238" stroke-linecap="round" stroke-linejoin="round"/>
<path d="M522.732 303.398C519.54 303.527 516.365 303.973 513.25 304.728C503.711 307.088 501.695 308.468 505.176 308.468C507.939 308.388 510.695 308.124 513.427 307.678" fill="#8568F5"/>
<path d="M522.732 303.398C519.54 303.527 516.365 303.973 513.25 304.728C503.711 307.088 501.695 308.468 505.176 308.468C507.939 308.388 510.695 308.124 513.427 307.678" stroke="#263238" stroke-linecap="round" stroke-linejoin="round"/>
<path d="M531.207 303.748C529.879 303.557 528.543 303.441 527.203 303.398Z" fill="#8568F5"/>
<path d="M531.207 303.748C529.879 303.557 528.543 303.441 527.203 303.398" stroke="#263238" stroke-linecap="round" stroke-linejoin="round"/>
<path d="M527.072 336.968C523.936 339.558 521.239 341.538 519.652 341.858Z" fill="#8568F5"/>
<path d="M527.072 336.968C523.936 339.558 521.239 341.538 519.652 341.858" stroke="#263238" stroke-linecap="round" stroke-linejoin="round"/>
<path d="M547.53 321.618C545.318 322.509 543.22 323.695 541.286 325.148C537.627 327.788 533.194 331.758 529.152 335.148" fill="#8568F5"/>
<path d="M547.53 321.618C545.318 322.509 543.22 323.695 541.286 325.148C537.627 327.788 533.194 331.758 529.152 335.148" stroke="#263238" stroke-linecap="round" stroke-linejoin="round"/>
<path d="M552.291 320.838C551.546 320.712 550.787 320.736 550.051 320.908Z" fill="#8568F5"/>
<path d="M552.291 320.838C551.546 320.712 550.787 320.736 550.051 320.908" stroke="#263238" stroke-linecap="round" stroke-linejoin="round"/>
<path d="M507.128 277.518C506.579 278.896 506.109 280.309 505.719 281.748Z" fill="#8568F5"/>
<path d="M507.128 277.518C506.579 278.896 506.109 280.309 505.719 281.748" stroke="#263238" stroke-linecap="round" stroke-linejoin="round"/>
<path d="M517.638 260.728C514.005 264.821 510.921 269.435 508.473 274.438Z" fill="#8568F5"/>
<path d="M517.638 260.728C514.005 264.821 510.921 269.435 508.473 274.438" stroke="#263238" stroke-linecap="round" stroke-linejoin="round"/>
<path d="M519.654 263.478C519.654 263.478 515.622 267.008 515.258 270.748Z" fill="#8568F5"/>
<path d="M519.654 263.478C519.654 263.478 515.622 267.008 515.258 270.748" stroke="#263238" stroke-linecap="round" stroke-linejoin="round"/>
<path d="M611.521 254.438C611.521 254.438 608.954 280.758 605.837 288.028C602.719 295.298 598.865 303.748 599.415 306.698C599.966 309.648 599.238 313.768 599.051 314.748C598.865 315.728 594.105 318.288 593.003 318.488C591.902 318.688 586.031 323.198 586.031 323.198C586.031 323.198 600.33 339.698 604.371 340.688C608.413 341.678 622.338 346.188 626.37 345.788C630.402 345.388 641.593 342.058 643.795 340.098C645.095 338.938 646.263 337.619 647.277 336.168C648.132 336.173 648.964 335.863 649.631 335.289C650.299 334.716 650.763 333.914 650.945 333.018C651.878 329.678 649.078 316.318 646.726 309.248C644.374 302.178 628.759 273.098 625.091 267.408C621.423 261.718 620.509 258.408 618.306 256.598C616.103 254.788 611.521 254.438 611.521 254.438Z" fill="#8568F5" stroke="#263238" stroke-linecap="round" stroke-linejoin="round"/>
<path d="M601.805 315.538C601.805 315.538 608.954 311.218 609.869 309.448C610.783 307.678 602.906 308.068 602.906 308.068" fill="#8568F5"/>
<path d="M601.805 315.538C601.805 315.538 608.954 311.218 609.869 309.448C610.783 307.678 602.906 308.068 602.906 308.068" stroke="#263238" stroke-linecap="round" stroke-linejoin="round"/>
<path d="M630.496 316.248C637.412 321.708 646.633 333.438 647.464 331.848C648.397 330.078 647.828 324.968 642.508 322.218" fill="#8568F5"/>
<path d="M630.496 316.248C637.412 321.708 646.633 333.438 647.464 331.848C648.397 330.078 647.828 324.968 642.508 322.218" stroke="#263238" stroke-linecap="round" stroke-linejoin="round"/>
<path d="M615 313.378C617.188 312.542 619.521 312.232 621.834 312.469C624.147 312.706 626.383 313.484 628.384 314.748" fill="#8568F5"/>
<path d="M615 313.378C617.188 312.542 619.521 312.232 621.834 312.469C624.147 312.706 626.383 313.484 628.384 314.748" stroke="#263238" stroke-linecap="round" stroke-linejoin="round"/>
<path d="M629.805 292.168C631.111 296.118 630.869 296.548 630.402 296.678Z" fill="#8568F5"/>
<path d="M629.805 292.168C631.111 296.118 630.869 296.548 630.402 296.678" stroke="#263238" stroke-linecap="round" stroke-linejoin="round"/>
<path d="M614.637 264.848C614.637 264.848 619.957 266.418 625.641 280.958C626.873 284.108 627.825 286.628 628.562 288.628" fill="#8568F5"/>
<path d="M614.637 264.848C614.637 264.848 619.957 266.418 625.641 280.958C626.873 284.108 627.825 286.628 628.562 288.628" stroke="#263238" stroke-linecap="round" stroke-linejoin="round"/>
<path d="M617 261.318C620.238 264.228 622.862 267.841 624.7 271.918Z" fill="#8568F5"/>
<path d="M617 261.318C620.238 264.228 622.862 267.841 624.7 271.918" stroke="#263238" stroke-linecap="round" stroke-linejoin="round"/>
<path d="M609.141 313.768C609.141 313.768 609.505 315.928 612.799 316.518C616.094 317.108 622.702 317.308 625.269 317.698" fill="#8568F5"/>
<path d="M609.141 313.768C609.141 313.768 609.505 315.928 612.799 316.518C616.094 317.108 622.702 317.308 625.269 317.698" stroke="#263238" stroke-linecap="round" stroke-linejoin="round"/>
<path d="M557.975 328.308L564.826 327.258C564.826 327.258 568.429 324.768 570.809 324.768C573.189 324.768 580.347 328.898 582.177 330.858C584.006 332.818 584.043 337.348 583.278 340.288C582.513 343.228 582.177 344.218 572.834 345.398C563.491 346.578 545.133 341.078 545.133 341.078C545.133 341.078 549.529 329.078 552.282 328.308C554.156 327.852 556.102 327.852 557.975 328.308Z" fill="#BA8B7A" stroke="#263238" stroke-linecap="round" stroke-linejoin="round"/>
<path d="M589.7 325.948C589.7 325.948 583.466 320.648 582.728 320.448C581.991 320.248 579.611 320.248 577.231 319.858C574.851 319.468 574.114 321.858 572.648 322.608C571.183 323.358 571.183 322.998 570.782 324.768C570.38 326.538 572.648 326.768 573.899 326.538C575.15 326.308 576.288 326.148 576.288 326.148C576.288 326.148 564.547 327.148 564.547 329.288C564.547 331.428 565.098 332.428 565.835 332.428H566.6C566.6 332.428 564.398 334.598 565.312 336.358C565.543 336.846 565.926 337.232 566.395 337.448C566.865 337.663 567.39 337.695 567.879 337.538C567.879 337.538 566.414 339.698 567.515 341.078C568.616 342.458 571.547 342.848 571.547 342.848C571.547 342.848 568.066 343.238 572.835 345.398C577.604 347.558 581.235 347.558 585.846 346.778C590.456 345.998 597.046 343.238 599.416 341.468C601.787 339.698 609.319 338.918 608.955 336.948C608.591 334.978 589.7 325.948 589.7 325.948Z" fill="#BA8B7A" stroke="#263238" stroke-linecap="round" stroke-linejoin="round"/>
<path d="M566.598 332.428C566.598 332.428 574.064 332.428 575.931 331.848C577.798 331.268 583.995 328.848 583.995 328.848" stroke="#263238" stroke-linecap="round" stroke-linejoin="round"/>
<path d="M576.316 326.148C576.316 326.148 578.696 325.358 579.611 324.968C580.526 324.578 584.203 325.168 584.203 325.168" stroke="#263238" stroke-linecap="round" stroke-linejoin="round"/>
<path d="M567.879 337.538C567.879 337.538 576.867 336.538 578.696 336.168C580.526 335.798 585.295 334.168 585.295 334.168" stroke="#263238" stroke-linecap="round" stroke-linejoin="round"/>
<path d="M571.547 342.848H581.636C583.421 342.798 585.174 342.327 586.77 341.468" stroke="#263238" stroke-linecap="round" stroke-linejoin="round"/>
<path d="M572.648 322.618C572.648 322.618 575.028 322.028 576.13 322.818" stroke="#263238" stroke-linecap="round" stroke-linejoin="round"/>
<path d="M608.955 336.948C608.955 336.948 625.643 344.348 622.657 344.528C619.67 344.708 604.867 339.438 604.867 339.438C604.867 339.438 608.461 338.618 608.955 336.948Z" fill="#263238" stroke="#263238" stroke-linecap="round" stroke-linejoin="round"/>
<path d="M443.399 220.228C443.399 220.228 428.96 218.678 422.464 215.328C415.968 211.978 404.647 209.398 396.462 209.658C388.276 209.918 379.615 216.878 371.43 217.658C363.244 218.438 358.438 219.718 357.71 224.368C356.982 229.018 364.542 334.368 364.542 334.368H444.332L446.74 224.618C446.74 224.618 446.74 222.288 443.399 220.228Z" fill="#878787" stroke="#263238" stroke-linecap="round" stroke-linejoin="round"/>
<path d="M380.268 266.858C380.268 266.858 366.8 265.718 360.948 267.618C355.096 269.518 350.318 284.708 349.431 288.508C348.544 292.308 343.934 295.718 343.756 298.188C343.579 300.658 345.175 305.028 345.352 305.788C345.53 306.548 338.259 309.968 337.55 312.248C337.025 313.823 336.373 315.346 335.599 316.798C335.599 316.798 331.866 331.238 331.866 331.798C331.866 332.358 331.156 336.918 331.156 336.918H469.943C469.943 336.918 477.559 330.658 475.431 325.528C473.303 320.398 469.056 313.528 467.46 309.008C465.864 304.488 463.204 292.478 459.126 282.608C455.047 272.738 450.978 266.848 447.786 264.948C444.605 263.261 441.055 262.539 437.519 262.858C435.391 263.238 428.307 265.518 428.307 265.518L380.268 266.858Z" fill="#8568F5" stroke="#263238" stroke-linecap="round" stroke-linejoin="round"/>
<path d="M389.535 261.798L400.959 272.218L414.921 259.528L415.127 239.128L385.941 241.618L389.535 261.798Z" fill="#D6B2A5" stroke="#263238" stroke-linecap="round" stroke-linejoin="round"/>
<path d="M400.962 272.218C400.962 272.218 395.362 282.708 391.087 284.108C386.813 285.508 380.578 268.278 380.578 268.278L388.138 260.008L400.962 272.218Z" fill="white" stroke="#263238" stroke-linecap="round" stroke-linejoin="round"/>
<path d="M400.961 272.218C400.961 272.218 407 284.468 410.957 283.618C414.914 282.768 421 266.518 421 266.518L414.942 259.518L400.961 272.218Z" fill="white" stroke="#263238" stroke-linecap="round" stroke-linejoin="round"/>
<path d="M391.132 198.838C391.132 198.838 386.54 200.608 384.188 204.388C381.836 208.168 375.713 221.538 375.358 230.498C375.004 239.458 376.534 244.498 377.122 247.768C377.71 251.038 375.592 255.088 374.658 256.598C373.725 258.108 369.478 261.388 369.992 265.428C370.505 269.468 375.592 270.848 374.938 272.618C374.285 274.388 368.461 274.008 368.461 277.788C368.461 281.568 373.762 283.088 375.928 283.088C377.259 283.048 378.552 282.608 379.661 281.818C379.661 281.818 376.861 280.688 378.252 279.548C379.642 278.408 384.132 278.918 386.138 276.778C388.145 274.638 386.726 271.108 387.193 269.838C387.66 268.568 390.926 269.718 392.018 266.058C393.11 262.398 390.488 255.338 390.021 252.818C389.554 250.298 389.088 244.618 389.088 244.618C389.088 244.618 386.288 219.528 387.445 216.498C388.602 213.468 395.92 213.728 401.688 215.618C407.456 217.508 411.805 220.028 412.514 222.048C413.224 224.068 412.869 243.488 412.869 243.488C412.869 243.488 411.805 260.008 412.748 265.558C413.69 271.108 421.101 273.378 421.577 276.908C422.053 280.438 421.932 282.078 420.158 281.908C420.584 282.827 421.323 283.536 422.223 283.888C423.123 284.24 424.115 284.208 424.993 283.798C428.4 282.418 429.109 277.878 429.109 277.878L428.988 281.528C428.988 281.528 430.285 281.028 431.788 278.378C433.29 275.728 432.376 270.308 431.909 269.548C431.442 268.788 433.776 269.298 434.261 267.548C434.467 266.141 434.302 264.7 433.785 263.388C433.785 263.388 433.552 265.028 432.73 263.638C431.909 262.248 430.378 260.238 430.49 259.228C430.602 258.218 432.357 257.088 430.724 253.558C429.09 250.028 428.017 252.418 426.608 244.478C425.198 236.538 426.962 229.598 423.192 220.138C419.421 210.678 412.841 202.478 406.718 199.328C400.596 196.178 395.126 196.448 391.132 198.838Z" fill="#263238" stroke="#263238" stroke-linecap="round" stroke-linejoin="round"/>
<path d="M393.567 206.618C393.567 206.618 384.42 214.938 384.234 218.248C384.047 221.558 385.615 241.608 387.743 245.148C389.871 248.688 395.406 254.268 398.943 254.948C402.481 255.628 403.358 254.898 403.89 254.448C404.422 253.998 414.213 245.728 414.959 241.958C415.706 238.188 414.689 219.198 414.371 218.628C414.054 218.058 403.843 209.698 400.754 208.438C398.419 207.582 396.012 206.972 393.567 206.618Z" fill="#FDD8BA" stroke="#263238" stroke-linecap="round" stroke-linejoin="round"/>
<path d="M396.023 235.728C396.023 235.728 398.366 237.728 399.813 237.568C401.259 237.408 403.145 235.568 403.145 235.568" stroke="#263238" stroke-linecap="round" stroke-linejoin="round"/>
<path d="M407.084 239.618C407.084 239.618 405.217 242.238 399.421 242.238C397.023 242.351 394.673 241.498 392.832 239.848C392.832 239.848 396.892 245.458 399.832 245.958C402.772 246.458 407.084 239.618 407.084 239.618Z" fill="white" stroke="#263238" stroke-linecap="round" stroke-linejoin="round"/>
<path d="M393.857 227.238C393.857 228.418 393.269 229.378 392.541 229.378C391.813 229.378 391.234 228.378 391.234 227.238C391.234 226.098 391.813 225.098 392.541 225.098C393.269 225.098 393.857 226.048 393.857 227.238Z" fill="#263238"/>
<path d="M407.931 227.238C407.931 228.418 407.343 229.378 406.615 229.378C405.887 229.378 405.309 228.378 405.309 227.238C405.309 226.098 405.897 225.098 406.615 225.098C407.334 225.098 407.931 226.048 407.931 227.238Z" fill="#263238"/>
<path d="M388.25 223.958C388.25 223.958 390.695 220.508 395.969 222.578" stroke="#263238" stroke-linecap="round" stroke-linejoin="round"/>
<path d="M401.867 223.018C403.094 222.173 404.526 221.735 405.984 221.76C407.442 221.785 408.861 222.271 410.062 223.158" stroke="#263238" stroke-linecap="round" stroke-linejoin="round"/>
<path d="M363.582 303.698C363.647 312.978 364.058 327.188 365.738 335.598" stroke="#263238" stroke-linecap="round" stroke-linejoin="round"/>
<path d="M363.607 294.618C363.607 294.618 363.551 297.328 363.607 301.448" stroke="#263238" stroke-linecap="round" stroke-linejoin="round"/>
<path d="M358.672 295.618C359.213 299.825 360.034 303.986 361.127 308.068" stroke="#263238" stroke-linecap="round" stroke-linejoin="round"/>
<path d="M356.691 273.498C356.691 273.498 357.074 283.008 358.325 293.048" stroke="#263238" stroke-linecap="round" stroke-linejoin="round"/>
<path d="M352.445 296.288C352.445 296.288 357.401 308.288 361.303 314.138" stroke="#263238" stroke-linecap="round" stroke-linejoin="round"/>
<path d="M439.506 292.758C438.862 303.868 437.2 326.998 434.148 336.358" stroke="#263238" stroke-linecap="round" stroke-linejoin="round"/>
<path d="M439.826 286.618C439.826 286.618 439.77 287.958 439.648 290.218" stroke="#263238" stroke-linecap="round" stroke-linejoin="round"/>
<path d="M452.992 286.668C453.338 288.418 453.683 290.238 454 292.108" stroke="#263238" stroke-linecap="round" stroke-linejoin="round"/>
<path d="M448.867 269.518C448.867 269.518 450.659 275.618 452.451 284.078" stroke="#263238" stroke-linecap="round" stroke-linejoin="round"/>
<path d="M459.454 318.698C459.442 320.735 459.28 322.768 458.969 324.778" stroke="#263238" stroke-linecap="round" stroke-linejoin="round"/>
<path d="M455.598 284.138C455.598 284.138 458.967 301.368 459.415 314.858" stroke="#263238" stroke-linecap="round" stroke-linejoin="round"/>
<path d="M364.494 269.138C364.494 269.138 360.415 281.478 361.302 292.138" stroke="#263238" stroke-linecap="round" stroke-linejoin="round"/>
<path d="M402.051 308.268L402.07 313.188" stroke="#263238" stroke-linecap="round" stroke-linejoin="round"/>
<path d="M401.895 277.108L402.034 305.728" stroke="#263238" stroke-linecap="round" stroke-linejoin="round"/>
<path d="M271.21 220.228C271.21 220.228 256.762 218.678 250.266 215.328C243.77 211.978 232.468 209.398 224.273 209.618C216.078 209.838 207.426 216.838 199.241 217.618C191.056 218.398 186.24 219.678 185.521 224.328C184.802 228.978 192.344 334.328 192.344 334.328H272.172L274.58 224.618C274.58 224.618 274.58 222.288 271.21 220.228Z" fill="#878787" stroke="#263238" stroke-linecap="round" stroke-linejoin="round"/>
<path d="M218.196 242.268L213.8 244.798C211.476 246.138 193.93 253.628 193.93 256.698C193.93 259.768 203.058 283.548 203.776 292.568C204.495 301.588 196.898 335.188 196.898 335.188H269.278C269.278 335.188 262.679 280.288 264.611 274.728C266.543 269.168 273.207 259.378 273.207 259.378C273.207 259.378 266.291 253.618 263.267 251.318C260.243 249.018 255.026 245.188 250.732 244.028C246.439 242.868 240.886 240.768 240.344 240.768C239.803 240.768 218.196 242.268 218.196 242.268Z" fill="#8568F5" stroke="#263238" stroke-linecap="round" stroke-linejoin="round"/>
<path d="M193.957 256.698C193.957 256.698 189.123 259.188 187.153 260.338C185.184 261.488 182.141 260.718 180.881 263.408C179.621 266.098 176.047 273.408 167.273 283.408C158.5 293.408 154.748 310.078 155.28 318.518C155.812 326.958 156.717 331.368 157.427 331.938C158.136 332.508 160.469 334.438 160.469 334.438H192.333C192.333 334.438 195.553 327.918 197.345 325.608C199.137 323.298 204.149 322.538 204.149 322.538L200.565 317.938C200.565 317.938 203.972 314.488 204.299 311.028C204.625 307.568 204.485 293.578 203.365 288.398C202.245 283.218 193.957 256.698 193.957 256.698Z" fill="#8568F5" stroke="#263238" stroke-linecap="round" stroke-linejoin="round"/>
<path d="M199.801 290.938L202.526 294.098" stroke="#263238" stroke-linecap="round" stroke-linejoin="round"/>
<path d="M188.404 271.268C188.404 271.268 185.894 273.578 187.331 275.878C188.264 277.308 193.911 284.028 198.074 288.878" stroke="#263238" stroke-linecap="round" stroke-linejoin="round"/>
<path d="M170.298 315.158C165.127 319.658 160.834 323.928 161.898 325.158C164.044 327.648 174.031 325.738 174.031 325.738" stroke="#263238" stroke-linecap="round" stroke-linejoin="round"/>
<path d="M176.585 281.618C176.585 281.618 174.616 283.928 175.652 285.838C176.688 287.748 188.719 299.268 183.884 303.678C181.784 305.608 176.912 309.468 172.273 313.408" stroke="#263238" stroke-linecap="round" stroke-linejoin="round"/>
<path d="M189.168 295.228C190.178 295.906 191.24 296.491 192.341 296.978C198.968 299.858 201.833 297.358 201.833 297.358" stroke="#263238" stroke-linecap="round" stroke-linejoin="round"/>
<path d="M180.527 286.808C182.61 289.602 185.03 292.087 187.723 294.198" stroke="#263238" stroke-linecap="round" stroke-linejoin="round"/>
<path d="M186.032 307.108C183.951 308.065 181.931 309.167 179.984 310.408" stroke="#263238" stroke-linecap="round" stroke-linejoin="round"/>
<path d="M192.884 299.278C192.884 299.278 197.719 300.628 196.618 301.578C196.123 302.028 192.567 303.818 188.871 305.678" stroke="#263238" stroke-linecap="round" stroke-linejoin="round"/>
<path d="M191.809 309.068C191.809 309.068 181.066 313.858 186.078 313.668C191.09 313.478 198.604 312.518 201.656 308.108" stroke="#263238" stroke-linecap="round" stroke-linejoin="round"/>
<path d="M200.573 317.888C200.573 317.888 196.998 322.298 188.757 325.178C180.515 328.058 177.305 331.888 177.305 331.888" stroke="#263238" stroke-linecap="round" stroke-linejoin="round"/>
<path d="M204.157 322.488C204.157 322.488 213.285 325.558 216.515 327.288C219.744 329.018 222.777 334.388 222.777 334.388H192.332C192.332 334.388 195.925 321.148 204.157 322.488Z" fill="white" stroke="#263238" stroke-linecap="round" stroke-linejoin="round"/>
<path d="M270.731 257.358C271.447 258.2 272.313 258.88 273.279 259.358C275.248 260.508 277.404 260.698 278.664 263.358C279.924 266.018 283.499 273.358 292.272 283.358C301.046 293.358 304.798 310.028 304.266 318.468C303.734 326.908 302.828 331.318 302.119 331.888C301.41 332.458 299.076 334.388 299.076 334.388H267.194C267.194 334.388 263.974 327.868 262.182 325.558C260.39 323.248 255.378 322.488 255.378 322.488L258.962 317.888C258.962 317.888 255.555 314.438 255.228 310.978C254.902 307.518 255.042 293.528 256.162 288.348C257.282 283.168 270.731 257.358 270.731 257.358Z" fill="#8568F5" stroke="#263238" stroke-linecap="round" stroke-linejoin="round"/>
<path d="M260.27 290.298C258.403 292.528 256.984 294.098 256.984 294.098" stroke="#263238" stroke-linecap="round" stroke-linejoin="round"/>
<path d="M271.134 271.268C271.134 271.268 273.645 273.578 272.207 275.878C271.33 277.288 265.777 283.878 261.633 288.698" stroke="#263238" stroke-linecap="round" stroke-linejoin="round"/>
<path d="M295.774 321.388C297.361 323.178 298.173 324.558 297.641 325.178C295.494 327.668 285.508 325.758 285.508 325.758" stroke="#263238" stroke-linecap="round" stroke-linejoin="round"/>
<path d="M278.722 292.178C275.632 296.238 272.823 301.178 275.614 303.688C278.843 306.688 288.559 314.138 294 319.528" stroke="#263238" stroke-linecap="round" stroke-linejoin="round"/>
<path d="M282.951 281.618C282.951 281.618 284.921 283.928 283.885 285.838C283.577 286.388 282.401 287.698 280.973 289.398" stroke="#263238" stroke-linecap="round" stroke-linejoin="round"/>
<path d="M279.011 286.808C279.011 286.808 273.822 294.098 267.195 296.978C260.568 299.858 257.703 297.358 257.703 297.358" stroke="#263238" stroke-linecap="round" stroke-linejoin="round"/>
<path d="M266.654 299.278C266.654 299.278 261.82 300.628 262.921 301.578C264.022 302.528 279.03 309.638 279.572 310.408" stroke="#263238" stroke-linecap="round" stroke-linejoin="round"/>
<path d="M267.726 309.068C267.726 309.068 278.468 313.858 273.456 313.668C268.444 313.478 260.931 312.518 257.879 308.108" stroke="#263238" stroke-linecap="round" stroke-linejoin="round"/>
<path d="M279.59 329.618C280.548 330.264 281.434 331.026 282.231 331.888" stroke="#263238" stroke-linecap="round" stroke-linejoin="round"/>
<path d="M258.965 317.888C258.965 317.888 262.54 322.298 270.781 325.178C272.321 325.709 273.83 326.34 275.298 327.068" stroke="#263238" stroke-linecap="round" stroke-linejoin="round"/>
<path d="M255.378 322.488C255.378 322.488 246.24 325.558 243.02 327.288C239.8 329.018 236.758 334.388 236.758 334.388H267.194C267.194 334.388 263.61 321.148 255.378 322.488Z" fill="#F6B684" stroke="#263238" stroke-linecap="round" stroke-linejoin="round"/>
<path d="M224.98 278.018L230.142 277.918" stroke="#263238" stroke-linecap="round" stroke-linejoin="round"/>
<path d="M206.023 278.378L221.797 278.078" stroke="#263238" stroke-linecap="round" stroke-linejoin="round"/>
<path d="M234.555 277.978L260.072 278.148" stroke="#263238" stroke-linecap="round" stroke-linejoin="round"/>
<path d="M218.195 242.268L216.039 244.928C216.039 244.928 218.083 253.788 221.48 259.128C224.878 264.468 232.008 276.358 232.008 276.358C232.008 276.358 238.234 262.888 241.407 257.678C244.58 252.468 245.486 247.968 245.262 246.148C245.013 244.695 244.631 243.271 244.123 241.898L218.195 242.268Z" fill="white" stroke="#263238" stroke-linecap="round" stroke-linejoin="round"/>
<path d="M227.082 262.458L229.919 265.358L227.213 267.968L232.01 276.358L236.014 268.118L232.635 265.358L234.801 262.318L229.919 256.948L227.082 262.458Z" fill="#263238" stroke="#263238" stroke-linecap="round" stroke-linejoin="round"/>
<path d="M244.123 241.898L218.195 242.268L216.039 244.928C216.039 244.928 218.083 253.788 221.48 259.128C222.264 260.368 223.263 261.968 224.28 263.688L229.852 259.618L237.16 265.478H237.263C238.747 262.478 240.278 259.578 241.407 257.718C244.58 252.498 245.486 248.008 245.262 246.188C245.015 244.721 244.634 243.284 244.123 241.898Z" fill="white" stroke="#263238" stroke-linecap="round" stroke-linejoin="round"/>
<path d="M245.71 221.618C245.71 221.618 245.15 211.908 243.451 207.538C241.753 203.168 235.985 200.018 231.785 201.468C227.585 202.918 224.197 205.838 220.911 206.088C217.626 206.338 216.833 206.448 216.833 206.448C216.833 206.448 216.833 211.908 215.899 214.938C215.298 217.356 214.984 219.846 214.966 222.348L212.866 220.788C213.493 217.862 213.416 214.813 212.642 211.928C211.401 206.588 210.607 205.128 211.961 203.558C213.314 201.988 213.211 201.368 213.211 201.368C213.211 201.368 216.151 194.368 222.834 192.518C229.517 190.668 238.579 190.518 243.787 195.308C248.995 200.098 249.107 208.528 247.978 211.198C247.053 213.248 246.514 215.474 246.391 217.748C246.391 219.208 246.503 220.418 246.503 220.418L241.071 222.618" fill="#263238"/>
<path d="M245.71 221.618C245.71 221.618 245.15 211.908 243.451 207.538C241.753 203.168 235.985 200.018 231.785 201.468C227.585 202.918 224.197 205.838 220.911 206.088C217.626 206.338 216.833 206.448 216.833 206.448C216.833 206.448 216.833 211.908 215.899 214.938C215.298 217.356 214.984 219.846 214.966 222.348L212.866 220.788C213.493 217.862 213.416 214.813 212.642 211.928C211.401 206.588 210.607 205.128 211.961 203.558C213.314 201.988 213.211 201.368 213.211 201.368C213.211 201.368 216.151 194.368 222.834 192.518C229.517 190.668 238.579 190.518 243.787 195.308C248.995 200.098 249.107 208.528 247.978 211.198C247.053 213.248 246.514 215.474 246.391 217.748C246.391 219.208 246.503 220.418 246.503 220.418L241.071 222.618" stroke="#263238" stroke-linecap="round" stroke-linejoin="round"/>
<path d="M217.738 239.618C217.738 239.618 217.962 245.798 218.868 248.718C219.773 251.638 225.401 258.548 229.853 259.638C234.305 260.728 242.994 247.018 243.564 245.438C244.133 243.858 244.012 238.278 244.012 238.278C244.012 238.278 237.478 246.528 232.69 248.348C227.902 250.168 225.326 247.988 222.61 245.198C220.899 243.428 219.273 241.565 217.738 239.618Z" fill="#FDD8BA" stroke="#263238" stroke-linecap="round" stroke-linejoin="round"/>
<path d="M214.124 220.678C214.124 220.678 214.329 234.108 216.215 238.808C218.1 243.508 224.391 251.218 228.749 251.808C234.723 252.598 244.205 243.078 245.036 239.498C245.867 235.918 246.081 221.148 245.251 216.228C244.42 211.308 243.449 205.518 241.751 203.228C240.052 200.938 234.611 198.498 230.989 199.958C227.368 201.418 226.229 202.748 223.523 203.348C220.816 203.948 216.504 204.688 216.504 204.688C216.504 204.688 214.236 209.298 214.124 212.578C214.012 215.858 214.124 220.678 214.124 220.678Z" fill="#F6B684" stroke="#263238" stroke-linecap="round" stroke-linejoin="round"/>
<path d="M245.71 221.618C245.71 221.618 248.995 217.488 249.564 220.278C250.134 223.068 249.107 231.448 247.408 232.778C245.71 234.108 245.598 231.688 245.598 231.688L245.71 221.618Z" fill="#EB996E" stroke="#263238" stroke-linecap="round" stroke-linejoin="round"/>
<path d="M214.125 220.678C214.125 220.678 211.848 218.968 211.167 221.518C210.485 224.068 212.417 229.768 213.099 231.338C213.451 232.238 214.094 232.973 214.909 233.408L214.125 220.678Z" fill="#EB996E" stroke="#263238" stroke-linecap="round" stroke-linejoin="round"/>
<path d="M220.91 234.618C221.703 232.798 225.437 231.218 225.437 231.218C225.437 231.218 223.514 232.678 224.503 233.648C225.493 234.618 228.694 236.198 229.945 235.828C231.195 235.458 234.014 234.008 234.247 233.038C234.481 232.068 233.902 230.738 233.109 230.618C233.109 230.618 237.645 232.318 238.326 234.498" stroke="#263238" stroke-linecap="round" stroke-linejoin="round"/>
<path d="M221.703 237.778C224.091 239.069 226.728 239.742 229.403 239.742C232.078 239.742 234.715 239.069 237.103 237.778" stroke="#263238" stroke-linecap="round" stroke-linejoin="round"/>
<path d="M223.515 224.308C223.515 225.108 223.058 225.758 222.498 225.758C221.938 225.758 221.48 225.108 221.48 224.308C221.48 223.508 221.928 222.848 222.498 222.848C223.067 222.848 223.515 223.498 223.515 224.308Z" fill="#263238"/>
<path d="M237.441 224.308C237.441 225.108 236.993 225.758 236.424 225.758C235.854 225.758 235.406 225.108 235.406 224.308C235.406 223.508 235.864 222.848 236.424 222.848C236.984 222.848 237.441 223.498 237.441 224.308Z" fill="#263238"/>
<path d="M227.285 224.308C227.285 226.378 225.045 228.068 222.282 228.068C219.52 228.068 217.289 226.378 217.289 224.308C217.289 222.238 219.529 220.548 222.282 220.548C225.036 220.548 227.285 222.228 227.285 224.308Z" stroke="#263238" stroke-linecap="round" stroke-linejoin="round"/>
<path d="M241.22 224.308C241.22 226.378 238.98 228.068 236.218 228.068C233.455 228.068 231.215 226.378 231.215 224.308C231.215 222.238 233.455 220.548 236.218 220.548C238.98 220.548 241.22 222.228 241.22 224.308Z" stroke="#263238" stroke-linecap="round" stroke-linejoin="round"/>
<path d="M227.023 222.488H231.671" stroke="#263238" stroke-linecap="round" stroke-linejoin="round"/>
<path d="M227.285 224.308C227.285 224.308 228.722 222.488 231.214 224.308" stroke="#263238" stroke-linecap="round" stroke-linejoin="round"/>
<path d="M217.168 222.968L214.004 219.938" stroke="#263238" stroke-linecap="round" stroke-linejoin="round"/>
<path d="M218.531 219.938C218.531 219.938 220.118 217.998 224.757 219.088" stroke="#263238" stroke-linecap="round" stroke-linejoin="round"/>
<path d="M233.594 219.208C234.684 218.715 235.887 218.579 237.05 218.817C238.213 219.056 239.283 219.658 240.127 220.548" stroke="#263238" stroke-linecap="round" stroke-linejoin="round"/>
<path d="M687.84 350.418H93.0078V516.038H687.84V350.418Z" fill="#B5B5B5" stroke="#263238" stroke-linecap="round" stroke-linejoin="round"/>
<path d="M703.679 350.418H88.1367V361.648H703.679V350.418Z" fill="#263238" stroke="#263238" stroke-linecap="round" stroke-linejoin="round"/>
<path d="M685.366 353.798H626.93V364.508H685.366V353.798Z" fill="#B5B5B5" stroke="#263238" stroke-linecap="round" stroke-linejoin="round"/>
<path d="M675.219 375.218H637.074L632.305 364.508H679.989L675.219 375.218Z" fill="#B5B5B5" stroke="#263238" stroke-linecap="round" stroke-linejoin="round"/>
<path d="M637.074 515.398V375.218" stroke="#263238" stroke-linecap="round" stroke-linejoin="round"/>
<path d="M675.129 375.218V515.398" stroke="#263238" stroke-linecap="round" stroke-linejoin="round"/>
<path d="M641.258 515.638V381.858H654.465V515.398" fill="#B5B5B5"/>
<path d="M641.258 515.638V381.858H654.465V515.398" stroke="#263238" stroke-linecap="round" stroke-linejoin="round"/>
<path d="M657.441 515.638V381.858H670.648V515.398" fill="#B5B5B5"/>
<path d="M657.441 515.638V381.858H670.648V515.398" stroke="#263238" stroke-linecap="round" stroke-linejoin="round"/>
<path d="M507.678 353.798H449.242V364.508H507.678V353.798Z" fill="#B5B5B5" stroke="#263238" stroke-linecap="round" stroke-linejoin="round"/>
<path d="M497.532 375.218H459.387L454.617 364.508H502.301L497.532 375.218Z" fill="#B5B5B5" stroke="#263238" stroke-linecap="round" stroke-linejoin="round"/>
<path d="M459.387 515.398V375.218" stroke="#263238" stroke-linecap="round" stroke-linejoin="round"/>
<path d="M497.438 375.218V515.398" stroke="#263238" stroke-linecap="round" stroke-linejoin="round"/>
<path d="M463.57 515.638V381.858H476.777V515.398" fill="#B5B5B5"/>
<path d="M463.57 515.638V381.858H476.777V515.398" stroke="#263238" stroke-linecap="round" stroke-linejoin="round"/>
<path d="M479.754 515.638V381.858H492.961V515.398" fill="#B5B5B5"/>
<path d="M479.754 515.638V381.858H492.961V515.398" stroke="#263238" stroke-linecap="round" stroke-linejoin="round"/>
<path d="M329.991 353.798H271.555V364.508H329.991V353.798Z" fill="#B5B5B5" stroke="#263238" stroke-linecap="round" stroke-linejoin="round"/>
<path d="M319.844 375.218H281.699L276.93 364.508H324.614L319.844 375.218Z" fill="#B5B5B5" stroke="#263238" stroke-linecap="round" stroke-linejoin="round"/>
<path d="M281.699 515.398V375.218" stroke="#263238" stroke-linecap="round" stroke-linejoin="round"/>
<path d="M319.75 375.218V515.398" stroke="#263238" stroke-linecap="round" stroke-linejoin="round"/>
<path d="M285.879 515.638V381.858H299.086V515.398" fill="#B5B5B5"/>
<path d="M285.879 515.638V381.858H299.086V515.398" stroke="#263238" stroke-linecap="round" stroke-linejoin="round"/>
<path d="M302.066 515.638V381.858H315.273V515.398" fill="#B5B5B5"/>
<path d="M302.066 515.638V381.858H315.273V515.398" stroke="#263238" stroke-linecap="round" stroke-linejoin="round"/>
<path d="M152.303 353.798H93.8672V364.508H152.303V353.798Z" fill="#B5B5B5" stroke="#263238" stroke-linecap="round" stroke-linejoin="round"/>
<path d="M142.157 375.218H104.012L99.2422 364.508H146.926L142.157 375.218Z" fill="#B5B5B5" stroke="#263238" stroke-linecap="round" stroke-linejoin="round"/>
<path d="M104.012 515.398V375.218" stroke="#263238" stroke-linecap="round" stroke-linejoin="round"/>
<path d="M142.062 375.218V515.398" stroke="#263238" stroke-linecap="round" stroke-linejoin="round"/>
<path d="M108.191 515.638V381.858H121.398V515.398" fill="#B5B5B5"/>
<path d="M108.191 515.638V381.858H121.398V515.398" stroke="#263238" stroke-linecap="round" stroke-linejoin="round"/>
<path d="M124.375 515.638V381.858H137.582V515.398" fill="#B5B5B5"/>
<path d="M124.375 515.638V381.858H137.582V515.398" stroke="#263238" stroke-linecap="round" stroke-linejoin="round"/>
<path d="M711.014 334.388H80.8086V354.128H711.014V334.388Z" fill="#B5B5B5" stroke="#263238" stroke-linecap="round" stroke-linejoin="round"/>
<path d="M443.884 315.978H360.5V334.958H443.884V315.978Z" fill="white" stroke="#263238" stroke-linecap="round" stroke-linejoin="round"/>
<path d="M442.372 317.568H362.012V333.368H442.372V317.568Z" fill="#263238" stroke="#263238" stroke-linecap="round" stroke-linejoin="round"/>
<path d="M250.861 315.978H167.477V334.958H250.861V315.978Z" fill="white" stroke="#263238" stroke-linecap="round" stroke-linejoin="round"/>
<path d="M249.348 317.568H168.988V333.368H249.348V317.568Z" fill="#263238" stroke="#263238" stroke-linecap="round" stroke-linejoin="round"/>
<path d="M652.755 315.978H569.371V334.958H652.755V315.978Z" fill="white" stroke="#263238" stroke-linecap="round" stroke-linejoin="round"/>
<path d="M651.243 317.568H570.883V333.368H651.243V317.568Z" fill="#263238" stroke="#263238" stroke-linecap="round" stroke-linejoin="round"/>
<path d="M370.6 311.618L361.724 313.508C361.445 313.569 361.157 313.57 360.877 313.512C360.597 313.454 360.33 313.336 360.092 313.167C359.855 312.998 359.651 312.78 359.492 312.527C359.333 312.273 359.223 311.988 359.167 311.688C359.054 311.082 359.171 310.453 359.491 309.939C359.812 309.425 360.309 309.068 360.875 308.948L369.751 307.048C370.316 306.927 370.904 307.052 371.383 307.395C371.863 307.739 372.196 308.272 372.308 308.878C372.418 309.484 372.3 310.111 371.981 310.624C371.661 311.138 371.165 311.495 370.6 311.618Z" fill="#BFBFBF" stroke="#263238" stroke-linecap="round" stroke-linejoin="round"/>
<path d="M368.931 305.728L361.157 307.398C360.986 307.434 360.823 307.505 360.678 307.609C360.532 307.712 360.408 307.845 360.311 308C360.213 308.156 360.146 308.33 360.112 308.513C360.077 308.696 360.077 308.885 360.111 309.068L370.499 306.848C370.427 306.478 370.222 306.154 369.929 305.944C369.636 305.735 369.278 305.657 368.931 305.728Z" fill="#BFBFBF" stroke="#263238" stroke-linecap="round" stroke-linejoin="round"/>
<path d="M370.311 313.108L362.527 314.778C362.356 314.814 362.18 314.814 362.009 314.777C361.839 314.741 361.676 314.668 361.531 314.564C361.386 314.46 361.262 314.327 361.166 314.171C361.069 314.015 361.002 313.841 360.969 313.658L371.347 311.438C371.383 311.62 371.384 311.809 371.351 311.992C371.318 312.175 371.251 312.349 371.155 312.504C371.058 312.66 370.934 312.793 370.79 312.897C370.645 313 370.482 313.072 370.311 313.108Z" fill="#BFBFBF" stroke="#263238" stroke-linecap="round" stroke-linejoin="round"/>
<path d="M371.107 312.908L361.734 314.913L362.036 316.531L371.408 314.526L371.107 312.908Z" fill="#BFBFBF" stroke="#263238" stroke-linecap="round" stroke-linejoin="round"/>
<path d="M373.739 328.448L364.863 330.348C364.298 330.468 363.8 330.825 363.48 331.339C363.159 331.853 363.043 332.482 363.155 333.088C363.268 333.694 363.601 334.227 364.08 334.57C364.56 334.913 365.147 335.038 365.712 334.918L374.588 333.018C375.153 332.895 375.649 332.538 375.969 332.024C376.289 331.511 376.407 330.883 376.296 330.278C376.184 329.672 375.851 329.138 375.372 328.795C374.892 328.452 374.305 328.327 373.739 328.448Z" fill="#BFBFBF" stroke="#263238" stroke-linecap="round" stroke-linejoin="round"/>
<path d="M374.335 334.528L366.551 336.188C366.38 336.226 366.205 336.227 366.034 336.192C365.863 336.156 365.7 336.085 365.555 335.982C365.41 335.878 365.286 335.745 365.189 335.59C365.093 335.435 365.026 335.261 364.992 335.078L375.38 332.848C375.449 333.219 375.377 333.604 375.182 333.919C374.986 334.234 374.681 334.453 374.335 334.528Z" fill="#BFBFBF" stroke="#263238" stroke-linecap="round" stroke-linejoin="round"/>
<path d="M372.925 327.148L365.141 328.808C364.97 328.844 364.807 328.915 364.662 329.019C364.517 329.122 364.392 329.255 364.295 329.41C364.198 329.566 364.13 329.74 364.096 329.923C364.062 330.106 364.062 330.295 364.096 330.478L374.484 328.258C374.45 328.075 374.383 327.901 374.287 327.746C374.19 327.59 374.066 327.457 373.921 327.354C373.776 327.251 373.613 327.179 373.442 327.144C373.271 327.109 373.095 327.11 372.925 327.148Z" fill="#BFBFBF" stroke="#263238" stroke-linecap="round" stroke-linejoin="round"/>
<path d="M373.427 325.399L364.055 327.404L364.356 329.022L373.729 327.017L373.427 325.399Z" fill="#BFBFBF" stroke="#263238" stroke-linecap="round" stroke-linejoin="round"/>
<path d="M372.064 314.316L361.52 316.571C360.605 316.767 360.011 317.72 360.194 318.701L361.555 326.007C361.738 326.987 362.628 327.623 363.543 327.427L374.087 325.172C375.002 324.976 375.595 324.023 375.413 323.043L374.051 315.737C373.869 314.756 372.979 314.12 372.064 314.316Z" fill="#BFBFBF" stroke="#263238" stroke-linecap="round" stroke-linejoin="round"/>
<path d="M374.006 315.502L360.148 318.466L361.596 326.232L375.453 323.268L374.006 315.502Z" fill="white" stroke="#263238" stroke-linecap="round" stroke-linejoin="round"/>
<path d="M360.33 320.196L358.746 320.534L359.543 324.81L361.126 324.471L360.33 320.196Z" fill="#BFBFBF" stroke="#263238" stroke-linecap="round" stroke-linejoin="round"/>
<path d="M353.128 322.168L351.551 322.498L352.185 325.938L353.772 325.598L359.549 324.798L358.756 320.528L353.128 322.168Z" fill="#BFBFBF" stroke="#263238" stroke-linecap="round" stroke-linejoin="round"/>
<path d="M348.612 323.128L350.19 322.798L350.834 326.228L349.247 326.568L303.99 336.618C303.729 336.676 303.46 336.679 303.199 336.625C302.938 336.572 302.689 336.463 302.466 336.306C302.244 336.149 302.053 335.946 301.905 335.71C301.756 335.473 301.653 335.207 301.6 334.928C301.549 334.648 301.55 334.36 301.603 334.081C301.656 333.801 301.76 333.536 301.909 333.299C302.058 333.063 302.25 332.861 302.472 332.705C302.695 332.548 302.944 332.441 303.206 332.388L348.612 323.128Z" fill="#BFBFBF" stroke="#263238" stroke-linecap="round" stroke-linejoin="round"/>
<path d="M359.158 326.088C359.242 326.07 359.321 326.034 359.392 325.983C359.462 325.932 359.523 325.867 359.57 325.791C359.617 325.714 359.649 325.629 359.665 325.539C359.681 325.449 359.68 325.357 359.662 325.268L358.729 320.398C358.695 320.216 358.595 320.057 358.452 319.954C358.309 319.851 358.133 319.813 357.963 319.848C357.88 319.866 357.8 319.901 357.73 319.952C357.659 320.003 357.598 320.069 357.551 320.145C357.505 320.221 357.472 320.307 357.456 320.397C357.441 320.486 357.442 320.578 357.459 320.668L358.393 325.548C358.409 325.637 358.442 325.723 358.49 325.798C358.538 325.874 358.599 325.939 358.67 325.989C358.741 326.039 358.821 326.074 358.905 326.091C358.989 326.108 359.075 326.107 359.158 326.088Z" fill="#BFBFBF" stroke="#263238" stroke-linecap="round" stroke-linejoin="round"/>
<path d="M351.934 326.738C352.056 326.714 352.173 326.664 352.278 326.591C352.382 326.518 352.472 326.423 352.542 326.312C352.611 326.201 352.659 326.076 352.683 325.945C352.707 325.814 352.706 325.679 352.68 325.548L352.204 323.008C352.182 322.876 352.135 322.751 352.067 322.639C351.999 322.527 351.91 322.431 351.807 322.356C351.703 322.282 351.587 322.23 351.464 322.205C351.342 322.179 351.216 322.18 351.094 322.208C350.972 322.233 350.856 322.284 350.752 322.357C350.649 322.431 350.56 322.526 350.492 322.637C350.423 322.748 350.376 322.872 350.352 323.003C350.329 323.133 350.331 323.268 350.356 323.398L350.823 325.938C350.845 326.069 350.892 326.195 350.96 326.307C351.029 326.418 351.117 326.515 351.221 326.589C351.324 326.664 351.441 326.715 351.563 326.741C351.686 326.766 351.812 326.765 351.934 326.738Z" fill="#BFBFBF" stroke="#263238" stroke-linecap="round" stroke-linejoin="round"/>
<path d="M50.6172 516.038H734.975" stroke="#263238" stroke-linecap="round" stroke-linejoin="round"/>
</g>
<defs>
<filter id="filter0_d_540_16636" x="-17" y="-18.3821" width="820" height="620" filterUnits="userSpaceOnUse" color-interpolation-filters="sRGB">
<feFlood flood-opacity="0" result="BackgroundImageFix"/>
<feColorMatrix in="SourceAlpha" type="matrix" values="0 0 0 0 0 0 0 0 0 0 0 0 0 0 0 0 0 0 127 0" result="hardAlpha"/>
<feOffset dy="4"/>
<feGaussianBlur stdDeviation="30"/>
<feComposite in2="hardAlpha" operator="out"/>
<feColorMatrix type="matrix" values="0 0 0 0 0 0 0 0 0 0 0 0 0 0 0 0 0 0 0.4 0"/>
<feBlend mode="normal" in2="BackgroundImageFix" result="effect1_dropShadow_540_16636"/>
<feBlend mode="normal" in="SourceGraphic" in2="effect1_dropShadow_540_16636" result="shape"/>
</filter>
<radialGradient id="paint0_radial_540_16636" cx="0" cy="0" r="1" gradientUnits="userSpaceOnUse" gradientTransform="translate(109.192 166.668) rotate(80.584) scale(144.706 47.7693)">
<stop stop-color="white" stop-opacity="0.59"/>
<stop offset="0.697917" stop-color="white" stop-opacity="0"/>
<stop offset="1" stop-color="white" stop-opacity="0"/>
</radialGradient>
<linearGradient id="paint1_linear_540_16636" x1="138.525" y1="499.259" x2="18.7948" y2="457.881" gradientUnits="userSpaceOnUse">
<stop offset="0.52" stop-color="#FAAA19"/>
<stop offset="1" stop-color="#FF450D" stop-opacity="0.8"/>
</linearGradient>
<radialGradient id="paint2_radial_540_16636" cx="0" cy="0" r="1" gradientUnits="userSpaceOnUse" gradientTransform="translate(123.756 255.548) rotate(76.9737) scale(26.0504 11.7007)">
<stop stop-color="white" stop-opacity="0.59"/>
<stop offset="0.697917" stop-color="white" stop-opacity="0"/>
<stop offset="1" stop-color="white" stop-opacity="0"/>
</radialGradient>
<linearGradient id="paint3_linear_540_16636" x1="131.031" y1="314.678" x2="104.059" y2="301.674" gradientUnits="userSpaceOnUse">
<stop offset="0.52" stop-color="#FAAA19"/>
<stop offset="1" stop-color="#FF450D" stop-opacity="0.8"/>
</linearGradient>
<radialGradient id="paint4_radial_540_16636" cx="0" cy="0" r="1" gradientUnits="userSpaceOnUse" gradientTransform="translate(667.363 287.279) rotate(65.5779) scale(47.5608 36.6217)">
<stop stop-color="white" stop-opacity="0.59"/>
<stop offset="0.697917" stop-color="white" stop-opacity="0"/>
<stop offset="1" stop-color="white" stop-opacity="0"/>
</radialGradient>
<linearGradient id="paint5_linear_540_16636" x1="691.728" y1="388.171" x2="632.994" y2="332.591" gradientUnits="userSpaceOnUse">
<stop offset="0.52" stop-color="#FAAA19"/>
<stop offset="1" stop-color="#FF450D" stop-opacity="0.8"/>
</linearGradient>
<radialGradient id="paint6_radial_540_16636" cx="0" cy="0" r="1" gradientUnits="userSpaceOnUse" gradientTransform="translate(676.552 255.548) rotate(76.9631) scale(26.0515 11.71)">
<stop stop-color="white" stop-opacity="0.59"/>
<stop offset="0.697917" stop-color="white" stop-opacity="0"/>
<stop offset="1" stop-color="white" stop-opacity="0"/>
</radialGradient>
<linearGradient id="paint7_linear_540_16636" x1="683.833" y1="314.678" x2="656.846" y2="301.656" gradientUnits="userSpaceOnUse">
<stop offset="0.52" stop-color="#FAAA19"/>
<stop offset="1" stop-color="#FF450D" stop-opacity="0.8"/>
</linearGradient>
</defs>
</svg>
