<svg width="130" height="131" viewBox="0 0 130 131" fill="none" xmlns="http://www.w3.org/2000/svg">
<g clip-path="url(#clip0_524_9211)">
<g clip-path="url(#clip1_524_9211)">
<mask id="mask0_524_9211" style="mask-type:luminance" maskUnits="userSpaceOnUse" x="0" y="1" width="130" height="129">
<path d="M130 1.68457H0V129.685H130V1.68457Z" fill="white"/>
</mask>
<g mask="url(#mask0_524_9211)">
<path d="M65 129.685C100.899 129.685 130 101.031 130 65.6846C130 30.3383 100.899 1.68457 65 1.68457C29.1015 1.68457 0 30.3383 0 65.6846C0 101.031 29.1015 129.685 65 129.685Z" fill="#8468F5" fill-opacity="0.4"/>
<g opacity="0.5">
<path d="M90.6977 37.4055H39.3024C35.963 37.4055 33.2559 40.071 33.2559 43.359V43.359C33.2559 46.647 35.963 49.3125 39.3024 49.3125H90.6977C94.0371 49.3125 96.7442 46.647 96.7442 43.359C96.7442 40.071 94.0371 37.4055 90.6977 37.4055Z" fill="#8468F5" fill-opacity="0.8"/>
<path d="M90.6977 37.4055H39.3024C35.963 37.4055 33.2559 40.071 33.2559 43.359V43.359C33.2559 46.647 35.963 49.3125 39.3024 49.3125H90.6977C94.0371 49.3125 96.7442 46.647 96.7442 43.359C96.7442 40.071 94.0371 37.4055 90.6977 37.4055Z" fill="url(#paint0_radial_524_9211)" fill-opacity="0.7"/>
<path d="M90.6977 37.4055H39.3024C35.963 37.4055 33.2559 40.071 33.2559 43.359V43.359C33.2559 46.647 35.963 49.3125 39.3024 49.3125H90.6977C94.0371 49.3125 96.7442 46.647 96.7442 43.359C96.7442 40.071 94.0371 37.4055 90.6977 37.4055Z" fill="url(#paint1_linear_524_9211)"/>
</g>
<path d="M28.7207 37.4055H101.279V93.9637C101.279 98.0737 97.8951 101.406 93.7207 101.406H36.279C32.1048 101.406 28.7207 98.0737 28.7207 93.9637V37.4055Z" fill="#8468F5" fill-opacity="0.8"/>
<path d="M28.7207 37.4055H101.279V93.9637C101.279 98.0737 97.8951 101.406 93.7207 101.406H36.279C32.1048 101.406 28.7207 98.0737 28.7207 93.9637V37.4055Z" fill="url(#paint2_radial_524_9211)" fill-opacity="0.7"/>
<path d="M28.7207 37.4055H101.279V93.9637C101.279 98.0737 97.8951 101.406 93.7207 101.406H36.279C32.1048 101.406 28.7207 98.0737 28.7207 93.9637V37.4055Z" fill="url(#paint3_linear_524_9211)"/>
<path d="M29.4766 38.1497H100.523V93.9637C100.523 97.6627 97.4777 100.661 93.7207 100.661H36.279C32.5222 100.661 29.4766 97.6627 29.4766 93.9637V38.1497Z" fill="#8468F5" fill-opacity="0.8"/>
<path d="M29.4766 38.1497H100.523V93.9637C100.523 97.6627 97.4777 100.661 93.7207 100.661H36.279C32.5222 100.661 29.4766 97.6627 29.4766 93.9637V38.1497Z" fill="url(#paint4_radial_524_9211)" fill-opacity="0.7"/>
<path d="M29.4766 38.1497H100.523V93.9637C100.523 97.6627 97.4777 100.661 93.7207 100.661H36.279C32.5222 100.661 29.4766 97.6627 29.4766 93.9637V38.1497Z" fill="url(#paint5_linear_524_9211)"/>
<path d="M29.4766 38.1497H100.523V93.9637C100.523 97.6627 97.4777 100.661 93.7207 100.661H36.279C32.5222 100.661 29.4766 97.6627 29.4766 93.9637V38.1497Z" stroke="url(#paint6_linear_524_9211)" stroke-width="1.00744"/>
<path d="M28.7207 34.4286C28.7207 31.9626 30.7511 29.9636 33.2557 29.9636H96.744C99.2485 29.9636 101.279 31.9626 101.279 34.4286V38.8938H28.7207V34.4286Z" fill="#8468F5"/>
<path d="M60.4655 46.3357H39.3026C38.4678 46.3357 37.791 47.0021 37.791 47.8241V65.6845C37.791 66.5065 38.4678 67.1729 39.3026 67.1729H60.4655C61.3003 67.1729 61.9771 66.5065 61.9771 65.6845V47.8241C61.9771 47.0021 61.3003 46.3357 60.4655 46.3357Z" fill="#FF880D"/>
<path d="M50.1649 55.4731C50.7675 54.6421 52.022 54.6421 52.6249 55.4731L57.2456 61.8427C57.9602 62.8279 57.2452 64.1961 56.0157 64.1961H46.7741C45.5446 64.1961 44.8294 62.8279 45.544 61.8427L50.1649 55.4731Z" fill="white"/>
<path d="M43.8377 55.266C45.5074 55.266 46.861 53.9332 46.861 52.2892C46.861 50.6452 45.5074 49.3125 43.8377 49.3125C42.168 49.3125 40.8145 50.6452 40.8145 52.2892C40.8145 53.9332 42.168 55.266 43.8377 55.266Z" fill="white"/>
<path d="M90.6979 46.3357H69.5351C68.7002 46.3357 68.0234 47.0021 68.0234 47.8241V65.6845C68.0234 66.5065 68.7002 67.1729 69.5351 67.1729H90.6979C91.5328 67.1729 92.2095 66.5065 92.2095 65.6845V47.8241C92.2095 47.0021 91.5328 46.3357 90.6979 46.3357Z" fill="#8468F5"/>
<path d="M80.3973 55.4731C81.0002 54.6421 82.2544 54.6421 82.8573 55.4731L87.4782 61.8427C88.1928 62.8279 87.4776 64.1963 86.2481 64.1963H77.0065C75.777 64.1963 75.0618 62.8279 75.7764 61.8427L80.3973 55.4731Z" fill="white"/>
<path d="M74.0701 55.266C75.7398 55.266 77.0934 53.9332 77.0934 52.2892C77.0934 50.6452 75.7398 49.3125 74.0701 49.3125C72.4004 49.3125 71.0469 50.6452 71.0469 52.2892C71.0469 53.9332 72.4004 55.266 74.0701 55.266Z" fill="white"/>
<path d="M60.4655 71.6382H39.3026C38.4678 71.6382 37.791 72.3046 37.791 73.1266V90.987C37.791 91.809 38.4678 92.4754 39.3026 92.4754H60.4655C61.3003 92.4754 61.9771 91.809 61.9771 90.987V73.1266C61.9771 72.3046 61.3003 71.6382 60.4655 71.6382Z" fill="#8468F5"/>
<path d="M50.1649 80.7756C50.7675 79.9446 52.022 79.9446 52.6249 80.7756L57.2456 87.1452C57.9602 88.1302 57.2452 89.4986 56.0157 89.4986H46.7741C45.5446 89.4986 44.8294 88.1302 45.544 87.1452L50.1649 80.7756Z" fill="white"/>
<path d="M43.8377 80.5682C45.5074 80.5682 46.861 79.2355 46.861 77.5915C46.861 75.9475 45.5074 74.6147 43.8377 74.6147C42.168 74.6147 40.8145 75.9475 40.8145 77.5915C40.8145 79.2355 42.168 80.5682 43.8377 80.5682Z" fill="white"/>
<path d="M90.6979 71.6382H69.5351C68.7002 71.6382 68.0234 72.3046 68.0234 73.1266V90.987C68.0234 91.809 68.7002 92.4754 69.5351 92.4754H90.6979C91.5328 92.4754 92.2095 91.809 92.2095 90.987V73.1266C92.2095 72.3046 91.5328 71.6382 90.6979 71.6382Z" fill="#FAAA19"/>
<path d="M80.3973 80.7756C81.0002 79.9446 82.2544 79.9446 82.8573 80.7756L87.4782 87.1452C88.1928 88.1302 87.4776 89.4986 86.2481 89.4986H77.0065C75.777 89.4986 75.0618 88.1302 75.7764 87.1452L80.3973 80.7756Z" fill="white"/>
<path d="M74.0701 80.5682C75.7398 80.5682 77.0934 79.2355 77.0934 77.5915C77.0934 75.9475 75.7398 74.6147 74.0701 74.6147C72.4004 74.6147 71.0469 75.9475 71.0469 77.5915C71.0469 79.2355 72.4004 80.5682 74.0701 80.5682Z" fill="white"/>
</g>
</g>
</g>
<defs>
<radialGradient id="paint0_radial_524_9211" cx="0" cy="0" r="1" gradientUnits="userSpaceOnUse" gradientTransform="translate(50.0097 39.8861) rotate(13.0596) scale(34.3974 15.4865)">
<stop stop-color="white" stop-opacity="0.59"/>
<stop offset="0.697917" stop-color="white" stop-opacity="0"/>
<stop offset="1" stop-color="white" stop-opacity="0"/>
</radialGradient>
<linearGradient id="paint1_linear_524_9211" x1="91.526" y1="57.9947" x2="89.2044" y2="37.1375" gradientUnits="userSpaceOnUse">
<stop offset="0.52" stop-color="#FAAA19"/>
<stop offset="1" stop-color="#FF450D" stop-opacity="0.8"/>
</linearGradient>
<radialGradient id="paint2_radial_524_9211" cx="0" cy="0" r="1" gradientUnits="userSpaceOnUse" gradientTransform="translate(47.868 50.7389) rotate(47.4908) scale(56.6733 57.7395)">
<stop stop-color="white" stop-opacity="0.59"/>
<stop offset="0.697917" stop-color="white" stop-opacity="0"/>
<stop offset="1" stop-color="white" stop-opacity="0"/>
</radialGradient>
<linearGradient id="paint3_linear_524_9211" x1="95.3153" y1="148.072" x2="48.6809" y2="58.989" gradientUnits="userSpaceOnUse">
<stop offset="0.52" stop-color="#FAAA19"/>
<stop offset="1" stop-color="#FF450D" stop-opacity="0.8"/>
</linearGradient>
<radialGradient id="paint4_radial_524_9211" cx="0" cy="0" r="1" gradientUnits="userSpaceOnUse" gradientTransform="translate(48.225 51.1729) rotate(47.4201) scale(55.418 56.4726)">
<stop stop-color="white" stop-opacity="0.59"/>
<stop offset="0.697917" stop-color="white" stop-opacity="0"/>
<stop offset="1" stop-color="white" stop-opacity="0"/>
</radialGradient>
<linearGradient id="paint5_linear_524_9211" x1="94.6837" y1="146.243" x2="49.1982" y2="59.1386" gradientUnits="userSpaceOnUse">
<stop offset="0.52" stop-color="#FAAA19"/>
<stop offset="1" stop-color="#FF450D" stop-opacity="0.8"/>
</linearGradient>
<linearGradient id="paint6_linear_524_9211" x1="28.7207" y1="37.4055" x2="65.7312" y2="21.0357" gradientUnits="userSpaceOnUse">
<stop stop-color="white" stop-opacity="0.5"/>
<stop offset="1" stop-color="white" stop-opacity="0"/>
</linearGradient>
<clipPath id="clip0_524_9211">
<rect width="130" height="130" fill="white" transform="translate(0 0.949707)"/>
</clipPath>
<clipPath id="clip1_524_9211">
<rect width="130" height="130" fill="white" transform="translate(0 0.949707)"/>
</clipPath>
</defs>
</svg>
