<svg width="131" height="131" viewBox="0 0 131 131" fill="none" xmlns="http://www.w3.org/2000/svg">
<g clip-path="url(#clip0_524_9266)">
<g clip-path="url(#clip1_524_9266)">
<path d="M65.6699 130.125C101.568 130.125 130.67 101.471 130.67 66.1248C130.67 30.7785 101.568 2.12476 65.6699 2.12476C29.7714 2.12476 0.669922 30.7785 0.669922 66.1248C0.669922 101.471 29.7714 130.125 65.6699 130.125Z" fill="#8468F5" fill-opacity="0.4"/>
<path d="M86.833 39.334H44.5074C40.3331 39.334 36.9492 42.6658 36.9492 46.7758V94.4037C36.9492 98.5138 40.3331 101.846 44.5074 101.846H86.833C91.0073 101.846 94.3911 98.5138 94.3911 94.4037V46.7758C94.3911 42.6658 91.0073 39.334 86.833 39.334Z" fill="#8468F5" fill-opacity="0.8"/>
<path d="M86.833 39.334H44.5074C40.3331 39.334 36.9492 42.6658 36.9492 46.7758V94.4037C36.9492 98.5138 40.3331 101.846 44.5074 101.846H86.833C91.0073 101.846 94.3911 98.5138 94.3911 94.4037V46.7758C94.3911 42.6658 91.0073 39.334 86.833 39.334Z" fill="url(#paint0_radial_524_9266)" fill-opacity="0.7"/>
<path d="M86.833 39.334H44.5074C40.3331 39.334 36.9492 42.6658 36.9492 46.7758V94.4037C36.9492 98.5138 40.3331 101.846 44.5074 101.846H86.833C91.0073 101.846 94.3911 98.5138 94.3911 94.4037V46.7758C94.3911 42.6658 91.0073 39.334 86.833 39.334Z" fill="url(#paint1_linear_524_9266)"/>
<path fill-rule="evenodd" clip-rule="evenodd" d="M73.2287 33.3807C73.2287 29.2707 69.8449 25.9387 65.6707 25.9387C61.4964 25.9387 58.1126 29.2707 58.1126 33.3807H50.5543C48.0498 33.3807 46.0195 35.3797 46.0195 37.8457V42.3109C46.0195 43.1329 46.6963 43.7993 47.5312 43.7993H83.8101C84.645 43.7993 85.3218 43.1329 85.3218 42.3109V37.8457C85.3218 35.3797 83.2915 33.3807 80.787 33.3807H73.2287Z" fill="#8468F5"/>
<path d="M65.6697 36.3573C67.3394 36.3573 68.693 35.0246 68.693 33.3805C68.693 31.7365 67.3394 30.4038 65.6697 30.4038C64 30.4038 62.6465 31.7365 62.6465 33.3805C62.6465 35.0246 64 36.3573 65.6697 36.3573Z" fill="white"/>
<path d="M53.5778 60.1711C53.5778 58.5271 52.2242 57.1943 50.5545 57.1943C48.8848 57.1943 47.5312 58.5271 47.5312 60.1711C47.5312 61.8151 48.8848 63.1478 50.5545 63.1478C52.2242 63.1478 53.5778 61.8151 53.5778 60.1711Z" fill="white"/>
<path d="M80.7856 57.1943H59.6229C57.9532 57.1943 56.5996 58.5271 56.5996 60.1711C56.5996 61.8151 57.9532 63.1478 59.6229 63.1478H80.7856C82.4553 63.1478 83.8088 61.8151 83.8088 60.1711C83.8088 58.5271 82.4553 57.1943 80.7856 57.1943Z" fill="white"/>
<path d="M53.5778 72.0783C53.5778 70.4343 52.2242 69.1016 50.5545 69.1016C48.8848 69.1016 47.5312 70.4343 47.5312 72.0783C47.5312 73.7223 48.8848 75.055 50.5545 75.055C52.2242 75.055 53.5778 73.7223 53.5778 72.0783Z" fill="white"/>
<path d="M53.5778 83.9853C53.5778 82.3413 52.2242 81.0085 50.5545 81.0085C48.8848 81.0085 47.5312 82.3413 47.5312 83.9853C47.5312 85.6293 48.8848 86.962 50.5545 86.962C52.2242 86.962 53.5778 85.6293 53.5778 83.9853Z" fill="white"/>
<path d="M80.7856 69.1016H59.6229C57.9532 69.1016 56.5996 70.4343 56.5996 72.0783C56.5996 73.7223 57.9532 75.055 59.6229 75.055H80.7856C82.4553 75.055 83.8088 73.7223 83.8088 72.0783C83.8088 70.4343 82.4553 69.1016 80.7856 69.1016Z" fill="white"/>
<path d="M80.7856 81.0085H59.6229C57.9532 81.0085 56.5996 82.3413 56.5996 83.9853C56.5996 85.6293 57.9532 86.962 59.6229 86.962H80.7856C82.4553 86.962 83.8088 85.6293 83.8088 83.9853C83.8088 82.3413 82.4553 81.0085 80.7856 81.0085Z" fill="white"/>
<path d="M86.8328 106.311C97.6858 106.311 106.484 97.6482 106.484 86.9621C106.484 76.2761 97.6858 67.6133 86.8328 67.6133C75.9798 67.6133 67.1816 76.2761 67.1816 86.9621C67.1816 97.6482 75.9798 106.311 86.8328 106.311Z" fill="#FF880D" fill-opacity="0.6"/>
<path d="M86.8329 105.567C97.2685 105.567 105.728 97.2372 105.728 86.9621C105.728 76.687 97.2685 68.3574 86.8329 68.3574C76.3972 68.3574 67.9375 76.687 67.9375 86.9621C67.9375 97.2372 76.3972 105.567 86.8329 105.567Z" stroke="url(#paint2_linear_524_9266)" stroke-width="1.00744"/>
<g filter="url(#filter0_d_524_9266)">
<path d="M78.8164 87.3603L84.1608 92.6225L94.8497 82.0981" stroke="white" stroke-width="2.01488" stroke-linecap="round" stroke-linejoin="round"/>
</g>
</g>
</g>
<defs>
<filter id="filter0_d_524_9266" x="71.7639" y="77.061" width="30.1381" height="24.6284" filterUnits="userSpaceOnUse" color-interpolation-filters="sRGB">
<feFlood flood-opacity="0" result="BackgroundImageFix"/>
<feColorMatrix in="SourceAlpha" type="matrix" values="0 0 0 0 0 0 0 0 0 0 0 0 0 0 0 0 0 0 127 0" result="hardAlpha"/>
<feOffset dy="2.01488"/>
<feGaussianBlur stdDeviation="3.02233"/>
<feComposite in2="hardAlpha" operator="out"/>
<feColorMatrix type="matrix" values="0 0 0 0 0.0352941 0 0 0 0 0.478431 0 0 0 0 0.462745 0 0 0 0.4 0"/>
<feBlend mode="normal" in2="BackgroundImageFix" result="effect1_dropShadow_524_9266"/>
<feBlend mode="normal" in="SourceGraphic" in2="effect1_dropShadow_524_9266" result="shape"/>
</filter>
<radialGradient id="paint0_radial_524_9266" cx="0" cy="0" r="1" gradientUnits="userSpaceOnUse" gradientTransform="translate(52.1075 52.3572) rotate(53.3898) scale(50.8354 49.7746)">
<stop stop-color="white" stop-opacity="0.59"/>
<stop offset="0.697917" stop-color="white" stop-opacity="0"/>
<stop offset="1" stop-color="white" stop-opacity="0"/>
</radialGradient>
<linearGradient id="paint1_linear_524_9266" x1="89.6699" y1="147.427" x2="39.1465" y2="69.2024" gradientUnits="userSpaceOnUse">
<stop offset="0.52" stop-color="#FAAA19"/>
<stop offset="1" stop-color="#FF450D" stop-opacity="0.8"/>
</linearGradient>
<linearGradient id="paint2_linear_524_9266" x1="75.4956" y1="67.6133" x2="110.979" y2="95.9493" gradientUnits="userSpaceOnUse">
<stop stop-color="white" stop-opacity="0.5"/>
<stop offset="1" stop-color="white" stop-opacity="0"/>
</linearGradient>
<clipPath id="clip0_524_9266">
<rect width="130" height="130" fill="white" transform="translate(0.669922 0.589844)"/>
</clipPath>
<clipPath id="clip1_524_9266">
<rect width="130" height="130" fill="white" transform="translate(0.669922 0.589844)"/>
</clipPath>
</defs>
</svg>
