<svg width="130" height="130" viewBox="0 0 130 130" fill="none" xmlns="http://www.w3.org/2000/svg">
<g clip-path="url(#clip0_524_9146)">
<path d="M65 130C100.899 130 130 100.899 130 65C130 29.1015 100.899 0 65 0C29.1015 0 0 29.1015 0 65C0 100.899 29.1015 130 65 130Z" fill="#8468F5" fill-opacity="0.4"/>
<path d="M83.139 30.2327H31.7437C27.5694 30.2327 24.1855 33.6166 24.1855 37.7908V86.1629C24.1855 90.3371 27.5694 93.721 31.7437 93.721H83.139C87.3133 93.721 90.6972 90.3371 90.6972 86.1629V37.7908C90.6972 33.6166 87.3133 30.2327 83.139 30.2327Z" fill="#8468F5" fill-opacity="0.8"/>
<path d="M83.139 30.2327H31.7437C27.5694 30.2327 24.1855 33.6166 24.1855 37.7908V86.1629C24.1855 90.3371 27.5694 93.721 31.7437 93.721H83.139C87.3133 93.721 90.6972 90.3371 90.6972 86.1629V37.7908C90.6972 33.6166 87.3133 30.2327 83.139 30.2327Z" fill="url(#paint0_radial_524_9146)" fill-opacity="0.7"/>
<path d="M83.139 30.2327H31.7437C27.5694 30.2327 24.1855 33.6166 24.1855 37.7908V86.1629C24.1855 90.3371 27.5694 93.721 31.7437 93.721H83.139C87.3133 93.721 90.6972 90.3371 90.6972 86.1629V37.7908C90.6972 33.6166 87.3133 30.2327 83.139 30.2327Z" fill="url(#paint1_linear_524_9146)"/>
<path d="M24.1855 37.7908C24.1855 33.6166 27.5695 30.2327 31.7437 30.2327H83.139C87.3132 30.2327 90.6972 33.6166 90.6972 37.7908V42.3257H24.1855V37.7908Z" fill="#0091CE"/>
<path d="M40.8161 61.977C43.3207 61.977 45.351 59.9467 45.351 57.4421C45.351 54.9376 43.3207 52.9072 40.8161 52.9072C38.3116 52.9072 36.2812 54.9376 36.2812 57.4421C36.2812 59.9467 38.3116 61.977 40.8161 61.977Z" fill="white"/>
<path d="M40.8161 80.1162C43.3207 80.1162 45.351 78.0858 45.351 75.5813C45.351 73.0767 43.3207 71.0464 40.8161 71.0464C38.3116 71.0464 36.2812 73.0767 36.2812 75.5813C36.2812 78.0858 38.3116 80.1162 40.8161 80.1162Z" fill="white"/>
<path d="M57.445 80.1162C59.9496 80.1162 61.9799 78.0858 61.9799 75.5813C61.9799 73.0767 59.9496 71.0464 57.445 71.0464C54.9405 71.0464 52.9102 73.0767 52.9102 75.5813C52.9102 78.0858 54.9405 80.1162 57.445 80.1162Z" fill="white"/>
<path d="M57.445 61.977C59.9496 61.977 61.9799 59.9467 61.9799 57.4421C61.9799 54.9376 59.9496 52.9072 57.445 52.9072C54.9405 52.9072 52.9102 54.9376 52.9102 57.4421C52.9102 59.9467 54.9405 61.977 57.445 61.977Z" fill="white"/>
<path d="M74.0681 61.977C76.5726 61.977 78.603 59.9467 78.603 57.4421C78.603 54.9376 76.5726 52.9072 74.0681 52.9072C71.5635 52.9072 69.5332 54.9376 69.5332 57.4421C69.5332 59.9467 71.5635 61.977 74.0681 61.977Z" fill="white"/>
<path d="M45.3512 27.2093C45.3512 25.5396 43.9976 24.186 42.3279 24.186C40.6582 24.186 39.3047 25.5396 39.3047 27.2093V33.2558C39.3047 34.9255 40.6582 36.2791 42.3279 36.2791C43.9976 36.2791 45.3512 34.9255 45.3512 33.2558V27.2093Z" fill="#79CEF2"/>
<path d="M74.0699 27.2093C74.0699 25.5396 72.7164 24.186 71.0467 24.186C69.377 24.186 68.0234 25.5396 68.0234 27.2093V33.2558C68.0234 34.9255 69.377 36.2791 71.0467 36.2791C72.7164 36.2791 74.0699 34.9255 74.0699 33.2558V27.2093Z" fill="#79CEF2"/>
<path d="M86.1648 105.814C97.0179 105.814 105.816 97.0154 105.816 86.1624C105.816 75.3094 97.0179 66.5112 86.1648 66.5112C75.3118 66.5112 66.5137 75.3094 66.5137 86.1624C66.5137 97.0154 75.3118 105.814 86.1648 105.814Z" fill="#FAAA19" fill-opacity="0.6"/>
<path d="M86.1668 105.058C96.6024 105.058 105.062 96.5981 105.062 86.1624C105.062 75.7268 96.6024 67.2671 86.1668 67.2671C75.7312 67.2671 67.2715 75.7268 67.2715 86.1624C67.2715 96.5981 75.7312 105.058 86.1668 105.058Z" fill="#FAAA19" fill-opacity="0.6" stroke="url(#paint2_linear_524_9146)" stroke-width="1.02326"/>
<g filter="url(#filter0_d_524_9146)">
<path d="M86.1641 77.093V86.1628L93.7222 90.6977" stroke="white" stroke-width="2.04651" stroke-linecap="round" stroke-linejoin="round"/>
</g>
</g>
<defs>
<filter id="filter0_d_524_9146" x="79.0011" y="71.9768" width="21.8845" height="27.9304" filterUnits="userSpaceOnUse" color-interpolation-filters="sRGB">
<feFlood flood-opacity="0" result="BackgroundImageFix"/>
<feColorMatrix in="SourceAlpha" type="matrix" values="0 0 0 0 0 0 0 0 0 0 0 0 0 0 0 0 0 0 127 0" result="hardAlpha"/>
<feOffset dy="2.04651"/>
<feGaussianBlur stdDeviation="3.06977"/>
<feComposite in2="hardAlpha" operator="out"/>
<feColorMatrix type="matrix" values="0 0 0 0 0 0 0 0 0 0.568627 0 0 0 0 0.807843 0 0 0 0.4 0"/>
<feBlend mode="normal" in2="BackgroundImageFix" result="effect1_dropShadow_524_9146"/>
<feBlend mode="normal" in="SourceGraphic" in2="effect1_dropShadow_524_9146" result="shape"/>
</filter>
<radialGradient id="paint0_radial_524_9146" cx="0" cy="0" r="1" gradientUnits="userSpaceOnUse" gradientTransform="translate(41.7372 43.4594) rotate(49.735) scale(54.3124 54.787)">
<stop stop-color="white" stop-opacity="0.59"/>
<stop offset="0.697917" stop-color="white" stop-opacity="0"/>
<stop offset="1" stop-color="white" stop-opacity="0"/>
</radialGradient>
<linearGradient id="paint1_linear_524_9146" x1="85.2305" y1="140.015" x2="36.9441" y2="54.7812" gradientUnits="userSpaceOnUse">
<stop offset="0.52" stop-color="#FAAA19"/>
<stop offset="1" stop-color="#FF450D" stop-opacity="0.8"/>
</linearGradient>
<linearGradient id="paint2_linear_524_9146" x1="74.8296" y1="66.5113" x2="110.74" y2="94.7471" gradientUnits="userSpaceOnUse">
<stop stop-color="white" stop-opacity="0.5"/>
<stop offset="1" stop-color="white" stop-opacity="0"/>
</linearGradient>
<clipPath id="clip0_524_9146">
<rect width="130" height="130" fill="white"/>
</clipPath>
</defs>
</svg>
