<svg width="500" height="500" viewBox="0 0 500 500" fill="none" xmlns="http://www.w3.org/2000/svg">
<g clip-path="url(#clip0_543_22386)">
<g opacity="0.7" filter="url(#filter0_d_543_22386)">
<path d="M-3.19219 186.693C-3.19219 186.693 -25.0453 265.369 35.9521 333.926C96.9495 402.484 203.442 429.145 288.997 452.606C374.552 476.066 454.684 448.969 484.746 388.579C514.808 328.19 454.083 295.655 440.698 216.784C427.313 137.913 437.967 115.198 375.549 55.1415C313.131 -4.91517 184.949 -3.48116 98.288 58.1702C11.6269 119.821 -3.19219 186.693 -3.19219 186.693Z" fill="#8568F5"/>
</g>
<path d="M500 382.4H0V382.65H500V382.4Z" fill="#EBEBEB"/>
<path d="M449.901 398.49H416.781V398.74H449.901V398.49Z" fill="#EBEBEB"/>
<path d="M331.221 401.21H322.531V401.46H331.221V401.21Z" fill="#EBEBEB"/>
<path d="M415.78 389.21H396.59V389.46H415.78V389.21Z" fill="#EBEBEB"/>
<path d="M95.6509 390.89H52.4609V391.14H95.6509V390.89Z" fill="#EBEBEB"/>
<path d="M110.889 390.89H104.559V391.14H110.889V390.89Z" fill="#EBEBEB"/>
<path d="M225.149 395.11H131.469V395.36H225.149V395.11Z" fill="#EBEBEB"/>
<path d="M237.001 337.8H43.9109C42.3983 337.797 40.9485 337.195 39.8798 336.124C38.8112 335.054 38.2109 333.603 38.2109 332.09V60.66C38.2241 59.156 38.8301 57.718 39.8974 56.6582C40.9646 55.5985 42.4069 55.0026 43.9109 55H237.001C238.515 55 239.968 55.6016 241.039 56.6724C242.109 57.7433 242.711 59.1956 242.711 60.71V332.09C242.711 333.604 242.109 335.057 241.039 336.128C239.968 337.198 238.515 337.8 237.001 337.8ZM43.9109 55.2C42.4646 55.2026 41.0784 55.7791 40.0566 56.8027C39.0348 57.8264 38.4609 59.2136 38.4609 60.66V332.09C38.4609 333.536 39.0348 334.924 40.0566 335.947C41.0784 336.971 42.4646 337.547 43.9109 337.55H237.001C238.448 337.547 239.835 336.971 240.859 335.948C241.882 334.924 242.458 333.537 242.461 332.09V60.66C242.458 59.2127 241.882 57.8255 240.859 56.8021C239.835 55.7787 238.448 55.2026 237.001 55.2H43.9109Z" fill="#EBEBEB"/>
<path d="M453.31 337.8H260.21C258.696 337.797 257.246 337.195 256.175 336.125C255.105 335.054 254.503 333.604 254.5 332.09V60.66C254.516 59.1551 255.124 57.7171 256.193 56.6576C257.262 55.5981 258.705 55.0025 260.21 55H453.31C454.812 55.0052 456.252 55.6022 457.317 56.6617C458.382 57.7212 458.987 59.1578 459 60.66V332.09C459 333.601 458.401 335.05 457.335 336.121C456.268 337.191 454.821 337.795 453.31 337.8ZM260.21 55.2C258.763 55.2026 257.375 55.7787 256.352 56.8021C255.329 57.8255 254.753 59.2127 254.75 60.66V332.09C254.753 333.537 255.329 334.924 256.352 335.948C257.375 336.971 258.763 337.547 260.21 337.55H453.31C454.757 337.547 456.145 336.971 457.168 335.948C458.191 334.924 458.767 333.537 458.77 332.09V60.66C458.767 59.2127 458.191 57.8255 457.168 56.8021C456.145 55.7787 454.757 55.2026 453.31 55.2H260.21Z" fill="white"/>
<path d="M416.232 65.8198H350.922V78.5198H416.232V65.8198Z" fill="#F0F0F0"/>
<path d="M411.488 78.52H355.648V85.03H411.488V78.52Z" fill="#E0E0E0"/>
<path d="M405.679 85.0298H361.449V375.81H405.679V85.0298Z" fill="#F0F0F0"/>
<path d="M400.281 85.0298H366.871V375.81H400.281V85.0298Z" fill="#E0E0E0"/>
<path d="M390.392 85.0298H376.762V375.81H390.392V85.0298Z" fill="#F0F0F0"/>
<path d="M350.909 395.03H416.219V382.33H350.909V395.03Z" fill="#F0F0F0"/>
<path d="M355.648 382.33H411.488V375.81H355.648V382.33Z" fill="#E0E0E0"/>
<path d="M149.091 65.8198H83.7812V78.5198H149.091V65.8198Z" fill="#F0F0F0"/>
<path d="M144.352 78.52H88.5117V85.03H144.352V78.52Z" fill="#E0E0E0"/>
<path d="M138.539 85.0298H94.3086V375.81H138.539V85.0298Z" fill="#F0F0F0"/>
<path d="M133.14 85.0298H99.7305V375.81H133.14V85.0298Z" fill="#E0E0E0"/>
<path d="M123.251 85.0298H109.621V375.81H123.251V85.0298Z" fill="#F0F0F0"/>
<path d="M83.7681 395.03H149.078V382.33H83.7681V395.03Z" fill="#F0F0F0"/>
<path d="M88.5116 382.33H144.352V375.81H88.5116V382.33Z" fill="#E0E0E0"/>
<path d="M249.999 427.56C357.082 427.56 443.889 422.492 443.889 416.24C443.889 409.988 357.082 404.92 249.999 404.92C142.917 404.92 56.1094 409.988 56.1094 416.24C56.1094 422.492 142.917 427.56 249.999 427.56Z" fill="#FAAA19" fill-opacity="0.6"/>
<path d="M290 125.52C290 125.52 284.28 123.91 268.93 126.13C268.93 126.13 269.36 150.99 271.93 163.47C277.744 164.008 283.607 163.691 289.33 162.53C289.33 162.53 286.39 134.51 290 125.52Z" fill="white"/>
<path opacity="0.1" d="M290 125.52C290 125.52 284.28 123.91 268.93 126.13C268.93 126.13 269.36 150.99 271.93 163.47C277.744 164.008 283.607 163.691 289.33 162.53C289.33 162.53 286.39 134.51 290 125.52Z" fill="black"/>
<path d="M272.889 182.15L269.089 166.9C269.089 166.9 264.909 164.39 264.559 161.6C264.209 158.81 268.649 151.04 269.509 151.05C270.369 151.06 275.979 155.25 275.969 156.49C275.959 157.73 274.849 164.35 274.849 164.35L282.479 179.14L272.889 182.15Z" fill="#E2877B"/>
<path d="M270.518 176.47L268.328 171.34L279.118 165.07L282.478 170.77L270.518 176.47Z" fill="#8568F5"/>
<path opacity="0.8" d="M270.518 176.47L268.328 171.34L279.118 165.07L282.478 170.77L270.518 176.47Z" fill="white"/>
<path d="M319.75 158.5C313.27 162.8 298.88 183.74 295.32 183.43C290.72 183.04 283.09 167.61 283.09 167.61L268.93 176.14C268.93 176.14 285.51 209.62 294.76 207.51C304.01 205.4 321.54 179.72 322.76 175.94C323.98 172.16 327.79 153.16 319.75 158.5Z" fill="#263238"/>
<path opacity="0.3" d="M319.75 158.5C313.27 162.8 298.88 183.74 295.32 183.43C290.72 183.04 283.09 167.61 283.09 167.61L268.93 176.14C268.93 176.14 285.51 209.62 294.76 207.51C304.01 205.4 321.54 179.72 322.76 175.94C323.98 172.16 327.79 153.16 319.75 158.5Z" fill="black"/>
<path d="M317.528 407.61L309.418 408.47L307.898 390.97L316.008 390.11L317.528 407.61Z" fill="#E2877B"/>
<path d="M358.01 407.02H350.15L349.5 388.81H357.37L358.01 407.02Z" fill="#E2877B"/>
<path d="M349.058 406.11H358.608C358.765 406.109 358.917 406.162 359.039 406.26C359.161 406.359 359.246 406.496 359.278 406.65L360.828 413.65C360.86 413.82 360.855 413.994 360.812 414.162C360.769 414.329 360.69 414.485 360.58 414.619C360.471 414.752 360.333 414.86 360.177 414.935C360.021 415.009 359.851 415.048 359.678 415.05C356.588 415 354.338 414.81 350.458 414.81C348.068 414.81 340.858 415.06 337.558 415.06C334.258 415.06 333.828 411.8 335.178 411.5C341.238 410.18 345.798 408.35 347.738 406.61C348.097 406.279 348.57 406.1 349.058 406.11Z" fill="#263238"/>
<path d="M346.46 407.49C345.926 407.53 345.394 407.389 344.95 407.09C344.806 406.969 344.695 406.814 344.627 406.64C344.559 406.465 344.536 406.276 344.56 406.09C344.558 405.982 344.588 405.876 344.644 405.783C344.701 405.691 344.783 405.617 344.88 405.57C345.75 405.12 348.29 406.68 348.57 406.86C348.603 406.875 348.63 406.901 348.647 406.934C348.663 406.967 348.668 407.004 348.66 407.04C348.655 407.078 348.639 407.113 348.614 407.141C348.589 407.17 348.557 407.19 348.52 407.2C347.846 407.372 347.155 407.469 346.46 407.49ZM345.29 405.86C345.207 405.851 345.123 405.869 345.05 405.91C345 405.91 344.94 405.98 344.93 406.13C344.914 406.253 344.929 406.379 344.972 406.496C345.016 406.612 345.087 406.717 345.18 406.8C346.062 407.2 347.063 407.25 347.98 406.94C347.162 406.408 346.248 406.042 345.29 405.86Z" fill="#8568F5"/>
<path d="M348.47 407.21H348.38C347.57 406.77 346 405.04 346.16 404.21C346.188 404.071 346.263 403.947 346.372 403.857C346.481 403.768 346.619 403.719 346.76 403.72C346.901 403.701 347.044 403.713 347.181 403.755C347.317 403.796 347.443 403.866 347.55 403.96C348.46 404.7 348.65 406.96 348.66 407.07C348.66 407.104 348.652 407.137 348.637 407.166C348.621 407.196 348.598 407.221 348.57 407.24C348.534 407.239 348.5 407.229 348.47 407.21ZM346.89 404H346.8C346.56 404 346.54 404.14 346.53 404.19C346.43 404.7 347.43 406.01 348.24 406.62C348.189 405.724 347.864 404.865 347.31 404.16C347.193 404.058 347.044 404.002 346.89 404Z" fill="#8568F5"/>
<path d="M308.558 405.86H318.108C318.265 405.859 318.417 405.912 318.539 406.01C318.661 406.109 318.746 406.246 318.778 406.4L320.328 413.4C320.36 413.57 320.355 413.744 320.312 413.912C320.269 414.079 320.19 414.235 320.08 414.369C319.971 414.502 319.833 414.61 319.677 414.685C319.521 414.759 319.351 414.798 319.178 414.8C316.088 414.75 313.838 414.56 309.958 414.56C307.568 414.56 300.358 414.81 297.058 414.81C293.758 414.81 293.328 411.55 294.678 411.25C300.738 409.93 305.298 408.1 307.238 406.36C307.597 406.029 308.07 405.85 308.558 405.86Z" fill="#263238"/>
<path d="M305.999 407.24C305.465 407.28 304.933 407.139 304.489 406.84C304.345 406.719 304.235 406.564 304.166 406.39C304.098 406.215 304.075 406.026 304.099 405.84C304.098 405.732 304.127 405.626 304.183 405.533C304.24 405.441 304.322 405.367 304.419 405.32C305.289 404.87 307.829 406.43 308.109 406.61C308.142 406.625 308.169 406.651 308.186 406.684C308.202 406.717 308.207 406.754 308.199 406.79C308.194 406.828 308.178 406.863 308.153 406.891C308.129 406.92 308.096 406.94 308.059 406.95C307.385 407.122 306.694 407.219 305.999 407.24ZM304.829 405.61C304.746 405.601 304.662 405.619 304.589 405.66C304.539 405.66 304.479 405.73 304.469 405.88C304.453 406.003 304.468 406.129 304.511 406.246C304.555 406.362 304.626 406.467 304.719 406.55C305.601 406.95 306.602 407 307.519 406.69C306.689 406.154 305.761 405.787 304.789 405.61H304.829Z" fill="#8568F5"/>
<path d="M307.997 407H307.907C307.097 406.56 305.527 404.83 305.687 404C305.715 403.861 305.79 403.737 305.899 403.648C306.009 403.558 306.146 403.51 306.287 403.51C306.428 403.491 306.572 403.503 306.708 403.545C306.844 403.586 306.97 403.656 307.077 403.75C307.987 404.49 308.177 406.75 308.187 406.86C308.188 406.894 308.18 406.927 308.164 406.957C308.148 406.986 308.125 407.011 308.097 407.03C308.062 407.03 308.027 407.019 307.997 407ZM306.417 403.81H306.327C306.087 403.81 306.067 403.95 306.057 404C305.957 404.51 306.957 405.82 307.767 406.43C307.716 405.534 307.392 404.675 306.837 403.97C306.719 403.847 306.558 403.775 306.387 403.77L306.417 403.81Z" fill="#8568F5"/>
<path opacity="0.2" d="M357.37 388.82H349.5L349.84 398.21H357.71L357.37 388.82Z" fill="black"/>
<path d="M354.127 229.08H312.397C308.397 250.74 296.557 334 305.467 402.3L319.597 400.55C319.597 400.55 317.737 303.28 330.207 269.76C331.647 287.7 333.347 306.76 334.827 316.94C338.457 341.94 346.567 401.16 346.567 401.16H360.997C360.997 401.16 357.717 344.28 356.357 319.71C354.817 293 354.177 234.56 354.127 229.08Z" fill="#263238"/>
<g opacity="0.3">
<path d="M354.127 229.08H312.397C308.397 250.74 296.557 334 305.467 402.3L319.597 400.55C319.597 400.55 317.737 303.28 330.207 269.76C331.647 287.7 333.347 306.76 334.827 316.94C338.457 341.94 346.567 401.16 346.567 401.16H360.997C360.997 401.16 357.717 344.28 356.357 319.71C354.817 293 354.177 234.56 354.127 229.08Z" fill="black"/>
</g>
<path opacity="0.4" d="M310.719 239.16C310.719 239.16 323.019 242 331.589 239.16L330.819 232.49H310.869L310.719 239.16Z" fill="black"/>
<path opacity="0.1" d="M316.91 240.13C319.54 240.415 322.188 240.488 324.83 240.35V232.5H316.91V240.13Z" fill="white"/>
<path opacity="0.2" d="M330.207 269.76C328.154 275.637 326.596 281.674 325.547 287.81C324.377 271.81 329.047 254.91 329.047 254.91L330.207 269.76Z" fill="black"/>
<path d="M348.627 134C348.627 134 348.317 141.66 342.347 139.86C336.377 138.06 343.357 131.29 348.627 134Z" fill="#263238"/>
<path d="M330.82 153.16C332.054 152.184 332.974 150.866 333.463 149.37C333.952 147.874 333.989 146.267 333.57 144.75L344.37 136.04C344.37 136.04 342.97 146.73 345.58 152.39C345.58 152.39 339.06 159 334.09 157.49C329.12 155.98 330.82 153.16 330.82 153.16Z" fill="#E2877B"/>
<path opacity="0.2" d="M341.94 141.26L337.67 141.44L333.57 144.75C333.94 146.206 333.922 147.733 333.52 149.18C340.06 148.13 341.94 141.26 341.94 141.26Z" fill="black"/>
<path d="M341.658 160.88L332.718 157.49L325.208 158.05C325.208 158.05 317.268 176.15 314.328 194.84C312.463 207.846 311.461 220.962 311.328 234.1C311.598 234.04 322.328 236.39 332.278 233.01C332.278 233.01 325.648 205.01 329.278 192.18C332.908 179.35 341.618 160.88 341.618 160.88" fill="#8568F5"/>
<path opacity="0.8" d="M341.658 160.88L332.718 157.49L325.208 158.05C325.208 158.05 317.268 176.15 314.328 194.84C312.463 207.846 311.461 220.962 311.328 234.1C311.598 234.04 322.328 236.39 332.278 233.01C332.278 233.01 325.648 205.01 329.278 192.18C332.908 179.35 341.618 160.88 341.618 160.88" fill="white"/>
<path opacity="0.4" d="M329.219 157.75L329.759 162.67C329.759 162.67 323.109 175.6 320.759 184.25C318.409 192.9 316.469 219.13 316.469 219.13L320.629 226.28L324.449 219.13C324.449 219.13 323.449 198.13 326.509 183.97C329.569 169.81 331.259 163.45 331.259 163.45L335.859 160.12L332.739 157.49L329.219 157.75Z" fill="black"/>
<path d="M330.819 153.16L333.899 156.22L345.569 152.39L336.869 165.27L332.559 158.35L325.539 160.34L330.819 153.16Z" fill="white"/>
<path d="M330.82 153.16C330.82 153.16 314.75 156.67 311.32 171.16C307.89 185.65 305.87 248.93 305.37 254.03C304.87 259.13 314.94 259.76 314.94 259.76C314.94 259.76 314.4 227.03 315.22 218.34C315.52 215.2 315.98 204.6 317.4 196.34C319.91 181.72 324.27 162.92 330.82 153.16Z" fill="#263238"/>
<path d="M327.49 154.33C325.31 156.25 320.1 160.33 317.49 164.64L321.55 166.79L316 170.32C316 170.32 316.46 185.91 317.82 194.08C320.38 179.86 324.62 162.43 330.82 153.16C330.82 153.16 329.5 153.53 327.49 154.33Z" fill="#263238"/>
<path opacity="0.1" d="M327.49 154.33C325.31 156.25 320.1 160.33 317.49 164.64L321.55 166.79L316 170.32C316 170.32 316.46 185.91 317.82 194.08C320.38 179.86 324.62 162.43 330.82 153.16C330.82 153.16 329.5 153.53 327.49 154.33Z" fill="white"/>
<path d="M318.51 119.6C318.51 119.6 317.95 125.48 322.51 126.79C322.51 126.79 325.12 120.22 321.95 119.6C318.78 118.98 318.51 119.6 318.51 119.6Z" fill="#263238"/>
<path d="M322.46 136.16C323.19 140.32 326.31 149.04 335.14 146.38C343.97 143.72 344.34 136.75 344.49 134.74C344.64 132.73 342.76 117.13 337.12 115.64C331.48 114.15 324.62 115.99 322.46 119.22C320.3 122.45 322.46 136.16 322.46 136.16Z" fill="#E2877B"/>
<path d="M344 129.71C344.14 129.89 338.16 133.47 338.35 121.1C338.35 121.1 334.02 122.94 333.02 118.03C333.02 118.03 314.92 124.27 316.72 117.23C319.13 107.83 333.77 107.12 340.08 112.04C340.08 112.04 343.21 108.53 346.16 112.31C349.69 116.83 349.63 129.08 349.63 129.08L344 129.71Z" fill="#263238"/>
<path d="M348.5 128.12C346.38 124.79 336.91 128.28 335.07 129L335.01 128.53C334.985 128.359 334.926 128.195 334.836 128.048C334.747 127.9 334.629 127.772 334.49 127.67C334.346 127.571 334.182 127.502 334.01 127.47C333.838 127.437 333.661 127.44 333.49 127.48L329.6 128.32C329.282 128.381 329 128.563 328.813 128.828C328.627 129.093 328.55 129.42 328.6 129.74C328.6 129.86 328.65 130.01 328.67 130.14C328.357 130.024 328.021 129.988 327.691 130.035C327.361 130.082 327.048 130.211 326.78 130.41V130.09C326.73 129.758 326.55 129.46 326.28 129.26C326.148 129.161 325.998 129.09 325.838 129.05C325.679 129.01 325.512 129.004 325.35 129.03L322.08 129.52C321.766 129.567 321.482 129.732 321.285 129.981C321.088 130.23 320.994 130.544 321.02 130.86C321.08 131.57 321.15 132.2 321.22 132.71C321.245 132.873 321.302 133.029 321.388 133.17C321.474 133.311 321.587 133.433 321.72 133.53C321.933 133.689 322.194 133.774 322.46 133.77H322.64L325.97 133.28C326.133 133.257 326.29 133.202 326.431 133.118C326.573 133.034 326.697 132.922 326.795 132.79C326.894 132.658 326.965 132.508 327.005 132.349C327.046 132.189 327.054 132.023 327.03 131.86L326.91 131C327.153 130.751 327.473 130.592 327.818 130.549C328.163 130.505 328.513 130.58 328.81 130.76C328.86 131.03 328.91 131.31 328.96 131.57C329.024 131.896 329.215 132.184 329.49 132.37C329.694 132.507 329.934 132.58 330.18 132.58C330.266 132.59 330.354 132.59 330.44 132.58L334.26 131.8C334.573 131.737 334.85 131.557 335.036 131.297C335.222 131.037 335.302 130.717 335.26 130.4L335.14 129.55C336.56 129 346.14 125.39 348.08 128.43C348.098 128.458 348.122 128.482 348.149 128.5C348.177 128.519 348.208 128.532 348.24 128.539C348.273 128.545 348.306 128.545 348.339 128.538C348.372 128.532 348.402 128.519 348.43 128.5C348.464 128.484 348.493 128.459 348.516 128.43C348.539 128.4 348.554 128.365 348.561 128.328C348.568 128.291 348.566 128.253 348.555 128.217C348.545 128.181 348.526 128.148 348.5 128.12ZM325.91 132.78L322.58 133.26C322.384 133.29 322.183 133.243 322.02 133.13C321.942 133.072 321.876 132.998 321.826 132.914C321.776 132.83 321.744 132.737 321.73 132.64C321.66 132.14 321.59 131.52 321.53 130.81C321.515 130.62 321.573 130.432 321.692 130.284C321.811 130.135 321.982 130.037 322.17 130.01L325.44 129.52H325.55C325.71 129.522 325.867 129.57 326 129.66C326.159 129.782 326.263 129.962 326.29 130.16L326.55 131.93C326.576 132.127 326.523 132.327 326.404 132.486C326.284 132.645 326.107 132.75 325.91 132.78ZM334.17 131.27L330.35 132.05C330.153 132.09 329.948 132.051 329.78 131.94C329.698 131.887 329.628 131.818 329.573 131.737C329.518 131.656 329.48 131.566 329.46 131.47C329.35 130.86 329.23 130.19 329.15 129.66C329.117 129.471 329.16 129.276 329.268 129.118C329.376 128.959 329.542 128.849 329.73 128.81L333.61 127.97C333.663 127.961 333.717 127.961 333.77 127.97C333.923 127.967 334.074 128.013 334.2 128.1C334.286 128.16 334.359 128.237 334.414 128.327C334.47 128.416 334.505 128.516 334.52 128.62L334.76 130.45C334.781 130.636 334.733 130.823 334.624 130.974C334.515 131.126 334.353 131.231 334.17 131.27Z" fill="black"/>
<path d="M332.65 129.78C332.8 130.39 332.52 130.96 332.1 131.03C331.68 131.1 331.281 130.65 331.171 130.03C331.061 129.41 331.31 128.84 331.72 128.77C332.13 128.7 332.54 129.15 332.65 129.78Z" fill="#263238"/>
<path d="M324.889 131C325.039 131.62 324.749 132.19 324.339 132.26C323.929 132.33 323.519 131.87 323.409 131.26C323.299 130.65 323.549 130.08 323.959 130.01C324.369 129.94 324.789 130.39 324.889 131Z" fill="#263238"/>
<path d="M327.879 130.91C327.466 132.951 326.769 134.923 325.809 136.77C326.294 136.998 326.823 137.116 327.359 137.116C327.894 137.116 328.424 136.998 328.909 136.77L327.879 130.91Z" fill="#DC5753"/>
<path d="M333.998 126.06C333.958 126.115 333.902 126.158 333.839 126.183C333.775 126.207 333.705 126.214 333.638 126.2C333.18 126.111 332.708 126.129 332.258 126.254C331.808 126.379 331.394 126.607 331.048 126.92C331.018 126.966 330.978 127.005 330.931 127.034C330.884 127.063 330.831 127.081 330.777 127.088C330.722 127.094 330.666 127.089 330.614 127.072C330.562 127.055 330.514 127.026 330.473 126.989C330.433 126.951 330.401 126.906 330.38 126.855C330.359 126.804 330.35 126.749 330.352 126.694C330.354 126.639 330.369 126.585 330.394 126.536C330.419 126.487 330.455 126.444 330.498 126.41C330.928 126.006 331.448 125.71 332.015 125.547C332.582 125.384 333.179 125.357 333.758 125.47C333.854 125.487 333.941 125.54 334 125.618C334.059 125.696 334.087 125.793 334.078 125.89C334.063 125.952 334.036 126.01 333.998 126.06Z" fill="#263238"/>
<path d="M330.478 139.88C331.395 139.86 332.293 139.621 333.099 139.183C333.905 138.744 334.593 138.119 335.108 137.36C335.133 137.315 335.141 137.261 335.127 137.211C335.114 137.16 335.082 137.117 335.038 137.09C335.002 137.057 334.956 137.039 334.908 137.039C334.859 137.039 334.813 137.057 334.778 137.09C334.289 137.785 333.645 138.357 332.897 138.76C332.149 139.163 331.317 139.385 330.468 139.41C330.442 139.409 330.417 139.412 330.393 139.422C330.37 139.431 330.348 139.445 330.33 139.462C330.312 139.48 330.298 139.502 330.289 139.526C330.28 139.549 330.276 139.575 330.278 139.6C330.278 139.65 330.298 139.699 330.333 139.734C330.369 139.77 330.417 139.79 330.468 139.79L330.478 139.88Z" fill="#263238"/>
<path d="M322.217 127.18C322.148 127.162 322.087 127.122 322.044 127.066C322 127.01 321.977 126.941 321.977 126.87C321.977 126.799 322 126.73 322.044 126.674C322.087 126.618 322.148 126.578 322.217 126.56C322.762 126.329 323.354 126.232 323.944 126.277C324.534 126.323 325.104 126.509 325.607 126.82C325.648 126.848 325.682 126.884 325.708 126.925C325.735 126.966 325.753 127.013 325.761 127.061C325.77 127.109 325.768 127.159 325.757 127.207C325.746 127.255 325.726 127.3 325.697 127.34C325.638 127.417 325.551 127.47 325.455 127.486C325.358 127.503 325.259 127.483 325.177 127.43C324.773 127.194 324.319 127.055 323.852 127.026C323.385 126.996 322.918 127.076 322.487 127.26C322.39 127.27 322.293 127.241 322.217 127.18Z" fill="#263238"/>
<path d="M345.577 152.39C345.577 152.39 356.267 158.63 361.787 160.97C367.307 163.31 358.937 201.4 358.727 207.97C358.517 214.54 364.487 259.67 364.487 259.67C364.487 259.67 347.487 264.1 333.557 260.79C333.557 260.79 323.717 223.25 324.927 203.58C326.097 184.64 331.777 166 345.577 152.39Z" fill="#263238"/>
<path d="M349.999 154.91C347.469 153.48 345.629 152.39 345.629 152.39C332.279 165.55 326.549 183.39 325.129 201.7C330.909 187.59 344.379 174.7 344.379 174.7L340.219 168.61L347.849 168.01C347.997 163.569 348.72 159.166 349.999 154.91Z" fill="#263238"/>
<path opacity="0.1" d="M349.999 154.91C347.469 153.48 345.629 152.39 345.629 152.39C332.279 165.55 326.549 183.39 325.129 201.7C330.909 187.59 344.379 174.7 344.379 174.7L340.219 168.61L347.849 168.01C347.997 163.569 348.72 159.166 349.999 154.91Z" fill="white"/>
<path d="M345.378 177.31C345.368 177.223 345.325 177.144 345.258 177.088C345.191 177.032 345.105 177.004 345.018 177.01L321.018 179.01V180.69H318.488L321.708 219.52C321.708 219.7 321.838 219.7 321.848 219.83H322.108L322.318 219.53L323.118 219.46L323.378 219.72L348.428 217.61C348.472 217.607 348.514 217.596 348.553 217.577C348.592 217.558 348.627 217.532 348.656 217.499C348.685 217.467 348.707 217.429 348.721 217.388C348.735 217.347 348.741 217.303 348.738 217.26L345.378 177.31Z" fill="#8568F5"/>
<path d="M319.417 216.9C319.446 217.589 319.693 218.251 320.122 218.79C320.552 219.33 321.142 219.718 321.807 219.9C321.637 217.85 321.397 215.9 321.397 215.9C321.397 215.9 319.207 186.11 318.637 179.28C318.042 179.402 317.504 179.719 317.109 180.181C316.714 180.643 316.485 181.223 316.457 181.83C316.537 182.76 316.697 184.65 316.697 184.65C316.697 184.65 318.787 209.48 319.417 216.9Z" fill="#8568F5"/>
<path opacity="0.2" d="M319.417 216.9C319.446 217.589 319.693 218.251 320.122 218.79C320.552 219.33 321.142 219.718 321.807 219.9C321.637 217.85 321.397 215.9 321.397 215.9C321.397 215.9 319.207 186.11 318.637 179.28C318.042 179.402 317.504 179.719 317.109 180.181C316.714 180.643 316.485 181.223 316.457 181.83C316.537 182.76 316.697 184.65 316.697 184.65C316.697 184.65 318.787 209.48 319.417 216.9Z" fill="black"/>
<path d="M321.819 219L347.699 216.9L346.199 212.46L321.449 214.55C321.036 214.764 320.707 215.109 320.511 215.531C320.316 215.952 320.266 216.427 320.369 216.88C320.397 217.331 320.547 217.766 320.802 218.139C321.057 218.513 321.409 218.81 321.819 219Z" fill="#8568F5"/>
<path opacity="0.6" d="M321.819 219L347.699 216.9L346.199 212.46L321.449 214.55C321.036 214.764 320.707 215.109 320.511 215.531C320.316 215.952 320.266 216.427 320.369 216.88C320.397 217.331 320.547 217.766 320.802 218.139C321.057 218.513 321.409 218.81 321.819 219Z" fill="white"/>
<path d="M347.237 212.52L322.797 214.58L322.607 214.45L321.847 214.52L321.687 214.67H321.367C321.35 214.67 321.333 214.664 321.321 214.653C321.308 214.642 321.299 214.627 321.297 214.61L318.297 179.3C318.297 179.3 318.297 179.23 318.357 179.23H318.727L318.877 179.5L319.637 179.44L319.817 179.14L344.237 177.08C344.253 177.083 344.268 177.09 344.28 177.1C344.292 177.111 344.302 177.125 344.307 177.14L347.307 212.45C347.307 212.469 347.3 212.486 347.286 212.5C347.273 212.513 347.255 212.52 347.237 212.52Z" fill="#8568F5"/>
<path opacity="0.3" d="M341.64 197.13L324.47 198.57L323.25 184.11L340.42 182.66L341.64 197.13ZM325.28 197.49L340.66 196.2L339.61 183.74L324.23 185L325.28 197.49Z" fill="black"/>
<path opacity="0.3" d="M316.91 187.11C317.025 186.612 317.254 186.149 317.581 185.756C317.908 185.364 318.322 185.053 318.79 184.85C318.79 185.12 318.79 185.23 318.88 185.97C317.965 186.58 317.306 187.505 317.03 188.57L316.91 187.11Z" fill="black"/>
<path opacity="0.3" d="M318.758 209.14C318.872 208.641 319.102 208.176 319.428 207.782C319.755 207.388 320.169 207.076 320.638 206.87C320.638 207.14 320.688 207.26 320.738 208C319.818 208.605 319.158 209.533 318.888 210.6L318.758 209.14Z" fill="black"/>
<path opacity="0.3" d="M319.652 179.47L318.895 179.534L321.841 214.55L322.598 214.486L319.652 179.47Z" fill="black"/>
<path d="M339.469 201.485L327.422 202.499L327.562 204.163L339.609 203.149L339.469 201.485Z" fill="#8568F5"/>
<path d="M337.111 205.34L330.375 205.907L330.515 207.571L337.251 207.005L337.111 205.34Z" fill="#8568F5"/>
<path opacity="0.3" d="M321.777 216.49L344.917 214.49C344.917 214.49 337.867 214.95 329.147 215.69C325.447 216.05 321.777 216.49 321.777 216.49Z" fill="black"/>
<path opacity="0.3" d="M321.848 217.39L345.048 215.23L329.218 216.56C325.518 216.87 321.848 217.39 321.848 217.39Z" fill="black"/>
<path opacity="0.3" d="M321.918 218.2L345.228 216L329.288 217.35C325.588 217.68 321.918 218.2 321.918 218.2Z" fill="black"/>
<path d="M326.517 215.22L326.897 219.77L325.267 218.24L323.907 220C323.907 220 323.817 218.88 323.527 215.4C324.427 215.32 325.787 215.28 326.517 215.22Z" fill="#8568F5"/>
<path opacity="0.3" d="M326.517 215.22L326.897 219.77L325.267 218.24L323.907 220C323.907 220 323.817 218.88 323.527 215.4C324.427 215.32 325.787 215.28 326.517 215.22Z" fill="black"/>
<path opacity="0.3" d="M321.707 215.63L345.117 213.79C345.117 213.79 337.797 214.13 329.117 214.87C325.377 215.18 321.707 215.63 321.707 215.63Z" fill="black"/>
<path d="M347.308 212.51L345.938 212.63C345.629 213.319 345.6 214.101 345.858 214.81C345.944 215.279 346.159 215.715 346.479 216.068C346.798 216.421 347.21 216.678 347.668 216.81L347.308 212.51Z" fill="#8568F5"/>
<path d="M340.46 214.8L326.18 208.2C326.18 208.2 321.6 209.89 319.18 208.42C316.76 206.95 313.5 198.62 314.05 197.95C314.6 197.28 321.38 195.54 322.33 196.32C323.28 197.1 327.76 202.12 327.76 202.12L344.07 205.44L340.46 214.8Z" fill="#E2877B"/>
<path d="M336.47 200.91L330.75 200.57L331.36 213.44L337.44 214.46L336.47 200.91Z" fill="white"/>
<path d="M336.47 200.91L330.75 200.57L331.36 213.44L337.44 214.46L336.47 200.91Z" fill="#8568F5"/>
<path opacity="0.8" d="M336.47 200.91L330.75 200.57L331.36 213.44L337.44 214.46L336.47 200.91Z" fill="white"/>
<path d="M357.877 159.68C367.427 160.68 371.267 175.09 372.597 182.29C373.897 189.29 377.437 211.18 369.387 217.09C361.337 223 335.817 216.52 335.817 216.52L334.457 199C334.457 199 348.167 202.09 354.087 199.79C359.087 197.86 356.757 180.03 356.237 176.79C355.497 172.24 353.387 159.2 357.877 159.68Z" fill="#263238"/>
<path opacity="0.3" d="M357.877 159.68C367.427 160.68 371.267 175.09 372.597 182.29C373.897 189.29 377.437 211.18 369.387 217.09C361.337 223 335.817 216.52 335.817 216.52L334.457 199C334.457 199 348.167 202.09 354.087 199.79C359.087 197.86 356.757 180.03 356.237 176.79C355.497 172.24 353.387 159.2 357.877 159.68Z" fill="black"/>
<path d="M342.099 130.67C342.099 130.67 343.679 126.3 347.719 126.28C350.959 126.28 351.429 130.33 349.949 133.13C348.819 135.28 345.109 137.97 342.749 135.13C340.389 132.29 342.099 130.67 342.099 130.67Z" fill="#E2877B"/>
<path d="M145.38 329.06L145.02 344.63L143.38 415.06H137.97L136.34 344.63L135.98 329.06H145.38Z" fill="#457BFB"/>
<path opacity="0.4" d="M145.38 329.06L145.02 344.63L143.38 415.06H137.97L136.34 344.63L135.98 329.06H145.38Z" fill="white"/>
<path opacity="0.2" d="M145.38 329.06L145.02 345.06H136.34L135.98 329.06H145.38Z" fill="black"/>
<path d="M174.76 414.81L169.76 330.16H161.59L168.59 414.81H174.76Z" fill="#457BFB"/>
<path opacity="0.5" d="M168.57 414.81H174.75L170.21 337.76L169.76 330.06H161.59L162.22 337.76L168.57 414.81Z" fill="white"/>
<path opacity="0.2" d="M161.59 330.06L162.22 338.06H170.21L169.76 330.06H161.59Z" fill="black"/>
<path d="M112.772 414.81L119.762 330.16H111.592L106.602 414.81H112.772Z" fill="#457BFB"/>
<path opacity="0.5" d="M112.782 414.81L119.132 337.76L119.762 330.06H111.592L111.142 337.76L106.602 414.81H112.782Z" fill="white"/>
<path opacity="0.2" d="M119.761 330.06L119.131 338.06H111.141L111.591 330.06H119.761Z" fill="black"/>
<path d="M112.223 321.39H169.143C170.469 321.39 171.741 321.917 172.678 322.855C173.616 323.792 174.143 325.064 174.143 326.39V333.08H107.223V326.39C107.223 325.064 107.749 323.792 108.687 322.855C109.625 321.917 110.897 321.39 112.223 321.39Z" fill="black"/>
<path d="M175.332 327.24H106.022C104.912 327.24 104.012 328.14 104.012 329.25V331.07C104.012 332.18 104.912 333.08 106.022 333.08H175.332C176.442 333.08 177.342 332.18 177.342 331.07V329.25C177.342 328.14 176.442 327.24 175.332 327.24Z" fill="#457BFB"/>
<path opacity="0.6" d="M175.332 327.24H106.022C104.912 327.24 104.012 328.14 104.012 329.25V331.07C104.012 332.18 104.912 333.08 106.022 333.08H175.332C176.442 333.08 177.342 332.18 177.342 331.07V329.25C177.342 328.14 176.442 327.24 175.332 327.24Z" fill="white"/>
<path d="M176.879 245.66C176.879 245.66 197.019 266.56 198.239 267.66C199.459 268.76 206.969 271.18 208.079 272.14C209.189 273.1 207.319 280.14 206.579 281.49C205.839 282.84 195.219 277.04 194.579 276.09C193.965 274.913 193.462 273.681 193.079 272.41L170.219 253.21L176.879 245.66Z" fill="#E9B076"/>
<path d="M159.91 225.43C159.91 225.43 159.97 226.24 160.13 227.58C160.29 228.92 160.53 230.94 160.89 233.18C161.76 238.63 163.28 245.64 165.72 249.88C166.316 251.004 167.137 251.995 168.13 252.79C171.33 255.17 185.46 270.72 185.46 270.72L192.97 261.17L183 248.55C183 248.55 176.42 211.38 166.39 208.48C162.05 207.22 159.91 225.43 159.91 225.43Z" fill="#8568F5"/>
<path opacity="0.6" d="M159.91 225.43C159.91 225.43 159.97 226.24 160.13 227.58C160.29 228.92 160.53 230.94 160.89 233.18C161.76 238.63 163.28 245.64 165.72 249.88C166.316 251.004 167.137 251.995 168.13 252.79C171.33 255.17 185.46 270.72 185.46 270.72L192.97 261.17L183 248.55C183 248.55 176.42 211.38 166.39 208.48C162.05 207.22 159.91 225.43 159.91 225.43Z" fill="black"/>
<path d="M169.02 407.84L176.99 406.74L178.09 387.81L170.14 388.91L169.02 407.84Z" fill="#E9B076"/>
<path opacity="0.2" d="M170.142 388.91L178.092 387.82L177.462 398.64L169.512 399.34L170.142 388.91Z" fill="black"/>
<path d="M169.34 296.52L167.4 284.34L122.74 281.67C122.74 281.67 118 307 121.64 313.76C128.15 325.81 163.26 319.76 173.53 320.91C167.39 346 168 395.09 168 395.09L182.67 396.21C182.67 396.21 193.96 343.34 196.24 318.21C197.77 301.26 183.72 301.68 169.34 296.52Z" fill="#8568F5"/>
<path d="M166.269 395.78L183.899 396.94L185.409 389.39L166.039 388.49L166.269 395.78Z" fill="#457BFB"/>
<path d="M187.398 400.77L195.418 401.36L200.438 383.06L192.428 382.49L187.398 400.77Z" fill="#E9B076"/>
<path d="M196.528 401.71C196.528 401.71 196.528 401.76 196.528 401.78C196.539 401.785 196.551 401.787 196.563 401.787C196.575 401.787 196.587 401.785 196.598 401.78C197.232 402.135 197.903 402.421 198.598 402.63C199.1 402.826 199.656 402.826 200.158 402.63C200.323 402.538 200.459 402.401 200.549 402.234C200.64 402.068 200.681 401.879 200.668 401.69C200.679 401.571 200.66 401.451 200.613 401.341C200.566 401.231 200.492 401.135 200.398 401.06C199.679 400.772 198.881 400.751 198.148 401C198.722 400.614 199.14 400.036 199.328 399.37C199.341 399.213 199.301 399.055 199.214 398.923C199.127 398.79 198.998 398.691 198.848 398.64C198.722 398.579 198.584 398.546 198.443 398.546C198.303 398.546 198.164 398.579 198.038 398.64C197.038 399.17 196.688 401.41 196.658 401.53H196.518C196.518 401.53 196.508 401.69 196.528 401.71ZM197.128 401.27L196.948 401.32C197.138 400.58 197.538 399.37 198.128 399.06C198.192 399.021 198.263 398.995 198.337 398.984C198.411 398.974 198.486 398.979 198.558 399H198.638C198.888 399.11 198.918 399.25 198.908 399.36C198.838 399.93 197.918 400.83 197.128 401.27ZM197.128 401.68C198.188 401.36 199.658 401.07 200.128 401.41C200.173 401.448 200.209 401.495 200.232 401.549C200.254 401.603 200.263 401.662 200.258 401.72C200.262 401.84 200.236 401.959 200.181 402.065C200.127 402.172 200.047 402.263 199.948 402.33C199.498 402.58 198.468 402.34 197.158 401.68H197.128Z" fill="#8568F5"/>
<path opacity="0.2" d="M192.428 382.49L200.438 383.07L197.568 393.53L189.648 392.56L192.428 382.49Z" fill="black"/>
<path d="M203.16 392.24L189 388.09C189 388.09 197.43 340.51 206 324.01C205.36 323.8 204.51 323.53 203.46 323.22C201.57 322.65 199.06 321.94 196.11 321.12C175.61 315.43 134 304.76 134 304.76L153 287C153 287 228.68 298.54 230.25 318.48C231 328.1 203.16 392.24 203.16 392.24Z" fill="#8568F5"/>
<path d="M187.219 388.4L204.219 393.21L207.269 386.14L188.509 381.22L187.219 388.4Z" fill="#457BFB"/>
<path opacity="0.2" d="M203.479 323.22C201.589 322.65 199.079 321.94 196.129 321.12C196.719 316.28 196.729 310.73 194.399 307.9C189.769 302.26 177.859 298.95 171.079 297.75C165.409 296.75 146.359 294.75 146.359 294.75C146.359 294.75 171.079 292.38 196.359 299.75C208.839 303.41 206.409 315.62 203.479 323.22Z" fill="black"/>
<path d="M120.261 294.4C117.261 292.11 120.141 270.81 118.611 249.85C116.281 217.96 121.291 207.57 123.611 206.57C127.052 205.868 130.55 205.483 134.061 205.42C140.5 205.182 146.948 205.319 153.371 205.83C157.766 206.378 162.112 207.264 166.371 208.48C166.371 208.48 176.901 241.98 170.171 290.23L120.261 294.4Z" fill="#8568F5"/>
<g opacity="0.5">
<path d="M120.261 294.4C117.261 292.11 120.141 270.81 118.611 249.85C116.281 217.96 121.291 207.57 123.611 206.57C127.052 205.868 130.55 205.483 134.061 205.42C140.5 205.182 146.948 205.319 153.371 205.83C157.766 206.378 162.112 207.264 166.371 208.48C166.371 208.48 176.901 241.98 170.171 290.23L120.261 294.4Z" fill="black"/>
</g>
<path d="M136.47 183.77C137.55 190 138.52 201.41 134.09 205.47C135.886 207.403 138.049 208.96 140.453 210.05C142.856 211.14 145.452 211.742 148.09 211.82C156.09 212.17 153.39 205.88 153.39 205.88C146.5 204.08 146.79 198.94 148.1 194.14L136.47 183.77Z" fill="#E2877B"/>
<path opacity="0.2" d="M141.21 188L148.1 194.15C147.776 195.265 147.552 196.406 147.43 197.56C144.79 197.12 141.22 194.14 141 191.36C140.859 190.237 140.93 189.097 141.21 188Z" fill="black"/>
<path d="M158.808 175.46C158.808 175.46 165.138 176.8 166.008 172.85C166.878 168.9 165.308 168.22 167.188 166.32C169.068 164.42 167.858 157.93 163.008 159.21C158.158 160.49 155.618 153.82 151.598 154.73C147.578 155.64 146.958 158.44 144.428 159.1C141.898 159.76 136.878 156.49 133.658 158.43C130.438 160.37 132.918 164.53 131.828 166.12C130.738 167.71 128.078 171.76 131.828 177.7C135.268 183.14 130.988 185.87 128.768 185.36C128.691 185.339 128.61 185.337 128.531 185.354C128.453 185.371 128.38 185.406 128.318 185.457C128.257 185.508 128.208 185.573 128.177 185.647C128.145 185.72 128.132 185.8 128.138 185.88C128.198 186.51 128.568 187.4 130.078 187.96C132.598 188.9 133.078 187.53 133.658 188.25C134.238 188.97 135.498 191.34 139.658 188.91C143.818 186.48 145.848 171.11 158.808 175.46Z" fill="#263238"/>
<path d="M158.9 184.44C158.18 188.6 155.06 197.32 146.23 194.66C137.4 192 137 185 136.88 183C136.76 181 138.6 165.38 144.25 163.9C149.9 162.42 156.75 164.25 158.9 167.47C161.05 170.69 158.9 184.44 158.9 184.44Z" fill="#E2877B"/>
<path d="M148.708 178.06C148.558 178.67 148.848 179.25 149.258 179.32C149.668 179.39 150.088 178.93 150.198 178.32C150.308 177.71 150.048 177.13 149.648 177.07C149.248 177.01 148.818 177.43 148.708 178.06Z" fill="#263238"/>
<path d="M155.689 179.27C155.539 179.88 155.829 180.46 156.239 180.52C156.649 180.58 157.059 180.14 157.169 179.52C157.279 178.9 157.029 178.33 156.619 178.26C156.209 178.19 155.789 178.68 155.689 179.27Z" fill="#263238"/>
<path d="M153.479 179.19C153.901 181.228 154.597 183.2 155.549 185.05C155.063 185.275 154.535 185.392 153.999 185.392C153.464 185.392 152.935 185.275 152.449 185.05L153.479 179.19Z" fill="#DC5753"/>
<path d="M151.41 174.15C151.351 174.118 151.284 174.101 151.215 174.101C151.147 174.101 151.08 174.118 151.02 174.15C150.639 174.42 150.2 174.596 149.738 174.665C149.276 174.735 148.804 174.695 148.36 174.55C148.316 174.53 148.268 174.52 148.219 174.518C148.17 174.517 148.121 174.526 148.076 174.543C148.03 174.561 147.989 174.587 147.953 174.621C147.918 174.655 147.89 174.696 147.87 174.74C147.851 174.786 147.84 174.834 147.84 174.884C147.839 174.933 147.849 174.982 147.867 175.028C147.886 175.073 147.913 175.115 147.948 175.149C147.983 175.184 148.025 175.212 148.07 175.23C148.626 175.428 149.222 175.489 149.806 175.409C150.391 175.329 150.948 175.11 151.43 174.77C151.512 174.717 151.57 174.634 151.592 174.539C151.615 174.444 151.6 174.345 151.55 174.26C151.508 174.219 151.461 174.182 151.41 174.15Z" fill="#263238"/>
<path d="M147.898 187.78C148.766 187.484 149.692 187.4 150.598 187.536C151.505 187.672 152.365 188.023 153.108 188.56C153.128 188.578 153.143 188.599 153.154 188.624C153.164 188.648 153.17 188.674 153.17 188.7C153.17 188.726 153.164 188.752 153.154 188.777C153.143 188.801 153.128 188.822 153.108 188.84C153.071 188.874 153.023 188.892 152.973 188.892C152.923 188.892 152.875 188.874 152.838 188.84C152.143 188.352 151.342 188.035 150.502 187.913C149.661 187.792 148.803 187.869 147.998 188.14C147.949 188.154 147.897 188.149 147.851 188.127C147.804 188.105 147.768 188.067 147.748 188.02C147.739 187.997 147.734 187.973 147.734 187.948C147.735 187.923 147.74 187.899 147.751 187.876C147.761 187.854 147.776 187.833 147.794 187.817C147.813 187.8 147.835 187.788 147.858 187.78H147.898Z" fill="#263238"/>
<path d="M156.62 174.59C156.548 174.57 156.472 174.57 156.4 174.59C156.354 174.608 156.313 174.634 156.278 174.668C156.243 174.702 156.215 174.742 156.195 174.787C156.176 174.831 156.165 174.879 156.164 174.928C156.163 174.977 156.172 175.025 156.19 175.07C156.398 175.624 156.735 176.119 157.173 176.516C157.612 176.912 158.138 177.198 158.71 177.35C158.806 177.368 158.906 177.348 158.988 177.294C159.07 177.24 159.128 177.156 159.15 177.06C159.168 176.964 159.147 176.864 159.093 176.782C159.039 176.7 158.956 176.642 158.86 176.62C158.405 176.493 157.987 176.259 157.639 175.94C157.292 175.62 157.025 175.223 156.86 174.78C156.807 174.688 156.721 174.62 156.62 174.59Z" fill="#263238"/>
<path d="M163.099 167.15C164.939 169.32 158.959 172.38 156.629 170.72C154.629 169.28 152.449 167.62 149.809 169.2C147.169 170.78 146.919 169.4 145.099 169.4C143.279 169.4 145.819 173.3 143.309 175.02C141.869 176.02 139.799 176.51 140.449 178.26C141.099 180.01 140.129 182.45 137.629 182C137.629 182 139.969 181.34 138.509 178.95C137.049 176.56 135.789 177.95 135.789 177.95C135.789 177.95 136.489 164.78 142.789 162.36C149.089 159.94 160.059 163.57 163.099 167.15Z" fill="#263238"/>
<path d="M139.261 179C139.261 179 137.681 174.63 133.651 174.62C130.401 174.62 129.941 178.62 131.411 181.47C132.551 183.62 136.061 186.13 138.611 183.47C140.121 181.88 139.261 179 139.261 179Z" fill="#E2877B"/>
<path d="M150.711 256.29C150.711 256.29 178.391 265.02 179.981 265.39C181.571 265.76 189.331 264.3 190.761 264.62C192.191 264.94 193.931 272.01 193.921 273.55C193.911 275.09 181.811 275.06 180.801 274.55C179.693 273.81 178.659 272.966 177.711 272.03L148.461 266.09L150.711 256.29Z" fill="#E9B076"/>
<path d="M123.64 206.57C108.06 208 119.58 253.26 125.9 259.78C132.22 266.3 153.9 268.64 153.9 268.64L156.65 256.47C156.65 256.47 140.34 252.12 137.45 250.24C134.56 248.36 132.53 229.59 130.81 220.46C129.907 215.203 127.403 210.352 123.64 206.57Z" fill="#8568F5"/>
<path opacity="0.6" d="M123.64 206.57C108.06 208 119.58 253.26 125.9 259.78C132.22 266.3 153.9 268.64 153.9 268.64L156.65 256.47C156.65 256.47 140.34 252.12 137.45 250.24C134.56 248.36 132.53 229.59 130.81 220.46C129.907 215.203 127.403 210.352 123.64 206.57Z" fill="black"/>
<path opacity="0.2" d="M166.269 395.78L183.899 396.94L185.409 389.39L166.039 388.49L166.269 395.78Z" fill="white"/>
<path opacity="0.2" d="M187.219 388.4L204.219 393.21L207.269 386.14L188.509 381.22L187.219 388.4Z" fill="white"/>
<path d="M196.212 400.54L187.522 398.12C187.378 398.073 187.222 398.084 187.087 398.151C186.952 398.219 186.849 398.337 186.802 398.48L184.462 405.24C184.412 405.421 184.398 405.61 184.421 405.795C184.444 405.981 184.504 406.161 184.597 406.323C184.69 406.486 184.814 406.629 184.963 406.743C185.111 406.858 185.281 406.942 185.462 406.99C188.462 407.78 189.992 407.99 193.822 409.05C196.172 409.7 200.752 411.2 204.102 411.58C207.452 411.96 207.732 408.64 206.352 408.19C203.072 407.09 199.152 403.67 197.442 401.35C197.135 400.949 196.701 400.663 196.212 400.54Z" fill="#263238"/>
<path d="M177.781 406.77C177.837 406.765 177.894 406.765 177.951 406.77C177.951 406.77 178.131 406.77 178.151 406.84C178.171 406.91 178.151 406.89 178.151 406.9H178.211C178.895 407.109 179.599 407.25 180.311 407.32C180.84 407.408 181.384 407.302 181.841 407.02C181.976 406.896 182.075 406.737 182.126 406.561C182.177 406.385 182.179 406.197 182.131 406.02C182.115 405.9 182.07 405.785 181.998 405.688C181.926 405.59 181.831 405.511 181.721 405.46C180.956 405.327 180.168 405.473 179.501 405.87C179.974 405.37 180.254 404.718 180.291 404.03C180.257 403.87 180.173 403.726 180.05 403.618C179.928 403.51 179.774 403.444 179.611 403.43C179.455 403.402 179.295 403.405 179.141 403.439C178.986 403.474 178.84 403.539 178.711 403.63C177.881 404.36 177.711 406.63 177.711 406.77H177.781ZM178.641 406.3L178.481 406.39C178.433 405.518 178.672 404.654 179.161 403.93C179.217 403.881 179.281 403.843 179.352 403.819C179.422 403.795 179.497 403.785 179.571 403.79H179.661C179.921 403.84 179.991 403.98 179.991 404.08C179.822 404.958 179.343 405.746 178.641 406.3ZM178.761 406.7C179.761 406.16 181.101 405.58 181.621 405.81C181.673 405.838 181.718 405.878 181.751 405.926C181.784 405.975 181.805 406.032 181.811 406.09C181.839 406.206 181.837 406.328 181.806 406.443C181.774 406.559 181.714 406.664 181.631 406.75C181.231 407.09 180.181 407.07 178.761 406.7Z" fill="#8568F5"/>
<path d="M177.591 405.78L168.591 405.22C168.44 405.208 168.291 405.255 168.174 405.35C168.057 405.445 167.981 405.581 167.961 405.73L167.081 412.83C167.059 413.202 167.184 413.568 167.429 413.848C167.674 414.129 168.019 414.302 168.391 414.33C171.531 414.48 173.041 414.39 177.001 414.61C179.431 414.75 184.221 415.27 187.581 414.94C190.941 414.61 190.521 411.31 189.071 411.15C185.641 410.76 181.071 408.24 178.941 406.32C178.563 405.996 178.088 405.806 177.591 405.78Z" fill="#263238"/>
<path d="M222.252 156.051H184.976C182.524 156.051 180.531 158.046 180.531 160.517V179.557C180.531 181.923 182.37 183.855 184.683 184.009L182.496 191.59L192.283 184.023H222.252C224.704 184.023 226.697 182.021 226.697 179.557V160.517C226.697 158.053 224.711 156.051 222.252 156.051Z" fill="#263238" stroke="#263238" stroke-linecap="round" stroke-linejoin="round"/>
<path d="M220.721 154H183.444C180.992 154 179 156.002 179 158.466V177.506C179 179.872 180.839 181.804 183.152 181.958L180.964 189.539L190.752 181.972H220.721C223.173 181.972 225.166 179.977 225.166 177.506V158.466C225.166 156.002 223.18 154 220.721 154Z" fill="#FF880D" stroke="#263238" stroke-miterlimit="10"/>
<path d="M194.389 167.482C194.389 168.301 193.727 168.959 192.919 168.959C192.111 168.959 191.449 168.294 191.449 167.482C191.449 166.67 192.111 166.005 192.919 166.005C193.727 166.005 194.389 166.67 194.389 167.482Z" fill="#263238"/>
<path d="M203.557 167.482C203.557 168.301 202.895 168.959 202.087 168.959C201.279 168.959 200.617 168.294 200.617 167.482C200.617 166.67 201.279 166.005 202.087 166.005C202.895 166.005 203.557 166.67 203.557 167.482Z" fill="#263238"/>
<path d="M212.725 167.482C212.725 168.301 212.063 168.959 211.255 168.959C210.447 168.959 209.785 168.294 209.785 167.482C209.785 166.67 210.447 166.005 211.255 166.005C212.063 166.005 212.725 166.67 212.725 167.482Z" fill="#263238"/>
<path opacity="0.3" d="M155.062 221.73L167.493 220.57L168.122 223.8L155.823 225.52L155.062 221.73Z" fill="white"/>
<path d="M83.1211 258H214.211V263.51C214.211 264.083 213.984 264.632 213.578 265.037C213.173 265.442 212.624 265.67 212.051 265.67H85.2911C84.7182 265.67 84.1688 265.442 83.7637 265.037C83.3587 264.632 83.1311 264.083 83.1311 263.51V258H83.1211Z" fill="#263238"/>
<path opacity="0.3" d="M83.1211 258H214.211V263.51C214.211 264.083 213.984 264.632 213.578 265.037C213.173 265.442 212.624 265.67 212.051 265.67H85.2911C84.7182 265.67 84.1688 265.442 83.7637 265.037C83.3587 264.632 83.1311 264.083 83.1311 263.51V258H83.1211Z" fill="white"/>
<path opacity="0.2" d="M214.201 257.97H83.1211V261.81H214.201V257.97Z" fill="black"/>
<path d="M218 259H79.3302C79.0457 259.002 78.7637 258.947 78.5005 258.839C78.2373 258.731 77.998 258.572 77.7963 258.371C77.5947 258.17 77.4347 257.932 77.3255 257.669C77.2163 257.406 77.1602 257.125 77.1602 256.84C77.1628 256.266 77.3926 255.717 77.7993 255.312C78.2059 254.907 78.7564 254.68 79.3302 254.68H218C218.573 254.68 219.122 254.908 219.527 255.313C219.933 255.718 220.16 256.267 220.16 256.84C220.161 257.124 220.107 257.406 219.998 257.668C219.89 257.931 219.731 258.17 219.53 258.37C219.33 258.571 219.091 258.73 218.828 258.838C218.566 258.947 218.284 259.002 218 259Z" fill="#263238"/>
<path opacity="0.3" d="M218 259H79.3302C79.0457 259.002 78.7637 258.947 78.5005 258.839C78.2373 258.731 77.998 258.572 77.7963 258.371C77.5947 258.17 77.4347 257.932 77.3255 257.669C77.2163 257.406 77.1602 257.125 77.1602 256.84C77.1628 256.266 77.3926 255.717 77.7993 255.312C78.2059 254.907 78.7564 254.68 79.3302 254.68H218C218.573 254.68 219.122 254.908 219.527 255.313C219.933 255.718 220.16 256.267 220.16 256.84C220.161 257.124 220.107 257.406 219.998 257.668C219.89 257.931 219.731 258.17 219.53 258.37C219.33 258.571 219.091 258.73 218.828 258.838C218.566 258.947 218.284 259.002 218 259Z" fill="white"/>
<path d="M86.3491 415.06H143.039L143.039 265.65H86.3491L86.3491 415.06Z" fill="#263238"/>
<path opacity="0.2" d="M86.3491 415.06H143.039L143.039 265.65H86.3491L86.3491 415.06Z" fill="white"/>
<path d="M259.579 265.65H143.039V415.06H259.579V265.65Z" fill="#263238"/>
<path opacity="0.39" d="M259.579 265.65H143.039V415.06H259.579V265.65Z" fill="white"/>
<path d="M140.66 258H261.74V263.51C261.74 264.083 261.513 264.632 261.108 265.037C260.702 265.442 260.153 265.67 259.58 265.67H142.82C142.247 265.67 141.698 265.442 141.293 265.037C140.888 264.632 140.66 264.083 140.66 263.51V258Z" fill="#263238"/>
<path opacity="0.6" d="M140.66 258H261.74V263.51C261.74 264.083 261.513 264.632 261.108 265.037C260.702 265.442 260.153 265.67 259.58 265.67H142.82C142.247 265.67 141.698 265.442 141.293 265.037C140.888 264.632 140.66 264.083 140.66 263.51V258Z" fill="white"/>
<path opacity="0.2" d="M261.74 257.97H140.66V261.81H261.74V257.97Z" fill="black"/>
<path d="M265.539 259H136.859C136.576 259 136.295 258.944 136.033 258.836C135.771 258.727 135.532 258.568 135.332 258.368C135.131 258.167 134.972 257.929 134.864 257.667C134.755 257.405 134.699 257.124 134.699 256.84C134.699 256.267 134.927 255.718 135.332 255.313C135.737 254.908 136.286 254.68 136.859 254.68H265.539C265.823 254.68 266.104 254.736 266.366 254.845C266.628 254.953 266.866 255.112 267.067 255.313C267.267 255.513 267.426 255.752 267.535 256.014C267.643 256.276 267.699 256.557 267.699 256.84C267.699 257.124 267.643 257.405 267.535 257.667C267.426 257.929 267.267 258.167 267.067 258.368C266.866 258.568 266.628 258.727 266.366 258.836C266.104 258.944 265.823 259 265.539 259Z" fill="#263238"/>
<path opacity="0.6" d="M265.539 259H136.859C136.576 259 136.295 258.944 136.033 258.836C135.771 258.727 135.532 258.568 135.332 258.368C135.131 258.167 134.972 257.929 134.864 257.667C134.755 257.405 134.699 257.124 134.699 256.84C134.699 256.267 134.927 255.718 135.332 255.313C135.737 254.908 136.286 254.68 136.859 254.68H265.539C265.823 254.68 266.104 254.736 266.366 254.845C266.628 254.953 266.866 255.112 267.067 255.313C267.267 255.513 267.426 255.752 267.535 256.014C267.643 256.276 267.699 256.557 267.699 256.84C267.699 257.124 267.643 257.405 267.535 257.667C267.426 257.929 267.267 258.167 267.067 258.368C266.866 258.568 266.628 258.727 266.366 258.836C266.104 258.944 265.823 259 265.539 259Z" fill="white"/>
<g opacity="0.3">
<path d="M237.74 398.38H164.66V277.74H237.74V398.38ZM171.11 391.93H231.29V284.19H171.11V391.93Z" fill="white"/>
<path d="M220.011 297.92H182.391V378.2H220.011V297.92Z" fill="white"/>
</g>
<path d="M290.13 51H222.92C219.65 51 217 53.6505 217 56.92V104.05C217 107.32 219.65 109.97 222.92 109.97H290.13C293.4 109.97 296.05 107.32 296.05 104.05V56.92C296.05 53.6505 293.4 51 290.13 51Z" fill="#8468F5" fill-opacity="0.8"/>
<path d="M290.13 51H222.92C219.65 51 217 53.6505 217 56.92V104.05C217 107.32 219.65 109.97 222.92 109.97H290.13C293.4 109.97 296.05 107.32 296.05 104.05V56.92C296.05 53.6505 293.4 51 290.13 51Z" fill="url(#paint0_radial_543_22386)" fill-opacity="0.7"/>
<path d="M290.13 51H222.92C219.65 51 217 53.6505 217 56.92V104.05C217 107.32 219.65 109.97 222.92 109.97H290.13C293.4 109.97 296.05 107.32 296.05 104.05V56.92C296.05 53.6505 293.4 51 290.13 51Z" fill="url(#paint1_linear_543_22386)"/>
<path fill-rule="evenodd" clip-rule="evenodd" d="M284.12 98.8702C284.12 98.8702 282.48 116.35 303.33 124.6C303.33 124.6 275.54 122.34 274.23 98.4702L284.12 98.8702Z" fill="#FAAA19"/>
<path opacity="0.39" d="M292.051 104.05V56.92C292.051 55.8596 291.191 55 290.131 55L222.921 55C221.86 55 221.001 55.8596 221.001 56.92V104.05C221.001 105.11 221.86 105.97 222.921 105.97H290.131C291.191 105.97 292.051 105.11 292.051 104.05Z" fill="white"/>
<path d="M248.03 81.6299C247.589 82.7771 246.81 83.7637 245.797 84.4596C244.784 85.1555 243.584 85.528 242.355 85.528C241.126 85.528 239.925 85.1555 238.912 84.4596C237.899 83.7637 237.121 82.7771 236.68 81.6299H248.03Z" fill="#8568F5"/>
<path opacity="0.5" d="M248.03 81.6299C247.589 82.7771 246.81 83.7637 245.797 84.4596C244.784 85.1555 243.584 85.528 242.355 85.528C241.126 85.528 239.925 85.1555 238.912 84.4596C237.899 83.7637 237.121 82.7771 236.68 81.6299H248.03Z" fill="black"/>
<path d="M248.03 80.8301C247.993 80.8292 247.957 80.8186 247.925 80.7993C247.893 80.78 247.867 80.7526 247.85 80.7201L242.33 70.2301L236.83 80.7201C236.804 80.7687 236.761 80.8054 236.708 80.8223C236.656 80.8391 236.599 80.8347 236.55 80.8101C236.501 80.7845 236.464 80.7408 236.448 80.6884C236.431 80.6361 236.435 80.5792 236.46 80.5301L242.14 69.7001C242.16 69.6691 242.187 69.6436 242.219 69.626C242.252 69.6084 242.288 69.5991 242.325 69.5991C242.362 69.5991 242.398 69.6084 242.43 69.626C242.462 69.6436 242.49 69.6691 242.51 69.7001L248.19 80.5301C248.214 80.5792 248.219 80.6361 248.202 80.6884C248.185 80.7408 248.148 80.7845 248.1 80.8101L248.03 80.8301Z" fill="#8568F5"/>
<g opacity="0.7">
<path d="M248.03 80.8301C247.993 80.8292 247.957 80.8186 247.925 80.7993C247.893 80.78 247.867 80.7526 247.85 80.7201L242.33 70.2301L236.83 80.7201C236.804 80.7687 236.761 80.8054 236.708 80.8223C236.656 80.8391 236.599 80.8347 236.55 80.8101C236.501 80.7845 236.464 80.7408 236.448 80.6884C236.431 80.6361 236.435 80.5792 236.46 80.5301L242.14 69.7001C242.16 69.6691 242.187 69.6436 242.219 69.626C242.252 69.6084 242.288 69.5991 242.325 69.5991C242.362 69.5991 242.398 69.6084 242.43 69.626C242.462 69.6436 242.49 69.6691 242.51 69.7001L248.19 80.5301C248.214 80.5792 248.219 80.6361 248.202 80.6884C248.185 80.7408 248.148 80.7845 248.1 80.8101L248.03 80.8301Z" fill="black"/>
</g>
<path d="M242.331 81.3501C242.304 81.3515 242.277 81.3473 242.251 81.3378C242.226 81.3284 242.203 81.3139 242.183 81.2952C242.164 81.2765 242.148 81.254 242.137 81.229C242.127 81.2041 242.121 81.1772 242.121 81.1501V69.7901C242.121 69.763 242.127 69.7361 242.137 69.7112C242.148 69.6862 242.164 69.6637 242.183 69.645C242.203 69.6263 242.226 69.6118 242.251 69.6024C242.277 69.5929 242.304 69.5887 242.331 69.5901C242.384 69.5901 242.435 69.6112 242.473 69.6487C242.51 69.6862 242.531 69.7371 242.531 69.7901V81.1301C242.534 81.158 242.531 81.1862 242.522 81.2128C242.513 81.2394 242.499 81.2639 242.48 81.2846C242.461 81.3054 242.438 81.3219 242.413 81.3332C242.387 81.3445 242.359 81.3502 242.331 81.3501Z" fill="#8568F5"/>
<g opacity="0.7">
<path d="M242.331 81.3501C242.304 81.3515 242.277 81.3473 242.251 81.3378C242.226 81.3284 242.203 81.3139 242.183 81.2952C242.164 81.2765 242.148 81.254 242.137 81.229C242.127 81.2041 242.121 81.1772 242.121 81.1501V69.7901C242.121 69.763 242.127 69.7361 242.137 69.7112C242.148 69.6862 242.164 69.6637 242.183 69.645C242.203 69.6263 242.226 69.6118 242.251 69.6024C242.277 69.5929 242.304 69.5887 242.331 69.5901C242.384 69.5901 242.435 69.6112 242.473 69.6487C242.51 69.6862 242.531 69.7371 242.531 69.7901V81.1301C242.534 81.158 242.531 81.1862 242.522 81.2128C242.513 81.2394 242.499 81.2639 242.48 81.2846C242.461 81.3054 242.438 81.3219 242.413 81.3332C242.387 81.3445 242.359 81.3502 242.331 81.3501Z" fill="black"/>
</g>
<path d="M248.851 80.6201H235.871V81.6301H248.851V80.6201Z" fill="#8568F5"/>
<path opacity="0.3" d="M248.851 80.6201H235.871V81.6301H248.851V80.6201Z" fill="black"/>
<path d="M276.13 81.6299C275.686 82.7762 274.906 83.7615 273.893 84.4564C272.879 85.1513 271.679 85.5231 270.45 85.5231C269.22 85.5231 268.02 85.1513 267.006 84.4564C265.993 83.7615 265.213 82.7762 264.77 81.6299H276.13Z" fill="#8568F5"/>
<path opacity="0.5" d="M276.13 81.6299C275.686 82.7762 274.906 83.7615 273.893 84.4564C272.879 85.1513 271.679 85.5231 270.45 85.5231C269.22 85.5231 268.02 85.1513 267.006 84.4564C265.993 83.7615 265.213 82.7762 264.77 81.6299H276.13Z" fill="black"/>
<path d="M276.13 80.83C276.092 80.8315 276.055 80.8218 276.023 80.8023C275.991 80.7827 275.966 80.754 275.95 80.72L270.45 70.23L264.95 80.72C264.937 80.7436 264.92 80.7646 264.9 80.7816C264.879 80.7987 264.856 80.8115 264.83 80.8194C264.805 80.8273 264.778 80.8301 264.751 80.8276C264.724 80.8251 264.699 80.8175 264.675 80.805C264.651 80.7925 264.63 80.7755 264.613 80.7549C264.596 80.7343 264.583 80.7106 264.575 80.6851C264.568 80.6595 264.565 80.6327 264.567 80.6061C264.57 80.5795 264.577 80.5536 264.59 80.53L270.27 69.7C270.289 69.6689 270.315 69.6432 270.347 69.6254C270.378 69.6075 270.414 69.5981 270.45 69.5981C270.486 69.5981 270.522 69.6075 270.553 69.6254C270.585 69.6432 270.611 69.6689 270.63 69.7L276.33 80.53C276.355 80.5791 276.359 80.636 276.342 80.6884C276.325 80.7407 276.289 80.7844 276.24 80.81L276.13 80.83Z" fill="#8568F5"/>
<g opacity="0.7">
<path d="M276.13 80.83C276.092 80.8315 276.055 80.8218 276.023 80.8023C275.991 80.7827 275.966 80.754 275.95 80.72L270.45 70.23L264.95 80.72C264.937 80.7436 264.92 80.7646 264.9 80.7816C264.879 80.7987 264.856 80.8115 264.83 80.8194C264.805 80.8273 264.778 80.8301 264.751 80.8276C264.724 80.8251 264.699 80.8175 264.675 80.805C264.651 80.7925 264.63 80.7755 264.613 80.7549C264.596 80.7343 264.583 80.7106 264.575 80.6851C264.568 80.6595 264.565 80.6327 264.567 80.6061C264.57 80.5795 264.577 80.5536 264.59 80.53L270.27 69.7C270.289 69.6689 270.315 69.6432 270.347 69.6254C270.378 69.6075 270.414 69.5981 270.45 69.5981C270.486 69.5981 270.522 69.6075 270.553 69.6254C270.585 69.6432 270.611 69.6689 270.63 69.7L276.33 80.53C276.355 80.5791 276.359 80.636 276.342 80.6884C276.325 80.7407 276.289 80.7844 276.24 80.81L276.13 80.83Z" fill="black"/>
</g>
<path d="M270.448 81.3498C270.394 81.3499 270.342 81.3292 270.303 81.2919C270.264 81.2547 270.241 81.2038 270.238 81.1498V69.7898C270.241 69.7359 270.264 69.685 270.303 69.6478C270.342 69.6105 270.394 69.5898 270.448 69.5898C270.501 69.5898 270.552 69.6109 270.59 69.6484C270.627 69.6859 270.648 69.7368 270.648 69.7898V81.1298C270.651 81.1577 270.648 81.1859 270.639 81.2125C270.63 81.2392 270.616 81.2636 270.597 81.2844C270.578 81.3051 270.555 81.3217 270.53 81.333C270.504 81.3442 270.476 81.35 270.448 81.3498Z" fill="#8568F5"/>
<g opacity="0.7">
<path d="M270.448 81.3498C270.394 81.3499 270.342 81.3292 270.303 81.2919C270.264 81.2547 270.241 81.2038 270.238 81.1498V69.7898C270.241 69.7359 270.264 69.685 270.303 69.6478C270.342 69.6105 270.394 69.5898 270.448 69.5898C270.501 69.5898 270.552 69.6109 270.59 69.6484C270.627 69.6859 270.648 69.7368 270.648 69.7898V81.1298C270.651 81.1577 270.648 81.1859 270.639 81.2125C270.63 81.2392 270.616 81.2636 270.597 81.2844C270.578 81.3051 270.555 81.3217 270.53 81.333C270.504 81.3442 270.476 81.35 270.448 81.3498Z" fill="black"/>
</g>
<path d="M276.941 80.6201H263.961V81.6301H276.941V80.6201Z" fill="#8568F5"/>
<path opacity="0.3" d="M276.941 80.6201H263.961V81.6301H276.941V80.6201Z" fill="black"/>
<path d="M256.332 66.3501V68.4401C254.212 68.4401 251.812 69.6401 249.902 70.7001C248.654 71.38 247.239 71.6921 245.822 71.6001C244.122 71.336 242.507 70.6823 241.102 69.6901V68.5201C242.46 69.489 244.066 70.0509 245.732 70.1401C247.245 70.0612 248.7 69.5241 249.902 68.6001C251.825 67.3284 254.035 66.5551 256.332 66.3501Z" fill="#8568F5"/>
<path opacity="0.3" d="M256.332 66.3501V68.4401C254.212 68.4401 251.812 69.6401 249.902 70.7001C248.654 71.38 247.239 71.6921 245.822 71.6001C244.122 71.336 242.507 70.6823 241.102 69.6901V68.5201C242.46 69.489 244.066 70.0509 245.732 70.1401C247.245 70.0612 248.7 69.5241 249.902 68.6001C251.825 67.3284 254.035 66.5551 256.332 66.3501Z" fill="black"/>
<path d="M242.33 68.9798C242.33 69.2172 242.259 69.4492 242.127 69.6465C241.996 69.8439 241.808 69.9977 241.589 70.0885C241.37 70.1793 241.128 70.2031 240.896 70.1568C240.663 70.1105 240.449 69.9962 240.281 69.8284C240.113 69.6605 239.999 69.4467 239.953 69.2139C239.906 68.9812 239.93 68.7399 240.021 68.5206C240.112 68.3013 240.266 68.1139 240.463 67.9821C240.66 67.8502 240.892 67.7798 241.13 67.7798C241.288 67.7785 241.444 67.8086 241.59 67.8685C241.737 67.9283 241.869 68.0166 241.981 68.1283C242.093 68.24 242.181 68.3728 242.241 68.519C242.301 68.6652 242.331 68.8219 242.33 68.9798Z" fill="#8568F5"/>
<path opacity="0.5" d="M242.33 68.9798C242.33 69.2172 242.259 69.4492 242.127 69.6465C241.996 69.8439 241.808 69.9977 241.589 70.0885C241.37 70.1793 241.128 70.2031 240.896 70.1568C240.663 70.1105 240.449 69.9962 240.281 69.8284C240.113 69.6605 239.999 69.4467 239.953 69.2139C239.906 68.9812 239.93 68.7399 240.021 68.5206C240.112 68.3013 240.266 68.1139 240.463 67.9821C240.66 67.8502 240.892 67.7798 241.13 67.7798C241.288 67.7785 241.444 67.8086 241.59 67.8685C241.737 67.9283 241.869 68.0166 241.981 68.1283C242.093 68.24 242.181 68.3728 242.241 68.519C242.301 68.6652 242.331 68.8219 242.33 68.9798Z" fill="black"/>
<path d="M256.328 66.3501V68.4401C258.448 68.4401 260.848 69.6401 262.768 70.7001C264.015 71.381 265.43 71.6932 266.848 71.6001C268.547 71.3325 270.161 70.6791 271.568 69.6901V68.5201C270.206 69.4878 268.597 70.0495 266.928 70.1401C265.417 70.0611 263.966 69.5239 262.768 68.6001C260.84 67.3306 258.627 66.5576 256.328 66.3501Z" fill="#8568F5"/>
<path opacity="0.3" d="M256.328 66.3501V68.4401C258.448 68.4401 260.848 69.6401 262.768 70.7001C264.015 71.381 265.43 71.6932 266.848 71.6001C268.547 71.3325 270.161 70.6791 271.568 69.6901V68.5201C270.206 69.4878 268.597 70.0495 266.928 70.1401C265.417 70.0611 263.966 69.5239 262.768 68.6001C260.84 67.3306 258.627 66.5576 256.328 66.3501Z" fill="black"/>
<path d="M270.449 68.9798C270.451 69.2147 270.523 69.4438 270.655 69.6382C270.787 69.8325 270.973 69.9835 271.191 70.072C271.408 70.1606 271.647 70.1827 271.877 70.1357C272.108 70.0886 272.319 69.9745 272.484 69.8077C272.65 69.6409 272.762 69.4288 272.807 69.1983C272.852 68.9677 272.828 68.729 272.738 68.5121C272.647 68.2953 272.495 68.11 272.299 67.9797C272.104 67.8493 271.874 67.7798 271.639 67.7798C271.482 67.7798 271.327 67.8109 271.182 67.8713C271.037 67.9317 270.905 68.0203 270.794 68.1319C270.684 68.2434 270.596 68.3758 270.537 68.5213C270.478 68.6669 270.448 68.8227 270.449 68.9798Z" fill="#8568F5"/>
<path opacity="0.5" d="M270.449 68.9798C270.451 69.2147 270.523 69.4438 270.655 69.6382C270.787 69.8325 270.973 69.9835 271.191 70.072C271.408 70.1606 271.647 70.1827 271.877 70.1357C272.108 70.0886 272.319 69.9745 272.484 69.8077C272.65 69.6409 272.762 69.4288 272.807 69.1983C272.852 68.9677 272.828 68.729 272.738 68.5121C272.647 68.2953 272.495 68.11 272.299 67.9797C272.104 67.8493 271.874 67.7798 271.639 67.7798C271.482 67.7798 271.327 67.8109 271.182 67.8713C271.037 67.9317 270.905 68.0203 270.794 68.1319C270.684 68.2434 270.596 68.3758 270.537 68.5213C270.478 68.6669 270.448 68.8227 270.449 68.9798Z" fill="black"/>
<path d="M257.858 62.71H254.828V93.71H257.858V62.71Z" fill="#8568F5"/>
<path opacity="0.7" d="M257.858 62.71H254.828V93.71H257.858V62.71Z" fill="black"/>
<path d="M258.91 67.7702C258.91 68.2785 258.759 68.7754 258.476 69.198C258.194 69.6207 257.793 69.9501 257.323 70.1446C256.853 70.3391 256.337 70.39 255.838 70.2908C255.34 70.1917 254.882 69.9469 254.522 69.5875C254.163 69.2281 253.918 68.7701 253.819 68.2716C253.72 67.7731 253.771 67.2563 253.965 66.7867C254.16 66.3171 254.489 65.9157 254.912 65.6333C255.334 65.3509 255.831 65.2002 256.34 65.2002C256.677 65.1989 257.012 65.2645 257.325 65.3932C257.637 65.5218 257.921 65.7111 258.16 65.95C258.399 66.1889 258.588 66.4728 258.717 66.7852C258.845 67.0976 258.911 67.4323 258.91 67.7702Z" fill="#8568F5"/>
<path opacity="0.5" d="M258.91 67.7702C258.91 68.2785 258.759 68.7754 258.476 69.198C258.194 69.6207 257.793 69.9501 257.323 70.1446C256.853 70.3391 256.337 70.39 255.838 70.2908C255.34 70.1917 254.882 69.9469 254.522 69.5875C254.163 69.2281 253.918 68.7701 253.819 68.2716C253.72 67.7731 253.771 67.2563 253.965 66.7867C254.16 66.3171 254.489 65.9157 254.912 65.6333C255.334 65.3509 255.831 65.2002 256.34 65.2002C256.677 65.1989 257.012 65.2645 257.325 65.3932C257.637 65.5218 257.921 65.7111 258.16 65.95C258.399 66.1889 258.588 66.4728 258.717 66.7852C258.845 67.0976 258.911 67.4323 258.91 67.7702Z" fill="black"/>
<path d="M258.328 60.8999C258.328 61.2955 258.211 61.6821 257.991 62.011C257.771 62.3399 257.459 62.5963 257.093 62.7477C256.728 62.899 256.326 62.9386 255.938 62.8615C255.55 62.7843 255.194 62.5938 254.914 62.3141C254.634 62.0344 254.444 61.678 254.367 61.2901C254.289 60.9021 254.329 60.5 254.48 60.1345C254.632 59.7691 254.888 59.4567 255.217 59.237C255.546 59.0172 255.933 58.8999 256.328 58.8999C256.859 58.8999 257.367 59.1106 257.742 59.4857C258.117 59.8608 258.328 60.3695 258.328 60.8999Z" fill="#8568F5"/>
<path opacity="0.5" d="M258.328 60.8999C258.328 61.2955 258.211 61.6821 257.991 62.011C257.771 62.3399 257.459 62.5963 257.093 62.7477C256.728 62.899 256.326 62.9386 255.938 62.8615C255.55 62.7843 255.194 62.5938 254.914 62.3141C254.634 62.0344 254.444 61.678 254.367 61.2901C254.289 60.9021 254.329 60.5 254.48 60.1345C254.632 59.7691 254.888 59.4567 255.217 59.237C255.546 59.0172 255.933 58.8999 256.328 58.8999C256.859 58.8999 257.367 59.1106 257.742 59.4857C258.117 59.8608 258.328 60.3695 258.328 60.8999Z" fill="black"/>
<path d="M264.651 98.3502H248.031V94.7202C248.031 94.455 248.137 94.2006 248.324 94.0131C248.512 93.8256 248.766 93.7202 249.031 93.7202H263.651C263.916 93.7202 264.171 93.8256 264.358 94.0131C264.546 94.2006 264.651 94.455 264.651 94.7202V98.3502Z" fill="#8568F5"/>
<path opacity="0.3" d="M264.651 98.3502H248.031V94.7202C248.031 94.455 248.137 94.2006 248.324 94.0131C248.512 93.8256 248.766 93.7202 249.031 93.7202H263.651C263.916 93.7202 264.171 93.8256 264.358 94.0131C264.546 94.2006 264.651 94.455 264.651 94.7202V98.3502Z" fill="black"/>
<path d="M269.7 101.78H242.99C242.533 101.78 242.096 101.599 241.773 101.276C241.451 100.953 241.27 100.516 241.27 100.06C241.27 99.6037 241.451 99.1662 241.773 98.8436C242.096 98.5211 242.533 98.3398 242.99 98.3398H269.7C270.156 98.3398 270.593 98.5211 270.916 98.8436C271.238 99.1662 271.42 99.6037 271.42 100.06C271.42 100.516 271.238 100.953 270.916 101.276C270.593 101.599 270.156 101.78 269.7 101.78Z" fill="#8568F5"/>
<path opacity="0.5" d="M269.7 101.78H242.99C242.533 101.78 242.096 101.599 241.773 101.276C241.451 100.953 241.27 100.516 241.27 100.06C241.27 99.6037 241.451 99.1662 241.773 98.8436C242.096 98.5211 242.533 98.3398 242.99 98.3398H269.7C270.156 98.3398 270.593 98.5211 270.916 98.8436C271.238 99.1662 271.42 99.6037 271.42 100.06C271.42 100.516 271.238 100.953 270.916 101.276C270.593 101.599 270.156 101.78 269.7 101.78Z" fill="black"/>
<path d="M264.651 94.8999H248.031V96.0299H264.651V94.8999Z" fill="#8568F5"/>
<path opacity="0.5" d="M264.651 94.8999H248.031V96.0299H264.651V94.8999Z" fill="black"/>
<path d="M258.619 62.8598C258.619 63.0808 258.531 63.293 258.376 63.4502C258.221 63.6075 258.01 63.6972 257.789 63.6998H254.899C254.677 63.6972 254.464 63.6079 254.307 63.4509C254.151 63.2939 254.061 63.0818 254.059 62.8598C254.061 62.6387 254.151 62.4276 254.308 62.2723C254.465 62.1169 254.678 62.0298 254.899 62.0298H257.789C258.009 62.0298 258.22 62.1172 258.376 62.2729C258.531 62.4285 258.619 62.6397 258.619 62.8598Z" fill="#8568F5"/>
<path opacity="0.3" d="M258.619 62.8598C258.619 63.0808 258.531 63.293 258.376 63.4502C258.221 63.6075 258.01 63.6972 257.789 63.6998H254.899C254.677 63.6972 254.464 63.6079 254.307 63.4509C254.151 63.2939 254.061 63.0818 254.059 62.8598C254.061 62.6387 254.151 62.4276 254.308 62.2723C254.465 62.1169 254.678 62.0298 254.899 62.0298H257.789C258.009 62.0298 258.22 62.1172 258.376 62.2729C258.531 62.4285 258.619 62.6397 258.619 62.8598Z" fill="black"/>
<path d="M439.772 88.6499H381.862C379.045 88.6499 376.762 90.9332 376.762 93.7499V134.36C376.762 137.177 379.045 139.46 381.862 139.46H439.772C442.588 139.46 444.872 137.177 444.872 134.36V93.7499C444.872 90.9332 442.588 88.6499 439.772 88.6499Z" fill="#8468F5" fill-opacity="0.8"/>
<path d="M439.772 88.6499H381.862C379.045 88.6499 376.762 90.9332 376.762 93.7499V134.36C376.762 137.177 379.045 139.46 381.862 139.46H439.772C442.588 139.46 444.872 137.177 444.872 134.36V93.7499C444.872 90.9332 442.588 88.6499 439.772 88.6499Z" fill="url(#paint2_radial_543_22386)" fill-opacity="0.7"/>
<path d="M439.772 88.6499H381.862C379.045 88.6499 376.762 90.9332 376.762 93.7499V134.36C376.762 137.177 379.045 139.46 381.862 139.46H439.772C442.588 139.46 444.872 137.177 444.872 134.36V93.7499C444.872 90.9332 442.588 88.6499 439.772 88.6499Z" fill="url(#paint3_linear_543_22386)"/>
<path fill-rule="evenodd" clip-rule="evenodd" d="M388.21 135.4C388.21 135.4 389.86 152.92 369 161.13C369 161.13 396.79 158.87 398.1 135L388.21 135.4Z" fill="#FAAA19"/>
<path opacity="0.39" d="M440.871 134.37V93.7597C440.871 93.1522 440.379 92.6597 439.771 92.6597H381.861C381.254 92.6597 380.761 93.1522 380.761 93.7597V134.37C380.761 134.977 381.254 135.47 381.861 135.47H439.771C440.379 135.47 440.871 134.977 440.871 134.37Z" fill="white"/>
<path d="M422.402 97C422.73 97 423.054 97.0647 423.357 97.1905C423.66 97.3162 423.935 97.5006 424.166 97.7328C424.398 97.9651 424.581 98.2408 424.705 98.544C424.83 98.8473 424.893 99.1722 424.892 99.5V100.7H418.082L422.402 97Z" fill="#8568F5"/>
<path opacity="0.7" d="M422.402 97C422.73 97 423.054 97.0647 423.357 97.1905C423.66 97.3162 423.935 97.5006 424.166 97.7328C424.398 97.9651 424.581 98.2408 424.705 98.544C424.83 98.8473 424.893 99.1722 424.892 99.5V100.7H418.082L422.402 97Z" fill="black"/>
<path d="M423.49 130C428.4 120.26 418.57 105.93 422.4 97H401.53C400.574 97.0016 399.653 97.3621 398.949 98.0102C398.245 98.6583 397.811 99.5468 397.73 100.5C396.92 109.57 404.35 122.05 399.31 130.62H422.38C422.604 130.628 422.826 130.574 423.022 130.465C423.217 130.355 423.379 130.195 423.49 130Z" fill="#8568F5"/>
<path opacity="0.3" d="M423.49 130C428.4 120.26 418.57 105.93 422.4 97H401.53C400.574 97.0016 399.653 97.3621 398.949 98.0102C398.245 98.6583 397.811 99.5468 397.73 100.5C396.92 109.57 404.35 122.05 399.31 130.62H422.38C422.604 130.628 422.826 130.574 423.022 130.465C423.217 130.355 423.379 130.195 423.49 130Z" fill="black"/>
<path d="M399.311 130.63C398.73 130.63 398.173 130.399 397.763 129.989C397.352 129.578 397.121 129.021 397.121 128.44V127.62H420.311V128.44C420.311 129.021 420.542 129.578 420.953 129.989C421.363 130.399 421.92 130.63 422.501 130.63H399.311Z" fill="#8568F5"/>
<path opacity="0.5" d="M399.311 130.63C398.73 130.63 398.173 130.399 397.763 129.989C397.352 129.578 397.121 129.021 397.121 128.44V127.62H420.311V128.44C420.311 129.021 420.542 129.578 420.953 129.989C421.363 130.399 421.92 130.63 422.501 130.63H399.311Z" fill="black"/>
<path opacity="0.3" d="M417.371 101.65H400.941V103.02H417.371V101.65Z" fill="black"/>
<path opacity="0.3" d="M418.141 106.49H401.711V107.86H418.141V106.49Z" fill="black"/>
<path opacity="0.3" d="M419.032 110.15H402.602V111.52H419.032V110.15Z" fill="black"/>
<path opacity="0.3" d="M419.91 113.82H403.48V115.19H419.91V113.82Z" fill="black"/>
<path opacity="0.3" d="M418.081 124.75C419.478 124.75 420.611 123.617 420.611 122.22C420.611 120.823 419.478 119.69 418.081 119.69C416.683 119.69 415.551 120.823 415.551 122.22C415.551 123.617 416.683 124.75 418.081 124.75Z" fill="black"/>
</g>
<defs>
<filter id="filter0_d_543_22386" x="-67" y="-45" width="620" height="570" filterUnits="userSpaceOnUse" color-interpolation-filters="sRGB">
<feFlood flood-opacity="0" result="BackgroundImageFix"/>
<feColorMatrix in="SourceAlpha" type="matrix" values="0 0 0 0 0 0 0 0 0 0 0 0 0 0 0 0 0 0 127 0" result="hardAlpha"/>
<feOffset dy="4"/>
<feGaussianBlur stdDeviation="30"/>
<feComposite in2="hardAlpha" operator="out"/>
<feColorMatrix type="matrix" values="0 0 0 0 0 0 0 0 0 0 0 0 0 0 0 0 0 0 0.4 0"/>
<feBlend mode="normal" in2="BackgroundImageFix" result="effect1_dropShadow_543_22386"/>
<feBlend mode="normal" in="SourceGraphic" in2="effect1_dropShadow_543_22386" result="shape"/>
</filter>
<radialGradient id="paint0_radial_543_22386" cx="0" cy="0" r="1" gradientUnits="userSpaceOnUse" gradientTransform="translate(237.86 63.2854) rotate(42.6966) scale(56.7665 57.8662)">
<stop stop-color="white" stop-opacity="0.59"/>
<stop offset="0.697917" stop-color="white" stop-opacity="0"/>
<stop offset="1" stop-color="white" stop-opacity="0"/>
</radialGradient>
<linearGradient id="paint1_linear_543_22386" x1="289.553" y1="152.969" x2="250.841" y2="65.5322" gradientUnits="userSpaceOnUse">
<stop offset="0.52" stop-color="#FAAA19"/>
<stop offset="1" stop-color="#FF450D" stop-opacity="0.8"/>
</linearGradient>
<radialGradient id="paint2_radial_543_22386" cx="0" cy="0" r="1" gradientUnits="userSpaceOnUse" gradientTransform="translate(394.735 99.2353) rotate(42.6972) scale(48.9109 49.8585)">
<stop stop-color="white" stop-opacity="0.59"/>
<stop offset="0.697917" stop-color="white" stop-opacity="0"/>
<stop offset="1" stop-color="white" stop-opacity="0"/>
</radialGradient>
<linearGradient id="paint3_linear_543_22386" x1="439.274" y1="176.509" x2="405.918" y2="101.172" gradientUnits="userSpaceOnUse">
<stop offset="0.52" stop-color="#FAAA19"/>
<stop offset="1" stop-color="#FF450D" stop-opacity="0.8"/>
</linearGradient>
<clipPath id="clip0_543_22386">
<rect width="500" height="500" fill="white"/>
</clipPath>
</defs>
</svg>
