<svg width="450" height="459" viewBox="0 0 450 459" fill="none" xmlns="http://www.w3.org/2000/svg">
<path opacity="0.3" d="M395.5 393.204C386.434 403.044 377.857 409.39 371.079 414.403C291.414 473.336 197.149 456.158 177.115 451.962C147.531 445.767 90.3465 433.793 49.0029 383.666C-13.5467 307.828 -3.8069 188.347 44.7109 109.477C53.5856 95.0497 100.464 14.9777 195.744 2.13659C253.407 -5.63466 320.623 10.0391 369.299 52.0843C471.474 140.342 464.2 318.636 395.5 393.204Z" fill="url(#paint0_linear_418_5674)"/>
<path d="M122.615 300.355C122.615 300.355 123.983 241.013 97.4732 225.13C70.963 209.248 20.5575 199.318 18.6681 114.108C17.5619 64.2229 16.3647 42.4121 15.5622 32.9016C15.2492 29.1917 18.4468 26.1972 21.9962 26.8865C47.1037 31.763 128.667 51.8349 145.767 109.232C166.04 177.277 122.615 300.355 122.615 300.355Z" fill="url(#paint1_linear_418_5674)"/>
<path d="M41.4122 50.5946C68.9727 75.9369 100.841 120.787 117.828 165.638C120.008 173.03 126.386 188.749 129.156 216.678C131.629 239.971 130.399 264.584 127.4 280.877C127.21 281.907 126.247 282.584 125.248 282.388C123.53 282.052 123.758 280.147 123.774 280.208C127.199 252.37 125.777 217.722 117.928 186.46C107.899 148.073 85.5321 110.856 62.397 79.2903L60.0162 76.182C42.092 52.4493 38.3186 52.2745 39.9944 50.6201C40.39 50.2296 41.0096 50.2261 41.4122 50.5946Z" fill="#222669"/>
<path d="M165.219 414.448C168.806 416.262 131.264 367.588 119.503 291.142C113.962 255.119 113.889 209.985 93.986 192.592C77.4212 178.116 21.0532 187.255 2.60954 190.728C0.304821 191.162 -0.470941 194.164 1.32307 195.717C10.1677 203.375 29.0884 221.439 34.0182 239.645C40.5162 263.641 62.6436 278.904 82.4532 283.034C102.263 287.165 113.282 291.174 122.933 323.836C132.584 356.498 155.028 409.296 165.219 414.448Z" fill="url(#paint2_linear_418_5674)"/>
<path d="M28.549 200.867C52.0802 201.883 77.3392 212.95 90.157 233.709L91.3669 235.69C94.1612 240.335 109.997 273.354 118.793 300.726C118.902 301.067 118.723 301.435 118.392 301.548C117.83 301.74 117.548 301.102 117.602 301.159C111.474 285.696 102.673 266.092 95.6631 251.431C88.1459 235.434 82.8853 224.6 65.7388 214.223C46.6543 203.047 28.4219 201.896 28.4765 201.908C28.1983 201.879 27.9957 201.622 28.0241 201.335C28.0515 201.06 28.2839 200.856 28.549 200.867Z" fill="#193E70"/>
<path d="M149.124 420.851C151.253 422.008 137.135 396.955 136.052 374.883C134.968 352.811 130.139 315.139 111.677 292.604C93.2158 270.069 72.9987 268.013 47.5243 288.5C26.2955 305.572 13.0536 314.187 5.28771 315.789C3.36467 316.185 2.38345 318.424 3.31923 320.201C8.30018 329.658 22.3824 351.381 46.0274 349.851C76.188 347.901 112.74 327.686 123.881 344.549C135.022 361.412 133.591 370.848 133.934 378.84C134.276 386.831 135.038 413.194 149.124 420.851Z" fill="url(#paint3_linear_418_5674)"/>
<path d="M56.0843 315.558C65.324 306.425 80.3721 297.451 93.5235 299.124C110.634 301.966 122.033 313.747 128.25 331.284C130.681 338.73 131.681 342.705 133.118 351.832C133.233 352.561 132.19 352.779 132.016 352.067C130.971 347.78 129.935 343.291 128.386 338.648C119.367 308.694 100.114 304.659 99.3654 304.046C97.9098 304.194 89.0861 297.384 68.1488 308.999C64.239 311.194 60.4333 313.698 56.8603 316.461L56.8404 316.476C56.5819 316.676 56.2151 316.622 56.0213 316.355C55.8419 316.109 55.8735 315.766 56.0843 315.558Z" fill="#222669"/>
<path d="M131.5 33.151C121.524 34.0453 113.876 42.6587 113.848 52.9822C113.674 116.114 113.388 333.874 117.379 410.949C117.802 419.114 124.295 425.529 132.225 425.617C171.451 426.052 284.28 426.852 348.334 422.628C361.676 421.748 372.057 410.356 372.041 396.573C371.964 330.313 370.937 143.969 362.133 58.7928C361.079 48.5873 353.122 40.6216 343.197 39.8242C300.416 36.3876 186.811 28.1915 131.5 33.151Z" fill="url(#paint4_linear_418_5674)"/>
<path d="M129.593 69.527C128.823 123.531 126.63 303.18 130.458 369.485C131.018 379.177 138.32 386.828 147.336 387.152C184.457 388.485 279.647 391.066 333.889 384.913C343.656 383.805 351.121 375.077 351.381 364.508C352.738 309.397 356.403 142.075 352.681 76.5109C352.088 66.0517 344.337 57.7059 334.622 57.0309C294.429 54.2386 191.217 47.7991 145.092 51.7594C136.434 52.5029 129.727 60.1776 129.593 69.527Z" fill="url(#paint5_linear_418_5674)"/>
<path d="M219.282 42.5405C219.313 44.0325 220.468 45.2375 221.914 45.2829C229.057 45.5066 249.178 46.1416 258.172 46.4757C259.945 46.5416 261.3 44.8689 260.926 43.0805C260.895 43.0241 260.665 40.7312 258.393 40.5685C252.31 40.1324 233.956 38.9566 221.827 39.6779C219.336 39.8262 219.201 42.7466 219.282 42.5405Z" fill="#1F5AA9"/>
<path d="M315.73 290.86H163.824C156.831 290.86 151.162 285.015 151.162 277.806V85.6409C151.162 78.3639 156.933 72.492 163.99 72.5876L315.896 74.6475C322.824 74.7413 328.391 80.558 328.391 87.7008V277.805C328.391 285.015 322.722 290.86 315.73 290.86Z" fill="url(#paint6_linear_418_5674)"/>
<path opacity="0.58" d="M337.806 308.307H141.473C139.471 308.307 137.848 306.156 137.848 303.503C137.848 300.85 139.471 298.699 141.303 298.699H337.635C339.808 298.699 341.431 300.85 341.431 303.503C341.431 306.156 339.808 308.307 337.806 308.307Z" fill="white"/>
<path d="M248.698 308.195H142.337C139.857 308.195 137.848 305.915 137.848 303.102C137.848 300.29 139.857 298.01 142.337 298.01H248.698C251.177 298.01 253.187 300.29 253.187 303.102C253.187 305.915 251.177 308.195 248.698 308.195Z" fill="url(#paint7_linear_418_5674)"/>
<path d="M253.188 312.187C258.269 312.187 262.389 307.941 262.389 302.702C262.389 297.463 258.269 293.217 253.188 293.217C248.107 293.217 243.988 297.463 243.988 302.702C243.988 307.941 248.107 312.187 253.188 312.187Z" fill="url(#paint8_linear_418_5674)"/>
<path d="M227.049 323.696V359.64C227.049 361.948 228.855 363.319 230.414 362.201L257.998 342.417C259.705 341.192 259.705 337.883 257.998 336.882L230.414 320.696C228.855 319.781 227.049 321.389 227.049 323.696Z" fill="white"/>
<path d="M292.982 326.961V346.408C292.982 347.656 293.943 348.402 294.772 347.8L309.496 337.113C310.41 336.449 310.41 334.652 309.496 334.107L294.772 325.335C293.943 324.841 292.982 325.712 292.982 326.961Z" fill="white"/>
<path d="M302.426 326.687V346.084C302.426 347.33 303.381 348.074 304.206 347.473L318.855 336.815C319.765 336.153 319.765 334.36 318.855 333.816L304.206 325.066C303.381 324.573 302.426 325.442 302.426 326.687Z" fill="white"/>
<path d="M192.123 329.883V349.86C192.123 351.143 191.109 351.978 190.233 351.42L174.538 341.413C173.555 340.786 173.555 338.922 174.538 338.297L190.233 328.32C191.109 327.763 192.123 328.601 192.123 329.883Z" fill="white"/>
<path d="M182.106 330.174V350.203C182.106 351.489 181.087 352.327 180.206 351.767L164.429 341.735C163.44 341.107 163.44 339.238 164.429 338.611L180.206 328.607C181.087 328.048 182.106 328.888 182.106 330.174Z" fill="white"/>
<path d="M426.656 398.695L265.988 398.695V366.757L426.656 366.757C423.217 366.757 423.217 398.695 426.656 398.695Z" fill="url(#paint9_linear_418_5674)"/>
<path d="M265.99 390.703V376.086C265.99 370.934 269.165 366.757 273.082 366.757H425.98C429.06 366.757 431.556 364.277 431.556 361.218C431.556 360.289 430.798 359.535 429.862 359.535H262.756C258.924 359.535 252.84 365.519 252.84 372.901V393.314C252.84 400.274 258.747 405.916 262.36 405.916H428.983C430.404 405.916 431.556 404.772 431.556 403.36C431.556 400.783 429.453 398.694 426.859 398.694H272.065C268.71 398.695 265.99 395.116 265.99 390.703Z" fill="url(#paint10_linear_418_5674)"/>
<path opacity="0.46" d="M421.094 373.867H270.446C270.148 373.867 269.906 373.617 269.906 373.31C269.906 373.002 270.148 372.753 270.446 372.753H421.094C421.392 372.753 421.633 373.002 421.633 373.31C421.633 373.617 421.392 373.867 421.094 373.867Z" fill="white"/>
<path opacity="0.46" d="M421.094 378.607H270.446C270.148 378.607 269.906 378.358 269.906 378.05C269.906 377.743 270.148 377.494 270.446 377.494H421.094C421.392 377.494 421.633 377.743 421.633 378.05C421.633 378.358 421.392 378.607 421.094 378.607Z" fill="white"/>
<path opacity="0.46" d="M421.094 383.348H270.446C270.148 383.348 269.906 383.099 269.906 382.791C269.906 382.484 270.148 382.235 270.446 382.235H421.094C421.392 382.235 421.633 382.484 421.633 382.791C421.633 383.099 421.392 383.348 421.094 383.348Z" fill="white"/>
<path opacity="0.46" d="M421.094 388.088H270.446C270.148 388.088 269.906 387.839 269.906 387.532C269.906 387.224 270.148 386.975 270.446 386.975H421.094C421.392 386.975 421.633 387.224 421.633 387.532C421.633 387.839 421.392 388.088 421.094 388.088Z" fill="white"/>
<path opacity="0.46" d="M421.094 392.829H270.446C270.148 392.829 269.906 392.58 269.906 392.272C269.906 391.965 270.148 391.716 270.446 391.716H421.094C421.392 391.716 421.633 391.965 421.633 392.272C421.633 392.58 421.392 392.829 421.094 392.829Z" fill="white"/>
<path d="M234.746 458.941H444.215C445.585 458.941 446.696 457.796 446.696 456.383V408.133C446.696 406.721 445.585 405.576 444.215 405.576H234.746C233.376 405.576 232.266 406.721 232.266 408.133V456.383C232.266 457.796 233.376 458.941 234.746 458.941Z" fill="url(#paint11_linear_418_5674)"/>
<path d="M398.42 452.808H421.31C421.945 452.808 422.46 452.276 422.46 451.621V412.895C422.46 412.24 421.945 411.709 421.31 411.709H398.42C397.785 411.709 397.27 412.24 397.27 412.895V451.621C397.27 452.276 397.785 452.808 398.42 452.808Z" fill="url(#paint12_linear_418_5674)"/>
<path d="M385.049 452.808H392.629C393.146 452.808 393.565 452.376 393.565 451.843V412.674C393.565 412.141 393.146 411.709 392.629 411.709H385.049C384.532 411.709 384.113 412.141 384.113 412.674V451.843C384.113 452.376 384.532 452.808 385.049 452.808Z" fill="url(#paint13_linear_418_5674)"/>
<path d="M274.012 20.5795C275.639 18.6647 277.881 17.6164 280.158 17.6703L438.268 21.4164C442.886 21.526 446.866 26.051 446.866 31.5953V56.2655C446.866 61.8584 442.844 66.404 438.186 66.4461L303.274 67.6702C297.674 72.2601 284.98 83.5892 279.775 88.279C279.443 88.5781 278.956 88.5888 278.615 88.3062C278.273 88.0236 278.104 87.5101 278.219 87.0316L282.829 67.8547L280.101 67.8796C277.84 67.9001 275.581 66.8365 273.977 64.9251C272.373 63.0137 271.385 60.4122 271.385 57.6986V27.8493C271.385 25.1142 272.385 22.4942 274.012 20.5795Z" fill="url(#paint14_linear_418_5674)"/>
<path opacity="0.83" d="M439.488 35.0021C439.488 34.5409 439.199 34.1671 438.844 34.1671H336.282C335.927 34.1671 335.639 34.5409 335.639 35.0021C335.639 35.4633 335.927 35.8371 336.282 35.8371H438.844C439.2 35.8371 439.488 35.4633 439.488 35.0021Z" fill="white"/>
<path opacity="0.83" d="M414.471 52.2594C414.471 51.7982 414.108 51.4244 413.661 51.4244H284.615C284.167 51.4244 283.805 51.7982 283.805 52.2594C283.805 52.7206 284.167 53.0945 284.615 53.0945H413.661C414.108 53.0945 414.471 52.7206 414.471 52.2594Z" fill="white"/>
<path opacity="0.83" d="M325.92 35.0022C325.92 34.541 325.557 34.1671 325.11 34.1671H283.535C283.087 34.1671 282.725 34.541 282.725 35.0022C282.725 35.4633 283.087 35.8372 283.535 35.8372H325.11C325.557 35.8372 325.92 35.4633 325.92 35.0022Z" fill="white"/>
<path opacity="0.83" d="M359.936 44.4658C359.936 44.0046 359.573 43.6307 359.126 43.6307H317.55C317.103 43.6307 316.74 44.0046 316.74 44.4658C316.74 44.927 317.103 45.3008 317.55 45.3008H359.126C359.573 45.3008 359.936 44.927 359.936 44.4658Z" fill="white"/>
<path opacity="0.83" d="M439.056 44.4658C439.056 44.0046 438.768 43.6307 438.412 43.6307H362.886C362.53 43.6307 362.242 44.0046 362.242 44.4658C362.242 44.927 362.53 45.3008 362.886 45.3008H438.412C438.768 45.3008 439.056 44.927 439.056 44.4658Z" fill="white"/>
<path opacity="0.83" d="M309.721 44.4658C309.721 44.0046 309.358 43.6307 308.911 43.6307H282.994C282.546 43.6307 282.184 44.0046 282.184 44.4658C282.184 44.927 282.546 45.3008 282.994 45.3008H308.911C309.358 45.3008 309.721 44.927 309.721 44.4658Z" fill="white"/>
<mask id="mask0_418_5674" style="mask-type:luminance" maskUnits="userSpaceOnUse" x="151" y="53" width="258" height="238">
<path d="M390.255 290.86H169.556C159.396 290.86 151.16 284.501 151.16 276.656V67.5716C151.16 59.6539 159.544 53.2648 169.798 53.3689L390.497 55.6101C400.562 55.7123 408.651 62.041 408.651 69.8128V276.656C408.651 284.501 400.415 290.86 390.255 290.86Z" fill="white"/>
</mask>
<g mask="url(#mask0_418_5674)">
<path d="M247.515 283.943C246.968 286.818 244.578 427.374 259.151 490.362C259.388 491.39 258.883 492.449 257.934 492.849C255.699 493.79 251.317 495.154 246.066 495.336C244.44 495.392 242.982 494.302 242.523 492.693C238.357 478.079 218.397 404.857 215.793 334.911C212.884 256.753 215.793 332.25 215.793 332.25L217.5 283.937L247.515 283.943Z" fill="url(#paint15_linear_418_5674)"/>
<path d="M189.838 288.256C177.92 362.415 192.424 471.546 197.315 492.905C197.614 494.213 198.638 495.215 199.924 495.435C202.107 495.808 205.702 496.112 209.246 495.051C210.467 494.685 211.325 493.55 211.374 492.24C212.031 474.971 210.849 368.959 221.955 327.063C222.517 324.94 223.775 323.088 225.515 321.813L247.069 306.014L248.722 280.477L189.838 288.256Z" fill="url(#paint16_linear_418_5674)"/>
<path d="M265.78 147.74C230.062 147.131 190.653 157.409 190.653 157.409C180.006 221.458 188.791 295.333 188.791 295.333C216.442 302.809 247.635 290.762 247.635 290.762C252.231 263.991 273.673 188.649 273.673 188.649C291.125 186.416 305.501 181.226 317.34 174.362C308.309 163.57 304.052 149.838 302.203 141.72C289.575 145.766 276.796 147.928 265.78 147.74Z" fill="url(#paint17_linear_418_5674)"/>
<path d="M371.282 93.4991C367.773 89.1299 363.333 91.1968 363.333 91.1968C358.077 114.088 330.517 132.648 302.203 141.72C304.052 149.838 308.309 163.57 317.34 174.362C364.329 147.123 371.282 93.4991 371.282 93.4991Z" fill="url(#paint18_linear_418_5674)"/>
<path d="M370.432 94.6102C370.799 95.8133 366.547 97.6458 364.044 92.7243C363.956 90.3657 362.565 80.2607 363.932 78.3393C371.213 68.1053 385.329 55.2767 385.329 55.2767C387.715 57.7036 385.749 60.0879 385.749 60.0879L378.901 67.4425C380.334 70.1111 382.081 72.3634 382.899 75.5915C383.52 78.0359 383.14 80.6483 381.943 82.8729C380.741 85.1056 379.101 88.008 377.551 90.2792C374.616 94.5779 370.432 94.6102 370.432 94.6102Z" fill="url(#paint19_linear_418_5674)"/>
<path d="M375.906 72.2145L369.666 77.6685L367.707 83.0988L373.271 89.4623C373.271 89.4623 375.141 78.688 376.532 76.3559C377.922 74.024 377.201 72.8965 375.906 72.2145Z" fill="url(#paint20_linear_418_5674)"/>
<path d="M204.353 193.066L190.653 157.409C190.653 157.409 157.291 180.78 151.805 210.412C158.109 210.89 169.579 212.581 180.807 218.426C183.274 204.434 204.353 193.066 204.353 193.066Z" fill="url(#paint21_linear_418_5674)"/>
<path d="M233.508 226.618C233.508 226.618 196.051 248.444 183.413 229.807C180.788 225.938 180.161 222.092 180.808 218.426C169.58 212.581 158.109 210.89 151.805 210.411C150.151 219.344 151.026 228.845 156.117 238.447C178.255 280.201 238.465 236.14 238.465 236.14L233.508 226.618Z" fill="url(#paint22_linear_418_5674)"/>
<path d="M229.006 254.23L249.448 180.626C249.681 179.79 250.372 179.181 251.209 179.08C254.913 178.635 265.645 177.384 278.037 176.303C292.963 175.002 310.296 173.947 320.654 174.844C322.127 174.972 323.017 176.578 322.362 177.943C316.472 190.229 292.243 240.206 280.111 256.578C279.709 257.12 279.087 257.438 278.425 257.431L230.995 256.976C229.614 256.963 228.626 255.598 229.006 254.23Z" fill="url(#paint23_linear_418_5674)"/>
<path d="M280.155 169.922L294.976 167.376C295.766 167.24 296.412 168.018 296.162 168.802L294.694 173.385C294.567 173.784 294.229 174.073 293.825 174.129L279.563 176.093C278.825 176.195 278.216 175.503 278.386 174.756L279.294 170.754C279.392 170.323 279.732 169.995 280.155 169.922Z" fill="url(#paint24_linear_418_5674)"/>
<path d="M269.058 182.859L270.279 176.302C270.402 175.644 270.928 175.147 271.575 175.079L301.51 171.947C302.518 171.842 303.324 172.794 303.088 173.809L301.185 181.98C301.032 182.634 300.48 183.106 299.829 183.14L270.576 184.658C269.624 184.707 268.878 183.824 269.058 182.859Z" fill="url(#paint25_linear_418_5674)"/>
<path d="M233.945 236.447C233.945 236.447 231.097 224.375 232.246 220.091C233.394 215.808 235.62 210.301 243.038 211.525C250.457 212.749 259.208 215.971 259.208 215.971C259.208 215.971 258.766 221.55 253.127 219.75L256.624 222.539C256.624 222.539 256.124 227.006 251.361 224.619L254.613 228.318C254.613 228.318 252.568 231.987 249.064 229.634C245.561 227.281 243.881 237.901 233.945 236.447Z" fill="url(#paint26_linear_418_5674)"/>
<path d="M229.603 117.844L218.238 151.729C218.05 152.29 218.274 152.912 218.778 153.199C221.876 154.965 233.037 160.07 246.487 151.277C247.888 150.362 248.842 148.868 249.055 147.171L252.735 117.844H229.603Z" fill="url(#paint27_linear_418_5674)"/>
<path d="M254.331 86.4658C254.331 86.4658 266.811 110.685 265.211 120.469C263.611 130.253 248.145 129.55 234.639 121.605L225.201 95.4525L254.331 86.4658Z" fill="url(#paint28_linear_418_5674)"/>
<path d="M235.235 108.761C235.784 108.51 235.987 107.818 235.658 107.3C234.658 105.725 232.784 102.512 232.186 99.6997C232.186 99.6997 229.943 98.2183 237.896 96.2556C245.849 94.2928 257.71 91.2462 260.203 84.2666C262.634 77.4614 256.247 60.3476 246.059 73.9837C245.671 74.5025 244.911 74.514 244.525 73.9948C242.854 71.7535 238.463 67.1013 232.366 69.9217C226.661 72.5608 226.018 76.8712 226.097 79.0437C226.12 79.683 225.566 80.1797 224.956 80.0599C222.071 79.4928 215.15 79.0055 211.918 86.3269C209.257 92.3571 210.987 95.7707 212.562 97.4403C213.073 97.9811 212.849 98.8717 212.149 99.0927C210.253 99.691 207.805 101.348 208.05 105.928C208.389 112.258 215.254 111.701 217.209 111.412C217.529 111.364 217.852 111.478 218.069 111.725C219.745 113.637 227.296 121.757 235.468 122.735C236.175 122.82 236.724 122.099 236.492 121.405L232.955 110.805C232.791 110.313 233.02 109.773 233.481 109.562L235.235 108.761Z" fill="url(#paint29_linear_418_5674)"/>
<path d="M236.657 110.266C236.657 110.266 227.772 103.98 227.122 109.273C226.473 114.566 235.124 116.94 239.409 114.967L236.657 110.266Z" fill="url(#paint30_linear_418_5674)"/>
</g>
<path d="M398.431 339.755C398.355 339.96 398.171 340.113 397.949 340.13C397.217 340.185 396.471 340.225 395.732 340.25C395.429 340.26 395.179 340.01 395.174 339.692C395.158 338.921 395.904 339.13 397.887 338.98C398.19 338.957 398.449 339.196 398.467 339.514C398.471 339.598 398.458 339.68 398.431 339.755Z" fill="#EAC4F9"/>
<path d="M388.825 340.011C387.421 339.868 386.005 339.665 384.616 339.406C384.319 339.351 384.124 339.052 384.181 338.739C384.343 337.885 384.808 338.443 388.948 338.864C389.25 338.895 389.466 339.177 389.433 339.493C389.398 339.814 389.123 340.042 388.825 340.011ZM377.923 337.699C376.571 337.258 375.212 336.753 373.93 336.215C373.24 335.927 373.69 334.867 374.35 335.144C375.629 335.679 376.941 336.166 378.263 336.598C378.552 336.692 378.709 337.015 378.615 337.319C378.52 337.626 378.208 337.792 377.923 337.699ZM367.723 333.122C366.497 332.405 365.284 331.629 364.115 330.812C363.513 330.391 364.135 329.431 364.734 329.85C365.879 330.65 367.068 331.411 368.269 332.113C368.901 332.482 368.353 333.49 367.723 333.122ZM359.436 326.377C359.234 326.618 358.887 326.646 358.66 326.438C357.604 325.471 356.571 324.446 355.59 323.393C355.085 322.851 355.877 322.04 356.381 322.581C357.342 323.613 358.355 324.617 359.39 325.565C359.617 325.772 359.637 326.137 359.436 326.377ZM351.889 318.036C351.645 318.23 351.301 318.183 351.12 317.93C350.276 316.754 349.467 315.527 348.714 314.285C348.329 313.646 349.257 313.018 349.645 313.657C350.382 314.874 351.175 316.076 352.002 317.228C352.183 317.48 352.132 317.842 351.889 318.036ZM346.418 307.92C346.369 308.055 346.272 308.171 346.138 308.239C345.863 308.377 345.536 308.258 345.408 307.971C344.811 306.635 344.258 305.259 343.763 303.881C343.657 303.585 343.801 303.251 344.085 303.134C344.37 303.019 344.686 303.165 344.793 303.461C345.277 304.812 345.819 306.16 346.404 307.469C346.47 307.616 346.471 307.778 346.418 307.92ZM342.803 297.037C342.74 297.21 342.6 297.348 342.417 297.397C342.121 297.474 341.825 297.287 341.756 296.978C341.432 295.542 341.158 294.073 340.943 292.612C340.896 292.299 341.102 292.001 341.402 291.948C341.702 291.894 341.983 292.106 342.029 292.419C342.24 293.85 342.508 295.29 342.826 296.697C342.852 296.814 342.842 296.932 342.803 297.037ZM340.889 285.952C340.586 285.965 340.334 285.718 340.326 285.4C340.29 283.921 340.31 282.419 340.385 280.936C340.426 280.173 341.521 280.22 341.482 280.98C341.409 282.433 341.389 283.904 341.424 285.353C341.432 285.67 341.193 285.939 340.889 285.952ZM352.87 249.052C350.309 252.5 350.349 253.276 349.657 252.801C349.404 252.629 349.337 252.272 349.505 252.005C350.29 250.76 351.131 249.531 352.007 248.352C352.456 247.747 353.32 248.444 352.87 249.052ZM341.634 274.386C341.335 274.334 341.137 274.037 341.192 273.723C341.445 272.263 341.757 270.793 342.118 269.353C342.303 268.613 343.366 268.891 343.18 269.63C342.827 271.041 342.521 272.482 342.273 273.913C342.217 274.23 341.929 274.438 341.634 274.386ZM347.024 258.833C345.188 262.736 345.375 263.497 344.6 263.181C344.108 262.981 344.293 262.367 344.296 262.436C344.825 261.049 345.412 259.67 346.039 258.336C346.174 258.048 346.504 257.927 346.776 258.064C347.035 258.195 347.163 258.527 347.024 258.833Z" fill="#EAC4F9"/>
<path d="M359.002 242.08C357.63 243.401 357.164 244.222 356.642 243.671C356.43 243.447 356.432 243.082 356.65 242.856C358.016 241.43 358.561 240.715 359.042 241.265C359.186 241.43 359.227 241.863 359.002 242.08Z" fill="#EAC4F9"/>
<path d="M399.065 226.72C398.98 226.95 398.76 227.109 398.514 227.095C397.793 227.054 397.062 227.028 396.342 227.018C396.039 227.014 395.8 226.752 395.809 226.434C395.818 226.116 396.07 225.861 396.374 225.865C397.108 225.876 397.853 225.902 398.59 225.944C398.893 225.961 399.121 226.233 399.1 226.55C399.096 226.61 399.084 226.667 399.065 226.72Z" fill="#EAC4F9"/>
<path d="M445.104 304.494C444.514 305.976 443.858 307.449 443.152 308.873C443.012 309.158 442.68 309.272 442.411 309.129C441.654 308.724 442.365 308.399 444.091 304.063C444.209 303.768 444.531 303.625 444.811 303.744C445.299 303.952 445.106 304.563 445.104 304.494ZM446.846 297.489C446.022 297.27 446.653 296.767 447.445 292.181C447.498 291.866 447.785 291.655 448.083 291.707C448.382 291.759 448.58 292.056 448.526 292.37C448.255 293.939 447.916 295.521 447.52 297.072C447.44 297.383 447.137 297.567 446.846 297.489ZM439.257 315.588C438.373 316.9 437.426 318.191 436.439 319.425C436.243 319.67 435.896 319.705 435.665 319.503C435.012 318.932 435.773 318.78 438.362 314.933C438.538 314.671 438.881 314.606 439.128 314.787C439.375 314.968 439.432 315.326 439.257 315.588ZM449.316 284.786C449.233 285.011 449.022 285.168 448.78 285.162C448.477 285.153 448.242 284.888 448.255 284.57C448.318 283.004 448.318 281.421 448.256 279.863C448.243 279.544 448.478 279.273 448.781 279.254C449.084 279.236 449.34 279.479 449.353 279.796C449.418 281.387 449.417 283.004 449.352 284.601C449.35 284.666 449.337 284.728 449.316 284.786ZM448.503 272.37C448.436 272.552 448.284 272.695 448.089 272.736C447.79 272.797 447.504 272.594 447.45 272.281C447.185 270.749 446.853 269.209 446.464 267.705C446.385 267.399 446.559 267.08 446.852 266.992C447.145 266.905 447.446 267.082 447.525 267.388C447.922 268.923 448.26 270.495 448.531 272.059C448.55 272.167 448.539 272.274 448.503 272.37ZM445.109 260.482C445.057 260.623 444.954 260.743 444.811 260.809C444.531 260.937 444.209 260.805 444.091 260.514C443.511 259.083 442.866 257.661 442.173 256.287C442.033 256.007 442.136 255.658 442.404 255.505C442.673 255.353 443.005 255.457 443.146 255.736C443.853 257.138 444.511 258.589 445.103 260.049C445.161 260.192 445.159 260.347 445.109 260.482ZM439.314 249.691C439.277 249.793 439.212 249.885 439.121 249.954C438.874 250.143 438.531 250.088 438.355 249.831C437.49 248.572 436.563 247.336 435.599 246.157C435.403 245.918 435.431 245.554 435.663 245.344C435.895 245.135 436.241 245.16 436.437 245.399C437.421 246.602 438.367 247.863 439.25 249.149C439.361 249.311 439.379 249.515 439.314 249.691ZM431.291 240.696C430.721 241.371 430.608 240.575 427.048 237.814C426.468 237.365 427.129 236.434 427.71 236.884C428.924 237.826 430.115 238.835 431.249 239.883C431.473 240.091 431.495 240.454 431.291 240.696ZM421.683 233.499C421.267 234.288 420.994 233.544 416.926 231.68C416.267 231.378 416.715 230.318 417.379 230.622C418.767 231.258 420.143 231.964 421.47 232.719C421.739 232.872 421.829 233.226 421.683 233.499ZM410.76 228.764C410.658 229.043 410.368 229.2 410.091 229.118C408.656 228.693 407.191 228.327 405.738 228.032C405.441 227.971 405.251 227.669 405.312 227.356C405.377 227.043 405.666 226.84 405.963 226.9C407.446 227.202 408.94 227.575 410.405 228.009C410.696 228.095 410.861 228.413 410.775 228.719C410.77 228.735 410.766 228.75 410.76 228.764Z" fill="#EAC4F9"/>
<path d="M431.216 325.122C429.787 326.483 429.213 327.169 428.758 326.596C428.284 325.999 429.021 325.667 430.484 324.274C430.711 324.058 431.058 324.073 431.26 324.307C431.462 324.542 431.442 324.906 431.216 325.122Z" fill="#EAC4F9"/>
<path d="M417.335 318.803L416.361 310.612C419.211 308.12 421.709 305.14 423.721 301.74C431.381 301.431 431.939 301.969 432.213 301.125L435.275 291.691C435.364 291.415 435.278 291.113 435.06 290.938L428.842 285.96C429.218 281.999 428.961 278.074 428.136 274.323L433.699 268.373C433.894 268.164 433.943 267.851 433.821 267.592L429.658 258.752C429.536 258.493 429.27 258.347 428.996 258.387L421.171 259.533C418.838 256.581 416.034 254.006 412.823 251.947L412.803 243.683C412.803 243.393 412.627 243.138 412.365 243.048L403.415 239.98C403.154 239.891 402.864 239.986 402.695 240.217L397.853 246.815C394.081 246.48 390.335 246.81 386.746 247.732C381.172 242.242 381.168 241.471 380.414 241.871C372.159 246.437 371.457 246.175 371.563 247.072L372.537 255.263C369.687 257.754 367.188 260.734 365.176 264.134C357.521 264.443 356.958 263.905 356.684 264.749C353.799 274.176 353.169 274.401 353.838 274.936L360.055 279.915C359.679 283.876 359.937 287.801 360.761 291.551C355.506 297.409 354.701 297.485 355.076 298.282C359.346 306.955 359.056 307.611 359.902 307.487L367.727 306.342C370.059 309.294 372.863 311.869 376.075 313.928C376.25 321.816 375.715 322.547 376.532 322.826C385.439 325.697 385.679 326.371 386.203 325.657L391.045 319.06C394.816 319.395 398.562 319.065 402.152 318.143C407.706 323.615 407.725 324.406 408.484 324.004C416.739 319.438 417.441 319.7 417.335 318.803Z" fill="url(#paint31_linear_418_5674)"/>
<path opacity="0.56" d="M393.69 292.589C388.621 292.231 384.838 287.61 385.256 282.288C385.676 276.967 390.138 272.928 395.206 273.285C400.275 273.644 404.058 278.264 403.64 283.586C403.222 288.909 398.757 292.946 393.69 292.589ZM386.899 282.404C386.559 286.724 389.6 290.566 393.825 290.864C397.988 291.158 401.655 287.841 401.997 283.47C402.34 279.1 399.233 275.304 395.071 275.011C390.902 274.716 387.241 278.041 386.899 282.404Z" fill="white"/>
<path opacity="0.56" d="M416.389 291.386C415.896 292.727 415.295 294.023 414.598 295.249C414.388 295.618 413.961 295.769 413.595 295.626C413.551 295.609 413.508 295.588 413.467 295.562C413.077 295.322 412.952 294.791 413.186 294.38C413.988 292.969 414.652 291.459 415.161 289.894C418.989 278.096 413.243 265.399 402.313 261.126C402.034 261.017 401.751 260.913 401.466 260.815C389.918 256.857 377.453 263.543 373.53 275.622C369.616 287.684 375.709 300.747 387.225 304.7C394.081 307.05 398.686 305.011 399.392 305.286C400.154 305.584 400.064 306.748 399.266 306.939C394.912 307.984 390.217 307.745 385.781 306.01C366.637 298.526 365.506 270.424 383.936 260.656C389.607 257.649 396.022 257.122 401.999 259.171C402.308 259.277 402.614 259.39 402.918 259.508C408.469 261.678 412.942 265.905 415.579 271.503C418.359 277.407 418.764 284.128 416.72 290.428C416.616 290.75 416.505 291.07 416.389 291.386Z" fill="white"/>
<path d="M376.703 222.3C378.198 220.797 379.472 219.037 380.45 217.064L384.901 216.652C385.395 216.607 385.174 216.184 386.514 210.998C386.629 210.518 386.207 210.601 382.606 208.084C382.632 205.869 382.302 203.7 381.66 201.651L384.527 198.113C384.845 197.72 384.399 197.583 381.789 192.939C381.708 192.801 381.55 192.731 381.397 192.765L377.024 193.729C375.566 192.188 373.859 190.875 371.946 189.866C371.476 185.489 371.743 185.064 371.269 184.943C366.091 183.721 365.928 183.359 365.666 183.777L363.237 187.644C361.088 187.616 358.984 187.957 356.997 188.619L353.565 185.663C353.185 185.336 353.051 185.795 348.547 188.486C348.139 188.74 348.488 188.971 349.313 193.398C347.818 194.902 346.545 196.661 345.566 198.634L341.115 199.046C340.621 199.091 340.842 199.514 339.503 204.7C339.388 205.177 339.791 205.085 343.411 207.614C343.384 209.829 343.714 211.998 344.357 214.047L341.49 217.585C341.389 217.709 341.376 217.885 341.457 218.024L344.228 222.759C344.309 222.897 344.466 222.967 344.619 222.934L348.992 221.969C350.45 223.511 352.157 224.823 354.07 225.832C354.541 230.209 354.274 230.635 354.747 230.755C359.923 231.976 360.088 232.34 360.351 231.921L362.78 228.054C364.928 228.082 367.032 227.741 369.019 227.079C372.354 229.831 372.457 230.329 372.876 230.068L377.469 227.212C377.88 226.956 377.525 226.704 376.703 222.3Z" fill="url(#paint32_linear_418_5674)"/>
<path opacity="0.56" d="M363.035 213.619C359.942 213.634 357.426 211.066 357.412 207.876C357.398 204.688 359.889 202.093 362.982 202.079C366.068 202.064 368.591 204.64 368.606 207.822C368.62 211.004 366.122 213.604 363.035 213.619ZM363.027 211.899C365.194 211.888 366.947 210.062 366.938 207.83C366.921 204.244 362.675 202.441 360.218 204.998C357.772 207.544 359.526 211.916 363.027 211.899Z" fill="white"/>
<path d="M373.308 236.144C372.605 236.416 371.881 236.664 371.157 236.879C370.862 236.967 370.553 236.792 370.468 236.488C370.254 235.722 371.103 235.773 372.917 235.07C373.204 234.959 373.525 235.109 373.633 235.405C373.74 235.7 373.597 236.032 373.308 236.144Z" fill="#EAC4F9"/>
<path d="M363.809 238.053C362.333 238.095 360.789 238.023 359.235 237.817C358.504 237.72 358.649 236.584 359.377 236.68C363.404 237.214 364.326 236.506 364.35 237.465C364.358 237.784 364.115 238.045 363.809 238.053ZM352.766 235.564C352.651 235.857 352.327 235.999 352.042 235.881C350.629 235.293 349.25 234.585 347.941 233.775C347.311 233.384 347.882 232.402 348.513 232.792C349.772 233.571 351.099 234.252 352.458 234.817C352.958 235.026 352.769 235.633 352.766 235.564ZM343.02 228.836C342.993 228.911 342.949 228.981 342.89 229.041C342.671 229.264 342.32 229.26 342.104 229.035C341.034 227.914 340.042 226.698 339.156 225.421C338.977 225.164 339.035 224.805 339.284 224.621C339.534 224.437 339.881 224.496 340.06 224.753C340.913 225.982 341.868 227.152 342.897 228.23C343.054 228.395 343.095 228.633 343.02 228.836ZM336.67 218.675C336.616 218.822 336.503 218.946 336.349 219.007C336.063 219.121 335.741 218.973 335.631 218.678C335.085 217.211 334.647 215.687 334.331 214.149C334.267 213.839 334.459 213.535 334.759 213.469C335.06 213.403 335.355 213.601 335.419 213.911C335.723 215.39 336.143 216.856 336.669 218.267C336.72 218.403 336.717 218.548 336.67 218.675ZM334.251 207.112C333.944 207.098 333.706 206.831 333.719 206.514C333.786 204.939 333.972 203.362 334.273 201.825C334.415 201.084 335.509 201.307 335.363 202.053C335.073 203.53 334.894 205.048 334.831 206.563C334.816 206.888 334.552 207.125 334.251 207.112Z" fill="#EAC4F9"/>
<path d="M338.712 193.071C337.674 194.881 337.606 195.651 336.932 195.31C336.656 195.17 336.538 194.833 336.678 194.543C337.008 193.849 337.37 193.158 337.755 192.487C337.911 192.215 338.252 192.124 338.517 192.286C338.777 192.444 338.87 192.792 338.712 193.071Z" fill="#EAC4F9"/>
<path d="M357.476 179.331C355.467 179.743 354.872 180.203 354.669 179.458C354.586 179.153 354.759 178.837 355.054 178.751C355.776 178.542 356.517 178.358 357.259 178.206C357.56 178.145 357.853 178.346 357.912 178.657C357.973 178.966 357.777 179.269 357.476 179.331Z" fill="#EAC4F9"/>
<path d="M390.723 215.77C389.828 215.534 390.684 214.793 391.069 210.67C391.138 209.917 392.247 210.023 392.176 210.78C392.032 212.322 391.77 213.862 391.4 215.356C391.326 215.658 391.025 215.849 390.723 215.77ZM391.509 203.902C391.206 203.949 390.922 203.735 390.876 203.421C390.265 199.292 389.372 198.64 390.256 198.351C390.548 198.256 390.861 198.423 390.954 198.725C391.405 200.197 391.749 201.719 391.975 203.249C392.021 203.562 391.813 203.854 391.509 203.902ZM387.716 192.673C386.93 193.177 387.01 192.037 384.383 188.89C383.904 188.315 384.745 187.566 385.226 188.141C386.205 189.314 387.103 190.573 387.894 191.883C388.056 192.151 387.977 192.505 387.716 192.673ZM379.944 183.883C379.411 184.666 379.053 183.58 375.44 181.747C374.781 181.412 375.271 180.383 375.931 180.718C377.275 181.4 378.579 182.196 379.808 183.084C380.06 183.267 380.12 183.624 379.944 183.883ZM368.792 179.386C364.829 178.533 363.918 179.167 363.967 178.21C363.982 177.894 364.244 177.651 364.551 177.667C366.053 177.748 367.556 177.948 369.019 178.264C369.32 178.328 369.513 178.632 369.45 178.942C369.387 179.251 369.093 179.451 368.792 179.386Z" fill="#EAC4F9"/>
<path d="M388.7 222.391C388.337 223.071 387.944 223.744 387.532 224.392C387.363 224.657 387.019 224.731 386.762 224.558C386.115 224.12 386.789 223.591 387.725 221.838C387.873 221.561 388.211 221.459 388.48 221.612C388.753 221.767 388.845 222.119 388.7 222.391Z" fill="#EAC4F9"/>
<path opacity="0.56" d="M375.327 213.977C375.098 214.467 374.588 214.599 374.197 214.402C373.783 214.193 373.613 213.674 373.814 213.252C374.19 212.46 374.487 211.619 374.695 210.752C374.704 210.565 376.097 206.085 373.309 201.305C367.762 191.826 353.767 193.996 351.186 204.754C349.701 210.944 352.996 217.218 358.641 219.424C364.326 221.647 366.992 218.483 367.521 220.265C367.656 220.719 367.408 221.199 366.968 221.339C364.592 222.09 362.055 222.16 359.631 221.541C352.27 219.664 347.74 211.955 349.567 204.341C351.533 196.147 360.045 191.428 367.852 194.48C374.148 196.941 378.037 203.987 376.314 211.165L376.314 211.165C376.08 212.137 375.749 213.083 375.327 213.977Z" fill="white"/>
<defs>
<linearGradient id="paint0_linear_418_5674" x1="504.08" y1="592.504" x2="94.6815" y2="99.3486" gradientUnits="userSpaceOnUse">
<stop stop-color="#B37CFF"/>
<stop offset="1" stop-color="#F895E7"/>
</linearGradient>
<linearGradient id="paint1_linear_418_5674" x1="17.3711" y1="164.373" x2="151.319" y2="162.515" gradientUnits="userSpaceOnUse">
<stop offset="0.085" stop-color="#FAAA19"/>
<stop offset="0.415" stop-color="#CE1567" stop-opacity="0.6"/>
<stop offset="1" stop-color="#8468F5"/>
</linearGradient>
<linearGradient id="paint2_linear_418_5674" x1="24.2632" y1="315.138" x2="141.333" y2="292.044" gradientUnits="userSpaceOnUse">
<stop stop-color="#2B3582"/>
<stop offset="1" stop-color="#8468F5"/>
</linearGradient>
<linearGradient id="paint3_linear_418_5674" x1="2.96077" y1="347.613" x2="149.342" y2="347.613" gradientUnits="userSpaceOnUse">
<stop stop-color="#8468F5"/>
<stop offset="0.5" stop-color="#7A1DBC"/>
<stop offset="1" stop-color="#FF450D"/>
</linearGradient>
<linearGradient id="paint4_linear_418_5674" x1="112.926" y1="230.911" x2="370.162" y2="225.446" gradientUnits="userSpaceOnUse">
<stop stop-color="#2B3582"/>
<stop offset="1" stop-color="#150E42"/>
</linearGradient>
<linearGradient id="paint5_linear_418_5674" x1="142.26" y1="80.3649" x2="708.892" y2="844.524" gradientUnits="userSpaceOnUse">
<stop stop-color="#53D8FF"/>
<stop offset="1" stop-color="#3840F7"/>
</linearGradient>
<linearGradient id="paint6_linear_418_5674" x1="151.162" y1="181.723" x2="328.391" y2="181.723" gradientUnits="userSpaceOnUse">
<stop stop-color="white"/>
<stop offset="0.9974" stop-color="white"/>
</linearGradient>
<linearGradient id="paint7_linear_418_5674" x1="114" y1="338" x2="206.447" y2="314.382" gradientUnits="userSpaceOnUse">
<stop offset="0.0462792" stop-color="#8468F5"/>
<stop offset="1" stop-color="#FAAA19"/>
</linearGradient>
<linearGradient id="paint8_linear_418_5674" x1="268.555" y1="283.565" x2="231.188" y2="327.344" gradientUnits="userSpaceOnUse">
<stop stop-color="#FF450D" stop-opacity="0.8"/>
<stop offset="1" stop-color="#8468F5"/>
</linearGradient>
<linearGradient id="paint9_linear_418_5674" x1="447.737" y1="314.946" x2="297.15" y2="409.627" gradientUnits="userSpaceOnUse">
<stop stop-color="#B37CFF"/>
<stop offset="1" stop-color="#F895E7"/>
</linearGradient>
<linearGradient id="paint10_linear_418_5674" x1="327.394" y1="309.565" x2="349.146" y2="403.948" gradientUnits="userSpaceOnUse">
<stop stop-color="#CB236D"/>
<stop offset="1" stop-color="#4C246D"/>
</linearGradient>
<linearGradient id="paint11_linear_418_5674" x1="417.024" y1="169.573" x2="304.552" y2="528.01" gradientUnits="userSpaceOnUse">
<stop stop-color="#53D8FF"/>
<stop offset="1" stop-color="#3840F7"/>
</linearGradient>
<linearGradient id="paint12_linear_418_5674" x1="229.327" y1="-135.947" x2="330.093" y2="162.402" gradientUnits="userSpaceOnUse">
<stop stop-color="#53D8FF"/>
<stop offset="1" stop-color="#3840F7"/>
</linearGradient>
<linearGradient id="paint13_linear_418_5674" x1="210.935" y1="-127.657" x2="311.402" y2="169.807" gradientUnits="userSpaceOnUse">
<stop stop-color="#53D8FF"/>
<stop offset="1" stop-color="#3840F7"/>
</linearGradient>
<linearGradient id="paint14_linear_418_5674" x1="555.857" y1="-361.622" x2="190.967" y2="342.741" gradientUnits="userSpaceOnUse">
<stop stop-color="#8468F5"/>
<stop offset="1" stop-color="#FF450D"/>
</linearGradient>
<linearGradient id="paint15_linear_418_5674" x1="214.5" y1="389.637" x2="259.209" y2="389.637" gradientUnits="userSpaceOnUse">
<stop stop-color="#2B3582"/>
<stop offset="1" stop-color="#150E42"/>
</linearGradient>
<linearGradient id="paint16_linear_418_5674" x1="185.25" y1="388.129" x2="248.722" y2="388.129" gradientUnits="userSpaceOnUse">
<stop stop-color="#2B3582"/>
<stop offset="1" stop-color="#150E42"/>
</linearGradient>
<linearGradient id="paint17_linear_418_5674" x1="255.8" y1="172.225" x2="53.5966" y2="441.348" gradientUnits="userSpaceOnUse">
<stop stop-color="#FDF53F"/>
<stop offset="0.6645" stop-color="#E57A58"/>
<stop offset="1" stop-color="#D93C65"/>
</linearGradient>
<linearGradient id="paint18_linear_418_5674" x1="302.203" y1="132.535" x2="371.282" y2="132.535" gradientUnits="userSpaceOnUse">
<stop stop-color="#F9B776"/>
<stop offset="1" stop-color="#F47960"/>
</linearGradient>
<linearGradient id="paint19_linear_418_5674" x1="355.895" y1="120.597" x2="307.119" y2="228.235" gradientUnits="userSpaceOnUse">
<stop stop-color="#F9B776"/>
<stop offset="1" stop-color="#F47960"/>
</linearGradient>
<linearGradient id="paint20_linear_418_5674" x1="370.952" y1="84.3842" x2="391.134" y2="54.2881" gradientUnits="userSpaceOnUse">
<stop stop-color="#F9B776"/>
<stop offset="1" stop-color="#F47960"/>
</linearGradient>
<linearGradient id="paint21_linear_418_5674" x1="216.531" y1="142.72" x2="14.3266" y2="411.844" gradientUnits="userSpaceOnUse">
<stop stop-color="#FDF53F"/>
<stop offset="0.6645" stop-color="#E57A58"/>
<stop offset="1" stop-color="#D93C65"/>
</linearGradient>
<linearGradient id="paint22_linear_418_5674" x1="151.045" y1="233.418" x2="238.465" y2="233.418" gradientUnits="userSpaceOnUse">
<stop stop-color="#F9B776"/>
<stop offset="1" stop-color="#F47960"/>
</linearGradient>
<linearGradient id="paint23_linear_418_5674" x1="264.911" y1="169.338" x2="315.833" y2="375.131" gradientUnits="userSpaceOnUse">
<stop stop-color="#2B3582"/>
<stop offset="1" stop-color="#150E42"/>
</linearGradient>
<linearGradient id="paint24_linear_418_5674" x1="295.005" y1="136.788" x2="284.156" y2="182.994" gradientUnits="userSpaceOnUse">
<stop stop-color="#53D8FF"/>
<stop offset="1" stop-color="#3840F7"/>
</linearGradient>
<linearGradient id="paint25_linear_418_5674" x1="289.648" y1="156.23" x2="284.452" y2="186.467" gradientUnits="userSpaceOnUse">
<stop stop-color="#53D8FF"/>
<stop offset="1" stop-color="#3840F7"/>
</linearGradient>
<linearGradient id="paint26_linear_418_5674" x1="231.973" y1="223.968" x2="259.208" y2="223.968" gradientUnits="userSpaceOnUse">
<stop stop-color="#F9B776"/>
<stop offset="1" stop-color="#F47960"/>
</linearGradient>
<linearGradient id="paint27_linear_418_5674" x1="218.172" y1="137.063" x2="252.735" y2="137.063" gradientUnits="userSpaceOnUse">
<stop stop-color="#F9B776"/>
<stop offset="1" stop-color="#F47960"/>
</linearGradient>
<linearGradient id="paint28_linear_418_5674" x1="260.956" y1="114.392" x2="222.333" y2="91.544" gradientUnits="userSpaceOnUse">
<stop stop-color="#F9B776"/>
<stop offset="1" stop-color="#F47960"/>
</linearGradient>
<linearGradient id="paint29_linear_418_5674" x1="202.837" y1="65.3051" x2="253.075" y2="103.791" gradientUnits="userSpaceOnUse">
<stop stop-color="#2B3582"/>
<stop offset="1" stop-color="#150E42"/>
</linearGradient>
<linearGradient id="paint30_linear_418_5674" x1="250.974" y1="123.305" x2="216.224" y2="102.747" gradientUnits="userSpaceOnUse">
<stop stop-color="#F9B776"/>
<stop offset="1" stop-color="#F47960"/>
</linearGradient>
<linearGradient id="paint31_linear_418_5674" x1="275.074" y1="257.233" x2="469.174" y2="296.542" gradientUnits="userSpaceOnUse">
<stop stop-color="#A737D5"/>
<stop offset="1" stop-color="#EF497A"/>
</linearGradient>
<linearGradient id="paint32_linear_418_5674" x1="295.491" y1="185" x2="453.954" y2="235.449" gradientUnits="userSpaceOnUse">
<stop stop-color="#A737D5"/>
<stop offset="1" stop-color="#EF497A"/>
</linearGradient>
</defs>
</svg>
