<svg width="750" height="500" viewBox="0 0 750 500" fill="none" xmlns="http://www.w3.org/2000/svg">
<rect width="750" height="500" fill="#8568F5" fill-opacity="0.2"/>
<path d="M570.488 70.8699C419.488 21.8699 343.488 57.8699 295.488 103.87C247.488 149.87 231.488 179.87 176.488 185.87C121.488 191.87 70.4884 201.87 44.4884 268.87C18.4884 335.87 51.4884 388.87 101.488 421.87L102.038 422.22L624.738 412.76C665.118 402.93 705.448 391.91 711.488 297.87C711.488 297.87 721.488 119.87 570.488 70.8699Z" fill="#8568F5"/>
<path opacity="0.7" d="M570.488 70.8699C419.488 21.8699 343.488 57.8699 295.488 103.87C247.488 149.87 231.488 179.87 176.488 185.87C121.488 191.87 70.4884 201.87 44.4884 268.87C18.4884 335.87 51.4884 388.87 101.488 421.87L102.038 422.22L624.738 412.76C665.118 402.93 705.448 391.91 711.488 297.87C711.488 297.87 721.488 119.87 570.488 70.8699Z" fill="white"/>
<path d="M633.559 444.51H706.849" stroke="#263238" stroke-linecap="round" stroke-linejoin="round"/>
<path d="M71.5586 444.51H115.639" stroke="#263238" stroke-linecap="round" stroke-linejoin="round"/>
<path opacity="0.2" d="M238.75 222.68H188.41V243.06H238.75V222.68Z" fill="black"/>
<path opacity="0.2" d="M412.731 166.68H362.391V187.06H412.731V166.68Z" fill="black"/>
<path opacity="0.2" d="M568.731 166.68H518.391V187.06H568.731V166.68Z" fill="black"/>
<path opacity="0.2" d="M658.731 204.68H608.391V225.06H658.731V204.68Z" fill="black"/>
<path opacity="0.1" d="M385.16 194.84H334.82V215.22H385.16V194.84Z" fill="black"/>
<path opacity="0.2" d="M297.797 166.68H247.457V187.06H297.797V166.68Z" fill="black"/>
<path opacity="0.1" d="M270.231 194.84H219.891V215.22H270.231V194.84Z" fill="black"/>
<path opacity="0.1" d="M327.77 194.84H277.43V215.22H327.77V194.84Z" fill="black"/>
<path opacity="0.2" d="M180.137 241.49H129.797V261.87H180.137V241.49Z" fill="black"/>
<path opacity="0.1" d="M155.309 194.84H104.969V215.22H155.309V194.84Z" fill="black"/>
<path opacity="0.1" d="M212.848 194.84H162.508V215.22H212.848V194.84Z" fill="black"/>
<path opacity="0.2" d="M412.731 51.6799H362.391V72.0599H412.731V51.6799Z" fill="black"/>
<path opacity="0.1" d="M385.16 79.8398H334.82V100.22H385.16V79.8398Z" fill="black"/>
<path opacity="0.2" d="M665.731 51.6799H615.391V72.0599H665.731V51.6799Z" fill="black"/>
<path opacity="0.1" d="M638.16 79.8398H587.82V100.22H638.16V79.8398Z" fill="black"/>
<path opacity="0.2" d="M311.797 51.6799H261.457V72.0599H311.797V51.6799Z" fill="black"/>
<path opacity="0.1" d="M327.77 136.49H277.43V156.87H327.77V136.49Z" fill="black"/>
<path opacity="0.2" d="M471.137 270.68H420.797V291.06H471.137V270.68Z" fill="black"/>
<path opacity="0.2" d="M471.137 325.68H420.797V346.06H471.137V325.68Z" fill="black"/>
<path opacity="0.2" d="M238.75 326.68H188.41V347.06H238.75V326.68Z" fill="black"/>
<path opacity="0.1" d="M557.61 298.84H507.27V319.22H557.61V298.84Z" fill="black"/>
<path opacity="0.1" d="M530.137 325.49H479.797V345.87H530.137V325.49Z" fill="black"/>
<path opacity="0.1" d="M703.168 298.84H652.828V319.22H703.168V298.84Z" fill="black"/>
<path opacity="0.1" d="M675.688 325.49H625.348V345.87H675.688V325.49Z" fill="black"/>
<path opacity="0.2" d="M412.731 270.68H362.391V291.06H412.731V270.68Z" fill="black"/>
<path opacity="0.1" d="M442.688 298.84H392.348V319.22H442.688V298.84Z" fill="black"/>
<path opacity="0.1" d="M418.688 356.84H368.348V377.22H418.688V356.84Z" fill="black"/>
<path opacity="0.1" d="M490.688 383.84H440.348V404.22H490.688V383.84Z" fill="black"/>
<path opacity="0.1" d="M300.688 383.84H250.348V404.22H300.688V383.84Z" fill="black"/>
<path opacity="0.1" d="M157.137 383.84H106.797V404.22H157.137V383.84Z" fill="black"/>
<path opacity="0.1" d="M340.16 229.84H289.82V250.22H340.16V229.84Z" fill="black"/>
<path opacity="0.1" d="M397.688 229.84H347.348V250.22H397.688V229.84Z" fill="black"/>
<path opacity="0.1" d="M557.688 229.84H507.348V250.22H557.688V229.84Z" fill="black"/>
<path opacity="0.2" d="M297.797 270.68H247.457V291.06H297.797V270.68Z" fill="black"/>
<path opacity="0.1" d="M353.231 328.84H302.891V349.22H353.231V328.84Z" fill="black"/>
<path opacity="0.2" d="M182.879 270.68H132.539V291.06H182.879V270.68Z" fill="black"/>
<path opacity="0.2" d="M180.137 345.49H129.797V365.87H180.137V345.49Z" fill="black"/>
<path opacity="0.1" d="M155.309 298.84H104.969V319.22H155.309V298.84Z" fill="black"/>
<path opacity="0.1" d="M212.848 298.84H162.508V319.22H212.848V298.84Z" fill="black"/>
<path d="M667.34 273.77L681.52 409.73" stroke="#263238" stroke-width="2" stroke-miterlimit="10"/>
<path d="M679.242 383.71L672.812 376.92" stroke="#263238" stroke-width="2" stroke-miterlimit="10"/>
<path d="M674.761 379C674.747 377.962 674.511 376.938 674.07 375.998C673.628 375.059 672.991 374.224 672.201 373.55C670.551 372.07 661.861 368.42 661.031 371.48C660.141 374.76 669.001 381.29 674.761 379Z" fill="#8568F5" stroke="#263238" stroke-miterlimit="10"/>
<path d="M674.762 378.95L666.492 373.8" stroke="#263238" stroke-width="0.5" stroke-miterlimit="10"/>
<path d="M680.852 399.17L674.422 392.38" stroke="#263238" stroke-width="2" stroke-miterlimit="10"/>
<path d="M676.369 394.42C676.359 393.38 676.125 392.354 675.683 391.412C675.241 390.47 674.602 389.634 673.809 388.96C672.159 387.49 663.469 383.83 662.649 386.89C661.749 390.22 670.639 396.76 676.369 394.42Z" fill="#8568F5" stroke="#263238" stroke-miterlimit="10"/>
<path d="M676.372 394.42L668.102 389.26" stroke="#263238" stroke-width="0.5" stroke-miterlimit="10"/>
<path d="M675.301 345.98L668.871 339.18" stroke="#263238" stroke-width="2" stroke-miterlimit="10"/>
<path d="M670.822 341.22C670.812 340.18 670.578 339.154 670.136 338.212C669.695 337.27 669.055 336.434 668.262 335.76C666.612 334.29 657.922 330.63 657.102 333.69C656.202 337 665.092 343.56 670.822 341.22Z" fill="#8568F5" stroke="#263238" stroke-miterlimit="10"/>
<path d="M670.821 341.22L662.551 336.06" stroke="#263238" stroke-width="0.5" stroke-miterlimit="10"/>
<path d="M676.91 361.44L670.48 354.65" stroke="#263238" stroke-width="2" stroke-miterlimit="10"/>
<path d="M672.442 356.68C672.428 355.642 672.192 354.618 671.751 353.678C671.309 352.738 670.672 351.904 669.882 351.23C668.222 349.75 659.532 346.1 658.712 349.16C657.812 352.49 666.712 359 672.442 356.68Z" fill="#8568F5" stroke="#263238" stroke-miterlimit="10"/>
<path d="M672.44 356.68L664.16 351.53" stroke="#263238" stroke-width="0.5" stroke-miterlimit="10"/>
<path d="M672.68 320.86L666.25 314.07" stroke="#263238" stroke-width="2" stroke-miterlimit="10"/>
<path d="M668.202 316.1C668.188 315.061 667.952 314.036 667.511 313.094C667.069 312.153 666.432 311.316 665.642 310.64C663.992 309.17 655.302 305.51 654.472 308.57C653.582 311.9 662.472 318.44 668.202 316.1Z" fill="#8568F5" stroke="#263238" stroke-miterlimit="10"/>
<path d="M668.2 316.1L659.93 310.95" stroke="#263238" stroke-width="0.5" stroke-miterlimit="10"/>
<path d="M670.049 295.63L663.609 288.84" stroke="#263238" stroke-width="2" stroke-miterlimit="10"/>
<path d="M665.571 290.87C665.557 289.832 665.321 288.808 664.88 287.869C664.438 286.929 663.801 286.094 663.011 285.42C661.361 283.94 652.671 280.29 651.841 283.35C650.941 286.68 659.841 293.21 665.571 290.87Z" fill="#8568F5" stroke="#263238" stroke-miterlimit="10"/>
<path d="M665.569 290.87L657.289 285.72" stroke="#263238" stroke-width="0.5" stroke-miterlimit="10"/>
<path d="M678.16 374.56L683.05 366.59" stroke="#263238" stroke-width="2" stroke-miterlimit="10"/>
<path d="M681.561 369C681.359 367.98 681.377 366.929 681.613 365.917C681.849 364.905 682.299 363.955 682.931 363.13C684.251 361.35 691.991 355.98 693.431 358.8C695.001 361.86 687.641 370.09 681.561 369Z" fill="#8568F5" stroke="#263238" stroke-miterlimit="10"/>
<path d="M681.562 368.98L689.003 361.86" stroke="#263238" stroke-width="0.5" stroke-miterlimit="10"/>
<path d="M673.91 333.87L678.8 325.89" stroke="#263238" stroke-width="2" stroke-miterlimit="10"/>
<path d="M677.311 328.29C677.109 327.27 677.127 326.218 677.365 325.206C677.603 324.193 678.055 323.243 678.691 322.42C680.001 320.64 687.751 315.27 689.191 318.09C690.751 321.16 683.401 329.4 677.311 328.29Z" fill="#8568F5" stroke="#263238" stroke-miterlimit="10"/>
<path d="M677.312 328.29L684.763 321.17" stroke="#263238" stroke-width="0.5" stroke-miterlimit="10"/>
<path d="M672.039 315.99L676.929 308.01" stroke="#263238" stroke-width="2" stroke-miterlimit="10"/>
<path d="M675.44 310.41C675.238 309.39 675.256 308.338 675.494 307.326C675.732 306.313 676.184 305.364 676.82 304.54C678.13 302.76 685.88 297.39 687.32 300.21C688.88 303.28 681.53 311.51 675.44 310.41Z" fill="#8568F5" stroke="#263238" stroke-miterlimit="10"/>
<path d="M675.441 310.41L682.891 303.29" stroke="#263238" stroke-width="0.5" stroke-miterlimit="10"/>
<path d="M669.312 289.77L674.203 281.8" stroke="#263238" stroke-width="2" stroke-miterlimit="10"/>
<path d="M672.709 284.19C672.507 283.17 672.526 282.118 672.764 281.106C673.002 280.093 673.454 279.143 674.089 278.32C675.399 276.54 683.089 271.17 684.579 273.99C686.149 277.07 678.799 285.3 672.709 284.19Z" fill="#8568F5" stroke="#263238" stroke-miterlimit="10"/>
<path d="M672.711 284.19L680.161 277.07" stroke="#263238" stroke-width="0.5" stroke-miterlimit="10"/>
<path d="M667.222 273C667.019 271.98 667.037 270.929 667.273 269.917C667.51 268.905 667.959 267.955 668.592 267.13C669.912 265.35 677.652 259.98 679.092 262.8C680.662 265.89 673.302 274.12 667.222 273Z" fill="#8568F5" stroke="#263238" stroke-miterlimit="10"/>
<path d="M667.219 273.01L674.669 265.89" stroke="#263238" stroke-width="0.5" stroke-miterlimit="10"/>
<path d="M667.65 273.32C666.614 273.412 665.57 273.281 664.589 272.936C663.607 272.591 662.711 272.04 661.96 271.32C660.32 269.83 655.79 261.56 658.75 260.43C662 259.2 669.39 267.38 667.65 273.32Z" fill="#8568F5" stroke="#263238" stroke-miterlimit="10"/>
<path d="M667.652 273.32L661.352 265.16" stroke="#263238" stroke-width="0.5" stroke-miterlimit="10"/>
<path d="M704.762 292.49L690.652 428.46" stroke="#263238" stroke-width="2" stroke-miterlimit="10"/>
<path d="M693.771 402.53L688.871 394.56" stroke="#263238" stroke-width="2" stroke-miterlimit="10"/>
<path d="M690.372 397C690.574 395.981 690.555 394.931 690.317 393.92C690.079 392.91 689.627 391.962 688.992 391.14C687.672 389.35 679.922 383.99 678.492 386.81C676.922 389.83 684.282 398.06 690.372 397Z" fill="#8568F5" stroke="#263238" stroke-miterlimit="10"/>
<path d="M690.372 396.95L683.332 390.2" stroke="#263238" stroke-width="0.5" stroke-miterlimit="10"/>
<path d="M697.689 364.8L692.789 356.82" stroke="#263238" stroke-width="2" stroke-miterlimit="10"/>
<path d="M694.28 359.22C694.482 358.2 694.463 357.148 694.225 356.136C693.987 355.123 693.535 354.173 692.9 353.35C691.59 351.57 683.84 346.2 682.4 349.03C680.84 352.1 688.2 360.33 694.28 359.22Z" fill="#8568F5" stroke="#263238" stroke-miterlimit="10"/>
<path d="M694.28 359.22L687.25 352.47" stroke="#263238" stroke-width="0.5" stroke-miterlimit="10"/>
<path d="M696.081 380.26L691.191 372.29" stroke="#263238" stroke-width="2" stroke-miterlimit="10"/>
<path d="M692.68 374.68C692.882 373.66 692.864 372.608 692.626 371.596C692.388 370.583 691.936 369.633 691.3 368.81C689.99 367.03 682.23 361.67 680.8 364.49C679.23 367.56 686.59 375.79 692.68 374.68Z" fill="#8568F5" stroke="#263238" stroke-miterlimit="10"/>
<path d="M692.682 374.68L685.652 367.93" stroke="#263238" stroke-width="0.5" stroke-miterlimit="10"/>
<path d="M700.292 339.68L695.402 331.7" stroke="#263238" stroke-width="2" stroke-miterlimit="10"/>
<path d="M696.889 334.1C697.091 333.08 697.073 332.028 696.834 331.016C696.596 330.003 696.145 329.054 695.509 328.23C694.199 326.45 686.449 321.08 685.009 323.91C683.449 327 690.799 335.21 696.889 334.1Z" fill="#8568F5" stroke="#263238" stroke-miterlimit="10"/>
<path d="M696.889 334.1L689.859 327.35" stroke="#263238" stroke-width="0.5" stroke-miterlimit="10"/>
<path d="M702.912 314.45L698.012 306.47" stroke="#263238" stroke-width="2" stroke-miterlimit="10"/>
<path d="M699.513 308.87C699.715 307.85 699.696 306.798 699.458 305.786C699.22 304.773 698.768 303.824 698.132 303C696.812 301.22 689.062 295.85 687.632 298.68C686.062 301.75 693.423 310 699.513 308.87Z" fill="#8568F5" stroke="#263238" stroke-miterlimit="10"/>
<path d="M699.509 308.87L692.469 302.12" stroke="#263238" stroke-width="0.5" stroke-miterlimit="10"/>
<path d="M694.602 393.36L701.032 386.56" stroke="#263238" stroke-width="2" stroke-miterlimit="10"/>
<path d="M699.07 388.59C699.084 387.552 699.32 386.528 699.761 385.588C700.203 384.648 700.84 383.814 701.63 383.14C703.28 381.66 711.97 378 712.79 381.06C713.69 384.39 704.8 390.93 699.07 388.59Z" fill="#8568F5" stroke="#263238" stroke-miterlimit="10"/>
<path d="M699.07 388.59L707.83 383.16" stroke="#263238" stroke-width="0.5" stroke-miterlimit="10"/>
<path d="M698.82 352.66L705.25 345.86" stroke="#263238" stroke-width="2" stroke-miterlimit="10"/>
<path d="M703.289 347.9C703.303 346.86 703.538 345.835 703.98 344.894C704.421 343.952 705.059 343.116 705.849 342.44C707.499 340.97 716.189 337.31 717.019 340.37C717.909 343.69 708.999 350.24 703.289 347.9Z" fill="#8568F5" stroke="#263238" stroke-miterlimit="10"/>
<path d="M703.289 347.9L712.049 342.47" stroke="#263238" stroke-width="0.5" stroke-miterlimit="10"/>
<path d="M700.672 334.78L707.102 327.98" stroke="#263238" stroke-width="2" stroke-miterlimit="10"/>
<path d="M705.152 330C705.163 328.96 705.397 327.934 705.839 326.992C706.28 326.05 706.919 325.214 707.712 324.54C709.362 323.06 718.052 319.4 718.872 322.46C719.772 325.81 710.882 332.35 705.152 330Z" fill="#8568F5" stroke="#263238" stroke-miterlimit="10"/>
<path d="M705.152 330.02L713.912 324.58" stroke="#263238" stroke-width="0.5" stroke-miterlimit="10"/>
<path d="M703.402 308.56L709.822 301.76" stroke="#263238" stroke-width="2" stroke-miterlimit="10"/>
<path d="M707.871 303.8C707.882 302.76 708.116 301.734 708.557 300.792C708.999 299.85 709.638 299.014 710.431 298.34C712.081 296.87 720.771 293.2 721.591 296.26C722.491 299.59 713.601 306.14 707.871 303.8Z" fill="#8568F5" stroke="#263238" stroke-miterlimit="10"/>
<path d="M707.871 303.8L716.631 298.37" stroke="#263238" stroke-width="0.5" stroke-miterlimit="10"/>
<path d="M704.801 291.73C704.811 290.69 705.045 289.664 705.487 288.722C705.929 287.78 706.568 286.944 707.361 286.27C709.011 284.79 717.691 281.13 718.521 284.19C719.421 287.52 710.531 294.06 704.801 291.73Z" fill="#8568F5" stroke="#263238" stroke-miterlimit="10"/>
<path d="M704.801 291.73L713.551 286.29" stroke="#263238" stroke-width="0.5" stroke-miterlimit="10"/>
<path d="M705.162 292.12C704.128 291.999 703.133 291.658 702.243 291.119C701.353 290.581 700.589 289.858 700.002 289C698.702 287.21 696.002 278.18 699.102 277.68C702.512 277.14 708.082 286.66 705.162 292.12Z" fill="#8568F5" stroke="#263238" stroke-miterlimit="10"/>
<path d="M705.162 292.12L700.672 282.84" stroke="#263238" stroke-width="0.5" stroke-miterlimit="10"/>
<path d="M688.59 237.12V409.07" stroke="#263238" stroke-width="2" stroke-miterlimit="10"/>
<path d="M688.729 383.22L683.039 375.79" stroke="#263238" stroke-width="2" stroke-miterlimit="10"/>
<path d="M684.77 378C684.861 376.964 684.73 375.92 684.385 374.939C684.04 373.958 683.49 373.061 682.77 372.31C681.28 370.67 673.02 366.13 671.88 369.09C670.66 372.33 678.83 379.75 684.77 378Z" fill="#8568F5" stroke="#263238" stroke-miterlimit="10"/>
<path d="M684.772 378.02L677.082 372.03" stroke="#263238" stroke-width="0.5" stroke-miterlimit="10"/>
<path d="M688.729 350.9L683.039 343.48" stroke="#263238" stroke-width="2" stroke-miterlimit="10"/>
<path d="M684.77 345.7C684.861 344.664 684.73 343.62 684.385 342.639C684.04 341.657 683.49 340.761 682.77 340.01C681.28 338.37 673.02 333.84 671.88 336.79C670.66 340 678.83 347.44 684.77 345.7Z" fill="#8568F5" stroke="#263238" stroke-miterlimit="10"/>
<path d="M684.772 345.7L677.082 339.72" stroke="#263238" stroke-width="0.5" stroke-miterlimit="10"/>
<path d="M688.729 312.96L683.039 305.54" stroke="#263238" stroke-width="2" stroke-miterlimit="10"/>
<path d="M684.77 307.77C684.861 306.733 684.729 305.687 684.385 304.705C684.04 303.722 683.489 302.824 682.77 302.07C681.28 300.44 673.02 295.9 671.88 298.86C670.66 302.07 678.83 309.5 684.77 307.77Z" fill="#8568F5" stroke="#263238" stroke-miterlimit="10"/>
<path d="M684.772 307.77L677.082 301.78" stroke="#263238" stroke-width="0.5" stroke-miterlimit="10"/>
<path d="M688.729 287.71L683.039 280.28" stroke="#263238" stroke-width="2" stroke-miterlimit="10"/>
<path d="M684.77 282.51C684.861 281.474 684.73 280.43 684.385 279.449C684.04 278.468 683.49 277.571 682.77 276.82C681.28 275.18 673.02 270.64 671.88 273.6C670.66 276.82 678.83 284.24 684.77 282.51Z" fill="#8568F5" stroke="#263238" stroke-miterlimit="10"/>
<path d="M684.772 282.51L677.082 276.53" stroke="#263238" stroke-width="0.5" stroke-miterlimit="10"/>
<path d="M688.729 262.34L683.039 254.92" stroke="#263238" stroke-width="2" stroke-miterlimit="10"/>
<path d="M684.77 257.15C684.861 256.112 684.729 255.067 684.385 254.084C684.04 253.102 683.489 252.204 682.77 251.45C681.28 249.82 673.02 245.28 671.88 248.24C670.66 251.45 678.83 258.88 684.77 257.15Z" fill="#8568F5" stroke="#263238" stroke-miterlimit="10"/>
<path d="M684.772 257.15L677.082 251.16" stroke="#263238" stroke-width="0.5" stroke-miterlimit="10"/>
<path d="M688.602 393.08L694.302 385.66" stroke="#263238" stroke-width="2" stroke-miterlimit="10"/>
<path d="M692.559 387.89C692.468 386.852 692.6 385.807 692.945 384.825C693.29 383.842 693.84 382.944 694.559 382.19C696.049 380.55 704.319 376.02 705.449 378.98C706.669 382.19 698.499 389.62 692.559 387.89Z" fill="#8568F5" stroke="#263238" stroke-miterlimit="10"/>
<path d="M692.562 387.89L700.713 381.58" stroke="#263238" stroke-width="0.5" stroke-miterlimit="10"/>
<path d="M688.602 341.69L694.302 334.27" stroke="#263238" stroke-width="2" stroke-miterlimit="10"/>
<path d="M692.559 336.49C692.468 335.454 692.599 334.41 692.944 333.429C693.289 332.448 693.84 331.551 694.559 330.8C696.049 329.16 704.319 324.62 705.449 327.58C706.669 330.8 698.499 338.23 692.559 336.49Z" fill="#8568F5" stroke="#263238" stroke-miterlimit="10"/>
<path d="M692.562 336.49L700.713 330.18" stroke="#263238" stroke-width="0.5" stroke-miterlimit="10"/>
<path d="M688.602 316.33L694.302 308.9" stroke="#263238" stroke-width="2" stroke-miterlimit="10"/>
<path d="M692.559 311.13C692.468 310.092 692.6 309.047 692.945 308.064C693.29 307.082 693.84 306.184 694.559 305.43C696.049 303.8 704.319 299.26 705.449 302.22C706.669 305.43 698.499 312.86 692.559 311.13Z" fill="#8568F5" stroke="#263238" stroke-miterlimit="10"/>
<path d="M692.562 311.13L700.713 304.82" stroke="#263238" stroke-width="0.5" stroke-miterlimit="10"/>
<path d="M688.602 282.8L694.302 275.37" stroke="#263238" stroke-width="2" stroke-miterlimit="10"/>
<path d="M692.559 277.6C692.468 276.564 692.599 275.52 692.944 274.539C693.289 273.558 693.84 272.661 694.559 271.91C696.049 270.27 704.319 265.73 705.449 268.69C706.669 271.91 698.499 279.33 692.559 277.6Z" fill="#8568F5" stroke="#263238" stroke-miterlimit="10"/>
<path d="M692.562 277.6L700.713 271.29" stroke="#263238" stroke-width="0.5" stroke-miterlimit="10"/>
<path d="M688.602 256.44L694.302 249.02" stroke="#263238" stroke-width="2" stroke-miterlimit="10"/>
<path d="M692.559 251.24C692.468 250.204 692.599 249.16 692.944 248.179C693.289 247.198 693.84 246.301 694.559 245.55C696.049 243.91 704.319 239.37 705.449 242.33C706.669 245.55 698.499 253 692.559 251.24Z" fill="#8568F5" stroke="#263238" stroke-miterlimit="10"/>
<path d="M692.562 251.24L700.713 244.93" stroke="#263238" stroke-width="0.5" stroke-miterlimit="10"/>
<path d="M688.263 239.55C688.171 238.514 688.302 237.47 688.647 236.489C688.992 235.508 689.543 234.611 690.263 233.86C691.753 232.22 700.013 227.68 701.153 230.64C702.373 233.86 694.203 241.29 688.263 239.55Z" fill="#8568F5" stroke="#263238" stroke-miterlimit="10"/>
<path d="M688.262 239.55L696.412 233.24" stroke="#263238" stroke-width="0.5" stroke-miterlimit="10"/>
<path d="M688.66 239.9C687.621 239.887 686.598 239.652 685.658 239.21C684.718 238.768 683.883 238.131 683.21 237.34C681.73 235.68 678.09 226.99 681.15 226.17C684.48 225.28 691 234.18 688.66 239.9Z" fill="#8568F5" stroke="#263238" stroke-miterlimit="10"/>
<path d="M688.662 239.9L683.242 231.14" stroke="#263238" stroke-width="0.5" stroke-miterlimit="10"/>
<path d="M695.66 453.67H677.46L675.18 407.68H697.94L695.66 453.67Z" fill="#263238" stroke="#263238" stroke-miterlimit="10"/>
<path d="M127.02 86.3726C130.877 84.9398 132.842 80.6515 131.409 76.7946C129.977 72.9376 125.688 70.9725 121.831 72.4053C117.974 73.8382 116.009 78.1264 117.442 81.9834C118.875 85.8404 123.163 87.8055 127.02 86.3726Z" fill="white" stroke="#263238" stroke-miterlimit="10"/>
<path d="M157.641 80.8801H90.6406L114.091 52.8801H134.191L157.641 80.8801Z" fill="#263238"/>
<path d="M128.559 47.47H119.719V56.31H128.559V47.47Z" fill="#263238"/>
<path d="M124.5 49.1301V23.55" stroke="#263238" stroke-miterlimit="10"/>
<path d="M617.002 86.1902C620.752 84.4977 622.42 80.0854 620.728 76.3351C619.035 72.5848 614.623 70.9167 610.873 72.6092C607.122 74.3018 605.454 78.714 607.147 82.4643C608.839 86.2146 613.251 87.8827 617.002 86.1902Z" fill="white" stroke="#263238" stroke-miterlimit="10"/>
<path d="M647.141 80.8801H580.141L603.591 52.8801H623.691L647.141 80.8801Z" fill="#263238"/>
<path d="M618.059 47.47H609.219V56.31H618.059V47.47Z" fill="#263238"/>
<path d="M614 49.1301V23.55" stroke="#263238" stroke-miterlimit="10"/>
<path d="M471.419 103.1H216.719V259.03H471.419V103.1Z" fill="#263238" stroke="#263238" stroke-linecap="round" stroke-linejoin="round"/>
<path d="M462.938 110.1H225.188V252.04H462.938V110.1Z" fill="white" stroke="#263238" stroke-linecap="round" stroke-linejoin="round"/>
<path d="M341.368 199.25H326.918V215.71H341.368V199.25Z" fill="#263238"/>
<path d="M261.907 188.42H247.457V215.71H261.907V188.42Z" fill="#263238"/>
<path d="M281.77 177.16H267.32V215.71H281.77V177.16Z" fill="#8568F5"/>
<path d="M301.638 164.6H287.188V215.72H301.638V164.6Z" fill="#263238"/>
<path d="M321.497 194.49H307.047V215.72H321.497V194.49Z" fill="#8568F5"/>
<path d="M361.227 169.36H346.777V215.71H361.227V169.36Z" fill="#8568F5"/>
<path d="M381.091 161.13H366.641V215.71H381.091V161.13Z" fill="#263238"/>
<path d="M400.958 153.77H386.508V215.72H400.958V153.77Z" fill="#8568F5"/>
<path d="M420.817 176.29H406.367V215.71H420.817V176.29Z" fill="#263238"/>
<path d="M440.688 188.42H426.238V215.71H440.688V188.42Z" fill="#8568F5"/>
<path d="M309.398 131.6H378.738" stroke="#263238" stroke-linecap="round" stroke-linejoin="round"/>
<path d="M247.48 224.8H261.12" stroke="#263238" stroke-linecap="round" stroke-linejoin="round"/>
<path d="M267.418 224.8H281.058" stroke="#263238" stroke-linecap="round" stroke-linejoin="round"/>
<path d="M287.367 224.8H301.007" stroke="#263238" stroke-linecap="round" stroke-linejoin="round"/>
<path d="M307.309 224.8H320.949" stroke="#263238" stroke-linecap="round" stroke-linejoin="round"/>
<path d="M327.25 224.8H340.89" stroke="#263238" stroke-linecap="round" stroke-linejoin="round"/>
<path d="M347.199 224.8H360.839" stroke="#263238" stroke-linecap="round" stroke-linejoin="round"/>
<path d="M367.141 224.8H380.781" stroke="#263238" stroke-linecap="round" stroke-linejoin="round"/>
<path d="M387.09 224.8H400.73" stroke="#263238" stroke-linecap="round" stroke-linejoin="round"/>
<path d="M407.027 224.8H420.667" stroke="#263238" stroke-linecap="round" stroke-linejoin="round"/>
<path d="M426.969 224.8H440.609" stroke="#263238" stroke-linecap="round" stroke-linejoin="round"/>
<path d="M238.391 215.71H454.911" stroke="#263238" stroke-linecap="round" stroke-linejoin="round"/>
<path d="M238.391 210.03H242.931" stroke="#263238" stroke-linecap="round" stroke-linejoin="round"/>
<path d="M238.391 204.13H242.931" stroke="#263238" stroke-linecap="round" stroke-linejoin="round"/>
<path d="M238.391 198.24H242.931" stroke="#263238" stroke-linecap="round" stroke-linejoin="round"/>
<path d="M238.391 192.34H242.931" stroke="#263238" stroke-linecap="round" stroke-linejoin="round"/>
<path d="M238.391 186.45H242.931" stroke="#263238" stroke-linecap="round" stroke-linejoin="round"/>
<path d="M238.391 180.55H242.931" stroke="#263238" stroke-linecap="round" stroke-linejoin="round"/>
<path d="M238.391 174.66H242.931" stroke="#263238" stroke-linecap="round" stroke-linejoin="round"/>
<path d="M238.391 168.76H242.931" stroke="#263238" stroke-linecap="round" stroke-linejoin="round"/>
<path d="M238.391 162.87H242.931" stroke="#263238" stroke-linecap="round" stroke-linejoin="round"/>
<path d="M238.391 156.98H242.931" stroke="#263238" stroke-linecap="round" stroke-linejoin="round"/>
<path d="M238.391 151.08H242.931" stroke="#263238" stroke-linecap="round" stroke-linejoin="round"/>
<path d="M238.391 145.19H242.931" stroke="#263238" stroke-linecap="round" stroke-linejoin="round"/>
<path d="M300.408 146.41H290.048C289.821 146.41 289.597 146.455 289.388 146.542C289.178 146.629 288.988 146.757 288.828 146.917C288.669 147.078 288.542 147.269 288.456 147.479C288.37 147.689 288.327 147.913 288.328 148.14V155.27C288.328 155.727 288.509 156.166 288.831 156.49C289.154 156.814 289.591 156.998 290.048 157H293.048L295.048 161.16L297.048 157.03H300.418C300.876 157.028 301.315 156.844 301.639 156.521C301.962 156.197 302.146 155.758 302.148 155.3V148.17C302.152 147.94 302.11 147.711 302.024 147.497C301.938 147.283 301.811 147.088 301.649 146.924C301.487 146.76 301.293 146.63 301.08 146.542C300.867 146.454 300.639 146.409 300.408 146.41Z" fill="#C7C7C7"/>
<path d="M279.537 160.11H269.177C268.721 160.11 268.283 160.291 267.961 160.614C267.638 160.936 267.457 161.374 267.457 161.83V169C267.457 169.456 267.638 169.894 267.961 170.216C268.283 170.539 268.721 170.72 269.177 170.72H272.177L274.177 174.89L276.177 170.76H279.557C280.013 170.76 280.451 170.579 280.773 170.256C281.096 169.934 281.277 169.496 281.277 169.04V161.9C281.287 161.667 281.248 161.434 281.165 161.216C281.082 160.997 280.955 160.798 280.792 160.631C280.629 160.464 280.434 160.331 280.218 160.241C280.002 160.152 279.771 160.107 279.537 160.11Z" fill="#C7C7C7"/>
<path d="M259.539 169H249.179C248.72 169 248.28 169.182 247.956 169.507C247.631 169.831 247.449 170.271 247.449 170.73V177.86C247.452 178.318 247.635 178.757 247.959 179.081C248.283 179.404 248.721 179.587 249.179 179.59H252.179L254.179 183.76L256.179 179.62H259.559C260.016 179.617 260.454 179.434 260.776 179.11C261.098 178.786 261.279 178.347 261.279 177.89V170.76C261.285 170.529 261.243 170.3 261.158 170.085C261.073 169.87 260.945 169.675 260.783 169.511C260.62 169.346 260.427 169.217 260.213 169.129C259.999 169.041 259.77 168.997 259.539 169Z" fill="#C7C7C7"/>
<path d="M319.76 177.72H309.41C309.183 177.719 308.958 177.762 308.748 177.848C308.539 177.934 308.348 178.06 308.187 178.22C308.026 178.38 307.899 178.57 307.812 178.78C307.725 178.989 307.68 179.213 307.68 179.44V186.58C307.68 186.807 307.725 187.031 307.812 187.241C307.899 187.45 308.026 187.64 308.187 187.8C308.348 187.96 308.539 188.086 308.748 188.172C308.958 188.258 309.183 188.301 309.41 188.3H312.41L314.41 192.47L316.41 188.34H319.78C320.237 188.34 320.675 188.159 320.999 187.837C321.324 187.515 321.507 187.077 321.51 186.62V179.48C321.514 179.249 321.471 179.019 321.385 178.804C321.298 178.589 321.17 178.394 321.007 178.23C320.844 178.066 320.649 177.936 320.435 177.849C320.221 177.761 319.991 177.717 319.76 177.72Z" fill="#C7C7C7"/>
<path d="M339.76 181.41H329.41C328.951 181.41 328.511 181.592 328.186 181.917C327.862 182.241 327.68 182.681 327.68 183.14V190.27C327.678 190.498 327.722 190.723 327.809 190.934C327.895 191.144 328.023 191.335 328.183 191.496C328.344 191.657 328.536 191.785 328.746 191.871C328.957 191.958 329.182 192.001 329.41 192H332.41L334.41 196.17L336.41 192.04H339.78C340.007 192.041 340.233 191.998 340.443 191.911C340.654 191.825 340.845 191.697 341.006 191.536C341.167 191.375 341.294 191.184 341.381 190.974C341.467 190.763 341.511 190.538 341.51 190.31V183.18C341.515 182.948 341.474 182.717 341.388 182.501C341.302 182.285 341.174 182.089 341.01 181.924C340.847 181.758 340.652 181.628 340.437 181.54C340.222 181.451 339.992 181.407 339.76 181.41Z" fill="#C7C7C7"/>
<path d="M359.77 152.5H349.41C348.953 152.5 348.514 152.681 348.19 153.003C347.866 153.325 347.682 153.763 347.68 154.22V161.36C347.682 161.817 347.866 162.255 348.19 162.577C348.514 162.899 348.953 163.08 349.41 163.08H352.41L354.41 167.25L356.36 163.12H359.74C360.196 163.12 360.633 162.939 360.956 162.616C361.278 162.294 361.46 161.856 361.46 161.4V154.26C361.465 154.033 361.425 153.808 361.343 153.596C361.261 153.385 361.138 153.192 360.981 153.028C360.824 152.865 360.636 152.734 360.428 152.643C360.22 152.553 359.996 152.504 359.77 152.5Z" fill="#C7C7C7"/>
<path d="M379.33 143.58H369C368.542 143.583 368.103 143.766 367.779 144.09C367.455 144.414 367.272 144.852 367.27 145.31V152.44C367.27 152.899 367.452 153.339 367.776 153.663C368.101 153.988 368.541 154.17 369 154.17H372L374 158.34L376 154.21H379.37C379.597 154.211 379.823 154.168 380.033 154.081C380.244 153.995 380.435 153.867 380.596 153.706C380.757 153.545 380.884 153.354 380.971 153.144C381.057 152.933 381.101 152.708 381.1 152.48V145.35C381.105 145.116 381.063 144.884 380.976 144.666C380.889 144.449 380.759 144.252 380.593 144.086C380.428 143.921 380.231 143.791 380.013 143.704C379.796 143.617 379.563 143.575 379.33 143.58Z" fill="#C7C7C7"/>
<path d="M399.119 136.63H388.759C388.303 136.63 387.865 136.811 387.543 137.134C387.22 137.456 387.039 137.894 387.039 138.35V145.49C387.039 145.946 387.22 146.384 387.543 146.706C387.865 147.029 388.303 147.21 388.759 147.21H391.759L393.759 151.38L395.759 147.25H399.129C399.586 147.25 400.025 147.069 400.349 146.747C400.673 146.425 400.856 145.987 400.859 145.53V138.39C400.863 138.16 400.821 137.931 400.735 137.717C400.649 137.503 400.522 137.308 400.36 137.144C400.197 136.98 400.004 136.85 399.791 136.762C399.578 136.674 399.35 136.629 399.119 136.63Z" fill="#C7C7C7"/>
<path d="M418.471 159.24H408.111C407.885 159.24 407.661 159.285 407.452 159.371C407.244 159.457 407.054 159.584 406.894 159.744C406.735 159.904 406.608 160.093 406.522 160.302C406.435 160.51 406.391 160.734 406.391 160.96V168.1C406.391 168.326 406.435 168.55 406.522 168.758C406.608 168.967 406.735 169.157 406.894 169.316C407.054 169.476 407.244 169.603 407.452 169.689C407.661 169.776 407.885 169.82 408.111 169.82H411.111L413.111 173.99L415.111 169.86H418.481C418.938 169.86 419.376 169.679 419.7 169.357C420.025 169.035 420.208 168.597 420.211 168.14V161C420.215 160.769 420.172 160.54 420.087 160.326C420.001 160.112 419.873 159.918 419.711 159.754C419.549 159.59 419.356 159.46 419.143 159.372C418.93 159.283 418.701 159.239 418.471 159.24Z" fill="#C7C7C7"/>
<path d="M439.12 171H428.77C428.542 170.995 428.315 171.035 428.103 171.117C427.89 171.2 427.696 171.324 427.531 171.482C427.367 171.64 427.235 171.829 427.144 172.038C427.053 172.247 427.004 172.472 427 172.7V179.84C427.003 180.297 427.186 180.735 427.51 181.057C427.834 181.379 428.273 181.56 428.73 181.56H431.73L433.73 185.73L435.73 181.6H439.1C439.327 181.601 439.551 181.558 439.761 181.472C439.971 181.386 440.162 181.26 440.323 181.1C440.483 180.94 440.611 180.75 440.698 180.541C440.785 180.331 440.83 180.107 440.83 179.88V172.7C440.825 172.249 440.643 171.818 440.323 171.5C440.003 171.182 439.571 171.003 439.12 171Z" fill="#C7C7C7"/>
<path d="M374.36 218L369.26 211.92C369.26 211.92 367.31 206.09 365.85 204.15C364.39 202.21 360.75 201.96 356.38 199.29C352.01 196.62 350.3 196.86 351.03 200.02C351.76 203.18 356.86 206.58 356.86 206.58C356.86 206.58 347.15 206.34 346.42 206.09C345.69 205.84 339.13 203.91 337.67 202.93C336.21 201.95 333.3 202.93 334.75 206.09C336.2 209.25 340.83 216.09 344.23 218.49C347.63 220.89 346.9 221.4 353.46 222.37C360.02 223.34 361.72 223.1 361.72 223.1L365.61 226.75L374.36 218Z" fill="#FDD8BA" stroke="#263238" stroke-linecap="round" stroke-linejoin="round"/>
<path d="M342.528 216.76C342.528 216.76 338.398 202.67 340.828 204.62C343.258 206.57 348.118 214.82 348.118 214.82C348.118 214.82 359.538 213.12 362.698 216.52" fill="#FDD8BA"/>
<path d="M342.528 216.76C342.528 216.76 338.398 202.67 340.828 204.62C343.258 206.57 348.118 214.82 348.118 214.82C348.118 214.82 359.538 213.12 362.698 216.52" stroke="#263238" stroke-linecap="round" stroke-linejoin="round"/>
<path d="M381.16 223.32L372.42 216.52L363.43 226.97L373.14 233.29L381.16 223.32Z" fill="white" stroke="#263238" stroke-linecap="round" stroke-linejoin="round"/>
<path d="M430.611 285.09L428.871 296.09C428.871 296.09 422.871 313.34 423.121 316.59C423.371 319.84 430.491 415.59 430.491 415.59H509.211C509.211 415.59 506.091 313.07 505.841 310.59C505.591 308.11 503.381 290.15 503.381 290.15C503.381 290.15 457.601 290.35 456.111 290.1C454.621 289.85 429.871 283.1 429.871 283.1L430.611 285.09Z" fill="#263238" stroke="#263238" stroke-linecap="round" stroke-linejoin="round"/>
<path d="M452.109 332.07L469.849 337.07" stroke="#696969" stroke-linecap="round" stroke-linejoin="round"/>
<path d="M463.102 335.57L466.162 413.04" stroke="#696969" stroke-linecap="round" stroke-linejoin="round"/>
<path d="M467.852 301.58C486.252 300.91 494.372 300.03 503.802 293.53L503.382 290.14C503.382 290.14 457.602 290.34 456.112 290.09C454.622 289.84 429.872 283.09 429.872 283.09L430.612 285.09L429.352 293.09C435.242 295.81 450.872 302.2 467.852 301.58Z" fill="#878787" stroke="#263238" stroke-linecap="round" stroke-linejoin="round"/>
<path d="M458.602 297.33V300.83L467.852 301.58L468.392 297.43L458.602 297.33Z" fill="white" stroke="#263238" stroke-linecap="round" stroke-linejoin="round"/>
<path d="M457.938 181.53C457.938 181.53 423.678 191 422.708 192C421.738 193 417.118 220.67 417.118 220.67L408.118 235.01L382.368 221.4C382.368 221.4 377.258 223.83 376.048 225.29C374.838 226.75 368.048 234.29 370.218 236.71C372.388 239.13 403.218 261.01 407.878 263.92C412.538 266.83 414.438 267.57 416.628 265.14C418.818 262.71 429.508 247.89 429.508 247.89L428.998 279.21C428.998 279.21 425.838 280.43 426.568 283.34C426.961 285.018 427.708 286.593 428.758 287.96H431.668C431.668 287.96 443.578 298.41 468.358 297.43C493.138 296.45 501.408 292.57 503.358 290.14C505.308 287.71 505.548 287.72 505.058 285.77C504.72 284.246 504.477 282.703 504.328 281.15L511.138 238.63L530.598 252C530.598 252 549.308 254.91 552.458 252.73C555.608 250.55 556.588 249.08 554.168 244.73C551.748 240.38 531.568 216.54 531.568 216.54C531.568 216.54 523.788 197.35 522.568 195.65C521.348 193.95 489.278 181.55 489.278 181.55L457.938 181.53Z" fill="white" stroke="#263238" stroke-linecap="round" stroke-linejoin="round"/>
<path d="M408.129 235C408.129 235 411.479 239.4 411.719 243.11" stroke="#263238" stroke-linecap="round" stroke-linejoin="round"/>
<path d="M429.52 247.87V217.74L427.57 207.77" stroke="#263238" stroke-linecap="round" stroke-linejoin="round"/>
<path d="M424.619 210.62L423.199 207.29" stroke="#263238" stroke-linecap="round" stroke-linejoin="round"/>
<path d="M429.519 222.11L426.109 214.12" stroke="#263238" stroke-linecap="round" stroke-linejoin="round"/>
<path d="M511.16 238.63L517.23 209.72" stroke="#263238" stroke-linecap="round" stroke-linejoin="round"/>
<path d="M519.168 218.26C516.918 221.66 514.538 225.58 513.828 227.94" stroke="#263238" stroke-linecap="round" stroke-linejoin="round"/>
<path d="M523.791 211.66C523.791 211.66 522.791 213.04 521.371 215.04" stroke="#263238" stroke-linecap="round" stroke-linejoin="round"/>
<path d="M522.328 227.21C522.328 227.21 527.438 220.41 533.748 220.41" stroke="#263238" stroke-linecap="round" stroke-linejoin="round"/>
<path d="M489.719 275.93C495.119 268.64 502.879 257.98 505.329 253.7" stroke="#263238" stroke-linecap="round" stroke-linejoin="round"/>
<path d="M484.191 283.34C484.191 283.34 485.421 281.71 487.301 279.19" stroke="#263238" stroke-linecap="round" stroke-linejoin="round"/>
<path d="M502.41 269.98L493.66 283.34" stroke="#263238" stroke-linecap="round" stroke-linejoin="round"/>
<path d="M465.001 174C465.001 174 462.091 174.24 461.361 175C460.631 175.76 455.281 181.81 455.281 181.81C455.281 181.81 456.011 204.16 457.281 203.43C458.551 202.7 467.971 193.95 468.941 192.98C469.911 192.01 483.001 204.13 483.701 204.62C484.401 205.11 484.921 207.29 485.641 205.1C486.361 202.91 493.641 183.72 492.931 181.78C492.221 179.84 487.591 174 487.591 174C487.591 174 469.851 177.64 465.001 174Z" fill="white" stroke="#263238" stroke-linecap="round" stroke-linejoin="round"/>
<path d="M459.65 126.86C459.65 126.86 453.08 135.86 453.57 137.8C454.06 139.74 452.57 143.14 452.57 143.14C452.57 143.14 443.82 149.94 444.79 151.89C445.796 153.51 447.025 154.981 448.44 156.26C448.44 156.26 448.2 173.26 450.38 173.26C452.56 173.26 461.32 173.75 461.32 173.75C461.32 173.75 468.61 200.47 471.04 199.02C473.47 197.57 487.32 175.93 487.32 175.93L489.99 165.73C489.99 165.73 499.99 161.35 502.87 147.02C505.75 132.69 497.76 124.18 492.66 120.53C487.56 116.88 477.11 116.4 477.11 116.4C477.11 116.4 481 113.97 477.11 112.27C473.22 110.57 467.88 113 467.88 113C467.88 113 467.63 106.68 462.05 110.09C456.47 113.5 449.68 120.06 459.65 126.86Z" fill="#FDD8BA" stroke="#263238" stroke-linecap="round" stroke-linejoin="round"/>
<path d="M492.691 120.54C487.591 116.9 477.141 116.41 477.141 116.41C477.141 116.41 481.031 113.98 477.141 112.28C473.251 110.58 467.911 113.01 467.911 113.01C467.911 113.01 467.661 106.69 462.081 110.1C456.501 113.51 449.681 120.1 459.651 126.86C459.651 126.86 479.811 128.56 474.471 131.96C469.131 135.36 466.691 135.61 470.341 138.04C473.991 140.47 477.141 145.81 477.141 145.81C477.141 145.81 474.471 151.16 475.681 152.13C476.891 153.1 478.351 153.35 479.331 151.89C480.311 150.43 483.211 145.33 487.331 146.54C491.451 147.75 490.971 153.1 487.811 156.54C485.745 158.654 483.141 160.165 480.281 160.91C480.281 160.91 486.111 164.31 488.051 165.04C489.092 165.245 490.161 165.268 491.211 165.11C493.951 163.43 500.591 158.32 502.881 147.06C505.811 132.69 497.791 124.19 492.691 120.54Z" fill="#263238" stroke="#263238" stroke-linecap="round" stroke-linejoin="round"/>
<path d="M452.359 159.42C452.359 159.42 456.969 159.18 459.159 156.75C459.159 156.75 458.669 161.61 456.969 161.85C455.269 162.09 452.359 159.42 452.359 159.42Z" fill="#E9E7E7" stroke="#263238" stroke-linecap="round" stroke-linejoin="round"/>
<path d="M459.398 143.75C459.398 144.75 458.968 145.57 458.398 145.57C457.828 145.57 457.398 144.76 457.398 143.75C457.398 142.74 457.828 141.93 458.398 141.93C458.968 141.93 459.398 142.74 459.398 143.75Z" fill="#263238"/>
<path d="M456 140.23C456 140.23 459.89 137.8 461.83 140.95" stroke="#263238" stroke-linecap="round" stroke-linejoin="round"/>
<path d="M461.352 173.76L469.612 173.51L474.472 168.41L464.992 184.69L461.352 173.76Z" fill="#263238" stroke="#263238" stroke-linecap="round" stroke-linejoin="round"/>
<path d="M509 235.47L501.47 231.59C500.417 230.137 499.097 228.899 497.58 227.94C495.64 226.94 493.94 227.94 488.1 226.24C482.26 224.54 480.1 224.78 481.1 227.46C482.1 230.14 488.1 230.37 488.1 230.37L490.53 231.83L474.22 235L465.92 238.59C465.732 238.676 465.575 238.819 465.471 238.998C465.367 239.177 465.321 239.384 465.34 239.59C465.384 239.841 465.523 240.066 465.727 240.218C465.932 240.371 466.187 240.439 466.44 240.41L473.74 239.34L482.11 238.74L468.61 244.91C468.335 245.056 468.114 245.286 467.979 245.567C467.844 245.848 467.802 246.164 467.86 246.47C467.895 246.675 467.973 246.87 468.089 247.042C468.206 247.214 468.358 247.36 468.535 247.469C468.712 247.578 468.91 247.647 469.116 247.673C469.322 247.7 469.531 247.681 469.73 247.62L483 244.5L474.4 251.15C474.144 251.32 473.956 251.574 473.868 251.868C473.78 252.162 473.799 252.478 473.92 252.76C474.058 253.075 474.316 253.323 474.636 253.449C474.957 253.574 475.314 253.568 475.63 253.43L484.06 249.79L479.92 255.17C479.808 255.313 479.747 255.489 479.747 255.67C479.747 255.851 479.808 256.027 479.92 256.17C480.05 256.33 480.235 256.435 480.439 256.465C480.643 256.495 480.85 256.446 481.02 256.33C482.93 254.98 488.65 250.97 489.26 250.77C489.87 250.57 495.82 248.1 496.79 247.86C497.76 247.62 501.41 246.4 501.41 246.4L509.18 249.07L509 235.47Z" fill="#FDD8BA" stroke="#263238" stroke-linecap="round" stroke-linejoin="round"/>
<path d="M516.258 236.69L508.998 235.47L507.508 251L515.768 252.71C515.768 252.71 516.748 239.6 516.258 236.69Z" fill="white" stroke="#263238" stroke-linecap="round" stroke-linejoin="round"/>
<path d="M549.789 238.63C549.789 238.63 517.469 233.77 516.259 236.69C515.049 239.61 512.859 254.18 516.019 255.4C519.179 256.62 549.019 268.28 551.489 266.33C553.959 264.38 558.779 259.33 558.779 253.7C558.779 248.07 549.789 238.63 549.789 238.63Z" fill="white" stroke="#263238" stroke-linecap="round" stroke-linejoin="round"/>
<path d="M70.1719 472.84L257.882 376.91H509.212L693.772 472.84" fill="white"/>
<path d="M70.1719 472.84L257.882 376.91H509.212L693.772 472.84" stroke="#263238" stroke-linecap="round" stroke-linejoin="round"/>
<path d="M376.941 401.61L345.711 421.58L391.281 426.19L417.391 405.71L376.941 401.61Z" fill="white" stroke="#263238" stroke-linecap="round" stroke-linejoin="round"/>
<path d="M402.028 408.78L368.238 432.33L412.778 436.94L441.968 413.9L402.028 408.78Z" fill="white" stroke="#263238" stroke-linecap="round" stroke-linejoin="round"/>
<path d="M331.88 402.13L319.59 431.31L363.63 432.85L370.8 403.15L331.88 402.13Z" fill="white" stroke="#263238" stroke-linecap="round" stroke-linejoin="round"/>
<path d="M446.973 393.38L495.303 391.99L524.793 420.59L468.623 422.27L446.973 393.38Z" fill="#C7C7C7" stroke="#263238" stroke-linecap="round" stroke-linejoin="round"/>
<path d="M497.331 398.22L482.031 399.17L496.011 414.28L512.451 413.14L497.331 398.22Z" fill="#C7C7C7" stroke="#263238" stroke-linecap="round" stroke-linejoin="round"/>
<path d="M457.59 397.14L476.33 396.61L494.47 417.4L473.33 418.14L457.59 397.14Z" fill="#263238" stroke="#263238" stroke-linecap="round" stroke-linejoin="round"/>
<path d="M468.621 422.27L455.841 370.59L435.031 350.09L446.971 393.38L468.621 422.27Z" fill="#878787" stroke="#263238" stroke-linecap="round" stroke-linejoin="round"/>
<path d="M619.25 343.19L644.81 350C647.118 350.616 649.188 351.912 650.75 353.72C652.084 355.254 653.004 357.104 653.422 359.094C653.841 361.084 653.743 363.148 653.14 365.09L630.86 439.31L598.34 422.73L619.25 343.19Z" fill="#263238" stroke="#263238" stroke-linecap="round" stroke-linejoin="round"/>
<path d="M562.292 317.75C562.292 317.75 548.002 323 545.882 325.3C543.762 327.6 537.802 367.5 537.802 367.5C537.802 367.5 531.802 369.58 531.802 371.15V372.71C531.802 372.71 525.292 375.57 522.952 377.4C520.612 379.23 519.822 379.48 522.952 382.61C526.082 385.74 530.762 391.46 536.232 393.29C541.702 395.12 542.862 395.35 542.862 395.35L608.222 428C608.222 428 628.712 333.61 628.972 331.52C629.232 329.43 598.232 314.07 595.372 312.52C592.512 310.97 562.292 317.75 562.292 317.75Z" fill="#8568F5" stroke="#263238" stroke-linecap="round" stroke-linejoin="round"/>
<path d="M564.109 316.19C564.109 316.19 561.249 319.31 561.509 320.62C561.769 321.93 562.509 329.21 562.509 331.03V342L571.629 318.3L570.059 313.87L564.109 316.19Z" fill="#8568F5" stroke="#263238" stroke-linecap="round" stroke-linejoin="round"/>
<path d="M597.189 305.51L590.349 302.45L567.999 320.88C565.93 325.247 564.525 329.898 563.829 334.68C562.529 343.02 560.449 368.54 560.449 368.54C560.449 368.54 570.599 346.92 571.909 344.54C573.219 342.16 573.469 332.3 573.469 332.3C573.469 332.3 585.969 328.13 589.879 320.84C593.789 313.55 597.189 305.51 597.189 305.51Z" fill="#DAD5D5" stroke="#263238" stroke-linecap="round" stroke-linejoin="round"/>
<path d="M541.452 280.24C541.452 280.24 542.452 286.49 543.272 287.8C544.092 289.11 545.102 294.31 545.102 294.31C545.102 294.31 544.582 301.6 545.882 303.94C547.182 306.28 554.212 319.31 557.602 319.83C560.992 320.35 566.462 318.01 566.462 318.01L566.982 324.26C566.982 324.26 570.622 326.61 579.222 322.96C587.822 319.31 591.982 313.32 592.502 310.96C593.022 308.6 588.342 297.15 588.342 297.15V290.4C589.633 288.762 590.576 286.877 591.112 284.862C591.649 282.847 591.768 280.743 591.462 278.68C590.462 271.68 591.982 269.56 578.182 265.92C564.382 262.28 547.702 268 543.802 270.6C539.902 273.2 541.452 280.24 541.452 280.24Z" fill="#D6B3A6" stroke="#263238" stroke-linecap="round" stroke-linejoin="round"/>
<path d="M573.23 279.46L575.31 281.28L576.091 287.01C576.091 287.01 578.7 288.84 579.48 286.23C580.26 283.62 578.961 279.23 582.081 277.64C585.201 276.05 588.081 275.55 588.081 281.02C588.081 286.49 585.211 295.35 585.211 295.35C585.211 295.35 587.821 298.48 588.341 297.17C588.861 295.86 592.5 274.51 592.5 274.51C589.768 272.864 586.893 271.469 583.91 270.34C580.52 269.3 573.23 279.46 573.23 279.46Z" fill="#263238" stroke="#263238" stroke-linecap="round" stroke-linejoin="round"/>
<path d="M563.07 271.13C563.07 271.13 556.56 273.99 556.07 277.13C555.58 280.27 551.9 285.2 546.43 285.2C540.96 285.2 541.48 279.2 538.36 278.95C535.24 278.7 529.5 279.73 529.5 270.35C529.5 260.97 536.01 260.46 538.62 258.63C541.23 256.8 537.83 256.55 542 251.34C546.17 246.13 549.82 247.95 553.46 247.95C557.1 247.95 556.07 243 562.58 242.48C569.09 241.96 571.44 244.05 572.48 245.35C573.52 246.65 578.99 245.09 582.9 247.69C586.81 250.29 587.06 252.64 589.15 254.99C591.24 257.34 595.15 255.77 594.62 260.99C594.09 266.21 592.53 268.54 593.32 269.84C594.11 271.14 595.66 271.15 594.88 273.49C594.1 275.83 591.23 277.92 591.49 278.7C591.75 279.48 585.49 280 582.11 277.7C578.73 275.4 579.51 279.52 573.26 279.52C567.01 279.52 562.29 274.51 563.07 271.13Z" fill="#263238" stroke="#263238" stroke-linecap="round" stroke-linejoin="round"/>
<path d="M579.48 286.23C579.48 286.23 579.741 280.23 582.081 277.64C584.421 275.05 588.6 278.16 587.82 283.89C587.04 289.62 583.65 295.89 581.04 295.61" fill="#D6B3A6"/>
<path d="M579.48 286.23C579.48 286.23 579.741 280.23 582.081 277.64C584.421 275.05 588.6 278.16 587.82 283.89C587.04 289.62 583.65 295.89 581.04 295.61" stroke="#263238" stroke-linecap="round" stroke-linejoin="round"/>
<path d="M567.001 324.26C567.001 324.26 570.641 326.61 579.241 322.96C587.841 319.31 592.001 313.32 592.521 310.96C592.801 309.69 591.521 305.78 590.371 302.43C583.261 313.34 566.461 318 566.461 318L567.001 324.26Z" fill="#DCD9D9" stroke="#263238" stroke-linecap="round" stroke-linejoin="round"/>
<path d="M566.461 318.01L578.441 308.37L573.751 314.88L566.461 318.01Z" fill="#263238" stroke="#263238" stroke-linecap="round" stroke-linejoin="round"/>
<path d="M551.352 305.51C551.352 305.51 557.352 309.15 564.352 301.86" stroke="#263238" stroke-linecap="round" stroke-linejoin="round"/>
<path d="M562.101 291.86C562.521 293.16 562.361 294.38 561.751 294.58C561.141 294.78 560.291 293.88 559.871 292.58C559.451 291.28 559.611 290.07 560.221 289.87C560.831 289.67 561.681 290.56 562.101 291.86Z" fill="#263238"/>
<path d="M550.121 291.86C550.541 293.16 550.381 294.38 549.771 294.58C549.161 294.78 548.311 293.88 547.891 292.58C547.471 291.28 547.631 290.07 548.241 289.87C548.851 289.67 549.701 290.56 550.121 291.86Z" fill="#263238"/>
<path d="M557.602 287.54C557.602 287.54 562.552 284.93 565.152 288.06" stroke="#263238" stroke-linecap="round" stroke-linejoin="round"/>
<path d="M545.102 287.27C545.102 287.27 548.742 285.97 549.272 287.54L551.352 291.96L550.052 303.42L556.822 302.12" stroke="#263238" stroke-linecap="round" stroke-linejoin="round"/>
<path d="M597.192 305.51C597.192 305.51 581.042 327.91 573.492 332.34L579.222 342.23C579.222 342.23 594.852 328.17 597.712 321.92L600.582 315.67L597.192 305.51Z" fill="#8568F5" stroke="#263238" stroke-linecap="round" stroke-linejoin="round"/>
<path d="M600.062 340.15L594.852 385.47C594.852 385.47 591.722 385.47 591.722 387.56C591.686 389.046 591.512 390.526 591.202 391.98L538.592 402.4C538.592 402.4 519.592 399.8 518.012 400.32C516.432 400.84 512.072 404.9 510.512 406.2C508.952 407.5 502.582 413.4 503.622 414.96C504.662 416.52 509.102 412.77 509.102 412.77C509.102 412.77 505.252 418.29 507.332 417.77C509.412 417.25 512.072 414.34 512.072 414.34L516.142 411.83C516.142 411.83 511.242 418.29 512.802 418.03C514.362 417.77 517.232 415.69 517.232 415.69L519.052 414.69C519.052 414.69 515.662 418.07 517.492 418.59C519.322 419.11 523.222 414.95 523.222 414.95L526.602 412.86C527.72 413.436 528.944 413.78 530.199 413.869C531.453 413.958 532.713 413.792 533.902 413.38C538.332 412.08 541.452 410.78 541.452 410.78C541.452 410.78 604.452 416.51 608.652 415.21C612.852 413.91 616.992 413.64 618.032 411.3C619.072 408.96 627.932 333.16 628.972 331.59C630.012 330.02 612.562 323.26 612.562 323.26" fill="#8568F5"/>
<path d="M600.062 340.15L594.852 385.47C594.852 385.47 591.722 385.47 591.722 387.56C591.686 389.046 591.512 390.526 591.202 391.98L538.592 402.4C538.592 402.4 519.592 399.8 518.012 400.32C516.432 400.84 512.072 404.9 510.512 406.2C508.952 407.5 502.582 413.4 503.622 414.96C504.662 416.52 509.102 412.77 509.102 412.77C509.102 412.77 505.252 418.29 507.332 417.77C509.412 417.25 512.072 414.34 512.072 414.34L516.142 411.83C516.142 411.83 511.242 418.29 512.802 418.03C514.362 417.77 517.232 415.69 517.232 415.69L519.052 414.69C519.052 414.69 515.662 418.07 517.492 418.59C519.322 419.11 523.222 414.95 523.222 414.95L526.602 412.86C527.72 413.436 528.944 413.78 530.199 413.869C531.453 413.958 532.713 413.792 533.902 413.38C538.332 412.08 541.452 410.78 541.452 410.78C541.452 410.78 604.452 416.51 608.652 415.21C612.852 413.91 616.992 413.64 618.032 411.3C619.072 408.96 627.932 333.16 628.972 331.59C630.012 330.02 612.562 323.26 612.562 323.26" stroke="#263238" stroke-linecap="round" stroke-linejoin="round"/>
<path d="M563.602 397.45L538.602 402.4L550.272 400.09C552.142 401.93 554.272 405.43 554.572 411.89C558.372 412.21 562.732 412.58 567.302 412.95C570.102 403.44 564.412 398.14 563.602 397.45Z" fill="#8568F5" stroke="#263238" stroke-linecap="round" stroke-linejoin="round"/>
<path d="M593 392.89C593 392.89 606.62 397.59 611 401.66C615.38 405.73 606.46 394.46 600.51 391.48" stroke="#263238" stroke-linecap="round" stroke-linejoin="round"/>
<path d="M550.262 400.09L538.592 402.4C538.592 402.4 519.592 399.8 518.012 400.32C516.432 400.84 512.072 404.9 510.512 406.2C508.952 407.5 502.582 413.4 503.622 414.96C504.662 416.52 509.102 412.77 509.102 412.77C509.102 412.77 505.252 418.29 507.332 417.77C509.412 417.25 512.072 414.34 512.072 414.34L516.142 411.83C516.142 411.83 511.242 418.29 512.802 418.03C514.362 417.77 517.232 415.69 517.232 415.69L519.052 414.69C519.052 414.69 515.662 418.07 517.492 418.59C519.322 419.11 523.222 414.95 523.222 414.95L526.602 412.86C527.72 413.436 528.944 413.78 530.199 413.869C531.453 413.958 532.713 413.792 533.902 413.38C538.332 412.08 541.452 410.78 541.452 410.78C541.452 410.78 546.842 411.27 554.562 411.93C554.282 405.43 552.132 401.93 550.262 400.09Z" fill="#D6B3A6" stroke="#263238" stroke-linecap="round" stroke-linejoin="round"/>
<path d="M519.051 414.65C519.051 414.65 523.661 409.96 525.541 409.33" stroke="#263238" stroke-linecap="round" stroke-linejoin="round"/>
<path d="M516.141 411.83C516.141 411.83 520.841 406.67 522.721 406.04" stroke="#263238" stroke-linecap="round" stroke-linejoin="round"/>
<path d="M509.102 412.77C509.102 412.77 516.462 404.32 519.102 403.22" stroke="#263238" stroke-linecap="round" stroke-linejoin="round"/>
<path d="M522.001 380.1L516.061 387.56C516.061 387.56 497.941 388.17 494.891 388.93C491.841 389.69 487.891 398.67 487.891 400.5C487.891 402.33 489.721 402.18 490.631 400.96C491.541 399.74 494.281 394.11 494.281 394.11C494.281 394.11 491.281 402.94 491.281 403.85C491.281 404.76 493.281 403.85 493.281 403.85C493.281 403.85 493.131 405.68 494.191 406.14C495.251 406.6 497.691 405.07 497.691 405.07C497.691 405.07 498.301 406.29 500.131 405.22C501.961 404.15 506.371 397 507.591 396.22C508.811 395.44 512.311 396.07 512.311 396.07C512.311 396.07 508.811 397.74 507.441 400.63C506.071 403.52 506.371 404.44 507.291 404.14C508.211 403.84 511.291 400.79 513.071 399.87C514.851 398.95 519.471 399.26 520.841 398.65C522.211 398.04 534.551 391.34 534.551 391.34C534.551 391.34 534.391 384.49 530.281 381.75C529.077 380.943 527.726 380.382 526.305 380.099C524.884 379.816 523.421 379.816 522.001 380.1Z" fill="#D6B3A6" stroke="#263238" stroke-linecap="round" stroke-linejoin="round"/>
<path d="M530.26 381.77C529.061 380.962 527.714 380.399 526.297 380.112C524.879 379.826 523.419 379.822 522 380.1L518.23 384.83C520.795 385.033 523.199 386.158 524.999 387.996C526.798 389.834 527.872 392.262 528.021 394.83L534.49 391.33C534.49 391.33 534.37 384.51 530.26 381.77Z" fill="#8568F5" stroke="#263238" stroke-linecap="round" stroke-linejoin="round"/>
<path d="M516.102 387.56C516.102 387.56 520.672 387.25 522.042 390.56" stroke="#263238" stroke-linecap="round" stroke-linejoin="round"/>
<path d="M493.262 403.85L498.892 391.67" stroke="#263238" stroke-linecap="round" stroke-linejoin="round"/>
<path d="M497.672 405.07L502.852 392.43" stroke="#263238" stroke-linecap="round" stroke-linejoin="round"/>
<path d="M494.32 394.11L495.85 391.21" stroke="#263238" stroke-linecap="round" stroke-linejoin="round"/>
<path d="M542.871 395.35L543.871 382.99C543.871 382.99 543.261 377.05 543.261 371.72C543.261 366.39 549.651 332.28 549.651 332.28" stroke="#263238" stroke-linecap="round" stroke-linejoin="round"/>
<path d="M558.892 372.94C558.892 372.94 558.742 381.47 558.282 386.04C557.792 389.607 556.979 393.121 555.852 396.54" stroke="#263238" stroke-linecap="round" stroke-linejoin="round"/>
<path d="M328.811 392.75L276.241 391.28L246.941 421.37L306.031 423.13L328.811 392.75Z" fill="#C7C7C7" stroke="#263238" stroke-linecap="round" stroke-linejoin="round"/>
<path d="M276.881 396.09L290.451 396.51L277.091 413.27L262.031 412.42L276.881 396.09Z" fill="#C7C7C7" stroke="#263238" stroke-linecap="round" stroke-linejoin="round"/>
<path d="M317.63 396.69L295.97 396.09L280.48 417.51L301.07 418.79L317.63 396.69Z" fill="#263238" stroke="#263238" stroke-linecap="round" stroke-linejoin="round"/>
<path d="M306.031 423.13L319.471 368.77L341.371 347.2L328.811 392.75L306.031 423.13Z" fill="#878787" stroke="#263238" stroke-linecap="round" stroke-linejoin="round"/>
<path d="M293.86 365.33C293.86 365.33 298.53 369.33 297.79 370.53C297.05 371.73 296.09 371.17 294.71 370.74C293.33 370.31 288.23 366.92 288.23 366.92C288.23 366.92 292.69 364.48 293.86 365.33Z" stroke="#263238" stroke-linecap="round" stroke-linejoin="round"/>
<path d="M288.231 366.92C288.231 366.92 296.301 372.97 295.451 373.82C294.601 374.67 293.751 374.25 291.311 373.61C288.871 372.97 285.051 369.61 285.051 369.61L288.231 366.92Z" fill="#FDD8BA" stroke="#263238" stroke-linecap="round" stroke-linejoin="round"/>
<path d="M285.162 371C285.162 371 289.722 374.93 289.612 375.36C289.502 375.79 288.982 376.63 287.282 376.31C285.582 375.99 282.082 373.31 282.082 373.31L285.162 371Z" fill="#FDD8BA" stroke="#263238" stroke-linecap="round" stroke-linejoin="round"/>
<path d="M265.473 373.38C265.473 373.38 278.793 360.87 279.213 360.66C283.314 359.839 287.462 359.271 291.633 358.96C294.183 358.96 300.763 364.16 299.913 364.69C299.063 365.22 294.293 363.95 294.293 363.95H291.533C291.533 363.95 285.583 370.74 280.173 373.95C275.838 376.31 271.328 378.333 266.683 380L265.473 373.38Z" fill="#FDD8BA" stroke="#263238" stroke-linecap="round" stroke-linejoin="round"/>
<path d="M277.442 365.66C277.164 365.675 276.891 365.578 276.684 365.391C276.477 365.205 276.352 364.944 276.337 364.665C276.323 364.387 276.419 364.114 276.606 363.907C276.793 363.699 277.054 363.575 277.332 363.56L306.132 360.9C306.272 360.886 306.411 360.928 306.519 361.016C306.628 361.104 306.697 361.231 306.712 361.37C306.721 361.438 306.715 361.508 306.697 361.574C306.678 361.64 306.646 361.702 306.604 361.756C306.561 361.81 306.508 361.855 306.447 361.888C306.387 361.922 306.321 361.943 306.252 361.95L277.562 365.66H277.442Z" fill="#263238"/>
<path d="M277.302 367.77C277.302 367.77 287.702 363.2 289.302 362.67C290.902 362.14 300.302 364.16 299.912 364.67C299.522 365.18 299.812 366.05 297.792 366.58C295.772 367.11 291.102 366.79 291.102 366.79C291.102 366.79 285.262 372.21 282.182 374.65C279.102 377.09 276.662 378.65 273.582 379C271.678 379.192 269.761 379.229 267.852 379.11" fill="#FDD8BA"/>
<path d="M277.302 367.77C277.302 367.77 287.702 363.2 289.302 362.67C290.902 362.14 300.302 364.16 299.912 364.67C299.522 365.18 299.812 366.05 297.792 366.58C295.772 367.11 291.102 366.79 291.102 366.79C291.102 366.79 285.262 372.21 282.182 374.65C279.102 377.09 276.662 378.65 273.582 379C271.678 379.192 269.761 379.229 267.852 379.11" stroke="#263238" stroke-linecap="round" stroke-linejoin="round"/>
<path d="M257.711 374.62L265.461 373.38L267.021 383.61L258.951 385.16L257.711 374.62Z" fill="white" stroke="#263238" stroke-linecap="round" stroke-linejoin="round"/>
<path d="M170.863 323.05C170.863 323.05 182.683 325.32 187.653 328.73C192.623 332.14 203.833 356.57 205.653 360.6C207.473 364.63 211.573 373.69 211.573 373.69C211.573 373.69 214.983 371.83 216.573 373.38C217.502 374.319 218.147 375.501 218.433 376.79C218.433 376.79 255.233 371.79 257.713 374.62C260.193 377.45 259.573 382.06 258.953 385.16C258.333 388.26 258.643 388.26 254.953 389.81C251.263 391.36 214.673 401.51 204.133 403.06C193.593 404.61 194.193 395.06 194.193 395.06C194.193 395.06 197.003 371.52 184.543 356C172.083 340.48 168.663 334.16 167.003 329.12C165.343 324.08 170.863 323.05 170.863 323.05Z" fill="white" stroke="#263238" stroke-linecap="round" stroke-linejoin="round"/>
<path d="M218.429 376.79C218.429 376.79 211.269 387.67 208.879 390.32" stroke="#263238" stroke-linecap="round" stroke-linejoin="round"/>
<path d="M211.273 375.46L206.223 379.97" stroke="#263238" stroke-linecap="round" stroke-linejoin="round"/>
<path d="M116.941 354.63L90.0508 361.83C87.6225 362.477 85.4449 363.84 83.8008 365.74C82.3945 367.361 81.425 369.313 80.984 371.413C80.5431 373.513 80.6452 375.691 81.2808 377.74L104.911 454.16L137.501 437.16L116.941 354.63Z" fill="#263238" stroke="#263238" stroke-linecap="round" stroke-linejoin="round"/>
<path d="M182.181 333.26C182.181 333.26 183.831 336.58 193.181 345.96C201.881 354.66 205.181 365.18 203.181 377.45C201.591 387.19 201.741 397.45 199.701 407.1L137.501 437.1L115.641 340.67C115.641 340.67 134.141 329.35 146.011 325.48C157.881 321.61 167.011 322.17 170.861 323C174.711 323.83 177.481 324.65 177.481 324.65" fill="#E9E2E2"/>
<path d="M182.181 333.26C182.181 333.26 183.831 336.58 193.181 345.96C201.881 354.66 205.181 365.18 203.181 377.45C201.591 387.19 201.741 397.45 199.701 407.1L137.501 437.1L115.641 340.67C115.641 340.67 134.141 329.35 146.011 325.48C157.881 321.61 167.011 322.17 170.861 323C174.711 323.83 177.481 324.65 177.481 324.65" stroke="#263238" stroke-linecap="round" stroke-linejoin="round"/>
<path d="M177.723 351.67C177.723 351.67 191.063 364.67 191.993 372.14C192.923 379.61 191.683 398.14 191.683 398.14" stroke="#263238" stroke-linecap="round" stroke-linejoin="round"/>
<path d="M174.452 347.9L176.102 330.78L167.002 329.12C166.152 330.514 165.614 332.074 165.425 333.695C165.235 335.316 165.397 336.958 165.902 338.51C167.542 344 174.452 347.9 174.452 347.9Z" fill="white" stroke="#263238" stroke-linecap="round" stroke-linejoin="round"/>
<path d="M176.101 330.78L183.841 342.1L175.281 340.99L176.101 330.78Z" fill="white" stroke="#263238" stroke-linecap="round" stroke-linejoin="round"/>
<path d="M181.899 262C181.899 262 184.389 267 184.659 270.83C184.929 274.66 183.559 276.63 185.769 279.12C187.979 281.61 195.979 281.05 194.329 284.64C193.235 286.914 191.737 288.97 189.909 290.71C189.909 290.71 188.249 299.55 187.419 305.35C186.589 311.15 187.149 311.7 184.109 312.25C181.069 312.8 175.829 311.97 175.829 311.97C173.083 316.286 171.12 321.052 170.029 326.05C169.014 330.588 168.919 335.284 169.749 339.86L154.569 331.58C154.569 331.58 148.769 333.51 145.729 321.64C142.689 309.77 151.529 274.7 157.049 267.52C162.569 260.34 181.899 262 181.899 262Z" fill="#FDD8BA" stroke="#263238" stroke-linecap="round" stroke-linejoin="round"/>
<path d="M158.71 277.77C158.71 277.77 160.64 286.05 159.54 287.7C158.44 289.35 154.02 283.56 154.02 283.56C154.02 283.56 156.78 274.18 158.71 277.77Z" fill="#263238" stroke="#263238" stroke-linecap="round" stroke-linejoin="round"/>
<path d="M154.573 331.61L168.103 334.37L174.453 347.89L167.543 344.03L164.233 355.9L142.973 332.71L154.573 331.61Z" fill="white" stroke="#263238" stroke-linecap="round" stroke-linejoin="round"/>
<path d="M167.539 344.03L168.099 334.37L174.449 347.89L167.539 344.03Z" fill="white" stroke="#263238" stroke-linecap="round" stroke-linejoin="round"/>
<path d="M150.77 300.08C152.77 303.82 156.98 301.32 156.98 301.32L168.1 308.14L159.26 304.82L146.84 314.49C146.84 314.49 147.05 292.94 150.77 300.08Z" fill="#263238" stroke="#263238" stroke-linecap="round" stroke-linejoin="round"/>
<path d="M186.601 296.26C186.601 296.26 180.801 297.92 179.141 295.16" stroke="#263238" stroke-linecap="round" stroke-linejoin="round"/>
<path d="M182.122 278.61C182.632 280.28 182.452 281.82 181.722 282.05C180.992 282.28 179.992 281.05 179.482 279.41C178.972 277.77 179.152 276.19 179.882 275.97C180.612 275.75 181.612 276.93 182.122 278.61Z" fill="#263238"/>
<path d="M176.379 273.9C176.379 273.9 178.859 270.03 182.449 272.24" stroke="#263238" stroke-linecap="round" stroke-linejoin="round"/>
<path d="M185.492 254.3C185.492 254.3 185.772 256.51 181.902 262.03C178.032 267.55 162.852 274.45 158.712 277.77C154.572 281.09 149.322 309.24 150.152 316.7C150.982 324.16 151.812 326.91 155.952 326.91C157.264 326.845 158.551 326.519 159.735 325.95C160.92 325.382 161.98 324.583 162.852 323.6C162.852 323.6 161.472 336.02 155.122 338.51C148.772 341 140.762 336.02 133.862 336.58C126.962 337.14 120.332 343.2 117.022 345.69C113.712 348.18 112.322 350.38 105.702 346.51C99.0819 342.64 101.832 336.85 101.832 336.85C101.832 336.85 107.632 339.85 110.942 332.71C114.252 325.57 116.742 330.78 113.702 313.71C110.662 296.64 109.842 286.65 120.062 267.88C130.282 249.11 142.702 247.17 142.702 247.17C142.702 247.17 157.332 245.19 185.492 254.3Z" fill="#263238" stroke="#263238" stroke-linecap="round" stroke-linejoin="round"/>
<path d="M220.56 412.78C220.56 412.78 246.23 402 248.17 402C250.11 402 267.22 410.28 267.22 410.28L268.32 412.22C268.32 412.22 269.43 412.77 268.6 414.43C267.77 416.09 262.25 415.81 262.25 415.81C262.25 415.81 266.67 416.63 264.73 417.74C262.79 418.85 248.17 417.74 248.17 417.74C244.19 419.919 239.911 421.5 235.47 422.43C229.12 423.54 219.18 421.88 219.18 421.88L220.56 412.78Z" fill="#FDD8BA" stroke="#263238" stroke-linecap="round" stroke-linejoin="round"/>
<path d="M268.322 412.23L251.402 404.87" stroke="#263238" stroke-linecap="round" stroke-linejoin="round"/>
<path d="M268.602 414.44L250.742 408.36" stroke="#263238" stroke-linecap="round" stroke-linejoin="round"/>
<path d="M262.252 415.82C262.252 415.82 255.252 414.03 254.042 413.74C252.797 413.5 251.524 413.44 250.262 413.56" stroke="#263238" stroke-linecap="round" stroke-linejoin="round"/>
<path d="M211.171 411.95L220.561 412.78L219.731 423.82L210.621 424.38L211.171 411.95Z" fill="white" stroke="#263238" stroke-linecap="round" stroke-linejoin="round"/>
<path d="M152.36 341C152.36 341 141.31 329.68 134.69 329.13C128.07 328.58 113.43 332.44 113.43 349.84C113.43 367.24 121.99 395.12 123.09 413.07C124.19 431.02 132.2 441.23 134.69 440.95C137.18 440.67 167.82 439 186 433.49C204.18 427.98 209.2 427.69 210.58 424.38C211.96 421.07 212.51 414.99 211.13 411.95C209.75 408.91 157.01 409.74 155.91 409.74C154.81 409.74 147.35 358.39 147.35 358.39" fill="white"/>
<path d="M152.36 341C152.36 341 141.31 329.68 134.69 329.13C128.07 328.58 113.43 332.44 113.43 349.84C113.43 367.24 121.99 395.12 123.09 413.07C124.19 431.02 132.2 441.23 134.69 440.95C137.18 440.67 167.82 439 186 433.49C204.18 427.98 209.2 427.69 210.58 424.38C211.96 421.07 212.51 414.99 211.13 411.95C209.75 408.91 157.01 409.74 155.91 409.74C154.81 409.74 147.35 358.39 147.35 358.39" stroke="#263238" stroke-linecap="round" stroke-linejoin="round"/>
<path d="M153.19 410C153.19 410 141.31 413.59 135.52 420.77" stroke="#263238" stroke-linecap="round" stroke-linejoin="round"/>
<path d="M151.811 407.53C151.811 407.53 139.931 409.47 134.961 413.06" stroke="#263238" stroke-linecap="round" stroke-linejoin="round"/>
<path d="M565.759 424.05C565.759 424.05 573.199 422.29 573.179 427.59C573.159 432.89 571.289 440.32 568.519 441.74C565.749 443.16 561.029 440.32 561.029 440.32L560.969 437.14C560.969 437.14 567.119 439.97 568.329 435.73C569.539 431.49 569.989 427.59 563.759 428.65" fill="#8568F5"/>
<path d="M565.759 424.05C565.759 424.05 573.199 422.29 573.179 427.59C573.159 432.89 571.289 440.32 568.519 441.74C565.749 443.16 561.029 440.32 561.029 440.32L560.969 437.14C560.969 437.14 567.119 439.97 568.329 435.73C569.539 431.49 569.989 427.59 563.759 428.65" stroke="#263238" stroke-linecap="round" stroke-linejoin="round"/>
<path d="M566.78 419.28L564.39 447.57C564.39 449.79 558.81 451.57 551.92 451.57C545.03 451.57 539.46 449.78 539.46 447.57L537.07 419.28H566.78Z" fill="#8568F5" stroke="#263238" stroke-linecap="round" stroke-linejoin="round"/>
<path d="M551.919 424.05C560.126 424.05 566.779 421.914 566.779 419.28C566.779 416.646 560.126 414.51 551.919 414.51C543.712 414.51 537.059 416.646 537.059 419.28C537.059 421.914 543.712 424.05 551.919 424.05Z" fill="white" stroke="#263238" stroke-linecap="round" stroke-linejoin="round"/>
<path d="M546.918 422.46C548.576 422.67 550.246 422.774 551.918 422.77C556.828 422.77 561.078 421.94 563.218 420.77" fill="white"/>
<path d="M546.918 422.46C548.576 422.67 550.246 422.774 551.918 422.77C556.828 422.77 561.078 421.94 563.218 420.77" stroke="#263238" stroke-linecap="round" stroke-linejoin="round"/>
<path d="M540.168 420.45C541.091 421.04 542.105 421.476 543.168 421.74Z" fill="white"/>
<path d="M540.168 420.45C541.091 421.04 542.105 421.476 543.168 421.74" stroke="#263238" stroke-linecap="round" stroke-linejoin="round"/>
<path d="M213 430.1C213 430.1 205.79 428.32 205.37 433.69C204.95 439.06 206.18 446.56 208.8 447.99C211.42 449.42 216.33 446.55 216.33 446.55L216.65 443.33C216.65 443.33 210.34 446.2 209.48 441.91C208.62 437.62 208.48 433.68 214.59 434.75" fill="#8568F5"/>
<path d="M213 430.1C213 430.1 205.79 428.32 205.37 433.69C204.95 439.06 206.18 446.56 208.8 447.99C211.42 449.42 216.33 446.55 216.33 446.55L216.65 443.33C216.65 443.33 210.34 446.2 209.48 441.91C208.62 437.62 208.48 433.68 214.59 434.75" stroke="#263238" stroke-linecap="round" stroke-linejoin="round"/>
<path d="M211.211 425.43L213.601 453.72C213.601 455.94 219.181 457.72 226.061 457.72C232.941 457.72 238.531 455.93 238.531 453.72L240.921 425.43H211.211Z" fill="#8568F5" stroke="#263238" stroke-linecap="round" stroke-linejoin="round"/>
<path d="M240.921 425.43C240.921 428.07 234.271 430.2 226.061 430.2C217.851 430.2 211.211 428.07 211.211 425.43C211.211 422.79 217.861 420.65 226.061 420.65C234.261 420.65 240.921 422.79 240.921 425.43Z" fill="white" stroke="#263238" stroke-linecap="round" stroke-linejoin="round"/>
<path d="M231.06 428.61C229.401 428.821 227.731 428.924 226.06 428.92C221.16 428.92 216.9 428.09 214.77 426.92" fill="white"/>
<path d="M231.06 428.61C229.401 428.821 227.731 428.924 226.06 428.92C221.16 428.92 216.9 428.09 214.77 426.92" stroke="#263238" stroke-linecap="round" stroke-linejoin="round"/>
<path d="M237.82 426.6C236.896 427.188 235.883 427.623 234.82 427.89Z" fill="white"/>
<path d="M237.82 426.6C236.896 427.188 235.883 427.623 234.82 427.89" stroke="#263238" stroke-linecap="round" stroke-linejoin="round"/>
</svg>
