<svg width="750" height="500" viewBox="0 0 750 500" fill="none" xmlns="http://www.w3.org/2000/svg">
<rect width="750" height="500" fill="#FAAA19" fill-opacity="0.3"/>
<path d="M545.679 57.1801C545.679 57.1801 87.6689 152.57 67.9089 199C57.8089 222.72 67.9089 428.43 135.799 432.73C185.159 435.85 517.799 460.47 679.729 420.73C728.729 408.73 663.409 138.02 638.489 103.65C613.569 69.2801 575.759 50.3101 545.679 57.1801Z" fill="#FF880D"/>
<path opacity="0.7" d="M545.679 57.1801C545.679 57.1801 87.6689 152.57 67.9089 199C57.8089 222.72 67.9089 428.43 135.799 432.73C185.159 435.85 517.799 460.47 679.729 420.73C728.729 408.73 663.409 138.02 638.489 103.65C613.569 69.2801 575.759 50.3101 545.679 57.1801Z" fill="white"/>
<path d="M94.0008 285.23C94.0148 285.215 94.0227 285.195 94.0227 285.175C94.0227 285.154 94.0148 285.135 94.0008 285.12C93.9843 285.105 93.9629 285.097 93.9408 285.097C93.9186 285.097 93.8973 285.105 93.8808 285.12C91.3478 291.173 89.3404 297.433 87.8808 303.83C86.4162 310.226 85.3144 316.699 84.5808 323.22L84.1208 328.12C84.0508 328.94 83.9608 329.76 83.9008 330.58L83.7608 333.04C83.6908 334.68 83.5908 336.32 83.5508 337.96V342.88L83.6108 345.35C83.6108 346.17 83.7008 346.98 83.7608 347.8C83.8808 349.44 83.9808 351.08 84.1308 352.71C84.4508 355.98 84.9408 359.23 85.4408 362.46C85.4454 362.48 85.4569 362.498 85.4733 362.511C85.4897 362.524 85.51 362.53 85.5308 362.53C85.5513 362.528 85.5704 362.519 85.5849 362.504C85.5995 362.489 85.6086 362.47 85.6108 362.45C85.6108 360.81 85.5308 359.18 85.5008 357.54C85.4708 355.9 85.3108 354.28 85.3308 352.65C85.3508 351.02 85.3308 349.39 85.3308 347.76V345.32V342.88V338L85.4608 333.12V330.68C85.4608 329.87 85.5508 329.05 85.6008 328.24L85.9008 323.37C86.4554 316.873 87.3769 310.413 88.6608 304.02C89.8991 297.615 91.6857 291.329 94.0008 285.23Z" fill="#263238"/>
<path d="M94.6515 310.76C94.6583 310.739 94.657 310.716 94.6477 310.695C94.6385 310.675 94.622 310.659 94.6015 310.65C94.5911 310.645 94.5798 310.643 94.5683 310.643C94.5569 310.643 94.5456 310.645 94.5351 310.65C94.5247 310.654 94.5154 310.661 94.5079 310.67C94.5004 310.679 94.4948 310.689 94.4915 310.7C93.0989 314.765 91.9338 318.905 91.0015 323.1C90.1043 327.307 89.4366 331.56 89.0015 335.84C88.5715 340.11 88.0915 344.39 88.0015 348.68C87.8949 352.979 88.0485 357.28 88.4615 361.56C88.4615 361.56 88.4615 361.63 88.5415 361.64C88.5638 361.64 88.5853 361.632 88.6019 361.617C88.6185 361.602 88.6291 361.582 88.6315 361.56C89.1315 357.29 89.4315 353.02 89.7315 348.76C90.0315 344.5 90.0715 340.22 90.3515 335.96C90.6176 331.704 91.1251 327.468 91.8715 323.27C92.5678 319.052 93.4959 314.876 94.6515 310.76Z" fill="#263238"/>
<path d="M108.801 319.74C108.793 319.731 108.784 319.725 108.774 319.72C108.763 319.715 108.752 319.713 108.741 319.713C108.729 319.713 108.718 319.715 108.708 319.72C108.697 319.725 108.688 319.731 108.681 319.74C105.142 322.018 101.955 324.801 99.2207 328C97.8428 329.604 96.6049 331.324 95.5207 333.14L94.7607 334.58L94.1707 336C93.9633 336.491 93.7895 336.995 93.6507 337.51C93.4907 338.02 93.3207 338.51 93.1907 339.04C92.0887 343.118 91.4183 347.301 91.1907 351.52C90.9822 355.716 91.1395 359.922 91.6608 364.09C91.6632 364.109 91.6727 364.127 91.6874 364.14C91.7022 364.153 91.7212 364.16 91.7407 364.16C91.7521 364.161 91.7636 364.16 91.7744 364.157C91.7853 364.154 91.7954 364.148 91.8039 364.14C91.8124 364.133 91.8192 364.124 91.8239 364.113C91.8285 364.103 91.8308 364.091 91.8307 364.08L93.0007 351.67C93.296 347.554 93.8202 343.458 94.5707 339.4C94.6907 338.9 94.8307 338.4 94.9607 337.91C95.0783 337.416 95.2218 336.929 95.3907 336.45L95.9007 335.01L96.5507 333.65C97.5351 331.842 98.669 330.119 99.9407 328.5C102.466 325.205 105.457 322.294 108.821 319.86C108.828 319.851 108.834 319.841 108.837 319.83C108.84 319.818 108.84 319.807 108.838 319.795C108.836 319.784 108.832 319.773 108.826 319.764C108.819 319.754 108.811 319.746 108.801 319.74Z" fill="#263238"/>
<path d="M102.001 335.72C100.161 337.064 98.684 338.844 97.7013 340.9C96.6653 342.914 95.857 345.037 95.2913 347.23C95.1213 347.77 94.9913 348.32 94.8713 348.88L94.4813 350.53C94.2713 351.64 94.131 352.762 94.0613 353.89C94.0613 355.02 94.0113 356.15 94.0613 357.27C94.1426 358.398 94.2895 359.519 94.5013 360.63C94.5034 360.648 94.5115 360.664 94.5242 360.677C94.5369 360.69 94.5535 360.698 94.5713 360.7C94.5831 360.703 94.5954 360.703 94.6075 360.701C94.6195 360.699 94.631 360.695 94.6413 360.689C94.6516 360.682 94.6604 360.673 94.6673 360.663C94.6742 360.653 94.6789 360.642 94.6813 360.63C94.9391 359.542 95.136 358.44 95.2713 357.33C95.4513 356.23 95.6213 355.14 95.7513 354.05C95.8813 352.96 96.0513 351.89 96.1413 350.79C96.2313 349.69 96.3713 348.61 96.6013 347.54C96.9855 345.388 97.6059 343.286 98.4513 341.27C99.2113 339.21 100.448 337.36 102.061 335.87C102.075 335.855 102.083 335.835 102.083 335.815C102.083 335.795 102.075 335.775 102.061 335.76C102.055 335.75 102.046 335.741 102.035 335.734C102.025 335.727 102.014 335.722 102.001 335.72Z" fill="#263238"/>
<path d="M82.1128 348.19C81.6428 342.66 80.7328 337.19 79.8728 331.73C79.0128 326.27 78.0528 320.81 77.0528 315.37C76.0528 309.93 74.9428 304.51 73.7628 299.11C73.7617 299.098 73.7581 299.087 73.7523 299.077C73.7465 299.067 73.7385 299.058 73.729 299.052C73.7195 299.045 73.7086 299.041 73.6972 299.039C73.6858 299.037 73.674 299.037 73.6628 299.04C73.6425 299.047 73.6254 299.061 73.6144 299.079C73.6034 299.097 73.5993 299.119 73.6028 299.14C74.5428 304.587 75.4094 310.043 76.2028 315.51C77.0328 320.98 77.8128 326.45 78.5028 331.92C79.1928 337.39 79.7128 342.92 80.3928 348.37L82.3928 364.81C82.3952 364.832 82.4058 364.852 82.4224 364.867C82.439 364.882 82.4605 364.89 82.4828 364.89C82.505 364.89 82.5265 364.882 82.5431 364.867C82.5597 364.852 82.5703 364.832 82.5728 364.81C82.6328 363.42 82.6328 362.04 82.6628 360.65C82.6928 359.26 82.6128 357.88 82.5828 356.49C82.5528 353.71 82.3228 351 82.1128 348.19Z" fill="#263238"/>
<path d="M78.8 348.11C78.5 345.92 78.1 343.75 77.68 341.58L76.9 338.35C76.65 337.28 76.41 336.2 76.1 335.14C74.9931 330.857 73.5794 326.66 71.87 322.58L71.21 321.06L70.47 319.57C70.01 318.57 69.47 317.57 68.9 316.65C67.8106 314.715 66.4651 312.935 64.9 311.36C64.8835 311.345 64.8622 311.337 64.84 311.337C64.8179 311.337 64.7965 311.345 64.78 311.36C64.7697 311.366 64.7611 311.375 64.7552 311.385C64.7492 311.396 64.7461 311.408 64.7461 311.42C64.7461 311.432 64.7492 311.444 64.7552 311.454C64.7611 311.465 64.7697 311.474 64.78 311.48C66.2316 313.113 67.459 314.932 68.43 316.89C68.91 317.89 69.43 318.89 69.83 319.89L70.48 321.39L71.05 322.93C72.5816 327.024 73.8116 331.226 74.73 335.5C75.24 337.62 75.57 339.79 75.98 341.93L76.5 345.17C76.69 346.24 76.92 347.31 77.07 348.4C77.41 350.56 77.81 352.71 78.19 354.87C78.57 357.03 78.92 359.2 79.38 361.37C79.3825 361.389 79.392 361.407 79.4067 361.42C79.4215 361.433 79.4404 361.44 79.46 361.44C79.4839 361.44 79.5068 361.43 79.5237 361.413C79.5406 361.397 79.55 361.374 79.55 361.35C79.55 359.15 79.4967 356.943 79.39 354.73C79.29 352.5 79 350.31 78.8 348.11Z" fill="#263238"/>
<path d="M74.2207 348.39C73.2207 345.49 72.0207 342.66 70.7307 339.87C69.4225 337.1 67.9533 334.408 66.3307 331.81C66.3134 331.797 66.2923 331.79 66.2707 331.79C66.249 331.79 66.228 331.797 66.2107 331.81C66.2022 331.817 66.1954 331.827 66.1907 331.837C66.186 331.847 66.1836 331.858 66.1836 331.87C66.1836 331.881 66.186 331.892 66.1907 331.903C66.1954 331.913 66.2022 331.922 66.2107 331.93C67.6307 334.623 68.883 337.402 69.9607 340.25C71.0907 343.07 72.1007 345.94 72.9607 348.85C73.8207 351.76 74.4507 354.73 75.2207 357.65C75.9907 360.57 76.6907 363.52 77.5907 366.48C77.5966 366.497 77.6073 366.511 77.6216 366.522C77.6358 366.533 77.6529 366.539 77.6707 366.54C77.6929 366.54 77.7144 366.532 77.731 366.517C77.7476 366.502 77.7582 366.482 77.7607 366.46C77.7948 363.372 77.5066 360.288 76.9007 357.26C76.249 354.235 75.3527 351.269 74.2207 348.39Z" fill="#263238"/>
<path d="M73.9996 358.05C73.4473 356.26 72.6389 354.559 71.5996 353C70.6272 351.378 69.436 349.897 68.0596 348.6C67.363 347.966 66.6099 347.397 65.8096 346.9C65.0257 346.384 64.1651 345.996 63.2596 345.75C63.2454 345.739 63.2278 345.732 63.2096 345.732C63.1915 345.732 63.1738 345.739 63.1596 345.75C63.1449 345.766 63.1367 345.788 63.1367 345.81C63.1367 345.832 63.1449 345.853 63.1596 345.87C64.7901 346.654 66.2353 347.775 67.3996 349.16C68.5953 350.509 69.6043 352.012 70.3996 353.63C71.2396 355.22 71.6696 356.97 72.3996 358.63C72.7196 359.46 73.0396 360.31 73.3996 361.14C73.717 362.015 74.0877 362.87 74.5096 363.7C74.5153 363.714 74.5249 363.726 74.5373 363.735C74.5497 363.744 74.5644 363.749 74.5796 363.75C74.6035 363.75 74.6264 363.74 74.6433 363.724C74.6602 363.707 74.6696 363.684 74.6696 363.66C74.7013 362.719 74.6679 361.777 74.5696 360.84C74.4496 359.88 74.2596 359 73.9996 358.05Z" fill="#263238"/>
<path d="M74.3793 307C71.6184 306.23 69.1205 304.72 67.1554 302.633C65.1903 300.546 63.8327 297.962 63.2293 295.16C61.1493 285.41 67.8793 289.59 61.8393 274.27C55.7993 258.95 57.1993 255.47 59.2893 251.06C61.3793 246.65 62.5393 248.06 64.3993 253.84C66.2593 259.62 72.9793 268.7 75.5393 285.64C78.0993 302.58 74.3793 307 74.3793 307Z" fill="#FF880D"/>
<path d="M92.25 290.54C92.25 290.54 86.25 288.45 85.98 277.08C85.71 265.71 90.39 268.02 91.09 253.86C91.79 239.7 92.71 229.73 95.27 229.49C97.83 229.25 104.55 236.49 106.87 252.24C109.19 267.99 103.87 278.47 99.21 283.11C94.55 287.75 92.25 290.54 92.25 290.54Z" fill="#FF880D"/>
<path d="M71.1294 320.71C71.1294 320.71 69.7294 312.36 66.9494 308.41C64.1694 304.46 58.1294 301 54.1794 293.32C50.2294 285.64 45.8294 281.95 46.0594 292.86C46.2894 303.77 51.1694 309.34 57.1994 313.05C63.2294 316.76 71.1294 320.71 71.1294 320.71Z" fill="#FF880D"/>
<path d="M68.571 335.1C68.571 335.1 63.001 324.43 54.881 316.53C46.761 308.63 40.261 304.7 42.581 308.64C44.901 312.58 47.681 312.36 51.631 319.32C55.581 326.28 54.411 331.39 59.991 335.32C65.571 339.25 68.571 335.1 68.571 335.1Z" fill="#FF880D"/>
<path d="M67.8798 348.8C67.6398 348.1 67.4098 342.99 59.5198 338.8C51.6298 334.61 44.1998 336.24 45.1298 338.33C46.0598 340.42 50.9298 343.9 55.8098 345.99C60.6898 348.08 67.8798 348.8 67.8798 348.8Z" fill="#FF880D"/>
<path d="M91.7803 321.18C91.7803 321.18 88.3003 316.77 90.1603 307.48C92.0203 298.19 96.1603 300.48 100.84 295.64C105.52 290.8 104.55 290.07 109.19 284.97C113.83 279.87 118.01 277.08 119.87 279.16C121.73 281.24 118.94 287.75 116.15 291.47C113.36 295.19 109 297 106.87 301.68C104.74 306.36 105.71 313.75 100.37 317.23C95.0303 320.71 91.7803 321.18 91.7803 321.18Z" fill="#FF880D"/>
<path d="M103.391 323.73C103.391 323.73 111.741 314.21 117.781 307.25C123.821 300.29 126.141 294.95 126.371 299.59C126.601 304.23 128.461 307.95 123.581 313.98C118.701 320.01 103.391 323.73 103.391 323.73Z" fill="#FF880D"/>
<path d="M99.0003 339.05C99.0003 339.05 98.7703 335.33 112 326.75C125.23 318.17 130.8 316.53 129.4 320.01C128 323.49 122.21 327.01 115.94 333.24C109.67 339.47 99.0003 339.05 99.0003 339.05Z" fill="#FF880D"/>
<path d="M74.9305 306C74.9305 306 71.8205 289.35 68.5705 277.51C65.3205 265.67 63.2305 258.51 63.2305 258.51" stroke="#263238" stroke-linecap="round" stroke-linejoin="round"/>
<path d="M91.7109 290.71C91.7109 290.71 97.3509 272.71 99.2109 261.76C101.071 250.81 98.9809 242.76 98.0509 237.85" stroke="#263238" stroke-linecap="round" stroke-linejoin="round"/>
<path d="M70.3927 320.36C67.8965 316.063 65.036 311.988 61.8427 308.18C56.7427 302.18 52.7927 298.89 50.4727 293.09" stroke="#263238" stroke-linecap="round" stroke-linejoin="round"/>
<path d="M91.7812 321.18C91.7812 321.18 93.6413 310.03 98.0513 304.23C102.461 298.43 111.281 289.38 114.761 283.57" stroke="#263238" stroke-linecap="round" stroke-linejoin="round"/>
<path d="M67.3292 348.54C67.3292 348.54 59.5192 343.46 53.9492 340.67" stroke="#263238" stroke-linecap="round" stroke-linejoin="round"/>
<path d="M112.053 395.33C111.533 381.24 95.8827 371.85 95.8827 371.85H71.8827C71.8827 371.85 56.2327 381.24 55.7027 395.33C55.1727 409.42 73.4427 461.05 73.4427 461.05H94.3227C94.3227 461.05 112.573 409.41 112.053 395.33Z" fill="#263238" stroke="#263238" stroke-linecap="round" stroke-linejoin="round"/>
<path d="M98.9694 358H68.3594L71.8994 371.85H95.4394L98.9694 358Z" fill="#263238" stroke="#263238" stroke-linecap="round" stroke-linejoin="round"/>
<path d="M591.469 121.11C591.469 121.11 590.989 121.84 590.059 123.11" stroke="#263238" stroke-linecap="round" stroke-linejoin="round"/>
<path d="M587.079 127.22C574.869 143.31 537.989 185.89 487.339 189.51C424.759 194 365.169 94.9099 302.599 65.8499C241.179 37.3399 162.599 48.2899 94.8594 105.05" stroke="#263238" stroke-linecap="round" stroke-linejoin="round" stroke-dasharray="5.03 5.03"/>
<path d="M92.93 106.68L91 108.32" stroke="#263238" stroke-linecap="round" stroke-linejoin="round"/>
<path d="M616.139 84.6799L568.879 101.87L589.499 109.6L616.139 84.6799Z" fill="white" stroke="#263238" stroke-linecap="round" stroke-linejoin="round"/>
<path d="M589.5 109.6L591.47 121.11L594.99 111.42L616.14 84.6799L589.5 109.6Z" fill="white" stroke="#263238" stroke-linecap="round" stroke-linejoin="round"/>
<path d="M591.469 121.11L616.139 84.6799L594.989 111.42L591.469 121.11Z" fill="white" stroke="#263238" stroke-linecap="round" stroke-linejoin="round"/>
<path d="M616.138 84.6799L594.988 111.42L614.358 120.22L616.138 84.6799Z" fill="white" stroke="#263238" stroke-linecap="round" stroke-linejoin="round"/>
<path d="M100.211 205.18C100.211 205.18 126.791 285.38 189.051 331.74C251.311 378.1 404.821 401.14 474.571 374C544.321 346.86 645.851 310.78 695.921 331.59C745.991 352.4 734.561 391.99 711.811 405.42C689.061 418.85 677.211 422.61 606.631 388.91C536.051 355.21 451.491 293.63 451.491 293.63" stroke="#263238" stroke-linecap="round" stroke-linejoin="round" stroke-dasharray="5 5"/>
<path d="M80.7578 158.78L124.378 183.81L102.728 187.9L80.7578 158.78Z" fill="white" stroke="#263238" stroke-linecap="round" stroke-linejoin="round"/>
<path d="M102.728 187.9L98.8278 198.9L97.0178 188.75L80.7578 158.78L102.728 187.9Z" fill="white" stroke="#263238" stroke-linecap="round" stroke-linejoin="round"/>
<path d="M98.8278 198.9L80.7578 158.78L97.0178 188.75L98.8278 198.9Z" fill="white" stroke="#263238" stroke-linecap="round" stroke-linejoin="round"/>
<path d="M80.7597 158.78L97.0197 188.75L76.4297 194.11L80.7597 158.78Z" fill="white" stroke="#263238" stroke-linecap="round" stroke-linejoin="round"/>
<g opacity="0.3">
<path d="M446.099 65.71L448.019 71.62H454.239L449.209 75.28L451.129 81.19L446.099 77.53L441.069 81.19L442.989 75.28L437.969 71.62H444.179L446.099 65.71Z" stroke="#263238" stroke-linecap="round" stroke-linejoin="round"/>
<path d="M467.718 65.71L469.638 71.62H475.848L470.818 75.28L472.748 81.19L467.718 77.53L462.688 81.19L464.608 75.28L459.578 71.62H465.798L467.718 65.71Z" stroke="#263238" stroke-linecap="round" stroke-linejoin="round"/>
<path d="M489.329 65.71L491.259 71.62H497.469L492.439 75.28L494.359 81.19L489.329 77.53L484.309 81.19L486.229 75.28L481.199 71.62H487.419L489.329 65.71Z" stroke="#263238" stroke-linecap="round" stroke-linejoin="round"/>
<path d="M510.95 65.71L512.87 71.62H519.09L514.06 75.28L515.98 81.19L510.95 77.53L505.93 81.19L507.85 75.28L502.82 71.62H509.03L510.95 65.71Z" stroke="#263238" stroke-linecap="round" stroke-linejoin="round"/>
<path d="M532.57 65.71L534.49 71.62H540.71L535.68 75.28L537.6 81.19L532.57 77.53L527.54 81.19L529.46 75.28L524.43 71.62H530.65L532.57 65.71Z" stroke="#263238" stroke-linecap="round" stroke-linejoin="round"/>
</g>
<g opacity="0.3">
<path d="M439.398 410.17L441.318 416.08H447.528L442.498 419.74L444.418 425.65L439.398 422L434.368 425.65L436.288 419.74L431.258 416.08H437.478L439.398 410.17Z" stroke="#263238" stroke-linecap="round" stroke-linejoin="round"/>
<path d="M461.009 410.17L462.929 416.08H469.149L464.119 419.74L466.039 425.65L461.009 422L455.989 425.65L457.909 419.74L452.879 416.08H459.089L461.009 410.17Z" stroke="#263238" stroke-linecap="round" stroke-linejoin="round"/>
<path d="M482.626 410.17L484.546 416.08H490.766L485.736 419.74L487.656 425.65L482.626 422L477.596 425.65L479.516 419.74L474.496 416.08H480.706L482.626 410.17Z" stroke="#263238" stroke-linecap="round" stroke-linejoin="round"/>
<path d="M504.249 410.17L506.169 416.08H512.379L507.359 419.74L509.269 425.65L504.249 422L499.219 425.65L501.139 419.74L496.109 416.08H502.329L504.249 410.17Z" stroke="#263238" stroke-linecap="round" stroke-linejoin="round"/>
<path d="M525.867 410.17L527.777 416.08H533.997L528.967 419.74L530.887 425.65L525.867 422L520.837 425.65L522.757 419.74L517.727 416.08H523.937L525.867 410.17Z" stroke="#263238" stroke-linecap="round" stroke-linejoin="round"/>
</g>
<g opacity="0.3">
<path d="M71.4681 130.25L73.3881 136.16H79.5981L74.5781 139.81L76.4981 145.72L71.4681 142.07L66.4381 145.72L68.3581 139.81L63.3281 136.16H69.5481L71.4681 130.25Z" stroke="#263238" stroke-linecap="round" stroke-linejoin="round"/>
<path d="M93.0892 130.25L95.0092 136.16H101.219L96.1892 139.81L98.1092 145.72L93.0892 142.07L88.0592 145.72L89.9792 139.81L84.9492 136.16H91.1692L93.0892 130.25Z" stroke="#263238" stroke-linecap="round" stroke-linejoin="round"/>
<path d="M114.696 130.25L116.616 136.16H122.836L117.806 139.81L119.726 145.72L114.696 142.07L109.676 145.72L111.596 139.81L106.566 136.16H112.776L114.696 130.25Z" stroke="#263238" stroke-linecap="round" stroke-linejoin="round"/>
<path d="M136.318 130.25L138.238 136.16H144.458L139.427 139.81L141.348 145.72L136.318 142.07L131.287 145.72L133.208 139.81L128.188 136.16H134.397L136.318 130.25Z" stroke="#263238" stroke-linecap="round" stroke-linejoin="round"/>
<path d="M157.937 130.25L159.857 136.16H166.067L161.037 139.81L162.967 145.72L157.937 142.07L152.907 145.72L154.827 139.81L149.797 136.16H156.017L157.937 130.25Z" stroke="#263238" stroke-linecap="round" stroke-linejoin="round"/>
</g>
<path d="M380.14 386.3V438C380.149 439.442 379.873 440.872 379.327 442.207C378.781 443.541 377.977 444.755 376.96 445.778C375.943 446.8 374.734 447.611 373.402 448.164C372.07 448.717 370.642 449.001 369.2 449H282C280.553 449.009 279.118 448.731 277.779 448.182C276.441 447.632 275.224 446.822 274.201 445.799C273.178 444.776 272.368 443.559 271.818 442.221C271.269 440.882 270.991 439.447 271 438V386.3H255.09V440C255.09 443.787 256.594 447.42 259.272 450.098C261.95 452.776 265.583 454.28 269.37 454.28H381.79C383.666 454.281 385.524 453.913 387.258 453.196C388.991 452.479 390.567 451.427 391.894 450.101C393.221 448.775 394.274 447.2 394.992 445.467C395.71 443.734 396.08 441.876 396.08 440V386.3H380.14Z" fill="#263238" stroke="#263238" stroke-linecap="round" stroke-linejoin="round"/>
<path d="M393.461 386.3V438C393.47 439.442 393.194 440.872 392.648 442.207C392.102 443.541 391.298 444.755 390.281 445.778C389.264 446.8 388.054 447.611 386.723 448.164C385.391 448.717 383.963 449.001 382.521 449H285.001C283.553 449.009 282.119 448.731 280.78 448.182C279.441 447.632 278.225 446.822 277.202 445.799C276.178 444.776 275.369 443.559 274.819 442.221C274.269 440.882 273.991 439.447 274.001 438V386.3H268.391V440C268.391 443.787 269.895 447.42 272.573 450.098C275.251 452.776 278.883 454.28 282.671 454.28H384.781C386.657 454.281 388.515 453.913 390.248 453.196C391.982 452.479 393.557 451.427 394.885 450.101C396.212 448.775 397.264 447.2 397.983 445.467C398.701 443.734 399.071 441.876 399.071 440V386.3H393.461Z" fill="white" stroke="#263238" stroke-linecap="round" stroke-linejoin="round"/>
<path d="M436.712 453.89H211.242V461.05H436.712V453.89Z" fill="#263238" stroke="#263238" stroke-linecap="round" stroke-linejoin="round"/>
<path d="M436.712 453.89H266.902V461.05H436.712V453.89Z" fill="white" stroke="#263238" stroke-linecap="round" stroke-linejoin="round"/>
<path d="M499.731 111.71H151.641C146.936 111.71 143.121 115.524 143.121 120.23V385.99C143.121 390.695 146.936 394.51 151.641 394.51H499.731C504.437 394.51 508.251 390.695 508.251 385.99V120.23C508.251 115.524 504.437 111.71 499.731 111.71Z" fill="#263238" stroke="#263238" stroke-linecap="round" stroke-linejoin="round"/>
<path d="M507.782 111.71H159.692C154.986 111.71 151.172 115.524 151.172 120.23V385.99C151.172 390.695 154.986 394.51 159.692 394.51H507.782C512.487 394.51 516.302 390.695 516.302 385.99V120.23C516.302 115.524 512.487 111.71 507.782 111.71Z" fill="#FF880D" stroke="#263238" stroke-linecap="round" stroke-linejoin="round"/>
<path d="M166.583 117H500.883C503.142 117 505.309 117.898 506.907 119.495C508.505 121.093 509.403 123.26 509.403 125.52V367.3H158.063V125.57C158.056 124.447 158.272 123.334 158.697 122.294C159.122 121.255 159.749 120.31 160.54 119.513C161.332 118.717 162.274 118.085 163.311 117.653C164.348 117.222 165.46 117 166.583 117Z" fill="white" stroke="#263238" stroke-linecap="round" stroke-linejoin="round"/>
<path d="M459.311 160.85C456.343 153.426 450.972 147.211 444.056 143.197C437.141 139.184 429.08 137.604 421.161 138.71C366.331 146.43 204.671 170.53 201.101 186.94C196.811 206.7 189.101 320.99 207.101 325.29C225.101 329.59 471.761 339.89 480.351 317.55C486.881 300.63 477.621 206.37 459.311 160.85Z" fill="#FF880D"/>
<path opacity="0.7" d="M459.311 160.85C456.343 153.426 450.972 147.211 444.056 143.197C437.141 139.184 429.08 137.604 421.161 138.71C366.331 146.43 204.671 170.53 201.101 186.94C196.811 206.7 189.101 320.99 207.101 325.29C225.101 329.59 471.761 339.89 480.351 317.55C486.881 300.63 477.621 206.37 459.311 160.85Z" fill="white"/>
<path d="M370.707 229.494C381.968 228.374 390.188 218.338 389.068 207.077C387.948 195.816 377.912 187.596 366.651 188.716C355.39 189.836 347.17 199.872 348.29 211.133C349.41 222.394 359.446 230.615 370.707 229.494Z" fill="white" stroke="#263238" stroke-linecap="round" stroke-linejoin="round"/>
<path d="M356.84 222.53C357.966 220.428 359.633 218.664 361.667 217.42C363.702 216.176 366.032 215.497 368.416 215.452C370.8 215.407 373.154 215.998 375.234 217.165C377.314 218.332 379.045 220.032 380.25 222.09" fill="white"/>
<path d="M356.84 222.53C357.966 220.428 359.633 218.664 361.667 217.42C363.702 216.176 366.032 215.497 368.416 215.452C370.8 215.407 373.154 215.998 375.234 217.165C377.314 218.332 379.045 220.032 380.25 222.09" stroke="#263238" stroke-linecap="round" stroke-linejoin="round"/>
<path d="M363.803 205.33C363.803 207.67 363.113 209.57 362.263 209.57C361.413 209.57 360.723 207.67 360.723 205.33C360.723 202.99 361.413 201.1 362.263 201.1C363.113 201.1 363.803 203 363.803 205.33Z" fill="#263238" stroke="#263238" stroke-linecap="round" stroke-linejoin="round"/>
<path d="M375.353 205.33C375.353 207.67 374.663 209.57 373.813 209.57C372.963 209.57 372.273 207.67 372.273 205.33C372.273 202.99 372.963 201.1 373.813 201.1C374.663 201.1 375.353 203 375.353 205.33Z" fill="#263238" stroke="#263238" stroke-linecap="round" stroke-linejoin="round"/>
<path d="M347.199 176.09C351.584 165.658 346.682 153.646 336.25 149.261C325.818 144.876 313.806 149.778 309.421 160.21C305.035 170.642 309.937 182.654 320.369 187.039C330.802 191.424 342.813 186.522 347.199 176.09Z" fill="white" stroke="#263238" stroke-linecap="round" stroke-linejoin="round"/>
<path d="M339.89 172.88C338.764 174.982 337.098 176.746 335.063 177.99C333.028 179.234 330.699 179.914 328.314 179.958C325.93 180.003 323.577 179.412 321.497 178.245C319.417 177.078 317.685 175.378 316.48 173.32" fill="white"/>
<path d="M339.89 172.88C338.764 174.982 337.098 176.746 335.063 177.99C333.028 179.234 330.699 179.914 328.314 179.958C325.93 180.003 323.577 179.412 321.497 178.245C319.417 177.078 317.685 175.378 316.48 173.32" stroke="#263238" stroke-linecap="round" stroke-linejoin="round"/>
<path d="M323.443 164.36C323.443 166.7 322.753 168.59 321.903 168.59C321.053 168.59 320.363 166.7 320.363 164.36C320.363 162.02 321.053 160.12 321.903 160.12C322.753 160.12 323.443 162 323.443 164.36Z" fill="#263238" stroke="#263238" stroke-linecap="round" stroke-linejoin="round"/>
<path d="M335.002 164.36C335.002 166.7 334.322 168.59 333.462 168.59C332.602 168.59 331.922 166.7 331.922 164.36C331.922 162.02 332.612 160.12 333.462 160.12C334.312 160.12 335.002 162 335.002 164.36Z" fill="#263238" stroke="#263238" stroke-linecap="round" stroke-linejoin="round"/>
<path d="M310.417 247.044C314.803 236.612 309.901 224.6 299.469 220.214C289.036 215.829 277.025 220.731 272.639 231.163C268.254 241.595 273.156 253.607 283.588 257.992C294.02 262.378 306.032 257.476 310.417 247.044Z" fill="white" stroke="#263238" stroke-linecap="round" stroke-linejoin="round"/>
<path d="M286.65 235.31C286.65 237.65 285.96 239.55 285.11 239.55C284.26 239.55 283.57 237.65 283.57 235.31C283.57 232.97 284.26 231.08 285.11 231.08C285.96 231.08 286.65 233 286.65 235.31Z" fill="#263238" stroke="#263238" stroke-linecap="round" stroke-linejoin="round"/>
<path d="M298.201 235.31C298.201 237.65 297.521 239.55 296.661 239.55C295.801 239.55 295.121 237.65 295.121 235.31C295.121 232.97 295.811 231.08 296.661 231.08C297.511 231.08 298.201 233 298.201 235.31Z" fill="#263238" stroke="#263238" stroke-linecap="round" stroke-linejoin="round"/>
<path d="M281.812 227.08L288.832 231.55" stroke="#263238" stroke-linecap="round" stroke-linejoin="round"/>
<path d="M299.99 227.08L292.98 231.55" stroke="#263238" stroke-linecap="round" stroke-linejoin="round"/>
<path d="M288.512 247.81H293.932" stroke="#263238" stroke-linecap="round" stroke-linejoin="round"/>
<path d="M303.323 267.09H277.473V348.11H303.323V267.09Z" fill="#ADADAD" stroke="#263238" stroke-linecap="round" stroke-linejoin="round"/>
<path d="M340.873 195.4H315.023V348.11H340.873V195.4Z" fill="#FF880D" stroke="#263238" stroke-linecap="round" stroke-linejoin="round"/>
<path d="M378.913 234.9H353.062V348.1H378.913V234.9Z" fill="#263238" stroke="#263238" stroke-linecap="round" stroke-linejoin="round"/>
<path d="M287.73 122.06L289.65 127.97H295.86L290.83 131.62L292.75 137.53L287.73 133.88L282.7 137.53L284.62 131.62L279.59 127.97H285.81L287.73 122.06Z" fill="#263238"/>
<path d="M309.341 122.06L311.261 127.97H317.481L312.451 131.62L314.371 137.53L309.341 133.88L304.321 137.53L306.241 131.62L301.211 127.97H307.421L309.341 122.06Z" fill="#263238"/>
<path d="M330.962 122.06L332.882 127.97H339.102L334.072 131.62L335.992 137.53L330.962 133.88L325.932 137.53L327.852 131.62L322.832 127.97H329.042L330.962 122.06Z" fill="#263238"/>
<path d="M352.581 122.06L354.501 127.97H360.711L355.691 131.62L357.611 137.53L352.581 133.88L347.551 137.53L349.471 131.62L344.441 127.97H350.661L352.581 122.06Z" fill="#263238"/>
<path d="M374.193 122.06L376.122 127.97H382.332L377.302 131.62L379.223 137.53L374.193 133.88L369.173 137.53L371.092 131.62L366.062 127.97H372.272L374.193 122.06Z" fill="#263238"/>
<path d="M175.742 266.67L177.662 272.58H183.872L178.852 276.24L180.772 282.15L175.742 278.5L170.712 282.15L172.632 276.24L167.602 272.58H173.822L175.742 266.67Z" fill="#263238"/>
<path d="M197.363 266.67L199.283 272.58H205.493L200.463 276.24L202.383 282.15L197.363 278.5L192.333 282.15L194.253 276.24L189.223 272.58H195.443L197.363 266.67Z" fill="#263238"/>
<path opacity="0.2" d="M218.97 266.67L220.89 272.58H227.11L222.08 276.24L224 282.15L218.97 278.5L213.94 282.15L215.87 276.24L210.84 272.58H217.05L218.97 266.67Z" fill="#263238"/>
<path opacity="0.2" d="M240.591 266.67L242.511 272.58H248.721L243.701 276.24L245.621 282.15L240.591 278.5L235.561 282.15L237.481 276.24L232.461 272.58H238.671L240.591 266.67Z" fill="#263238"/>
<path opacity="0.2" d="M262.21 266.67L264.13 272.58H270.34L265.31 276.24L267.24 282.15L262.21 278.5L257.18 282.15L259.1 276.24L254.07 272.58H260.29L262.21 266.67Z" fill="#263238"/>
<path d="M397.821 223.28L399.741 229.19H405.951L400.931 232.84L402.851 238.75L397.821 235.1L392.791 238.75L394.711 232.84L389.691 229.19H395.901L397.821 223.28Z" fill="#263238"/>
<path d="M419.441 223.28L421.361 229.19H427.571L422.541 232.84L424.461 238.75L419.441 235.1L414.411 238.75L416.331 232.84L411.301 229.19H417.521L419.441 223.28Z" fill="#263238"/>
<path d="M441.052 223.28L442.972 229.19H449.192L444.162 232.84L446.082 238.75L441.052 235.1L436.032 238.75L437.952 232.84L432.922 229.19H439.132L441.052 223.28Z" fill="#263238"/>
<path opacity="0.2" d="M462.673 223.28L464.593 229.19H470.813L465.783 232.84L467.703 238.75L462.673 235.1L457.643 238.75L459.563 232.84L454.543 229.19H460.753L462.673 223.28Z" fill="#263238"/>
<path opacity="0.2" d="M484.292 223.28L486.212 229.19H492.422L487.402 232.84L489.322 238.75L484.292 235.1L479.262 238.75L481.182 232.84L476.152 229.19H482.372L484.292 223.28Z" fill="#263238"/>
<path d="M622.449 405.46L620.839 435.41L611.849 434.49L608.629 406.62L622.449 405.46Z" fill="white" stroke="#263238" stroke-linecap="round" stroke-linejoin="round"/>
<path d="M624.521 432.65L605.631 432.88L605.861 438.18C605.861 438.18 603.561 431.73 603.331 435.18C603.101 438.63 605.171 443.48 604.941 444.4C604.711 445.32 604.021 448.08 596.181 451.08C588.341 454.08 586.281 455.23 587.181 456.84C588.081 458.45 593.401 460.52 601.181 460.52C605.95 460.499 610.661 459.477 615.011 457.52L615.241 460.05L624.451 459.82C625.461 457.341 625.779 454.635 625.371 451.99C624.681 447.61 623.761 443.7 623.991 442.31C624.221 440.92 624.521 432.65 624.521 432.65Z" fill="#263238" stroke="#263238" stroke-linecap="round" stroke-linejoin="round"/>
<path d="M597.57 405L603.1 437.72H612.77L615.77 404.54L597.57 405Z" fill="white" stroke="#263238" stroke-linecap="round" stroke-linejoin="round"/>
<path d="M617.841 432.65L598.951 432.88L599.181 438.18C599.181 438.18 596.881 431.73 596.651 435.18C596.421 438.63 598.491 443.48 598.261 444.4C598.031 445.32 597.341 448.08 589.501 451.08C581.661 454.08 579.601 455.23 580.501 456.84C581.401 458.45 585.431 461.05 593.261 461.05C598.17 461.008 603.045 460.243 607.731 458.78L608.611 460.39L617.821 460.16C618.811 457.561 619.127 454.754 618.741 452C618.051 447.62 617.131 443.71 617.361 442.32C617.591 440.93 617.841 432.65 617.841 432.65Z" fill="#263238" stroke="#263238" stroke-linecap="round" stroke-linejoin="round"/>
<path d="M577.522 314.69L574.762 408C584.074 409.395 593.46 410.239 602.872 410.53C616.232 410.76 634.432 406.39 634.432 406.39L627.292 309.63L577.522 308.47V314.69Z" fill="#263238" stroke="#263238" stroke-linecap="round" stroke-linejoin="round"/>
<path d="M594.81 229.86C594.81 229.86 589.72 238.11 588.02 244.42C586.32 250.73 582.43 314.09 582.43 314.09L626.37 314.33C626.37 314.33 624.18 263.33 619.37 246.61C614.56 229.89 610.72 227 610.72 227L594.81 229.86Z" fill="white" stroke="#263238" stroke-linecap="round" stroke-linejoin="round"/>
<path d="M593.451 188.9C593.451 188.9 591.041 191.9 589.631 194.12C589.114 195.018 588.42 195.802 587.592 196.424C586.763 197.046 585.817 197.494 584.811 197.74C583.401 197.94 582.001 198.95 583.201 201.16C583.891 202.438 584.698 203.65 585.611 204.78C585.611 204.78 585.211 214.62 587.021 215.23C588.831 215.84 594.861 215.03 594.861 215.03L595.261 225.03L608.531 222.22L608.121 209.16C608.121 209.16 609.121 200.51 603.121 194.48C597.121 188.45 593.451 188.9 593.451 188.9Z" fill="white" stroke="#263238" stroke-linecap="round" stroke-linejoin="round"/>
<path d="M592.16 197.27C592.06 198.27 591.54 199.05 591.01 199C590.48 198.95 590.14 198.08 590.24 197.07C590.34 196.06 590.86 195.28 591.39 195.34C591.92 195.4 592.26 196.26 592.16 197.27Z" fill="#263238"/>
<path d="M587.578 205.45C587.578 205.45 589.328 206.33 592.078 204.83" stroke="#263238" stroke-linecap="round" stroke-linejoin="round"/>
<path d="M591.328 193C591.328 193 592.698 192.13 593.948 194.13" stroke="#263238" stroke-linecap="round" stroke-linejoin="round"/>
<path d="M604.998 218.84C604.998 218.84 590.328 222.1 590.328 223.57C590.328 225.04 591.788 231.72 591.788 231.72L610.718 227L608.918 218L604.998 218.84Z" fill="white" stroke="#263238" stroke-linecap="round" stroke-linejoin="round"/>
<path d="M611.321 222.33C611.321 222.33 588.5 239.81 584.62 250.73C580.74 261.65 573.94 317.49 576.12 317.73C578.3 317.97 592.391 321.37 606.711 320.88C621.031 320.39 633.651 316.76 634.381 316.27C635.111 315.78 633.171 299.27 629.771 277.19C626.371 255.11 620.301 239.81 617.631 234C615.744 229.996 613.637 226.101 611.321 222.33Z" fill="#FF880D" stroke="#263238" stroke-linecap="round" stroke-linejoin="round"/>
<path d="M608.56 232.98L600.35 242.17L593.85 243.64V247.18L583.23 264" stroke="#263238" stroke-linecap="round" stroke-linejoin="round"/>
<path d="M612.738 228.3L610.648 230.64" stroke="#263238" stroke-linecap="round" stroke-linejoin="round"/>
<path d="M594.93 331.31C594.93 331.31 589.67 331.17 589.02 332.8C588.37 334.43 586.82 343.96 586.82 343.96L590.52 344.05C590.52 344.05 591.31 335.61 592.13 334.63C592.95 333.65 604.89 333.11 606.03 333.92C607.17 334.73 607.5 343.56 607.5 343.56H611.75C611.75 343.56 610.28 334.9 608.48 332.45C606.68 330 594.93 331.31 594.93 331.31Z" fill="#ADADAD" stroke="#263238" stroke-linecap="round" stroke-linejoin="round"/>
<path d="M620.32 342.9C620.32 342.9 581.14 342.9 578.69 343.07C577.587 343.094 576.539 343.553 575.774 344.348C575.01 345.142 574.591 346.207 574.61 347.31C574.61 349.6 571.83 382.25 572.97 383.4C574.11 384.55 618.53 385.85 621.97 385.68C623.228 385.675 624.44 385.205 625.373 384.362C626.307 383.519 626.897 382.361 627.03 381.11C627.03 379.48 624.58 345.52 624.09 344.21C623.6 342.9 620.32 342.9 620.32 342.9Z" fill="#ADADAD" stroke="#263238" stroke-linecap="round" stroke-linejoin="round"/>
<path d="M617.762 352.29C619.211 350.822 620.548 349.248 621.762 347.58C622.182 346.745 622.369 345.812 622.302 344.88" fill="#ADADAD"/>
<path d="M617.762 352.29C619.211 350.822 620.548 349.248 621.762 347.58C622.182 346.745 622.369 345.812 622.302 344.88" stroke="#263238" stroke-linecap="round" stroke-linejoin="round"/>
<path d="M576.34 346.86C576.34 346.86 595.34 370.86 598.77 369.92C600.89 369.37 608.94 361.55 614.92 355.3" fill="#ADADAD"/>
<path d="M576.34 346.86C576.34 346.86 595.34 370.86 598.77 369.92C600.89 369.37 608.94 361.55 614.92 355.3" stroke="#263238" stroke-linecap="round" stroke-linejoin="round"/>
<path d="M593.471 326.26C593.471 326.26 591.661 336.26 593.311 337.26C594.961 338.26 597.421 336.77 597.421 336.77C598.171 336.967 598.951 337.021 599.721 336.93C600.803 336.672 601.851 336.286 602.841 335.78C603.129 335.964 603.475 336.032 603.811 335.971C604.147 335.91 604.447 335.724 604.651 335.45C605.471 334.45 605.471 326.91 605.471 326.91L593.471 326.26Z" fill="white" stroke="#263238" stroke-linecap="round" stroke-linejoin="round"/>
<path d="M606.519 241.5C606.519 241.5 598.759 242.72 595.119 249.76C591.479 256.8 592.119 295.88 592.119 295.88L591.879 327.88L606.199 328.37L617.849 263.56" fill="#FF880D"/>
<path d="M606.519 241.5C606.519 241.5 598.759 242.72 595.119 249.76C591.479 256.8 592.119 295.88 592.119 295.88L591.879 327.88L606.199 328.37L617.849 263.56" stroke="#263238" stroke-linecap="round" stroke-linejoin="round"/>
<path d="M620.998 185.68C620.998 185.68 617.578 180.68 613.558 179.25C609.538 177.82 589.638 178.25 589.238 180.66C588.838 183.07 589.238 186.66 592.858 191.51C596.478 196.36 600.698 202.56 600.698 202.56C600.698 202.56 601.698 208.39 602.308 211.81C602.918 215.23 602.098 222.66 602.098 222.66C606.241 223.085 610.413 223.152 614.568 222.86C622.808 222.46 626.418 220.86 626.418 220.86C626.418 220.86 624.418 218.65 624.008 208.8C623.598 198.95 620.998 185.68 620.998 185.68Z" fill="#263238" stroke="#263238" stroke-linecap="round" stroke-linejoin="round"/>
<path d="M619.05 178.79C619.05 178.79 612.82 184.42 615.23 190.45C617.64 196.48 620.45 200.9 624.47 200.7C628.49 200.5 632.11 198.29 635.53 193.7C638.95 189.11 638.74 183.04 633.72 179.63C628.7 176.22 620.05 177.18 619.05 178.79Z" fill="#263238" stroke="#263238" stroke-linecap="round" stroke-linejoin="round"/>
<path d="M598.48 205C598.48 205 603.1 199.57 604.91 202.18C606.72 204.79 604.1 208.61 602.5 209.42L600.891 210.22L599.281 209.42" fill="white"/>
<path d="M598.48 205C598.48 205 603.1 199.57 604.91 202.18C606.72 204.79 604.1 208.61 602.5 209.42L600.891 210.22L599.281 209.42" stroke="#263238" stroke-linecap="round" stroke-linejoin="round"/>
<path d="M25.25 461.05H716.09" stroke="#263238" stroke-linecap="round" stroke-linejoin="round"/>
</svg>
