<svg width="500" height="500" viewBox="0 0 500 500" fill="none" xmlns="http://www.w3.org/2000/svg">
<rect width="500" height="500" fill="#FAAA19" fill-opacity="0.3"/>
<path d="M500 382.4H0V382.65H500V382.4Z" fill="#EBEBEB"/>
<path d="M449.901 398.49H416.781V398.74H449.901V398.49Z" fill="#EBEBEB"/>
<path d="M331.221 401.21H322.531V401.46H331.221V401.21Z" fill="#EBEBEB"/>
<path d="M415.78 389.21H396.59V389.46H415.78V389.21Z" fill="#EBEBEB"/>
<path d="M95.6509 390.89H52.4609V391.14H95.6509V390.89Z" fill="#EBEBEB"/>
<path d="M110.889 390.89H104.559V391.14H110.889V390.89Z" fill="#EBEBEB"/>
<path d="M225.149 395.11H131.469V395.36H225.149V395.11Z" fill="#EBEBEB"/>
<path d="M237.001 337.8H43.9109C42.3983 337.797 40.9485 337.195 39.8798 336.124C38.8112 335.054 38.2109 333.603 38.2109 332.09V60.66C38.2241 59.156 38.8301 57.718 39.8974 56.6582C40.9646 55.5985 42.4069 55.0026 43.9109 55H237.001C238.515 55 239.968 55.6016 241.039 56.6724C242.109 57.7433 242.711 59.1956 242.711 60.71V332.09C242.711 333.604 242.109 335.057 241.039 336.128C239.968 337.198 238.515 337.8 237.001 337.8ZM43.9109 55.2C42.4646 55.2026 41.0784 55.7791 40.0566 56.8027C39.0348 57.8264 38.4609 59.2136 38.4609 60.66V332.09C38.4609 333.536 39.0348 334.924 40.0566 335.947C41.0784 336.971 42.4646 337.547 43.9109 337.55H237.001C238.448 337.547 239.835 336.971 240.859 335.948C241.882 334.924 242.458 333.537 242.461 332.09V60.66C242.458 59.2127 241.882 57.8255 240.859 56.8021C239.835 55.7787 238.448 55.2026 237.001 55.2H43.9109Z" fill="#EBEBEB"/>
<path d="M453.31 337.8H260.21C258.696 337.797 257.246 337.195 256.175 336.125C255.105 335.054 254.503 333.604 254.5 332.09V60.66C254.516 59.1551 255.124 57.7171 256.193 56.6576C257.262 55.5981 258.705 55.0025 260.21 55H453.31C454.812 55.0052 456.252 55.6022 457.317 56.6617C458.382 57.7212 458.987 59.1578 459 60.66V332.09C459 333.601 458.401 335.05 457.335 336.121C456.268 337.191 454.821 337.795 453.31 337.8ZM260.21 55.2C258.763 55.2026 257.375 55.7787 256.352 56.8021C255.329 57.8255 254.753 59.2127 254.75 60.66V332.09C254.753 333.537 255.329 334.924 256.352 335.948C257.375 336.971 258.763 337.547 260.21 337.55H453.31C454.757 337.547 456.145 336.971 457.168 335.948C458.191 334.924 458.767 333.537 458.77 332.09V60.66C458.767 59.2127 458.191 57.8255 457.168 56.8021C456.145 55.7787 454.757 55.2026 453.31 55.2H260.21Z" fill="#EBEBEB"/>
<path d="M363.372 133.85L330.142 114.52H304.542L270.762 132.93V258.22H363.372V133.85Z" fill="#E0E0E0"/>
<path d="M269.801 133.85L270.801 132.93C283.106 121.079 299.537 114.477 316.621 114.52C333.705 114.477 350.136 121.079 362.441 132.93L363.441 133.85V258.22H269.801V133.85ZM357.161 136.51C346.091 126.348 331.612 120.71 316.586 120.71C301.56 120.71 287.08 126.348 276.011 136.51V252H357.161V136.51Z" fill="#FAFAFA"/>
<path d="M318.908 252.76H314.258V211.18H274.828V206.53H314.258V164H274.828V159.34H314.258V119.92H318.908V159.34H358.338V164H318.908V206.53H358.338V211.18H318.908V252.76Z" fill="#F0F0F0"/>
<path d="M266.699 132.58L267.609 131.67C280.61 118.703 298.222 111.421 316.584 111.421C334.946 111.421 352.559 118.703 365.559 131.67L366.469 132.58V261.32H266.699V132.58ZM360.259 135.17C348.508 123.908 332.861 117.62 316.584 117.62C300.308 117.62 284.66 123.908 272.909 135.17V255.17H360.259V135.17Z" fill="#F0F0F0"/>
<path d="M226.839 133.85L193.609 114.52H167.999L134.219 132.93V258.22H226.839V133.85Z" fill="#E0E0E0"/>
<path d="M133.27 133.85L134.22 132.93C146.529 121.08 162.963 114.478 180.05 114.52C197.137 114.475 213.572 121.077 225.88 132.93L226.88 133.85V258.22H133.27V133.85ZM220.63 136.51C209.56 126.348 195.081 120.71 180.055 120.71C165.028 120.71 150.549 126.348 139.48 136.51V252H220.63V136.51Z" fill="#FAFAFA"/>
<path d="M182.381 252.76H177.731V211.18H138.301V206.53H177.731V164H138.301V159.34H177.731V119.92H182.381V159.34H221.811V164H182.381V206.53H221.811V211.18H182.381V252.76Z" fill="#F0F0F0"/>
<path d="M130.172 132.58L131.082 131.67C144.082 118.703 161.695 111.421 180.057 111.421C198.419 111.421 216.031 118.703 229.032 131.67L229.942 132.58V261.32H130.172V132.58ZM223.732 135.17C211.979 123.907 196.33 117.619 180.052 117.619C163.774 117.619 148.125 123.907 136.372 135.17V255.17H223.732V135.17Z" fill="#F0F0F0"/>
<path d="M403.999 349.9C403.999 349.55 405.209 314.44 410.919 308.9C416.469 303.5 422.849 308.7 423.109 308.9L423.689 308.22C423.609 308.15 416.419 302.28 410.289 308.22C404.289 314.02 403.159 348.39 403.109 349.85L403.999 349.9Z" fill="#E0E0E0"/>
<path d="M403.541 356.8C403.541 356.38 407.451 314.66 392.211 297.17L391.531 297.75C406.531 314.95 402.691 356.3 402.651 356.75L403.541 356.8Z" fill="#E0E0E0"/>
<path d="M404.112 352.39L405.002 352.33C405.002 351.86 402.002 304.89 413.202 294.61L412.592 293.95C401.102 304.52 404.002 350.44 404.112 352.39Z" fill="#E0E0E0"/>
<path d="M402.649 352.36H403.549C403.549 351.06 403.179 320.63 394.549 315.68C393.729 315.149 392.793 314.821 391.821 314.726C390.848 314.63 389.867 314.769 388.959 315.13C383.729 317.3 381.139 326.6 381.039 326.99L381.899 327.23C381.899 327.14 384.479 317.95 389.299 315.96C390.082 315.653 390.927 315.538 391.763 315.623C392.6 315.708 393.404 315.992 394.109 316.45C402.289 321.16 402.649 352.05 402.649 352.36Z" fill="#E0E0E0"/>
<path d="M405.999 352.39L406.889 352.34C406.889 352.1 405.589 328.34 412.009 319.9C413.569 317.9 415.259 316.9 417.009 317.02C421.219 317.32 424.749 323.48 424.789 323.54L425.569 323.1C425.409 322.83 421.769 316.46 417.079 316.1C414.979 315.95 413.019 317.04 411.269 319.33C404.699 328 405.999 351.4 405.999 352.39Z" fill="#E0E0E0"/>
<path d="M404.612 355.62C404.782 353.31 408.812 298.96 401.732 289.38L401.012 289.91C407.902 299.22 403.762 354.99 403.722 355.56L404.612 355.62Z" fill="#E0E0E0"/>
<path d="M387 320.64C387 320.64 391.25 322.21 390 325.91C388.75 329.61 375.3 335.69 375.3 335.69C375.3 335.69 369.68 330.53 374.84 322.15C380 313.77 386.9 318 387 320.64Z" fill="#EBEBEB"/>
<path d="M405.49 313.6C405.49 313.6 400.96 313.41 400.7 317.31C400.44 321.21 410.51 332 410.51 332C410.51 332 417.68 329.41 416.14 319.68C414.6 309.95 406.61 311.21 405.49 313.6Z" fill="#EBEBEB"/>
<path d="M409.319 294.94C409.319 294.94 406.319 294.62 406.539 292.78C406.759 290.94 418.269 286.21 425.039 293.86C425.039 293.86 420.699 301.31 414.429 301.41C408.159 301.51 409.319 294.94 409.319 294.94Z" fill="#EBEBEB"/>
<path d="M403.69 290.48C403.69 290.48 406.43 291.8 407.19 290.11C407.95 288.42 400.71 278.34 390.92 281.24C390.92 281.24 390.66 289.86 395.92 293.24C401.18 296.62 403.69 290.48 403.69 290.48Z" fill="#EBEBEB"/>
<path d="M418 319.16C418 319.16 415.91 317.48 418.16 316.66C420.41 315.84 431.43 316.07 431.55 326.99C431.55 326.99 418.71 329.12 417.12 324.99C415.53 320.86 418 319.16 418 319.16Z" fill="#EBEBEB"/>
<path d="M391.798 294.67C391.798 294.67 393.878 292.98 391.628 292.16C389.378 291.34 378.358 291.58 378.238 302.5C378.238 302.5 391.078 304.63 392.668 300.5C394.258 296.37 391.798 294.67 391.798 294.67Z" fill="#EBEBEB"/>
<path d="M398.578 303.46C398.578 303.46 398.768 301.46 397.118 302.22C395.468 302.98 389.718 309.22 395.678 315.1C395.678 315.1 403.678 309.16 402.248 306.1C400.818 303.04 398.578 303.46 398.578 303.46Z" fill="#EBEBEB"/>
<path d="M419.839 306.37C419.839 306.37 418.589 304.74 420.419 304.54C422.249 304.34 430.419 306.54 428.499 314.67C428.499 314.67 418.549 313.92 418.129 310.54C417.709 307.16 419.839 306.37 419.839 306.37Z" fill="#EBEBEB"/>
<path d="M386.219 382.63H420.359L424.049 345.25H382.539L386.219 382.63Z" fill="#F0F0F0"/>
<path d="M380.721 349.37H425.871V341.12H380.721V349.37Z" fill="#E6E6E6"/>
<path d="M93.5882 349.77L83.8682 321.77C83.8682 321.77 97.3482 331.77 97.2582 320.68C97.1682 309.59 91.1182 318.2 89.0182 314.11C86.9182 310.02 95.0182 310.06 92.1582 303.86C89.2982 297.66 81.2682 307.19 79.8482 301.69C78.4282 296.19 76.1482 293.39 70.2882 293.89C70.2882 293.89 67.1082 301.12 70.9982 306.35C74.8882 311.58 61.3882 307.35 62.7582 312.64C64.1282 317.93 68.6382 322.49 70.6182 318.79C72.5982 315.09 75.1282 322.18 71.7382 324.01C68.3482 325.84 76.1682 333.75 77.8882 329.6C79.0862 326.838 80.5674 324.207 82.3082 321.75L91.3082 351.75L93.5882 349.77Z" fill="#EBEBEB"/>
<path d="M103.609 350L114.609 332.08C114.609 332.08 103.779 336.96 105.509 329.31C107.239 321.66 110.129 328.52 112.209 326.01C114.289 323.5 108.679 322.3 111.579 318.44C114.479 314.58 118.579 322.44 120.429 318.8C122.279 315.16 124.239 313.62 128.229 314.8C128.229 314.8 129.329 320.29 125.849 323.32C122.369 326.35 132.339 325.49 130.599 328.92C128.859 332.35 124.999 334.9 124.179 332C123.359 329.1 120.549 333.67 122.619 335.44C124.689 337.21 118.079 341.52 117.519 338.38C117.105 336.292 116.478 334.251 115.649 332.29L104.919 351.67L103.609 350Z" fill="#E6E6E6"/>
<path d="M96.229 350.19L101.229 321.33C101.229 321.33 89.689 333.22 87.999 322.4C86.309 311.58 93.589 319.01 94.999 314.69C96.409 310.37 88.519 311.69 90.299 305.19C92.079 298.69 101.449 306.7 101.959 301.11C102.469 295.52 104.239 292.44 110.039 291.99C110.039 291.99 114.289 298.54 111.329 304.25C108.369 309.96 120.869 303.73 120.329 309.08C119.789 314.43 116.159 319.61 113.639 316.32C111.119 313.03 109.779 320.32 113.379 321.58C116.979 322.84 110.609 331.79 108.269 328.02C106.664 325.518 104.804 323.189 102.719 321.07L98.719 351.71L96.229 350.19Z" fill="#F5F5F5"/>
<path d="M90.0006 382.63H107.231C107.81 382.629 108.367 382.407 108.789 382.009C109.211 381.612 109.465 381.069 109.501 380.49L111.331 350.78C111.348 350.47 111.302 350.159 111.196 349.868C111.089 349.576 110.924 349.309 110.711 349.083C110.497 348.858 110.24 348.678 109.954 348.555C109.669 348.433 109.361 348.37 109.051 348.37H88.1906C87.8795 348.368 87.5713 348.43 87.2852 348.552C86.999 348.674 86.7411 348.854 86.5273 349.08C86.3135 349.306 86.1484 349.574 86.0423 349.866C85.9362 350.159 85.8914 350.47 85.9106 350.78L87.7406 380.49C87.776 381.067 88.0291 381.609 88.4486 382.006C88.8681 382.403 89.4228 382.626 90.0006 382.63Z" fill="#EBEBEB"/>
<path d="M86.1286 351.71H111.329C111.886 351.712 112.425 351.509 112.843 351.141C113.261 350.772 113.53 350.263 113.599 349.71C113.635 349.39 113.604 349.066 113.507 348.76C113.409 348.453 113.248 348.171 113.034 347.931C112.819 347.691 112.556 347.499 112.263 347.368C111.969 347.237 111.65 347.169 111.329 347.17H86.1286C85.8069 347.169 85.4886 347.237 85.1947 347.368C84.9009 347.499 84.6381 347.691 84.4237 347.931C84.2093 348.171 84.0481 348.453 83.9507 348.76C83.8533 349.066 83.8219 349.39 83.8586 349.71C83.9271 350.263 84.1958 350.772 84.6141 351.141C85.0324 351.509 85.5712 351.712 86.1286 351.71Z" fill="#F5F5F5"/>
<path d="M249.999 427.56C357.082 427.56 443.889 422.492 443.889 416.24C443.889 409.988 357.082 404.92 249.999 404.92C142.917 404.92 56.1094 409.988 56.1094 416.24C56.1094 422.492 142.917 427.56 249.999 427.56Z" fill="#F5F5F5"/>
<path d="M101.602 276.97H105.422L116.052 339.36H112.232L101.602 276.97Z" fill="#263238"/>
<path d="M115.77 276.97H119.59L130.22 339.36H126.4L115.77 276.97Z" fill="#263238"/>
<path d="M129.953 276.97H133.763L144.403 339.36H140.583L129.953 276.97Z" fill="#263238"/>
<path opacity="0.4" d="M101.602 276.97H105.422L116.052 339.36H112.232L101.602 276.97Z" fill="white"/>
<path opacity="0.4" d="M115.77 276.97H119.59L130.22 339.36H126.4L115.77 276.97Z" fill="white"/>
<path opacity="0.4" d="M129.953 276.97H133.763L144.403 339.36H140.583L129.953 276.97Z" fill="white"/>
<path d="M108.201 284.18C114.341 280.46 122.881 280.46 131.031 284.18C135.151 285.98 140.031 286.5 142.191 283.89C145.871 280.06 139.411 268.71 127.031 265.12C118.171 262.58 109.391 262.58 101.901 265.12C91.4613 268.71 91.1413 280.06 96.9013 283.89C100.451 286.5 105.051 286 108.201 284.18Z" fill="#407BFF"/>
<path opacity="0.7" d="M108.201 284.18C114.341 280.46 122.881 280.46 131.031 284.18C135.151 285.98 140.031 286.5 142.191 283.89C145.871 280.06 139.411 268.71 127.031 265.12C118.171 262.58 109.391 262.58 101.901 265.12C91.4613 268.71 91.1413 280.06 96.9013 283.89C100.451 286.5 105.051 286 108.201 284.18Z" fill="white"/>
<path d="M168.043 344.54H108.793V338.61C108.793 337.435 109.26 336.308 110.09 335.478C110.921 334.647 112.048 334.18 113.223 334.18H163.613C164.788 334.18 165.915 334.647 166.745 335.478C167.576 336.308 168.043 337.435 168.043 338.61V344.54Z" fill="#407BFF"/>
<path opacity="0.7" d="M168.043 344.54H108.793V338.61C108.793 337.435 109.26 336.308 110.09 335.478C110.921 334.647 112.048 334.18 113.223 334.18H163.613C164.788 334.18 165.915 334.647 166.745 335.478C167.576 336.308 168.043 337.435 168.043 338.61V344.54Z" fill="white"/>
<path d="M134.23 340.97L134.55 354.77L136 417.16H140.79L142.24 354.77L142.56 340.97H134.23Z" fill="#263238"/>
<path opacity="0.4" d="M134.23 340.97L134.55 354.77L136 417.16H140.79L142.24 354.77L142.56 340.97H134.23Z" fill="white"/>
<path opacity="0.2" d="M134.23 340.97L134.55 355.15H142.24L142.56 340.97H134.23Z" fill="black"/>
<path d="M108.203 416.94L112.633 341.95H119.873L113.673 416.94H108.203Z" fill="#263238"/>
<path opacity="0.4" d="M113.681 416.94H108.211L112.231 348.68L112.631 341.86H119.871L119.311 348.68L113.681 416.94Z" fill="white"/>
<path opacity="0.2" d="M119.87 341.86L119.31 348.95H112.23L112.63 341.86H119.87Z" fill="black"/>
<path d="M163.122 416.94L156.922 341.95H164.162L168.592 416.94H163.122Z" fill="#263238"/>
<path opacity="0.4" d="M163.11 416.94L157.48 348.68L156.93 341.86H164.16L164.56 348.68L168.58 416.94H163.11Z" fill="white"/>
<path opacity="0.2" d="M156.93 341.86L157.48 348.95H164.56L164.16 341.86H156.93Z" fill="black"/>
<path d="M107.693 344.54H169.103C170.086 344.54 170.883 343.743 170.883 342.76V341.14C170.883 340.157 170.086 339.36 169.103 339.36H107.693C106.71 339.36 105.913 340.157 105.913 341.14V342.76C105.913 343.743 106.71 344.54 107.693 344.54Z" fill="#263238"/>
<path opacity="0.6" d="M107.693 344.54H169.103C170.086 344.54 170.883 343.743 170.883 342.76V341.14C170.883 340.157 170.086 339.36 169.103 339.36H107.693C106.71 339.36 105.913 340.157 105.913 341.14V342.76C105.913 343.743 106.71 344.54 107.693 344.54Z" fill="white"/>
<path d="M195.449 416.72H196.819L197.189 415.03L201.719 417.08H213.169C213.169 417.08 214.989 415.24 209.539 413.78C209.269 413.711 209.008 413.614 208.759 413.49C205.859 412.12 201.759 407.49 201.759 407.49H195.469C195.278 407.777 195.107 408.078 194.959 408.39C194.229 409.81 192.999 412.71 195.449 416.72Z" fill="#263238"/>
<path d="M194.918 408.42C195.748 407.5 199.518 411.56 202.288 412.94C204.758 414.17 207.528 414.72 208.758 413.47C205.858 412.1 201.278 406.15 201.278 406.15H196.228C196.228 406.15 195.208 407.83 194.918 408.42Z" fill="#FFC2BC"/>
<path d="M201.561 406.97L196.291 382.71L187.551 386.24L195.971 407.72" fill="#FFC2BC"/>
<path d="M181.278 265.77C181.278 265.77 188.278 308.08 189.448 329.9C190.668 352.83 198.018 389.54 201.908 403.9C200.808 404.9 195.668 405.3 193.238 404.08C193.238 404.08 172.038 361.74 174.798 335.27C157.068 285.35 161.348 266.67 161.348 266.67L181.278 265.77Z" fill="#263238"/>
<g opacity="0.7">
<path d="M181.278 265.77C181.278 265.77 188.278 308.08 189.448 329.9C190.668 352.83 198.018 389.54 201.908 403.9C200.808 404.9 195.668 405.3 193.238 404.08C193.238 404.08 172.038 361.74 174.798 335.27C157.068 285.35 161.348 266.67 161.348 266.67L181.278 265.77Z" fill="white"/>
</g>
<path d="M154.531 416.81H155.901L156.271 415.12L160.801 417.12H172.251C172.251 417.12 174.071 415.29 168.621 413.83C168.351 413.757 168.09 413.657 167.841 413.53C164.931 412.17 160.841 407.53 160.841 407.53H154.551C154.36 407.823 154.186 408.126 154.031 408.44C153.311 409.89 152.121 412.8 154.531 416.81Z" fill="#263238"/>
<path d="M154 408.51C154.83 407.58 158.61 411.65 161.38 413.03C163.85 414.26 166.62 414.8 167.85 413.55C164.94 412.19 160.37 406.24 160.37 406.24H155.32C155.32 406.24 154.29 407.92 154 408.51Z" fill="#FFC2BC"/>
<path d="M160.568 407.47L159.988 381.08L150.348 381.77L155.228 407.63L160.568 407.47Z" fill="#FFC2BC"/>
<path opacity="0.2" d="M169.548 319.37C167.018 311.05 165.208 303.85 163.918 297.67C165.198 292.84 167.008 288.67 169.468 286.22C169.468 286.22 172.998 299.68 169.548 319.37Z" fill="black"/>
<path d="M173.678 263.55C173.678 263.55 167.879 308.44 164.559 330.04C161.059 352.73 160.619 389.13 161.489 403.97C160.219 404.71 155.589 405.6 153.089 404.82C153.089 404.82 141.259 358.93 149.089 332.28C141.939 279.79 152.288 266.93 152.288 266.93L173.678 263.55Z" fill="#263238"/>
<g opacity="0.7">
<path d="M173.678 263.55C173.678 263.55 167.879 308.44 164.559 330.04C161.059 352.73 160.619 389.13 161.489 403.97C160.219 404.71 155.589 405.6 153.089 404.82C153.089 404.82 141.259 358.93 149.089 332.28C141.939 279.79 152.288 266.93 152.288 266.93L173.678 263.55Z" fill="white"/>
</g>
<path d="M168.561 185.42C168.561 185.42 174.091 184.71 176.651 189.71C179.211 194.71 175.951 202.19 175.951 202.19C175.951 202.19 172.441 207.69 176.041 212.19C179.211 216.19 175.491 219.19 169.041 220.74C162.591 222.29 150.321 221.12 147.151 217.47C143.981 213.82 149.461 210.33 148.781 203.32C148.101 196.31 147.891 189.68 155.201 185.9C161.131 182.84 165.891 183.63 168.561 185.42Z" fill="#263238"/>
<path d="M209.469 244.29L214.219 238.46L218.039 244.59C218.039 244.59 212.709 249.34 210.929 248L209.469 244.29Z" fill="#EEC1BB"/>
<path d="M220.939 238.2L222.489 243.15L218.039 244.59L214.219 238.47L220.939 238.2Z" fill="#EEC1BB"/>
<path d="M180.141 237.21L180.191 237.37C180.187 237.417 180.187 237.463 180.191 237.51C180.301 237.86 180.491 238.51 180.781 239.32C180.861 239.57 180.961 239.83 181.051 240.12C181.121 240.31 181.191 240.52 181.271 240.72C181.611 241.62 182.011 242.64 182.491 243.72C182.671 244.13 182.861 244.56 183.071 244.98C183.281 245.4 183.451 245.75 183.651 246.13L184.271 247.28C184.271 247.28 184.271 247.28 184.271 247.34C184.271 247.4 184.461 247.67 184.571 247.84C184.681 248.01 184.771 248.19 184.871 248.36L185.141 248.78C185.291 249.02 185.461 249.25 185.621 249.49L185.741 249.68C186.011 250.06 186.291 250.43 186.561 250.77C186.831 251.11 187.001 251.31 187.231 251.55C187.461 251.79 187.541 251.89 187.701 252.05C187.861 252.21 188.131 252.49 188.361 252.69L188.811 253.08L189.121 253.32C189.271 253.43 189.421 253.55 189.581 253.65C189.741 253.75 189.971 253.9 190.171 254.01C190.612 254.276 191.081 254.49 191.571 254.65C196.071 256.15 212.001 249 212.001 249L210.101 243.65C210.101 243.65 195.511 248.25 194.101 246.87C193.715 246.418 193.379 245.925 193.101 245.4C192.931 245.12 192.761 244.79 192.591 244.4L192.401 244.04C192.281 243.81 192.161 243.55 192.031 243.29L191.641 242.48C191.311 241.78 190.961 241.01 190.641 240.22L190.211 239.22C190.071 238.88 189.921 238.55 189.771 238.22L189.331 237.22C186.931 231.72 184.331 225.62 182.531 223.68C182.479 223.619 182.422 223.562 182.361 223.51C182.17 223.29 181.914 223.136 181.631 223.07L180.251 236.67L180.141 237.21Z" fill="#407BFF"/>
<path opacity="0.2" d="M180.141 237.21L180.191 237.37C180.183 237.416 180.183 237.464 180.191 237.51C180.301 237.86 180.491 238.51 180.781 239.32C180.861 239.57 180.961 239.83 181.051 240.12C181.121 240.31 181.191 240.52 181.271 240.72C181.611 241.62 182.011 242.64 182.491 243.72C182.671 244.13 182.861 244.56 183.071 244.98C183.281 245.4 183.451 245.75 183.651 246.13L184.271 247.28C184.271 247.28 184.271 247.28 184.271 247.34C184.271 247.4 184.461 247.67 184.571 247.84C184.742 242.897 183.497 238.008 180.981 233.75C180.585 234.715 180.297 235.721 180.121 236.75L180.141 237.21Z" fill="black"/>
<path d="M151.088 251.25C152.038 257.32 152.548 261.82 152.548 261.82L151.328 265.37L149.048 272L166.388 277.42L170.388 267.35L173.678 276.93L183.678 273.93L181.938 260.72C184.368 233.42 181.938 223.26 181.938 223.26C177.858 220.76 171.638 220.82 171.638 220.82C173.078 228.46 156.218 220.1 156.218 220.1C152.051 220.492 147.966 221.503 144.098 223.1C145.75 226.795 147.014 230.653 147.868 234.61C148.638 237.7 149.308 240.97 149.868 244.13C150.328 246.6 150.728 249 151.088 251.25Z" fill="#407BFF"/>
<path d="M157.238 205.53C158.398 209.84 159.828 217.73 157.028 220.6C157.028 220.6 153.118 224.38 164.488 224.03C165.488 226.4 169.308 230.75 169.308 230.75C169.308 230.75 171.038 225.95 170.248 224.22C177.568 223.59 170.418 220.6 170.418 220.6C165.528 219.46 165.418 215.89 165.978 212.6L157.238 205.53Z" fill="#EEC1BB"/>
<path opacity="0.2" d="M160.799 208.39L165.979 212.54C165.826 213.324 165.745 214.121 165.739 214.92C163.879 214.65 161.209 212.64 160.879 210.72C160.713 209.954 160.686 209.165 160.799 208.39Z" fill="black"/>
<path d="M153.559 196.88C154.869 203.88 155.269 206.8 159.239 210.14C165.239 215.14 173.409 212.5 174.239 205.41C174.939 199.03 172.689 188.72 165.519 186.41C163.992 185.851 162.344 185.713 160.746 186.011C159.148 186.308 157.659 187.03 156.436 188.101C155.213 189.171 154.301 190.551 153.794 192.096C153.288 193.641 153.207 195.293 153.559 196.88Z" fill="#EEC1BB"/>
<path d="M159.538 191.86C155.698 196.81 163.588 202.51 155.698 202.18C147.808 201.85 151.018 190.71 155.698 188.18C160.378 185.65 159.538 191.86 159.538 191.86Z" fill="#263238"/>
<path d="M164.581 198C164.661 198.59 165.041 199 165.411 199C165.781 199 166.031 198.47 165.941 197.88C165.851 197.29 165.481 196.88 165.111 196.88C164.741 196.88 164.491 197.45 164.581 198Z" fill="#263238"/>
<path d="M171.68 197.62C171.77 198.21 172.14 198.62 172.52 198.62C172.9 198.62 173.13 198.09 173.05 197.5C172.97 196.91 172.59 196.5 172.21 196.5C171.83 196.5 171.6 197 171.68 197.62Z" fill="#263238"/>
<path d="M172.051 196.55L173.381 196.04C173.381 196.04 172.821 197.2 172.051 196.55Z" fill="#263238"/>
<path d="M169.84 198.73C170.552 200.037 171.426 201.25 172.44 202.34C172.17 202.576 171.849 202.748 171.502 202.841C171.156 202.935 170.792 202.948 170.44 202.88L169.84 198.73Z" fill="#D4827D"/>
<path d="M167.44 205.3C167.773 205.326 168.107 205.326 168.44 205.3C168.462 205.297 168.483 205.291 168.503 205.28C168.522 205.268 168.539 205.254 168.552 205.236C168.565 205.218 168.574 205.197 168.579 205.176C168.584 205.154 168.584 205.132 168.58 205.11C168.575 205.064 168.552 205.022 168.517 204.992C168.482 204.962 168.436 204.947 168.39 204.95C167.65 205.009 166.905 204.9 166.213 204.632C165.52 204.363 164.897 203.942 164.39 203.4C164.378 203.378 164.362 203.359 164.341 203.344C164.321 203.329 164.298 203.319 164.274 203.314C164.249 203.309 164.224 203.309 164.2 203.315C164.176 203.321 164.153 203.333 164.133 203.348C164.114 203.364 164.098 203.384 164.087 203.406C164.077 203.429 164.071 203.453 164.07 203.478C164.07 203.503 164.075 203.528 164.085 203.551C164.096 203.573 164.111 203.594 164.13 203.61C164.989 204.56 166.167 205.162 167.44 205.3Z" fill="#263238"/>
<path d="M162.591 194.88C162.686 194.878 162.775 194.838 162.841 194.77C163.116 194.452 163.465 194.206 163.858 194.056C164.25 193.906 164.674 193.856 165.091 193.91C165.134 193.92 165.179 193.921 165.222 193.913C165.265 193.904 165.306 193.887 165.342 193.861C165.378 193.836 165.408 193.803 165.431 193.765C165.453 193.726 165.467 193.684 165.471 193.64C165.48 193.547 165.455 193.453 165.4 193.378C165.344 193.302 165.263 193.249 165.171 193.23C164.644 193.154 164.106 193.211 163.606 193.396C163.107 193.581 162.661 193.889 162.311 194.29C162.249 194.357 162.215 194.444 162.215 194.535C162.215 194.626 162.249 194.713 162.311 194.78C162.388 194.849 162.488 194.885 162.591 194.88Z" fill="#263238"/>
<path d="M173.279 194.24C173.322 194.244 173.366 194.238 173.407 194.225C173.449 194.211 173.487 194.189 173.519 194.16C173.583 194.096 173.618 194.01 173.618 193.92C173.618 193.83 173.583 193.744 173.519 193.68C173.162 193.251 172.711 192.909 172.202 192.682C171.692 192.455 171.137 192.348 170.579 192.37C170.535 192.375 170.492 192.388 170.454 192.411C170.415 192.433 170.382 192.463 170.355 192.498C170.329 192.534 170.31 192.575 170.301 192.618C170.291 192.662 170.29 192.706 170.299 192.75C170.316 192.841 170.367 192.922 170.441 192.978C170.515 193.033 170.607 193.059 170.699 193.05C171.142 193.041 171.58 193.132 171.982 193.318C172.384 193.503 172.739 193.777 173.019 194.12C173.089 194.189 173.181 194.232 173.279 194.24Z" fill="#263238"/>
<path d="M165 197L166.32 196.49C166.32 196.49 165.72 197.62 165 197Z" fill="#263238"/>
<path d="M152.878 203.59C153.17 204.207 153.588 204.756 154.104 205.202C154.621 205.648 155.225 205.981 155.878 206.18C157.498 206.61 158.198 204.75 157.658 202.9C157.178 201.23 155.748 199 154.168 199.4C152.588 199.8 152.068 202 152.878 203.59Z" fill="#EEC1BB"/>
<path d="M168.559 189.23C168.559 189.23 167.729 195.9 155.689 196.46L154.309 189.23C154.309 189.23 157.949 183.04 166.309 184.71C174.669 186.38 174.309 194.88 174.309 194.88C173.864 193.551 173.111 192.347 172.112 191.365C171.112 190.383 169.895 189.651 168.559 189.23Z" fill="#263238"/>
<path d="M167 218.86C167 218.86 170.75 221.48 170.3 224.22L176.7 225.8C176.7 225.8 172.87 219.32 167 218.86Z" fill="#407BFF"/>
<path d="M155.529 226.94L164.529 224.03C164.529 224.03 159.789 220.21 158.309 218.14L155.309 220.36C155.239 220.53 154.359 222.71 155.529 226.94Z" fill="#407BFF"/>
<path opacity="0.6" d="M167 218.86C167 218.86 170.75 221.48 170.3 224.22L176.7 225.8C176.7 225.8 172.87 219.32 167 218.86Z" fill="white"/>
<path opacity="0.6" d="M155.529 226.94L164.529 224.03C164.529 224.03 159.789 220.21 158.309 218.14L155.309 220.36C155.239 220.53 154.359 222.71 155.529 226.94Z" fill="white"/>
<path opacity="0.2" d="M152.55 261.82L151.33 265.37C153.91 265.37 156.93 265.23 159.8 265.07C165.34 264.75 170.31 264.32 170.31 264.32L169.9 257.4L164.35 257.48L164.08 256.96C162.976 256.708 161.893 256.374 160.84 255.96C157.612 254.629 154.458 253.127 151.39 251.46L151.09 251.3C152 257.32 152.55 261.82 152.55 261.82Z" fill="black"/>
<path d="M162.858 258L170.308 257L168.858 264.07C168.858 264.07 161.718 263.84 161.348 261.64L162.858 258Z" fill="#EEC1BB"/>
<path d="M175.369 261.46L173.079 266.11L168.859 264.1L170.309 257.02L175.369 261.46Z" fill="#EEC1BB"/>
<path opacity="0.2" d="M147.84 234.59C148.61 237.68 149.28 240.95 149.84 244.11C151.31 239.43 150.06 233.2 150.06 233.2C149.193 233.419 148.416 233.905 147.84 234.59Z" fill="black"/>
<path d="M144.059 223.09C140.729 226.03 134.799 252.59 136.729 255.97C138.659 259.35 161.179 263.18 161.179 263.18L163.349 257.46C163.349 257.46 145.509 252.54 145.509 250.59C145.509 248.64 149.109 240.25 149.109 240.25C149.109 240.25 151.519 233.25 148.779 226.94C147.139 223.13 144.059 223.09 144.059 223.09Z" fill="#407BFF"/>
<path d="M163.35 257.46L160.84 255.91L157.93 263.18H161.18L163.35 257.46Z" fill="#407BFF"/>
<path d="M210.061 243.68L207.461 244.1L209.471 251.25L211.961 249.03L210.061 243.68Z" fill="#407BFF"/>
<path opacity="0.6" d="M163.35 257.46L160.84 255.91L157.93 263.18H161.18L163.35 257.46Z" fill="white"/>
<path opacity="0.6" d="M210.061 243.68L207.461 244.1L209.471 251.25L211.961 249.03L210.061 243.68Z" fill="white"/>
<path d="M334.552 276.97H330.732L320.102 339.36H323.922L334.552 276.97Z" fill="#263238"/>
<path d="M320.372 276.97H316.552L305.922 339.36H309.742L320.372 276.97Z" fill="#263238"/>
<path d="M306.2 276.97H302.38L291.75 339.36H295.57L306.2 276.97Z" fill="#263238"/>
<path opacity="0.4" d="M334.552 276.97H330.732L320.102 339.36H323.922L334.552 276.97Z" fill="white"/>
<path opacity="0.4" d="M320.372 276.97H316.552L305.922 339.36H309.742L320.372 276.97Z" fill="white"/>
<path opacity="0.4" d="M306.2 276.97H302.38L291.75 339.36H295.57L306.2 276.97Z" fill="white"/>
<path d="M328.001 284.18C321.851 280.46 313.321 280.46 305.161 284.18C301.041 285.98 296.161 286.5 294.001 283.89C290.331 280.06 296.781 268.71 309.161 265.12C318.031 262.58 326.801 262.58 334.291 265.12C344.731 268.71 345.051 280.06 339.291 283.89C335.691 286.5 331.101 286 328.001 284.18Z" fill="#407BFF"/>
<path opacity="0.7" d="M328.001 284.18C321.851 280.46 313.321 280.46 305.161 284.18C301.041 285.98 296.161 286.5 294.001 283.89C290.331 280.06 296.781 268.71 309.161 265.12C318.031 262.58 326.801 262.58 334.291 265.12C344.731 268.71 345.051 280.06 339.291 283.89C335.691 286.5 331.101 286 328.001 284.18Z" fill="white"/>
<path d="M272.539 334.18H322.999C324.174 334.18 325.301 334.647 326.132 335.478C326.963 336.308 327.429 337.435 327.429 338.61V344.54H268.109V338.61C268.109 337.435 268.576 336.308 269.407 335.478C270.238 334.647 271.364 334.18 272.539 334.18Z" fill="#407BFF"/>
<path opacity="0.7" d="M272.539 334.18H322.999C324.174 334.18 325.301 334.647 326.132 335.478C326.963 336.308 327.429 337.435 327.429 338.61V344.54H268.109V338.61C268.109 337.435 268.576 336.308 269.407 335.478C270.238 334.647 271.364 334.18 272.539 334.18Z" fill="white"/>
<path d="M301.91 340.97L301.6 354.77L300.14 417.16H295.35L293.91 354.77L293.59 340.97H301.91Z" fill="#263238"/>
<path opacity="0.4" d="M301.91 340.97L301.6 354.77L300.14 417.16H295.35L293.91 354.77L293.59 340.97H301.91Z" fill="white"/>
<path opacity="0.2" d="M301.91 340.97L301.6 355.15H293.91L293.59 340.97H301.91Z" fill="black"/>
<path d="M327.941 416.94L323.511 341.95H316.281L322.471 416.94H327.941Z" fill="#263238"/>
<path opacity="0.4" d="M322.461 416.94H327.931L323.921 348.68L323.521 341.86H316.281L316.841 348.68L322.461 416.94Z" fill="white"/>
<path opacity="0.2" d="M316.281 341.86L316.841 348.95H323.921L323.521 341.86H316.281Z" fill="black"/>
<path d="M273.019 416.94L279.219 341.95H271.979L267.559 416.94H273.019Z" fill="#263238"/>
<path opacity="0.4" d="M273.039 416.94L278.659 348.68L279.219 341.86H271.979L271.579 348.68L267.559 416.94H273.039Z" fill="white"/>
<path opacity="0.2" d="M279.222 341.86L278.662 348.95H271.582L271.982 341.86H279.222Z" fill="black"/>
<path d="M328.46 339.36H267.05C266.066 339.36 265.27 340.157 265.27 341.14V342.76C265.27 343.743 266.066 344.54 267.05 344.54H328.46C329.443 344.54 330.24 343.743 330.24 342.76V341.14C330.24 340.157 329.443 339.36 328.46 339.36Z" fill="#263238"/>
<path opacity="0.6" d="M328.46 339.36H267.05C266.066 339.36 265.27 340.157 265.27 341.14V342.76C265.27 343.743 266.066 344.54 267.05 344.54H328.46C329.443 344.54 330.24 343.743 330.24 342.76V341.14C330.24 340.157 329.443 339.36 328.46 339.36Z" fill="white"/>
<path d="M251.901 296.31V298.89C251.901 299.56 251.121 299.83 250.471 299.83H198.911C198.251 299.83 197.461 299.56 197.461 298.89V296.31H251.901Z" fill="#263238"/>
<path opacity="0.2" d="M251.901 296.31V298.89C251.901 299.56 251.121 299.83 250.471 299.83H198.911C198.251 299.83 197.461 299.56 197.461 298.89V296.31H251.901Z" fill="white"/>
<path opacity="0.2" d="M251.9 296.31V298.89C251.9 299.56 251.12 299.83 250.47 299.83H216.47C215.81 299.83 215.02 299.56 215.02 298.89V296.31H251.9Z" fill="black"/>
<path d="M260.532 269.53L254.392 297.37C254.28 297.817 254.022 298.215 253.661 298.5C253.299 298.786 252.853 298.944 252.392 298.95H218.872C218.664 298.944 218.46 298.889 218.276 298.791C218.092 298.693 217.933 298.555 217.811 298.385C217.689 298.216 217.608 298.022 217.573 297.816C217.539 297.61 217.552 297.4 217.612 297.2L223.742 269.57C223.869 269.149 224.137 268.783 224.501 268.536C224.865 268.288 225.303 268.173 225.742 268.21H259.262C260.162 268.21 260.732 268.62 260.532 269.53Z" fill="#263238"/>
<path opacity="0.2" d="M260.53 269.53L254.39 297.37C254.278 297.817 254.021 298.215 253.659 298.5C253.297 298.786 252.851 298.944 252.39 298.95H220C219.791 298.946 219.586 298.893 219.401 298.795C219.216 298.698 219.056 298.559 218.934 298.389C218.812 298.22 218.731 298.024 218.697 297.818C218.664 297.611 218.678 297.4 218.74 297.2L224.87 269.57C224.997 269.149 225.265 268.783 225.629 268.536C225.993 268.288 226.432 268.173 226.87 268.21H259.25C260.16 268.21 260.73 268.62 260.53 269.53Z" fill="white"/>
<path opacity="0.2" d="M244 283.68C244 286.06 241.44 287.99 239.57 287.99C237.7 287.99 236.57 286.06 237.12 283.68C237.67 281.3 239.52 279.43 241.35 279.36C240.82 281.75 241.96 283.68 243.83 283.68H244Z" fill="black"/>
<path d="M257.2 417.16L257.93 305.99H250.73L251.45 417.16H257.2Z" fill="#263238"/>
<path opacity="0.4" d="M251.449 417.16H257.199L257.779 328.11L257.929 306.21H250.719L250.859 328.11L251.449 417.16Z" fill="white"/>
<path opacity="0.2" d="M250.719 306.21L250.859 328.36H257.779L257.929 306.21H250.719Z" fill="black"/>
<path d="M201.191 417.16L209.171 305.99H201.971L195.441 417.16H201.191Z" fill="#263238"/>
<path opacity="0.5" d="M201.191 417.16L208.691 312.73L209.171 306.21H201.971L201.581 312.73L195.441 417.16H201.191Z" fill="white"/>
<path opacity="0.2" d="M201.582 312.41H208.692L209.172 306.21H201.972L201.582 312.41Z" fill="black"/>
<path d="M313.21 417.16L306.68 305.99H299.48L307.47 417.16H313.21Z" fill="#263238"/>
<path opacity="0.5" d="M307.47 417.16H313.21L307.07 312.73L306.68 306.21H299.48L299.96 312.73L307.47 417.16Z" fill="white"/>
<path opacity="0.2" d="M306.68 306.21H299.48L299.96 312.41H307.07L306.68 306.21Z" fill="black"/>
<path d="M310.471 309.39H198.181C197.671 309.39 197.183 309.188 196.823 308.828C196.463 308.468 196.261 307.979 196.261 307.47V302.59H312.391V307.47C312.391 307.722 312.341 307.972 312.244 308.205C312.148 308.438 312.007 308.65 311.828 308.828C311.65 309.006 311.438 309.147 311.205 309.244C310.972 309.34 310.723 309.39 310.471 309.39Z" fill="#263238"/>
<path opacity="0.6" d="M310.471 309.39H198.181C197.671 309.39 197.183 309.188 196.823 308.828C196.463 308.468 196.261 307.979 196.261 307.47V302.59H312.391V307.47C312.391 307.722 312.341 307.972 312.244 308.205C312.148 308.438 312.007 308.65 311.828 308.828C311.65 309.006 311.438 309.147 311.205 309.244C310.972 309.34 310.723 309.39 310.471 309.39Z" fill="white"/>
<path opacity="0.2" d="M196.271 305.99H312.391V302.59H196.271V305.99Z" fill="black"/>
<path d="M192.9 303.48H315.75C316.26 303.48 316.748 303.278 317.108 302.918C317.468 302.557 317.67 302.069 317.67 301.56C317.67 301.308 317.621 301.059 317.524 300.827C317.428 300.594 317.286 300.383 317.108 300.206C316.929 300.028 316.717 299.888 316.484 299.792C316.252 299.697 316.002 299.649 315.75 299.65H192.9C192.649 299.649 192.399 299.697 192.166 299.792C191.934 299.888 191.722 300.028 191.543 300.206C191.365 300.383 191.223 300.594 191.127 300.827C191.03 301.059 190.98 301.308 190.98 301.56C190.98 302.069 191.183 302.557 191.543 302.918C191.903 303.278 192.391 303.48 192.9 303.48Z" fill="#263238"/>
<path opacity="0.6" d="M192.9 303.48H315.75C316.26 303.48 316.748 303.278 317.108 302.918C317.468 302.557 317.67 302.069 317.67 301.56C317.67 301.308 317.621 301.059 317.524 300.827C317.428 300.594 317.286 300.383 317.108 300.206C316.929 300.028 316.717 299.888 316.484 299.792C316.252 299.697 316.002 299.649 315.75 299.65H192.9C192.649 299.649 192.399 299.697 192.166 299.792C191.934 299.888 191.722 300.028 191.543 300.206C191.365 300.383 191.223 300.594 191.127 300.827C191.03 301.059 190.98 301.308 190.98 301.56C190.98 302.069 191.183 302.557 191.543 302.918C191.903 303.278 192.391 303.48 192.9 303.48Z" fill="white"/>
<path d="M379.57 208.64C382.16 219.26 384.88 229.76 385.66 240.77C385.333 249.203 384.35 257.599 382.72 265.88L377.88 265.57C377.31 257.66 377.37 249.08 376.88 241.2C376.12 235.66 374.61 230.26 373.32 224.67L370.07 211L379.57 208.63V208.64Z" fill="#E4897B"/>
<path d="M382.1 279.87L374.57 278.41L375.48 271.82L384.67 273.07L382.1 279.87Z" fill="#E4897B"/>
<path d="M383 264.73L384.671 273.07L375.481 271.82C375.481 271.82 375.431 264.2 378.881 263.36L383 264.73Z" fill="#E4897B"/>
<path d="M389.929 269.69L389.359 255.64C389.321 254.924 389.011 254.25 388.492 253.756C387.973 253.262 387.286 252.984 386.569 252.98H361.789C361.66 252.978 361.533 253.003 361.414 253.054C361.296 253.104 361.189 253.179 361.102 253.273C361.014 253.367 360.947 253.479 360.905 253.601C360.864 253.722 360.848 253.852 360.859 253.98L361.499 269.73L389.929 269.69Z" fill="#263238"/>
<path d="M388.21 287H361.71C361.445 287 361.19 286.895 361.003 286.707C360.815 286.52 360.71 286.265 360.71 286L359.41 253.89C359.399 253.762 359.414 253.633 359.456 253.511C359.498 253.389 359.565 253.278 359.653 253.183C359.74 253.089 359.847 253.014 359.965 252.964C360.083 252.913 360.211 252.888 360.34 252.89H386.83C387.095 252.89 387.349 252.995 387.537 253.183C387.724 253.37 387.83 253.625 387.83 253.89L389.13 286C389.142 286.128 389.128 286.257 389.087 286.378C389.047 286.5 388.981 286.612 388.894 286.706C388.807 286.801 388.701 286.876 388.583 286.926C388.465 286.977 388.338 287.002 388.21 287Z" fill="#263238"/>
<path opacity="0.2" d="M387.831 253.93L389.141 286.05C389.15 286.178 389.133 286.306 389.091 286.427C389.049 286.548 388.982 286.659 388.894 286.753C388.807 286.847 388.701 286.922 388.584 286.973C388.466 287.024 388.339 287.05 388.211 287.05H361.721C361.456 287.05 361.201 286.945 361.014 286.757C360.826 286.57 360.721 286.315 360.721 286.05L359.411 253.93C359.398 253.801 359.413 253.672 359.454 253.549C359.495 253.427 359.562 253.315 359.65 253.22C359.738 253.125 359.845 253.051 359.964 253.001C360.083 252.951 360.212 252.927 360.341 252.93H386.831C387.096 252.93 387.35 253.035 387.538 253.223C387.725 253.41 387.831 253.665 387.831 253.93Z" fill="white"/>
<path d="M387.308 257H384.918C384.685 256.998 384.46 256.907 384.291 256.745C384.122 256.583 384.021 256.363 384.008 256.13V255.49C384.004 255.374 384.023 255.259 384.064 255.15C384.105 255.042 384.168 254.943 384.248 254.86C384.328 254.776 384.425 254.71 384.531 254.665C384.638 254.62 384.753 254.598 384.868 254.6H387.258C387.492 254.602 387.717 254.693 387.886 254.855C388.055 255.017 388.156 255.236 388.168 255.47V256.11C388.173 256.224 388.154 256.338 388.112 256.445C388.071 256.551 388.009 256.648 387.928 256.73C387.849 256.815 387.753 256.883 387.646 256.929C387.54 256.976 387.425 257 387.308 257ZM384.838 255.1C384.79 255.1 384.742 255.109 384.697 255.128C384.653 255.147 384.612 255.175 384.578 255.21C384.545 255.244 384.519 255.285 384.501 255.33C384.484 255.374 384.476 255.422 384.478 255.47V256.11C384.486 256.214 384.532 256.312 384.608 256.384C384.684 256.456 384.784 256.498 384.888 256.5H387.278C387.327 256.5 387.375 256.49 387.42 256.471C387.464 256.453 387.505 256.425 387.538 256.39C387.572 256.356 387.598 256.315 387.615 256.27C387.633 256.226 387.64 256.178 387.638 256.13V255.49C387.633 255.385 387.588 255.285 387.512 255.213C387.435 255.14 387.334 255.1 387.228 255.1H384.838Z" fill="white"/>
<path d="M387.459 257.5H384.849L384.809 256.36H387.419L387.459 257.5Z" fill="#263238"/>
<path opacity="0.2" d="M382.831 253.93L384.141 286.05C384.15 286.178 384.133 286.306 384.091 286.427C384.049 286.548 383.982 286.659 383.894 286.753C383.807 286.847 383.701 286.922 383.584 286.973C383.466 287.024 383.339 287.05 383.211 287.05H361.721C361.456 287.05 361.201 286.945 361.014 286.757C360.826 286.57 360.721 286.315 360.721 286.05L359.411 253.93C359.398 253.801 359.413 253.672 359.454 253.549C359.495 253.427 359.562 253.315 359.65 253.22C359.738 253.125 359.845 253.051 359.964 253.001C360.083 252.951 360.212 252.927 360.341 252.93H381.831C382.096 252.93 382.35 253.035 382.538 253.223C382.725 253.41 382.831 253.665 382.831 253.93Z" fill="black"/>
<path d="M344.941 174.88C344.941 175.43 344.631 175.88 344.271 175.88C343.911 175.88 343.631 175.43 343.641 174.88C343.651 174.33 343.951 173.88 344.311 173.88C344.671 173.88 345.001 174.33 344.941 174.88Z" fill="#263238"/>
<path d="M344.679 175.87C343.991 177.539 343.079 179.107 341.969 180.53C342.34 180.804 342.767 180.995 343.219 181.088C343.672 181.181 344.139 181.175 344.589 181.07L344.679 175.87Z" fill="#DE5753"/>
<path d="M347 171.86C347.079 171.847 347.151 171.804 347.2 171.74C347.253 171.671 347.276 171.584 347.265 171.498C347.253 171.412 347.209 171.333 347.14 171.28C346.736 170.964 346.261 170.749 345.757 170.653C345.252 170.557 344.732 170.584 344.24 170.73C344.2 170.744 344.162 170.767 344.131 170.796C344.099 170.825 344.074 170.86 344.056 170.9C344.038 170.939 344.028 170.981 344.027 171.024C344.026 171.067 344.034 171.11 344.05 171.15C344.079 171.229 344.139 171.294 344.216 171.33C344.293 171.365 344.381 171.369 344.46 171.34C344.851 171.229 345.262 171.214 345.661 171.294C346.059 171.374 346.432 171.547 346.75 171.8C346.784 171.829 346.824 171.85 346.868 171.86C346.911 171.871 346.957 171.871 347 171.86Z" fill="#263238"/>
<path d="M362.001 180.76C360.701 185.67 359.121 194.76 362.391 198.28C362.391 198.28 360.691 203.28 351.441 202.63C341.271 201.96 346.911 197.26 346.911 197.26C352.551 196.26 352.681 192.17 351.971 188.26L362.001 180.76Z" fill="#E4897B"/>
<path d="M363.311 174.05C362.771 180.8 362.801 184.78 359.311 188.18C354.081 193.3 345.801 190.05 344.311 183.28C342.971 177.18 344.081 167.17 350.741 164.61C352.208 164.033 353.798 163.841 355.36 164.053C356.921 164.264 358.403 164.872 359.663 165.819C360.923 166.765 361.92 168.018 362.559 169.459C363.197 170.9 363.456 172.481 363.311 174.05Z" fill="#E4897B"/>
<path d="M362.292 185.08C359.842 187.15 348.912 183.76 349.502 175.45C349.502 175.45 344.862 171.58 344.362 166.45C343.862 161.32 346.972 158.77 350.842 159.17C354.262 159.53 354.502 161.32 354.502 161.32C354.502 161.32 370.162 160.32 368.032 167.14C375.532 172.81 365.342 182.5 362.292 185.08Z" fill="#263238"/>
<path d="M352.42 176.33C352.265 178.012 351.562 179.596 350.42 180.84C348.91 182.46 347.37 181.42 347.13 179.42C346.92 177.62 347.44 174.61 349.27 173.73C351.1 172.85 352.56 174.31 352.42 176.33Z" fill="#E4897B"/>
<path d="M363.798 197.48L363.338 194.12C363.338 194.12 346.998 193 344.678 197.48C342.358 201.96 360.738 201.38 363.798 197.48Z" fill="#407BFF"/>
<path opacity="0.5" d="M363.798 197.48L363.338 194.12C363.338 194.12 346.998 193 344.678 197.48C342.358 201.96 360.738 201.38 363.798 197.48Z" fill="white"/>
<path d="M367.242 212.78L368.132 215.1L373.082 228L373.262 228.45L385.262 223.54C385.262 223.54 379.692 199.85 374.552 198.86L367.242 212.78Z" fill="#407BFF"/>
<path opacity="0.7" d="M367.242 212.78L368.132 215.1L373.082 228L373.262 228.45L385.262 223.54C385.262 223.54 379.692 199.85 374.552 198.86L367.242 212.78Z" fill="white"/>
<path opacity="0.2" d="M368.129 215.1L373.079 228C378.029 217.12 372.349 207.32 372.349 207.32C370.889 208.52 369.389 211.5 368.129 215.1Z" fill="black"/>
<path d="M394.069 408.84C394.098 408.826 394.122 408.805 394.14 408.779C394.157 408.752 394.167 408.722 394.169 408.69C394.165 408.659 394.154 408.63 394.136 408.604C394.119 408.578 394.096 408.556 394.069 408.54C393.979 408.54 391.859 407.64 390.939 408.08C390.839 408.125 390.75 408.192 390.677 408.275C390.605 408.357 390.551 408.455 390.519 408.56C390.465 408.686 390.451 408.826 390.479 408.961C390.508 409.095 390.578 409.217 390.679 409.31C390.942 409.438 391.228 409.512 391.52 409.527C391.812 409.543 392.104 409.499 392.379 409.4C392.96 409.269 393.526 409.081 394.069 408.84ZM393.579 408.7C392.579 409.09 391.259 409.37 390.889 409.06C390.889 409.06 390.749 408.94 390.829 408.65C390.851 408.589 390.884 408.533 390.927 408.485C390.97 408.437 391.021 408.398 391.079 408.37L391.269 408.31C392.059 408.268 392.848 408.401 393.579 408.7Z" fill="#407BFF"/>
<path d="M394.121 408.81C394.134 408.785 394.141 408.758 394.141 408.73C394.141 408.702 394.134 408.674 394.121 408.65C394.121 408.57 393.521 406.65 392.611 406.21C392.501 406.151 392.381 406.116 392.257 406.105C392.133 406.095 392.009 406.11 391.891 406.15C391.771 406.176 391.664 406.243 391.589 406.34C391.514 406.437 391.476 406.557 391.481 406.68C391.481 407.45 393.151 408.62 393.921 408.85H394.001L394.121 408.81ZM392.501 406.5C393.099 406.999 393.531 407.669 393.741 408.42C392.941 408.04 391.851 407.13 391.841 406.67C391.841 406.67 391.841 406.53 392.041 406.46H392.111C392.241 406.424 392.381 406.438 392.501 406.5Z" fill="#407BFF"/>
<path d="M344.109 410.35C344.141 410.345 344.171 410.329 344.195 410.306C344.218 410.282 344.233 410.253 344.239 410.22C344.245 410.188 344.24 410.156 344.226 410.127C344.211 410.098 344.188 410.075 344.159 410.06C344.059 410 341.669 408.64 340.539 408.95C340.431 408.972 340.33 409.018 340.242 409.083C340.154 409.149 340.081 409.233 340.029 409.33C339.954 409.432 339.914 409.554 339.914 409.68C339.914 409.806 339.954 409.929 340.029 410.03C340.319 410.43 341.159 410.55 342.029 410.55C342.727 410.546 343.423 410.479 344.109 410.35ZM343.579 410.12C342.319 410.29 340.579 410.28 340.269 409.84C340.269 409.84 340.189 409.69 340.269 409.49C340.3 409.431 340.344 409.379 340.398 409.339C340.451 409.3 340.513 409.272 340.579 409.26C340.682 409.25 340.786 409.25 340.889 409.26C341.834 409.366 342.748 409.658 343.579 410.12Z" fill="#407BFF"/>
<path d="M344.172 410.33C344.195 410.312 344.213 410.289 344.225 410.263C344.238 410.237 344.243 410.209 344.242 410.18C344.172 409.214 343.801 408.294 343.182 407.55C343.058 407.446 342.915 407.369 342.76 407.322C342.605 407.276 342.443 407.261 342.282 407.28C341.842 407.28 341.712 407.55 341.682 407.73C341.562 408.5 343.192 409.97 344.012 410.34H344.082C344.112 410.345 344.144 410.342 344.172 410.33ZM343.002 407.8C343.515 408.392 343.83 409.13 343.902 409.91C343.062 409.4 341.962 408.24 342.032 407.78C342.032 407.78 342.032 407.63 342.352 407.6H342.442C342.647 407.597 342.846 407.668 343.002 407.8Z" fill="#407BFF"/>
<path d="M351.582 410.2H344.762L344.082 394.4H350.902L351.582 410.2Z" fill="#E4897B"/>
<path d="M401.641 407.04L394.981 408.48L388.281 393.77L394.951 392.33L401.641 407.04Z" fill="#E4897B"/>
<path d="M394.329 407.81L401.819 406.19C401.951 406.161 402.09 406.178 402.212 406.238C402.333 406.298 402.431 406.397 402.489 406.52L405.089 412.16C405.152 412.298 405.184 412.448 405.18 412.6C405.177 412.751 405.139 412.9 405.07 413.035C405 413.17 404.901 413.287 404.78 413.378C404.658 413.469 404.518 413.531 404.369 413.56C401.749 414.08 400.439 414.2 397.149 414.92C395.149 415.36 390.549 416.47 387.749 417.08C384.949 417.69 383.999 415 385.079 414.5C389.969 412.26 392.019 410.29 393.339 408.5C393.574 408.157 393.926 407.912 394.329 407.81Z" fill="#263238"/>
<path d="M344.801 409.41H352.251C352.386 409.409 352.517 409.454 352.623 409.538C352.728 409.622 352.802 409.739 352.831 409.87L354.181 415.94C354.213 416.088 354.211 416.241 354.175 416.388C354.139 416.534 354.071 416.671 353.975 416.787C353.878 416.904 353.757 416.997 353.62 417.06C353.482 417.123 353.333 417.154 353.181 417.15C350.491 417.15 346.612 416.95 343.232 416.95C339.282 416.95 335.872 417.16 331.232 417.16C328.432 417.16 327.651 414.33 328.821 414.07C334.161 412.91 338.521 412.78 343.131 409.94C343.626 409.608 344.206 409.424 344.801 409.41Z" fill="#263238"/>
<path opacity="0.2" d="M344.082 394.4L344.432 402.55H351.252L350.902 394.4H344.082Z" fill="black"/>
<path opacity="0.2" d="M394.951 392.33L388.281 393.77L391.741 401.36L398.411 399.91L394.951 392.33Z" fill="black"/>
<path d="M347.672 249.24C347.672 249.24 355.412 299.24 359.672 317.97C364.322 338.48 389.282 406.34 389.282 406.34L401.492 403.81C401.492 403.81 384.042 348.51 380.132 319.81C377.132 297.81 371.222 249.22 371.222 249.22L347.672 249.24Z" fill="#263238"/>
<path opacity="0.3" d="M352.561 267.05C361.511 268.74 360.561 300.75 359.491 317.22C356.911 305.58 353.131 283.22 350.551 267.29C351.176 266.99 351.883 266.906 352.561 267.05Z" fill="black"/>
<path d="M334.73 249.24C334.73 249.24 333.79 298.16 334.53 318.11C335.3 338.86 342.86 406.81 342.86 406.81H354.41C354.41 406.81 354.84 340.07 355.35 319.69C355.91 297.47 358.71 249.24 358.71 249.24H334.73Z" fill="#263238"/>
<path d="M332.422 228.7C332.772 236.39 333.422 245.01 334.652 253.89L371.652 252.77C371.652 252.77 371.282 221.59 374.582 198.9C374.582 198.9 349.882 194.36 332.522 198.59C332.522 198.59 332.172 203.69 332.112 211.88C332.072 216.58 332.142 222.32 332.422 228.7Z" fill="#407BFF"/>
<path d="M372.132 253.46L370.832 253.5L371.042 256.39L372.352 256.35L372.132 253.46Z" fill="black"/>
<path d="M369.499 253.55L358.379 253.9L358.599 256.8L369.689 256.44L369.499 253.55Z" fill="black"/>
<path d="M357.05 253.94L342 254.41L342.2 257.34L357.25 256.84L357.05 253.94Z" fill="black"/>
<path d="M334.242 254.66V257.6L340.872 257.39L340.672 254.45L334.242 254.66Z" fill="black"/>
<path opacity="0.7" d="M332.422 228.7C332.772 236.39 333.422 245.01 334.652 253.89L371.652 252.77C371.652 252.77 371.282 221.59 374.582 198.9C374.582 198.9 349.882 194.36 332.522 198.59C332.522 198.59 332.172 203.69 332.112 211.88C332.072 216.58 332.142 222.32 332.422 228.7Z" fill="white"/>
<path opacity="0.2" d="M332.42 228.7C338.5 221.54 340 209.82 340 209.82C337.24 209.863 334.53 210.57 332.1 211.88C332.07 216.58 332.14 222.32 332.42 228.7Z" fill="black"/>
<path d="M337.879 206.94C335.079 213.73 327.689 232.4 319.289 232.52C309.599 231.75 303.939 216.52 302.289 208.44L306.999 207C308.826 210.804 310.967 214.45 313.399 217.9C315.279 220.37 317.139 222.82 319.919 223.8H320.019C319.464 223.594 318.859 223.57 318.289 223.73C322.629 218.27 325.819 210.13 328.799 203.34L337.909 206.92L337.879 206.94Z" fill="#E4897B"/>
<path d="M304.8 193.85L297.57 196.39L299.43 202.78L308.34 200.2L304.8 193.85Z" fill="#E4897B"/>
<path d="M307.91 208.69L308.34 200.2L299.43 202.78C299.43 202.78 300.5 210.32 304.03 210.66L307.91 208.69Z" fill="#E4897B"/>
<path d="M332.509 198.59C327.949 199.91 319.609 219.91 319.609 219.91L331.149 227C331.149 227 340.869 215.87 340.869 209.95C340.869 199.27 332.509 198.59 332.509 198.59Z" fill="#407BFF"/>
<path opacity="0.7" d="M332.509 198.59C327.949 199.91 319.609 219.91 319.609 219.91L331.149 227C331.149 227 340.869 215.87 340.869 209.95C340.869 199.27 332.509 198.59 332.509 198.59Z" fill="white"/>
<path d="M387.48 255C386.22 248.66 376.48 200.4 373.18 198.52L370.27 198.29C372.06 200.01 372.46 201.43 384.76 255.69H386.91C386.995 255.69 387.08 255.671 387.157 255.635C387.234 255.598 387.303 255.545 387.357 255.479C387.412 255.413 387.451 255.336 387.472 255.253C387.493 255.171 387.496 255.084 387.48 255Z" fill="#263238"/>
</svg>
