<svg width="500" height="500" viewBox="0 0 500 500" fill="none" xmlns="http://www.w3.org/2000/svg">
<rect width="500" height="500" fill="#8468F5" fill-opacity="0.2"/>
<path d="M500 382.4H0V382.65H500V382.4Z" fill="#EBEBEB"/>
<path d="M449.901 398.49H416.781V398.74H449.901V398.49Z" fill="#EBEBEB"/>
<path d="M331.221 401.21H322.531V401.46H331.221V401.21Z" fill="#EBEBEB"/>
<path d="M415.78 389.21H396.59V389.46H415.78V389.21Z" fill="#EBEBEB"/>
<path d="M95.6509 390.89H52.4609V391.14H95.6509V390.89Z" fill="#EBEBEB"/>
<path d="M110.889 390.89H104.559V391.14H110.889V390.89Z" fill="#EBEBEB"/>
<path d="M225.149 395.11H131.469V395.36H225.149V395.11Z" fill="#EBEBEB"/>
<path d="M237.001 337.8H43.9109C42.3983 337.797 40.9485 337.195 39.8798 336.124C38.8112 335.054 38.2109 333.603 38.2109 332.09V60.66C38.2241 59.156 38.8301 57.718 39.8974 56.6582C40.9646 55.5985 42.4069 55.0026 43.9109 55H237.001C238.515 55 239.968 55.6016 241.039 56.6724C242.109 57.7433 242.711 59.1956 242.711 60.71V332.09C242.711 333.604 242.109 335.057 241.039 336.128C239.968 337.198 238.515 337.8 237.001 337.8ZM43.9109 55.2C42.4646 55.2026 41.0784 55.7791 40.0566 56.8027C39.0348 57.8264 38.4609 59.2136 38.4609 60.66V332.09C38.4609 333.536 39.0348 334.924 40.0566 335.947C41.0784 336.971 42.4646 337.547 43.9109 337.55H237.001C238.448 337.547 239.835 336.971 240.859 335.948C241.882 334.924 242.458 333.537 242.461 332.09V60.66C242.458 59.2127 241.882 57.8255 240.859 56.8021C239.835 55.7787 238.448 55.2026 237.001 55.2H43.9109Z" fill="#EBEBEB"/>
<path d="M453.31 337.8H260.21C258.696 337.797 257.246 337.195 256.175 336.125C255.105 335.054 254.503 333.604 254.5 332.09V60.66C254.516 59.1551 255.124 57.7171 256.193 56.6576C257.262 55.5981 258.705 55.0025 260.21 55H453.31C454.812 55.0052 456.252 55.6022 457.317 56.6617C458.382 57.7212 458.987 59.1578 459 60.66V332.09C459 333.601 458.401 335.05 457.335 336.121C456.268 337.191 454.821 337.795 453.31 337.8ZM260.21 55.2C258.763 55.2026 257.375 55.7787 256.352 56.8021C255.329 57.8255 254.753 59.2127 254.75 60.66V332.09C254.753 333.537 255.329 334.924 256.352 335.948C257.375 336.971 258.763 337.547 260.21 337.55H453.31C454.757 337.547 456.145 336.971 457.168 335.948C458.191 334.924 458.767 333.537 458.77 332.09V60.66C458.767 59.2127 458.191 57.8255 457.168 56.8021C456.145 55.7787 454.757 55.2026 453.31 55.2H260.21Z" fill="#EBEBEB"/>
<path d="M309.489 376.57H288.379L299.479 286.2C299.745 284.313 300.672 282.581 302.095 281.312C303.517 280.043 305.343 279.32 307.249 279.27H399.349L385.849 376.57H309.489Z" fill="#F5F5F5"/>
<path d="M376.43 376.57H397.54L408.64 286.2C408.776 285.331 408.72 284.443 408.475 283.598C408.23 282.753 407.803 281.972 407.223 281.311C406.643 280.65 405.924 280.124 405.118 279.772C404.313 279.419 403.439 279.248 402.56 279.27H395.31C393.403 279.318 391.574 280.04 390.149 281.309C388.725 282.578 387.797 284.311 387.53 286.2L376.43 376.57Z" fill="#F0F0F0"/>
<path d="M368.662 376.47L372.482 332.75C372.569 331.807 372.976 330.921 373.634 330.24C374.292 329.558 375.162 329.121 376.102 329L377.682 328.8C378.938 328.641 380.104 328.059 380.987 327.151C381.87 326.242 382.418 325.061 382.542 323.8L383.232 315.8C383.3 315.028 383.206 314.251 382.958 313.517C382.709 312.783 382.311 312.109 381.788 311.538C381.266 310.966 380.63 310.509 379.921 310.196C379.212 309.883 378.446 309.721 377.672 309.72H412.942C413.717 309.72 414.484 309.881 415.194 310.193C415.904 310.505 416.541 310.962 417.065 311.534C417.589 312.106 417.988 312.78 418.237 313.515C418.486 314.249 418.58 315.027 418.512 315.8L417.812 323.8C417.69 325.061 417.142 326.244 416.259 327.153C415.376 328.061 414.209 328.642 412.952 328.8L411.382 329C410.439 329.122 409.566 329.562 408.908 330.247C408.249 330.933 407.845 331.823 407.762 332.77L403.932 376.49C403.797 378.026 403.092 379.456 401.955 380.498C400.819 381.54 399.334 382.118 397.792 382.12H362.512C364.058 382.118 365.547 381.537 366.685 380.491C367.824 379.445 368.529 378.01 368.662 376.47Z" fill="#E6E6E6"/>
<path d="M271.58 321.81C271.29 318.499 269.769 315.416 267.318 313.171C264.867 310.925 261.664 309.68 258.34 309.68H289.05C292.374 309.68 295.577 310.925 298.028 313.171C300.479 315.416 302 318.499 302.29 321.81L305.29 356.46H274.61L271.58 321.81Z" fill="#E6E6E6"/>
<path d="M244.701 309.68H258.341C261.665 309.68 264.868 310.925 267.319 313.171C269.77 315.416 271.291 318.499 271.581 321.81L274.581 356.46H347.721L350.721 321.81C351.014 318.493 352.541 315.406 355 313.16C357.459 310.914 360.671 309.672 364.001 309.68H377.651C378.426 309.681 379.192 309.843 379.9 310.156C380.609 310.469 381.245 310.926 381.768 311.498C382.29 312.069 382.689 312.743 382.937 313.477C383.186 314.211 383.279 314.988 383.211 315.76L382.521 323.76C382.397 325.021 381.849 326.202 380.966 327.111C380.083 328.019 378.918 328.601 377.661 328.76L376.081 328.96C375.138 329.082 374.265 329.522 373.607 330.207C372.949 330.893 372.544 331.783 372.461 332.73L368.641 376.45C368.504 377.987 367.796 379.417 366.658 380.458C365.52 381.5 364.034 382.079 362.491 382.08H259.851C258.309 382.078 256.824 381.5 255.687 380.458C254.551 379.416 253.846 377.986 253.711 376.45L249.881 332.73C249.798 331.783 249.393 330.893 248.735 330.207C248.076 329.522 247.204 329.082 246.261 328.96L244.691 328.76C243.433 328.602 242.267 328.021 241.384 327.113C240.5 326.204 239.953 325.021 239.831 323.76L239.131 315.76C239.063 314.987 239.156 314.209 239.405 313.475C239.655 312.74 240.054 312.066 240.578 311.494C241.101 310.922 241.739 310.465 242.448 310.153C243.158 309.841 243.925 309.68 244.701 309.68Z" fill="#F0F0F0"/>
<path d="M92.5082 131.35C92.5082 131.35 91.3382 123.62 96.9682 118.67C102.598 113.72 102.108 110.77 100.498 110.38C98.8882 109.99 97.4082 114.95 94.9282 116.31C94.9282 116.31 94.8482 109.25 97.3682 106.65C99.8882 104.05 101.208 97.3501 98.8082 97.2401C96.4082 97.1301 96.1682 101.24 95.6682 104.12C95.1682 107 92.5082 111.12 92.5082 111.12C92.5082 111.12 91.9882 104.81 90.3582 102.2C88.7282 99.5901 93.0682 93.6601 91.3582 91.0601C89.6482 88.4601 86.7582 93.4001 86.9982 99.0001C87.2382 104.6 90.9982 110.52 90.0982 116.34C90.0982 116.34 88.4582 112.26 86.9882 111.89C85.5182 111.52 83.9882 108.81 83.0382 107.81C82.0882 106.81 80.8082 110.28 83.0382 113.5C85.2682 116.72 90.9982 125.3 90.0982 132.26L92.5082 131.35Z" fill="#E6E6E6"/>
<path d="M95.8812 127.83L97.7312 139.41C97.8641 140.252 97.8131 141.112 97.5818 141.932C97.3505 142.752 96.9444 143.512 96.3914 144.16C95.8383 144.808 95.1515 145.329 94.3781 145.686C93.6048 146.043 92.7632 146.229 91.9112 146.23H89.9112C89.0596 146.229 88.2183 146.044 87.4453 145.686C86.6723 145.329 85.986 144.808 85.4337 144.16C84.8815 143.511 84.4763 142.751 84.2463 141.931C84.0163 141.111 83.9668 140.251 84.1012 139.41L86.0012 127.83H95.8812Z" fill="#E6E6E6"/>
<path d="M67.9702 148.66L198.41 148.66V141.96L67.9702 141.96V148.66Z" fill="#E0E0E0"/>
<path d="M186.648 141.95H192.398V117.25H186.648V141.95Z" fill="#EBEBEB"/>
<path d="M158.871 141.95H164.621V117.25H158.871V141.95Z" fill="#EBEBEB"/>
<path d="M123.127 140.977L128.793 141.954L132.989 117.613L127.322 116.636L123.127 140.977Z" fill="#EBEBEB"/>
<path d="M179.531 141.96H185.281V120.51H179.531V141.96Z" fill="#EBEBEB"/>
<path d="M166.32 141.96H172.07V120.51H166.32V141.96Z" fill="#EBEBEB"/>
<path d="M132.988 141.96H138.738V120.51H132.988V141.96Z" fill="#EBEBEB"/>
<path d="M146.68 140.693L152.293 141.941L156.947 121.002L151.334 119.754L146.68 140.693Z" fill="#EBEBEB"/>
<path d="M174.571 141.96H177.441V116.03H174.571V141.96Z" fill="#EBEBEB"/>
<path d="M140.392 141.96H143.262V116.03H140.392V141.96Z" fill="#EBEBEB"/>
<path d="M198.409 191.98H67.9688V198.68H198.409V191.98Z" fill="#E0E0E0"/>
<path d="M79.7188 167.28H73.9688V191.98H79.7188V167.28Z" fill="#EBEBEB"/>
<path d="M107.512 167.28H101.762V191.98H107.512V167.28Z" fill="#EBEBEB"/>
<path d="M139.049 166.66L133.383 167.637L137.578 191.978L143.245 191.001L139.049 166.66Z" fill="#EBEBEB"/>
<path d="M86.8398 170.54H81.0898V191.99H86.8398V170.54Z" fill="#EBEBEB"/>
<path d="M100.051 170.54H94.3008V191.99H100.051V170.54Z" fill="#EBEBEB"/>
<path d="M133.391 170.54H127.641V191.99H133.391V170.54Z" fill="#EBEBEB"/>
<path d="M115.062 169.796L109.449 171.043L114.103 191.983L119.716 190.735L115.062 169.796Z" fill="#EBEBEB"/>
<path d="M91.8114 166.05H88.9414V191.98H91.8114V166.05Z" fill="#EBEBEB"/>
<path d="M125.991 166.05H123.121V191.98H125.991V166.05Z" fill="#EBEBEB"/>
<path d="M185.891 172.43H157.891V191.76H185.891V172.43Z" fill="#EBEBEB"/>
<path d="M410.331 124.21H298.141V248.29H410.331V124.21Z" fill="#E0E0E0"/>
<path d="M413.911 124.21H297.551V248.29H413.911V124.21Z" fill="#F0F0F0"/>
<path d="M408.989 128.17H302.289V242.59H408.989V128.17Z" fill="white"/>
<path d="M408.988 128.17H405.898V242.59H408.988V128.17Z" fill="#E0E0E0"/>
<path d="M302.012 210.44V213.53H406.232V210.44H302.012Z" fill="#E0E0E0"/>
<path d="M408.989 205.27H300.629V210.45H408.989V205.27Z" fill="#F0F0F0"/>
<path d="M249.999 427.56C357.082 427.56 443.889 422.492 443.889 416.24C443.889 409.988 357.082 404.92 249.999 404.92C142.917 404.92 56.1094 409.988 56.1094 416.24C56.1094 422.492 142.917 427.56 249.999 427.56Z" fill="#F5F5F5"/>
<path d="M327.172 399.75C327.314 399.444 327.381 399.109 327.367 398.772C327.354 398.435 327.26 398.106 327.094 397.813C326.927 397.52 326.694 397.27 326.412 397.085C326.13 396.9 325.808 396.785 325.472 396.75C325.775 395.87 325.8 394.917 325.542 394.023C325.284 393.128 324.757 392.334 324.032 391.75C323.862 391.592 323.644 391.493 323.412 391.47C323.163 391.496 322.928 391.601 322.742 391.77L318.742 394.61C318.426 394.806 318.159 395.073 317.962 395.39C317.152 396.96 320.062 398.97 318.862 400.26C318.522 400.63 317.972 400.71 317.542 400.98C316.592 401.57 316.482 402.86 316.042 403.88C315.602 404.9 314.042 405.7 313.482 404.75C313.912 403.75 312.612 402.93 311.542 402.81C310.472 402.69 309.372 402.62 308.782 401.63C307.272 402.94 303.892 399.26 303.972 397.78C303.376 397.887 302.828 398.178 302.405 398.612C301.982 399.046 301.705 399.601 301.612 400.2C301.439 401.425 301.395 402.665 301.482 403.9C301.482 406.3 300.672 408.65 300.712 411.05C300.712 412.92 301.472 415 303.182 415.75C304.035 416.051 304.94 416.173 305.842 416.11L325.332 415.98C325.8 416.015 326.269 415.939 326.702 415.76C327.582 415.3 327.762 414.14 327.842 413.15L328.892 400.45L327.172 399.75Z" fill="#8568F5"/>
<path opacity="0.3" d="M327.172 399.75C327.314 399.444 327.381 399.109 327.367 398.772C327.354 398.435 327.26 398.106 327.094 397.813C326.927 397.52 326.694 397.27 326.412 397.085C326.13 396.9 325.808 396.785 325.472 396.75C325.775 395.87 325.8 394.917 325.542 394.023C325.284 393.128 324.757 392.334 324.032 391.75C323.862 391.592 323.644 391.493 323.412 391.47C323.163 391.496 322.928 391.601 322.742 391.77L318.742 394.61C318.426 394.806 318.159 395.073 317.962 395.39C317.152 396.96 320.062 398.97 318.862 400.26C318.522 400.63 317.972 400.71 317.542 400.98C316.592 401.57 316.482 402.86 316.042 403.88C315.602 404.9 314.042 405.7 313.482 404.75C313.912 403.75 312.612 402.93 311.542 402.81C310.472 402.69 309.372 402.62 308.782 401.63C307.272 402.94 303.892 399.26 303.972 397.78C303.376 397.887 302.828 398.178 302.405 398.612C301.982 399.046 301.705 399.601 301.612 400.2C301.439 401.425 301.395 402.665 301.482 403.9C301.482 406.3 300.672 408.65 300.712 411.05C300.712 412.92 301.472 415 303.182 415.75C304.035 416.051 304.94 416.173 305.842 416.11L325.332 415.98C325.8 416.015 326.269 415.939 326.702 415.76C327.582 415.3 327.762 414.14 327.842 413.15L328.892 400.45L327.172 399.75Z" fill="white"/>
<path d="M328.302 379.15H298.062L298.312 382.21L298.492 384.39L298.953 390.06L299.212 393.33L299.562 397.67L299.712 399.53L299.763 400.08L299.943 402.27L300.182 405.27L300.332 407.13L300.483 409.02L300.663 411.21L300.802 412.87L300.953 414.73L301.013 415.54H328.763L328.832 414.73L328.983 412.87L329.112 411.2L329.293 409.01L329.453 407.13L329.603 405.27L329.842 402.27L330.022 400.09V399.54L330.173 397.68L330.522 393.34L330.793 390.08L331.242 384.4L331.423 382.22L331.673 379.16L328.302 379.15ZM330.122 381.15L329.543 380.57H330.173L330.122 381.15ZM330.003 383L329.953 383.74L327.242 386.44L324.133 383.34L326.913 380.56H327.573L330.003 383ZM329.223 392.68L327.223 394.68L324.112 391.57L327.223 388.48L329.362 390.62L329.223 392.68ZM300.443 390.6L302.592 388.46L305.693 391.55L302.592 394.66L300.592 392.66L300.443 390.6ZM326.242 387.45L323.133 390.55L320.033 387.45L323.133 384.34L326.242 387.45ZM321.362 380.56H324.913L323.133 382.34L321.362 380.56ZM322.122 391.56L319.022 394.67L315.923 391.56L319.022 388.47L322.122 391.56ZM311.812 395.67L314.923 392.57L318.022 395.67L314.923 398.78L311.812 395.67ZM313.913 399.78L310.802 402.88L307.712 399.78L310.812 396.68L313.913 399.78ZM319.022 396.68L322.122 399.78L319.022 402.88L315.923 399.78L319.022 396.68ZM314.923 390.56L311.812 387.46L314.923 384.35L318.022 387.46L314.923 390.56ZM313.923 391.56L310.823 394.67L307.723 391.56L310.823 388.47L313.923 391.56ZM306.712 390.56L303.612 387.46L306.712 384.35L309.812 387.46L306.712 390.56ZM306.712 392.56L309.812 395.66L306.712 398.77L303.612 395.66L306.712 392.56ZM309.812 403.88L306.712 406.98L303.612 403.88L306.712 400.78L309.812 403.88ZM310.812 404.88L313.923 407.99L310.823 411.09L307.723 407.99L310.812 404.88ZM311.812 403.88L314.923 400.78L318.022 403.88L314.923 406.98L311.812 403.88ZM319.022 404.88L322.122 407.99L319.022 411.09L315.923 407.99L319.022 404.88ZM323.103 409L326.212 412.11L324.212 414.11H322.003L320.003 412.11L323.103 409ZM320.003 403.89L323.103 400.79L326.212 403.89L323.103 407L320.003 403.89ZM320.003 395.67L323.103 392.57L326.212 395.67L323.103 398.78L320.003 395.67ZM322.092 383.35L318.992 386.45L315.893 383.35L318.673 380.57H319.323L322.092 383.35ZM314.893 382.35L313.112 380.57H316.663L314.893 382.35ZM313.893 383.35L310.793 386.45L307.693 383.35L310.462 380.57H311.122L313.893 383.35ZM308.453 380.57L306.682 382.35L304.913 380.57H308.453ZM302.902 380.57L305.673 383.35L302.573 386.45L299.872 383.75L299.812 383.01L302.242 380.57H302.902ZM300.242 380.57L299.663 381.15V380.57H300.242ZM300.052 385.94L301.573 387.46L300.272 388.75L300.052 385.94ZM300.893 396.35L300.772 394.88L301.573 395.68L300.893 396.36V396.35ZM301.043 398.21L302.573 396.68L305.673 399.78L302.573 402.88L301.323 401.63L301.043 398.21ZM301.503 403.96V403.82L301.573 403.89L301.503 403.96ZM302.043 410.57L301.652 405.81L302.573 404.89L305.673 408L302.573 411.1L302.043 410.57ZM302.332 414.12L302.272 413.41L302.573 413.11L303.573 414.11L302.332 414.12ZM303.582 412.12L306.682 409.01L309.783 412.12L307.783 414.12H305.592L303.582 412.12ZM309.783 414.12L310.783 413.12L311.783 414.12H309.783ZM313.783 414.12L311.783 412.12L314.893 409.01L317.992 412.12L315.992 414.12H313.783ZM317.983 414.12L318.983 413.12L319.983 414.12H317.983ZM327.443 414.12H326.203L327.203 413.12L327.503 413.42L327.443 414.12ZM327.733 410.57L327.203 411.1L324.103 408L327.212 404.89L328.133 405.81L327.733 410.57ZM328.283 403.81V403.96L328.223 403.89L328.302 403.81H328.283ZM328.462 401.63L327.203 402.88L324.092 399.78L327.203 396.68L328.733 398.21L328.462 401.63ZM328.883 396.35L328.203 395.67L329.003 394.88L328.883 396.35ZM329.733 385.93L329.503 388.76L328.203 387.46L329.733 385.93Z" fill="#8568F5"/>
<g opacity="0.6">
<path d="M328.302 379.15H298.062L298.312 382.21L298.492 384.39L298.953 390.06L299.212 393.33L299.562 397.67L299.712 399.53L299.763 400.08L299.943 402.27L300.182 405.27L300.332 407.13L300.483 409.02L300.663 411.21L300.802 412.87L300.953 414.73L301.013 415.54H328.763L328.832 414.73L328.983 412.87L329.112 411.2L329.293 409.01L329.453 407.13L329.603 405.27L329.842 402.27L330.022 400.09V399.54L330.173 397.68L330.522 393.34L330.793 390.08L331.242 384.4L331.423 382.22L331.673 379.16L328.302 379.15ZM330.122 381.15L329.543 380.57H330.173L330.122 381.15ZM330.003 383L329.953 383.74L327.242 386.44L324.133 383.34L326.913 380.56H327.573L330.003 383ZM329.223 392.68L327.223 394.68L324.112 391.57L327.223 388.48L329.362 390.62L329.223 392.68ZM300.443 390.6L302.592 388.46L305.693 391.55L302.592 394.66L300.592 392.66L300.443 390.6ZM326.242 387.45L323.133 390.55L320.033 387.45L323.133 384.34L326.242 387.45ZM321.362 380.56H324.913L323.133 382.34L321.362 380.56ZM322.122 391.56L319.022 394.67L315.923 391.56L319.022 388.47L322.122 391.56ZM311.812 395.67L314.923 392.57L318.022 395.67L314.923 398.78L311.812 395.67ZM313.913 399.78L310.802 402.88L307.712 399.78L310.812 396.68L313.913 399.78ZM319.022 396.68L322.122 399.78L319.022 402.88L315.923 399.78L319.022 396.68ZM314.923 390.56L311.812 387.46L314.923 384.35L318.022 387.46L314.923 390.56ZM313.923 391.56L310.823 394.67L307.723 391.56L310.823 388.47L313.923 391.56ZM306.712 390.56L303.612 387.46L306.712 384.35L309.812 387.46L306.712 390.56ZM306.712 392.56L309.812 395.66L306.712 398.77L303.612 395.66L306.712 392.56ZM309.812 403.88L306.712 406.98L303.612 403.88L306.712 400.78L309.812 403.88ZM310.812 404.88L313.923 407.99L310.823 411.09L307.723 407.99L310.812 404.88ZM311.812 403.88L314.923 400.78L318.022 403.88L314.923 406.98L311.812 403.88ZM319.022 404.88L322.122 407.99L319.022 411.09L315.923 407.99L319.022 404.88ZM323.103 409L326.212 412.11L324.212 414.11H322.003L320.003 412.11L323.103 409ZM320.003 403.89L323.103 400.79L326.212 403.89L323.103 407L320.003 403.89ZM320.003 395.67L323.103 392.57L326.212 395.67L323.103 398.78L320.003 395.67ZM322.092 383.35L318.992 386.45L315.893 383.35L318.673 380.57H319.323L322.092 383.35ZM314.893 382.35L313.112 380.57H316.663L314.893 382.35ZM313.893 383.35L310.793 386.45L307.693 383.35L310.462 380.57H311.122L313.893 383.35ZM308.453 380.57L306.682 382.35L304.913 380.57H308.453ZM302.902 380.57L305.673 383.35L302.573 386.45L299.872 383.75L299.812 383.01L302.242 380.57H302.902ZM300.242 380.57L299.663 381.15V380.57H300.242ZM300.052 385.94L301.573 387.46L300.272 388.75L300.052 385.94ZM300.893 396.35L300.772 394.88L301.573 395.68L300.893 396.36V396.35ZM301.043 398.21L302.573 396.68L305.673 399.78L302.573 402.88L301.323 401.63L301.043 398.21ZM301.503 403.96V403.82L301.573 403.89L301.503 403.96ZM302.043 410.57L301.652 405.81L302.573 404.89L305.673 408L302.573 411.1L302.043 410.57ZM302.332 414.12L302.272 413.41L302.573 413.11L303.573 414.11L302.332 414.12ZM303.582 412.12L306.682 409.01L309.783 412.12L307.783 414.12H305.592L303.582 412.12ZM309.783 414.12L310.783 413.12L311.783 414.12H309.783ZM313.783 414.12L311.783 412.12L314.893 409.01L317.992 412.12L315.992 414.12H313.783ZM317.983 414.12L318.983 413.12L319.983 414.12H317.983ZM327.443 414.12H326.203L327.203 413.12L327.503 413.42L327.443 414.12ZM327.733 410.57L327.203 411.1L324.103 408L327.212 404.89L328.133 405.81L327.733 410.57ZM328.283 403.81V403.96L328.223 403.89L328.302 403.81H328.283ZM328.462 401.63L327.203 402.88L324.092 399.78L327.203 396.68L328.733 398.21L328.462 401.63ZM328.883 396.35L328.203 395.67L329.003 394.88L328.883 396.35ZM329.733 385.93L329.503 388.76L328.203 387.46L329.733 385.93Z" fill="white"/>
</g>
<path d="M297.761 381.84H332.001C332.906 381.84 333.641 381.106 333.641 380.2V379.52C333.641 378.614 332.906 377.88 332.001 377.88H297.761C296.855 377.88 296.121 378.614 296.121 379.52V380.2C296.121 381.106 296.855 381.84 297.761 381.84Z" fill="#8568F5"/>
<path d="M329.302 413.41H300.472C299.566 413.41 298.832 414.144 298.832 415.05V415.73C298.832 416.636 299.566 417.37 300.472 417.37H329.302C330.208 417.37 330.942 416.636 330.942 415.73V415.05C330.942 414.144 330.208 413.41 329.302 413.41Z" fill="#8568F5"/>
<path d="M429.42 93.51H181.36C179.08 93.51 177.23 95.3591 177.23 97.64V276.59C177.23 278.871 179.08 280.72 181.36 280.72H429.42C431.701 280.72 433.55 278.871 433.55 276.59V97.64C433.55 95.3591 431.701 93.51 429.42 93.51Z" fill="#8568F5"/>
<path opacity="0.4" d="M433.55 103.63H177.23V272.61H433.55V103.63Z" fill="black"/>
<path d="M427.551 100.85C428.882 100.85 429.961 99.771 429.961 98.44C429.961 97.109 428.882 96.03 427.551 96.03C426.22 96.03 425.141 97.109 425.141 98.44C425.141 99.771 426.22 100.85 427.551 100.85Z" fill="white"/>
<path d="M419.422 100.85C420.753 100.85 421.832 99.771 421.832 98.44C421.832 97.109 420.753 96.03 419.422 96.03C418.091 96.03 417.012 97.109 417.012 98.44C417.012 99.771 418.091 100.85 419.422 100.85Z" fill="white"/>
<path d="M411.289 100.85C412.62 100.85 413.699 99.771 413.699 98.44C413.699 97.109 412.62 96.03 411.289 96.03C409.958 96.03 408.879 97.109 408.879 98.44C408.879 99.771 409.958 100.85 411.289 100.85Z" fill="white"/>
<path d="M261.47 191.45H178.18V264.43H261.47V191.45Z" fill="#263238"/>
<path d="M261.47 116.86H178.18V189.84H261.47V116.86Z" fill="#263238"/>
<path d="M346.669 116.86H263.379V189.84H346.669V116.86Z" fill="#8568F5"/>
<path d="M431.88 116.86H348.59V189.84H431.88V116.86Z" fill="white"/>
<path d="M346.669 191.45H263.379V264.43H346.669V191.45Z" fill="#263238"/>
<path d="M431.88 191.45H348.59V264.43H431.88V191.45Z" fill="#8568F5"/>
<path d="M417.612 189.84L419.502 173.92C419.754 171.864 419.234 169.788 418.042 168.093C416.85 166.399 415.072 165.208 413.052 164.75C391.432 159.94 378.532 164.7 378.532 164.7C373.693 172.531 369.955 180.99 367.422 189.84H417.612Z" fill="#263238"/>
<path d="M401.999 164.06C403.852 163.856 405.719 163.82 407.579 163.95C402.879 160.02 405.209 150.04 407.119 144.62L392.589 152.83C392.757 153.524 392.877 154.229 392.949 154.94C393.131 156.21 392.98 157.506 392.509 158.7C391.652 160.232 390.475 161.563 389.059 162.6L394.879 165.19L401.999 164.06Z" fill="#E4897B"/>
<path opacity="0.2" d="M403.789 149.84C403.209 156.5 396.049 158.33 392.539 158.7C393.01 157.506 393.162 156.21 392.979 154.94L403.789 149.84Z" fill="black"/>
<path d="M384.68 129.69C384.68 129.69 383.54 139.16 389.04 143.15C394.54 147.14 393.35 124 393.35 124L384.68 129.69Z" fill="#263238"/>
<path d="M406.002 149.7C405.714 150.286 405.379 150.847 405.002 151.38C403.93 152.969 402.396 154.191 400.608 154.881C398.82 155.571 396.863 155.697 395.002 155.24C394.738 155.182 394.477 155.108 394.222 155.02C391.769 154.253 389.688 152.603 388.382 150.39C388.382 150.32 388.292 150.23 388.242 150.16C388.062 149.84 387.902 149.51 387.742 149.16C387.434 148.424 387.164 147.673 386.932 146.91C384.932 140.48 385.172 129.73 391.142 126.04C395.892 123.04 403.402 124.04 406.392 128.81C407.252 130.16 406.292 133.69 406.442 135.28C407.152 141.74 407.872 145.85 406.002 149.7Z" fill="#E4897B"/>
<path d="M395.639 139.24C395.779 139.82 395.509 140.37 395.109 140.44C394.709 140.51 394.319 140.07 394.219 139.44C394.119 138.81 394.349 138.3 394.739 138.24C395.129 138.18 395.529 138.64 395.639 139.24Z" fill="#263238"/>
<path d="M388.88 140.39C389.02 140.98 388.74 141.53 388.35 141.59C387.96 141.65 387.57 141.22 387.46 140.59C387.35 139.96 387.6 139.45 387.98 139.39C388.36 139.33 388.78 139.83 388.88 140.39Z" fill="#263238"/>
<path d="M391.078 140.32C390.674 142.27 390.001 144.155 389.078 145.92C389.544 146.148 390.054 146.27 390.573 146.279C391.091 146.287 391.605 146.182 392.078 145.97L391.078 140.32Z" fill="#DE5753"/>
<path d="M397.361 136.69C397.297 136.71 397.23 136.713 397.165 136.699C397.1 136.685 397.04 136.654 396.991 136.61C396.672 136.299 396.286 136.067 395.863 135.929C395.44 135.792 394.991 135.755 394.551 135.82C394.459 135.841 394.363 135.826 394.283 135.777C394.202 135.729 394.144 135.651 394.121 135.56C394.109 135.515 394.106 135.469 394.113 135.423C394.12 135.377 394.136 135.333 394.16 135.294C394.185 135.255 394.217 135.221 394.255 135.194C394.292 135.168 394.335 135.149 394.381 135.14C394.94 135.044 395.514 135.084 396.054 135.259C396.594 135.433 397.083 135.735 397.481 136.14C397.545 136.207 397.582 136.297 397.582 136.39C397.582 136.483 397.545 136.573 397.481 136.64C397.444 136.663 397.403 136.68 397.361 136.69Z" fill="#263238"/>
<path d="M385.579 138.56C385.515 138.597 385.442 138.614 385.369 138.61C385.324 138.597 385.282 138.576 385.245 138.547C385.209 138.518 385.178 138.482 385.156 138.441C385.134 138.4 385.12 138.354 385.115 138.308C385.11 138.262 385.115 138.215 385.129 138.17C385.274 137.622 385.548 137.117 385.929 136.697C386.31 136.278 386.787 135.956 387.319 135.76C387.409 135.735 387.505 135.746 387.587 135.791C387.67 135.836 387.731 135.911 387.759 136C387.784 136.09 387.773 136.186 387.728 136.269C387.683 136.351 387.608 136.412 387.519 136.44C387.105 136.608 386.736 136.87 386.441 137.205C386.146 137.54 385.933 137.938 385.819 138.37C385.794 138.417 385.76 138.457 385.719 138.49C385.677 138.523 385.63 138.547 385.579 138.56Z" fill="#263238"/>
<path d="M409.242 130.73C409.242 130.53 409.322 130.33 409.352 130.11C410.352 123.02 399.962 118.85 390.582 119.73C386.492 120.12 387.432 127.11 387.432 127.11C387.432 127.11 385.112 127.11 384.062 128.52C382.212 131.02 385.062 136.52 385.062 136.52C383.632 128.52 387.772 128.08 387.772 128.08C387.772 128.08 388.772 131.18 390.622 130.9C392.472 130.62 397.152 126.09 399.452 126.63C400.178 126.784 400.851 127.127 401.402 127.623C401.953 128.12 402.364 128.754 402.592 129.46C402.625 130.17 402.507 130.878 402.245 131.539C401.983 132.199 401.583 132.796 401.072 133.29C399.072 135.5 402.432 140.22 404.742 141.66C404.742 141.66 404.662 140.47 405.692 140.66C406.722 140.85 407.212 147.04 405.612 150.23C405.612 150.23 408.242 147.23 409.122 140.51C409.619 137.272 409.66 133.98 409.242 130.73Z" fill="#263238"/>
<path d="M393.559 148.9C394.435 148.881 395.293 148.652 396.063 148.233C396.832 147.813 397.489 147.216 397.979 146.49C397.994 146.469 398.004 146.446 398.008 146.421C398.013 146.397 398.013 146.371 398.007 146.347C398.001 146.322 397.991 146.299 397.976 146.279C397.96 146.259 397.941 146.242 397.919 146.23C397.9 146.217 397.878 146.208 397.854 146.203C397.831 146.199 397.807 146.199 397.784 146.203C397.761 146.208 397.739 146.217 397.719 146.23C397.699 146.243 397.683 146.26 397.669 146.28C397.202 146.944 396.586 147.49 395.871 147.876C395.156 148.261 394.361 148.475 393.549 148.5C393.501 148.5 393.454 148.519 393.418 148.552C393.383 148.586 393.362 148.631 393.359 148.68C393.359 148.729 393.378 148.776 393.411 148.811C393.445 148.846 393.491 148.868 393.539 148.87L393.559 148.9Z" fill="#263238"/>
<path d="M410.659 140.76C410.127 142.558 408.904 144.071 407.259 144.97C405.069 146.15 403.439 144.32 403.579 141.97C403.739 139.88 405.029 136.68 407.459 136.5C409.889 136.32 411.279 138.54 410.659 140.76Z" fill="#E4897B"/>
<path opacity="0.1" d="M394.999 155.24C394.735 155.182 394.474 155.109 394.219 155.02C391.766 154.253 389.685 152.603 388.379 150.39C390.119 150.2 393.749 149.84 394.489 150.16C395.229 150.48 395.099 153.76 394.999 155.24Z" fill="black"/>
<path d="M384.02 189.84H388.89L394.19 170.3L399.01 165.19H390.57L392.54 170.11L384.02 189.84Z" fill="#8568F5"/>
<path d="M366.09 186.19L365.78 189.84H373.69C380.46 173.77 386.75 162.12 386.75 162.12L378.53 164.7C359.53 170.26 357.93 182.7 361.17 185.88C364.41 189.06 366.09 186.19 366.09 186.19Z" fill="#8568F5"/>
<path opacity="0.5" d="M366.09 186.19L365.78 189.84H373.69C380.46 173.77 386.75 162.12 386.75 162.12L378.53 164.7C359.53 170.26 357.93 182.7 361.17 185.88C364.41 189.06 366.09 186.19 366.09 186.19Z" fill="white"/>
<path d="M372 189.84H373.84C380 176.57 390.23 161 390.23 161C386.036 160.99 381.881 161.802 378 163.39L380.11 169.27L375.02 170.27L372 189.84Z" fill="#8568F5"/>
<path opacity="0.4" d="M372 189.84H373.84C380 176.57 390.23 161 390.23 161C386.036 160.99 381.881 161.802 378 163.39L380.11 169.27L375.02 170.27L372 189.84Z" fill="white"/>
<path opacity="0.2" d="M369.861 189.84C370.908 187.589 371.467 185.142 371.501 182.66L366.091 186.19L365.781 189.84H369.861Z" fill="black"/>
<path d="M387.551 162.94L391.441 159.42L394.911 164.15L405.911 159.42L408.671 163.88L398.011 169.17L394.471 165.76L390.571 168.22L387.551 162.94Z" fill="#263238"/>
<path opacity="0.2" d="M387.551 162.94L391.441 159.42L394.911 164.15L405.911 159.42L408.671 163.88L398.011 169.17L394.471 165.76L390.571 168.22L387.551 162.94Z" fill="white"/>
<path d="M375 174.69L386.74 162.12C388.257 162.093 389.714 161.526 390.85 160.52C392.59 158.88 394.96 151.62 394.38 151.15C393.8 150.68 386.8 150.1 386.14 150.92C385.48 151.74 382.58 159.08 382.58 159.08L370 168.92L375 174.69Z" fill="#E4897B"/>
<path d="M376.301 163.7L378.621 161.65L384.181 165.96L381.661 169.31L376.301 163.7Z" fill="#263238"/>
<path opacity="0.2" d="M376.301 163.7L378.621 161.65L384.181 165.96L381.661 169.31L376.301 163.7Z" fill="white"/>
<path d="M376.93 162.39L383.59 167.66C383.59 167.66 368.11 192.18 362.48 187C356.85 181.82 359.73 173.71 376.93 162.39Z" fill="#8568F5"/>
<path opacity="0.6" d="M376.93 162.39L383.59 167.66C383.59 167.66 368.11 192.18 362.48 187C356.85 181.82 359.73 173.71 376.93 162.39Z" fill="white"/>
<path d="M419.631 189.84L420.631 172.26C420.708 170.555 420.245 168.87 419.307 167.444C418.37 166.018 417.006 164.925 415.411 164.32L406.641 161C406.641 161 407.011 174.2 408.031 189.81L419.631 189.84Z" fill="#8568F5"/>
<path opacity="0.5" d="M419.631 189.84L420.631 172.26C420.708 170.555 420.245 168.87 419.307 167.444C418.37 166.018 417.006 164.925 415.411 164.32L406.641 161C406.641 161 407.011 174.2 408.031 189.81L419.631 189.84Z" fill="white"/>
<path d="M411.619 189.84L414.849 180.77L409.999 176.35L415.549 174.69C412.019 163.81 406.299 160.11 406.299 160.11C404.879 167.11 406.299 180.92 407.429 189.84H411.619Z" fill="#8568F5"/>
<path opacity="0.4" d="M411.619 189.84L414.849 180.77L409.999 176.35L415.549 174.69C412.019 163.81 406.299 160.11 406.299 160.11C404.879 167.11 406.299 180.92 407.429 189.84H411.619Z" fill="white"/>
<path d="M367.479 187.7C368.479 188.08 376.329 188.6 376.329 188.6L378.159 189.84H390.939L377.939 183.71C377.45 182.275 376.468 181.06 375.169 180.28C373.069 179.12 365.429 179.09 365.169 179.78C364.909 180.47 366.489 187.31 367.479 187.7Z" fill="#E4897B"/>
<path d="M386.922 189.84L388.102 187.72L383.242 185.59L381.512 189.84H386.922Z" fill="#263238"/>
<path opacity="0.2" d="M386.922 189.84L388.102 187.72L383.242 185.59L381.512 189.84H386.922Z" fill="white"/>
<path d="M413.351 189.84C419.151 180.77 423.231 169.73 418.491 166.52C418.491 166.52 414.851 165.52 399.821 188.45C399.821 188.45 398.171 191.99 385.821 186.45L384.211 189.85L413.351 189.84Z" fill="#8568F5"/>
<path opacity="0.6" d="M413.351 189.84C419.151 180.77 423.231 169.73 418.491 166.52C418.491 166.52 414.851 165.52 399.821 188.45C399.821 188.45 398.171 191.99 385.821 186.45L384.211 189.85L413.351 189.84Z" fill="white"/>
<path opacity="0.3" d="M346.669 191.45H263.379V264.43H346.669V191.45Z" fill="white"/>
<path d="M192.511 189.84C194.511 184.63 206.261 174.48 206.261 174.48V164C200.261 165.12 185.571 177.76 185.191 189.81L192.511 189.84Z" fill="#8568F5"/>
<path opacity="0.6" d="M192.511 189.84C193.511 187.36 196.621 183.77 199.651 180.68C203.021 177.28 206.261 174.49 206.261 174.49V164C200.261 165.12 185.561 177.76 185.191 189.81L192.511 189.84Z" fill="white"/>
<path opacity="0.2" d="M199.652 180.68C203.022 177.28 206.262 174.49 206.262 174.49V171.44C206.262 171.44 200.482 174.31 199.652 180.68Z" fill="black"/>
<path d="M248.582 189.84C250.082 180.62 251.582 173.02 252.232 169.58C252.339 169.051 252.235 168.502 251.941 168.049C251.647 167.597 251.188 167.277 250.662 167.16C248.512 166.69 246.292 166.29 244.062 165.95C233.975 164.536 223.797 163.867 213.612 163.95C209.092 163.95 206.262 164.08 206.262 164.08C204.202 171.46 202.972 180.65 202.262 189.89L248.582 189.84Z" fill="#8568F5"/>
<path opacity="0.7" d="M248.59 189.84L248.71 189.07C250.16 180.2 251.56 172.92 252.22 169.58C252.251 169.398 252.251 169.212 252.22 169.03C252.201 168.586 252.034 168.161 251.746 167.822C251.458 167.484 251.066 167.251 250.63 167.16C248.47 166.69 246.26 166.29 244.03 165.95C233.943 164.536 223.766 163.867 213.58 163.95C209.06 163.95 206.23 164.08 206.23 164.08C204.17 171.46 202.94 180.65 202.23 189.89L248.59 189.84Z" fill="white"/>
<path d="M222.52 175.78C235.52 177.16 244.23 166.08 244.23 166.08L244.06 165.95C233.973 164.536 223.796 163.867 213.61 163.95C213.61 163.95 210.29 174.48 222.52 175.78Z" fill="#8568F5"/>
<path d="M236.92 164.93C233.26 168.26 224.29 167.03 224.29 167.03C224.29 167.03 218.69 165.5 219.86 163.75C223.16 163.2 224.76 161.66 225.42 159.69C225.78 158.471 225.892 157.193 225.75 155.93C225.699 155.222 225.609 154.518 225.48 153.82L236.57 145.61C235.12 151 233.34 161 236.92 164.93Z" fill="#E4897B"/>
<path opacity="0.2" d="M234 150.83C233.56 157.48 228.09 159.32 225.41 159.69C225.77 158.471 225.882 157.193 225.74 155.93L234 150.83Z" fill="black"/>
<path d="M235.291 160.71L224.691 165.49L224.061 161.66L220.171 163C219.489 163.239 218.909 163.701 218.522 164.31C218.136 164.92 217.966 165.642 218.041 166.36L218.481 170.56L223.861 167.62L226.541 171.41L239.281 165.28L235.291 160.71Z" fill="#8568F5"/>
<path opacity="0.3" d="M235.291 160.71L224.691 165.49L224.061 161.66L220.171 163C219.489 163.239 218.909 163.701 218.522 164.31C218.136 164.92 217.966 165.642 218.041 166.36L218.481 170.56L223.861 167.62L226.541 171.41L239.281 165.28L235.291 160.71Z" fill="white"/>
<path d="M217.081 128.91C217.081 128.91 214.081 139.29 219.151 144.11C224.221 148.93 226.841 129.21 226.841 129.21L217.081 128.91Z" fill="#263238"/>
<path opacity="0.2" d="M217.081 128.91C217.081 128.91 214.081 139.29 219.151 144.11C224.221 148.93 226.841 129.21 226.841 129.21L217.081 128.91Z" fill="white"/>
<path d="M217.003 150.08C217.113 150.45 217.233 150.82 217.373 151.17C218.396 153.721 220.347 155.79 222.833 156.96C225.064 158.031 227.613 158.23 229.983 157.52C231.672 156.989 233.185 156.011 234.363 154.69C238.103 150.63 237.833 146.1 237.993 138.42C238.063 136.626 237.672 134.843 236.857 133.243C236.042 131.643 234.83 130.279 233.338 129.281C231.845 128.282 230.121 127.684 228.331 127.542C226.541 127.4 224.745 127.719 223.113 128.47C215.713 131.8 215.093 143.24 217.003 150.08Z" fill="#E4897B"/>
<path d="M226.433 141C226.493 141.61 226.143 142.14 225.733 142.15C225.323 142.16 224.973 141.67 224.943 141.05C224.913 140.43 225.243 139.9 225.643 139.89C226.043 139.88 226.403 140.37 226.433 141Z" fill="#263238"/>
<path d="M219.361 141.27C219.431 141.89 219.071 142.42 218.661 142.43C218.251 142.44 217.911 141.95 217.881 141.32C217.851 140.69 218.171 140.18 218.581 140.17C218.991 140.16 219.341 140.68 219.361 141.27Z" fill="#263238"/>
<path d="M221.622 141.5C220.949 143.44 220.01 145.278 218.832 146.96C219.271 147.245 219.766 147.431 220.284 147.507C220.802 147.583 221.33 147.547 221.832 147.4L221.622 141.5Z" fill="#DE5753"/>
<path d="M216.63 138.35C216.687 138.387 216.753 138.406 216.82 138.406C216.887 138.406 216.953 138.387 217.01 138.35C217.386 138.085 217.818 137.911 218.272 137.84C218.726 137.769 219.191 137.803 219.63 137.94C219.674 137.96 219.721 137.97 219.769 137.972C219.817 137.973 219.865 137.964 219.91 137.946C219.955 137.929 219.996 137.902 220.03 137.868C220.064 137.835 220.091 137.794 220.11 137.75C220.147 137.661 220.148 137.561 220.112 137.471C220.077 137.382 220.008 137.309 219.92 137.27C219.371 137.08 218.784 137.023 218.208 137.105C217.633 137.187 217.085 137.404 216.61 137.74C216.528 137.793 216.47 137.877 216.45 137.972C216.429 138.068 216.447 138.168 216.5 138.25C216.535 138.293 216.58 138.327 216.63 138.35Z" fill="#263238"/>
<path d="M227.722 138.13C227.794 138.122 227.864 138.095 227.922 138.05C227.988 137.979 228.024 137.886 228.024 137.79C228.024 137.693 227.988 137.6 227.922 137.53C227.472 137.157 226.939 136.898 226.368 136.774C225.797 136.651 225.205 136.666 224.642 136.82C224.551 136.852 224.477 136.918 224.434 137.003C224.391 137.089 224.383 137.188 224.412 137.28C224.446 137.371 224.513 137.446 224.601 137.489C224.688 137.531 224.789 137.539 224.882 137.51C225.33 137.407 225.795 137.409 226.243 137.514C226.69 137.62 227.107 137.827 227.462 138.12C227.545 138.152 227.636 138.156 227.722 138.13Z" fill="#263238"/>
<path d="M232.001 129.06L231.551 132.44C232.123 132.716 232.569 133.199 232.799 133.791C233.029 134.383 233.026 135.04 232.791 135.63C231.671 138.47 233.241 142.9 235.411 144.68C235.411 144.68 235.491 143.45 236.531 143.75C237.571 144.05 237.211 150.48 235.151 153.52C235.151 153.52 238.251 150.78 240.051 144.05C241.721 137.83 241.971 132.63 240.711 130.21L232.001 129.06Z" fill="#263238"/>
<path d="M223 151.43C222.954 151.444 222.905 151.444 222.86 151.43C222.805 151.392 222.768 151.334 222.755 151.269C222.742 151.204 222.754 151.136 222.79 151.08C223.601 149.873 224.824 149.003 226.23 148.63C226.262 148.623 226.296 148.622 226.33 148.628C226.363 148.635 226.394 148.647 226.422 148.666C226.45 148.685 226.474 148.709 226.493 148.737C226.511 148.765 226.524 148.797 226.53 148.83C226.542 148.893 226.528 148.959 226.493 149.013C226.458 149.067 226.403 149.105 226.34 149.12C225.064 149.472 223.954 150.266 223.21 151.36C223.182 151.386 223.149 151.406 223.112 151.418C223.076 151.43 223.038 151.434 223 151.43Z" fill="#263238"/>
<path opacity="0.1" d="M219.531 154.56C220.466 155.565 221.587 156.38 222.831 156.96C225.062 158.031 227.611 158.23 229.981 157.52C228.928 156.574 227.645 155.919 226.261 155.62C224.061 155.034 221.805 154.679 219.531 154.56Z" fill="black"/>
<path opacity="0.2" d="M232.001 129.06L231.551 132.44C232.123 132.716 232.569 133.199 232.799 133.791C233.029 134.383 233.026 135.04 232.791 135.63C231.671 138.47 233.241 142.9 235.411 144.68C235.411 144.68 235.491 143.45 236.531 143.75C237.571 144.05 237.211 150.48 235.151 153.52C235.151 153.52 238.251 150.78 240.051 144.05C241.721 137.83 241.971 132.63 240.711 130.21L232.001 129.06Z" fill="white"/>
<path d="M241.241 131.76C241.241 131.76 242.071 127.32 235.081 123.85C228.091 120.38 220.431 124.34 215.761 121.35C211.091 118.36 210.921 130.65 220.901 132.03C227.665 132.814 234.501 132.723 241.241 131.76Z" fill="#263238"/>
<path opacity="0.3" d="M241.241 131.76C241.241 131.76 242.071 127.32 235.081 123.85C228.091 120.38 220.431 124.34 215.761 121.35C211.091 118.36 210.921 130.65 220.901 132.03C227.665 132.814 234.501 132.723 241.241 131.76Z" fill="white"/>
<path d="M241.583 144.59C240.809 146.35 239.371 147.734 237.583 148.44C235.183 149.34 233.763 147.25 234.223 144.87C234.663 142.75 236.423 139.66 238.933 139.8C241.443 139.94 242.523 142.4 241.583 144.59Z" fill="#E4897B"/>
<path d="M229.713 169.34L228.653 163.7C228.653 163.7 230.853 161.62 230.593 159.7C230.333 157.78 220.593 154.6 218.833 154.47C217.073 154.34 217.763 161.38 218.293 162.67C218.823 163.96 224.693 165.5 224.693 165.5L225.423 171.45L229.713 169.34Z" fill="#E4897B"/>
<path opacity="0.2" d="M247.273 189.84C247.783 189.59 248.273 189.33 248.713 189.07C250.163 180.2 251.563 172.92 252.223 169.58C252.253 169.398 252.253 169.212 252.223 169.03C245.903 175.47 236.063 186.24 237.223 189.84H247.273Z" fill="black"/>
<path d="M243.84 189.84C251.11 183.32 257.43 174.33 252.96 168.26C249.04 162.92 238.96 182.26 235.89 183.59C232.82 184.92 230.16 167.18 230.16 167.18L224.16 168.96C224.16 168.96 225.26 181.74 228.34 189.84H243.84Z" fill="#8568F5"/>
<path opacity="0.6" d="M243.84 189.84C251.11 183.32 257.43 174.33 252.96 168.26C249.04 162.92 238.96 182.26 235.89 183.59C232.82 184.92 230.16 167.18 230.16 167.18L224.16 168.96C224.16 168.96 225.26 181.74 228.34 189.84H243.84Z" fill="white"/>
<path d="M289.161 189.84C291.271 187.71 292.641 186.21 292.641 186.21L291.481 168.48C288.141 170.26 278.131 183.62 272.871 189.84H289.161Z" fill="#8568F5"/>
<path opacity="0.5" d="M289.161 189.84C291.271 187.71 292.641 186.21 292.641 186.21L291.481 168.48C288.141 170.26 278.131 183.62 272.871 189.84H289.161Z" fill="white"/>
<path opacity="0.2" d="M289.149 189.84C291.269 187.71 292.639 186.21 292.639 186.21L292.369 182L290.999 177.92C287.919 181.116 286.229 185.402 286.299 189.84H289.149Z" fill="black"/>
<path d="M324.212 189.84C324.702 188.08 325.212 186.21 325.892 184.17C326.572 182.13 327.182 180.08 327.942 177.79C328.508 176.063 329.132 174.23 329.812 172.29C325.752 170.993 321.605 169.991 317.402 169.29C312.974 168.502 308.496 168.03 304.002 167.88C298.192 167.88 291.502 168.48 291.502 168.48C291.502 168.48 290.502 168.71 289.952 174.88C289.662 177.99 289.372 182.79 289.352 189.88L324.212 189.84Z" fill="#8568F5"/>
<path opacity="0.5" d="M324.212 189.84C324.702 188.08 325.212 186.21 325.892 184.17C326.572 182.13 327.182 180.08 327.942 177.79C328.508 176.063 329.132 174.23 329.812 172.29C325.752 170.993 321.605 169.991 317.402 169.29C312.974 168.502 308.496 168.03 304.002 167.88C298.192 167.88 291.502 168.48 291.502 168.48C291.502 168.48 290.502 168.71 289.952 174.88C289.662 177.99 289.372 182.79 289.352 189.88L324.212 189.84Z" fill="white"/>
<path d="M305.632 189.84L313.832 175.16L304.352 180.47L298.852 173.57L300.862 189.84H305.632Z" fill="#263238"/>
<path d="M314.152 167.43C319.572 168.71 321.212 173.05 320.612 177L316.662 175.68C312.11 177.327 307.839 179.668 304.002 182.62C304.002 182.62 301.002 177.12 298.142 175.32L294.082 175.8C294.082 175.8 300.412 164.21 314.152 167.43Z" fill="#263238"/>
<path opacity="0.1" d="M314.152 167.43C319.572 168.71 321.212 173.05 320.612 177L316.662 175.68C312.11 177.327 307.839 179.668 304.002 182.62C304.002 182.62 301.002 177.12 298.142 175.32L294.082 175.8C294.082 175.8 300.412 164.21 314.152 167.43Z" fill="white"/>
<path d="M304.322 169.16C304.613 169.005 304.918 168.875 305.232 168.77C305.922 168.23 306.762 166.91 306.722 163.77C306.69 162.517 306.573 161.267 306.372 160.03L315.242 158.38C315.242 158.38 312.242 164.38 314.742 168.77C315.602 169.16 316.122 169.71 316.032 170.43C315.362 175.55 304.352 180.51 304.352 180.51C304.352 180.51 299.002 172.1 304.322 169.16Z" fill="#EEC1BB"/>
<path opacity="0.2" d="M306.371 160C306.572 161.237 306.689 162.487 306.721 163.74C312.721 163.74 315.241 158.35 315.241 158.35L306.371 160Z" fill="black"/>
<path d="M310.33 130.74C310.33 130.74 299.93 129.42 298.01 137.74C297.462 140.115 297.598 142.598 298.403 144.899C299.209 147.2 300.65 149.225 302.56 150.74L310.33 130.74Z" fill="#263238"/>
<path d="M311.271 135.2C303.561 134.78 300.861 138.77 299.861 146.68C298.611 156.57 300.421 163.74 310.181 162.15C323.421 160 324.071 135.9 311.271 135.2Z" fill="#EEC1BB"/>
<path d="M304.859 146.52C304.182 147.636 303.373 148.667 302.449 149.59C302.656 149.927 302.953 150.198 303.307 150.375C303.66 150.552 304.056 150.626 304.449 150.59L304.859 146.52Z" fill="#D4827D"/>
<path d="M309.619 146.15C309.569 146.78 309.869 147.32 310.289 147.35C310.709 147.38 311.089 146.9 311.139 146.27C311.189 145.64 310.889 145.1 310.469 145.06C310.049 145.02 309.669 145.52 309.619 146.15Z" fill="#263238"/>
<path d="M310.639 145.11L309.309 144.46C309.309 144.46 309.899 145.67 310.639 145.11Z" fill="#263238"/>
<path d="M301.762 145.4C301.762 146.03 302.022 146.57 302.442 146.61C302.862 146.65 303.242 146.15 303.292 145.52C303.342 144.89 303.042 144.35 302.622 144.32C302.202 144.29 301.812 144.77 301.762 145.4Z" fill="#263238"/>
<path d="M302.791 144.36L301.461 143.71C301.461 143.71 302.051 144.93 302.791 144.36Z" fill="#263238"/>
<path d="M313.262 142.52C313.209 142.52 313.157 142.507 313.11 142.483C313.063 142.458 313.022 142.423 312.992 142.38C312.615 141.965 312.15 141.64 311.631 141.431C311.111 141.221 310.551 141.132 309.992 141.17C309.903 141.173 309.815 141.143 309.747 141.086C309.679 141.029 309.634 140.948 309.622 140.86C309.616 140.769 309.647 140.679 309.706 140.61C309.766 140.541 309.851 140.498 309.942 140.49C310.613 140.442 311.287 140.552 311.908 140.811C312.53 141.069 313.082 141.47 313.522 141.98C313.574 142.053 313.596 142.145 313.583 142.234C313.57 142.323 313.523 142.404 313.452 142.46C313.394 142.495 313.329 142.515 313.262 142.52Z" fill="#263238"/>
<path d="M301.292 141C301.233 140.999 301.176 140.983 301.125 140.953C301.074 140.924 301.032 140.881 301.002 140.83C300.979 140.791 300.963 140.748 300.957 140.704C300.95 140.659 300.953 140.614 300.964 140.57C300.975 140.526 300.995 140.485 301.022 140.449C301.049 140.413 301.083 140.383 301.122 140.36C301.619 140.028 302.185 139.812 302.777 139.727C303.369 139.642 303.972 139.691 304.542 139.87C304.583 139.888 304.62 139.915 304.65 139.947C304.681 139.98 304.705 140.018 304.721 140.06C304.736 140.102 304.744 140.146 304.742 140.191C304.741 140.235 304.731 140.279 304.712 140.32C304.697 140.362 304.673 140.401 304.642 140.433C304.611 140.465 304.574 140.491 304.532 140.508C304.491 140.525 304.446 140.533 304.401 140.532C304.357 140.53 304.313 140.519 304.272 140.5C303.801 140.362 303.306 140.331 302.821 140.409C302.337 140.487 301.876 140.672 301.472 140.95C301.417 140.98 301.355 140.997 301.292 141Z" fill="#263238"/>
<path d="M318.999 148.65C318.999 148.65 315.749 142.12 316.559 137.26C316.559 137.26 301.629 130.18 300.019 145.65C300.019 145.65 299.289 131.8 312.549 132.22C325.809 132.64 324.699 152.02 317.549 157.42C317.519 157.42 320.999 152.73 318.999 148.65Z" fill="#263238"/>
<path d="M309.001 130.14C309.001 130.14 302.671 128.58 300.871 130.26C299.071 131.94 311.871 143.77 318.571 144.96C318.571 144.96 320.841 152.37 319.041 155.84C319.041 155.84 326.581 153.21 326.931 141.73C327.281 130.25 315.231 126 309.001 130.14Z" fill="#263238"/>
<path d="M317.641 150.21C317.701 149.77 317.847 149.346 318.072 148.963C318.296 148.579 318.593 148.244 318.947 147.975C319.301 147.707 319.704 147.511 320.134 147.399C320.563 147.286 321.011 147.259 321.451 147.32C323.821 147.71 324.691 152.68 318.681 153.53C317.821 153.65 317.391 152.79 317.641 150.21Z" fill="#EEC1BB"/>
<path d="M321 134.68C321 134.68 323.63 127.99 330.68 128.46C337.73 128.93 338.81 139.94 335.1 148.07C331.39 156.2 333.91 158.83 333.91 158.83C333.91 158.83 329.96 158.35 329.96 151.06C329.744 152.603 329.664 154.163 329.72 155.72C329.72 155.72 327.09 152.01 329.6 144.96C332.11 137.91 324.1 141.14 324.1 141.14L321 134.68Z" fill="#263238"/>
<path d="M313.79 145.18C313.754 145.189 313.716 145.189 313.68 145.18C304.68 141.94 301.19 131.09 301.15 130.98C301.125 130.892 301.135 130.799 301.178 130.718C301.221 130.638 301.294 130.578 301.38 130.55C301.423 130.536 301.468 130.53 301.513 130.534C301.558 130.537 301.601 130.55 301.641 130.57C301.681 130.591 301.717 130.619 301.746 130.653C301.775 130.687 301.797 130.727 301.81 130.77C301.81 130.88 305.21 141.41 313.91 144.54C313.996 144.572 314.065 144.635 314.105 144.717C314.144 144.799 314.149 144.894 314.12 144.98C314.092 145.043 314.045 145.096 313.986 145.131C313.927 145.167 313.859 145.184 313.79 145.18Z" fill="#263238"/>
<path d="M306.259 155.47H305.999C305.953 155.47 305.909 155.461 305.867 155.443C305.826 155.425 305.789 155.399 305.758 155.366C305.727 155.333 305.703 155.295 305.688 155.252C305.672 155.21 305.666 155.165 305.669 155.12C305.674 155.029 305.714 154.943 305.781 154.882C305.849 154.82 305.937 154.787 306.029 154.79C307.582 154.786 309.073 154.18 310.189 153.1C310.252 153.036 310.339 153.001 310.429 153.001C310.519 153.001 310.605 153.036 310.669 153.1C310.732 153.164 310.768 153.25 310.768 153.34C310.768 153.43 310.732 153.516 310.669 153.58C309.489 154.743 307.914 155.418 306.259 155.47Z" fill="#263238"/>
<path d="M307.372 149.33C306.948 149.362 306.526 149.266 306.158 149.054C305.79 148.842 305.495 148.524 305.311 148.142C305.127 147.76 305.062 147.331 305.125 146.911C305.188 146.492 305.377 146.101 305.665 145.79C305.954 145.479 306.33 145.263 306.744 145.169C307.157 145.074 307.59 145.107 307.985 145.263C308.379 145.418 308.718 145.689 308.957 146.04C309.195 146.391 309.322 146.806 309.322 147.23C309.335 147.497 309.295 147.763 309.204 148.014C309.112 148.265 308.971 148.496 308.79 148.691C308.608 148.887 308.389 149.044 308.145 149.154C307.902 149.264 307.639 149.324 307.372 149.33ZM307.372 145.63C307.048 145.598 306.722 145.664 306.437 145.821C306.152 145.977 305.92 146.217 305.774 146.507C305.628 146.798 305.572 147.126 305.616 147.448C305.66 147.77 305.8 148.072 306.019 148.313C306.237 148.554 306.523 148.723 306.84 148.798C307.157 148.874 307.488 148.851 307.792 148.734C308.095 148.616 308.356 148.41 308.54 148.142C308.724 147.873 308.822 147.555 308.822 147.23C308.841 146.826 308.699 146.43 308.427 146.13C308.155 145.831 307.776 145.651 307.372 145.63Z" fill="#263238"/>
<path d="M301.329 149C300.908 149.022 300.49 148.917 300.129 148.699C299.768 148.481 299.48 148.16 299.303 147.777C299.127 147.394 299.069 146.966 299.137 146.55C299.206 146.134 299.398 145.748 299.688 145.441C299.978 145.135 300.354 144.923 300.766 144.832C301.178 144.742 301.607 144.776 301.999 144.932C302.391 145.088 302.728 145.358 302.965 145.707C303.202 146.056 303.329 146.468 303.329 146.89C303.344 147.162 303.304 147.434 303.21 147.689C303.116 147.945 302.971 148.178 302.784 148.376C302.597 148.573 302.371 148.731 302.121 148.838C301.871 148.945 301.602 149.001 301.329 149ZM301.329 145.29C301.006 145.26 300.681 145.328 300.397 145.486C300.113 145.644 299.883 145.884 299.738 146.175C299.593 146.466 299.54 146.794 299.585 147.116C299.63 147.438 299.771 147.738 299.99 147.978C300.209 148.218 300.496 148.386 300.812 148.461C301.128 148.535 301.46 148.511 301.763 148.394C302.066 148.276 302.326 148.069 302.509 147.801C302.692 147.533 302.79 147.215 302.789 146.89C302.798 146.491 302.65 146.104 302.377 145.813C302.104 145.522 301.728 145.348 301.329 145.33V145.29Z" fill="#263238"/>
<path d="M305.669 147.48C305.621 147.482 305.573 147.47 305.532 147.445C305.491 147.42 305.459 147.384 305.439 147.34C305.35 147.153 305.223 146.986 305.067 146.85C304.91 146.714 304.727 146.612 304.529 146.55C304.28 146.535 304.03 146.579 303.801 146.678C303.572 146.777 303.369 146.929 303.209 147.12C303.16 147.166 303.096 147.192 303.029 147.192C302.962 147.192 302.897 147.166 302.849 147.12C302.803 147.073 302.777 147.01 302.777 146.945C302.777 146.88 302.803 146.817 302.849 146.77C303.066 146.524 303.339 146.332 303.645 146.212C303.952 146.092 304.282 146.047 304.609 146.08C304.885 146.157 305.141 146.292 305.36 146.477C305.579 146.662 305.756 146.891 305.879 147.15C305.894 147.179 305.903 147.211 305.905 147.244C305.907 147.277 305.902 147.31 305.891 147.341C305.879 147.372 305.862 147.4 305.839 147.424C305.816 147.448 305.789 147.467 305.759 147.48H305.669Z" fill="#263238"/>
<path d="M309.07 147.48C309.006 147.48 308.944 147.455 308.897 147.41C308.85 147.366 308.823 147.304 308.82 147.24C308.82 147.174 308.845 147.111 308.889 147.063C308.934 147.015 308.995 146.985 309.06 146.98C309.46 146.98 318.65 146.69 319.78 146.74C319.848 146.745 319.91 146.776 319.955 146.826C320 146.877 320.023 146.943 320.02 147.01C320.015 147.074 319.985 147.134 319.937 147.177C319.888 147.22 319.825 147.243 319.76 147.24C318.64 147.19 309.18 147.48 309.08 147.48H309.07Z" fill="#263238"/>
<path d="M337.182 189.84C333.542 180.28 329.812 172.29 329.812 172.29C329.812 172.29 323.722 181.15 323.172 189.84H337.182Z" fill="#8568F5"/>
<path opacity="0.5" d="M337.182 189.84C333.542 180.28 329.812 172.29 329.812 172.29C329.812 172.29 323.722 181.15 323.172 189.84H337.182Z" fill="white"/>
<path d="M339.462 264.44C337.462 258.96 335.462 254.32 335.462 254.32L327.102 261.64L328.562 264.44H339.462Z" fill="#E4897B"/>
<path d="M280.43 264.44C282.43 262.02 283.84 260.24 283.84 260.24L275.67 253.46C275.67 253.46 271.67 259.63 268.41 264.46L280.43 264.44Z" fill="#E4897B"/>
<path d="M282.428 264.44L287.278 261.04L285.398 238.46C279.218 239.46 270.238 257.46 270.238 257.46L277.238 264.46L282.428 264.44Z" fill="#8568F5"/>
<path opacity="0.2" d="M277.248 264.44H282.428L285.908 262L287.278 261L285.398 238.41C279.218 239.47 270.238 257.41 270.238 257.41L276.418 263.54L277.248 264.44Z" fill="white"/>
<path d="M278.77 264.44L270.24 255.49L268.77 257.95L275.6 264.44H278.77Z" fill="#8568F5"/>
<path opacity="0.2" d="M282.432 264.44L285.912 262L284.262 252.21C284.262 252.21 277.802 256.29 276.422 263.61L277.252 264.44H282.432Z" fill="black"/>
<path d="M327.642 264.44C329.702 251.72 331.712 242.04 331.712 242.04C311.922 237.26 285.352 238.46 285.352 238.46C283.272 245.88 282.042 255.13 281.352 264.46L327.642 264.44Z" fill="#8568F5"/>
<path opacity="0.2" d="M327.642 264.44C327.782 263.55 327.922 262.67 328.062 261.81C329.972 250.41 331.712 242.04 331.712 242.04C311.922 237.26 285.352 238.46 285.352 238.46C283.272 245.88 282.052 255.13 281.352 264.46L327.642 264.44Z" fill="white"/>
<path opacity="0.2" d="M327.641 264.44C327.781 263.55 327.921 262.67 328.061 261.81L325.141 259.07C324.434 260.785 323.982 262.594 323.801 264.44H327.641Z" fill="black"/>
<path d="M296.621 264.44H299.761C300.104 258.716 300.916 253.03 302.191 247.44L307.741 242.9L303.371 241.49L299.371 241.71L300.441 246.96C300.441 246.96 298.541 255 296.621 264.44Z" fill="#263238"/>
<path d="M316.001 239.36C312.341 242.69 303.361 241.46 303.361 241.46C303.361 241.46 297.761 239.92 298.941 238.17C302.241 237.63 303.841 236.09 304.491 234.17C304.854 232.949 304.97 231.667 304.831 230.4C304.777 229.695 304.684 228.994 304.551 228.3L315.651 220.08C314.201 225.45 312.421 235.43 316.001 239.36Z" fill="#E4897B"/>
<path opacity="0.2" d="M313.09 225.25C312.65 231.91 307.18 233.74 304.5 234.12C304.863 232.899 304.979 231.617 304.84 230.35L313.09 225.25Z" fill="black"/>
<path d="M314.372 235.13L303.772 239.92L303.152 236.08L299.252 237.45C298.571 237.689 297.992 238.151 297.607 238.761C297.222 239.371 297.055 240.093 297.132 240.81L297.572 245.02L302.952 242.02L305.632 245.81L318.362 239.68L314.372 235.13Z" fill="#8568F5"/>
<path opacity="0.3" d="M314.372 235.13L303.772 239.92L303.152 236.08L299.252 237.45C298.571 237.689 297.992 238.151 297.607 238.761C297.222 239.371 297.055 240.093 297.132 240.81L297.572 245.02L302.952 242.02L305.632 245.81L318.362 239.68L314.372 235.13Z" fill="white"/>
<path d="M292.912 204.62C292.912 204.62 291.262 215.3 296.912 219.43C302.562 223.56 302.632 203.67 302.632 203.67L292.912 204.62Z" fill="#263238"/>
<path d="M313.361 228C312.166 229.755 310.429 231.071 308.415 231.744C306.401 232.418 304.222 232.413 302.211 231.73C299.603 230.901 297.405 229.115 296.061 226.73C295.874 226.406 295.704 226.072 295.551 225.73C292.781 219.19 291.921 207.73 298.841 203.51C300.367 202.572 302.106 202.039 303.895 201.961C305.684 201.882 307.464 202.261 309.065 203.062C310.667 203.863 312.038 205.059 313.049 206.537C314.059 208.015 314.676 209.727 314.841 211.51C315.701 219 316.551 223.46 313.361 228Z" fill="#E4897B"/>
<path d="M303.728 215.42C303.878 216.03 303.598 216.59 303.188 216.66C302.778 216.73 302.378 216.28 302.268 215.66C302.158 215.04 302.408 214.49 302.808 214.43C303.208 214.37 303.618 214.8 303.728 215.42Z" fill="#263238"/>
<path d="M296.76 216.59C296.91 217.2 296.62 217.76 296.22 217.83C295.82 217.9 295.4 217.44 295.3 216.83C295.2 216.22 295.44 215.66 295.84 215.59C296.24 215.52 296.66 216 296.76 216.59Z" fill="#263238"/>
<path d="M299.001 216.52C298.583 218.529 297.89 220.47 296.941 222.29C297.408 222.514 297.917 222.635 298.435 222.645C298.952 222.656 299.466 222.555 299.941 222.35L299.001 216.52Z" fill="#DE5753"/>
<path d="M293.682 214.05C293.744 214.069 293.811 214.072 293.875 214.06C293.939 214.048 294 214.02 294.052 213.98C294.391 213.669 294.798 213.441 295.24 213.313C295.682 213.184 296.148 213.159 296.602 213.24C296.648 213.254 296.697 213.258 296.745 213.252C296.793 213.246 296.84 213.23 296.882 213.206C296.924 213.182 296.961 213.149 296.99 213.11C297.019 213.072 297.04 213.027 297.052 212.98C297.076 212.887 297.064 212.788 297.018 212.704C296.971 212.62 296.894 212.558 296.802 212.53C296.231 212.411 295.641 212.43 295.079 212.585C294.517 212.74 294.001 213.026 293.572 213.42C293.503 213.489 293.465 213.583 293.465 213.68C293.465 213.777 293.503 213.871 293.572 213.94C293.601 213.983 293.638 214.021 293.682 214.05Z" fill="#263238"/>
<path d="M304.651 212.4C304.723 212.385 304.789 212.35 304.841 212.3C304.891 212.216 304.906 212.116 304.883 212.021C304.861 211.926 304.803 211.843 304.721 211.79C304.228 211.478 303.667 211.29 303.086 211.241C302.504 211.193 301.92 211.285 301.381 211.51C301.295 211.553 301.228 211.629 301.196 211.72C301.164 211.812 301.17 211.912 301.211 212C301.256 212.085 301.333 212.15 301.424 212.179C301.515 212.209 301.615 212.202 301.701 212.16C302.133 212 302.595 211.94 303.053 211.987C303.511 212.034 303.952 212.186 304.341 212.43C304.392 212.449 304.446 212.455 304.5 212.45C304.554 212.445 304.605 212.428 304.651 212.4Z" fill="#263238"/>
<path d="M307.73 202.86V206.27C308.331 206.472 308.833 206.893 309.137 207.449C309.441 208.005 309.524 208.655 309.37 209.27C308.62 212.22 310.75 216.42 313.12 217.91C313.12 217.91 313.05 216.67 314.12 216.84C315.19 217.01 315.67 223.42 314.01 226.71C314.01 226.71 316.73 223.59 317.66 216.71C318.51 210.32 318.1 205.14 316.54 202.9L307.73 202.86Z" fill="#263238"/>
<path d="M319.231 217C318.677 218.855 317.412 220.416 315.711 221.34C313.451 222.55 311.761 220.65 311.921 218.23C312.091 216.08 313.441 212.79 315.921 212.6C318.401 212.41 319.881 214.75 319.231 217Z" fill="#E4897B"/>
<path d="M300.82 224.22C301.355 225.034 301.83 225.887 302.24 226.77L302.74 226.63C304.98 225.98 305.8 224.93 306.03 223.98C306.137 223.509 306.137 223.021 306.03 222.55C305.966 222.284 305.865 222.028 305.73 221.79C304.53 222.81 303.125 223.56 301.61 223.99C301.12 224.15 300.82 224.22 300.82 224.22Z" fill="#263238"/>
<path d="M301.582 224L302.022 224.74C304.132 224.12 305.522 223.4 306.022 222.56C305.958 222.294 305.857 222.038 305.722 221.8C304.516 222.822 303.104 223.573 301.582 224Z" fill="white"/>
<path d="M302.738 226.63C304.978 225.98 305.798 224.93 306.028 223.98C305.181 224.241 304.388 224.655 303.688 225.2C303.23 225.566 302.898 226.066 302.738 226.63Z" fill="#DE5753"/>
<path d="M312.289 215.31L311.289 214.72C311.289 214.72 311.919 218.81 310.619 219.96C310.619 219.96 306.119 220.44 304.549 220.86C303.472 221.279 302.581 222.07 302.039 223.09C302.039 223.09 298.509 222.34 296.979 224.99C295.709 223.857 294.705 222.457 294.039 220.89C294.039 220.89 294.159 228.37 298.349 232.35C302.539 236.33 309.349 234.35 312.549 231.24C315.749 228.13 312.289 215.31 312.289 215.31ZM309.289 227.1C309.019 227.501 308.649 227.824 308.215 228.037C307.782 228.251 307.3 228.347 306.818 228.317C306.336 228.286 305.87 228.13 305.467 227.864C305.063 227.598 304.737 227.232 304.519 226.8L303.119 227.57C303.119 227.57 304.659 228.87 303.489 230.07C302.319 231.27 298.699 230.84 298.329 227.39C297.959 223.94 302.329 223.55 302.329 223.55C302.874 223 303.524 222.565 304.24 222.271C304.957 221.977 305.725 221.831 306.499 221.84C307.101 221.865 307.687 222.046 308.198 222.365C308.709 222.685 309.128 223.132 309.414 223.663C309.7 224.194 309.842 224.79 309.827 225.393C309.812 225.996 309.641 226.584 309.329 227.1H309.289Z" fill="#263238"/>
<path d="M307.718 206.27C307.718 206.27 290.718 212.07 292.718 200.61C292.718 200.61 301.888 195.21 309.878 196.72C317.868 198.23 317.248 206.52 317.248 206.52L307.718 206.27Z" fill="#263238"/>
<path d="M341.651 264.44C340.651 261.18 335.041 243.78 331.711 242.04C329.744 243.895 328.163 246.121 327.061 248.59C324.791 253.21 324.301 262.47 324.301 262.47L325.771 264.47L341.651 264.44Z" fill="#8568F5"/>
<path opacity="0.2" d="M341.651 264.44C340.651 261.18 335.041 243.78 331.711 242.04C329.744 243.895 328.163 246.121 327.061 248.59C324.791 253.21 324.301 262.47 324.301 262.47L325.771 264.47L341.651 264.44Z" fill="white"/>
<path opacity="0.6" d="M431.88 191.45H348.59V264.43H431.88V191.45Z" fill="white"/>
<path d="M369.491 264.44C372.641 261.38 374.841 258.96 374.841 258.96L373.681 241.24C369.961 243.24 357.931 259.62 353.461 264.44H369.491Z" fill="#263238"/>
<path opacity="0.3" d="M369.491 264.44C372.641 261.38 374.841 258.96 374.841 258.96L373.681 241.24C369.961 243.24 357.931 259.62 353.461 264.44H369.491Z" fill="white"/>
<path opacity="0.2" d="M369.49 264.44C372.64 261.39 374.84 258.96 374.84 258.96L374.57 254.76L373.24 250.67C371.5 252.48 370.187 254.655 369.397 257.038C368.606 259.42 368.358 261.949 368.67 264.44H369.49Z" fill="black"/>
<path d="M407.2 218.22C406.34 221.52 411.06 230.64 409.15 247.22C407.24 263.8 389.04 262.8 380.86 257.22C372.68 251.64 374.1 221.68 376.91 215.76C379.72 209.84 407.2 218.22 407.2 218.22Z" fill="#263238"/>
<path d="M405.911 264.44C406.511 262.17 407.231 259.68 408.091 256.92C408.704 254.92 409.387 252.797 410.141 250.55C410.714 248.85 411.334 247 412.001 245C407.94 243.708 403.793 242.705 399.591 242C395.155 241.22 390.671 240.749 386.171 240.59C380.361 240.59 373.671 241.2 373.671 241.2C373.671 241.2 372.721 241.42 372.131 247.59C371.811 250.97 371.491 256.33 371.531 264.4L405.911 264.44Z" fill="#263238"/>
<path opacity="0.3" d="M405.911 264.44C406.511 262.17 407.231 259.68 408.091 256.92C408.704 254.92 409.387 252.797 410.141 250.55C410.714 248.85 411.334 247 412.001 245C407.94 243.708 403.793 242.705 399.591 242C395.155 241.22 390.671 240.749 386.171 240.59C380.361 240.59 373.671 241.2 373.671 241.2C373.671 241.2 372.721 241.42 372.131 247.59C371.811 250.97 371.491 256.33 371.531 264.4L405.911 264.44Z" fill="white"/>
<path d="M391.552 239.77C395.142 239.99 400.882 239.95 404.552 245.69H397.752L401.452 250.21C401.452 250.21 389.542 253.05 385.822 260.86C385.822 260.86 380.482 251.6 377.582 249.45C379.351 247.689 381.373 246.202 383.582 245.04C381.657 244.218 379.644 243.621 377.582 243.26C377.582 243.26 386.702 239.48 391.552 239.77Z" fill="white"/>
<path d="M398.229 243.14C398.229 243.14 389.009 253.54 386.159 258.56C384.863 253.068 384.998 247.335 386.549 241.91L398.229 243.14Z" fill="#8568F5"/>
<path opacity="0.6" d="M398.229 243.14C398.229 243.14 389.009 253.54 386.159 258.56C384.863 253.068 384.998 247.335 386.549 241.91L398.229 243.14Z" fill="white"/>
<path d="M388.651 247.23C396.021 246.29 398.231 243.14 398.231 243.14C393.551 238.73 397.441 231.14 397.441 231.14L388.571 232.8C388.773 234.034 388.89 235.28 388.921 236.53C388.981 241.91 386.551 241.96 386.551 241.96C385.001 244.83 388.651 247.23 388.651 247.23Z" fill="#EEC1BB"/>
<path opacity="0.2" d="M388.57 232.75C388.772 233.984 388.889 235.23 388.92 236.48C394.92 236.48 397.44 231.09 397.44 231.09L388.57 232.75Z" fill="black"/>
<path d="M393.47 208C385.76 207.58 383.06 211.57 382.06 219.48C380.81 229.37 382.62 236.54 392.38 234.95C405.62 232.74 406.27 208.65 393.47 208Z" fill="#EEC1BB"/>
<path d="M387.062 219.27C386.387 220.391 385.578 221.425 384.652 222.35C384.859 222.687 385.156 222.958 385.51 223.135C385.863 223.312 386.259 223.386 386.652 223.35L387.062 219.27Z" fill="#D4827D"/>
<path d="M391.822 218.9C391.772 219.54 392.072 220.07 392.492 220.11C392.912 220.15 393.292 219.65 393.342 219.02C393.392 218.39 393.092 217.85 392.672 217.82C392.252 217.79 391.872 218.27 391.822 218.9Z" fill="#263238"/>
<path d="M392.842 217.86L391.512 217.22C391.512 217.22 392.102 218.43 392.842 217.86Z" fill="#263238"/>
<path d="M384.002 218.16C383.952 218.79 384.252 219.33 384.672 219.36C385.092 219.39 385.472 218.91 385.522 218.28C385.572 217.65 385.272 217.1 384.852 217.07C384.432 217.04 384.002 217.52 384.002 218.16Z" fill="#263238"/>
<path d="M385.002 217.12L383.672 216.47C383.672 216.47 384.252 217.68 385.002 217.12Z" fill="#263238"/>
<path d="M395.471 215.28C395.415 215.282 395.36 215.269 395.311 215.242C395.262 215.216 395.221 215.177 395.191 215.13C394.816 214.714 394.35 214.39 393.83 214.182C393.31 213.974 392.749 213.888 392.191 213.93C392.1 213.933 392.012 213.902 391.943 213.843C391.875 213.783 391.831 213.7 391.821 213.61C391.815 213.519 391.846 213.429 391.906 213.36C391.965 213.291 392.05 213.248 392.141 213.24C392.812 213.193 393.486 213.303 394.107 213.562C394.729 213.821 395.281 214.221 395.721 214.73C395.774 214.804 395.796 214.895 395.783 214.984C395.77 215.074 395.722 215.155 395.651 215.21C395.598 215.249 395.536 215.273 395.471 215.28Z" fill="#263238"/>
<path d="M383.491 213.76C383.433 213.759 383.375 213.743 383.324 213.713C383.273 213.683 383.231 213.641 383.201 213.59C383.178 213.551 383.163 213.508 383.156 213.464C383.149 213.419 383.152 213.374 383.163 213.33C383.174 213.286 383.194 213.245 383.221 213.209C383.248 213.173 383.282 213.143 383.321 213.12C383.816 212.783 384.382 212.564 384.975 212.481C385.569 212.397 386.173 212.452 386.741 212.64C386.824 212.677 386.888 212.745 386.922 212.829C386.956 212.913 386.955 213.006 386.921 213.09C386.884 213.172 386.817 213.237 386.733 213.27C386.649 213.304 386.555 213.304 386.471 213.27C386.002 213.126 385.506 213.091 385.021 213.168C384.536 213.244 384.074 213.429 383.671 213.71C383.616 213.74 383.555 213.757 383.491 213.76Z" fill="#263238"/>
<path d="M387.59 226.43C387.904 227.318 388.154 228.227 388.34 229.15C388.506 229.16 388.673 229.16 388.84 229.15C391.1 229.05 392.11 228.26 392.55 227.41C392.748 226.988 392.848 226.526 392.84 226.06C392.841 225.797 392.807 225.535 392.74 225.28C391.377 225.964 389.883 226.346 388.36 226.4L387.59 226.43Z" fill="#263238"/>
<path d="M388.359 226.38L388.599 227.18C390.719 227.07 392.209 226.72 392.839 226.04C392.84 225.777 392.807 225.514 392.739 225.26C391.377 225.944 389.883 226.326 388.359 226.38Z" fill="white"/>
<path d="M388.84 229.13C391.1 229.03 392.11 228.24 392.55 227.39C391.69 227.444 390.847 227.651 390.06 228C389.545 228.24 389.118 228.635 388.84 229.13Z" fill="#DE5753"/>
<path d="M401.191 221.4C401.191 221.4 397.931 214.87 398.741 210.01C398.741 210.01 383.811 202.94 382.211 218.4C382.211 218.4 381.471 204.55 394.731 204.97C407.991 205.39 406.881 224.77 399.731 230.17C399.721 230.17 403.201 225.49 401.191 221.4Z" fill="#263238"/>
<path d="M399.842 223C399.902 222.56 400.048 222.136 400.273 221.753C400.497 221.369 400.794 221.034 401.148 220.765C401.502 220.497 401.905 220.301 402.335 220.189C402.764 220.076 403.212 220.049 403.652 220.11C406.022 220.5 406.892 225.47 400.882 226.32C400.002 226.41 399.592 225.55 399.842 223Z" fill="#EEC1BB"/>
<path d="M396.691 209.25C396.168 215.625 397.745 221.995 401.181 227.39C405.521 233.94 400.541 239.67 400.541 239.67C400.541 239.67 410.831 236.12 406.341 221.52C406.341 221.52 411.181 208.47 401.661 204.96C401.661 204.96 401.611 200.96 393.001 201.74C384.391 202.52 377.471 209.87 376.151 219.27C374.831 228.67 379.741 239.16 379.741 239.16C379.741 239.16 374.531 205.84 396.691 209.25Z" fill="#263238"/>
<path d="M397.171 209.4C396.604 211.633 396.388 213.941 396.531 216.24C396.666 218.568 397.038 220.877 397.641 223.13C398.241 225.399 399.11 227.588 400.231 229.65C401.329 231.73 402.808 233.586 404.591 235.12C402.744 233.638 401.191 231.823 400.011 229.77C398.806 227.724 397.85 225.542 397.161 223.27C396.46 220.991 395.997 218.645 395.781 216.27C395.546 213.862 395.691 211.433 396.211 209.07L397.171 209.4Z" fill="#263238"/>
<path opacity="0.2" d="M405.912 264.44C406.042 263.96 406.172 263.44 406.312 262.98C405.382 259.72 404.422 262.27 404.422 262.27C404.267 262.986 404.154 263.711 404.082 264.44H405.912Z" fill="black"/>
<path d="M418.919 264.44C415.439 255.16 411.999 245 411.999 245C404.859 247.82 404.469 262.43 404.469 262.43L405.589 264.43L418.919 264.44Z" fill="#263238"/>
<path opacity="0.3" d="M418.919 264.44C415.439 255.16 411.999 245 411.999 245C404.859 247.82 404.469 262.43 404.469 262.43L405.589 264.43L418.919 264.44Z" fill="white"/>
<path opacity="0.5" d="M261.47 191.45H178.18V264.43H261.47V191.45Z" fill="white"/>
<path d="M220.969 203.32L212.609 211.69H210.879V203.32H220.969Z" fill="white"/>
<path d="M222.722 205.82V211.69H216.852L222.722 205.82Z" fill="white"/>
<path d="M226.94 210.88L223.77 209.88V205.26L226.94 204.26V210.88Z" fill="white"/>
<path d="M218.909 219.36C216.165 219.36 213.506 218.409 211.384 216.669C209.263 214.928 207.81 212.506 207.275 209.814C206.739 207.123 207.154 204.329 208.447 201.909C209.741 199.489 211.834 197.592 214.37 196.542C216.905 195.492 219.726 195.354 222.352 196.151C224.978 196.948 227.246 198.631 228.77 200.914C230.294 203.196 230.979 205.936 230.709 208.667C230.439 211.398 229.231 213.95 227.289 215.89C226.191 216.993 224.885 217.868 223.447 218.464C222.008 219.059 220.466 219.364 218.909 219.36ZM218.909 196.65C217.123 196.649 215.363 197.088 213.787 197.93C212.21 198.771 210.866 199.988 209.873 201.474C208.88 202.959 208.269 204.667 208.093 206.445C207.918 208.223 208.185 210.017 208.869 211.668C209.553 213.319 210.634 214.775 212.015 215.908C213.397 217.041 215.037 217.815 216.79 218.163C218.543 218.51 220.354 218.42 222.063 217.899C223.773 217.379 225.327 216.445 226.589 215.18C228.105 213.661 229.137 211.726 229.554 209.621C229.971 207.516 229.755 205.334 228.934 203.352C228.112 201.369 226.721 199.675 224.937 198.482C223.153 197.289 221.056 196.652 218.909 196.65Z" fill="white"/>
<path d="M226.586 199.13L210.527 215.188L211.234 215.895L227.293 199.837L226.586 199.13Z" fill="white"/>
<path d="M83.7506 397.8L108.531 395.37V360.54H118.351V395.36L143.241 397.8C144.433 397.919 145.539 398.477 146.343 399.366C147.147 400.255 147.592 401.411 147.591 402.61V406.33H79.3906V402.61C79.3921 401.411 79.839 400.254 80.6446 399.366C81.4502 398.477 82.5571 397.919 83.7506 397.8Z" fill="#263238"/>
<path opacity="0.3" d="M83.7506 397.8L108.531 395.37V360.54H118.351V395.36L143.241 397.8C144.433 397.919 145.539 398.477 146.343 399.366C147.147 400.255 147.592 401.411 147.591 402.61V406.33H79.3906V402.61C79.3921 401.411 79.839 400.254 80.6446 399.366C81.4502 398.477 82.5571 397.919 83.7506 397.8Z" fill="white"/>
<path d="M138.551 410.94C138.551 412.21 138.927 413.451 139.633 414.507C140.338 415.563 141.341 416.385 142.514 416.871C143.687 417.357 144.978 417.484 146.223 417.237C147.469 416.989 148.613 416.377 149.51 415.48C150.408 414.582 151.02 413.438 151.267 412.193C151.515 410.947 151.388 409.656 150.902 408.483C150.416 407.31 149.593 406.307 148.538 405.602C147.482 404.897 146.241 404.52 144.971 404.52C143.268 404.52 141.635 405.196 140.431 406.4C139.227 407.604 138.551 409.237 138.551 410.94Z" fill="#8568F5"/>
<path d="M88.4381 410.94C88.4401 412.212 88.0649 413.456 87.36 414.514C86.6551 415.573 85.6522 416.398 84.478 416.887C83.3038 417.375 82.0112 417.505 80.7635 417.258C79.5158 417.012 78.3692 416.402 77.4685 415.504C76.5679 414.606 75.9537 413.461 75.7036 412.214C75.4536 410.967 75.5789 409.674 76.0638 408.499C76.5486 407.323 77.3712 406.317 78.4275 405.609C79.4838 404.901 80.7264 404.522 81.9981 404.52C82.8425 404.519 83.6789 404.684 84.4595 405.006C85.2402 405.328 85.9497 405.8 86.5477 406.396C87.1458 406.992 87.6205 407.701 87.9448 408.48C88.2692 409.26 88.4368 410.096 88.4381 410.94Z" fill="#8568F5"/>
<path d="M115.891 368.02H110.951C109.855 368.02 108.805 367.585 108.03 366.81C107.256 366.036 106.821 364.985 106.821 363.89V337.02H120.051V363.89C120.051 364.435 119.943 364.975 119.734 365.478C119.524 365.981 119.217 366.437 118.831 366.821C118.444 367.205 117.985 367.509 117.48 367.714C116.976 367.92 116.436 368.024 115.891 368.02Z" fill="#263238"/>
<path opacity="0.5" d="M115.891 368.02H110.951C109.855 368.02 108.805 367.585 108.03 366.81C107.256 366.036 106.821 364.985 106.821 363.89V337.02H120.051V363.89C120.051 364.435 119.943 364.975 119.734 365.478C119.524 365.981 119.217 366.437 118.831 366.821C118.444 367.205 117.985 367.509 117.48 367.714C116.976 367.92 116.436 368.024 115.891 368.02Z" fill="white"/>
<path d="M89.9973 282.55C89.9973 282.55 88.0873 329 100.997 337H86.2573C86.2573 337 74.8173 321.18 78.0473 282.55H89.9973Z" fill="#263238"/>
<path opacity="0.5" d="M89.9973 282.55C89.9973 282.55 88.0873 329 100.997 337H86.2573C86.2573 337 74.8173 321.18 78.0473 282.55H89.9973Z" fill="white"/>
<path d="M86.2305 330.5H142.4C143.727 330.5 144.998 331.027 145.936 331.964C146.874 332.902 147.4 334.174 147.4 335.5V340.56H81.2305V335.5C81.2305 334.174 81.7572 332.902 82.6949 331.964C83.6326 331.027 84.9044 330.5 86.2305 330.5Z" fill="#8568F5"/>
<path d="M148.139 335.53H80.4788C79.3687 335.53 78.4688 336.43 78.4688 337.54V338.55C78.4688 339.66 79.3687 340.56 80.4788 340.56H148.139C149.249 340.56 150.149 339.66 150.149 338.55V337.54C150.149 336.43 149.249 335.53 148.139 335.53Z" fill="#8568F5"/>
<path opacity="0.6" d="M148.139 335.53H80.4788C79.3687 335.53 78.4688 336.43 78.4688 337.54V338.55C78.4688 339.66 79.3687 340.56 80.4788 340.56H148.139C149.249 340.56 150.149 339.66 150.149 338.55V337.54C150.149 336.43 149.249 335.53 148.139 335.53Z" fill="white"/>
<path d="M76.4572 291.99H96.0372C104.089 291.99 110.617 285.463 110.617 277.41V272.23C110.617 264.178 104.089 257.65 96.0372 257.65H76.4572C68.4049 257.65 61.8772 264.178 61.8772 272.23V277.41C61.8772 285.463 68.4049 291.99 76.4572 291.99Z" fill="#8568F5"/>
<path d="M138.64 250.52C141.29 251.61 156.32 270.78 156.71 274.82C157.2 279.72 152.23 280.65 146.82 279.38C141.41 278.11 145.51 272.8 145.51 272.8L137.18 261.14L138.64 250.52Z" fill="#263238"/>
<path d="M136.238 298.26H117.238C117.238 298.26 120.898 273.16 121.498 272.8C122.098 272.44 135.378 271.55 135.378 271.55V285.55L136.238 298.26Z" fill="#263238"/>
<path d="M114.579 243.71C115.269 243.57 122.519 240.57 126.459 243.6C130.399 246.63 134.839 256.72 127.779 260.38C120.719 264.04 111.709 262.13 110.629 256.62C109.549 251.11 114.579 243.71 114.579 243.71Z" fill="#263238"/>
<path d="M108.929 221.08C108.929 221.08 104.169 232.08 107.499 236.16C110.829 240.24 132.549 243.48 136.319 239.65C140.089 235.82 135.149 220.65 135.149 220.65L108.929 221.08Z" fill="#263238"/>
<path d="M194.307 382.38L188.647 383.74L185.787 375.93L183.188 368.83L189.628 366.08L192.107 374.7L194.307 382.38Z" fill="#E4897B"/>
<path opacity="0.2" d="M192.107 374.7L185.787 375.93L183.188 368.83L189.628 366.08L192.107 374.7Z" fill="black"/>
<path d="M191.537 370.58L183.697 373.49C183.697 373.49 162.767 321.17 158.467 320.99C154.167 320.81 110.367 340.93 99.3975 329.77C88.4275 318.61 104.287 291.71 104.287 291.71C104.287 291.71 130.687 287.95 132.677 293.91C133.169 295.667 133.543 297.454 133.797 299.26C134.097 301.08 134.297 302.61 134.297 302.61C135.117 302.41 161.617 295.61 172.057 302.61C182.687 309.79 191.537 370.58 191.537 370.58Z" fill="#263238"/>
<path opacity="0.2" d="M191.537 370.58L183.697 373.49C183.697 373.49 162.767 321.17 158.467 320.99C154.167 320.81 110.367 340.93 99.3975 329.77C88.4275 318.61 104.287 291.71 104.287 291.71C104.287 291.71 130.687 287.95 132.677 293.91C133.169 295.667 133.543 297.454 133.797 299.26C134.097 301.08 134.297 302.61 134.297 302.61C135.117 302.41 161.617 295.61 172.057 302.61C182.687 309.79 191.537 370.58 191.537 370.58Z" fill="white"/>
<path d="M146.417 404.7L140.777 403.25L141.867 395.17L142.867 387.75L149.837 388.38L148.027 397.02L146.417 404.7Z" fill="#E4897B"/>
<path opacity="0.2" d="M147.988 397.19L141.828 395.32L142.848 387.83L149.828 388.42L147.988 397.19Z" fill="black"/>
<path d="M180.457 370.59L191.877 366.71L192.367 371.39L183.707 374.45L180.457 370.59Z" fill="#263238"/>
<path d="M118.359 332.45C118.359 332.45 120.139 332.5 147.829 331.21C147.829 331.21 143.699 365.82 141.439 391.74L149.719 393.15C149.719 393.15 169.499 337.66 169.289 328.84C169.079 320.02 158.999 317.44 158.999 317.44C158.999 317.44 139.239 328.84 118.359 332.45Z" fill="#263238"/>
<path opacity="0.1" d="M118.359 332.45C118.359 332.45 120.139 332.5 147.829 331.21C147.829 331.21 143.699 365.82 141.439 391.74L149.719 393.15C149.719 393.15 169.499 337.66 169.289 328.84C169.079 320.02 158.999 317.44 158.999 317.44C158.999 317.44 139.239 328.84 118.359 332.45Z" fill="white"/>
<path d="M140.229 389.23L151.609 390.52L149.409 394.98L140.199 393.8L140.229 389.23Z" fill="#263238"/>
<path opacity="0.3" d="M134.299 302.61L118.859 305.83C118.859 305.83 127.399 301.12 133.799 299.26C134.099 301.08 134.299 302.61 134.299 302.61Z" fill="black"/>
<path d="M104.929 287.61L104.289 291.72L132.679 293.91L133.429 289.05L104.929 287.61Z" fill="#263238"/>
<path opacity="0.2" d="M104.929 287.61L104.289 291.72L132.679 293.91L133.429 289.05L104.929 287.61Z" fill="black"/>
<path d="M114.614 287.339L113.211 287.194L112.477 294.337L113.879 294.481L114.614 287.339Z" fill="#263238"/>
<path d="M126.768 289.053L120.551 288.653L120.247 293.373L126.464 293.773L126.768 289.053Z" fill="white"/>
<path d="M132.051 288.107L130.648 287.963L129.914 295.105L131.317 295.249L132.051 288.107Z" fill="#263238"/>
<path opacity="0.2" d="M114.614 287.339L113.211 287.194L112.477 294.337L113.879 294.481L114.614 287.339Z" fill="white"/>
<path opacity="0.2" d="M132.051 288.107L130.648 287.963L129.914 295.105L131.317 295.249L132.051 288.107Z" fill="white"/>
<path d="M136.779 249.9C132.038 246.884 126.608 245.123 120.999 244.78C111.889 244.31 103.699 249.33 103.699 249.33L104.909 287.61L133.409 289.05C133.409 289.05 142.419 263.51 136.779 249.9Z" fill="#8568F5"/>
<path d="M135.388 224.32C135.388 224.32 139.498 205.83 122.388 207.66C100.918 209.96 109.068 236.66 119.718 234.99C130.368 233.32 135.388 224.32 135.388 224.32Z" fill="#263238"/>
<path opacity="0.2" d="M131.857 249.09L132.367 257.15L126.187 251.61C126.187 251.61 125.767 255.61 124.337 262.26C123.888 258.798 122.91 255.426 121.437 252.26L115.597 258.2L111.777 249.09C111.777 249.09 123.477 240.61 131.857 249.09Z" fill="black"/>
<path d="M124.068 255.63L120.998 248.05L115.328 245.51C120.328 242.05 117.818 234.31 117.818 234.31L125.908 237.16C125.535 238.287 125.244 239.44 125.038 240.61C124.198 245.61 126.468 246.05 126.468 246.05L124.908 248.31L124.068 255.63Z" fill="#E4897B"/>
<path opacity="0.2" d="M125.899 237.16C125.525 238.287 125.234 239.44 125.029 240.61C121.159 239.06 117.809 234.31 117.809 234.31L125.899 237.16Z" fill="black"/>
<path d="M126.18 213C133.49 213.63 135.5 217.74 135.39 225.31C135.25 234.78 132.59 241.31 123.63 238.49C111.46 234.7 114.05 212 126.18 213Z" fill="#E4897B"/>
<path d="M130.7 224.5C131.193 225.641 131.821 226.719 132.57 227.71C132.331 227.995 132.018 228.208 131.664 228.325C131.311 228.441 130.932 228.457 130.57 228.37L130.7 224.5Z" fill="#DE5753"/>
<path d="M126.278 223.52C126.278 224.12 125.888 224.59 125.488 224.52C125.088 224.45 124.788 223.99 124.828 223.39C124.868 222.79 125.218 222.32 125.618 222.34C126.018 222.36 126.318 222.92 126.278 223.52Z" fill="#263238"/>
<path d="M125.457 222.4L126.797 221.97C126.797 221.97 126.077 223 125.457 222.4Z" fill="#263238"/>
<path d="M133.771 223.86C133.771 224.46 133.371 224.93 132.971 224.86C132.571 224.79 132.281 224.33 132.311 223.73C132.341 223.13 132.711 222.66 133.111 222.68C133.511 222.7 133.801 223.26 133.771 223.86Z" fill="#263238"/>
<path d="M132.938 222.74L134.277 222.31C134.277 222.31 133.558 223.37 132.938 222.74Z" fill="#263238"/>
<path d="M123.38 219.66C123.334 219.661 123.288 219.652 123.245 219.635C123.202 219.618 123.163 219.592 123.13 219.56C123.095 219.527 123.067 219.488 123.048 219.444C123.029 219.4 123.02 219.353 123.02 219.305C123.02 219.257 123.029 219.21 123.048 219.166C123.067 219.122 123.095 219.083 123.13 219.05C123.615 218.623 124.193 218.316 124.818 218.153C125.443 217.99 126.098 217.975 126.73 218.11C126.823 218.132 126.904 218.188 126.956 218.269C127.009 218.349 127.028 218.446 127.01 218.54C127 218.587 126.982 218.631 126.955 218.671C126.928 218.71 126.893 218.744 126.853 218.77C126.813 218.796 126.769 218.814 126.722 218.823C126.675 218.831 126.626 218.83 126.58 218.82C126.068 218.715 125.539 218.727 125.032 218.853C124.525 218.979 124.053 219.217 123.65 219.55C123.614 219.585 123.572 219.613 123.526 219.632C123.479 219.651 123.43 219.66 123.38 219.66Z" fill="#263238"/>
<path d="M134.84 219.83C134.757 219.828 134.676 219.8 134.61 219.75C134.272 219.437 133.869 219.204 133.43 219.067C132.99 218.93 132.525 218.894 132.07 218.96C131.978 218.985 131.881 218.972 131.798 218.926C131.716 218.879 131.656 218.801 131.63 218.71C131.605 218.617 131.617 218.519 131.664 218.435C131.71 218.351 131.788 218.288 131.88 218.26C132.445 218.163 133.025 218.195 133.576 218.355C134.126 218.514 134.634 218.796 135.06 219.18C135.098 219.209 135.129 219.246 135.153 219.288C135.176 219.329 135.191 219.375 135.197 219.423C135.202 219.47 135.198 219.518 135.185 219.564C135.172 219.61 135.15 219.653 135.12 219.69C135.087 219.734 135.045 219.769 134.996 219.793C134.948 219.818 134.894 219.83 134.84 219.83Z" fill="#263238"/>
<path d="M117.14 224.62C117.14 224.62 121.07 218.92 120.95 214.24C120.95 214.24 135.95 209.57 135.39 224.32C135.39 224.32 137.92 211.4 125.39 210.03C112.86 208.66 111.33 227.03 117.39 233.03C117.35 233.07 114.7 228.2 117.14 224.62Z" fill="#263238"/>
<path d="M118.198 226.27C118.205 225.845 118.127 225.422 117.969 225.027C117.812 224.632 117.577 224.272 117.28 223.968C116.982 223.664 116.627 223.422 116.236 223.256C115.844 223.089 115.423 223.003 114.998 223C112.718 223.06 111.238 227.61 116.768 229.21C117.568 229.48 118.088 228.73 118.198 226.27Z" fill="#E4897B"/>
<path d="M130.998 231.35C130.559 232.133 130.174 232.945 129.848 233.78L129.388 233.68C127.288 233.21 126.478 232.31 126.208 231.44C126.08 231.015 126.059 230.565 126.148 230.13C126.187 229.884 126.261 229.645 126.368 229.42C127.533 230.281 128.87 230.882 130.288 231.18C130.698 231.3 130.998 231.35 130.998 231.35Z" fill="#263238"/>
<path d="M130.269 231.18L129.909 231.89C127.909 231.45 126.609 230.89 126.129 230.13C126.168 229.884 126.242 229.645 126.349 229.42C127.514 230.281 128.851 230.882 130.269 231.18Z" fill="white"/>
<path d="M129.367 233.68C127.267 233.21 126.458 232.31 126.188 231.44C126.98 231.641 127.732 231.98 128.408 232.44C128.846 232.747 129.18 233.179 129.367 233.68Z" fill="#DE5753"/>
<path d="M125.999 213.54C125.999 213.54 121.999 225.3 114.469 224.54C106.939 223.78 119.899 209.54 119.899 209.54C119.899 209.54 132.659 205.94 138.189 213.02C143.719 220.1 135.409 224.38 135.409 224.38C135.409 224.38 136.649 215.05 125.999 213.54Z" fill="#263238"/>
<path d="M119.929 223.58C119.879 223.58 119.83 223.564 119.789 223.535C119.748 223.507 119.717 223.467 119.699 223.42C119.676 223.356 119.679 223.286 119.707 223.225C119.735 223.163 119.786 223.115 119.849 223.09C125.849 220.82 125.729 212.76 125.729 212.68C125.729 212.614 125.755 212.55 125.802 212.503C125.849 212.456 125.913 212.43 125.979 212.43C126.011 212.429 126.044 212.434 126.074 212.445C126.104 212.457 126.132 212.474 126.155 212.497C126.178 212.519 126.197 212.546 126.21 212.576C126.222 212.606 126.229 212.638 126.229 212.67C126.229 212.75 126.349 221.16 120.019 223.56L119.929 223.58Z" fill="#263238"/>
<path d="M117.509 242.55L120.989 248.05L116.629 255.63L113.469 245.9L117.509 242.55Z" fill="#8568F5"/>
<path d="M124.898 243.6V248.31L130.048 254L128.368 245.83L124.898 243.6Z" fill="#8568F5"/>
<path d="M203.668 393.36C202.811 392.966 201.89 392.732 200.948 392.67C200.948 392.67 197.678 390.75 194.438 383.28H190.798C190.183 383.286 189.584 383.481 189.083 383.839C188.582 384.196 188.204 384.7 187.998 385.28C187.94 385.441 187.907 385.609 187.898 385.78C187.937 386.662 188.03 387.54 188.178 388.41C188.715 391.304 189.427 394.162 190.308 396.97L190.918 396.82L189.798 391.38C189.428 389.54 191.368 391.32 192.268 393.18C193.168 395.04 194.548 396.92 198.568 396C203.258 394.88 205.138 394.21 203.668 393.36Z" fill="#263238"/>
<path d="M193.778 381.32C193.778 381.32 198.328 390.83 200.948 392.67C200.948 392.67 197.438 394.76 193.778 390.1C189.048 384.1 187.898 385.76 187.898 385.76C187.994 384.721 188.185 383.694 188.468 382.69C189.178 380.75 193.778 381.32 193.778 381.32Z" fill="#E4897B"/>
<path d="M153.588 416C152.848 415.414 152.007 414.966 151.108 414.68C151.108 414.68 148.388 412.04 147.008 404.01L143.478 403.13C142.879 402.991 142.252 403.039 141.681 403.268C141.111 403.497 140.624 403.896 140.288 404.41C140.189 404.553 140.114 404.712 140.068 404.88C139.896 405.742 139.779 406.614 139.718 407.49C139.537 410.431 139.537 413.38 139.718 416.32H140.348L140.548 410.78C140.628 408.9 142.088 411.09 142.548 413.11C143.008 415.13 143.878 417.28 147.998 417.34C152.828 417.41 154.818 417.2 153.588 416Z" fill="#263238"/>
<path d="M146.84 402C146.84 402 149 412.33 151.11 414.73C151.11 414.73 147.2 415.93 144.75 410.54C141.59 403.54 140.07 404.93 140.07 404.93C140.407 403.942 140.836 402.988 141.35 402.08C142.5 400.34 146.84 402 146.84 402Z" fill="#E4897B"/>
<path d="M112.547 245.45C112.547 245.45 121.417 271.8 108.917 301.72L96.7773 300.14L104.287 283.14L102.647 248.9L112.547 245.45Z" fill="#263238"/>
<path d="M129.367 246.39C129.367 246.39 133.427 252.93 132.937 272.8L135.387 300.93L137.747 299.26L135.817 285.54C135.817 285.54 140.947 261.39 138.637 250.54L129.367 246.39Z" fill="#263238"/>
<path d="M126.457 243.6C126.457 243.6 133.347 247.22 136.867 252.17L134.297 254.54L137.747 259.54L132.937 272.75C132.937 272.75 130.327 248 126.457 243.6Z" fill="#263238"/>
<path opacity="0.2" d="M126.457 243.6C126.457 243.6 133.347 247.22 136.867 252.17L134.297 254.54L137.747 259.54L132.937 272.75C132.937 272.75 130.327 248 126.457 243.6Z" fill="white"/>
<path d="M114.58 243.71C114.58 243.71 117.74 261.71 115.32 274.22L107.76 257.09L112.09 252.93L106.32 248.81C108.63 246.479 111.461 244.73 114.58 243.71Z" fill="#263238"/>
<path opacity="0.2" d="M114.58 243.71C114.58 243.71 117.74 261.71 115.32 274.22L107.76 257.09L112.09 252.93L106.32 248.81C108.63 246.479 111.461 244.73 114.58 243.71Z" fill="white"/>
<path d="M123.527 275.43L133.757 276.15C134.586 275.603 135.488 275.179 136.437 274.89C137.687 274.59 144.957 273.8 146.277 274.31C147.597 274.82 148.777 279.13 148.657 280.02C148.537 280.91 137.547 281.21 137.197 281.24C136.847 281.27 135.597 280.11 135.597 280.11L123.527 280V275.43Z" fill="#E4897B"/>
<path d="M102.65 248.86C95.9901 252.86 92.3601 274.41 96.7801 277.78C101.2 281.15 131.57 281.24 131.57 281.24L132.57 274.82C132.57 274.82 106.48 272.21 105.15 269.68C103.82 267.15 104.29 257.15 104.29 257.15L102.65 248.86Z" fill="#263238"/>
<path d="M220.438 417.37H225.708L235.177 285.54H228.188L220.438 417.37Z" fill="#263238"/>
<path opacity="0.7" d="M220.438 417.37H225.708L234.717 292.09L235.177 285.76H228.188L227.807 292.09L220.438 417.37Z" fill="white"/>
<path opacity="0.2" d="M227.809 291.78H234.719L235.179 285.76H228.189L227.809 291.78Z" fill="black"/>
<path d="M181.77 417.37H187.04L187.9 285.54H180.91L181.77 417.37Z" fill="#263238"/>
<path opacity="0.7" d="M180.898 285.76L181.038 307.02L181.758 417.37H187.038L187.758 307.02L187.898 285.76H180.898Z" fill="white"/>
<path opacity="0.2" d="M180.898 285.76L181.038 307.26H187.758L187.898 285.76H180.898Z" fill="black"/>
<path d="M125.82 417.37H131.09L140.56 285.54H133.57L125.82 417.37Z" fill="#263238"/>
<path opacity="0.7" d="M125.82 417.37H131.09L140.1 292.09L140.56 285.76H133.57L133.19 292.09L125.82 417.37Z" fill="white"/>
<path opacity="0.2" d="M133.188 291.78H140.098L140.557 285.76H133.568L133.188 291.78Z" fill="black"/>
<path d="M280.728 417.37H285.998L278.248 285.54H271.258L280.728 417.37Z" fill="#263238"/>
<path opacity="0.7" d="M271.258 285.76L271.718 292.09L280.728 417.37H285.988L278.628 292.09L278.248 285.76H271.258Z" fill="white"/>
<path opacity="0.2" d="M278.248 285.76H271.258L271.718 291.78H278.628L278.248 285.76Z" fill="black"/>
<path d="M281.63 288.85H130.19C129.617 288.85 129.068 288.622 128.663 288.217C128.258 287.812 128.03 287.263 128.03 286.69V282.25H283.82V286.69C283.82 286.976 283.763 287.259 283.653 287.523C283.543 287.788 283.381 288.027 283.177 288.228C282.973 288.429 282.732 288.587 282.466 288.694C282.201 288.801 281.916 288.854 281.63 288.85Z" fill="#8568F5"/>
<path opacity="0.6" d="M281.63 288.85H130.19C129.617 288.85 129.068 288.622 128.663 288.217C128.258 287.812 128.03 287.263 128.03 286.69V282.25H283.82V286.69C283.82 286.976 283.763 287.259 283.653 287.523C283.543 287.788 283.381 288.027 283.177 288.228C282.973 288.429 282.732 288.587 282.466 288.694C282.201 288.801 281.916 288.854 281.63 288.85Z" fill="white"/>
<path opacity="0.2" d="M128.027 285.55H283.797V282.25H128.027V285.55Z" fill="black"/>
<path d="M124.758 283.1H287.058C287.552 283.1 288.025 282.904 288.374 282.555C288.722 282.206 288.918 281.733 288.918 281.24C288.916 280.747 288.719 280.276 288.371 279.928C288.023 279.579 287.551 279.383 287.058 279.38H124.758C124.265 279.38 123.792 279.576 123.443 279.925C123.094 280.273 122.898 280.747 122.898 281.24C122.898 281.733 123.094 282.206 123.443 282.555C123.792 282.904 124.265 283.1 124.758 283.1Z" fill="#8568F5"/>
<path opacity="0.6" d="M124.758 283.1H287.058C287.552 283.1 288.025 282.904 288.374 282.555C288.722 282.206 288.918 281.733 288.918 281.24C288.916 280.747 288.719 280.276 288.371 279.928C288.023 279.579 287.551 279.383 287.058 279.38H124.758C124.265 279.38 123.792 279.576 123.443 279.925C123.094 280.273 122.898 280.747 122.898 281.24C122.898 281.733 123.094 282.206 123.443 282.555C123.792 282.904 124.265 283.1 124.758 283.1Z" fill="white"/>
<path d="M220.5 279.38L219.65 276.18H184.77L168.71 277.78L168.09 279.38H220.5Z" fill="#263238"/>
<path opacity="0.4" d="M184.77 276.18V279.38H220.5L219.65 276.18H184.77Z" fill="black"/>
<path d="M191.778 260.82C191.731 261.209 191.767 261.604 191.886 261.977C192.004 262.351 192.201 262.695 192.463 262.986C192.726 263.277 193.048 263.508 193.408 263.664C193.767 263.82 194.156 263.897 194.548 263.89H247.998C248.834 263.873 249.635 263.552 250.252 262.987C250.868 262.422 251.258 261.651 251.348 260.82L254.518 226.61C254.562 226.221 254.523 225.828 254.403 225.456C254.284 225.084 254.086 224.741 253.824 224.451C253.563 224.161 253.242 223.929 252.884 223.772C252.526 223.615 252.139 223.536 251.748 223.54H198.298C197.46 223.553 196.657 223.872 196.039 224.438C195.422 225.004 195.033 225.777 194.948 226.61L191.778 260.82Z" fill="#263238"/>
<path opacity="0.4" d="M194.73 263.89H248C248.836 263.873 249.637 263.552 250.254 262.987C250.87 262.422 251.26 261.651 251.35 260.82L254.52 226.61C254.558 226.275 254.534 225.936 254.45 225.61H201.19C200.354 225.627 199.552 225.948 198.936 226.513C198.319 227.078 197.93 227.848 197.84 228.68L194.67 262.89C194.634 263.224 194.654 263.562 194.73 263.89Z" fill="black"/>
<path d="M231.449 242.91H220.389L223.339 274.56L205.859 277.18V279.38H242.669V277.18L235.129 274.56L231.449 242.91Z" fill="#263238"/>
<path opacity="0.1" d="M220.387 242.91L228.577 278.88L235.127 278.69L231.447 242.91H220.387Z" fill="white"/>
<path d="M226.29 221.21H224.16V224.92H226.29V221.21Z" fill="#263238"/>
<path d="M224.159 221.07H221.589C221.327 220.546 221.2 219.965 221.219 219.38C221.19 218.797 221.318 218.217 221.589 217.7H224.159V221.07Z" fill="#263238"/>
<path d="M228.548 219.24C228.548 219.853 228.366 220.452 228.025 220.962C227.685 221.472 227.2 221.869 226.634 222.104C226.068 222.339 225.444 222.4 224.843 222.28C224.242 222.161 223.689 221.865 223.256 221.432C222.822 220.998 222.527 220.446 222.407 219.845C222.288 219.243 222.349 218.62 222.584 218.054C222.818 217.487 223.216 217.003 223.725 216.662C224.235 216.322 224.835 216.14 225.448 216.14C225.855 216.139 226.259 216.218 226.636 216.373C227.012 216.529 227.355 216.757 227.643 217.045C227.931 217.333 228.159 217.675 228.314 218.052C228.47 218.429 228.549 218.832 228.548 219.24Z" fill="#263238"/>
<path opacity="0.1" d="M228.548 219.24C228.548 219.853 228.366 220.452 228.025 220.962C227.685 221.472 227.2 221.869 226.634 222.104C226.068 222.339 225.444 222.4 224.843 222.28C224.242 222.161 223.689 221.865 223.256 221.432C222.822 220.998 222.527 220.446 222.407 219.845C222.288 219.243 222.349 218.62 222.584 218.054C222.818 217.487 223.216 217.003 223.725 216.662C224.235 216.322 224.835 216.14 225.448 216.14C225.855 216.139 226.259 216.218 226.636 216.373C227.012 216.529 227.355 216.757 227.643 217.045C227.931 217.333 228.159 217.675 228.314 218.052C228.47 218.429 228.549 218.832 228.548 219.24Z" fill="white"/>
<path d="M263.23 255.49V279.38H251.32C251.402 271.08 252.569 262.827 254.79 254.83C254.934 254.32 255.241 253.871 255.663 253.552C256.085 253.232 256.601 253.06 257.13 253.06H260.8C261.119 253.06 261.435 253.123 261.73 253.245C262.025 253.367 262.293 253.546 262.519 253.772C262.744 253.997 262.923 254.265 263.045 254.56C263.167 254.855 263.23 255.171 263.23 255.49Z" fill="#263238"/>
<path opacity="0.4" d="M263.227 255.49V279.38H257.227V256.38C257.227 255.502 257.575 254.66 258.196 254.039C258.817 253.419 259.659 253.07 260.537 253.07H260.757C261.078 253.065 261.398 253.123 261.696 253.242C261.995 253.361 262.267 253.539 262.497 253.764C262.727 253.989 262.91 254.257 263.035 254.554C263.16 254.85 263.225 255.168 263.227 255.49Z" fill="black"/>
<path d="M187.23 255.49V279.38H175.32C175.402 271.08 176.569 262.827 178.79 254.83C178.934 254.32 179.241 253.871 179.663 253.552C180.085 253.232 180.601 253.06 181.13 253.06H184.8C185.119 253.06 185.435 253.123 185.73 253.245C186.025 253.367 186.293 253.546 186.519 253.772C186.744 253.997 186.923 254.265 187.045 254.56C187.167 254.855 187.23 255.171 187.23 255.49Z" fill="#263238"/>
<path opacity="0.4" d="M187.227 255.49V279.38H181.227V256.38C181.227 255.502 181.575 254.66 182.196 254.039C182.817 253.419 183.659 253.07 184.537 253.07H184.757C185.078 253.065 185.398 253.123 185.696 253.242C185.995 253.361 186.267 253.539 186.497 253.764C186.727 253.989 186.91 254.257 187.035 254.554C187.16 254.85 187.225 255.168 187.227 255.49Z" fill="black"/>
</svg>
