<svg width="500" height="500" viewBox="0 0 500 500" fill="none" xmlns="http://www.w3.org/2000/svg">
<rect width="500" height="500" fill="#FAAA19" fill-opacity="0.3"/>
<path d="M449.901 398.49H416.781V398.74H449.901V398.49Z" fill="#EBEBEB"/>
<path d="M331.221 401.21H322.531V401.46H331.221V401.21Z" fill="#EBEBEB"/>
<path d="M415.78 389.21H396.59V389.46H415.78V389.21Z" fill="#EBEBEB"/>
<path d="M95.6509 390.89H52.4609V391.14H95.6509V390.89Z" fill="#EBEBEB"/>
<path d="M110.889 390.89H104.559V391.14H110.889V390.89Z" fill="#EBEBEB"/>
<path d="M225.149 395.11H131.469V395.36H225.149V395.11Z" fill="#EBEBEB"/>
<path d="M237.001 337.8H43.9209C42.4066 337.8 40.9542 337.198 39.8834 336.128C38.8125 335.057 38.2109 333.604 38.2109 332.09V60.66C38.2241 59.1543 38.8315 57.7147 39.9009 56.6547C40.9703 55.5947 42.4152 54.9999 43.9209 55H237.001C238.515 55 239.968 55.6016 241.039 56.6724C242.109 57.7433 242.711 59.1956 242.711 60.71V332.09C242.711 333.604 242.109 335.057 241.039 336.128C239.968 337.198 238.515 337.8 237.001 337.8ZM43.9209 55.2C42.4737 55.2026 41.0864 55.7787 40.0631 56.8021C39.0397 57.8255 38.4636 59.2127 38.4609 60.66V332.09C38.4636 333.537 39.0397 334.924 40.0631 335.948C41.0864 336.971 42.4737 337.547 43.9209 337.55H237.001C238.448 337.547 239.835 336.971 240.859 335.948C241.882 334.924 242.458 333.537 242.461 332.09V60.66C242.458 59.2127 241.882 57.8255 240.859 56.8021C239.835 55.7787 238.448 55.2026 237.001 55.2H43.9209Z" fill="#EBEBEB"/>
<path d="M453.31 337.8H260.21C258.696 337.797 257.246 337.195 256.175 336.125C255.105 335.054 254.503 333.604 254.5 332.09V60.66C254.516 59.1551 255.124 57.7171 256.193 56.6576C257.262 55.5981 258.705 55.0025 260.21 55H453.31C454.812 55.0052 456.252 55.6022 457.317 56.6617C458.382 57.7212 458.987 59.1578 459 60.66V332.09C459 333.601 458.401 335.05 457.335 336.121C456.268 337.191 454.821 337.795 453.31 337.8ZM260.21 55.2C258.763 55.2026 257.375 55.7787 256.352 56.8021C255.329 57.8255 254.753 59.2127 254.75 60.66V332.09C254.753 333.537 255.329 334.924 256.352 335.948C257.375 336.971 258.763 337.547 260.21 337.55H453.31C454.757 337.547 456.145 336.971 457.168 335.948C458.191 334.924 458.767 333.537 458.77 332.09V60.66C458.767 59.2127 458.191 57.8255 457.168 56.8021C456.145 55.7787 454.757 55.2026 453.31 55.2H260.21Z" fill="#EBEBEB"/>
<path d="M500 382.4H0V382.65H500V382.4Z" fill="#EBEBEB"/>
<path d="M312.139 382.14H86.4889L84.6289 375.76H313.999L312.139 382.14Z" fill="#E0E0E0"/>
<path d="M197.169 289.08H74.2891V331.5H197.169V289.08Z" fill="#EBEBEB"/>
<path d="M197.169 331.49H74.2891V373.91H197.169V331.49Z" fill="#EBEBEB"/>
<path d="M197.172 295.6V291.31H74.2919V295.6H197.172Z" fill="#E0E0E0"/>
<path d="M197.172 337.68V333.39H74.2919V337.68H197.172Z" fill="#E0E0E0"/>
<path d="M72.1484 287.18V375.76H199.318V287.18H72.1484ZM194.998 371.47H76.4384V333.74H194.998V371.47ZM194.998 329.47H76.4384V291.71H194.998V329.47Z" fill="#F5F5F5"/>
<path d="M324.341 289.08H201.461V331.5H324.341V289.08Z" fill="#EBEBEB"/>
<path d="M324.341 331.49H201.461V373.91H324.341V331.49Z" fill="#EBEBEB"/>
<path d="M324.34 295.6V291.31H201.46V295.6H324.34Z" fill="#E0E0E0"/>
<path d="M324.34 337.69V333.4H201.46V337.69H324.34Z" fill="#E0E0E0"/>
<path d="M199.32 287.18V375.76H326.49V287.18H199.32ZM322.2 371.47H203.61V333.74H322.2V371.47ZM322.2 329.47H203.61V291.71H322.2V329.47Z" fill="#F5F5F5"/>
<path d="M266.591 314.26C266.591 314.99 266.375 315.703 265.969 316.31C265.564 316.917 264.987 317.39 264.313 317.669C263.639 317.948 262.897 318.022 262.181 317.879C261.465 317.737 260.808 317.385 260.292 316.869C259.776 316.353 259.424 315.696 259.282 314.98C259.139 314.264 259.213 313.522 259.492 312.848C259.771 312.174 260.244 311.597 260.851 311.192C261.458 310.786 262.171 310.57 262.901 310.57C263.88 310.57 264.818 310.959 265.51 311.651C266.202 312.343 266.591 313.281 266.591 314.26Z" fill="#E0E0E0"/>
<path d="M266.591 313.22C266.591 313.95 266.375 314.663 265.969 315.27C265.564 315.877 264.987 316.35 264.313 316.629C263.639 316.908 262.897 316.982 262.181 316.839C261.465 316.697 260.808 316.345 260.292 315.829C259.776 315.313 259.424 314.656 259.282 313.94C259.139 313.224 259.213 312.482 259.492 311.808C259.771 311.134 260.244 310.557 260.851 310.152C261.458 309.746 262.171 309.53 262.901 309.53C263.88 309.53 264.818 309.919 265.51 310.611C266.202 311.303 266.591 312.241 266.591 313.22Z" fill="#FAFAFA"/>
<path d="M266.591 353.22C266.591 353.95 266.375 354.663 265.969 355.27C265.564 355.877 264.987 356.35 264.313 356.629C263.639 356.908 262.897 356.982 262.181 356.839C261.465 356.697 260.808 356.345 260.292 355.829C259.776 355.313 259.424 354.656 259.282 353.94C259.139 353.224 259.213 352.482 259.492 351.808C259.771 351.134 260.244 350.557 260.851 350.152C261.458 349.746 262.171 349.53 262.901 349.53C263.88 349.53 264.818 349.919 265.51 350.611C266.202 351.303 266.591 352.241 266.591 353.22Z" fill="#E0E0E0"/>
<path d="M266.591 352.18C266.591 352.91 266.375 353.623 265.969 354.23C265.564 354.837 264.987 355.31 264.313 355.589C263.639 355.868 262.897 355.941 262.181 355.799C261.465 355.657 260.808 355.305 260.292 354.789C259.776 354.273 259.424 353.616 259.282 352.9C259.139 352.184 259.213 351.442 259.492 350.768C259.771 350.094 260.244 349.517 260.851 349.112C261.458 348.706 262.171 348.49 262.901 348.49C263.88 348.49 264.818 348.879 265.51 349.571C266.202 350.263 266.591 351.201 266.591 352.18Z" fill="#FAFAFA"/>
<path d="M139.419 314.26C139.419 314.99 139.203 315.703 138.797 316.31C138.392 316.917 137.815 317.39 137.141 317.669C136.467 317.948 135.725 318.022 135.009 317.879C134.293 317.737 133.636 317.385 133.12 316.869C132.604 316.353 132.252 315.696 132.11 314.98C131.968 314.264 132.041 313.522 132.32 312.848C132.599 312.174 133.072 311.597 133.679 311.192C134.286 310.786 134.999 310.57 135.729 310.57C136.708 310.57 137.646 310.959 138.338 311.651C139.03 312.343 139.419 313.281 139.419 314.26Z" fill="#E0E0E0"/>
<path d="M139.419 313.22C139.419 313.95 139.203 314.663 138.797 315.27C138.392 315.877 137.815 316.35 137.141 316.629C136.467 316.908 135.725 316.982 135.009 316.839C134.293 316.697 133.636 316.345 133.12 315.829C132.604 315.313 132.252 314.656 132.11 313.94C131.968 313.224 132.041 312.482 132.32 311.808C132.599 311.134 133.072 310.557 133.679 310.152C134.286 309.746 134.999 309.53 135.729 309.53C136.708 309.53 137.646 309.919 138.338 310.611C139.03 311.303 139.419 312.241 139.419 313.22Z" fill="#FAFAFA"/>
<path d="M139.419 353.22C139.419 353.95 139.203 354.663 138.797 355.27C138.392 355.877 137.815 356.35 137.141 356.629C136.467 356.908 135.725 356.982 135.009 356.839C134.293 356.697 133.636 356.345 133.12 355.829C132.604 355.313 132.252 354.656 132.11 353.94C131.968 353.224 132.041 352.482 132.32 351.808C132.599 351.134 133.072 350.557 133.679 350.152C134.286 349.746 134.999 349.53 135.729 349.53C136.708 349.53 137.646 349.919 138.338 350.611C139.03 351.303 139.419 352.241 139.419 353.22Z" fill="#E0E0E0"/>
<path d="M139.419 352.18C139.419 352.91 139.203 353.623 138.797 354.23C138.392 354.837 137.815 355.31 137.141 355.589C136.467 355.868 135.725 355.941 135.009 355.799C134.293 355.657 133.636 355.305 133.12 354.789C132.604 354.273 132.252 353.616 132.11 352.9C131.968 352.184 132.041 351.442 132.32 350.768C132.599 350.094 133.072 349.517 133.679 349.112C134.286 348.706 134.999 348.49 135.729 348.49C136.708 348.49 137.646 348.879 138.338 349.571C139.03 350.263 139.419 351.201 139.419 352.18Z" fill="#FAFAFA"/>
<path d="M371.501 273.08C373.721 270.61 376.921 267.92 380.281 267.39C390.591 265.74 389.441 286.9 389.341 292.31C389.341 292.509 389.42 292.7 389.561 292.84C389.702 292.981 389.892 293.06 390.091 293.06C390.29 293.06 390.481 292.981 390.622 292.84C390.762 292.7 390.841 292.509 390.841 292.31C390.961 285.93 392.091 265.92 381.401 265.79C377.231 265.74 373.101 269.06 370.401 272.02C369.761 272.74 370.821 273.81 371.461 273.08H371.501Z" fill="#E0E0E0"/>
<path d="M403.58 260.08C401.45 260.41 399.78 262.89 398.79 264.55C394.05 272.55 393.74 283.33 393.43 292.31C393.43 293.31 394.9 293.31 394.93 292.31C395.22 283.7 395.49 273.59 399.8 265.82C400.62 264.34 402.05 261.82 403.98 261.53C404.93 261.38 404.52 259.93 403.58 260.08Z" fill="#E0E0E0"/>
<path d="M371 272.55C371 272.55 361.71 257.2 354.9 271.04C353.832 273.232 353.114 275.577 352.77 277.99C355.62 276.74 361.7 274.44 361.77 277.56C361.84 280.07 358.29 284.22 355.55 287.03C354.794 287.81 354.255 288.774 353.986 289.826C353.718 290.879 353.729 291.983 354.02 293.03C354.904 296.229 356.113 299.328 357.63 302.28C357.63 302.28 359.63 301.5 362.63 300.08C363.563 299.632 364.378 298.97 365.009 298.148C365.64 297.327 366.068 296.368 366.26 295.35C366.68 293.09 367.41 290.71 368.62 290C369.83 289.29 370.81 290.61 371.48 292.15C371.605 292.444 371.795 292.707 372.036 292.918C372.277 293.129 372.562 293.283 372.87 293.368C373.179 293.454 373.502 293.468 373.817 293.412C374.132 293.355 374.43 293.228 374.69 293.04C376.191 291.97 377.627 290.811 378.99 289.57C379.382 289.213 379.625 288.721 379.67 288.192C379.714 287.663 379.557 287.137 379.23 286.72C377.76 284.83 376.38 282.58 376.94 281.28C377.5 279.98 380.01 280.01 382.44 280.28C382.918 280.339 383.404 280.302 383.869 280.172C384.334 280.042 384.768 279.822 385.147 279.524C385.526 279.225 385.843 278.855 386.078 278.434C386.314 278.013 386.464 277.549 386.52 277.07C388.27 262.17 371 272.55 371 272.55Z" fill="#EBEBEB"/>
<path d="M407.109 256.78C407.109 256.78 416.389 241.43 423.209 255.27C424.281 257.477 425 259.839 425.339 262.27C422.489 261.02 416.409 258.72 416.339 261.84C416.269 264.35 419.819 268.49 422.559 271.3C423.314 272.081 423.851 273.045 424.12 274.097C424.388 275.149 424.378 276.253 424.089 277.3C423.205 280.499 421.996 283.598 420.479 286.55C420.479 286.55 418.479 285.77 415.479 284.34C414.545 283.895 413.729 283.236 413.098 282.416C412.467 281.595 412.039 280.637 411.849 279.62C411.429 277.36 410.699 274.97 409.489 274.27C408.279 273.57 407.299 274.88 406.629 276.41C406.507 276.707 406.318 276.971 406.078 277.184C405.838 277.398 405.552 277.553 405.243 277.64C404.934 277.727 404.609 277.742 404.293 277.685C403.977 277.628 403.679 277.499 403.419 277.31C401.923 276.234 400.487 275.075 399.119 273.84C398.727 273.483 398.484 272.991 398.439 272.462C398.395 271.933 398.552 271.407 398.879 270.99C400.349 269.1 401.729 266.85 401.159 265.55C400.589 264.25 398.099 264.28 395.669 264.55C395.191 264.609 394.705 264.572 394.24 264.442C393.775 264.312 393.341 264.092 392.962 263.793C392.583 263.495 392.266 263.125 392.031 262.704C391.795 262.283 391.645 261.819 391.589 261.34C389.809 246.4 407.109 256.78 407.109 256.78Z" fill="#E6E6E6"/>
<path d="M354.16 365C354.16 371.76 355.22 376.14 357.01 378.94C357.695 379.969 358.627 380.81 359.72 381.387C360.814 381.963 362.034 382.256 363.27 382.24H373.06C374.296 382.256 375.517 381.963 376.61 381.387C377.704 380.81 378.635 379.969 379.32 378.94C381.1 376.14 382.16 371.76 382.16 365C382.16 355.2 377.89 347.35 376.49 341.08C375.99 338.82 377.66 331.91 377.66 331.91H358.66C358.66 331.91 360.34 338.82 359.83 341.08C358.44 347.37 354.16 355.22 354.16 365Z" fill="#E6E6E6"/>
<path d="M368.16 325.34C368.16 316.83 381.51 320.34 384.87 307.15C386.15 302.15 375.29 290.82 375.29 290.82H409.14C409.14 290.82 398.28 302.15 399.56 307.15C402.92 320.36 416.27 316.83 416.27 325.34C416.27 334.72 397.44 354.24 396.53 376.22C396.45 378.22 400.08 382.22 400.08 382.22H384.36C384.36 382.22 387.98 378.15 387.9 376.22C387 354.24 368.16 334.72 368.16 325.34Z" fill="#F0F0F0"/>
<path d="M419.791 347.46C417.791 343.33 421.891 329.26 421.891 329.26H407.231C407.231 329.26 411.291 343.33 409.331 347.46C407.941 350.38 404.781 352.25 404.781 355.71V376.48C404.781 381.86 409.181 382.26 414.561 382.26C419.941 382.26 424.341 381.86 424.341 376.48V355.71C424.341 352.25 421.181 350.39 419.791 347.46Z" fill="#E6E6E6"/>
<path d="M399 286.67C399 286.67 408.64 279.4 410.36 289.55C410.63 291.135 410.63 292.755 410.36 294.34C408.68 292.89 405.01 290.03 404.28 291.94C403.7 293.47 405.28 296.87 406.52 299.25C406.876 299.881 407.043 300.602 407.001 301.325C406.958 302.049 406.708 302.745 406.28 303.33C404.982 305.104 403.493 306.731 401.84 308.18C401.84 308.18 400.61 307.18 398.84 305.63C398.308 305.165 397.895 304.579 397.638 303.921C397.38 303.263 397.285 302.553 397.36 301.85C397.55 300.36 397.56 298.72 396.88 297.99C396.2 297.26 395.25 297.85 394.47 298.64C394.303 298.792 394.107 298.908 393.893 298.98C393.68 299.052 393.453 299.079 393.229 299.059C393.004 299.04 392.786 298.973 392.588 298.865C392.39 298.757 392.217 298.609 392.08 298.43C391.287 297.423 390.552 296.371 389.88 295.28C389.783 295.133 389.718 294.968 389.687 294.795C389.657 294.622 389.663 294.445 389.704 294.274C389.745 294.104 389.821 293.943 389.927 293.803C390.033 293.663 390.167 293.546 390.32 293.46C391.73 292.64 393.15 291.58 393.05 290.64C392.95 289.7 391.22 289.14 389.49 288.75C388.824 288.628 388.232 288.252 387.839 287.701C387.445 287.151 387.281 286.469 387.38 285.8C389.41 276.17 399 286.67 399 286.67Z" fill="#E0E0E0"/>
<path d="M245.179 423.71C352.262 423.71 439.069 418.642 439.069 412.39C439.069 406.138 352.262 401.07 245.179 401.07C138.097 401.07 51.2891 406.138 51.2891 412.39C51.2891 418.642 138.097 423.71 245.179 423.71Z" fill="#F5F5F5"/>
<path d="M376.69 169.55H381.09V156.73H376.69V169.55Z" fill="#263238"/>
<path d="M364.517 149.45C364.704 147.713 365.534 146.108 366.844 144.951C368.154 143.795 369.849 143.17 371.597 143.2C372.037 143.2 375.007 143.2 375.547 143.2C376.015 143.187 376.483 143.214 376.947 143.28C378.387 143.48 379.607 143.61 380.757 143.68C381.907 143.75 383.167 143.48 384.667 143.28C385.197 143.21 389.437 143.2 389.807 143.2C393.477 143.2 395.987 145.5 395.577 149.45V149.65C395.127 154 391.237 158.65 386.857 159.26C384.212 159.677 381.531 159.818 378.857 159.68C376.203 159.824 373.541 159.684 370.917 159.26C366.687 158.68 363.917 154 364.557 149.65L364.517 149.45Z" fill="#263238"/>
<path d="M394.647 162.55C394.067 162.55 391.357 162.5 390.507 162.55C389.784 162.59 389.066 162.707 388.367 162.9C385.038 163.861 381.621 164.487 378.167 164.77C374.862 164.502 371.597 163.875 368.427 162.9C367.55 162.648 366.64 162.526 365.727 162.54C365.117 162.54 362.547 162.54 361.867 162.54C360.296 162.499 358.77 163.062 357.601 164.113C356.433 165.165 355.712 166.624 355.587 168.19L349.527 208.19H386.897C390.28 208.198 393.59 207.203 396.407 205.33C397.574 192.95 398.741 180.573 399.907 168.2C400.267 164.39 398.057 162.42 394.647 162.55Z" fill="#263238"/>
<path opacity="0.2" d="M370.846 159.26C374.82 159.911 378.873 159.911 382.846 159.26C387.226 158.68 391.116 154 391.566 149.65V149.45C392.016 145.1 388.926 142.71 384.656 143.28C380.775 143.91 376.818 143.91 372.936 143.28C371.974 143.098 370.984 143.115 370.029 143.331C369.073 143.547 368.173 143.957 367.382 144.535C366.592 145.114 365.929 145.849 365.434 146.694C364.939 147.539 364.623 148.478 364.506 149.45V149.65C363.866 154 366.616 158.68 370.846 159.26Z" fill="white"/>
<path opacity="0.2" d="M388.367 162.9C378.647 165.49 373.507 165.49 364.427 162.9C360.077 161.66 356.277 163.6 355.587 168.19L349.527 208.19H386.897C388.707 208.189 390.505 207.906 392.227 207.35C393.447 194.297 394.674 181.247 395.907 168.2C396.337 163.6 392.997 161.66 388.367 162.9Z" fill="white"/>
<path d="M328.387 188.41L321.497 189.07L310.947 186.59L307.117 192.9L309.577 194.16L313.017 193.1L317.767 194.04L322.047 193.37L330.177 193.57L328.387 188.41Z" fill="#FFC3BD"/>
<path d="M325.598 188.15L327.238 194.04C327.238 194.04 339.118 195.65 343.788 193.61C348.458 191.57 344.928 157.09 340.438 157.47C335.948 157.85 338.438 176.92 338.438 182.91C338.418 187.49 325.598 188.15 325.598 188.15Z" fill="#FF880D"/>
<path opacity="0.7" d="M325.598 188.15L327.238 194.04C327.238 194.04 339.118 195.65 343.788 193.61C348.458 191.57 344.928 157.09 340.438 157.47C335.948 157.85 338.438 176.92 338.438 182.91C338.418 187.49 325.598 188.15 325.598 188.15Z" fill="white"/>
<path d="M339.546 157.52C335.046 163.95 345.396 174.06 345.606 208.18H378.996C379.996 198.97 383.416 162.84 378.606 156.02C373.076 148.2 343.836 151.38 339.546 157.52Z" fill="#FF880D"/>
<path d="M350.347 151.42C350.347 151.42 342.347 154.42 349.587 161.5L353.447 159.92L358.997 161.5C358.997 161.5 373.067 146 350.347 151.42Z" fill="#FF880D"/>
<path opacity="0.7" d="M350.347 151.42C350.347 151.42 342.347 154.42 349.587 161.5L353.447 159.92L358.997 161.5C358.997 161.5 373.067 146 350.347 151.42Z" fill="white"/>
<path d="M351.458 158.65C349.458 157.04 347.218 154.58 349.148 152.97C353.12 152.031 357.179 151.512 361.258 151.42C362.388 152.16 361.758 154.1 355.728 158.71C355.114 159.183 354.358 159.434 353.583 159.423C352.808 159.412 352.059 159.14 351.458 158.65Z" fill="#FFC3BD"/>
<path d="M349.406 148.46L356.106 141.19C356.746 146.77 359.716 151.34 360.316 151.53L359.586 154.08C351.466 163.21 349.586 154.45 349.586 154.45C351.566 152.79 349.406 148.46 349.406 148.46Z" fill="#FFC3BD"/>
<path opacity="0.2" d="M353.426 144.1L356.546 143.79C356.546 143.79 356.416 153.15 350.006 153.95C351.196 152.06 349.406 148.46 349.406 148.46L353.426 144.1Z" fill="#263238"/>
<path d="M355.198 133.18C356.648 139.8 357.838 143.58 355.548 147.96C354.817 149.389 353.71 150.59 352.346 151.435C350.981 152.281 349.412 152.737 347.808 152.756C346.203 152.774 344.624 152.354 343.24 151.541C341.857 150.727 340.722 149.551 339.958 148.14C336.958 142.76 335.048 132.85 340.598 128.24C341.773 127.213 343.197 126.511 344.728 126.207C346.259 125.903 347.842 126.006 349.321 126.506C350.799 127.006 352.12 127.886 353.152 129.057C354.183 130.229 354.889 131.65 355.198 133.18Z" fill="#FFC3BD"/>
<path d="M345.999 138.14C346.149 138.67 345.999 139.14 345.639 139.27C345.279 139.4 344.899 139.04 344.749 138.51C344.599 137.98 344.749 137.51 345.109 137.39C345.469 137.27 345.839 137.62 345.999 138.14Z" fill="#263238"/>
<path d="M340.077 140.05C340.237 140.58 340.077 141.05 339.727 141.17C339.377 141.29 338.987 140.94 338.827 140.41C338.667 139.88 338.827 139.41 339.197 139.29C339.567 139.17 339.927 139.52 340.077 140.05Z" fill="#263238"/>
<path d="M347.256 135.63C347.306 135.613 347.353 135.589 347.396 135.56C347.455 135.5 347.489 135.419 347.489 135.335C347.489 135.251 347.455 135.17 347.396 135.11C346.993 134.796 346.519 134.585 346.015 134.494C345.512 134.403 344.994 134.436 344.506 134.59C344.427 134.619 344.362 134.679 344.327 134.756C344.291 134.833 344.287 134.921 344.316 135C344.33 135.04 344.351 135.077 344.379 135.109C344.407 135.141 344.442 135.166 344.48 135.184C344.519 135.202 344.56 135.211 344.603 135.212C344.645 135.214 344.687 135.206 344.726 135.19C345.106 135.072 345.508 135.047 345.9 135.117C346.291 135.186 346.66 135.349 346.976 135.59C347.016 135.62 347.062 135.64 347.111 135.647C347.16 135.654 347.21 135.648 347.256 135.63Z" fill="#263238"/>
<path d="M336.999 138.81C337.048 138.792 337.09 138.761 337.122 138.72C337.154 138.68 337.173 138.631 337.179 138.58C337.234 138.166 337.384 137.771 337.616 137.424C337.848 137.077 338.158 136.788 338.519 136.58C338.591 136.53 338.64 136.454 338.656 136.368C338.673 136.282 338.656 136.194 338.609 136.12C338.568 136.067 338.512 136.026 338.448 136.003C338.384 135.98 338.316 135.976 338.249 135.99C337.798 136.238 337.411 136.588 337.118 137.011C336.824 137.435 336.633 137.92 336.559 138.43C336.545 138.514 336.564 138.6 336.613 138.669C336.662 138.738 336.736 138.785 336.819 138.8C336.847 138.814 336.877 138.823 336.908 138.824C336.939 138.826 336.97 138.821 336.999 138.81Z" fill="#263238"/>
<path d="M346.449 146.48C346.154 146.561 345.853 146.621 345.549 146.66C345.526 146.664 345.502 146.664 345.479 146.658C345.456 146.653 345.435 146.643 345.416 146.629C345.397 146.615 345.382 146.597 345.37 146.577C345.359 146.556 345.351 146.533 345.349 146.51C345.343 146.461 345.357 146.412 345.387 146.373C345.416 146.334 345.46 146.308 345.509 146.3C346.278 146.22 347.017 145.961 347.667 145.542C348.317 145.123 348.859 144.557 349.249 143.89C349.258 143.868 349.272 143.849 349.29 143.832C349.308 143.816 349.328 143.804 349.351 143.797C349.374 143.789 349.398 143.786 349.421 143.789C349.445 143.791 349.468 143.798 349.489 143.81C349.511 143.82 349.53 143.834 349.547 143.851C349.563 143.868 349.576 143.889 349.584 143.911C349.593 143.934 349.596 143.957 349.595 143.981C349.595 144.005 349.589 144.028 349.579 144.05C349.244 144.642 348.795 145.162 348.258 145.58C347.721 145.997 347.106 146.303 346.449 146.48Z" fill="#263238"/>
<path d="M342.138 139.71C341.97 141.528 341.566 143.316 340.938 145.03C341.372 145.174 341.833 145.221 342.287 145.167C342.741 145.113 343.178 144.961 343.568 144.72L342.138 139.71Z" fill="#ED893E"/>
<path d="M351.599 123.28C330.279 119.18 336.519 136.55 336.519 136.55C336.519 136.55 336.679 133.55 339.459 133.55C341.386 133.397 343.214 132.633 344.679 131.37C343.694 132.557 342.399 133.447 340.939 133.94C342.821 133.956 344.678 133.497 346.335 132.603C347.993 131.71 349.397 130.412 350.419 128.83C350.518 129.318 350.581 129.813 350.609 130.31C350.609 132.75 352.609 134.07 353.609 137.4C354.609 140.73 358.559 137.4 358.559 137.4C364.079 123.19 351.599 123.28 351.599 123.28Z" fill="#263238"/>
<path d="M359.198 137.88C359.169 139.394 358.569 140.84 357.518 141.93C356.138 143.34 354.518 142.28 354.188 140.41C353.858 138.72 354.188 135.97 355.958 135.27C357.728 134.57 359.218 136 359.198 137.88Z" fill="#FFC3BD"/>
<path d="M351.999 124.24C351.999 124.24 347.489 118.74 344.369 120.24C341.249 121.74 349.999 122 351.999 124.24Z" fill="#263238"/>
<path d="M351.609 189.56L344.719 190.22L334.169 186.68L329.289 191.94L331.739 193.19H336.239L340.999 195.18L345.269 194.52L353.399 194.72L351.609 189.56Z" fill="#FFC3BD"/>
<path d="M376.917 155.46C374.707 153.95 372.337 155.46 369.917 169.22C367.067 185.61 365.177 186.35 348.797 189.29L350.577 195.18C350.577 195.18 364.577 196.91 371.327 192.51C378.077 188.11 382.897 159.54 376.917 155.46Z" fill="#FF880D"/>
<path opacity="0.7" d="M376.917 155.46C374.707 153.95 372.337 155.46 369.917 169.22C367.067 185.61 365.177 186.35 348.797 189.29L350.577 195.18C350.577 195.18 364.577 196.91 371.327 192.51C378.077 188.11 382.897 159.54 376.917 155.46Z" fill="white"/>
<path d="M356.999 196.83H265.609C266.199 198.437 267.025 199.947 268.059 201.31H356.999C357.593 201.31 358.163 201.074 358.583 200.654C359.003 200.234 359.239 199.664 359.239 199.07C359.239 198.476 359.003 197.906 358.583 197.486C358.163 197.066 357.593 196.83 356.999 196.83Z" fill="#263238"/>
<path opacity="0.6" d="M356.999 196.83H265.609C266.199 198.437 267.025 199.947 268.059 201.31H356.999C357.593 201.31 358.163 201.074 358.583 200.654C359.003 200.234 359.239 199.664 359.239 199.07C359.239 198.476 359.003 197.906 358.583 197.486C358.163 197.066 357.593 196.83 356.999 196.83Z" fill="white"/>
<path d="M281.809 208.18H354.899V201.31H268.059C269.66 203.444 271.736 205.176 274.122 206.369C276.509 207.561 279.141 208.181 281.809 208.18Z" fill="#263238"/>
<path opacity="0.4" d="M281.809 208.18H354.899V201.31H268.059C269.66 203.444 271.736 205.176 274.122 206.369C276.509 207.561 279.141 208.181 281.809 208.18Z" fill="white"/>
<path d="M342.91 193.92H289.66C289.295 193.95 288.954 194.117 288.706 194.386C288.458 194.656 288.32 195.009 288.32 195.375C288.32 195.741 288.458 196.094 288.706 196.364C288.954 196.633 289.295 196.8 289.66 196.83H342.91C343.111 196.847 343.313 196.822 343.504 196.756C343.695 196.69 343.871 196.586 344.019 196.449C344.168 196.313 344.286 196.146 344.367 195.962C344.448 195.777 344.49 195.577 344.49 195.375C344.49 195.173 344.448 194.973 344.367 194.789C344.286 194.604 344.168 194.438 344.019 194.301C343.871 194.164 343.695 194.06 343.504 193.994C343.313 193.929 343.111 193.903 342.91 193.92Z" fill="#263238"/>
<path opacity="0.3" d="M342.91 193.92H289.66C289.295 193.95 288.954 194.117 288.706 194.386C288.458 194.656 288.32 195.009 288.32 195.375C288.32 195.741 288.458 196.094 288.706 196.364C288.954 196.633 289.295 196.8 289.66 196.83H342.91C343.111 196.847 343.313 196.822 343.504 196.756C343.695 196.69 343.871 196.586 344.019 196.449C344.168 196.313 344.286 196.146 344.367 195.962C344.448 195.777 344.49 195.577 344.49 195.375C344.49 195.173 344.448 194.973 344.367 194.789C344.286 194.604 344.168 194.438 344.019 194.301C343.871 194.164 343.695 194.06 343.504 193.994C343.313 193.929 343.111 193.903 342.91 193.92Z" fill="white"/>
<path d="M290.449 195.94H308.649C308.759 195.94 308.868 195.913 308.966 195.863C309.064 195.812 309.148 195.738 309.212 195.648C309.275 195.558 309.317 195.454 309.332 195.345C309.347 195.235 309.335 195.124 309.299 195.02L299.299 166.51C299.167 166.125 298.917 165.792 298.585 165.557C298.253 165.322 297.855 165.197 297.449 165.2H279.249C279.139 165.198 279.03 165.223 278.932 165.273C278.834 165.323 278.749 165.395 278.685 165.485C278.621 165.574 278.58 165.678 278.565 165.787C278.55 165.896 278.562 166.007 278.599 166.11L288.599 194.63C288.738 195.01 288.99 195.339 289.32 195.572C289.65 195.806 290.044 195.935 290.449 195.94Z" fill="#263238"/>
<path opacity="0.5" d="M290.449 195.94H308.649C308.759 195.94 308.868 195.913 308.966 195.863C309.064 195.812 309.148 195.738 309.212 195.648C309.275 195.558 309.317 195.454 309.332 195.345C309.347 195.235 309.335 195.124 309.299 195.02L299.299 166.51C299.167 166.125 298.917 165.792 298.585 165.557C298.253 165.322 297.855 165.197 297.449 165.2H279.249C279.139 165.198 279.03 165.223 278.932 165.273C278.834 165.323 278.749 165.395 278.685 165.485C278.621 165.574 278.58 165.678 278.565 165.787C278.55 165.896 278.562 166.007 278.599 166.11L288.599 194.63C288.738 195.01 288.99 195.339 289.32 195.572C289.65 195.806 290.044 195.935 290.449 195.94Z" fill="white"/>
<path d="M289.567 195.94H307.777C307.887 195.938 307.994 195.91 308.091 195.858C308.188 195.807 308.271 195.734 308.335 195.644C308.398 195.555 308.439 195.451 308.455 195.343C308.471 195.235 308.462 195.124 308.427 195.02L298.427 166.51C298.295 166.125 298.046 165.792 297.714 165.557C297.382 165.322 296.984 165.197 296.577 165.2H278.377C278.268 165.201 278.161 165.227 278.064 165.277C277.967 165.328 277.883 165.4 277.82 165.489C277.756 165.578 277.715 165.68 277.699 165.788C277.683 165.896 277.693 166.007 277.727 166.11L287.727 194.63C287.866 195.008 288.116 195.336 288.445 195.57C288.773 195.803 289.164 195.932 289.567 195.94Z" fill="#263238"/>
<path opacity="0.7" d="M289.567 195.94H307.777C307.887 195.938 307.994 195.91 308.091 195.858C308.188 195.807 308.271 195.734 308.335 195.644C308.398 195.555 308.439 195.451 308.455 195.343C308.471 195.235 308.462 195.124 308.427 195.02L298.427 166.51C298.295 166.125 298.046 165.792 297.714 165.557C297.382 165.322 296.984 165.197 296.577 165.2H278.377C278.268 165.201 278.161 165.227 278.064 165.277C277.967 165.328 277.883 165.4 277.82 165.489C277.756 165.578 277.715 165.68 277.699 165.788C277.683 165.896 277.693 166.007 277.727 166.11L287.727 194.63C287.866 195.008 288.116 195.336 288.445 195.57C288.773 195.803 289.164 195.932 289.567 195.94Z" fill="white"/>
<path d="M291.606 180.57C291.836 181.66 292.606 182.57 293.296 182.57C293.986 182.57 294.366 181.68 294.136 180.57C293.906 179.46 293.136 178.57 292.446 178.57C291.756 178.57 291.376 179.47 291.606 180.57Z" fill="white"/>
<path opacity="0.2" d="M310.999 196.83C310.634 196.8 310.294 196.633 310.046 196.364C309.798 196.094 309.66 195.741 309.66 195.375C309.66 195.009 309.798 194.656 310.046 194.386C310.294 194.117 310.634 193.95 310.999 193.92H342.919C343.121 193.903 343.323 193.929 343.514 193.994C343.705 194.06 343.88 194.164 344.029 194.301C344.177 194.438 344.296 194.604 344.377 194.789C344.458 194.973 344.5 195.173 344.5 195.375C344.5 195.577 344.458 195.777 344.377 195.962C344.296 196.146 344.177 196.313 344.029 196.449C343.88 196.586 343.705 196.69 343.514 196.756C343.323 196.822 343.121 196.847 342.919 196.83H310.999Z" fill="white"/>
<path d="M278.65 148.87H275V156.82H278.65V148.87Z" fill="#FF880D"/>
<path d="M322.369 148.87H318.719V156.82H322.369V148.87Z" fill="#FF880D"/>
<path d="M300.449 133.5H300.019C300.879 120.73 299.019 116.58 297.239 115.35C296.967 115.141 296.649 115 296.311 114.941C295.973 114.882 295.626 114.905 295.299 115.01L295.129 114.62C295.521 114.481 295.942 114.443 296.352 114.51C296.763 114.576 297.151 114.745 297.479 115C299.319 116.27 301.319 120.53 300.449 133.5Z" fill="#FF880D"/>
<path d="M297.997 132.21C297.577 121.35 299.457 117.29 301.117 115.81C301.374 115.541 301.685 115.329 302.03 115.19C302.375 115.05 302.745 114.985 303.117 115L303.057 115.43C302.748 115.426 302.442 115.489 302.159 115.613C301.877 115.737 301.623 115.92 301.417 116.15C299.847 117.59 298.057 121.54 298.467 132.15L297.997 132.21Z" fill="#FF880D"/>
<path d="M299.85 132.21H299.43C299.87 125.69 299.06 121.81 297.1 120.99C294.53 119.91 290.7 124.2 290.66 124.25L290.34 123.96C290.5 123.78 294.41 119.4 297.26 120.59C299.44 121.47 300.32 125.39 299.85 132.21Z" fill="#FF880D"/>
<path d="M298.77 132.63C298.77 128.63 299.6 126.14 301.25 125.28C303.1 124.28 305.25 125.74 305.34 125.81L305.09 126.16C305.09 126.16 303.09 124.8 301.45 125.66C299.81 126.52 299.2 128.79 299.2 132.66L298.77 132.63Z" fill="#FF880D"/>
<g opacity="0.2">
<path d="M300.449 133.5H300.019C300.879 120.73 299.019 116.58 297.239 115.35C296.967 115.141 296.649 115 296.311 114.941C295.973 114.882 295.626 114.905 295.299 115.01L295.129 114.62C295.521 114.481 295.942 114.443 296.352 114.51C296.763 114.576 297.151 114.745 297.479 115C299.319 116.27 301.319 120.53 300.449 133.5Z" fill="black"/>
<path d="M298.001 132.21C297.581 121.35 299.461 117.29 301.121 115.81C301.378 115.541 301.689 115.329 302.034 115.19C302.379 115.05 302.749 114.985 303.121 115L303.061 115.43C302.752 115.426 302.446 115.489 302.163 115.613C301.88 115.737 301.627 115.92 301.421 116.15C299.851 117.59 298.061 121.54 298.471 132.15L298.001 132.21Z" fill="black"/>
<path d="M299.85 132.21H299.43C299.87 125.69 299.06 121.81 297.1 120.99C294.53 119.91 290.7 124.2 290.66 124.25L290.34 123.96C290.5 123.78 294.41 119.4 297.26 120.59C299.44 121.47 300.32 125.39 299.85 132.21Z" fill="black"/>
<path d="M298.77 132.63C298.77 128.63 299.6 126.14 301.25 125.28C303.1 124.28 305.25 125.74 305.34 125.81L305.09 126.16C305.09 126.16 303.09 124.8 301.45 125.66C299.81 126.52 299.2 128.79 299.2 132.66L298.77 132.63Z" fill="black"/>
</g>
<path d="M289.078 131.48L290.918 142C291.121 143.162 291.728 144.215 292.632 144.972C293.536 145.73 294.679 146.143 295.858 146.14H303.178C304.358 146.143 305.5 145.73 306.404 144.972C307.308 144.215 307.915 143.162 308.118 142L309.998 131.48H289.078Z" fill="#263238"/>
<path opacity="0.3" d="M289.078 131.48L290.918 142C291.121 143.162 291.728 144.215 292.632 144.972C293.536 145.73 294.679 146.143 295.858 146.14H303.178C304.358 146.143 305.5 145.73 306.404 144.972C307.308 144.215 307.915 143.162 308.118 142L309.998 131.48H289.078Z" fill="white"/>
<path d="M296.058 114.7C296.058 114.7 300.408 107.4 292.758 107.3C291.659 107.292 290.565 107.44 289.508 107.74C290.508 108.42 292.108 109.66 291.278 109.97C290.448 110.28 287.278 109.67 285.818 109.34C283.328 110.878 281.136 112.853 279.348 115.17C280.893 116.624 282.544 117.961 284.288 119.17C285.048 118.41 286.198 117.46 286.858 117.83C287.518 118.2 288.228 120.25 288.658 121.7C290.091 122.394 291.622 122.866 293.198 123.1C293.198 121.94 293.198 120.1 293.738 119.75C294.278 119.4 296.328 121.38 297.468 122.55C303.308 120 296.058 114.7 296.058 114.7Z" fill="#FF880D"/>
<path opacity="0.1" d="M296.058 114.7C296.058 114.7 300.408 107.4 292.758 107.3C291.659 107.292 290.565 107.44 289.508 107.74C290.508 108.42 292.108 109.66 291.278 109.97C290.448 110.28 287.278 109.67 285.818 109.34C283.328 110.878 281.136 112.853 279.348 115.17C280.893 116.624 282.544 117.961 284.288 119.17C285.048 118.41 286.198 117.46 286.858 117.83C287.518 118.2 288.228 120.25 288.658 121.7C290.091 122.394 291.622 122.866 293.198 123.1C293.198 121.94 293.198 120.1 293.738 119.75C294.278 119.4 296.328 121.38 297.468 122.55C303.308 120 296.058 114.7 296.058 114.7Z" fill="white"/>
<path opacity="0.3" d="M296.058 114.7C296.058 114.7 300.408 107.4 292.758 107.3C291.659 107.292 290.565 107.44 289.508 107.74C290.508 108.42 292.108 109.66 291.278 109.97C290.448 110.28 287.278 109.67 285.818 109.34C283.328 110.878 281.136 112.853 279.348 115.17C287.678 111.63 296.058 114.7 296.058 114.7Z" fill="white"/>
<path d="M305.109 119.64C305.909 119.41 306.909 121.02 307.429 121.98C309.109 121.231 310.658 120.218 312.019 118.98C311.649 118.16 311.229 117.04 311.499 116.61C311.769 116.18 313.219 116.52 314.259 116.84C315.203 115.851 316.081 114.802 316.889 113.7C316.096 113.06 315.257 112.479 314.379 111.96C312.879 112.13 310.759 112.26 310.239 111.74C309.719 111.22 310.869 110.74 311.699 110.59C310.305 109.974 308.83 109.559 307.319 109.36C307.119 110.04 306.679 111.09 305.869 111.09C305.059 111.09 304.209 110.18 303.649 109.51C297.389 110.86 302.359 115.34 302.359 115.34C302.359 115.34 296.969 121.74 303.359 122.59C303.709 121.52 304.349 119.86 305.109 119.64Z" fill="#FF880D"/>
<path opacity="0.2" d="M305.109 119.64C305.909 119.41 306.909 121.02 307.429 121.98C309.109 121.231 310.658 120.218 312.019 118.98C311.649 118.16 311.229 117.04 311.499 116.61C311.769 116.18 313.219 116.52 314.259 116.84C315.203 115.851 316.081 114.802 316.889 113.7C316.096 113.06 315.257 112.479 314.379 111.96C312.879 112.13 310.759 112.26 310.239 111.74C309.719 111.22 310.869 110.74 311.699 110.59C310.305 109.974 308.83 109.559 307.319 109.36C307.119 110.04 306.679 111.09 305.869 111.09C305.059 111.09 304.209 110.18 303.649 109.51C297.389 110.86 302.359 115.34 302.359 115.34C302.359 115.34 296.969 121.74 303.359 122.59C303.709 121.52 304.349 119.86 305.109 119.64Z" fill="white"/>
<path opacity="0.3" d="M310.239 111.77C309.689 111.22 310.869 110.77 311.699 110.62C310.305 110.004 308.831 109.589 307.319 109.39C307.119 110.07 306.679 111.12 305.869 111.12C305.059 111.12 304.209 110.21 303.649 109.54C297.389 110.89 302.359 115.37 302.359 115.37C302.359 115.37 310.489 112.37 316.889 113.73C316.096 113.09 315.257 112.509 314.379 111.99C312.879 112.16 310.759 112.29 310.239 111.77Z" fill="white"/>
<path d="M314.267 125.26C313.397 125.73 311.727 126.49 311.057 125.82C310.387 125.15 311.407 122.32 311.917 121.15C311.142 120.182 310.157 119.402 309.037 118.87C302.237 115.87 304.547 125.63 304.547 125.63C304.547 125.63 295.997 127.7 301.497 133C301.902 133.361 302.329 133.695 302.777 134C303.207 133 304.047 131.31 304.887 131.54C305.727 131.77 305.407 133.94 305.127 135.29C306.573 135.884 308.094 136.274 309.647 136.45C309.847 135.45 310.227 134.24 310.837 134.27C311.447 134.3 312.337 135.68 312.837 136.63C314.125 136.621 315.409 136.504 316.677 136.28C316.398 132.511 315.587 128.801 314.267 125.26Z" fill="#FF880D"/>
<path opacity="0.2" d="M304.547 125.63C304.547 125.63 295.997 127.7 301.497 133C301.902 133.361 302.329 133.695 302.777 134C303.207 133 304.047 131.31 304.887 131.54C305.727 131.77 305.407 133.94 305.127 135.29C306.573 135.884 308.094 136.274 309.647 136.45C309.847 135.45 310.227 134.24 310.837 134.27C311.447 134.3 312.337 135.68 312.837 136.63C314.125 136.621 315.409 136.504 316.677 136.28C315.485 133.774 313.795 131.537 311.709 129.706C309.624 127.875 307.187 126.488 304.547 125.63Z" fill="white"/>
<path d="M291.208 123.55C291.208 123.55 286.608 115.94 283.208 122.8C282.681 123.889 282.324 125.053 282.148 126.25C283.558 125.63 286.578 124.49 286.618 126.03C286.658 127.57 283.428 130.88 282.338 131.89C282.781 134.118 283.528 136.275 284.558 138.3C285.953 137.75 287.315 137.122 288.638 136.42C288.768 135.19 289.118 132.75 290.028 132.21C290.938 131.67 291.638 133.63 291.868 134.53C293.311 133.6 294.652 132.521 295.868 131.31C294.988 130.31 293.778 128.71 294.138 127.89C294.498 127.07 297.008 127.38 298.388 127.67C298.64 127.072 298.808 126.443 298.888 125.8C299.778 118.41 291.208 123.55 291.208 123.55Z" fill="#FF880D"/>
<path opacity="0.2" d="M284.578 138.3C285.972 137.75 287.334 137.122 288.658 136.42C288.788 135.19 289.138 132.75 290.048 132.21C290.958 131.67 291.658 133.63 291.888 134.53C293.331 133.6 294.671 132.521 295.888 131.31C295.008 130.31 293.798 128.71 294.158 127.89C294.518 127.07 297.028 127.38 298.408 127.67C298.66 127.073 298.828 126.443 298.908 125.8C299.758 118.41 291.188 123.55 291.188 123.55C291.188 123.55 286.138 128.28 284.578 138.3Z" fill="white"/>
<path d="M326.88 145.23H270.5V149.72H326.88V145.23Z" fill="#FF880D"/>
<path opacity="0.3" d="M326.88 145.23H270.5V149.72H326.88V145.23Z" fill="white"/>
<path d="M386.898 75.8401H281.808C276.114 75.848 270.655 78.1136 266.628 82.1402C262.602 86.1668 260.336 91.6257 260.328 97.3201V190.93C260.333 196.625 262.598 202.086 266.625 206.113C270.652 210.14 276.113 212.405 281.808 212.41H386.898C392.593 212.405 398.054 210.14 402.081 206.113C406.108 202.086 408.373 196.625 408.378 190.93V97.3201C408.37 91.6257 406.105 86.1668 402.078 82.1402C398.051 78.1136 392.593 75.848 386.898 75.8401ZM404.148 190.93C404.148 195.505 402.331 199.893 399.096 203.128C395.861 206.363 391.473 208.18 386.898 208.18H281.808C277.233 208.18 272.846 206.363 269.611 203.128C266.376 199.893 264.558 195.505 264.558 190.93V97.3201C264.558 92.7451 266.376 88.3575 269.611 85.1225C272.846 81.8875 277.233 80.0701 281.808 80.0701H386.898C391.473 80.0701 395.861 81.8875 399.096 85.1225C402.331 88.3575 404.148 92.7451 404.148 97.3201V190.93Z" fill="#FF880D"/>
<path opacity="0.4" d="M386.898 75.8401H281.808C276.114 75.848 270.655 78.1136 266.628 82.1402C262.602 86.1668 260.336 91.6257 260.328 97.3201V190.93C260.333 196.625 262.598 202.086 266.625 206.113C270.652 210.14 276.113 212.405 281.808 212.41H386.898C392.593 212.405 398.054 210.14 402.081 206.113C406.108 202.086 408.373 196.625 408.378 190.93V97.3201C408.37 91.6257 406.105 86.1668 402.078 82.1402C398.051 78.1136 392.593 75.848 386.898 75.8401ZM404.148 190.93C404.148 195.505 402.331 199.893 399.096 203.128C395.861 206.363 391.473 208.18 386.898 208.18H281.808C277.233 208.18 272.846 206.363 269.611 203.128C266.376 199.893 264.558 195.505 264.558 190.93V97.3201C264.558 92.7451 266.376 88.3575 269.611 85.1225C272.846 81.8875 277.233 80.0701 281.808 80.0701H386.898C391.473 80.0701 395.861 81.8875 399.096 85.1225C402.331 88.3575 404.148 92.7451 404.148 97.3201V190.93Z" fill="white"/>
<path d="M373.997 109.88H360.827C359.419 109.88 358.277 111.022 358.277 112.43V114.75C358.277 116.158 359.419 117.3 360.827 117.3H373.997C375.406 117.3 376.547 116.158 376.547 114.75V112.43C376.547 111.022 375.406 109.88 373.997 109.88Z" fill="#FF880D"/>
<path d="M385.478 100.7H372.308C370.899 100.7 369.758 101.842 369.758 103.25V105.57C369.758 106.979 370.899 108.12 372.308 108.12H385.478C386.886 108.12 388.028 106.979 388.028 105.57V103.25C388.028 101.842 386.886 100.7 385.478 100.7Z" fill="#FF880D"/>
<path d="M381.349 119.06H368.179C366.771 119.06 365.629 120.202 365.629 121.61V123.93C365.629 125.338 366.771 126.48 368.179 126.48H381.349C382.757 126.48 383.899 125.338 383.899 123.93V121.61C383.899 120.202 382.757 119.06 381.349 119.06Z" fill="#FF880D"/>
<path d="M394.607 109.88H381.437C380.028 109.88 378.887 111.022 378.887 112.43V114.75C378.887 116.158 380.028 117.3 381.437 117.3H394.607C396.015 117.3 397.157 116.158 397.157 114.75V112.43C397.157 111.022 396.015 109.88 394.607 109.88Z" fill="#FF880D"/>
<path opacity="0.7" d="M373.997 109.88H360.827C359.419 109.88 358.277 111.022 358.277 112.43V114.75C358.277 116.158 359.419 117.3 360.827 117.3H373.997C375.406 117.3 376.547 116.158 376.547 114.75V112.43C376.547 111.022 375.406 109.88 373.997 109.88Z" fill="white"/>
<path opacity="0.8" d="M385.478 100.7H372.308C370.899 100.7 369.758 101.842 369.758 103.25V105.57C369.758 106.979 370.899 108.12 372.308 108.12H385.478C386.886 108.12 388.028 106.979 388.028 105.57V103.25C388.028 101.842 386.886 100.7 385.478 100.7Z" fill="white"/>
<path opacity="0.8" d="M381.349 119.06H368.179C366.771 119.06 365.629 120.202 365.629 121.61V123.93C365.629 125.338 366.771 126.48 368.179 126.48H381.349C382.757 126.48 383.899 125.338 383.899 123.93V121.61C383.899 120.202 382.757 119.06 381.349 119.06Z" fill="white"/>
<path opacity="0.7" d="M394.607 109.88H381.437C380.028 109.88 378.887 111.022 378.887 112.43V114.75C378.887 116.158 380.028 117.3 381.437 117.3H394.607C396.015 117.3 397.157 116.158 397.157 114.75V112.43C397.157 111.022 396.015 109.88 394.607 109.88Z" fill="white"/>
<path d="M341.3 99.8201H354.47C355.878 99.8201 357.02 98.6784 357.02 97.2701V94.9501C357.02 93.5417 355.878 92.4001 354.47 92.4001H341.3C339.891 92.4001 338.75 93.5417 338.75 94.9501V97.2701C338.75 98.6784 339.891 99.8201 341.3 99.8201Z" fill="#FF880D"/>
<path d="M333.928 109H347.098C348.507 109 349.648 107.858 349.648 106.45V104.13C349.648 102.722 348.507 101.58 347.098 101.58H333.928C332.52 101.58 331.378 102.722 331.378 104.13V106.45C331.378 107.858 332.52 109 333.928 109Z" fill="#FF880D"/>
<path d="M320.667 99.8201H333.837C335.245 99.8201 336.387 98.6784 336.387 97.2701V94.9501C336.387 93.5417 335.245 92.4001 333.837 92.4001H320.667C319.258 92.4001 318.117 93.5417 318.117 94.9501V97.2701C318.117 98.6784 319.258 99.8201 320.667 99.8201Z" fill="#FF880D"/>
<path opacity="0.8" d="M341.3 99.8201H354.47C355.878 99.8201 357.02 98.6784 357.02 97.2701V94.9501C357.02 93.5417 355.878 92.4001 354.47 92.4001H341.3C339.891 92.4001 338.75 93.5417 338.75 94.9501V97.2701C338.75 98.6784 339.891 99.8201 341.3 99.8201Z" fill="white"/>
<path opacity="0.8" d="M333.928 109H347.098C348.507 109 349.648 107.858 349.648 106.45V104.13C349.648 102.722 348.507 101.58 347.098 101.58H333.928C332.52 101.58 331.378 102.722 331.378 104.13V106.45C331.378 107.858 332.52 109 333.928 109Z" fill="white"/>
<path opacity="0.7" d="M320.667 99.8201H333.837C335.245 99.8201 336.387 98.6784 336.387 97.2701V94.9501C336.387 93.5417 335.245 92.4001 333.837 92.4001H320.667C319.258 92.4001 318.117 93.5417 318.117 94.9501V97.2701C318.117 98.6784 319.258 99.8201 320.667 99.8201Z" fill="white"/>
<path d="M225.063 118.15H165.203V185.76H225.063V118.15Z" fill="#263238"/>
<path d="M229.852 185.76H160.402V191.21H229.852V185.76Z" fill="#263238"/>
<g opacity="0.4">
<path d="M229.852 185.76H160.402V191.21H229.852V185.76Z" fill="white"/>
</g>
<path opacity="0.6" d="M225.063 118.15H165.203V185.76H225.063V118.15Z" fill="white"/>
<path opacity="0.5" d="M220.84 122.38H169.43V181.54H220.84V122.38Z" fill="white"/>
<g opacity="0.2">
<path d="M169.43 122.38V181.53H169.79L183.93 122.38H169.43Z" fill="white"/>
<path d="M213.518 122.38H210.868L196.738 181.53H199.388L213.518 122.38Z" fill="white"/>
<path d="M207.31 122.38H196.22L182.09 181.53H193.18L207.31 122.38Z" fill="white"/>
</g>
<path d="M130.613 172.67C128.613 172.81 126.023 171.18 124.773 169.06L123.773 167.41C120.883 162.69 114.543 159.31 110.173 159.63L109.083 159.71L106.003 159.93L104.913 160.01C100.543 160.33 99.5528 164.24 102.143 169.01C102.513 169.67 102.693 170.01 103.043 170.67C104.153 172.8 103.323 174.67 101.293 174.82C97.7928 175.07 96.2928 178.31 97.6728 182.13C102.113 197.88 103.333 211.13 101.673 225.55C104.85 228.502 109.026 230.142 113.363 230.14H148.863C150.233 212.14 147.643 197.14 140.483 179.03C138.673 175.21 134.123 172.41 130.613 172.67Z" fill="#FF880D"/>
<path opacity="0.1" d="M130.613 172.67C128.613 172.81 126.023 171.18 124.773 169.06L123.773 167.41C120.883 162.69 114.543 159.31 110.173 159.63L109.083 159.71L106.003 159.93L104.913 160.01C100.543 160.33 99.5528 164.24 102.143 169.01C102.513 169.67 102.693 170.01 103.043 170.67C104.153 172.8 103.323 174.67 101.293 174.82C97.7928 175.07 96.2928 178.31 97.6728 182.13C102.113 197.88 103.333 211.13 101.673 225.55C104.85 228.502 109.026 230.142 113.363 230.14H148.863C150.233 212.14 147.643 197.14 140.483 179.03C138.673 175.21 134.123 172.41 130.613 172.67Z" fill="black"/>
<path opacity="0.2" d="M130.612 172.67C128.612 172.81 126.022 171.18 124.772 169.06L123.772 167.41C120.882 162.69 114.542 159.31 110.172 159.63L109.082 159.71C104.702 160.02 103.762 163.93 106.422 168.71C106.792 169.37 106.972 169.71 107.332 170.37C108.472 172.49 107.662 174.37 105.632 174.52C102.132 174.77 100.692 178 102.092 181.82C107.092 198.74 108.282 212.82 106.092 228.57C108.348 229.608 110.8 230.147 113.282 230.15H148.782C150.152 212.15 147.562 197.15 140.402 179.04C138.672 175.21 134.122 172.41 130.612 172.67Z" fill="black"/>
<path d="M154.631 190.51C154.631 190.51 153.081 211 158.221 210.79C163.361 210.58 173.481 210.65 173.481 210.65L181.841 206.92C182.058 206.821 182.3 206.79 182.534 206.833C182.768 206.876 182.984 206.99 183.151 207.16L186.941 210.91C187.103 211.077 187.211 211.289 187.253 211.518C187.295 211.746 187.269 211.982 187.177 212.196C187.085 212.41 186.932 212.592 186.737 212.719C186.542 212.846 186.314 212.912 186.081 212.91L183.761 212.85C180.641 214.519 177.087 215.199 173.571 214.8C174.771 214.44 152.421 218.59 150.131 215.42C147.001 211.1 145.621 193 145.621 193L154.631 190.51Z" fill="#B55B52"/>
<path opacity="0.1" d="M154.631 190.51C154.631 190.51 153.081 211 158.221 210.79C163.361 210.58 173.481 210.65 173.481 210.65L181.841 206.92C182.058 206.821 182.3 206.79 182.534 206.833C182.768 206.876 182.984 206.99 183.151 207.16L186.941 210.91C187.103 211.077 187.211 211.289 187.253 211.518C187.295 211.746 187.269 211.982 187.177 212.196C187.085 212.41 186.932 212.592 186.737 212.719C186.542 212.846 186.314 212.912 186.081 212.91L183.761 212.85C180.641 214.519 177.087 215.199 173.571 214.8C174.771 214.44 152.421 218.59 150.131 215.42C147.001 211.1 145.621 193 145.621 193L154.631 190.51Z" fill="black"/>
<path d="M149.791 177.75C153.271 177.65 157.201 182.17 155.471 194.18L145.891 196C145.891 196 142.781 178 149.791 177.75Z" fill="#263238"/>
<path opacity="0.2" d="M149.791 177.75C153.271 177.65 157.201 182.17 155.471 194.18L145.891 196C145.891 196 142.781 178 149.791 177.75Z" fill="black"/>
<path d="M114.422 178C109.182 184.75 110.042 220.26 110.422 229.89C111.412 230.064 112.416 230.155 113.422 230.16H143.862C146.462 196.03 157.512 185.93 153.462 179.49C149.522 173.31 120.502 170.12 114.422 178Z" fill="#263238"/>
<path d="M139.703 182.17C139.703 182.17 147.293 177.45 144.213 174.89C140.238 173.955 136.176 173.436 132.093 173.34C130.853 174.16 131.753 176.44 139.703 182.17Z" fill="#B55B52"/>
<path d="M144 170.39L137.3 163.11C136.66 168.69 133.69 173.27 133.09 173.45L133.82 176.01C141.94 185.14 143.82 176.37 143.82 176.37C141.79 174.72 144 170.39 144 170.39Z" fill="#B55B52"/>
<path opacity="0.2" d="M139.932 166L136.812 165.68C136.812 165.68 136.943 175.04 143.353 175.85C142.163 173.96 143.952 170.36 143.952 170.36L139.932 166Z" fill="#263238"/>
<path d="M138.161 155.11C136.711 161.72 135.521 165.51 137.811 169.88C138.54 171.311 139.646 172.516 141.011 173.363C142.375 174.21 143.946 174.668 145.552 174.687C147.158 174.705 148.738 174.284 150.122 173.468C151.506 172.653 152.64 171.474 153.401 170.06C156.401 164.68 158.301 154.77 152.761 150.16C151.584 149.129 150.155 148.427 148.619 148.124C147.084 147.821 145.495 147.929 144.015 148.436C142.534 148.943 141.213 149.832 140.185 151.012C139.158 152.193 138.459 153.623 138.161 155.16V155.11Z" fill="#B55B52"/>
<path d="M147.37 160.07C147.22 160.59 147.37 161.07 147.73 161.19C148.09 161.31 148.47 160.96 148.62 160.44C148.77 159.92 148.62 159.39 148.26 159.31C147.9 159.23 147.52 159.54 147.37 160.07Z" fill="#263238"/>
<path d="M153.281 162C153.121 162.52 153.281 163 153.631 163.12C153.981 163.24 154.371 162.89 154.531 162.36C154.691 161.83 154.531 161.36 154.161 161.23C153.791 161.1 153.431 161.44 153.281 162Z" fill="#263238"/>
<path d="M146.103 157.55C146.05 157.541 146.001 157.517 145.963 157.48C145.934 157.451 145.911 157.417 145.895 157.379C145.879 157.341 145.871 157.301 145.871 157.26C145.871 157.219 145.879 157.179 145.895 157.141C145.911 157.103 145.934 157.069 145.963 157.04C146.364 156.721 146.838 156.507 147.342 156.416C147.847 156.325 148.366 156.361 148.853 156.52C148.893 156.533 148.93 156.555 148.962 156.583C148.993 156.611 149.019 156.646 149.036 156.684C149.054 156.722 149.064 156.764 149.065 156.806C149.066 156.849 149.058 156.891 149.043 156.93C149.011 157.008 148.951 157.07 148.874 157.104C148.798 157.137 148.711 157.14 148.633 157.11C148.254 156.99 147.852 156.963 147.46 157.031C147.069 157.099 146.699 157.26 146.383 157.5C146.344 157.532 146.298 157.553 146.249 157.562C146.2 157.571 146.15 157.566 146.103 157.55Z" fill="#263238"/>
<path d="M156.4 160.74C156.352 160.717 156.31 160.683 156.277 160.642C156.244 160.6 156.221 160.552 156.21 160.5C156.159 160.085 156.011 159.688 155.778 159.34C155.545 158.993 155.234 158.705 154.87 158.5C154.801 158.45 154.754 158.375 154.739 158.291C154.725 158.207 154.743 158.121 154.79 158.05C154.828 157.992 154.884 157.949 154.948 157.925C155.013 157.902 155.084 157.9 155.15 157.92C155.603 158.166 155.991 158.516 156.285 158.939C156.578 159.363 156.768 159.85 156.84 160.36C156.855 160.444 156.835 160.529 156.787 160.599C156.738 160.668 156.664 160.715 156.58 160.73C156.522 160.749 156.46 160.752 156.4 160.74Z" fill="#263238"/>
<path d="M146.91 168.4C147.203 168.491 147.505 168.551 147.81 168.58C147.832 168.584 147.855 168.584 147.878 168.579C147.9 168.575 147.921 168.565 147.94 168.552C147.958 168.539 147.974 168.523 147.986 168.503C147.998 168.484 148.006 168.463 148.01 168.44C148.013 168.416 148.011 168.392 148.004 168.37C147.998 168.347 147.987 168.325 147.972 168.307C147.957 168.288 147.938 168.273 147.918 168.261C147.897 168.25 147.874 168.243 147.85 168.24C147.083 168.154 146.346 167.892 145.697 167.474C145.048 167.056 144.505 166.493 144.11 165.83C144.1 165.808 144.086 165.789 144.069 165.772C144.052 165.756 144.031 165.743 144.009 165.735C143.986 165.726 143.963 165.723 143.939 165.724C143.915 165.724 143.892 165.73 143.87 165.74C143.827 165.763 143.794 165.802 143.777 165.848C143.761 165.894 143.762 165.945 143.78 165.99C144.114 166.58 144.564 167.098 145.101 167.512C145.639 167.926 146.254 168.228 146.91 168.4Z" fill="#263238"/>
<path d="M151.223 161.63C151.392 163.451 151.795 165.243 152.423 166.96C151.988 167.101 151.528 167.146 151.074 167.093C150.62 167.039 150.183 166.888 149.793 166.65L151.223 161.63Z" fill="#A02724"/>
<path d="M138.291 158.8C138.291 158.8 144.711 158.86 142.871 155.17C142.871 155.17 151.781 156.88 150.261 153.52C150.261 153.52 156.261 158.26 154.731 153.78C154.731 153.78 158.841 157.28 158.971 155.03C159.101 152.78 156.851 151.35 156.851 151.35C156.851 151.35 161.851 147.28 154.591 147.29C154.591 147.29 156.311 141.17 148.011 146.06C148.011 146.06 149.121 139.72 142.931 146.06C142.931 146.06 134.551 146.12 136.531 148.89C136.531 148.89 131.251 150.61 134.531 152.46C134.531 152.46 130.531 156.09 133.441 157.58C133.441 157.58 129.641 162.8 135.191 162.15C135.191 162.15 133.191 166.98 135.651 165.99C138.111 165 138.291 158.8 138.291 158.8Z" fill="#263238"/>
<path d="M134.16 159.8C134.202 161.296 134.801 162.723 135.84 163.8C137.22 165.22 138.84 164.15 139.17 162.29C139.49 160.6 139.17 157.84 137.4 157.14C135.63 156.44 134.14 157.93 134.16 159.8Z" fill="#B55B52"/>
<path opacity="0.3" d="M145.003 219.36C145.303 217.36 145.633 215.36 146.003 213.57L142.813 212.93L125.003 202.5L118.663 187.84L116.023 182.17L113.543 183.49C113.543 183.49 113.543 212.83 125.933 218.16C131.193 220.41 137.813 219.7 145.003 219.36Z" fill="black"/>
<path d="M124.662 189.43C124.662 189.43 128.292 207.54 139.662 209.58C151.032 211.62 152.662 211.58 152.662 211.58L161.832 208.58C162.101 208.493 162.389 208.49 162.659 208.573C162.929 208.655 163.168 208.818 163.342 209.04L165.662 212.04C165.816 212.237 165.912 212.472 165.942 212.72C165.972 212.968 165.933 213.22 165.83 213.447C165.727 213.675 165.564 213.87 165.358 214.011C165.152 214.153 164.911 214.235 164.662 214.25L160.742 214.51C159.668 215.366 158.429 215.992 157.103 216.348C155.776 216.704 154.39 216.783 153.032 216.58C153.032 216.58 134.682 218.58 128.292 214.91C121.902 211.24 116.832 196.19 116.832 196.19L124.662 189.43Z" fill="#B55B52"/>
<path d="M116.552 201.18C116.552 201.18 110.132 180.62 116.182 177.35C122.232 174.08 126.182 188.5 127.732 193.96L116.552 201.18Z" fill="#263238"/>
<path d="M176.882 214.55L154.742 215.61V218.75H176.882H191.142V214.55H176.882Z" fill="#FF880D"/>
<path opacity="0.3" d="M176.882 218.75H154.742V215.61L176.882 214.55V218.75Z" fill="white"/>
<path opacity="0.6" d="M191.143 214.55H176.883V218.75H191.143V214.55Z" fill="white"/>
<path d="M225.561 207.92H178.781L183.501 169.46H230.281L225.561 207.92Z" fill="#FF880D"/>
<path opacity="0.3" d="M225.561 207.92H178.781L183.501 169.46H230.281L225.561 207.92Z" fill="white"/>
<path d="M186.203 169.46L181.473 207.92H225.563L230.283 169.46H186.203Z" fill="#FF880D"/>
<path opacity="0.6" d="M186.203 169.46L181.473 207.92H225.563L230.283 169.46H186.203Z" fill="white"/>
<path d="M210.333 218.64H200.383L199.383 202.77H207.443L210.333 218.64Z" fill="#FF880D"/>
<path opacity="0.3" d="M210.333 218.64H200.383L199.383 202.77H207.443L210.333 218.64Z" fill="white"/>
<path d="M212.11 218.64H202.16L201.16 202.77H209.21L212.11 218.64Z" fill="#FF880D"/>
<path opacity="0.5" d="M212.11 218.64H202.16L201.16 202.77H209.21L212.11 218.64Z" fill="white"/>
<path d="M205.212 215.87H203.602H189.852V218.75H203.602H205.212H218.962V215.87H205.212Z" fill="#FF880D"/>
<path opacity="0.3" d="M205.212 215.87H203.602H189.852V218.75H203.602H205.212H218.962V215.87H205.212Z" fill="white"/>
<path d="M218.962 215.87H203.602V218.75H218.962V215.87Z" fill="#FF880D"/>
<path opacity="0.6" d="M218.962 215.87H203.602V218.75H218.962V215.87Z" fill="white"/>
<path d="M145.703 223.24V230.11H218.423C221.091 230.108 223.721 229.486 226.107 228.294C228.493 227.102 230.57 225.372 232.173 223.24H145.703Z" fill="#263238"/>
<path opacity="0.3" d="M145.703 223.24V230.11H218.423C221.091 230.108 223.721 229.486 226.107 228.294C228.493 227.102 230.57 225.372 232.173 223.24H145.703Z" fill="white"/>
<path d="M234.611 218.75H141.371V223.24H232.171C233.206 221.875 234.029 220.361 234.611 218.75Z" fill="#263238"/>
<path opacity="0.5" d="M234.611 218.75H141.371V223.24H232.171C233.206 221.875 234.029 220.361 234.611 218.75Z" fill="white"/>
<path d="M218.422 97.77H113.332C107.636 97.7753 102.176 100.04 98.1488 104.067C94.1216 108.094 91.8569 113.555 91.8516 119.25V212.86C91.8569 218.554 94.1219 224.014 98.1494 228.039C102.177 232.065 107.637 234.327 113.332 234.33H218.422C224.114 234.325 229.572 232.061 233.597 228.036C237.623 224.011 239.886 218.553 239.892 212.86V119.25C239.889 113.556 237.626 108.095 233.601 104.068C229.575 100.04 224.116 97.7753 218.422 97.77ZM235.672 212.86C235.669 217.434 233.851 221.82 230.616 225.055C227.382 228.289 222.996 230.107 218.422 230.11H113.332C108.756 230.11 104.367 228.293 101.13 225.058C97.8938 221.824 96.0742 217.436 96.0716 212.86V119.25C96.0742 114.674 97.8938 110.287 101.13 107.052C104.367 103.817 108.756 102 113.332 102H218.422C222.997 102.003 227.385 103.822 230.62 107.059C233.854 110.295 235.672 114.684 235.672 119.26V212.86Z" fill="#FF880D"/>
<path opacity="0.4" d="M218.422 97.77H113.332C107.636 97.7753 102.176 100.04 98.1488 104.067C94.1216 108.094 91.8569 113.555 91.8516 119.25V212.86C91.8569 218.554 94.1219 224.014 98.1494 228.039C102.177 232.065 107.637 234.327 113.332 234.33H218.422C224.114 234.325 229.572 232.061 233.597 228.036C237.623 224.011 239.886 218.553 239.892 212.86V119.25C239.889 113.556 237.626 108.095 233.601 104.068C229.575 100.04 224.116 97.7753 218.422 97.77ZM235.672 212.86C235.669 217.434 233.851 221.82 230.616 225.055C227.382 228.289 222.996 230.107 218.422 230.11H113.332C108.756 230.11 104.367 228.293 101.13 225.058C97.8938 221.824 96.0742 217.436 96.0716 212.86V119.25C96.0742 114.674 97.8938 110.287 101.13 107.052C104.367 103.817 108.756 102 113.332 102H218.422C222.997 102.003 227.385 103.822 230.62 107.059C233.854 110.295 235.672 114.684 235.672 119.26V212.86Z" fill="white"/>
<path d="M269.803 148.413C280.539 137.677 280.539 120.272 269.803 109.536C259.068 98.8005 241.662 98.8005 230.927 109.536C220.191 120.272 220.191 137.677 230.927 148.413C241.662 159.148 259.068 159.148 269.803 148.413Z" fill="#FF880D"/>
<path opacity="0.3" d="M269.803 148.413C280.539 137.677 280.539 120.272 269.803 109.536C259.068 98.8005 241.662 98.8005 230.927 109.536C220.191 120.272 220.191 137.677 230.927 148.413C241.662 159.148 259.068 159.148 269.803 148.413Z" fill="black"/>
<path d="M277.114 133.379C280.601 118.603 271.45 103.797 256.673 100.309C241.897 96.8218 227.091 105.973 223.604 120.749C220.116 135.526 229.268 150.332 244.044 153.819C258.82 157.307 273.626 148.155 277.114 133.379Z" fill="#FF880D"/>
<path opacity="0.9" d="M273.028 132.414C275.983 119.895 268.23 107.352 255.711 104.397C243.192 101.442 230.648 109.195 227.694 121.714C224.739 134.233 232.492 146.777 245.011 149.731C257.53 152.686 270.073 144.933 273.028 132.414Z" fill="white"/>
<path d="M249.408 110.68C249.408 115.83 249.238 121.02 249.408 126.17C249.468 127.82 250.228 128.28 251.408 129.48L256.858 134.93C257.046 135.029 257.262 135.065 257.473 135.033C257.683 135.001 257.878 134.902 258.029 134.752C258.18 134.601 258.278 134.406 258.311 134.195C258.343 133.984 258.307 133.769 258.208 133.58L253.138 128.52C252.38 127.887 251.68 127.188 251.048 126.43C251.688 127.43 251.288 126.3 251.288 125.43V110.68C251.222 110.48 251.095 110.306 250.924 110.182C250.753 110.059 250.548 109.992 250.338 109.992C250.127 109.992 249.922 110.059 249.751 110.182C249.581 110.306 249.453 110.48 249.388 110.68H249.408Z" fill="#263238"/>
<path d="M293.934 408.73C293.319 408.733 292.726 408.505 292.271 408.092C291.815 407.68 291.531 407.112 291.474 406.5L290.684 398.26V329.84H297.174V398.26L296.384 406.5C296.326 407.11 296.043 407.677 295.59 408.089C295.137 408.502 294.546 408.73 293.934 408.73Z" fill="#263238"/>
<path opacity="0.3" d="M293.934 408.73C293.319 408.733 292.726 408.505 292.271 408.092C291.815 407.68 291.531 407.112 291.474 406.5L290.684 398.26V329.84H297.174V398.26L296.384 406.5C296.326 407.11 296.043 407.677 295.59 408.089C295.137 408.502 294.546 408.73 293.934 408.73Z" fill="white"/>
<path opacity="0.1" d="M297.174 337.57H290.684V345.54H297.174V337.57Z" fill="black"/>
<path d="M299.473 399.4V396.83C299.47 396.348 299.277 395.887 298.937 395.546C298.596 395.205 298.134 395.013 297.652 395.01H290.203C289.721 395.013 289.259 395.205 288.918 395.546C288.578 395.887 288.385 396.348 288.383 396.83V399.4L270.073 404.4C268.993 404.697 268.041 405.341 267.361 406.231C266.682 407.122 266.314 408.21 266.312 409.33H321.543C321.541 408.21 321.173 407.122 320.494 406.231C319.814 405.341 318.862 404.697 317.783 404.4L299.473 399.4Z" fill="#263238"/>
<path opacity="0.2" d="M299.473 399.4V396.83C299.47 396.348 299.277 395.887 298.937 395.546C298.596 395.205 298.134 395.013 297.652 395.01H290.203C289.721 395.013 289.259 395.205 288.918 395.546C288.578 395.887 288.385 396.348 288.383 396.83V399.4L270.073 404.4C268.993 404.697 268.041 405.341 267.361 406.231C266.682 407.122 266.314 408.21 266.312 409.33H321.543C321.541 408.21 321.173 407.122 320.494 406.231C319.814 405.341 318.862 404.697 317.783 404.4L299.473 399.4Z" fill="white"/>
<path opacity="0.1" d="M299.472 399.34V396.83C299.477 396.747 299.477 396.663 299.472 396.58H288.472C288.468 396.663 288.468 396.747 288.472 396.83V399.34H299.472Z" fill="black"/>
<path d="M323.324 263C311.124 263.43 300.574 273.79 299.324 286L294.774 329.33C294.654 330.234 294.731 331.153 294.999 332.024C295.268 332.895 295.722 333.697 296.33 334.377C296.938 335.056 297.685 335.595 298.521 335.958C299.358 336.322 300.262 336.499 301.174 336.48H337.974C339.931 336.437 341.808 335.691 343.26 334.378C344.713 333.065 345.644 331.273 345.884 329.33L350.494 285.47C351.824 272.81 342.414 262.6 329.604 263.05L323.324 263Z" fill="#263238"/>
<path opacity="0.2" d="M323.324 263C311.124 263.43 300.574 273.79 299.324 286L294.774 329.33C294.654 330.234 294.731 331.153 294.999 332.024C295.268 332.895 295.722 333.697 296.33 334.377C296.938 335.056 297.685 335.595 298.521 335.958C299.358 336.322 300.262 336.499 301.174 336.48H337.974C339.931 336.437 341.808 335.691 343.26 334.378C344.713 333.065 345.644 331.273 345.884 329.33L350.494 285.47C351.824 272.81 342.414 262.6 329.604 263.05L323.324 263Z" fill="white"/>
<path d="M344.214 285.45C345.544 272.79 336.124 262.58 323.324 263.03C311.124 263.46 300.574 273.82 299.324 286.03L294.774 329.36C294.654 330.264 294.731 331.182 294.999 332.054C295.268 332.925 295.722 333.727 296.33 334.407C296.938 335.086 297.685 335.625 298.521 335.988C299.358 336.351 300.262 336.529 301.174 336.51H331.724C333.681 336.467 335.558 335.721 337.01 334.408C338.463 333.095 339.394 331.303 339.634 329.36L344.214 285.45Z" fill="#263238"/>
<path d="M242.691 329.49C250.005 327.47 257.536 326.346 265.121 326.14C272.921 325.93 302.121 326.14 309.011 326.14C317.459 326.134 325.868 327.271 334.011 329.52C339.151 330.94 337.561 338.99 332.921 339.08C332.511 339.08 244.351 339.08 244.021 339.08C239.201 339.29 237.431 330.94 242.691 329.49Z" fill="#263238"/>
<path d="M331.662 338.88C316.836 334.79 301.179 334.79 286.352 338.88C280.752 340.43 278.352 331.04 283.972 329.49C300.36 324.97 317.665 324.97 334.052 329.49C339.642 331.04 337.272 340.43 331.662 338.88Z" fill="#263238"/>
<g opacity="0.2">
<path d="M331.662 338.88C316.836 334.79 301.179 334.79 286.352 338.88C280.752 340.43 278.352 331.04 283.972 329.49C300.36 324.97 317.665 324.97 334.052 329.49C339.642 331.04 337.272 340.43 331.662 338.88Z" fill="white"/>
</g>
<path d="M231.582 361.44L225.342 379.65L220.102 378.15L224.342 358.95L231.582 361.44Z" fill="#B97964"/>
<path d="M220.202 376.75L226.642 378.7C226.778 378.734 226.899 378.815 226.982 378.928C227.066 379.041 227.108 379.179 227.102 379.32L226.862 385.72C226.862 385.855 226.835 385.99 226.781 386.114C226.728 386.239 226.65 386.352 226.552 386.445C226.453 386.539 226.337 386.611 226.21 386.659C226.083 386.706 225.947 386.727 225.812 386.72C225.739 386.73 225.665 386.73 225.592 386.72C222.922 385.97 220.592 385.2 217.232 384.34C213.292 383.34 214.172 384.04 209.522 382.9C206.722 382.2 207.042 378.9 208.262 379.05C213.862 379.78 215.842 378.3 218.442 376.9C218.992 376.641 219.616 376.588 220.202 376.75Z" fill="#263238"/>
<path opacity="0.1" d="M228.181 371.37L221.961 369.77L224.341 358.95L231.581 361.44L228.181 371.37Z" fill="black"/>
<path d="M232.7 366.31L230.96 369.67L220.98 366.31V362.44L232.7 366.31Z" fill="#FF880D"/>
<path opacity="0.3" d="M232.7 366.31L230.96 369.67L220.98 366.31V362.44L232.7 366.31Z" fill="white"/>
<path d="M271.743 383.76L273.823 399.88L267.963 400.03L263.723 384.49L271.743 383.76Z" fill="#B97964"/>
<path d="M267.883 399.14H274.573C274.713 399.139 274.849 399.186 274.958 399.274C275.067 399.361 275.143 399.483 275.173 399.62L276.553 405.88C276.589 406.013 276.596 406.151 276.576 406.287C276.555 406.423 276.507 406.554 276.433 406.67C276.36 406.786 276.264 406.886 276.15 406.964C276.037 407.041 275.908 407.094 275.773 407.12H275.563C272.783 407.07 270.323 406.91 266.873 406.9C262.803 406.9 263.873 407.38 259.043 407.44C256.163 407.44 255.643 404.19 256.863 404.03C262.463 403.34 264.043 401.65 266.213 399.65C266.689 399.281 267.283 399.1 267.883 399.14Z" fill="#263238"/>
<path opacity="0.1" d="M266.183 393.5L263.723 384.49L271.743 383.76L272.943 393.08L266.183 393.5Z" fill="black"/>
<path d="M291.933 287H282.463C280.902 291.246 279.894 295.676 279.463 300.18C278.963 306.92 291.923 301.93 291.923 301.93L293.063 292.7L291.933 287Z" fill="#FF880D"/>
<path opacity="0.1" d="M291.933 287H282.463C280.902 291.246 279.894 295.676 279.463 300.18C278.963 306.92 291.923 301.93 291.923 301.93L293.063 292.7L291.933 287Z" fill="black"/>
<path opacity="0.1" d="M286.432 287C289.062 300.81 283.992 300.1 283.992 300.1L286.862 302.1L292.072 300.82L293.072 292.7L291.932 287H286.432Z" fill="black"/>
<path d="M310.821 286.15C310.821 286.15 320.461 302.28 318.821 315.75C317.181 329.22 304.701 336.35 256.821 313.4C256.821 313.4 247.001 323.57 230.701 367.14L222.391 364.64C222.391 364.64 231.781 314.28 240.181 299.95C248.581 285.62 285.911 302.45 288.741 299.62C291.261 297.11 289.071 287.15 289.071 287.15L310.821 286.15Z" fill="#FF880D"/>
<path opacity="0.2" d="M251.321 317.92L248.701 315.92C248.701 315.92 239.471 320.92 244.061 335.15C246.514 329.933 249.235 324.847 252.211 319.91L251.321 317.92Z" fill="black"/>
<path d="M291.324 326.64C282.624 324.56 271.324 320.38 256.784 313.4C256.784 313.4 245.554 313.55 244.784 321.9C244.014 330.25 263.784 388.05 263.784 388.05L272.884 387.26C272.884 387.26 267.524 329.64 266.274 326.64H291.324Z" fill="#FF880D"/>
<path opacity="0.1" d="M291.324 326.64C282.624 324.56 271.324 320.38 256.784 313.4C256.784 313.4 245.554 313.55 244.784 321.9C244.014 330.25 263.784 388.05 263.784 388.05L272.884 387.26C272.884 387.26 267.524 329.64 266.274 326.64H291.324Z" fill="black"/>
<path opacity="0.1" d="M256.784 313.4C255.485 313.449 254.194 313.633 252.934 313.95C259.037 319.163 265.882 323.44 273.244 326.64H291.324C282.624 324.56 271.354 320.38 256.784 313.4Z" fill="black"/>
<path d="M273.954 385.76L274.204 389.5L263.604 390.33L262.094 386.77L273.954 385.76Z" fill="#FF880D"/>
<path opacity="0.3" d="M273.954 385.76L274.204 389.5L263.604 390.33L262.094 386.77L273.954 385.76Z" fill="white"/>
<path d="M269.213 270L258.513 276L251.353 275.65C251.037 275.637 250.723 275.706 250.442 275.852C250.162 275.997 249.924 276.214 249.753 276.48L247.703 279.68C247.563 279.901 247.472 280.149 247.438 280.408C247.403 280.667 247.425 280.93 247.503 281.18L247.553 281.33C247.684 281.77 247.979 282.143 248.378 282.37C248.777 282.597 249.248 282.662 249.693 282.55L252.813 281.8L259.023 280.61L274.213 274L269.213 270Z" fill="#B97964"/>
<path d="M267.113 270.38C268.326 270.824 269.397 271.584 270.218 272.581C271.039 273.577 271.579 274.775 271.783 276.05C271.783 276.05 279.583 273.34 280.943 268.98C282.303 264.62 285.943 243.1 280.063 243.06C274.183 243.02 277.373 268.82 267.113 270.38Z" fill="#263238"/>
<path opacity="0.6" d="M267.113 270.38C268.326 270.824 269.397 271.584 270.218 272.581C271.039 273.577 271.579 274.775 271.783 276.05C271.783 276.05 279.583 273.34 280.943 268.98C282.303 264.62 285.943 243.1 280.063 243.06C274.183 243.02 277.373 268.82 267.113 270.38Z" fill="white"/>
<path d="M265.121 270.71C267.092 272.651 268.644 274.976 269.681 277.54L273.801 275.54C273.801 275.54 272.141 270.85 268.801 268.95L265.121 270.71Z" fill="#263238"/>
<path opacity="0.7" d="M265.121 270.71C267.092 272.651 268.644 274.976 269.681 277.54L273.801 275.54C273.801 275.54 272.141 270.85 268.801 268.95L265.121 270.71Z" fill="white"/>
<path d="M281.681 288C291.841 288.745 302.051 288.447 312.151 287.11C310.021 278.779 309.68 270.092 311.151 261.62C313.641 247.62 326.781 239.36 294.151 239.93C289.421 240.01 275.421 239.38 277.031 249.35C278.771 260 281.681 288 281.681 288Z" fill="#263238"/>
<path opacity="0.5" d="M281.681 288C291.841 288.745 302.051 288.447 312.151 287.11C310.021 278.779 309.68 270.092 311.151 261.62C313.641 247.62 326.781 239.36 294.151 239.93C289.421 240.01 275.421 239.38 277.031 249.35C278.771 260 281.681 288 281.681 288Z" fill="white"/>
<path d="M301.132 271.7L285.902 276.2L279.382 275.06C279.045 275.003 278.699 275.04 278.381 275.167C278.063 275.294 277.787 275.506 277.582 275.78L275.392 278.78C275.232 278.995 275.122 279.243 275.068 279.505C275.015 279.768 275.019 280.039 275.082 280.3V280.39C275.188 280.849 275.466 281.25 275.858 281.511C276.251 281.771 276.728 281.871 277.192 281.79L280.312 281.26L286.582 280.5L305.842 276L301.132 271.7Z" fill="#B97964"/>
<path d="M298.883 271.45C300.069 271.982 301.094 272.816 301.856 273.869C302.618 274.922 303.089 276.157 303.223 277.45C303.223 277.45 311.223 275.68 312.913 271.45C314.603 267.22 319.803 243.45 313.913 242.97C308.023 242.49 309.233 270.6 298.883 271.45Z" fill="#263238"/>
<path opacity="0.6" d="M298.883 271.45C300.069 271.982 301.094 272.816 301.856 273.869C302.618 274.922 303.089 276.157 303.223 277.45C303.223 277.45 311.223 275.68 312.913 271.45C314.603 267.22 319.803 243.45 313.913 242.97C308.023 242.49 309.233 270.6 298.883 271.45Z" fill="white"/>
<path d="M296.613 271.84C298.605 273.756 300.148 276.088 301.133 278.67L305.333 277.47C305.333 277.47 303.613 272.47 300.393 270.31L296.613 271.84Z" fill="#263238"/>
<path opacity="0.7" d="M296.613 271.84C298.605 273.756 300.148 276.088 301.133 278.67L305.333 277.47C305.333 277.47 303.613 272.47 300.393 270.31L296.613 271.84Z" fill="white"/>
<path d="M300.454 210.84C300.454 210.84 295.894 201.73 302.884 202.92C309.874 204.11 305.734 222.24 312.164 224.72C312.164 224.72 304.734 226.57 300.454 210.84Z" fill="#263238"/>
<path opacity="0.6" d="M299.141 207C299.425 208.324 299.864 209.61 300.451 210.83C301.25 214.146 302.603 217.303 304.451 220.17C305.501 216.86 305.921 211.45 302.811 208.35C301.621 207.16 300.371 207.48 299.141 207Z" fill="black"/>
<path d="M298 208.9C298 208.9 300.28 206.32 302.25 209.63C304.22 212.94 300.97 213.73 300.97 213.73L298 208.9Z" fill="#FF880D"/>
<path d="M299.641 226.19C299.641 226.19 300.641 229.92 303.341 227.36C306.041 224.8 301.181 227.48 299.641 226.19Z" fill="#263238"/>
<path d="M294.172 239.64C294.172 239.64 287.632 237.39 284.852 242.94L287.432 243.94L286.002 245.7L291.332 249.57L300.432 246.45L299.932 245.16L304.312 243.97C304.312 243.97 305.482 237.57 294.172 239.64Z" fill="#263238"/>
<path opacity="0.7" d="M294.172 239.64C294.172 239.64 287.632 237.39 284.852 242.94L287.432 243.94L286.002 245.7L291.332 249.57L300.432 246.45L299.932 245.16L304.312 243.97C304.312 243.97 305.482 237.57 294.172 239.64Z" fill="white"/>
<path d="M294.363 240.15C294.363 240.15 283.473 237.76 291.123 248.61C291.123 248.61 312.903 239.93 294.363 240.15Z" fill="#B97964"/>
<path d="M298.69 227.66L291.28 234.93C291.94 238.1 291.02 239.74 290 240.59V242.94C291.256 243.284 292.563 243.403 293.86 243.29C296.257 243.262 298.645 242.973 300.98 242.43C297.75 239.85 298.21 232 298.69 227.66Z" fill="#B97964"/>
<path opacity="0.1" d="M291.351 238.3C291.571 237.185 291.547 236.035 291.281 234.93L297.891 228.44L298.541 229.19C298.541 229.19 297.211 237.46 291.351 238.3Z" fill="black"/>
<path d="M299.302 218C299.852 225.13 300.232 228.13 297.162 232.25C292.552 238.46 283.672 237.56 281.012 230.74C278.612 224.6 278.122 213.97 284.652 210.2C286.885 208.897 289.545 208.534 292.046 209.19C294.547 209.847 296.685 211.469 297.992 213.7C298.763 215.009 299.211 216.483 299.302 218Z" fill="#B97964"/>
<path d="M284.751 225.24C284.422 226.637 283.904 227.983 283.211 229.24C283.533 229.408 283.887 229.505 284.249 229.523C284.611 229.542 284.973 229.483 285.311 229.35L284.751 225.24Z" fill="#A24E3F"/>
<path d="M290.153 220.37C290.197 220.349 290.237 220.322 290.273 220.29C290.324 220.236 290.353 220.164 290.353 220.09C290.353 220.015 290.324 219.944 290.273 219.89C289.871 219.532 289.387 219.277 288.865 219.148C288.342 219.019 287.796 219.02 287.273 219.15C287.204 219.177 287.147 219.229 287.114 219.295C287.08 219.362 287.073 219.438 287.093 219.51C287.116 219.58 287.166 219.638 287.231 219.672C287.297 219.705 287.373 219.712 287.443 219.69C287.871 219.594 288.315 219.602 288.739 219.711C289.163 219.821 289.555 220.029 289.883 220.32C289.92 220.351 289.964 220.371 290.011 220.38C290.059 220.389 290.108 220.385 290.153 220.37Z" fill="#2E353A"/>
<path d="M279.613 221.35C279.661 221.339 279.704 221.311 279.733 221.27C280.011 220.93 280.367 220.662 280.771 220.488C281.175 220.314 281.614 220.239 282.053 220.27C282.128 220.281 282.205 220.263 282.267 220.218C282.329 220.173 282.37 220.105 282.383 220.03C282.388 219.992 282.386 219.954 282.377 219.917C282.367 219.88 282.35 219.846 282.326 219.816C282.303 219.786 282.274 219.761 282.241 219.743C282.207 219.725 282.171 219.714 282.133 219.71C281.603 219.661 281.07 219.74 280.578 219.94C280.085 220.14 279.648 220.456 279.303 220.86C279.276 220.886 279.255 220.917 279.241 220.951C279.226 220.986 279.219 221.023 279.219 221.06C279.219 221.097 279.226 221.134 279.241 221.168C279.255 221.203 279.276 221.234 279.303 221.26C279.342 221.298 279.391 221.324 279.444 221.334C279.497 221.345 279.552 221.34 279.603 221.32L279.613 221.35Z" fill="#2E353A"/>
<path d="M288.693 223.72C288.773 224.3 288.523 224.8 288.143 224.86C287.763 224.92 287.403 224.49 287.333 223.86C287.263 223.23 287.493 222.78 287.863 222.73C288.233 222.68 288.603 223.14 288.693 223.72Z" fill="#2E353A"/>
<path d="M282.18 224.62C282.26 225.2 282.02 225.7 281.64 225.76C281.26 225.82 280.9 225.39 280.82 224.81C280.74 224.23 280.98 223.73 281.35 223.68C281.72 223.63 282.1 224 282.18 224.62Z" fill="#2E353A"/>
<path d="M281.524 223.68L280.094 223.48C280.094 223.48 281.004 224.46 281.524 223.68Z" fill="#2E353A"/>
<path d="M288.003 222.78L286.562 222.58C286.562 222.58 287.453 223.56 288.003 222.78Z" fill="#2E353A"/>
<path d="M289.144 229.56C289.256 229.358 289.353 229.147 289.434 228.93C289.447 228.897 289.448 228.859 289.435 228.826C289.422 228.792 289.396 228.765 289.364 228.75C289.328 228.74 289.29 228.744 289.256 228.76C289.223 228.777 289.197 228.805 289.184 228.84C288.988 229.397 288.663 229.899 288.235 230.306C287.808 230.713 287.29 231.012 286.724 231.18C286.689 231.191 286.66 231.215 286.642 231.246C286.623 231.277 286.617 231.314 286.624 231.35C286.631 231.385 286.652 231.417 286.682 231.437C286.711 231.458 286.748 231.466 286.784 231.46C287.284 231.316 287.75 231.074 288.155 230.748C288.56 230.422 288.897 230.018 289.144 229.56Z" fill="#263238"/>
<path d="M299.641 226.19C299.641 226.19 295.741 224.06 295.491 218.19C295.241 212.32 286.311 211.11 280.801 214.56C280.801 214.56 279.231 209.37 284.991 208.91C284.991 208.91 293.411 202.75 300.301 209.64C306.391 215.72 299.641 226.19 299.641 226.19Z" fill="#263238"/>
<path d="M301.752 223.39C301.537 224.755 300.794 225.98 299.682 226.8C298.192 227.87 296.822 226.69 296.682 224.96C296.582 223.4 297.232 220.96 298.982 220.58C299.286 220.522 299.6 220.525 299.903 220.588C300.207 220.651 300.495 220.773 300.751 220.948C301.008 221.122 301.227 221.346 301.397 221.605C301.567 221.865 301.684 222.155 301.742 222.46C301.805 222.766 301.808 223.082 301.752 223.39Z" fill="#B97964"/>
<path d="M281.282 213.64C281.282 213.64 279.532 217.56 278.062 213.64C276.592 209.72 279.822 214.52 281.282 213.64Z" fill="#263238"/>
<path d="M285.781 281H234.691C234.294 281 233.912 281.158 233.631 281.439C233.349 281.721 233.191 282.102 233.191 282.5C233.191 282.898 233.349 283.279 233.631 283.561C233.912 283.842 234.294 284 234.691 284H285.781C286.179 284 286.561 283.842 286.842 283.561C287.123 283.279 287.281 282.898 287.281 282.5C287.281 282.102 287.123 281.721 286.842 281.439C286.561 281.158 286.179 281 285.781 281Z" fill="#FF880D"/>
<path opacity="0.3" d="M285.781 281H234.691C234.294 281 233.912 281.158 233.631 281.439C233.349 281.721 233.191 282.102 233.191 282.5C233.191 282.898 233.349 283.279 233.631 283.561C233.912 283.842 234.294 284 234.691 284H285.781C286.179 284 286.561 283.842 286.842 283.561C287.123 283.279 287.281 282.898 287.281 282.5C287.281 282.102 287.123 281.721 286.842 281.439C286.561 281.158 286.179 281 285.781 281Z" fill="white"/>
<path opacity="0.2" d="M256.711 284C256.313 284 255.932 283.842 255.65 283.561C255.369 283.279 255.211 282.898 255.211 282.5C255.211 282.102 255.369 281.721 255.65 281.439C255.932 281.158 256.313 281 256.711 281H285.781C286.179 281 286.56 281.158 286.842 281.439C287.123 281.721 287.281 282.102 287.281 282.5C287.281 282.898 287.123 283.279 286.842 283.561C286.56 283.842 286.179 284 285.781 284H256.711Z" fill="white"/>
<path d="M235.512 283.1H254.292C254.412 283.104 254.531 283.077 254.638 283.022C254.745 282.967 254.836 282.885 254.903 282.785C254.97 282.685 255.011 282.57 255.021 282.45C255.031 282.33 255.011 282.21 254.962 282.1L244.662 252.67C244.525 252.273 244.267 251.929 243.924 251.687C243.582 251.444 243.171 251.316 242.752 251.32H224.002C223.888 251.318 223.775 251.344 223.674 251.395C223.573 251.446 223.485 251.521 223.419 251.614C223.353 251.706 223.311 251.813 223.295 251.926C223.28 252.039 223.293 252.153 223.332 252.26L233.632 281.69C233.756 282.093 234.005 282.447 234.343 282.7C234.68 282.953 235.089 283.093 235.512 283.1Z" fill="#FF880D"/>
<path d="M234.6 283.1H253.39C253.509 283.101 253.627 283.072 253.733 283.017C253.838 282.961 253.928 282.88 253.995 282.781C254.061 282.682 254.102 282.567 254.113 282.449C254.125 282.33 254.106 282.21 254.06 282.1L243.76 252.67C243.623 252.273 243.366 251.929 243.023 251.687C242.68 251.444 242.27 251.316 241.85 251.32H223.06C222.947 251.32 222.836 251.347 222.736 251.399C222.635 251.451 222.549 251.526 222.483 251.618C222.418 251.71 222.375 251.816 222.359 251.928C222.343 252.039 222.353 252.153 222.39 252.26L232.69 281.69C232.816 282.098 233.069 282.455 233.413 282.709C233.757 282.963 234.173 283.1 234.6 283.1Z" fill="#FF880D"/>
<path opacity="0.5" d="M234.6 283.1H253.39C253.509 283.101 253.627 283.072 253.733 283.017C253.838 282.961 253.928 282.88 253.995 282.781C254.061 282.682 254.102 282.567 254.113 282.449C254.125 282.33 254.106 282.21 254.06 282.1L243.76 252.67C243.623 252.273 243.366 251.929 243.023 251.687C242.68 251.444 242.27 251.316 241.85 251.32H223.06C222.947 251.32 222.836 251.347 222.736 251.399C222.635 251.451 222.549 251.526 222.483 251.618C222.418 251.71 222.375 251.816 222.359 251.928C222.343 252.039 222.353 252.153 222.39 252.26L232.69 281.69C232.816 282.098 233.069 282.455 233.413 282.709C233.757 282.963 234.173 283.1 234.6 283.1Z" fill="white"/>
<path d="M236.699 267.23C236.939 268.36 237.699 269.23 238.439 269.23C239.179 269.23 239.559 268.32 239.319 267.23C239.079 266.14 238.319 265.23 237.569 265.23C236.819 265.23 236.459 266.1 236.699 267.23Z" fill="white"/>
<path d="M198.2 266.42C198.2 266.42 191.78 260.47 195.2 257.89C198.62 255.31 191.2 251.34 193.85 249.41C196.5 247.48 192.55 242.48 194.85 241.65C197.15 240.82 194.29 237.9 195.96 236.49C198.16 234.65 197.71 244.07 199.9 244.23C202.09 244.39 197.74 249.58 200.46 250.23C203.18 250.88 199.46 256.77 202.02 256.88C204.58 256.99 202.22 263.39 198.2 266.42Z" fill="#FF880D"/>
<path opacity="0.5" d="M198.2 266.42C198.2 266.42 191.78 260.47 195.2 257.89C198.62 255.31 191.2 251.34 193.85 249.41C196.5 247.48 192.55 242.48 194.85 241.65C197.15 240.82 194.29 237.9 195.96 236.49C198.16 234.65 197.71 244.07 199.9 244.23C202.09 244.39 197.74 249.58 200.46 250.23C203.18 250.88 199.46 256.77 202.02 256.88C204.58 256.99 202.22 263.39 198.2 266.42Z" fill="white"/>
<g opacity="0.2">
<path d="M196.06 238.91C196.727 242.81 197.264 246.727 197.67 250.66C198.2 255.48 199.31 261.57 197.8 266.31C197.64 266.81 198.43 267.03 198.6 266.53C200.16 261.65 199.04 255.61 198.5 250.66C198.06 246.66 197.5 242.66 196.86 238.66C196.78 238.13 195.98 238.36 196.06 238.88V238.91Z" fill="black"/>
</g>
<path d="M196.062 265.38C196.062 265.38 189.442 262.19 191.512 259.29C193.582 256.39 186.682 255.02 188.342 252.81C190.002 250.6 185.582 247.57 187.232 246.33C188.882 245.09 185.352 242.11 186.862 241.92C189.272 241.62 190.132 247.57 191.922 247.16C193.712 246.75 191.512 251.98 193.852 251.85C196.192 251.72 194.682 257.34 196.752 256.85C198.822 256.36 198.542 262 196.062 265.38Z" fill="#FF880D"/>
<g opacity="0.2">
<path d="M188.244 244.73C191.414 251.23 194.624 258.28 195.664 265.49C195.744 266.02 196.534 265.79 196.464 265.27C195.404 258.01 192.154 250.87 188.954 244.27C188.724 243.79 188.004 244.21 188.244 244.69V244.73Z" fill="black"/>
</g>
<path d="M201.621 265.38C201.621 265.38 208.241 262.19 206.171 259.29C204.101 256.39 211.001 255.02 209.341 252.81C207.681 250.6 212.101 247.57 210.451 246.33C208.801 245.09 211.831 243.97 210.831 241.92C209.831 239.87 207.551 247.57 205.761 247.16C203.971 246.75 206.171 251.98 203.831 251.85C201.491 251.72 203.001 257.34 200.931 256.85C198.861 256.36 199.141 262 201.621 265.38Z" fill="#FF880D"/>
<path opacity="0.2" d="M201.621 265.38C201.621 265.38 208.241 262.19 206.171 259.29C204.101 256.39 211.001 255.02 209.341 252.81C207.681 250.6 212.101 247.57 210.451 246.33C208.801 245.09 211.831 243.97 210.831 241.92C209.831 239.87 207.551 247.57 205.761 247.16C203.971 246.75 206.171 251.98 203.831 251.85C201.491 251.72 203.001 257.34 200.931 256.85C198.861 256.36 199.141 262 201.621 265.38Z" fill="white"/>
<g opacity="0.2">
<path d="M209.381 244.73C206.211 251.23 203.001 258.28 201.961 265.49C201.881 266.02 201.091 265.79 201.161 265.27C202.211 258.01 205.471 250.87 208.671 244.27C208.901 243.79 209.671 244.21 209.381 244.69V244.73Z" fill="black"/>
</g>
<path d="M205.121 284.19H193.351L191.141 264.37H207.321L205.121 284.19Z" fill="#FF880D"/>
<path opacity="0.3" d="M205.121 284.19H193.351L191.141 264.37H207.321L205.121 284.19Z" fill="white"/>
<path d="M235.08 408.73C234.466 408.73 233.874 408.502 233.419 408.09C232.964 407.678 232.679 407.111 232.62 406.5L231.84 398.26V285.32H238.32V398.26L237.54 406.5C237.48 407.111 237.195 407.678 236.74 408.09C236.286 408.502 235.694 408.73 235.08 408.73Z" fill="#263238"/>
<path opacity="0.3" d="M235.08 408.73C234.466 408.73 233.874 408.502 233.419 408.09C232.964 407.678 232.679 407.111 232.62 406.5L231.84 398.26V285.32H238.32V398.26L237.54 406.5C237.48 407.111 237.195 407.678 236.74 408.09C236.286 408.502 235.694 408.73 235.08 408.73Z" fill="white"/>
<path opacity="0.1" d="M238.33 286.42H231.84V294.39H238.33V286.42Z" fill="black"/>
<path d="M240.623 399.4V396.83C240.624 396.59 240.578 396.352 240.487 396.13C240.396 395.908 240.262 395.707 240.093 395.537C239.924 395.367 239.723 395.232 239.501 395.139C239.28 395.047 239.043 395 238.803 395H231.363C230.88 395 230.417 395.192 230.076 395.533C229.734 395.874 229.543 396.337 229.543 396.82V399.39L211.233 404.39C210.153 404.687 209.201 405.331 208.522 406.221C207.842 407.112 207.474 408.2 207.473 409.32H262.693C262.691 408.2 262.323 407.112 261.644 406.221C260.965 405.331 260.012 404.687 258.933 404.39L240.623 399.4Z" fill="#FF880D"/>
<path opacity="0.1" d="M240.621 399.34V396.83C240.626 396.747 240.626 396.663 240.621 396.58H229.621C229.616 396.663 229.616 396.747 229.621 396.83V399.34H240.621Z" fill="black"/>
<path opacity="0.2" d="M240.623 399.4V396.83C240.624 396.59 240.578 396.352 240.487 396.13C240.396 395.908 240.262 395.707 240.093 395.537C239.924 395.367 239.723 395.232 239.501 395.139C239.28 395.047 239.043 395 238.803 395H231.363C230.88 395 230.417 395.192 230.076 395.533C229.734 395.874 229.543 396.337 229.543 396.82V399.39L211.233 404.39C210.153 404.687 209.201 405.331 208.522 406.221C207.842 407.112 207.474 408.2 207.473 409.32H262.693C262.691 408.2 262.323 407.112 261.644 406.221C260.965 405.331 260.012 404.687 258.933 404.39L240.623 399.4Z" fill="black"/>
<path d="M305.371 287.81H164.781V291.6H305.371V287.81Z" fill="#263238"/>
<path opacity="0.3" d="M305.371 287.81H164.781V291.6H305.371V287.81Z" fill="white"/>
<path opacity="0.2" d="M305.37 287.81H235.27V291.6H305.37V287.81Z" fill="black"/>
<path d="M313.851 284.01H156.301V287.8H313.851V284.01Z" fill="#FF880D"/>
<path opacity="0.3" d="M313.849 284.01H226.789V287.8H313.849V284.01Z" fill="black"/>
</svg>
