<?xml version="1.0" encoding="UTF-8"?> <svg xmlns="http://www.w3.org/2000/svg" width="500" height="375" viewBox="0 0 500 375" fill="none"><path d="M398.563 366.765C398.563 370.631 395.429 373.765 391.563 373.765H9.10177C5.23578 373.765 2.10178 370.631 2.10178 366.765V74.1177C2.10178 69.9044 5.50625 66.4963 9.71501 66.4963H391.563C395.429 66.4963 398.563 69.6303 398.563 73.4963V366.765Z" fill="white"></path><mask id="mask0_24643_20421" style="mask-type:luminance" maskUnits="userSpaceOnUse" x="2" y="66" width="397" height="308"><path d="M2.10178 66.4963H390.563C394.981 66.4963 398.563 70.0781 398.563 74.4963V365.765C398.563 370.183 394.981 373.765 390.563 373.765H2.10178" fill="white"></path></mask><g mask="url(#mask0_24643_20421)"><path d="M114.681 372.276C100.501 366.287 111.21 325.368 120.355 325.996C129.499 326.625 130.755 367.544 114.681 372.276Z" fill="black" stroke="black" stroke-width="1.5" stroke-linecap="round" stroke-linejoin="round"></path><path d="M39.9916 306.882C39.9916 306.882 34.9345 303.838 31.8936 299.294C26.1204 290.68 26.528 289.566 22.0438 283.643C19.8844 280.787 23.5092 276.474 27.9493 281.945C32.3894 287.415 40.818 300.441 40.818 300.441L39.9916 306.882Z" fill="white" stroke="black" stroke-width="1.5" stroke-linecap="round" stroke-linejoin="round"></path><path d="M59.2616 315.463C55.6809 314.912 51.7586 314.614 49.2465 313.577C46.7345 312.54 38.1627 306 34.9015 301.732C33.5022 299.901 31.2656 293.824 29.1172 289.191C26.6382 283.842 24.4787 279.926 27.0899 278.658C31.9708 276.287 37.1601 288.066 40.201 296.868" fill="white"></path><path d="M59.2616 315.463C55.6809 314.912 51.7586 314.614 49.2465 313.577C46.7345 312.54 38.1627 306 34.9015 301.732C33.5022 299.901 31.2656 293.824 29.1172 289.191C26.6382 283.842 24.4787 279.926 27.0899 278.658C31.9708 276.287 37.1601 288.066 40.201 296.868" stroke="black" stroke-width="1.5" stroke-linecap="round" stroke-linejoin="round"></path><path d="M78.807 323.636C87.8195 332.173 117.92 363.099 127.109 367.643C136.297 372.188 139.724 361.335 135.383 347.316C131.053 333.298 121.974 327.474 121.974 327.474C121.974 327.474 96.3472 313.577 92.4029 307.654C88.4585 301.732 85.7041 294.629 77.6171 293.449C69.5301 292.268 61.6525 288.518 58.1048 284.57C54.5571 280.621 51.7916 277.268 49.8305 278.25C47.8583 279.232 48.2549 286.467 52.001 290.68C55.747 294.893 62.9415 297.551 63.6357 299.294C64.3298 301.037 53.7748 306.463 53.7748 306.463L59.2947 317.757C59.2837 317.768 74.0253 319.103 78.807 323.636Z" fill="white" stroke="black" stroke-width="1.5" stroke-linecap="round" stroke-linejoin="round"></path><path d="M63.5364 318.32C59.9557 317.768 56.0334 317.471 53.5214 316.434C51.0093 315.397 42.5918 308.735 39.1763 304.588C37.6228 302.702 36.6863 297.618 35.3311 292.456C33.7115 286.257 31.8826 279.871 33.7005 278.989C38.5814 276.618 41.446 288.11 44.4979 296.912" fill="white"></path><path d="M63.5364 318.32C59.9557 317.768 56.0334 317.471 53.5214 316.434C51.0093 315.397 42.5918 308.735 39.1763 304.588C37.6228 302.702 36.6863 297.618 35.3311 292.456C33.7115 286.257 31.8826 279.871 33.7005 278.989C38.5814 276.618 41.446 288.11 44.4979 296.912" stroke="black" stroke-width="1.5" stroke-linecap="round" stroke-linejoin="round"></path><path d="M53.9621 311.25C53.9621 311.25 47.4616 305.029 45.2361 301.776C43.0215 298.522 38.8788 288.011 41.8316 286.676C44.7843 285.342 49.3677 296.735 51.2958 298.588C53.2239 300.441 57.2123 304.577 62.3796 305.029C67.5579 305.471 75.2372 305.768 79.0824 308.283" fill="white"></path><path d="M53.9621 311.25C53.9621 311.25 47.4616 305.029 45.2361 301.776C43.0215 298.522 38.8788 288.011 41.8316 286.676C44.7843 285.342 49.3677 296.735 51.2958 298.588C53.2239 300.441 57.2123 304.577 62.3796 305.029C67.5579 305.471 75.2372 305.768 79.0824 308.283" stroke="black" stroke-width="1.5" stroke-linecap="round" stroke-linejoin="round"></path><path d="M340.378 369.927C341.094 368.063 341.579 366.243 341.866 364.599C343.761 353.768 341.26 343.875 337.348 330.585C334.142 319.688 315.71 263.449 310.674 245.151C305.639 226.853 297.123 220.864 286.094 218.018C275.065 215.184 261.095 212.338 261.095 212.338L183.288 213.066C183.288 213.066 158.046 217.18 150.697 223.379C143.349 229.577 141.619 232.732 136.738 255.871C131.857 279 122.239 329.051 122.239 329.051C122.239 329.051 132.32 363.121 114.681 372.265C145.244 384.882 162.255 376.677 167.301 370.059L270.537 310.279L340.378 369.927Z" fill="white" stroke="black" stroke-width="1.5" stroke-linecap="round" stroke-linejoin="round"></path><path d="M146.401 249.993C146.401 249.993 152.703 254.504 152.493 272.118C152.284 289.732 143.878 364.886 165.516 376.268C165.516 376.268 174.386 379.279 183.288 376.268C191.243 381.32 219.602 383.239 233.154 377.603C253.316 383.57 265.37 380.548 270.647 372.463C291.757 340.125 272.641 290.283 290.501 249.993" fill="white"></path><path d="M146.401 249.993C146.401 249.993 152.703 254.504 152.493 272.118C152.284 289.732 143.878 364.886 165.516 376.268C165.516 376.268 174.386 379.279 183.288 376.268C191.243 381.32 219.602 383.239 233.154 377.603C253.316 383.57 265.37 380.548 270.647 372.463C291.757 340.125 272.641 290.283 290.501 249.993" stroke="black" stroke-width="1.5" stroke-linecap="round" stroke-linejoin="round"></path><path d="M143.36 333.32C142.886 333.165 129.18 318.496 121.93 325.996L130.755 338.25" fill="white"></path><path d="M143.36 333.32C142.886 333.165 129.18 318.496 121.93 325.996L130.755 338.25" stroke="black" stroke-width="1.5" stroke-linecap="round" stroke-linejoin="round"></path><path d="M124.002 336.971C123.671 335.151 122.25 327.353 120.355 325.996C129.808 326.857 143.36 350.515 143.36 350.515" fill="white"></path><path d="M124.002 336.971C123.671 335.151 122.25 327.353 120.355 325.996C129.808 326.857 143.36 350.515 143.36 350.515" stroke="black" stroke-width="1.5" stroke-linecap="round" stroke-linejoin="round"></path><path d="M183.288 376.268C183.288 376.268 176.126 368.801 171.874 355.555" stroke="black" stroke-width="1.5" stroke-linecap="round" stroke-linejoin="round"></path><path d="M233.165 377.603C233.165 377.603 241.99 374.085 241.99 357.364" stroke="black" stroke-width="1.5" stroke-linecap="round" stroke-linejoin="round"></path><path d="M283.02 279.232C283.02 279.232 289.245 267.232 296.186 259.665" stroke="black" stroke-width="1.5" stroke-linecap="round" stroke-linejoin="round"></path><path d="M214.314 88.6986C174.771 90.4964 164.635 122.195 165.682 133.886C166.387 141.86 166.133 148.809 162.696 154.18C159.258 159.552 150.235 162.529 152.912 174.96C155.182 185.471 164.15 187.842 164.15 187.842C164.15 187.842 155.777 176.614 164.899 167.923C164.745 175.71 168.116 176.923 170.673 184.82C172.524 190.533 171.179 196.974 162.057 201.033C173.427 204.761 181.591 194.283 183.387 189.938C182.792 196.224 175.972 221.239 208.893 214.048L214.314 88.6986Z" fill="black" stroke="black" stroke-width="1.5" stroke-linecap="round" stroke-linejoin="round"></path><path d="M163.731 171.893C167.94 164.096 174.76 162.982 175.498 154.456C175.983 148.908 170.331 142.29 180.203 131.173" stroke="white" stroke-width="1.5" stroke-linecap="round" stroke-linejoin="round"></path><path d="M199.781 182.493C200.2 182.945 203.759 197.636 202.15 201.673C200.542 205.721 196.619 207.651 196.619 207.651C196.619 207.651 190.427 235.654 191.055 236.702C191.683 237.75 206.48 255.86 210.524 256.908C213.135 257.581 230.477 234.585 243.808 221.228C251.091 213.926 255.123 213.485 255.123 213.485C255.123 213.485 243.456 209.592 242.111 201.662C240.018 189.331 237.77 155.824 237.77 155.824L199.781 182.493Z" fill="white" stroke="black" stroke-width="1.5" stroke-linecap="round" stroke-linejoin="round"></path><path d="M236.217 114.243C224.758 93.728 197.203 84.5625 180.875 117.662C177.085 126.739 180.324 133.015 179.575 136.985C178.032 145.059 177.085 147.772 179.079 156.441C180.577 163.092 187.144 179.515 193.953 184.599C201.588 189.915 218.258 183.188 225.937 173.018C230.521 166.952 231.744 160.059 231.744 160.059L236.217 114.243Z" fill="white" stroke="black" stroke-width="1.5" stroke-linecap="round" stroke-linejoin="round"></path><path d="M224.042 130.544C224.042 130.544 220.329 124.765 214.314 124.103C208.827 123.507 201.996 126 202.591 127.489C216.418 121.599 224.042 130.544 224.042 130.544Z" fill="black" stroke="black" stroke-width="1.5" stroke-linecap="round" stroke-linejoin="round"></path><path d="M179.079 127.919C179.079 127.919 188.841 122.206 193.953 130.544C187.838 124.643 179.189 128.923 179.189 128.923L179.079 127.919Z" fill="black" stroke="black" stroke-width="1.5" stroke-linecap="round" stroke-linejoin="round"></path><path d="M193.501 129.816C193.501 129.816 198.14 136.103 196.818 140.868C195.495 145.632 190.295 153.496 191.143 156.188C191.992 158.923 196.377 159.75 196.377 159.75" stroke="black" stroke-width="1.5" stroke-miterlimit="10" stroke-linecap="round" stroke-linejoin="round"></path><path d="M206.48 137.647C213.289 131.184 218.148 135.353 219.878 137.647L222.136 136.037" stroke="black" stroke-width="1.5" stroke-miterlimit="10" stroke-linecap="round" stroke-linejoin="round"></path><path d="M199.781 156.75C199.781 156.75 198.459 155.36 196.366 156.75" stroke="black" stroke-width="1.5" stroke-miterlimit="10" stroke-linecap="round" stroke-linejoin="round"></path><path d="M214.005 135.507C217.344 136.147 217.09 140.382 214.005 140.382C210.909 140.382 210.667 134.868 214.005 135.507Z" fill="black" stroke="black" stroke-width="1.5" stroke-linecap="round" stroke-linejoin="round"></path><path d="M193.215 137.404C193.215 137.404 190.02 130.533 181.845 136.004L179.872 134.195" stroke="black" stroke-width="1.5" stroke-miterlimit="10" stroke-linecap="round" stroke-linejoin="round"></path><path d="M188.852 135.408C192.19 136.048 191.937 140.283 188.852 140.283C185.767 140.283 185.513 134.768 188.852 135.408Z" fill="black" stroke="black" stroke-width="1.5" stroke-linecap="round" stroke-linejoin="round"></path><path d="M192.917 166.224C192.102 166.776 189.392 172.599 197.435 172.864C203.175 173.052 206.282 169.114 210.568 165.717C204.838 170.768 199.429 171.529 195.418 170.537C191.055 169.456 193.622 166.268 193.622 166.268L192.917 166.224Z" fill="black" stroke="black" stroke-width="1.5" stroke-linecap="round" stroke-linejoin="round"></path><path d="M190.207 165.452C195.716 166.577 200.387 166.919 210.568 165.717C206.822 166.169 203.748 166.191 201.875 165.717C196.146 164.272 196.553 165.927 196.013 165.717C192.642 163.853 193.49 165.728 190.207 165.452Z" fill="black" stroke="black" stroke-width="1.5" stroke-linecap="round" stroke-linejoin="round"></path><path d="M210.513 256.919C210.513 256.919 240.58 227.713 242.222 201C251.895 204.342 264.356 212.36 264.356 212.36L248.755 218.967L254.451 226.081C254.451 226.07 245.758 241.257 210.513 256.919Z" fill="white" stroke="black" stroke-width="1.5" stroke-linecap="round" stroke-linejoin="round"></path><path d="M210.513 256.919C197.941 230.063 201.445 204.64 202.602 199.577C193.578 206.658 183.927 212.603 183.299 213.077L191.066 218.283L182.979 225.177C182.979 225.177 196.884 251.393 210.513 256.919Z" fill="white" stroke="black" stroke-width="1.5" stroke-linecap="round" stroke-linejoin="round"></path><path d="M210.513 256.919C210.513 256.919 205.433 292.643 207.009 315.044" stroke="black" stroke-width="1.5" stroke-linecap="round" stroke-linejoin="round"></path><path d="M214.314 88.6986C255.509 84.9596 258.362 133.257 260.037 143.063C261.282 150.287 266.615 158.493 280.982 155.195C277.544 162.232 273.798 166.478 263.629 164.393C273.049 177.662 272.818 181.324 268.344 186.364C263.552 191.757 261.37 198.893 270.945 202.643C261.073 202.941 256.996 198.971 257.228 192.673C257.525 184.654 257.04 184.324 254.451 179.504C253.493 189.022 253.812 191.195 250.011 196.842C246.056 202.71 248.336 208.654 252.975 212.162C240.855 209.195 235.655 201.397 238.883 189.342C241.219 180.629 239.059 176.934 237.605 172.886C235.809 192.949 221.299 189.651 221.299 189.651C221.299 189.651 226.764 186.474 228.031 177.518C229 170.702 221.2 166.842 220.307 161.724C219.415 156.607 223.15 155.438 225.64 142.555C228.13 129.673 217.707 121.5 211.603 113.272C205.488 105.033 209.642 98.7464 209.642 98.7464C209.642 98.7464 199.275 101.691 197.071 107.581C191.827 121.61 181.073 130.831 172.546 132.441C177.03 124.026 171.201 119.283 177.382 108.651C181.911 100.853 191.628 93.5956 198.096 91.5772C206.072 89.0846 208.948 89.5809 214.314 88.6986Z" fill="black" stroke="black" stroke-width="1.5" stroke-linecap="round" stroke-linejoin="round"></path><path d="M206.315 102.794C207.042 100.434 208.948 92.2941 214.986 87.0552" stroke="white" stroke-width="1.5" stroke-linecap="round" stroke-linejoin="round"></path><path d="M257.635 159.96C259.905 163.445 265.182 166.765 269.49 166.643" stroke="white" stroke-width="1.5" stroke-linecap="round" stroke-linejoin="round"></path><path d="M232.889 156.64C232.239 161.813 233.506 167.404 236.36 171.772C239.225 176.151 245.196 180.54 250.529 177.485C246.419 175.71 243.444 170.636 242.949 166.191C242.255 160.026 244.59 154.5 245.923 148.654C247.301 142.599 247.598 136.302 246.761 130.147" stroke="white" stroke-width="1.5" stroke-linecap="round" stroke-linejoin="round"></path><path d="M298.489 329.482C298.489 328.853 311.931 321.066 325.163 329.482" stroke="black" stroke-width="1.5" stroke-linecap="round" stroke-linejoin="round"></path><path d="M297.751 384.154C291.834 382.357 287.835 363.706 292.077 351.927C295.757 341.691 307.05 337.963 311.303 338.25C320.447 338.89 313.826 379.423 297.751 384.154Z" fill="black" stroke="black" stroke-width="1.5" stroke-linecap="round" stroke-linejoin="round"></path><path d="M222.489 242.46C218.027 244.257 211.493 244.632 207.692 240.717C203.891 236.813 199.792 228.143 198.636 221.526C197.479 214.897 198.9 209.272 206.678 205.29C215.371 200.846 222.731 202.169 226.158 207.971C229.584 213.772 236.514 228.496 233.826 233.592C231.138 238.688 226.951 240.662 222.489 242.46Z" fill="black" stroke="black" stroke-width="1.5" stroke-linecap="round" stroke-linejoin="round"></path><path d="M203.792 248.614C204.244 249.331 216.01 279.287 216.01 279.287L248.997 262.445L236.999 231.816L203.792 248.614Z" fill="#5148F9" stroke="#5148F9" stroke-width="1.5" stroke-linecap="round" stroke-linejoin="round"></path><path d="M248.997 262.445L260.852 267.353C260.852 267.353 248.744 238.357 248.766 238.037C248.788 237.717 236.999 231.816 236.999 231.816L248.997 262.445Z" fill="#5148F9" stroke="#5148F9" stroke-width="1.5" stroke-linecap="round" stroke-linejoin="round"></path><path d="M216.01 279.287L227.998 282.188L260.852 267.353L248.997 262.445L216.01 279.287Z" fill="#5148F9" stroke="#5148F9" stroke-width="1.5" stroke-linecap="round" stroke-linejoin="round"></path><path d="M216.01 279.287L248.997 262.445L236.999 231.816" stroke="black" stroke-width="1.5" stroke-linecap="round" stroke-linejoin="round"></path><path d="M260.852 267.353L248.997 262.445" stroke="black" stroke-width="1.5" stroke-linecap="round" stroke-linejoin="round"></path><path d="M263.199 321.64C280.85 354.596 296.814 377.184 307.942 381.838C319.07 386.504 332.732 362.912 311.303 338.25C301.849 330.684 281.731 316.721 278.327 306.342C272.895 289.842 272.785 282.585 267.32 278.305C263.354 275.206 260.191 273.408 253.371 270.993L243.896 287.614L263.199 321.64Z" fill="white" stroke="black" stroke-width="1.5" stroke-linecap="round" stroke-linejoin="round"></path><path d="M233.804 276.64C233.804 276.64 252.369 326.018 254.033 327.684C255.696 329.349 263.287 328.963 266.56 323.967C268.256 321.772 266.824 319.511 265.513 316.434C263.629 312.022 246.463 271.699 246.463 271.699L233.804 276.64Z" fill="#5148F9" stroke="#5148F9" stroke-width="1.5" stroke-linecap="round" stroke-linejoin="round"></path><path d="M253.691 327.132C252.92 325.732 254.661 321.011 259.585 319.952" stroke="black" stroke-width="1.5" stroke-linecap="round" stroke-linejoin="round"></path><path d="M258.44 298.235L268.311 321.022C268.311 321.022 267.893 325.291 263.376 327.541" stroke="black" stroke-width="1.5" stroke-linecap="round" stroke-linejoin="round"></path><path d="M330.528 346.566C321.868 333 310.487 326.57 302.389 331.335C321.692 344.956 317.77 379.842 297.762 384.154C324.854 392.25 338.88 377.482 341.138 367.732" fill="white"></path><path d="M330.528 346.566C321.868 333 310.487 326.57 302.389 331.335C321.692 344.956 317.77 379.842 297.762 384.154C324.854 392.25 338.88 377.482 341.138 367.732" stroke="black" stroke-width="1.5" stroke-linecap="round" stroke-linejoin="round"></path><path d="M258.44 272.945C254.462 270.86 251.157 270.441 249.152 270.651C242.453 271.335 231.589 274.555 230.466 278.162C229.342 281.768 223.216 293.173 227.381 293.691C231.545 294.21 237.44 281.36 237.44 281.36L248.039 278.901" fill="white"></path><path d="M258.44 272.945C254.462 270.86 251.157 270.441 249.152 270.651C242.453 271.335 231.589 274.555 230.466 278.162C229.342 281.768 223.216 293.173 227.381 293.691C231.545 294.21 237.44 281.36 237.44 281.36L248.039 278.901" stroke="black" stroke-width="1.5" stroke-linecap="round" stroke-linejoin="round"></path><path d="M252.171 276.651C252.171 276.651 240.007 278.868 237.98 280.621C235.941 282.375 233.187 289.324 234.157 292.842C234.917 295.599 236.349 299.757 239.048 299.029C241.748 298.302 239.985 294.033 242.519 290.063C245.053 286.092 252.16 287.283 252.16 287.283" fill="white"></path><path d="M252.171 276.651C252.171 276.651 240.007 278.868 237.98 280.621C235.941 282.375 233.187 289.324 234.157 292.842C234.917 295.599 236.349 299.757 239.048 299.029C241.748 298.302 239.985 294.033 242.519 290.063C245.053 286.092 252.16 287.283 252.16 287.283" stroke="black" stroke-width="1.5" stroke-linecap="round" stroke-linejoin="round"></path><path d="M257.018 281.636C257.018 281.636 245.879 283.665 243.819 284.901C241.77 286.136 238.167 292.324 238.024 294.121C237.881 295.919 238.178 303.695 241.241 304.103C244.304 304.511 245.406 297.739 245.406 297.739L248.931 293.813L256.842 294.419" fill="white"></path><path d="M257.018 281.636C257.018 281.636 245.879 283.665 243.819 284.901C241.77 286.136 238.167 292.324 238.024 294.121C237.881 295.919 238.178 303.695 241.241 304.103C244.304 304.511 245.406 297.739 245.406 297.739L248.931 293.813L256.842 294.419" stroke="black" stroke-width="1.5" stroke-linecap="round" stroke-linejoin="round"></path><path d="M260.919 288.342C260.919 288.342 247.885 290.415 246.056 291.993C244.227 293.57 241.825 298.081 241.483 302.272C241.076 306.154 243.973 307.666 245.218 306.838C246.761 302.151 250.815 298.985 250.815 298.985L262.758 297.827" fill="white"></path><path d="M260.919 288.342C260.919 288.342 247.885 290.415 246.056 291.993C244.227 293.57 241.825 298.081 241.483 302.272C241.076 306.154 243.973 307.666 245.218 306.838C246.761 302.151 250.815 298.985 250.815 298.985L262.758 297.827" stroke="black" stroke-width="1.5" stroke-linecap="round" stroke-linejoin="round"></path></g><path d="M15.7086 127.103V86.614C15.7086 83.0295 18.6063 80.1287 22.187 80.1287H62.633" stroke="#5148F9" stroke-width="1.5" stroke-linecap="round" stroke-linejoin="round"></path><path d="M62.633 360.143H22.187C18.6063 360.143 15.7086 357.243 15.7086 353.658V313.18" stroke="#5148F9" stroke-width="1.5" stroke-linecap="round" stroke-linejoin="round"></path><path d="M338.031 80.1287H384.956V127.103" stroke="#5148F9" stroke-width="1.5" stroke-linecap="round" stroke-linejoin="round"></path><path d="M384.956 313.169V353.647C384.956 357.232 382.058 360.132 378.477 360.132H338.042" stroke="#5148F9" stroke-width="1.5" stroke-linecap="round" stroke-linejoin="round"></path><path d="M155.171 360.143C157.41 360.143 159.225 357.151 159.225 353.46C159.225 349.768 157.41 346.776 155.171 346.776C152.931 346.776 151.116 349.768 151.116 353.46C151.116 357.151 152.931 360.143 155.171 360.143Z" stroke="#5148F9" stroke-width="1.5" stroke-linecap="round" stroke-linejoin="round"></path><path d="M166.673 360.143C168.912 360.143 170.728 357.151 170.728 353.46C170.728 349.768 168.912 346.776 166.673 346.776C164.434 346.776 162.619 349.768 162.619 353.46C162.619 357.151 164.434 360.143 166.673 360.143Z" stroke="#5148F9" stroke-width="1.5" stroke-linecap="round" stroke-linejoin="round"></path><path d="M176.391 351.651C176.391 351.739 176.391 351.838 176.391 351.926" stroke="#5148F9" stroke-width="1.5" stroke-linecap="round" stroke-linejoin="round"></path><path d="M176.391 355.963C176.391 356.051 176.391 356.151 176.391 356.239" stroke="#5148F9" stroke-width="1.5" stroke-linecap="round" stroke-linejoin="round"></path><path d="M202.767 351.651C202.767 351.739 202.767 351.838 202.767 351.926" stroke="#5148F9" stroke-width="1.5" stroke-linecap="round" stroke-linejoin="round"></path><path d="M202.767 355.963C202.767 356.051 202.767 356.151 202.767 356.239" stroke="#5148F9" stroke-width="1.5" stroke-linecap="round" stroke-linejoin="round"></path><path d="M228.372 351.651C228.372 351.739 228.372 351.838 228.372 351.926" stroke="#5148F9" stroke-width="1.5" stroke-linecap="round" stroke-linejoin="round"></path><path d="M228.372 355.963C228.372 356.051 228.372 356.151 228.372 356.239" stroke="#5148F9" stroke-width="1.5" stroke-linecap="round" stroke-linejoin="round"></path><path d="M186.108 360.143C188.348 360.143 190.163 357.151 190.163 353.46C190.163 349.768 188.348 346.776 186.108 346.776C183.869 346.776 182.054 349.768 182.054 353.46C182.054 357.151 183.869 360.143 186.108 360.143Z" stroke="#5148F9" stroke-width="1.5" stroke-linecap="round" stroke-linejoin="round"></path><path d="M192.928 353.46L197.104 346.776V359.581" stroke="#5148F9" stroke-width="1.5" stroke-linecap="round" stroke-linejoin="round"></path><path d="M208.43 353.46L212.595 346.776V359.581" stroke="#5148F9" stroke-width="1.5" stroke-linecap="round" stroke-linejoin="round"></path><path d="M222.081 346.776H217.355L217.288 351.926C217.288 351.926 222.709 350.393 222.709 355.268C222.709 360.143 217.145 359.581 217.145 359.581" stroke="#5148F9" stroke-width="1.5" stroke-linecap="round" stroke-linejoin="round"></path><path d="M234.674 346.776C234.674 346.776 239.61 345.463 239.952 348.794C240.26 351.75 235.688 351.926 235.688 351.926C235.688 351.926 240.646 351.651 240.095 356.239C239.577 360.551 234.024 359.581 234.024 359.581" stroke="#5148F9" stroke-width="1.5" stroke-linecap="round" stroke-linejoin="round"></path><path d="M243.301 346.776H249.548L244.48 359.581" stroke="#5148F9" stroke-width="1.5" stroke-linecap="round" stroke-linejoin="round"></path><path d="M32.4115 104.416C35.4478 104.416 37.9093 101.951 37.9093 98.9118C37.9093 95.8722 35.4478 93.4081 32.4115 93.4081C29.3751 93.4081 26.9136 95.8722 26.9136 98.9118C26.9136 101.951 29.3751 104.416 32.4115 104.416Z" fill="#5148F9" stroke="#5148F9" stroke-width="1.5" stroke-linecap="round" stroke-linejoin="round"></path><path d="M43.6055 94.2243V103.61H48.6075" stroke="#5148F9" stroke-width="1.5" stroke-linecap="round" stroke-linejoin="round"></path><path d="M51.9899 94.2243V103.61" stroke="#5148F9" stroke-width="1.5" stroke-linecap="round" stroke-linejoin="round"></path><path d="M70.3895 103.61H65.3765V94.2243H70.3895" stroke="#5148F9" stroke-width="1.5" stroke-linecap="round" stroke-linejoin="round"></path><path d="M70.3895 97.9523H65.3765" stroke="#5148F9" stroke-width="1.5" stroke-linecap="round" stroke-linejoin="round"></path><path d="M55.3724 94.2243L58.887 103.61L61.994 94.2243" stroke="#5148F9" stroke-width="1.5" stroke-linecap="round" stroke-linejoin="round"></path><path d="M390.949 373.765H9.71501C5.50625 373.765 2.10178 370.357 2.10178 366.143V74.1177C2.10178 69.9044 5.50625 66.4963 9.71501 66.4963H390.949C395.158 66.4963 398.563 69.9044 398.563 74.1177V366.143C398.563 370.357 395.158 373.765 390.949 373.765Z" stroke="#5148F9" stroke-width="1.5" stroke-linecap="round" stroke-linejoin="round"></path><path d="M483.542 283.864H346.746C341.568 283.864 338.031 281.085 338.031 275.14V9.95956C338.031 4.15809 341.149 1.23529 346.746 1.23529H483.553C489.481 1.23529 492.268 4.57721 492.268 9.95956V275.151C492.257 280.665 489.205 283.864 483.542 283.864Z" fill="#5148F9" stroke="#5148F9" stroke-width="1.5" stroke-linecap="round" stroke-linejoin="round"></path><path d="M334.572 39.4081H338.031V80.1287H334.572C333.371 80.1287 332.39 79.5772 332.39 77.9448V41.5919C332.39 39.8713 333.371 39.4081 334.572 39.4081Z" fill="#5148F9" stroke="#5148F9" stroke-width="1.5" stroke-linecap="round" stroke-linejoin="round"></path><path d="M495.717 80.1287H492.257V39.4081H495.717C496.918 39.4081 497.898 39.9596 497.898 41.5919V77.9448C497.898 79.6654 496.918 80.1287 495.717 80.1287Z" fill="#5148F9" stroke="#5148F9" stroke-width="1.5" stroke-linecap="round" stroke-linejoin="round"></path><path d="M334.572 92.1948H338.031V132.915H334.572C333.371 132.915 332.39 132.364 332.39 130.732V94.3787C332.39 92.6581 333.371 92.1948 334.572 92.1948Z" fill="#5148F9" stroke="#5148F9" stroke-width="1.5" stroke-linecap="round" stroke-linejoin="round"></path><path d="M337.029 39.4081V132.915" stroke="black" stroke-width="1.5" stroke-linecap="round" stroke-linejoin="round"></path><path d="M493.095 39.4081V80.1287" stroke="black" stroke-width="1.5" stroke-linecap="round" stroke-linejoin="round"></path><path d="M484.091 275.696L484.091 9.41302L346.205 9.41302L346.205 275.696H484.091Z" fill="white" stroke="black" stroke-width="1.5" stroke-linecap="round" stroke-linejoin="round"></path><path d="M446.886 156.452H467.104" stroke="#5148F9" stroke-width="1.5" stroke-linecap="round" stroke-linejoin="round"></path><path d="M432.299 156.452H441.047" stroke="#5148F9" stroke-width="1.5" stroke-linecap="round" stroke-linejoin="round"></path><path d="M417.359 156.452H425.666" stroke="#5148F9" stroke-width="1.5" stroke-linecap="round" stroke-linejoin="round"></path><path d="M387.457 156.452H410.297" stroke="#5148F9" stroke-width="1.5" stroke-linecap="round" stroke-linejoin="round"></path><path d="M382.807 159.96C384.625 161.746 382.807 163.478 382.807 163.478" stroke="#5148F9" stroke-width="1.5" stroke-linecap="round" stroke-linejoin="round"></path><path d="M358.381 156.452H378.158" stroke="#5148F9" stroke-width="1.5" stroke-linecap="round" stroke-linejoin="round"></path><path d="M456.328 169.522H472.458" stroke="#5148F9" stroke-width="1.5" stroke-linecap="round" stroke-linejoin="round"></path><path d="M437.686 169.522H448.308" stroke="#5148F9" stroke-width="1.5" stroke-linecap="round" stroke-linejoin="round"></path><path d="M424.62 169.522H431.318" stroke="#5148F9" stroke-width="1.5" stroke-linecap="round" stroke-linejoin="round"></path><path d="M419.915 174.949H420.543" stroke="#5148F9" stroke-width="1.5" stroke-linecap="round" stroke-linejoin="round"></path><path d="M398.012 169.522H416.566" stroke="#5148F9" stroke-width="1.5" stroke-linecap="round" stroke-linejoin="round"></path><path d="M358.381 169.522H390.883" stroke="#5148F9" stroke-width="1.5" stroke-linecap="round" stroke-linejoin="round"></path><path d="M446.082 182.581H456.328" stroke="#5148F9" stroke-width="1.5" stroke-linecap="round" stroke-linejoin="round"></path><path d="M409.933 182.581H439.46" stroke="#5148F9" stroke-width="1.5" stroke-linecap="round" stroke-linejoin="round"></path><path d="M378.257 182.581H402.782" stroke="#5148F9" stroke-width="1.5" stroke-linecap="round" stroke-linejoin="round"></path><path d="M358.381 182.581H371.503" stroke="#5148F9" stroke-width="1.5" stroke-linecap="round" stroke-linejoin="round"></path><path d="M441.047 234.783H459.755" stroke="#5148F9" stroke-width="1.5" stroke-linecap="round" stroke-linejoin="round"></path><path d="M395.103 234.783H433.852" stroke="#5148F9" stroke-width="1.5" stroke-linecap="round" stroke-linejoin="round"></path><path d="M358.381 234.783H388.107" stroke="#5148F9" stroke-width="1.5" stroke-linecap="round" stroke-linejoin="round"></path><path d="M371.79 221.713H358.381" stroke="#5148F9" stroke-width="1.5" stroke-linecap="round" stroke-linejoin="round"></path><path d="M398.574 221.713H377.64" stroke="#5148F9" stroke-width="1.5" stroke-linecap="round" stroke-linejoin="round"></path><path d="M423.947 221.713H408.071" stroke="#5148F9" stroke-width="1.5" stroke-linecap="round" stroke-linejoin="round"></path><path d="M441.267 221.713H429.611" stroke="#5148F9" stroke-width="1.5" stroke-linecap="round" stroke-linejoin="round"></path><path d="M472.458 221.713H447.602" stroke="#5148F9" stroke-width="1.5" stroke-linecap="round" stroke-linejoin="round"></path><path d="M403.466 225.607C405.283 227.393 403.466 229.125 403.466 229.125" stroke="#5148F9" stroke-width="1.5" stroke-linecap="round" stroke-linejoin="round"></path><path d="M382.984 208.654H358.381" stroke="#5148F9" stroke-width="1.5" stroke-linecap="round" stroke-linejoin="round"></path><path d="M412.665 208.654H388.955" stroke="#5148F9" stroke-width="1.5" stroke-linecap="round" stroke-linejoin="round"></path><path d="M431.88 208.654H419.463" stroke="#5148F9" stroke-width="1.5" stroke-linecap="round" stroke-linejoin="round"></path><path d="M458.719 208.654H437.808" stroke="#5148F9" stroke-width="1.5" stroke-linecap="round" stroke-linejoin="round"></path><path d="M463.644 213.717H463.016" stroke="#5148F9" stroke-width="1.5" stroke-linecap="round" stroke-linejoin="round"></path><path d="M449.112 199.125C450.93 200.912 449.112 202.643 449.112 202.643" stroke="#5148F9" stroke-width="1.5" stroke-linecap="round" stroke-linejoin="round"></path><path d="M395.103 195.585H358.381" stroke="#5148F9" stroke-width="1.5" stroke-linecap="round" stroke-linejoin="round"></path><path d="M446.203 195.585H402.65" stroke="#5148F9" stroke-width="1.5" stroke-linecap="round" stroke-linejoin="round"></path><path d="M472.458 195.585H453.188" stroke="#5148F9" stroke-width="1.5" stroke-linecap="round" stroke-linejoin="round"></path><path d="M459.865 247.853H472.458" stroke="#5148F9" stroke-width="1.5" stroke-linecap="round" stroke-linejoin="round"></path><path d="M442.898 247.853H454.015" stroke="#5148F9" stroke-width="1.5" stroke-linecap="round" stroke-linejoin="round"></path><path d="M375.888 247.853H435.571" stroke="#5148F9" stroke-width="1.5" stroke-linecap="round" stroke-linejoin="round"></path><path d="M358.381 247.853H369.751" stroke="#5148F9" stroke-width="1.5" stroke-linecap="round" stroke-linejoin="round"></path><path d="M450.665 260.923H467.104" stroke="#5148F9" stroke-width="1.5" stroke-linecap="round" stroke-linejoin="round"></path><path d="M437.587 260.923H444.297" stroke="#5148F9" stroke-width="1.5" stroke-linecap="round" stroke-linejoin="round"></path><path d="M410.991 260.923H429.544" stroke="#5148F9" stroke-width="1.5" stroke-linecap="round" stroke-linejoin="round"></path><path d="M358.381 260.923H403.862" stroke="#5148F9" stroke-width="1.5" stroke-linecap="round" stroke-linejoin="round"></path><path d="M417.557 128.448H386.135V132.662H417.557V128.448Z" fill="#5148F9" stroke="#5148F9" stroke-width="1.5" stroke-linecap="round" stroke-linejoin="round"></path><path d="M450.313 128.448H422.383V132.662H450.313V128.448Z" fill="#5148F9" stroke="#5148F9" stroke-width="1.5" stroke-linecap="round" stroke-linejoin="round"></path><path d="M386.135 139.776H409.074" stroke="#5148F9" stroke-width="1.5" stroke-linecap="round" stroke-linejoin="round"></path><path d="M380.119 134.107C380.119 137.151 378.896 139.919 376.913 141.926C374.897 143.978 372.076 145.246 368.969 145.246C365.873 145.246 363.064 143.978 361.047 141.937C359.064 139.919 357.841 137.151 357.841 134.107C357.841 127.952 362.821 122.956 368.98 122.956C375.117 122.967 380.119 127.952 380.119 134.107Z" stroke="#5148F9" stroke-width="1.5" stroke-linecap="round" stroke-linejoin="round"></path><path d="M368.969 136.886C371.081 136.886 372.792 135.173 372.792 133.059C372.792 130.945 371.081 129.232 368.969 129.232C366.858 129.232 365.146 130.945 365.146 133.059C365.146 135.173 366.858 136.886 368.969 136.886Z" fill="#5148F9" stroke="#5148F9" stroke-width="1.5" stroke-linecap="round" stroke-linejoin="round"></path><path d="M376.913 141.937C374.897 143.989 372.076 145.257 368.969 145.257C365.873 145.257 363.064 143.989 361.047 141.948C362.48 138.982 365.543 136.941 368.969 136.886C372.407 136.831 375.481 138.926 376.913 141.937Z" fill="#5148F9" stroke="#5148F9" stroke-width="1.5" stroke-linecap="round" stroke-linejoin="round"></path><path d="M365.884 136.875C365.884 136.875 368.969 139.048 372.274 136.875" stroke="black" stroke-width="1.5" stroke-linecap="round" stroke-linejoin="round"></path><mask id="mask1_24643_20421" style="mask-type:luminance" maskUnits="userSpaceOnUse" x="346" y="9" width="139" height="104"><path d="M484.097 112.555V9.40778L346.211 9.40778V112.555L484.097 112.555Z" fill="white"></path></mask><g mask="url(#mask1_24643_20421)"><path d="M385.165 115.776C380.35 113.746 383.986 99.8603 387.093 100.07C390.2 100.279 390.619 114.165 385.165 115.776Z" fill="black" stroke="black" stroke-width="1.5" stroke-linecap="round" stroke-linejoin="round"></path><path d="M372.991 99.2647C376.042 102.165 386.267 112.654 389.374 114.199C392.492 115.743 393.649 112.059 392.183 107.305C390.718 102.551 387.633 100.566 387.633 100.566C387.633 100.566 378.94 95.8456 377.596 93.8382C376.263 91.8309 375.326 89.4154 372.583 89.0184C369.839 88.6213 367.162 87.3419 365.961 86.0074C364.76 84.6728 363.824 83.5257 363.152 83.8677C362.48 84.2096 363.008 86.5037 364.276 87.9265C365.543 89.3603 367.603 90.4081 367.834 91.0037C368.066 91.5993 364.485 93.4412 364.485 93.4412L365.851 96.9706C365.851 96.9706 371.36 97.7316 372.991 99.2647Z" fill="white" stroke="black" stroke-width="1.5" stroke-linecap="round" stroke-linejoin="round"></path><path d="M369.035 97.6324C367.823 97.4449 358.811 95.7353 357.136 93.1765C355.208 90.2316 354.955 88.5882 353.434 86.1618C352.883 85.2905 354.305 84.2868 355.472 85.0699C355.517 84.8603 355.186 84.011 355.957 83.8015C356.662 83.614 357.268 84.1103 357.797 84.9596C357.841 84.4632 357.973 84.1103 358.194 84.0111C359.24 83.5037 360.133 84.9596 361.036 86.5368C361.94 88.114 362.766 91.6213 367.427 92.9559C369.112 93.4412 371.79 93.2096 373.09 94.0588" fill="white"></path><path d="M369.035 97.6324C367.823 97.4449 358.811 95.7353 357.136 93.1765C355.208 90.2316 354.955 88.5882 353.434 86.1618C352.883 85.2905 354.305 84.2868 355.472 85.0699C355.517 84.8603 355.186 84.011 355.957 83.8015C356.662 83.614 357.268 84.1103 357.797 84.9596C357.841 84.4632 357.973 84.1103 358.194 84.0111C359.24 83.5037 360.133 84.9596 361.036 86.5368C361.94 88.114 362.766 91.6213 367.427 92.9559C369.112 93.4412 371.79 93.2096 373.09 94.0588" stroke="black" stroke-width="1.5" stroke-linecap="round" stroke-linejoin="round"></path><path d="M461.749 114.971C461.992 114.342 462.157 113.724 462.256 113.162C462.895 109.489 462.047 106.136 460.724 101.625C459.634 97.9302 453.387 78.8382 451.668 72.6397C449.96 66.4302 447.074 64.4007 443.328 63.4301C439.581 62.4706 434.844 61.5 434.844 61.5L408.446 61.7426C408.446 61.7426 399.885 63.1434 397.384 65.239C394.883 67.3346 394.299 68.4154 392.646 76.2684C390.993 84.1213 387.732 101.096 387.732 101.096C387.732 101.096 391.159 112.654 385.165 115.765C395.533 120.044 401.306 117.265 403.025 115.015L438.05 94.7316L461.749 114.971Z" fill="#5148F9" stroke="#5148F9" stroke-width="1.5" stroke-linecap="round" stroke-linejoin="round"></path><path d="M395.929 74.2831C395.929 74.2831 398.067 75.8162 398.001 81.7941C397.935 87.772 395.081 113.272 402.419 117.132C402.419 117.132 405.427 118.147 408.446 117.132C411.145 118.842 420.774 119.493 425.369 117.585C432.211 119.614 436.298 118.588 438.094 115.842C445.256 104.868 438.766 87.9596 444.826 74.2831" fill="#5148F9"></path><path d="M395.929 74.2831C395.929 74.2831 398.067 75.8162 398.001 81.7941C397.935 87.772 395.081 113.272 402.419 117.132C402.419 117.132 405.427 118.147 408.446 117.132C411.145 118.842 420.774 119.493 425.369 117.585C432.211 119.614 436.298 118.588 438.094 115.842C445.256 104.868 438.766 87.9596 444.826 74.2831" stroke="black" stroke-width="1.5" stroke-linecap="round" stroke-linejoin="round"></path><path d="M387.082 100.07C390.883 99.1544 394.883 108.386 394.883 108.386L387.082 100.07Z" fill="#5148F9"></path><path d="M387.082 100.07C390.883 99.1544 394.883 108.386 394.883 108.386" stroke="black" stroke-width="1.5" stroke-linecap="round" stroke-linejoin="round"></path><path d="M447.283 119.801C445.278 119.195 445.201 114.474 446.644 110.471C447.889 106.996 450.445 104.129 451.888 104.228C454.984 104.449 452.737 118.202 447.283 119.801Z" fill="black" stroke="black" stroke-width="1.5" stroke-linecap="round" stroke-linejoin="round"></path></g><mask id="mask2_24643_20421" style="mask-type:luminance" maskUnits="userSpaceOnUse" x="346" y="9" width="139" height="104"><path d="M484.097 112.555V9.40778L346.211 9.40778V112.555L484.097 112.555Z" fill="white"></path></mask><g mask="url(#mask2_24643_20421)"><path d="M418.967 19.5552C405.548 20.1618 402.11 30.9155 402.463 34.8861C402.705 37.5883 402.617 39.9486 401.449 41.7684C400.281 43.5883 397.219 44.603 398.133 48.8162C398.904 52.3897 400.81 52.6655 400.81 52.6655C400.81 52.6655 398.133 48.8162 402.265 45.9044C402.21 48.5515 403.278 49.489 404.149 52.1692C404.777 54.1103 404.325 56.2941 401.229 57.6728C405.085 58.9412 407.851 55.3787 408.468 53.9118C408.269 56.0515 405.956 64.5331 417.116 62.0956L418.967 19.5552Z" fill="black" stroke="black" stroke-width="1.5" stroke-linecap="round" stroke-linejoin="round"></path><path d="M414.032 51.375C414.175 51.5295 415.376 56.5147 414.836 57.8824C414.285 59.25 412.963 59.9118 412.963 59.9118C412.963 59.9118 410.858 69.4192 411.079 69.7721C411.288 70.125 415.155 76.6214 416.522 76.9743C417.403 77.2059 424.454 69.0552 428.972 64.5221C431.439 62.0405 432.806 61.8971 432.806 61.8971C432.806 61.8971 428.85 60.5736 428.388 57.8824C427.671 53.7022 426.911 42.3309 426.911 42.3309L414.032 51.375Z" fill="white" stroke="black" stroke-width="1.5" stroke-linecap="round" stroke-linejoin="round"></path><path d="M426.404 28.2133C422.515 21.2537 413.172 18.1434 407.63 29.3714C406.341 32.4486 407.443 34.5773 407.19 35.9339C406.661 38.6692 406.341 39.5956 407.024 42.5405C407.531 44.8015 409.757 50.3714 412.07 52.092C414.66 53.8898 420.323 51.6177 422.923 48.1655C424.476 46.103 424.895 43.7647 424.895 43.7647L426.404 28.2133Z" fill="white" stroke="black" stroke-width="1.5" stroke-linecap="round" stroke-linejoin="round"></path><path d="M423.099 33.8713C423.099 33.8713 420.962 32.2169 418.923 31.9963C417.061 31.7978 414.979 32.7243 414.979 32.7243" stroke="black" stroke-width="1.5" stroke-linecap="round" stroke-linejoin="round"></path><path d="M407.046 33.1986L407.013 32.8566C407.013 32.8566 409.724 31.0589 411.839 33.3861C412.687 34.3236 413.293 34.9192 413.029 37.2574C412.577 38.8787 410.814 41.5478 411.101 42.4522C411.387 43.3787 412.875 43.6655 412.875 43.6655" stroke="black" stroke-width="1.5" stroke-miterlimit="10" stroke-linecap="round" stroke-linejoin="round"></path><path d="M416.312 36.1544C418.626 33.9596 420.565 35.4486 421.16 36.2317" stroke="black" stroke-width="1.5" stroke-miterlimit="10" stroke-linecap="round" stroke-linejoin="round"></path><path d="M418.857 35.4265C419.992 35.6471 419.904 37.0809 418.857 37.0809C417.811 37.0809 417.733 35.217 418.857 35.4265Z" fill="black" stroke="black" stroke-width="1.5" stroke-linecap="round" stroke-linejoin="round"></path><path d="M411.806 36.0772C411.806 36.0772 410.726 33.75 407.95 35.603L407.278 34.9853" stroke="black" stroke-width="1.5" stroke-miterlimit="10" stroke-linecap="round" stroke-linejoin="round"></path><path d="M410.33 35.3934C411.464 35.614 411.376 37.0479 410.33 37.0479C409.283 37.0479 409.195 35.1839 410.33 35.3934Z" fill="black" stroke="black" stroke-width="1.5" stroke-linecap="round" stroke-linejoin="round"></path><path d="M411.707 45.8603C411.431 46.0478 410.517 48.0221 413.238 48.1103C415.188 48.1765 416.235 46.8419 417.689 45.6838" stroke="black" stroke-width="1.5" stroke-linecap="round" stroke-linejoin="round"></path><path d="M417.7 45.6839C416.433 45.8383 411.905 45.6839 410.792 45.5956" stroke="black" stroke-width="1.5" stroke-linecap="round" stroke-linejoin="round"></path><path d="M418.967 19.5552C432.949 18.2868 433.907 34.6765 434.48 38.0074C434.899 40.4559 436.717 43.2464 441.587 42.1214C440.419 44.5147 439.152 45.9486 435.703 45.2427C438.898 49.7427 438.821 50.989 437.301 52.6986C435.681 54.5294 434.932 56.9559 438.182 58.2243C434.833 58.3236 434.073 56.3052 434.15 54.1765C434.249 51.4522 433.467 52.0147 432.585 50.3714C433.037 52.1361 431.979 53.7133 431.098 54.6397C429.445 56.3824 429.886 57.7831 431.462 58.9743C428.927 57.4412 427.33 56.5699 427.583 53.3383C427.859 49.7206 427.374 49.5 426.878 48.1214C426.272 54.9265 421.347 53.8125 421.347 53.8125C421.347 53.8125 423.198 52.7316 423.628 49.6986C423.958 47.3824 421.347 46.9081 421.039 45.1765C420.73 43.4449 422.273 42.0772 423.121 37.7096C423.97 33.3419 420.124 30.6949 418.053 27.9044C415.982 25.114 417.381 22.9743 417.381 22.9743C417.381 22.9743 413.106 24.0993 412.544 26.1618C411.486 30.0442 407.685 33.8603 404.799 34.4118C406.319 31.5552 404.347 29.9449 406.44 26.3383C407.983 23.6912 411.277 21.2317 413.47 20.5478C416.169 19.6765 417.15 19.8419 418.967 19.5552Z" fill="black" stroke="black" stroke-width="1.5" stroke-linecap="round" stroke-linejoin="round"></path></g><mask id="mask3_24643_20421" style="mask-type:luminance" maskUnits="userSpaceOnUse" x="346" y="9" width="139" height="104"><path d="M484.097 112.555V9.40778L346.211 9.40778V112.555L484.097 112.555Z" fill="white"></path></mask><g mask="url(#mask3_24643_20421)"><path d="M416.918 76.9742C416.918 76.9742 427.881 66.7169 428.443 57.6507C431.726 58.7867 435.957 61.4999 435.957 61.4999L430.668 63.7389L433.235 67.0698C433.224 67.0698 428.883 71.658 416.918 76.9742Z" fill="#5148F9" stroke="black" stroke-width="1.5" stroke-linecap="round" stroke-linejoin="round"></path><path d="M416.918 76.9742C411.42 66.8823 414.56 60.0772 414.99 57.1765C411.927 59.5809 408.655 61.5993 408.434 61.7537L410.285 63.2647L407.663 66.2757C407.663 66.2647 412.291 75.0992 416.918 76.9742Z" fill="#5148F9" stroke="black" stroke-width="1.5" stroke-linecap="round" stroke-linejoin="round"></path><path d="M416.918 76.9742C416.918 76.9742 415.155 88.9632 415.684 96.5625" stroke="black" stroke-width="1.5" stroke-linecap="round" stroke-linejoin="round"></path></g><mask id="mask4_24643_20421" style="mask-type:luminance" maskUnits="userSpaceOnUse" x="346" y="9" width="139" height="104"><path d="M484.097 112.555V9.40778L346.211 9.40778V112.555L484.097 112.555Z" fill="white"></path></mask><g mask="url(#mask4_24643_20421)"><path d="M424.179 70.2353C422.746 70.7537 420.686 70.7868 419.54 69.5074C418.395 68.228 417.205 65.4486 416.918 63.3419C416.632 61.2353 417.15 59.4817 419.651 58.3236C422.449 57.0331 424.752 57.5294 425.754 59.4044C426.768 61.2794 428.773 66 427.859 67.5772C426.944 69.1545 425.611 69.7169 424.179 70.2353Z" fill="black" stroke="black" stroke-width="1.5" stroke-linecap="round" stroke-linejoin="round"></path><path d="M417.447 72.0662C417.59 72.3199 421.193 82.6324 421.193 82.6324L432.596 77.3493L428.927 66.8052L417.447 72.0662Z" fill="white" stroke="black" stroke-width="1.5" stroke-linecap="round" stroke-linejoin="round"></path><path d="M432.596 77.3493L436.552 79.1692C436.552 79.1692 432.817 69.1765 432.839 69.0773C432.85 68.967 428.927 66.8162 428.927 66.8162L432.596 77.3493Z" fill="white" stroke="black" stroke-width="1.5" stroke-linecap="round" stroke-linejoin="round"></path><path d="M421.193 82.6324L425.226 83.7684L436.552 79.1692L432.596 77.3493L421.193 82.6324Z" fill="white" stroke="black" stroke-width="1.5" stroke-linecap="round" stroke-linejoin="round"></path><path d="M435.56 98.592C441.543 109.776 446.963 117.441 450.742 119.018C454.522 120.596 459.149 112.599 451.888 104.228C448.682 101.658 441.377 97.0478 440.694 93.3971C440.011 89.7464 440.165 84.3309 438.469 82.6986C437.279 81.5515 435.318 80.7464 433.467 80.4265L430.856 86.0625L435.56 98.592Z" fill="white" stroke="black" stroke-width="1.5" stroke-linecap="round" stroke-linejoin="round"></path><path d="M458.4 107.052C455.458 102.452 451.932 100.588 449.189 102.199C454.973 105.982 454.07 118.335 447.283 119.802C456.472 122.548 461.231 117.541 462.003 114.232" fill="#5148F9"></path><path d="M458.4 107.052C455.458 102.452 451.932 100.588 449.189 102.199C454.973 105.982 454.07 118.335 447.283 119.802C456.472 122.548 461.231 117.541 462.003 114.232" stroke="black" stroke-width="1.5" stroke-linecap="round" stroke-linejoin="round"></path><path d="M427.209 81.7721C427.209 81.7721 432.861 98.7574 433.401 99.3419C433.941 99.9265 436.519 99.8934 437.698 98.239C438.303 97.511 437.841 96.7279 437.444 95.6691C436.86 94.1471 431.572 80.25 431.572 80.25L427.209 81.7721Z" fill="black" stroke="black" stroke-width="1.5" stroke-linecap="round" stroke-linejoin="round"></path><path d="M436.805 89.5258C435.946 88.864 434.403 88.6985 433.312 89.228C432.233 89.7574 431.318 90.7831 430.734 92.3493C430.371 92.5589 428.498 91.0809 427.165 87.4632C426.955 86.9007 427.198 86.0184 427.495 85.2243C426.746 86.4044 425.666 87.7831 424.862 87.6508C423.452 87.4191 425.677 83.625 426.107 82.4228C426.537 81.2206 430.261 80.2611 432.541 80.1177C433.224 80.0736 434.348 80.25 435.659 81.0221" fill="white"></path><path d="M436.805 89.5258C435.946 88.864 434.403 88.6985 433.312 89.228C432.233 89.7574 431.318 90.7831 430.734 92.3493C430.371 92.5589 428.498 91.0809 427.165 87.4632C426.955 86.9007 427.198 86.0184 427.495 85.2243C426.746 86.4044 425.666 87.7831 424.862 87.6508C423.452 87.4191 425.677 83.625 426.107 82.4228C426.537 81.2206 430.261 80.2611 432.541 80.1177C433.224 80.0736 434.348 80.25 435.659 81.0221" stroke="black" stroke-width="1.5" stroke-linecap="round" stroke-linejoin="round"></path></g><path d="M484.097 112.555V9.40778L346.211 9.40778V112.555L484.097 112.555Z" stroke="black" stroke-width="1.5" stroke-linecap="round" stroke-linejoin="round"></path></svg> 