<svg width="750" height="500" viewBox="0 0 750 500" fill="none" xmlns="http://www.w3.org/2000/svg">
<rect width="750" height="500" fill="#FAAA19" fill-opacity="0.3"/>
<path d="M557.577 429.01C557.557 428.49 555.797 376.59 547.357 368.39C539.147 360.41 529.727 368.09 529.327 368.42L528.477 367.41C528.587 367.32 539.217 358.64 548.277 367.44C557.097 376.02 558.827 426.81 558.887 428.97L557.567 429.01H557.577Z" fill="#E0E0E0"/>
<path d="M558.306 439.21C558.246 438.59 552.536 376.91 575.066 351.06L576.066 351.93C553.916 377.35 559.566 438.47 559.626 439.08L558.316 439.21H558.306Z" fill="#E0E0E0"/>
<path d="M557.477 432.68L556.157 432.59C556.207 431.89 560.567 362.47 544.047 347.27L544.937 346.3C561.927 361.92 557.667 429.79 557.477 432.68Z" fill="#E0E0E0"/>
<path d="M559.633 432.64H558.312C558.332 430.72 558.853 385.74 571.633 378.42C574.473 376.79 577.253 376.52 579.903 377.61C587.633 380.81 591.452 394.55 591.612 395.14L590.343 395.49C590.303 395.35 586.523 381.78 579.403 378.83C577.153 377.9 574.762 378.15 572.302 379.56C560.182 386.51 559.653 432.18 559.643 432.64H559.633Z" fill="#E0E0E0"/>
<path d="M554.65 432.68L553.33 432.61C553.35 432.26 555.26 397.07 545.76 384.67C543.46 381.67 540.96 380.23 538.32 380.42C532.1 380.85 526.88 389.96 526.83 390.05L525.68 389.4C525.91 389 531.3 379.59 538.23 379.1C541.33 378.88 544.22 380.49 546.81 383.87C556.6 396.66 554.73 431.22 554.65 432.69V432.68Z" fill="#E0E0E0"/>
<path d="M556.73 437.46C556.47 434.05 550.52 353.7 560.99 339.54L562.05 340.32C551.87 354.09 557.98 436.52 558.05 437.35L556.73 437.45V437.46Z" fill="#E0E0E0"/>
<path d="M582.742 385.76C582.742 385.76 576.462 388.08 578.332 393.54C580.202 399.01 600.052 408 600.052 408C600.052 408 608.372 400.38 600.732 387.98C593.092 375.58 582.912 381.85 582.742 385.76Z" fill="#EBEBEB"/>
<path d="M555.438 375.35C555.438 375.35 562.128 375.07 562.508 380.83C562.888 386.59 548.018 402.54 548.018 402.54C548.018 402.54 537.408 398.7 539.688 384.32C541.968 369.94 553.778 371.8 555.438 375.35Z" fill="#EBEBEB"/>
<path d="M549.781 347.77C549.781 347.77 554.241 347.29 553.881 344.58C553.521 341.86 536.551 334.88 526.531 346.18C526.531 346.18 532.941 357.19 542.211 357.34C551.481 357.48 549.771 347.78 549.771 347.78L549.781 347.77Z" fill="#EBEBEB"/>
<path d="M558.088 341.17C558.088 341.17 554.048 343.12 552.918 340.63C551.788 338.14 562.498 323.23 576.968 327.52C576.968 327.52 577.348 340.26 569.558 345.28C561.768 350.3 558.078 341.17 558.078 341.17H558.088Z" fill="#EBEBEB"/>
<path d="M536.981 383.56C536.981 383.56 540.061 381.08 536.741 379.86C533.421 378.65 517.131 378.99 516.961 395.13C516.961 395.13 535.941 398.28 538.291 392.14C540.641 385.99 536.991 383.56 536.991 383.56H536.981Z" fill="#EBEBEB"/>
<path d="M575.669 347.36C575.669 347.36 572.589 344.88 575.909 343.66C579.229 342.45 595.519 342.79 595.689 358.93C595.689 358.93 576.709 362.08 574.359 355.94C572.009 349.79 575.659 347.36 575.659 347.36H575.669Z" fill="#EBEBEB"/>
<path d="M565.637 360.36C565.637 360.36 565.367 357.34 567.807 358.52C570.247 359.7 578.737 368.87 569.937 377.56C569.937 377.56 558.087 368.78 560.217 364.21C562.357 359.64 565.637 360.35 565.637 360.35V360.36Z" fill="#EBEBEB"/>
<path d="M534.232 364.67C534.232 364.67 536.072 362.26 533.382 361.96C530.692 361.66 518.612 364.88 521.432 376.94C521.432 376.94 536.142 375.83 536.772 370.83C537.402 365.82 534.242 364.68 534.242 364.68L534.232 364.67Z" fill="#EBEBEB"/>
<path d="M572.792 445.54H539.402L535.742 417.18H576.342L572.792 445.54Z" fill="#F0F0F0"/>
<path d="M579.202 413.69H532.992V420.68H579.202V413.69Z" fill="#E6E6E6"/>
<path d="M416.312 55.6799H349.492V173.29H416.312V55.6799Z" fill="#E6E6E6"/>
<path d="M413.039 55.6799H334.539V173.29H413.039V55.6799Z" fill="#F0F0F0"/>
<path d="M401.069 66.1199H346.469V162.84H401.069V66.1199Z" fill="white"/>
<path d="M385.03 86.49H363.25V143.01H385.03V86.49Z" fill="#F0F0F0"/>
<path d="M673.727 314.64H492.977C489.747 314.64 487.117 312.01 487.117 308.78V45.4999C487.117 42.2699 489.747 39.6399 492.977 39.6399H673.727C676.957 39.6399 679.587 42.2699 679.587 45.4999V308.78C679.587 312.01 676.957 314.64 673.727 314.64ZM492.987 39.8899C489.897 39.8899 487.377 42.4099 487.377 45.4999V308.78C487.377 311.87 489.897 314.39 492.987 314.39H673.737C676.827 314.39 679.347 311.87 679.347 308.78V45.4999C679.347 42.4099 676.827 39.8899 673.737 39.8899H492.987Z" fill="#E0E0E0"/>
<path d="M465.305 314.64H284.555C281.325 314.64 278.695 312.01 278.695 308.78V45.4999C278.695 42.2699 281.325 39.6399 284.555 39.6399H465.305C468.535 39.6399 471.165 42.2699 471.165 45.4999V308.78C471.165 312.01 468.535 314.64 465.305 314.64ZM284.555 39.8899C281.465 39.8899 278.945 42.4099 278.945 45.4999V308.78C278.945 311.87 281.465 314.39 284.555 314.39H465.305C468.395 314.39 470.915 311.87 470.915 308.78V45.4999C470.915 42.4099 468.395 39.8899 465.305 39.8899H284.555Z" fill="#E0E0E0"/>
<path d="M257.006 314.64H76.2662C73.0362 314.64 70.4062 312.01 70.4062 308.78V45.4999C70.4062 42.2699 73.0362 39.6399 76.2662 39.6399H257.016C260.246 39.6399 262.876 42.2699 262.876 45.4999V308.78C262.876 312.01 260.246 314.64 257.016 314.64H257.006ZM76.2662 39.8899C73.1762 39.8899 70.6562 42.4099 70.6562 45.4999V308.78C70.6562 311.87 73.1762 314.39 76.2662 314.39H257.016C260.106 314.39 262.626 311.87 262.626 308.78V45.4999C262.626 42.4099 260.106 39.8899 257.016 39.8899H76.2662Z" fill="#E0E0E0"/>
<path d="M750 375.71H0V375.83H750V375.71Z" fill="#E0E0E0"/>
<path d="M709.363 405.08H653.633V405.5H709.363V405.08Z" fill="#EBEBEB"/>
<path d="M509.669 409.65H495.039V410.07H509.669V409.65Z" fill="#EBEBEB"/>
<path d="M113.311 392.29H40.6406V392.71H113.311V392.29Z" fill="#EBEBEB"/>
<path d="M138.957 392.29H128.297V392.71H138.957V392.29Z" fill="#EBEBEB"/>
<path d="M331.204 399.39H173.594V399.81H331.204V399.39Z" fill="#EBEBEB"/>
<path d="M239.892 53.8398H96.9922V211.97H239.892V53.8398Z" fill="#E0E0E0"/>
<path d="M233.981 60.0999H103.281V206.02H233.981V60.0999Z" fill="#F5F5F5"/>
<path d="M140.221 60.0999L103.281 198.44V123.55L120.181 60.0999H140.221Z" fill="white"/>
<path d="M156.73 60.0999L117.77 206.03H110.43L149.38 60.0999H156.73Z" fill="white"/>
<path d="M233.982 99.8999V174.8L225.712 206.03H205.672L233.982 99.8999Z" fill="white"/>
<path d="M170.994 53.8398H165.914V211.97H170.994V53.8398Z" fill="#E0E0E0"/>
<path d="M237.164 85.9299H99.4844V91.0099H237.164V85.9299Z" fill="#E0E0E0"/>
<path d="M650.119 53.8398H507.219V211.97H650.119V53.8398Z" fill="#E0E0E0"/>
<path d="M644.208 60.0999H513.508V206.02H644.208V60.0999Z" fill="#F5F5F5"/>
<path d="M550.438 60.0999L513.508 198.44V123.55L530.408 60.0999H550.438Z" fill="white"/>
<path d="M566.948 60.0999L527.998 206.03H520.648L559.608 60.0999H566.948Z" fill="white"/>
<path d="M644.201 99.8999V174.8L635.931 206.03H615.891L644.201 99.8999Z" fill="white"/>
<path d="M581.205 53.8398H576.125V211.97H581.205V53.8398Z" fill="#E0E0E0"/>
<path d="M647.375 85.9299H509.695V91.0099H647.375V85.9299Z" fill="#E0E0E0"/>
<path d="M716.102 448.39C716.102 451.78 560.062 454.52 367.582 454.52C175.102 454.52 19.0625 451.77 19.0625 448.39C19.0625 445.01 175.102 442.26 367.582 442.26C560.062 442.26 716.102 445.01 716.102 448.39Z" fill="#F5F5F5"/>
<path d="M668.206 437.77V296.07H655.646V437.77L647.656 440.52V444.79H676.196V440.52L668.206 437.77Z" fill="#263238"/>
<path d="M508.378 296.07H495.818V437.77L487.828 440.52V444.79H516.368V440.52L508.378 437.77V296.07Z" fill="#263238"/>
<g opacity="0.2">
<path d="M668.206 312.74H655.646V437.77L647.656 440.52V444.79H676.196V440.52L668.206 437.77V312.74Z" fill="white"/>
<path d="M508.378 312.74H495.818V437.77L487.828 440.52V444.79H516.368V440.52L508.378 437.77V312.74Z" fill="white"/>
</g>
<path d="M707.03 97.4199H457V300.64H707.03V97.4199Z" fill="#263238"/>
<path d="M701.472 103.06H462.562V294.88H701.472V103.06Z" fill="#FF725E"/>
<path d="M574.059 172.7H489.039V119.35L574.059 172.7ZM490.039 171.7H570.579L490.039 121.16V171.7Z" fill="#263238"/>
<path d="M494.093 172.34H493.303V168.49H489.453V167.69H494.093V172.34Z" fill="#263238"/>
<path d="M531.663 139.04H530.773V131.26H531.733V134.04C532.133 133.53 532.653 133.28 533.273 133.28C533.623 133.28 533.943 133.35 534.253 133.49C534.563 133.63 534.813 133.83 535.013 134.08C535.213 134.33 535.373 134.64 535.483 134.99C535.593 135.35 535.653 135.73 535.653 136.14C535.653 137.11 535.413 137.85 534.933 138.38C534.453 138.91 533.883 139.17 533.213 139.17C532.543 139.17 532.023 138.89 531.643 138.34V139.05L531.663 139.04ZM531.653 136.18C531.653 136.86 531.743 137.34 531.933 137.64C532.233 138.13 532.643 138.38 533.153 138.38C533.573 138.38 533.933 138.2 534.233 137.84C534.533 137.48 534.693 136.94 534.693 136.22C534.693 135.5 534.543 134.94 534.253 134.59C533.963 134.24 533.613 134.06 533.193 134.06C532.773 134.06 532.413 134.24 532.113 134.6C531.813 134.96 531.653 135.49 531.653 136.17V136.18Z" fill="#263238"/>
<path d="M491.499 217.49H490.609V209.71H491.569V212.49C491.969 211.98 492.489 211.73 493.109 211.73C493.459 211.73 493.779 211.8 494.089 211.94C494.399 212.08 494.649 212.28 494.849 212.53C495.049 212.78 495.209 213.09 495.319 213.44C495.429 213.8 495.489 214.18 495.489 214.59C495.489 215.56 495.249 216.3 494.769 216.83C494.289 217.36 493.719 217.62 493.049 217.62C492.379 217.62 491.859 217.34 491.479 216.79V217.5L491.499 217.49ZM491.489 214.63C491.489 215.31 491.579 215.79 491.769 216.09C492.069 216.58 492.479 216.83 492.989 216.83C493.409 216.83 493.769 216.65 494.069 216.29C494.369 215.93 494.529 215.39 494.529 214.67C494.529 213.95 494.379 213.39 494.089 213.04C493.799 212.69 493.449 212.51 493.029 212.51C492.609 212.51 492.249 212.69 491.949 213.05C491.649 213.41 491.489 213.94 491.489 214.62V214.63Z" fill="#263238"/>
<path d="M523.064 180.74L524.004 180.86C523.904 181.51 523.634 182.01 523.214 182.38C522.794 182.75 522.274 182.93 521.654 182.93C520.884 182.93 520.264 182.68 519.794 182.17C519.324 181.67 519.094 180.94 519.094 180C519.094 179.39 519.194 178.86 519.394 178.4C519.594 177.94 519.904 177.6 520.314 177.37C520.724 177.14 521.174 177.03 521.664 177.03C522.274 177.03 522.774 177.18 523.164 177.49C523.554 177.8 523.804 178.24 523.914 178.81L522.984 178.95C522.894 178.57 522.734 178.29 522.514 178.1C522.294 177.91 522.014 177.81 521.704 177.81C521.224 177.81 520.834 177.98 520.534 178.33C520.234 178.68 520.084 179.22 520.084 179.97C520.084 180.72 520.234 181.28 520.524 181.62C520.814 181.96 521.194 182.13 521.664 182.13C522.034 182.13 522.354 182.02 522.604 181.79C522.854 181.56 523.014 181.21 523.084 180.73L523.064 180.74Z" fill="#263238"/>
<path d="M494.298 231.38L495.238 231.5C495.138 232.15 494.868 232.65 494.448 233.02C494.028 233.39 493.508 233.57 492.888 233.57C492.118 233.57 491.498 233.32 491.028 232.81C490.558 232.31 490.328 231.58 490.328 230.64C490.328 230.03 490.428 229.5 490.628 229.04C490.828 228.58 491.138 228.24 491.548 228.01C491.958 227.78 492.408 227.67 492.898 227.67C493.508 227.67 494.008 227.82 494.398 228.13C494.788 228.44 495.038 228.88 495.148 229.45L494.218 229.59C494.128 229.21 493.968 228.93 493.748 228.74C493.528 228.55 493.248 228.45 492.938 228.45C492.458 228.45 492.068 228.62 491.768 228.97C491.468 229.32 491.318 229.86 491.318 230.61C491.318 231.36 491.468 231.92 491.758 232.26C492.048 232.6 492.428 232.77 492.898 232.77C493.268 232.77 493.588 232.66 493.838 232.43C494.088 232.2 494.248 231.85 494.318 231.37L494.298 231.38Z" fill="#263238"/>
<path d="M484.727 150.73C484.377 151.03 484.037 151.24 483.707 151.37C483.377 151.49 483.027 151.56 482.657 151.56C482.037 151.56 481.557 151.41 481.227 151.11C480.897 150.81 480.727 150.42 480.727 149.95C480.727 149.67 480.787 149.42 480.917 149.19C481.047 148.96 481.207 148.78 481.407 148.64C481.607 148.5 481.837 148.4 482.097 148.33C482.287 148.28 482.567 148.23 482.947 148.19C483.717 148.1 484.287 147.99 484.647 147.86C484.647 147.73 484.647 147.65 484.647 147.61C484.647 147.22 484.557 146.95 484.377 146.79C484.137 146.57 483.767 146.47 483.287 146.47C482.837 146.47 482.507 146.55 482.287 146.71C482.077 146.87 481.917 147.15 481.817 147.55L480.887 147.42C480.967 147.02 481.107 146.7 481.307 146.45C481.497 146.2 481.787 146.02 482.147 145.88C482.517 145.75 482.937 145.68 483.427 145.68C483.917 145.68 484.297 145.74 484.597 145.85C484.897 145.96 485.117 146.11 485.257 146.28C485.397 146.45 485.497 146.67 485.557 146.93C485.587 147.09 485.607 147.39 485.607 147.81V149.08C485.607 149.97 485.627 150.53 485.667 150.76C485.707 151 485.787 151.22 485.907 151.44H484.907C484.807 151.24 484.747 151.01 484.717 150.74L484.727 150.73ZM484.647 148.6C484.297 148.74 483.777 148.86 483.087 148.96C482.697 149.02 482.417 149.08 482.257 149.15C482.097 149.22 481.967 149.32 481.877 149.46C481.787 149.6 481.747 149.75 481.747 149.91C481.747 150.16 481.847 150.38 482.037 150.55C482.227 150.72 482.507 150.8 482.887 150.8C483.267 150.8 483.587 150.72 483.867 150.56C484.157 150.4 484.367 150.18 484.497 149.9C484.597 149.68 484.647 149.37 484.647 148.94V148.59V148.6Z" fill="#263238"/>
<path d="M494.297 200.83C493.947 201.13 493.607 201.34 493.277 201.47C492.947 201.59 492.597 201.66 492.227 201.66C491.607 201.66 491.127 201.51 490.797 201.21C490.467 200.91 490.297 200.52 490.297 200.05C490.297 199.77 490.357 199.52 490.487 199.29C490.617 199.06 490.777 198.88 490.977 198.74C491.177 198.6 491.407 198.5 491.667 198.43C491.857 198.38 492.137 198.33 492.517 198.29C493.287 198.2 493.857 198.09 494.217 197.96C494.217 197.83 494.217 197.75 494.217 197.71C494.217 197.32 494.127 197.05 493.947 196.89C493.707 196.67 493.337 196.57 492.857 196.57C492.407 196.57 492.077 196.65 491.857 196.81C491.647 196.97 491.487 197.25 491.387 197.65L490.457 197.52C490.537 197.12 490.677 196.8 490.877 196.55C491.067 196.3 491.357 196.12 491.717 195.98C492.087 195.85 492.507 195.78 492.997 195.78C493.487 195.78 493.867 195.84 494.167 195.95C494.467 196.06 494.687 196.21 494.827 196.38C494.967 196.55 495.067 196.77 495.127 197.03C495.157 197.19 495.177 197.49 495.177 197.91V199.18C495.177 200.07 495.197 200.63 495.237 200.86C495.277 201.1 495.357 201.32 495.477 201.54H494.477C494.377 201.34 494.317 201.11 494.287 200.84L494.297 200.83ZM494.217 198.7C493.867 198.84 493.347 198.96 492.657 199.06C492.267 199.12 491.987 199.18 491.827 199.25C491.667 199.32 491.537 199.42 491.447 199.56C491.357 199.7 491.317 199.85 491.317 200.01C491.317 200.26 491.417 200.48 491.607 200.65C491.797 200.82 492.077 200.9 492.457 200.9C492.837 200.9 493.157 200.82 493.437 200.66C493.727 200.5 493.937 200.28 494.067 200C494.167 199.78 494.217 199.47 494.217 199.04V198.69V198.7Z" fill="#263238"/>
<path d="M637.389 120.32H591.719V121.32H637.389V120.32Z" fill="#263238"/>
<path d="M616.839 129.46H591.719V130.46H616.839V129.46Z" fill="#263238"/>
<path d="M627.109 136.31H591.719V137.31H627.109V136.31Z" fill="#263238"/>
<path d="M621.399 144.3H591.719V145.3H621.399V144.3Z" fill="#263238"/>
<path d="M636.249 153.43H591.719V154.43H636.249V153.43Z" fill="#263238"/>
<path d="M635.099 161.42H591.719V162.42H635.099V161.42Z" fill="#263238"/>
<path d="M621.399 169.42H591.719V170.42H621.399V169.42Z" fill="#263238"/>
<path d="M673.932 239.06H643.102V240.06H673.932V239.06Z" fill="#263238"/>
<path d="M660.222 248.19H643.102V249.19H660.222V248.19Z" fill="#263238"/>
<path d="M667.082 255.04H643.102V256.04H667.082V255.04Z" fill="#263238"/>
<path d="M663.652 263.03H643.102V264.03H663.652V263.03Z" fill="#263238"/>
<path d="M517.518 253.9H486.688V254.9H517.518V253.9Z" fill="#263238"/>
<path d="M503.807 263.03H486.688V264.03H503.807V263.03Z" fill="#263238"/>
<path d="M510.658 269.88H486.688V270.88H510.658V269.88Z" fill="#263238"/>
<path d="M507.237 277.88H486.688V278.88H507.237V277.88Z" fill="#263238"/>
<path d="M681.907 136.31H652.227V137.31H681.907V136.31Z" fill="#263238"/>
<path d="M681.907 144.3H652.227V145.3H681.907V144.3Z" fill="#263238"/>
<path d="M672.777 152.29H652.227V153.29H672.777V152.29Z" fill="#263238"/>
<path d="M594 253.9H564.32V254.9H594V253.9Z" fill="#263238"/>
<path d="M594 261.89H564.32V262.89H594V261.89Z" fill="#263238"/>
<path d="M584.87 269.88H564.32V270.88H584.87V269.88Z" fill="#263238"/>
<path d="M574.603 201.38H508.383V202.38H574.603V201.38Z" fill="#263238"/>
<path d="M574.603 216.22H508.383V217.22H574.603V216.22Z" fill="#263238"/>
<path d="M574.603 231.07H508.383V232.07H574.603V231.07Z" fill="#263238"/>
<path d="M618.519 240.02C606.809 240.02 597.289 230.5 597.289 218.79C597.289 207.08 606.809 197.56 618.519 197.56C630.229 197.56 639.749 207.08 639.749 218.79C639.749 230.5 630.229 240.02 618.519 240.02ZM618.519 198.35C607.249 198.35 598.079 207.52 598.079 218.79C598.079 230.06 607.249 239.23 618.519 239.23C629.789 239.23 638.959 230.06 638.959 218.79C638.959 207.52 629.789 198.35 618.519 198.35Z" fill="#263238"/>
<path d="M639.667 219.51H618.047V197.89H619.047V218.51H639.667V219.51Z" fill="#263238"/>
<path opacity="0.6" d="M701.472 103.06H462.562V294.88H701.472V103.06Z" fill="white"/>
<path d="M608.857 110.67H578.157C575.237 110.67 572.867 113.04 572.867 115.96V138.36C572.867 141.28 575.237 143.65 578.157 143.65H600.937L608.307 151.02V143.65H608.857C611.777 143.65 614.147 141.28 614.147 138.36V115.96C614.147 113.04 611.777 110.67 608.857 110.67Z" fill="#FF725E"/>
<path d="M581.008 127.15C581.008 128.69 582.248 129.93 583.788 129.93C585.328 129.93 586.568 128.68 586.568 127.15C586.568 125.62 585.328 124.37 583.788 124.37C582.248 124.37 581.008 125.61 581.008 127.15Z" fill="white"/>
<path d="M590.547 127.15C590.547 128.69 591.787 129.93 593.327 129.93C594.867 129.93 596.107 128.68 596.107 127.15C596.107 125.62 594.867 124.37 593.327 124.37C591.787 124.37 590.547 125.61 590.547 127.15Z" fill="white"/>
<path d="M600.086 127.15C600.086 128.69 601.326 129.93 602.866 129.93C604.406 129.93 605.646 128.68 605.646 127.15C605.646 125.62 604.406 124.37 602.866 124.37C601.326 124.37 600.086 125.61 600.086 127.15Z" fill="white"/>
<path d="M583.008 109.21H600.018C600.498 109.21 600.498 108.46 600.018 108.46H583.008C582.528 108.46 582.528 109.21 583.008 109.21Z" fill="#FF725E"/>
<path d="M602.06 109.16H603.22C603.42 109.16 603.6 108.99 603.6 108.78C603.6 108.57 603.44 108.4 603.22 108.4H602.06C601.86 108.4 601.68 108.57 601.68 108.78C601.68 108.99 601.84 109.16 602.06 109.16Z" fill="#FF725E"/>
<path d="M249.663 119.11C243.973 109.32 247.293 96.76 257.093 91.07C266.883 85.38 279.443 88.71 285.133 98.5C289.523 106.06 288.523 115.25 283.343 121.68L284.343 127.76L277.983 126.36C277.883 126.42 277.793 126.49 277.693 126.55C267.903 132.24 255.343 128.91 249.653 119.12L249.663 119.11Z" fill="#FF725E"/>
<path d="M244.392 108.72C244.262 108.72 244.152 108.62 244.142 108.49C243.662 101.78 246.832 94.8502 252.222 90.8302C252.332 90.7502 252.492 90.7702 252.572 90.8802C252.652 90.9902 252.632 91.1502 252.522 91.2302C247.262 95.1502 244.172 101.91 244.642 108.45C244.642 108.59 244.552 108.71 244.412 108.72H244.392Z" fill="#FF725E"/>
<path d="M245.331 114.73C245.231 114.73 245.141 114.67 245.101 114.58C244.681 113.62 244.461 112.56 244.461 111.51C244.461 111.37 244.571 111.26 244.711 111.26C244.851 111.26 244.961 111.37 244.961 111.51C244.961 112.49 245.161 113.48 245.551 114.38C245.611 114.51 245.551 114.65 245.421 114.71C245.391 114.72 245.351 114.73 245.321 114.73H245.331Z" fill="#FF725E"/>
<path d="M267.39 119.55C266.62 119.55 265.98 119.3 265.46 118.8C264.94 118.3 264.68 117.7 264.68 116.98C264.68 116.26 264.93 115.67 265.44 115.19C265.95 114.71 266.6 114.47 267.39 114.47C268.18 114.47 268.83 114.71 269.34 115.19C269.85 115.67 270.1 116.27 270.1 116.98C270.1 117.69 269.84 118.3 269.32 118.8C268.8 119.3 268.16 119.55 267.39 119.55ZM269.14 112.47H265.64L264.77 99.5801H270.02L269.15 112.47H269.14Z" fill="white"/>
<path d="M625.217 256.14C625.217 256.14 608.147 320.14 604.877 345.97C600.607 379.67 589.117 428.22 589.117 428.22L596.507 428.42C596.507 428.42 619.567 387.72 624.337 350.02C643.887 311.5 645.457 264.06 645.457 264.06L625.217 256.13V256.14Z" fill="#E9B376"/>
<path d="M578.59 444.37C579.64 443.73 580.8 443.28 582.02 443.04C582.02 443.04 585.93 440.06 588.83 430.14L593.57 429.52C595.21 429.33 596.81 430.14 597.56 431.56C597.67 431.75 597.74 431.96 597.78 432.18C597.88 433.27 597.92 434.37 597.88 435.46C597.69 439.2 597.27 442.92 596.63 446.62L595.79 446.52L596.3 439.52C596.45 437.14 594.25 439.7 593.4 442.2C592.55 444.7 591.09 447.27 585.7 446.8C579.4 446.21 576.82 445.68 578.58 444.37H578.59Z" fill="#263238"/>
<path d="M589.328 427.58C589.328 427.58 585.098 440.29 582.008 443.05C582.008 443.05 586.948 445.07 590.878 438.59C595.968 430.23 597.778 432.19 597.778 432.19C597.468 430.9 597.038 429.65 596.498 428.43C595.218 426.08 589.328 427.58 589.328 427.58Z" fill="#E9B376"/>
<path d="M637.978 255.14C637.978 255.14 630.778 320.63 633.128 346.56C636.178 380.38 638.398 430.59 638.398 430.59L645.608 430.9C645.608 430.9 661.048 362.88 654.388 346.86C665.248 305.27 659.568 258.86 659.568 258.86L637.988 255.15L637.978 255.14Z" fill="#E9B376"/>
<path d="M627.185 445.23C628.255 444.61 629.425 444.19 630.655 443.98C630.655 443.98 634.655 441.12 637.815 431.27L642.575 430.75C644.235 430.6 645.805 431.47 646.505 432.93C646.605 433.13 646.675 433.33 646.705 433.55C646.775 434.66 646.775 435.78 646.705 436.89C646.415 440.61 645.895 444.31 645.145 447.97L644.305 447.85L645.005 440.86C645.235 438.49 642.945 441 642.035 443.46C641.115 445.92 639.595 448.47 634.205 447.87C627.945 447.09 625.385 446.5 627.175 445.23H627.185Z" fill="#263238"/>
<path d="M639.126 427.74C639.126 427.74 637.436 432.21 635.176 437.11C634.146 439.65 632.606 441.97 630.656 443.95C630.656 443.95 634.586 445.18 636.706 442.81C638.816 440.44 642.446 431.92 646.516 432.86C646.296 432.16 645.996 431.49 645.616 430.87C645.006 429.93 639.146 427.76 639.146 427.76L639.126 427.74Z" fill="#E9B376"/>
<path d="M559.212 180.74C559.212 180.74 556.032 173.66 554.582 173.18C553.132 172.7 551.862 173.03 551.862 173.03C551.862 173.03 542.522 165.66 541.632 167.14C541.152 167.94 543.152 170.13 547.612 173.55C547.612 173.55 544.682 174.2 545.582 175.98C545.582 175.98 543.402 176.64 544.222 178.83C544.222 178.83 543.032 180.5 544.062 181.81C545.092 183.12 550.232 187.06 553.402 187.97C554.362 188.25 556.012 188.82 556.832 188.19C556.832 188.19 565.202 193.61 565.402 193.87L569.902 185.05L559.222 180.73L559.212 180.74Z" fill="#E9B376"/>
<path opacity="0.3" d="M554.474 182.14C554.474 182.14 554.454 182.14 554.444 182.14C553.454 182.01 552.534 181.28 552.044 180.24C551.664 179.44 551.464 178.12 551.454 177.13C550.254 177.79 548.334 177.97 547.364 177.22C546.714 176.72 546.584 176.16 546.954 175.47C547.134 175.13 547.664 174.9 548.284 174.65C548.404 174.6 548.504 174.56 548.584 174.52C549.094 174.29 549.594 174.01 550.074 173.75C550.564 173.48 551.074 173.21 551.594 172.97C551.714 172.91 551.864 172.97 551.924 173.09C551.984 173.22 551.924 173.36 551.804 173.42C551.304 173.65 550.804 173.92 550.314 174.19C549.824 174.46 549.314 174.73 548.794 174.97C548.704 175.01 548.594 175.06 548.464 175.11C548.124 175.24 547.504 175.49 547.394 175.7C547.134 176.17 547.204 176.47 547.664 176.82C548.554 177.51 550.614 177.2 551.554 176.46C551.634 176.4 551.744 176.39 551.824 176.44C551.914 176.49 551.964 176.58 551.954 176.68C551.884 177.61 552.084 179.18 552.484 180.03C552.904 180.92 553.674 181.54 554.494 181.65C554.634 181.67 554.724 181.79 554.704 181.93C554.684 182.06 554.584 182.15 554.454 182.15L554.474 182.14Z" fill="#263238"/>
<path opacity="0.3" d="M547.003 183.56C546.803 183.56 546.593 183.52 546.393 183.44C546.013 183.29 545.703 183.04 545.403 182.79C545.293 182.7 545.283 182.54 545.373 182.44C545.463 182.34 545.623 182.32 545.723 182.41C545.993 182.63 546.263 182.86 546.573 182.98C546.883 183.1 547.203 183.09 547.413 182.96C547.793 182.72 547.833 182.12 547.673 181.65C547.503 181.15 547.183 180.71 546.763 180.4C546.553 180.31 546.353 180.2 546.143 180.06C546.033 179.99 546.003 179.85 546.053 179.74C546.113 179.63 546.243 179.57 546.363 179.62C546.593 179.71 546.803 179.82 547.003 179.96C547.303 180.09 547.653 180.19 548.033 180.17C548.613 180.15 549.143 179.86 549.373 179.42C549.623 178.96 549.493 178.33 549.093 178.08C548.973 178 548.943 177.85 549.023 177.73C549.103 177.61 549.253 177.58 549.373 177.66C549.983 178.06 550.183 178.97 549.813 179.66C549.493 180.26 548.803 180.65 548.043 180.68C547.933 180.68 547.823 180.68 547.713 180.67C547.903 180.92 548.043 181.2 548.143 181.5C548.353 182.13 548.293 182.99 547.673 183.39C547.483 183.51 547.243 183.58 546.993 183.58L547.003 183.56Z" fill="#263238"/>
<path d="M622.848 179.02V199.36L619.838 201.99C613.708 204.95 599.938 210.81 596.008 210.67C588.668 210.31 562.148 194.5 562.148 194.5L567.768 183.8C567.768 183.8 590.698 193.66 594.088 192.99C597.478 192.32 622.858 179 622.858 179L622.848 179.02Z" fill="#FF725E"/>
<path d="M660.464 136.88C660.464 136.88 664.044 137.07 667.064 142.96C670.084 148.85 666.304 155.39 665.554 158.52C664.794 161.65 661.034 164.42 667.244 169.15C673.454 173.88 677.184 178.91 672.144 184.03C667.104 189.15 672.644 193.07 665.364 196.87C658.084 200.67 631.274 194.98 627.884 187.64C624.494 180.3 628.584 174.71 628.804 172.52C629.024 170.33 624.494 168.08 623.364 160.9C622.234 153.72 628.024 152.19 628.804 148.91C629.584 145.63 625.954 141.5 628.804 134.53C631.654 127.56 660.084 126.06 660.464 136.88Z" fill="#263238"/>
<path opacity="0.4" d="M660.464 136.88C660.464 136.88 664.044 137.07 667.064 142.96C670.084 148.85 666.304 155.39 665.554 158.52C664.794 161.65 661.034 164.42 667.244 169.15C673.454 173.88 677.184 178.91 672.144 184.03C667.104 189.15 672.644 193.07 665.364 196.87C658.084 200.67 631.274 194.98 627.884 187.64C624.494 180.3 628.584 174.71 628.804 172.52C629.024 170.33 624.494 168.08 623.364 160.9C622.234 153.72 628.024 152.19 628.804 148.91C629.584 145.63 625.954 141.5 628.804 134.53C631.654 127.56 660.084 126.06 660.464 136.88Z" fill="white"/>
<path d="M615.281 255.44C615.951 255.65 653.471 256.7 674.861 255.15C674.861 255.15 668.101 211.58 656.801 206.83C650.791 204.31 629.861 205.75 622.151 216.35C615.361 225.69 615.281 244.76 615.281 255.43V255.44Z" fill="#FF725E"/>
<path opacity="0.2" d="M615.281 255.44C615.951 255.65 653.471 256.7 674.861 255.15C674.861 255.15 668.101 211.58 656.801 206.83C650.791 204.31 629.861 205.75 622.151 216.35C615.361 225.69 615.281 244.76 615.281 255.43V255.44Z" fill="black"/>
<path d="M623.039 234.93L660.329 238.15C660.689 228.91 662.019 219.73 664.299 210.76C665.189 207.19 666.309 203.2 667.749 198.59C668.519 196.13 669.369 193.48 670.309 190.68C671.019 188.52 671.789 186.23 672.639 183.81C667.579 182.19 662.399 180.94 657.159 180.07C651.629 179.09 646.029 178.5 640.409 178.31C633.159 178.31 624.819 179.07 624.819 179.07C624.819 179.07 623.629 179.35 622.889 187.05C622.219 194.23 621.559 208.67 623.049 234.94L623.039 234.93Z" fill="#FF725E"/>
<path d="M623.225 240.52L660.515 243.59C661.105 234.32 661.545 221.8 664.335 210.75C665.225 207.18 666.345 203.19 667.785 198.58C668.555 196.12 669.405 193.47 670.345 190.67C671.055 188.51 671.825 186.22 672.675 183.8C667.615 182.18 662.435 180.93 657.195 180.06C651.665 179.08 646.065 178.49 640.445 178.3C633.195 178.3 624.855 179.06 624.855 179.06C624.855 179.06 623.665 179.34 622.925 187.04C622.225 194.22 621.725 214.25 623.235 240.52H623.225Z" fill="#263238"/>
<path d="M663.061 180.77C663.061 180.77 656.221 228.04 674.861 255.16C674.861 255.16 666.521 206.16 672.651 183.77L663.061 180.78V180.77Z" fill="#FF725E"/>
<path d="M630.551 178.26C630.551 178.26 628.311 200.18 627.161 209.05C624.341 230.87 615.281 256.01 615.281 256.01C615.281 256.01 616.711 195.62 622.831 179.01L630.551 178.25V178.26Z" fill="#FF725E"/>
<path d="M623.219 240.52L587.219 380.55C587.219 380.55 656.599 385.38 675.879 381.43C675.879 381.43 680.609 282.58 660.489 243.58L623.219 240.53V240.52Z" fill="#FF725E"/>
<path opacity="0.4" d="M623.219 240.52L587.219 380.55C587.219 380.55 656.599 385.38 675.879 381.43C675.879 381.43 680.609 282.58 660.489 243.58L623.219 240.53V240.52Z" fill="white"/>
<path d="M641.22 138.58C641.22 138.58 633.631 152.27 633.271 156.52C630.361 159 628.3 153.98 628.41 147.25C628.5 141.74 631.37 135.8 636.13 133.66C642.81 130.65 641.23 138.57 641.23 138.57L641.22 138.58Z" fill="#263238"/>
<path opacity="0.4" d="M641.22 138.58C641.22 138.58 633.631 152.27 633.271 156.52C630.361 159 628.3 153.98 628.41 147.25C628.5 141.74 631.37 135.8 636.13 133.66C642.81 130.65 641.23 138.57 641.23 138.57L641.22 138.58Z" fill="white"/>
<path d="M642.656 177.33C643.926 176.06 643.626 175.34 643.386 173.49C643.216 172.07 642.756 170.59 642.216 169.15L644.116 167.09L653.986 157.82C653.516 164.23 653.676 176.63 658.566 180.3L645.076 187.7L637.516 178.3C637.516 178.3 640.786 178.37 642.656 177.33Z" fill="#E9B376"/>
<path opacity="0.2" d="M643.431 174.04C646.111 172.58 649.081 169.99 648.841 166.89C648.731 165.59 648.501 164.35 648.221 163.55L642.641 170.4C643.041 171.55 643.171 172.31 643.421 174.04H643.431Z" fill="black"/>
<path d="M657.043 147.61C655.793 157.36 655.473 161.51 650.233 166.45C642.363 173.89 630.763 170.87 629.103 161.1C627.613 152.3 629.903 137.83 639.663 134.07C649.273 130.36 658.293 137.85 657.043 147.61Z" fill="#E9B376"/>
<path d="M643.775 151.05C643.775 151.97 643.245 152.75 642.595 152.79C641.955 152.83 641.435 152.13 641.445 151.21C641.445 150.29 641.975 149.51 642.625 149.47C643.265 149.43 643.785 150.13 643.775 151.05Z" fill="#263238"/>
<path d="M634.466 150.34C634.506 151.23 634.026 152.02 633.396 152.1C632.756 152.18 632.206 151.53 632.166 150.64C632.126 149.75 632.606 148.96 633.236 148.88C633.876 148.8 634.426 149.45 634.466 150.34Z" fill="#263238"/>
<path d="M646.381 147.9C646.251 147.9 646.13 147.87 646.04 147.77C644.6 146.31 642.88 146.72 642.86 146.72C642.61 146.78 642.361 146.63 642.311 146.37C642.271 146.11 642.441 145.85 642.701 145.78C642.791 145.76 644.951 145.24 646.741 147.06C646.921 147.24 646.91 147.55 646.72 147.74C646.63 147.83 646.511 147.89 646.391 147.89L646.381 147.9Z" fill="#263238"/>
<path opacity="0.4" d="M646.381 147.9C646.251 147.9 646.13 147.87 646.04 147.77C644.6 146.31 642.88 146.72 642.86 146.72C642.61 146.78 642.361 146.63 642.311 146.37C642.271 146.11 642.441 145.85 642.701 145.78C642.791 145.76 644.951 145.24 646.741 147.06C646.921 147.24 646.91 147.55 646.72 147.74C646.63 147.83 646.511 147.89 646.391 147.89L646.381 147.9Z" fill="white"/>
<path d="M631.217 145.9C631.107 145.86 631.007 145.79 630.957 145.67C630.847 145.44 630.957 145.16 631.197 145.04C633.667 143.85 635.587 144.88 635.677 144.93C635.907 145.06 635.977 145.34 635.827 145.56C635.687 145.78 635.377 145.86 635.147 145.74C635.077 145.7 633.567 144.92 631.607 145.87C631.477 145.93 631.337 145.94 631.217 145.9Z" fill="#263238"/>
<path opacity="0.4" d="M631.217 145.9C631.107 145.86 631.007 145.79 630.957 145.67C630.847 145.44 630.957 145.16 631.197 145.04C633.667 143.85 635.587 144.88 635.677 144.93C635.907 145.06 635.977 145.34 635.827 145.56C635.687 145.78 635.377 145.86 635.147 145.74C635.077 145.7 633.567 144.92 631.607 145.87C631.477 145.93 631.337 145.94 631.217 145.9Z" fill="white"/>
<path d="M659.715 155.69C658.485 157.65 656.565 158.85 654.825 159.22C652.215 159.78 651.025 155.56 652.005 153C652.885 150.69 655.485 149.24 657.985 149.84C660.455 150.43 661.115 153.45 659.715 155.69Z" fill="#E9B376"/>
<path d="M637.252 149.58C637.252 149.58 635.592 153.19 633.782 155.41C633.462 155.8 633.632 156.39 634.092 156.58C635.282 157.07 636.712 156.72 636.712 156.72L637.252 149.59V149.58Z" fill="#D58745"/>
<path d="M642.825 149.44L640.555 149.02C640.555 149.02 641.865 150.64 642.825 149.44Z" fill="#263238"/>
<path d="M633.563 148.89L631.273 148.6C632.383 149.82 633.273 149.29 633.563 148.89Z" fill="#263238"/>
<path d="M659.679 142.27C661.009 144.19 658.359 149.76 658.359 149.76C658.359 149.76 653.669 148.36 653.409 155.43C651.679 155.72 649.739 149.12 650.019 142.48C650.369 138.73 657.329 138.88 659.679 142.27Z" fill="#263238"/>
<g opacity="0.4">
<path d="M659.679 142.27C661.009 144.19 658.359 149.76 658.359 149.76C658.359 149.76 653.669 148.36 653.409 155.43C651.679 155.72 649.739 149.12 650.019 142.48C650.369 138.73 657.329 138.88 659.679 142.27Z" fill="white"/>
</g>
<path opacity="0.2" d="M655.41 156.8C655.3 156.8 655.19 156.72 655.17 156.61C655.14 156.48 655.22 156.34 655.36 156.31C656.76 155.98 657.39 155.26 657.68 154.71C657.99 154.11 657.97 153.57 657.86 153.28C657.63 152.7 656.9 152.24 656.22 152.51C656.09 152.56 655.95 152.5 655.9 152.37C655.85 152.24 655.91 152.1 656.04 152.05C657.01 151.68 658 152.3 658.33 153.11C658.49 153.51 658.52 154.21 658.13 154.95C657.8 155.59 657.07 156.42 655.48 156.8C655.46 156.8 655.44 156.8 655.42 156.8H655.41Z" fill="#263238"/>
<path d="M635.807 159.91C636.537 160.99 637.437 163.09 637.437 163.09C637.647 163.04 637.847 163 638.047 162.94C640.817 162.23 641.867 160.99 642.187 159.82C642.357 159.18 642.307 158.56 642.207 158.08C642.087 157.51 641.877 157.14 641.877 157.14C640.637 158.39 638.107 159.25 636.737 159.66C636.167 159.83 635.797 159.92 635.797 159.92L635.807 159.91Z" fill="#263238"/>
<path d="M636.75 159.65L637.26 160.58C639.86 159.9 641.61 159.08 642.22 158.08C642.1 157.51 641.89 157.14 641.89 157.14C640.65 158.39 638.12 159.25 636.75 159.66V159.65Z" fill="white"/>
<path d="M638.047 162.94C640.817 162.23 641.867 160.99 642.187 159.82C641.257 160.1 640.157 160.54 639.267 161.22C638.587 161.74 638.237 162.36 638.047 162.94Z" fill="#DC5753"/>
<path d="M631.414 136.83C633.484 132.53 641.914 128.53 651.614 132.68C660.374 136.42 662.904 149.17 656.574 149.65C650.244 150.13 642.774 143.93 642.774 143.93L631.414 136.82V136.83Z" fill="#263238"/>
<path d="M685.634 216.65L686.704 237.33C682.424 237.88 673.204 227.38 669.624 219.59C666.564 212.98 664.984 207.27 664.984 207.27L667.244 200.9L672.634 183.81C672.634 183.81 679.424 194.76 685.624 216.66" fill="#FF725E"/>
<path d="M720.151 168.95L716.611 166.92L703.591 170.48L686.011 165.92L681.951 179.26C681.951 179.26 681.111 194.13 681.951 194.31C682.791 194.49 702.071 195.49 702.071 195.49L711.871 189.24L720.141 168.95H720.151Z" fill="#E0E0E0"/>
<path d="M681.288 166.92L673.508 197.7L697.508 200.39L714.068 195.82L722.518 166.92L703.588 171.83L681.288 166.92Z" fill="#FF725E"/>
<path opacity="0.4" d="M703.588 171.83L697.508 200.39L673.508 197.7L681.288 166.92L703.588 171.83Z" fill="white"/>
<path opacity="0.2" d="M703.588 171.83L697.508 200.39L714.068 195.82L722.518 166.92L703.588 171.83Z" fill="white"/>
<path d="M684.566 236.29C690.496 241.34 695.616 233.15 699.686 209.39L689.346 207.36L680.906 229.28L684.566 236.29Z" fill="#FF725E"/>
<path opacity="0.2" d="M671.016 222.27L670.406 206.3C670.406 206.3 673.876 214.9 671.016 222.27Z" fill="black"/>
<path d="M690.047 207.49L692.327 201.25L699.687 199.73L699.107 209.27L690.047 207.49Z" fill="#E9B376"/>
<path d="M690.578 200.23C690.808 201.82 692.158 203.01 693.758 203.01C696.738 203.01 700.888 202.6 701.688 201.33C702.828 199.52 702.568 193.39 701.868 192.96C701.168 192.53 700.658 194.02 700.658 194.02C700.658 194.02 700.588 191.13 699.528 191.09C698.498 191.05 698.188 193.22 698.188 193.22C698.188 193.22 698.308 190.67 696.928 190.71C695.778 190.74 695.498 193.42 695.498 193.42C695.498 193.42 695.608 190.98 694.058 191.71C692.518 192.44 690.588 200.23 690.588 200.23H690.578Z" fill="#E9B376"/>
<path opacity="0.2" d="M695.627 193.42L694.917 198.07C694.917 198.13 694.848 198.18 694.768 198.17C694.698 198.17 694.648 198.1 694.658 198.04L695.367 193.4C695.367 193.34 695.438 193.29 695.518 193.3C695.588 193.3 695.627 193.36 695.627 193.42Z" fill="black"/>
<path opacity="0.2" d="M698.309 193.36L697.979 197.87C697.979 197.93 697.909 197.98 697.839 197.98C697.769 197.98 697.729 197.93 697.719 197.86L698.049 193.35C698.049 193.29 698.119 193.24 698.189 193.24C698.259 193.24 698.309 193.3 698.309 193.36Z" fill="black"/>
<path opacity="0.2" d="M700.792 194.17L700.642 197.53C700.642 197.59 700.582 197.64 700.512 197.64C700.442 197.64 700.382 197.58 700.392 197.52L700.542 194.16C700.542 194.1 700.602 194.05 700.672 194.05C700.742 194.05 700.802 194.11 700.792 194.17Z" fill="black"/>
<path d="M701.468 198.48L704.008 197.75C704.008 197.75 704.168 200.87 701.148 201.8L701.468 198.48Z" fill="#E9B376"/>
<path opacity="0.4" d="M631.414 136.83C633.484 132.53 641.914 128.53 651.614 132.68C660.374 136.42 662.904 149.17 656.574 149.65C650.244 150.13 642.774 143.93 642.774 143.93L631.414 136.82V136.83Z" fill="white"/>
<path d="M347.133 156.24C347.663 156.77 374.693 136.64 374.693 136.64L370.633 104.86L378.323 103.99C378.323 103.99 394.453 138.92 387.573 144.92C380.693 150.92 355.073 169.82 354.543 169.65C354.013 169.48 347.133 156.24 347.133 156.24Z" fill="#FFB573"/>
<path d="M370.63 105.95C370.63 105.95 367.23 104.9 365.89 102.28C364.55 99.66 362.78 97.93 361.91 95.91C361.05 93.89 363.71 95.19 364.98 96.17C366.26 97.15 367.71 98.24 368.29 97.16C368.87 96.08 368.58 85.57 369.55 84.17C370.52 82.77 371.1 84.45 371.1 84.45C371.1 84.45 371.1 81.9 372.11 81.62C372.37 81.55 373.1 81.81 373.28 82.97C373.69 85.59 374.27 91.13 374.27 91.13C374.23 90.81 374 83.92 374.1 82.89C374.23 81.54 374.98 80.96 375.77 81.07C376.88 81.21 377.46 89.75 377.74 90.09C377.74 90.09 377.24 85.19 378.44 84.37C379.64 83.55 380.12 86.62 380.03 89.4C379.95 91.95 380.45 96.99 380.12 99.57C379.71 102.76 378.71 104.81 375.83 105.69C372.95 106.57 370.63 105.95 370.63 105.95Z" fill="#EBB373"/>
<path opacity="0.3" d="M371.479 91.17C371.359 91.17 371.249 91.08 371.229 90.95C370.989 88.92 370.839 86.85 370.789 84.8C370.789 84.66 370.899 84.55 371.029 84.54C371.199 84.54 371.279 84.65 371.289 84.78C371.339 86.82 371.489 88.87 371.729 90.88C371.749 91.02 371.649 91.14 371.509 91.16H371.479V91.17Z" fill="#263238"/>
<path opacity="0.3" d="M370.199 92.6601C370.099 92.6601 369.999 92.6 369.969 92.49C369.919 92.36 369.989 92.22 370.119 92.17C372.639 91.26 375.469 91.1 378.079 91.74C378.209 91.77 378.299 91.91 378.259 92.04C378.229 92.17 378.089 92.26 377.959 92.22C375.449 91.61 372.729 91.75 370.289 92.63C370.259 92.64 370.229 92.65 370.209 92.65L370.199 92.6601Z" fill="#263238"/>
<path opacity="0.3" d="M373.474 102.51C373.344 102.51 373.234 102.41 373.224 102.28C373.164 101.27 372.724 100.27 372.034 99.53C371.334 98.79 370.364 98.3 369.354 98.17C369.214 98.15 369.124 98.03 369.134 97.89C369.144 97.75 369.284 97.65 369.414 97.67C370.554 97.81 371.604 98.35 372.394 99.18C373.164 100 373.654 101.12 373.724 102.24C373.724 102.38 373.624 102.5 373.494 102.51H373.474Z" fill="#263238"/>
<path d="M298.45 261.01L291.63 260.25C290.39 266.3 289.93 272.49 290.26 278.66C290.5 282.67 296.97 287.2 296.97 287.2C296.97 287.2 299.24 291.95 300.51 290.48C301.78 289.01 298.33 282.45 298.19 280.93C297.78 276.2 297.33 271.43 297.72 270.8C298.11 270.16 298.21 276.72 300.22 278.13C302.23 279.54 300.64 271.37 301.34 268.6C302.05 265.82 300.03 261.33 298.44 261.02L298.45 261.01Z" fill="#FFB573"/>
<path opacity="0.2" d="M314.293 236.42C314.193 236.42 314.093 236.36 314.063 236.26C314.013 236.13 314.083 235.99 314.213 235.94C325.263 231.85 334.883 224.16 341.303 214.29C341.383 214.17 341.533 214.14 341.653 214.22C341.773 214.3 341.803 214.45 341.723 214.57C335.243 224.53 325.533 232.29 314.383 236.42C314.353 236.43 314.323 236.44 314.293 236.44V236.42Z" fill="#263238"/>
<path d="M361.369 145.24C361.369 145.24 347.059 155.16 346.609 155.33L350.289 179.4C349.999 179.06 373.979 162.32 374.509 162.24C375.039 162.16 361.359 145.24 361.359 145.24H361.369Z" fill="#FF725E"/>
<path opacity="0.2" d="M350.285 179.4L348.125 165.24L352.725 177.46L350.285 179.4Z" fill="black"/>
<path opacity="0.3" d="M361.369 145.24C361.369 145.24 347.059 155.16 346.609 155.33L350.289 179.4C349.999 179.06 373.979 162.32 374.509 162.24C375.039 162.16 361.359 145.24 361.359 145.24H361.369Z" fill="white"/>
<path d="M298.916 156.76C298.916 156.76 287.786 155.84 285.596 168.89C283.416 181.93 279.836 204.1 279.836 204.1L301.406 205.97C302.496 205.17 298.916 156.76 298.916 156.76Z" fill="#FF725E"/>
<path opacity="0.3" d="M298.916 156.76C298.916 156.76 287.786 155.84 285.596 168.89C283.416 181.93 279.836 204.1 279.836 204.1L301.406 205.97C302.496 205.17 298.916 156.76 298.916 156.76Z" fill="white"/>
<path d="M364.903 249.6L353.803 202.41L346.603 155.34L330.573 155.19L316.623 154.85L298.913 156.77L292.883 179.44C292.883 179.44 297.833 212.71 297.983 214.44C298.163 216.56 300.523 254.81 300.523 254.81C325.323 256.44 365.583 251.41 364.903 249.61V249.6Z" fill="#FF725E"/>
<path opacity="0.3" d="M364.903 249.6L353.803 202.41L346.603 155.34L330.573 155.19L316.623 154.85L298.913 156.77L292.883 179.44C292.883 179.44 297.833 212.71 297.983 214.44C298.163 216.56 300.523 254.81 300.523 254.81C325.323 256.44 365.583 251.41 364.903 249.61V249.6Z" fill="white"/>
<path opacity="0.2" d="M297.658 205.65L301.418 205.97L301.198 177.46L305.078 212.41L297.868 213.42L297.148 208.36L297.658 205.65Z" fill="black"/>
<path d="M281.977 204.29L282.037 223.96L291.317 264.13L299.697 262.61L295.937 222.59L298.547 205.73L281.977 204.29Z" fill="#FFB573"/>
<path d="M314.464 155.12C314.464 155.12 315.364 148.68 311.594 137.52C311.594 137.51 312.174 137.22 312.174 137.21C311.654 135.65 311.114 134.21 310.604 132.96C310.594 132.92 310.594 132.91 310.594 132.91L326.474 141.79C326.264 145.42 327.874 152.35 328.774 155.27C328.774 155.27 332.134 161.68 325.034 162.23C319.844 162.63 314.464 155.13 314.464 155.13V155.12Z" fill="#FFB573"/>
<path opacity="0.2" d="M326.951 146.86L317.961 145.24C318.891 147.97 321.481 151.15 327.691 151.15C327.691 151.15 326.941 148.08 326.951 146.86Z" fill="black"/>
<path d="M335.997 114.6C337.977 118.1 338.957 125.94 333.187 124.55C327.417 123.16 332.597 108.59 335.997 114.6Z" fill="#263238"/>
<path d="M310.143 125.4C311.613 135.16 312.243 140.69 317.653 145.25C325.783 152.1 337.243 146.67 338.723 136.64C340.053 127.61 337.423 113.17 327.463 110.21C317.653 107.29 308.673 115.65 310.143 125.41V125.4Z" fill="#FFB573"/>
<path d="M307.075 112.59C307.945 107.06 314.675 103.46 318.705 105.89C319.305 106.25 315.165 108.1 315.635 107.88L316.045 115.88C315.455 115.8 314.365 116.58 313.935 118.44C313.935 118.44 316.295 128.7 312.415 133.43C301.365 129.47 300.005 115.5 307.085 112.58L307.075 112.59Z" fill="#263238"/>
<path d="M306.992 133.92C308.002 136.38 310.052 138.13 312.082 138.92C315.142 140.12 317.022 137.45 316.472 134.38C315.972 131.62 313.792 127.67 310.582 127.79C307.422 127.9 305.842 131.11 306.992 133.92Z" fill="#FFB573"/>
<path d="M324.433 126.99C324.523 127.99 325.123 128.76 325.783 128.69C326.443 128.63 326.903 127.76 326.813 126.76C326.723 125.76 326.123 124.99 325.463 125.06C324.803 125.12 324.343 125.99 324.433 127V126.99Z" fill="#263238"/>
<path d="M334.3 126.31C334.39 127.31 334.99 128.08 335.65 128.01C336.31 127.95 336.77 127.08 336.68 126.07C336.59 125.07 335.99 124.3 335.33 124.37C334.67 124.43 334.21 125.3 334.3 126.3V126.31Z" fill="#263238"/>
<path d="M331.055 126.04C331.055 126.04 334.675 130.75 335.875 132.69C334.585 134.08 332.135 133.71 332.135 133.71L331.065 126.04H331.055Z" fill="#D58745"/>
<path d="M321.88 123.68C322.04 123.72 322.22 123.68 322.34 123.54C323.79 122.01 325.51 122.29 325.53 122.29C325.79 122.34 326.03 122.16 326.08 121.91C326.13 121.65 325.96 121.41 325.7 121.36C325.61 121.34 323.46 120.99 321.66 122.89C321.48 123.08 321.49 123.38 321.68 123.56C321.74 123.62 321.81 123.66 321.89 123.67L321.88 123.68Z" fill="#263238"/>
<path d="M338.191 121.86C338.281 121.84 338.361 121.8 338.431 121.73C338.611 121.54 338.611 121.24 338.431 121.06C336.571 119.24 334.461 119.71 334.361 119.72C334.111 119.78 333.951 120.03 334.001 120.29C334.061 120.54 334.301 120.7 334.561 120.65C334.651 120.63 336.281 120.28 337.771 121.74C337.891 121.85 338.051 121.89 338.201 121.86H338.191Z" fill="#263238"/>
<path d="M342.787 109.78C342.307 107.27 339.597 105.29 337.127 105.95C337.927 104.31 337.207 102.11 335.607 101.25C333.997 100.39 331.767 101.02 330.847 102.59C330.757 101.06 329.127 99.9401 327.597 100.06C326.077 100.18 324.767 101.28 323.987 102.6C323.517 103.41 323.167 104.35 322.407 104.9C321.217 105.76 319.587 105.32 318.117 105.21C315.657 105.02 313.137 105.96 311.387 107.7C309.647 109.45 308.707 111.97 308.897 114.43C307.537 114.8 306.867 115.9 305.977 116.99L313.497 118.19C315.607 114.25 321.297 117.3 324.147 118.38C326.197 119.16 328.217 119.22 329.767 119.16C331.327 119.1 332.027 117.96 332.047 116.41C334.427 117.33 337.227 117.39 339.477 116.17C341.717 114.94 343.237 112.3 342.757 109.79L342.787 109.78Z" fill="#263238"/>
<path d="M307.524 113.05C307.524 113.05 307.424 113.04 307.384 113.01C305.914 112.01 304.174 111.37 302.844 111.35C302.704 111.35 302.594 111.23 302.594 111.1C302.594 110.97 302.744 110.84 302.844 110.85C304.294 110.88 306.094 111.53 307.654 112.6C307.764 112.68 307.794 112.83 307.724 112.95C307.674 113.02 307.594 113.06 307.514 113.06L307.524 113.05Z" fill="#263238"/>
<path d="M307.347 112.95C307.267 112.95 307.187 112.91 307.137 112.84C306.027 111.2 305.557 109.13 305.837 107.17C305.857 107.03 305.987 106.94 306.117 106.96C306.257 106.98 306.347 107.11 306.327 107.24C306.057 109.08 306.507 111.02 307.547 112.56C307.627 112.67 307.597 112.83 307.477 112.91C307.437 112.94 307.387 112.95 307.337 112.95H307.347Z" fill="#263238"/>
<path opacity="0.2" d="M313.738 133.8C313.618 133.8 313.518 133.72 313.498 133.6C313.338 132.81 312.968 132.06 312.428 131.45C312.078 131.06 311.518 130.56 310.798 130.45C310.158 130.35 309.498 130.63 309.218 131.12C309.148 131.24 308.998 131.28 308.878 131.22C308.758 131.15 308.718 131 308.778 130.88C309.158 130.2 310.008 129.82 310.868 129.96C311.738 130.09 312.398 130.67 312.798 131.12C313.388 131.79 313.798 132.62 313.978 133.5C314.008 133.64 313.918 133.77 313.778 133.79C313.758 133.79 313.748 133.79 313.728 133.79L313.738 133.8Z" fill="#263238"/>
<path d="M329.014 137C327.604 137 326.194 136.47 325.144 135.52C325.044 135.43 325.034 135.27 325.124 135.17C325.214 135.07 325.374 135.06 325.474 135.15C326.574 136.15 328.114 136.64 329.584 136.47C329.714 136.46 329.844 136.55 329.864 136.69C329.884 136.83 329.784 136.95 329.644 136.97C329.434 136.99 329.224 137.01 329.004 137.01L329.014 137Z" fill="#263238"/>
<path opacity="0.2" d="M134.377 217.01L131.937 255.39L109.977 252.77V248.83L134.377 217.01Z" fill="black"/>
<path d="M123.754 217.97C122.894 208.07 119.434 189.92 113.484 170.87C111.544 164.67 118.464 157.82 118.464 157.82C118.464 157.82 122.934 157.46 123.754 157.37C124.654 157.26 128.004 155.89 128.924 155.81C135.874 155.22 138.904 155.25 145.114 155.61C146.674 155.7 148.754 155.88 150.324 156.01C150.834 156.06 153.884 156.9 154.374 156.95C154.374 156.95 163.294 167.56 163.774 175.05C164.034 179.23 166.024 181.04 165.804 191.04C165.764 197.84 160.914 207.74 160.474 217.29L123.764 217.96L123.754 217.97Z" fill="white"/>
<path d="M135.912 185.24C135.442 169.96 129.292 163.35 128.472 159.64C128.252 158.67 128.732 156.46 129.202 155.77L125.052 156.24C118.602 157.51 114.612 157.47 111.392 161.77C110.772 162.6 111.542 168.54 111.592 169.41C111.672 170.98 112.762 175.81 114.222 181.62C115.222 185.66 116.402 190.19 117.532 194.46C118.982 199.91 120.192 201.33 120.662 203.07L105.692 247.24C105.272 248.42 106.062 249.68 107.312 249.82L128.802 252.07C129.852 252.18 130.802 251.43 130.922 250.38C131.992 241.41 136.452 202.81 135.912 185.24Z" fill="#FF725E"/>
<path d="M155.844 156.3C155.844 156.3 161.124 155.26 166.844 163.58C172.554 171.9 174.174 208.31 174.174 208.31L161.754 208.95L163.564 173.47L155.854 156.3H155.844Z" fill="#FF725E"/>
<path d="M164.151 215.18C164.151 215.18 168.661 187.23 167.461 180.24C166.261 173.25 155.841 156.29 155.841 156.29L151.081 155.96L147.531 155.77C147.531 155.77 158.711 160.96 161.901 172.28C164.001 179.72 159.551 211.64 160.031 217.31L162.451 229.05L168.431 228.78L164.151 215.18Z" fill="#FF725E"/>
<path opacity="0.3" d="M165.242 208.24L167.582 186.69L168.442 208.94C168.442 208.94 166.202 208.83 165.242 208.24Z" fill="black"/>
<path opacity="0.3" d="M124.016 202.49L122.176 181.9L120.766 204.32L142.046 212.97L124.016 202.49Z" fill="black"/>
<path d="M115.594 158.49C115.594 158.49 108.834 160.15 107.544 167.53C106.244 174.91 104.524 211.79 105.994 214.13C107.464 216.47 148.564 229.68 148.564 229.68L152.964 218.26L121.914 203.24C121.914 203.24 122.164 192.7 122.424 184.49C122.554 180.15 122.694 176.46 122.784 175.32C123.064 172.03 115.594 158.49 115.594 158.49Z" fill="#FF725E"/>
<path d="M152.28 220.04C152.28 220.04 165.2 223.14 168.2 225.72C169.53 226.86 169.49 228.74 169.49 228.74L148.57 229.67L152.28 220.04Z" fill="#B97964"/>
<path opacity="0.3" d="M115.473 218.37C115.883 218.52 133.662 224.85 133.662 224.85V227.08L114.562 221.05L115.473 218.37Z" fill="black"/>
<path d="M152.626 109.64C158.556 113.6 160.246 119.28 160.166 123.4C159.436 128.96 157.506 132.9 156.006 138.3L141.266 105.76C144.706 106.44 146.256 105.74 152.626 109.64Z" fill="#263238"/>
<path d="M145.235 106.77C139.465 104.08 133.795 107.25 130.485 109.46C126.865 112.53 124.735 116.99 124.625 121.73C124.625 126.16 124.625 131.53 127.315 133.84C128.825 135.18 130.815 135.82 132.825 135.61L154.745 115.39C152.365 111.75 149.085 108.79 145.235 106.77Z" fill="#263238"/>
<path d="M145.602 166.68C143.912 168.42 142.382 167.84 140.132 166.92C126.752 162.11 130.712 155.65 130.712 155.65C133.252 152.67 133.362 149.11 132.432 143.68C132.412 143.52 132.412 143.36 132.412 143.2C132.412 142.48 132.652 141.77 133.082 141.18C134.202 139.54 136.432 139.12 138.072 140.24L144.062 141.96C144.082 142.04 144.092 142.12 144.112 142.22C144.132 145.19 144.042 147.5 144.062 149.31C144.102 149.53 144.062 149.76 144.072 149.97C144.112 150.19 144.102 150.42 144.102 150.64C144.242 153.13 148.452 156.78 150.162 157.64C151.202 158.23 151.312 160.83 145.592 166.69L145.602 166.68Z" fill="#B97964"/>
<path opacity="0.2" d="M144.066 141.93C144.066 142.02 144.086 142.11 144.116 142.2C144.136 145.17 144.046 147.48 144.066 149.29C144.056 149.51 144.066 149.73 144.076 149.95C144.086 150.18 144.116 150.41 144.156 150.64C139.606 149.4 135.536 146.8 132.516 143.18C132.516 142.47 132.736 141.77 133.136 141.17C134.236 139.52 136.466 139.08 138.116 140.17L144.066 141.92V141.93Z" fill="black"/>
<path d="M127.91 123.02C128.14 133.27 128.01 137.59 132.88 143.16C140.21 151.52 152.48 149.29 155.31 139.23C157.78 130.18 157.04 114.97 147.38 110.27C137.72 105.57 127.69 112.76 127.91 123.02Z" fill="#B97964"/>
<path d="M123.37 131.8C124.41 134.01 126.27 135.5 128.04 136.11C130.7 137.02 132.48 132.77 131.78 129.96C131.15 127.43 128.61 125.58 125.92 125.89C123.27 126.2 122.18 129.27 123.37 131.8Z" fill="#B97964"/>
<path opacity="0.2" d="M129.171 131.99C129.031 131.99 128.921 131.87 128.921 131.74C128.941 130.82 128.581 129.91 127.941 129.25C127.301 128.59 126.411 128.2 125.491 128.18C125.351 128.18 125.241 128.06 125.251 127.92C125.251 127.78 125.361 127.68 125.501 127.68C126.551 127.7 127.571 128.15 128.301 128.91C129.031 129.67 129.431 130.7 129.421 131.75C129.421 131.89 129.311 132 129.171 132V131.99Z" fill="#263238"/>
<path d="M141.26 127.44C141.22 128.53 141.73 129.48 142.41 129.55C143.09 129.62 143.67 128.79 143.71 127.7C143.75 126.61 143.24 125.66 142.56 125.59C141.88 125.52 141.3 126.35 141.26 127.44Z" fill="#263238"/>
<path d="M151.401 128.26C151.361 129.32 151.881 130.23 152.551 130.31C153.221 130.38 153.801 129.58 153.841 128.52C153.881 127.46 153.361 126.55 152.691 126.47C152.021 126.4 151.441 127.2 151.401 128.26Z" fill="#263238"/>
<path d="M139.436 123.46C139.566 123.49 139.706 123.46 139.816 123.37C141.526 122.04 143.266 122.7 143.286 122.71C143.546 122.81 143.826 122.68 143.906 122.42C143.986 122.16 143.846 121.86 143.586 121.75C143.496 121.71 141.316 120.88 139.196 122.53C138.986 122.69 138.956 123.02 139.126 123.25C139.206 123.36 139.326 123.43 139.446 123.45L139.436 123.46Z" fill="#263238"/>
<path d="M155.256 123.39C155.366 123.36 155.456 123.29 155.506 123.19C155.616 122.96 155.526 122.66 155.306 122.51C153.066 120.99 151.236 121.85 151.166 121.89C150.946 122 150.876 122.28 150.996 122.53C151.116 122.78 151.396 122.9 151.616 122.79C151.686 122.76 153.116 122.11 154.896 123.32C155.016 123.4 155.136 123.42 155.256 123.39Z" fill="#263238"/>
<path d="M148.684 127.53C148.684 127.53 149.964 131.52 151.584 134.07C151.864 134.52 151.614 135.11 151.104 135.25C149.794 135.61 148.344 135.06 148.344 135.06L148.684 127.53Z" fill="#A24E3F"/>
<path d="M142.164 125.6L144.574 125.24C144.574 125.24 143.134 126.89 142.164 125.6Z" fill="#263238"/>
<path d="M152.445 126.48L154.855 126.12C154.855 126.12 153.415 127.77 152.445 126.48Z" fill="#263238"/>
<path d="M147.686 137.87C146.836 138.82 145.696 140.75 145.696 140.75C145.506 140.68 145.306 140.61 145.126 140.52C142.536 139.48 141.676 138.14 141.506 136.97C141.416 136.33 141.546 135.74 141.706 135.28C141.886 134.75 142.146 134.41 142.146 134.41C143.186 135.78 145.536 136.94 146.806 137.51C147.336 137.75 147.686 137.88 147.686 137.88V137.87Z" fill="#263238"/>
<path d="M146.803 137.5L146.193 138.33C143.753 137.34 142.173 136.32 141.703 135.27C141.883 134.74 142.143 134.4 142.143 134.4C143.183 135.77 145.533 136.93 146.803 137.5Z" fill="white"/>
<path d="M145.112 140.52C142.522 139.48 141.662 138.14 141.492 136.97C142.362 137.36 143.372 137.92 144.142 138.7C144.732 139.29 145.002 139.93 145.112 140.52Z" fill="#DE5753"/>
<path d="M131.465 125.52C131.465 125.52 137.315 118.83 137.505 113.11C137.505 113.11 158.445 108.46 156.515 126.54C156.515 126.54 161.045 110.91 143.935 108.36C126.825 105.81 123.295 128.15 131.045 135.94C131.075 135.86 127.845 129.71 131.465 125.52Z" fill="#263238"/>
<path d="M113.203 111.91C113.603 116.57 117.703 120.03 122.373 119.63C127.033 119.23 130.493 115.13 130.093 110.46C129.713 106.08 126.053 102.71 121.653 102.71C116.793 102.94 113.023 107.04 113.213 111.91H113.203Z" fill="#263238"/>
<path d="M151.702 110.6C153.952 112.76 155.462 115.58 156.002 118.66C156.002 120.89 152.972 122.5 152.972 122.5L149.262 117.64V121.91C143.192 121.24 139.682 118.02 137.602 113.37L140.982 107.33C140.982 107.33 149.682 108.86 151.702 110.61V110.6Z" fill="#263238"/>
<path d="M122.776 116.79C122.256 119.21 120.826 121.42 118.836 122.88C119.906 122.97 121.006 122.7 121.916 122.14C121.876 123.01 121.676 123.88 121.346 124.69C123.806 122.65 125.256 119.44 125.166 116.25L122.776 116.79Z" fill="#263238"/>
<path d="M236.346 202.81H178.336V209.02H236.346V202.81Z" fill="#FF725E"/>
<path d="M198.266 203.46H178.336V208.37H198.266V203.46Z" fill="white"/>
<path opacity="0.3" d="M205.139 202.81H203.359V209.02H205.139V202.81Z" fill="white"/>
<path opacity="0.3" d="M232.272 202.81H230.492V209.02H232.272V202.81Z" fill="white"/>
<path opacity="0.2" d="M199.396 202.81H178.336V209.02H199.396V202.81Z" fill="black"/>
<path d="M428.677 223.08H47.6875V448.48H428.677V223.08Z" fill="#263238"/>
<path opacity="0.3" d="M118.898 223.08H47.6875V448.48H118.898V223.08Z" fill="black"/>
<path opacity="0.3" d="M428.677 223.08H47.6875V228.11H428.677V223.08Z" fill="black"/>
<path d="M429.864 208.7H41.5938V223.08H429.864V208.7Z" fill="#263238"/>
<path opacity="0.3" d="M429.864 208.7H41.5938V223.08H429.864V208.7Z" fill="black"/>
<path opacity="0.3" d="M123.567 208.7H40.9766V223.08H123.567V208.7Z" fill="black"/>
<path opacity="0.3" d="M269.707 252.6H147.797V343.46H269.707V252.6Z" fill="black"/>
<path d="M264.463 258.22H153.023V337.83H264.463V258.22Z" fill="#263238"/>
<path opacity="0.3" d="M147.797 343.46L153.027 337.84H264.467L269.707 343.46H147.797Z" fill="white"/>
<path opacity="0.3" d="M147.797 252.6L153.067 258.18L264.467 258.22L269.707 252.6H147.797Z" fill="black"/>
<path opacity="0.3" d="M413.215 252.6H291.305V343.46H413.215V252.6Z" fill="black"/>
<path d="M407.987 258.22H296.547V337.83H407.987V258.22Z" fill="#263238"/>
<path opacity="0.3" d="M291.305 343.46L296.545 337.84H407.985L413.215 343.46H291.305Z" fill="white"/>
<path opacity="0.3" d="M291.305 252.6L296.575 258.18L407.985 258.22L413.215 252.6H291.305Z" fill="black"/>
<path opacity="0.3" d="M428.795 223.08H47.8047V448.48H428.795V223.08Z" fill="black"/>
<path d="M379.441 206.41C378.771 213.16 378.021 220.34 373.931 226.01C370.131 231.27 363.521 233.95 357.121 232.88C356.651 232.8 356.441 233.52 356.921 233.6C363.331 234.67 369.981 232.22 374.031 227.11C378.661 221.26 379.481 213.58 380.191 206.41C380.241 205.93 379.491 205.93 379.441 206.41Z" fill="#263238"/>
<path d="M353.228 240.16C353.698 237.72 355.588 236.06 357.528 235.4C359.468 234.75 361.518 234.88 363.528 234.73C368.358 234.38 373.318 232.18 376.388 227.53C379.508 222.81 378.688 216.85 379.008 210.75C379.328 204.71 379.548 199.28 381.508 191.8C382.718 187.18 390.138 178.5 397.948 181.72L410.858 188.15C416.408 196.15 417.718 201.11 419.378 211.48C421.038 221.85 418.598 236.02 414.158 245.03C410.908 251.64 406.058 256.8 401.028 261.35C397.188 264.82 392.908 268.13 388.168 268.19C385.328 268.23 382.578 267.09 379.898 265.97C375.638 264.19 371.388 262.42 367.128 260.64C365.128 259.8 363.048 258.91 361.558 257.05C360.068 255.19 359.378 252.04 360.588 249.89C358.728 249.09 356.808 248.25 355.308 246.66C353.798 245.07 352.768 242.55 353.228 240.15V240.16Z" fill="#263238"/>
<path d="M385.523 230.61C385.523 230.61 389.403 232.52 394.183 236.64C395.183 237.5 396.273 238.24 397.443 238.86C400.583 240.53 403.433 241.48 404.213 239.97C404.383 239.64 404.513 239.28 404.613 238.9C405.273 236.37 403.663 232.89 401.593 230.68C399.583 228.53 399.533 227.78 399.953 225.29C400.173 223.88 400.683 222.43 401.273 221.01L398.613 219.41L389.123 209.83C390.213 215.71 390.533 227.14 385.533 230.61H385.523Z" fill="#E9B376"/>
<path opacity="0.2" d="M399.87 225.84C397.26 224.29 394.39 221.6 394.74 218.53C394.89 217.24 395.17 216.01 395.48 215.23L400.78 222.25C400.34 223.38 400.19 224.13 399.87 225.84Z" fill="black"/>
<path d="M387.286 199.03C388.176 208.79 388.356 212.92 393.386 218.04C400.956 225.73 412.606 223.15 414.616 213.48C416.426 204.78 414.656 190.29 405.076 186.19C395.636 182.15 386.396 189.28 387.286 199.04V199.03Z" fill="#E9B376"/>
<path d="M399.91 202.2C399.96 203.23 400.52 204.08 401.16 204.09C401.8 204.1 402.28 203.28 402.23 202.25C402.18 201.22 401.62 200.37 400.98 200.36C400.34 200.35 399.86 201.17 399.91 202.2Z" fill="#263238"/>
<path d="M409.535 202.17C409.585 203.17 410.145 203.99 410.785 204.01C411.425 204.02 411.905 203.22 411.855 202.22C411.805 201.22 411.245 200.4 410.605 200.39C409.965 200.38 409.485 201.18 409.535 202.18V202.17Z" fill="#263238"/>
<path d="M397.884 198.61C398.004 198.62 398.134 198.59 398.234 198.5C399.734 197.11 401.434 197.6 401.444 197.6C401.694 197.67 401.944 197.53 402.004 197.28C402.064 197.02 401.904 196.76 401.644 196.68C401.554 196.65 399.434 196.04 397.564 197.77C397.374 197.94 397.374 198.25 397.564 198.45C397.654 198.55 397.764 198.6 397.884 198.62V198.61Z" fill="#263238"/>
<path d="M412.772 197.28C412.872 197.25 412.952 197.17 412.992 197.07C413.082 196.85 412.972 196.57 412.752 196.44C410.522 195.19 408.872 196.14 408.802 196.18C408.602 196.3 408.562 196.57 408.692 196.8C408.832 197.03 409.102 197.11 409.292 197C409.352 196.96 410.652 196.24 412.422 197.24C412.532 197.3 412.662 197.31 412.762 197.28H412.772Z" fill="#263238"/>
<path d="M406.922 201.7C406.922 201.7 408.452 205.35 410.172 207.63C410.472 208.03 410.282 208.61 409.822 208.78C408.622 209.22 407.212 208.82 407.212 208.82L406.932 201.7H406.922Z" fill="#D58745"/>
<path d="M400.625 200.4L402.865 199.87C402.865 199.87 401.645 201.54 400.625 200.4Z" fill="#263238"/>
<path d="M410.375 200.41L412.615 199.88C412.615 199.88 411.395 201.55 410.375 200.41Z" fill="#263238"/>
<path d="M415.308 201.45C415.308 201.45 410.899 189.16 403.409 187.32C403.069 187.24 398.419 197.95 393.879 200.03C393.879 200.03 392.858 207.49 391.358 208.01C389.858 208.53 386.099 200.38 386.099 200.38C386.099 200.38 379.948 186.93 388.588 183.28C397.228 179.63 406.219 180 411.569 187.31C416.929 194.62 416.038 199.43 415.308 201.44V201.45Z" fill="#263238"/>
<path d="M384.607 206.98C385.757 208.98 387.627 210.24 389.347 210.67C391.927 211.32 393.267 207.17 392.377 204.58C391.587 202.25 389.047 200.71 386.537 201.22C384.057 201.72 383.287 204.7 384.607 206.99V206.98Z" fill="#E9B376"/>
<path opacity="0.2" d="M390.617 206.88C390.487 206.88 390.377 206.78 390.367 206.65C390.307 205.79 389.907 204.96 389.257 204.39C388.597 203.81 387.447 203.55 386.877 203.58C386.747 203.58 386.617 203.48 386.617 203.35C386.617 203.21 386.717 203.09 386.847 203.08C387.497 203.03 388.817 203.34 389.587 204.01C390.337 204.67 390.807 205.61 390.867 206.61C390.867 206.75 390.777 206.87 390.637 206.88H390.617Z" fill="#263238"/>
<path d="M401.852 230.19C401.852 230.19 408.402 231.49 414.042 235.24C419.682 238.99 425.672 259.97 425.672 259.97L414.252 260.93L401.852 230.19Z" fill="#FF725E"/>
<path opacity="0.7" d="M401.852 230.19C401.852 230.19 408.402 231.49 414.042 235.24C419.682 238.99 425.672 259.97 425.672 259.97L414.252 260.93L401.852 230.19Z" fill="white"/>
<path d="M373.388 258.24L369.508 233.09C373.488 229.68 387.388 228.63 387.388 228.63C396.018 232.52 402.018 235.54 400.938 229.22L411.868 240.73C411.868 240.73 417.488 246.67 417.248 254.73C417.058 260.91 414.538 279.49 415.408 287.08L417.498 303.69C395.028 321.28 374.338 305.11 374.338 305.11C375.418 301.91 379.688 297.17 380.218 294.03C380.008 290 381.778 287.01 379.448 278.63C377.698 272.32 373.378 259.14 373.398 258.24H373.388Z" fill="#FF725E"/>
<g opacity="0.7">
<path d="M373.388 258.24L369.508 233.09C373.488 229.68 387.388 228.63 387.388 228.63C396.018 232.52 402.018 235.54 400.938 229.22L411.868 240.73C411.868 240.73 417.488 246.67 417.248 254.73C417.058 260.91 414.538 279.49 415.408 287.08L417.498 303.69C395.028 321.28 374.338 305.11 374.338 305.11C375.418 301.91 379.688 297.17 380.218 294.03C380.008 290 381.778 287.01 379.448 278.63C377.698 272.32 373.378 259.14 373.398 258.24H373.388Z" fill="white"/>
</g>
<path d="M372.95 231.28C372.95 231.28 368.35 231.52 365.68 235.97C363.97 238.82 358 257.44 354.23 269.45C352.31 275.56 353.92 280.82 359.01 282.3H393.09L394.04 274.71L368.56 271.5C368.56 271.5 376.07 249.8 377.19 243.24C378.31 236.69 372.95 231.28 372.95 231.28Z" fill="#E9B376"/>
<path opacity="0.2" d="M368.533 271.51C368.533 271.51 365.462 271.5 363.562 272.74C363.562 272.74 364.632 269.29 369.492 268.64L368.522 271.51H368.533Z" fill="black"/>
<path d="M356.668 255.83L373.388 261.21L378.768 242.09C378.768 242.09 374.488 231.24 373.998 231C373.508 230.76 367.028 231.32 364.678 237.55C362.328 243.78 356.648 255.83 356.648 255.83H356.668Z" fill="#FF725E"/>
<path opacity="0.7" d="M356.668 255.83L373.388 261.21L378.768 242.09C378.768 242.09 374.488 231.24 373.998 231C373.508 230.76 367.028 231.32 364.678 237.55C362.328 243.78 356.648 255.83 356.648 255.83H356.668Z" fill="white"/>
<path d="M423.424 260.16C423.424 260.16 427.134 269.49 427.904 271.91C428.674 274.32 431.124 279.79 426.774 281.4C422.434 283.01 393.484 281.4 393.484 281.4V273.68C393.484 273.68 415.444 271.08 415.884 270.69C416.314 270.3 416.794 260.72 416.794 260.72L423.424 260.16Z" fill="#E9B376"/>
<g opacity="0.2">
<path d="M408.415 277.06C408.165 276.53 407.515 276.19 406.965 276.39C407.525 275.73 408.105 275.04 408.345 274.2C408.585 273.36 408.385 272.34 407.655 271.87L402.375 272.73C402.975 275.36 403.695 278.44 404.295 281.06C404.345 281.28 404.405 281.51 404.545 281.69C404.975 282.24 405.845 281.99 406.475 281.69C406.895 281.5 407.345 281.27 407.525 280.85C407.715 280.43 407.415 279.8 406.955 279.88C407.465 279.59 407.945 279.22 408.245 278.72C408.555 278.22 408.655 277.58 408.415 277.05V277.06Z" fill="black"/>
</g>
<path d="M406.131 212C404.471 212 403.191 211.18 402.691 210.42C402.611 210.3 402.651 210.15 402.761 210.07C402.871 210 403.03 210.03 403.11 210.14C403.46 210.68 404.561 211.49 406.131 211.49C406.271 211.49 406.381 211.6 406.381 211.74C406.381 211.88 406.271 211.99 406.131 211.99V212Z" fill="#263238"/>
<path opacity="0.2" d="M373.75 259.78L377.1 248.04L375.31 265L373.75 259.78Z" fill="black"/>
<path opacity="0.2" d="M416.797 260.72C416.797 260.72 417.607 253.86 416.987 251.29C416.987 251.29 418.257 255.8 418.367 260.58L416.797 260.71V260.72Z" fill="black"/>
<path opacity="0.2" d="M415.898 270.68C415.898 270.68 419.668 270.82 421.668 272.75C421.668 272.75 421.048 268.97 416.218 269L415.898 270.69V270.68Z" fill="black"/>
<path d="M396.699 259.942L396.566 259.986C396.115 260.136 395.872 260.623 396.022 261.074L399.621 271.88C399.771 272.331 400.258 272.574 400.708 272.424L400.841 272.38C401.292 272.23 401.536 271.743 401.385 271.292L397.786 260.486C397.636 260.035 397.149 259.792 396.699 259.942Z" fill="#263238"/>
<path d="M391.105 274.34C391.105 274.34 396.945 268.99 397.965 269.49C398.985 269.99 399.805 270.51 399.805 270.51C399.805 270.51 404.845 268.86 405.345 270.25C405.835 271.64 405.015 272.35 405.015 272.35C405.015 272.35 407.135 272.81 406.545 274.36C405.965 275.91 405.505 276.49 405.505 276.49C405.505 276.49 406.755 277.38 406.275 278.61C405.795 279.84 404.725 279.96 404.725 279.96C404.725 279.96 406.735 281.61 405.115 282.11C404.245 282.38 392.545 282.2 391.665 281.89C389.815 281.22 391.095 274.34 391.095 274.34H391.105Z" fill="#EBB373"/>
<path d="M423.038 280.13H385.258V282.33H423.038V280.13Z" fill="white"/>
<path d="M290.337 250.07L278.797 257.41C278.797 257.41 286.117 284.44 288.417 288.07L302.797 281.23L290.327 250.07H290.337Z" fill="#E4897B"/>
<path d="M256.077 214.67C255.867 216.63 255.957 218.37 256.617 219.24C257.297 220.14 258.467 220.76 259.727 221.19C258.607 223.35 255.777 225.08 255.777 225.08H247.857C247.857 225.08 244.277 225.88 242.917 225.11C241.797 224.48 240.607 223.88 239.537 223.16C238.997 222.79 238.487 222.36 237.977 221.91C239.647 220.94 241.167 219.61 241.707 217.88C243.087 213.4 241.607 198.1 241.607 198.1L258.327 204.97C258.327 204.97 258.197 205.34 258.007 205.98C257.477 207.75 256.407 211.52 256.077 214.68V214.67Z" fill="#E4897B"/>
<path d="M266.116 172.95C265.656 172.37 266.926 159.27 244.366 165.79C227.616 170.63 233.946 183.76 233.946 183.76L253.096 169.93L266.116 172.96V172.95Z" fill="#263238"/>
<path opacity="0.2" d="M244.375 205.86C244.375 205.86 247.965 213.33 256.225 213.07C256.545 209.92 257.625 206.14 258.155 204.37C257.535 204.14 257.135 204 257.135 204L244.385 205.86H244.375Z" fill="black"/>
<path d="M265.673 170.27C265.673 170.27 270.543 184.04 264.053 190.93C257.573 197.82 252.523 171.42 252.523 171.42L265.673 170.26V170.27Z" fill="#263238"/>
<path d="M244.357 206.38C249.457 210.23 255.237 211.17 260.087 208.54C263.207 206.86 265.767 203.98 266.997 200.31C267.167 199.83 267.297 199.33 267.417 198.82C269.467 189.45 267.747 174.06 257.497 170.13C250.207 167.28 241.966 170.87 239.116 178.18C238.296 180.25 237.987 182.49 238.197 184.72C239.007 195.07 238.407 201.88 244.357 206.38Z" fill="#E4897B"/>
<path d="M252.229 187.41C252.179 188.49 252.839 189.37 253.559 189.35C254.279 189.33 254.829 188.43 254.809 187.35C254.799 186.27 254.189 185.39 253.479 185.41C252.769 185.43 252.209 186.31 252.229 187.41Z" fill="#263238"/>
<path d="M262.62 187.41C262.57 188.49 263.24 189.37 263.95 189.35C264.66 189.33 265.22 188.43 265.2 187.35C265.19 186.27 264.58 185.39 263.87 185.41C263.16 185.43 262.6 186.38 262.62 187.41Z" fill="#263238"/>
<path d="M260.523 187.6C261.583 190.16 262.983 192.57 264.703 194.75C263.543 195.61 262.063 195.92 260.653 195.59L260.523 187.6Z" fill="#DE5753"/>
<path d="M267.02 182.97C266.86 183.06 266.66 183.06 266.5 182.97C265.43 182.3 264.11 182.17 262.93 182.62C262.69 182.74 262.39 182.64 262.27 182.4C262.15 182.16 262.25 181.86 262.49 181.74C263.96 181.13 265.64 181.27 266.99 182.12C267.23 182.25 267.31 182.55 267.18 182.79C267.13 182.87 267.08 182.92 267.01 182.97H267.02Z" fill="#263238"/>
<path d="M252.033 183.53C251.933 183.53 251.833 183.5 251.753 183.44C251.573 183.24 251.583 182.93 251.783 182.74C252.953 181.64 254.583 181.19 256.153 181.52C256.413 181.59 256.573 181.86 256.503 182.13C256.423 182.39 256.163 182.54 255.893 182.48C254.653 182.25 253.373 182.63 252.453 183.49C252.323 183.57 252.173 183.58 252.033 183.53Z" fill="#263238"/>
<path d="M245.553 171.63L246.423 176.16C244.983 177.06 244.193 178.81 245.003 180.56C246.733 184.3 244.963 190.4 242.173 192.97C242.173 192.97 241.973 191.31 240.593 191.8C239.213 192.29 240.543 199.26 242.003 203.55C242.003 203.55 238.813 201.42 235.863 192.48C233.133 184.22 232.393 177.23 233.903 173.86L245.563 171.63H245.553Z" fill="#263238"/>
<path d="M233.84 193.32C235.04 195.64 237.11 197.4 239.6 198.2C242.9 199.24 244.66 196.3 243.85 193.12C243.1 190.3 240.48 186.27 237.12 186.65C233.75 187.03 232.42 190.44 233.85 193.31L233.84 193.32Z" fill="#E4897B"/>
<path d="M265.679 170.27C266.259 171.35 264.419 175.32 260.249 177.23C256.069 179.14 260.519 174.91 260.519 174.91C260.519 174.91 252.129 177.79 251.899 176.71C251.669 175.63 254.259 174.07 254.259 174.07C254.259 174.07 247.269 177.36 241.609 175.96C235.939 174.56 246.269 165.18 252.849 165.37C259.429 165.56 263.939 167 265.679 170.27Z" fill="#263238"/>
<path opacity="0.1" d="M241.377 193.91C241.067 192.23 240.007 190.74 238.517 189.9C237.937 189.58 237.157 189.37 236.697 189.78L236.367 189.4C236.927 188.91 237.827 188.94 238.767 189.46C240.377 190.37 241.537 191.99 241.877 193.81L241.387 193.9L241.377 193.91Z" fill="#263238"/>
<path d="M257.149 198.48C256.449 198.49 255.749 198.37 255.129 198.02C254.359 197.59 253.789 196.91 253.339 196.16C253.089 195.75 252.439 196.12 252.689 196.54C253.199 197.39 253.869 198.18 254.749 198.67C255.479 199.08 256.309 199.25 257.139 199.23C257.619 199.22 257.619 198.47 257.139 198.48H257.149Z" fill="#263238"/>
<path d="M274.841 219.54C268.141 222.6 264.841 235.96 277.601 265.38L296.591 252.78C294.221 245.47 291.661 241.61 287.741 232.7C282.481 220.24 274.831 219.54 274.831 219.54H274.841Z" fill="#FF725E"/>
<path d="M271.146 218.71C266.406 218.37 247.456 216.26 228.156 220.16L230.026 288.52C230.026 288.52 229.066 313.67 230.026 315.95C250.296 324.24 275.596 312.17 288.416 303.9C288.276 304.23 284.886 295.18 284.886 295.18C282.526 273.39 278.746 239.41 275.166 219.8C275.076 219.32 271.616 218.74 271.146 218.71Z" fill="#FF725E"/>
<path opacity="0.2" d="M230.283 261.69L231.343 261.83L234.923 242.68L236.463 264.19L230.023 264.68L230.283 261.69Z" fill="black"/>
<path d="M228.158 220.16C228.158 220.16 220.557 221.57 218.727 231.09C217.047 239.86 212.938 259.8 212.938 259.8L233.738 260.23L235.177 239.01L228.158 220.16Z" fill="#FF725E"/>
<path d="M216.7 259.89L216.5 273.26C216.93 278.41 219.4 282.15 224.13 282.17L269.96 279.52L272 271.15L233.27 267.75L233.76 260.26L216.72 259.91L216.7 259.89Z" fill="#E4897B"/>
<path d="M292.631 270.83C291.291 269.7 283.601 266.51 280.611 265.87C277.631 265.22 266.271 270.72 266.271 270.72L265.281 277.75C265.281 277.75 267.181 279.69 270.201 279.49C271.941 279.38 275.951 277.08 275.951 277.08C275.951 277.08 276.651 278.33 277.731 279.45C278.921 280.69 280.651 281.96 281.621 280.92C282.581 279.89 279.781 276.27 279.371 275.75C279.791 276.27 282.761 279.88 284.221 278.67C285.631 277.51 282.461 273.82 282.461 273.82C282.461 273.82 284.111 275.37 284.961 276.16C285.811 276.95 287.341 276.86 287.211 275.19C287.061 273.26 285.341 271.34 285.341 271.34C285.341 271.34 287.091 271.73 290.441 273.05C292.851 274 293.771 271.77 292.641 270.82L292.631 270.83Z" fill="#E4897B"/>
<path opacity="0.1" d="M279.803 276.53C279.733 276.53 279.663 276.5 279.613 276.45C279.053 275.81 278.473 275.16 277.793 274.63C277.063 274.06 276.283 273.72 275.543 273.65C275.403 273.64 275.303 273.51 275.323 273.38C275.333 273.24 275.463 273.14 275.593 273.16C276.433 273.24 277.273 273.61 278.093 274.25C278.803 274.8 279.403 275.48 279.983 276.13C280.073 276.23 280.063 276.39 279.963 276.48C279.913 276.52 279.853 276.54 279.793 276.54L279.803 276.53Z" fill="#263238"/>
<path opacity="0.1" d="M282.873 274.39C282.803 274.39 282.733 274.36 282.683 274.31C282.123 273.67 281.533 273.01 280.863 272.49C280.113 271.91 279.363 271.58 278.613 271.51C278.473 271.5 278.373 271.37 278.393 271.24C278.403 271.1 278.533 271 278.663 271.02C279.503 271.1 280.343 271.47 281.163 272.11C281.873 272.66 282.473 273.34 283.053 273.99C283.143 274.09 283.133 274.25 283.033 274.34C282.983 274.38 282.923 274.4 282.863 274.4L282.873 274.39Z" fill="#263238"/>
<path opacity="0.1" d="M285.279 271.59C285.209 271.59 285.139 271.56 285.089 271.51C284.529 270.87 283.949 270.22 283.269 269.69C282.539 269.12 281.759 268.78 281.019 268.71C280.879 268.7 280.779 268.57 280.799 268.44C280.809 268.3 280.949 268.2 281.069 268.22C281.909 268.3 282.749 268.67 283.569 269.31C284.279 269.86 284.879 270.54 285.459 271.19C285.549 271.29 285.539 271.45 285.439 271.54C285.389 271.58 285.329 271.6 285.269 271.6L285.279 271.59Z" fill="#263238"/>
<path d="M325.412 282.26H286.692C286.022 282.26 285.482 281.82 285.492 281.28C285.492 281.18 285.512 281.08 285.552 280.98L302.772 241.49C303.202 240.36 304.502 239.59 305.972 239.59H344.712C345.372 239.59 345.902 240.02 345.902 240.54C345.902 240.65 345.882 240.76 345.832 240.86L328.612 280.35C328.172 281.47 326.882 282.24 325.412 282.25V282.26Z" fill="#263238"/>
<path opacity="0.7" d="M344.736 239.6H305.996C304.526 239.6 303.226 240.38 302.796 241.5L285.576 280.99C285.536 281.09 285.516 281.19 285.516 281.29C285.516 281.83 286.046 282.26 286.716 282.27H325.436C326.906 282.26 328.196 281.49 328.636 280.37L345.856 240.88C345.906 240.78 345.926 240.67 345.926 240.56C345.926 240.03 345.396 239.61 344.736 239.61V239.6Z" fill="white"/>
<path d="M320.732 261.81C319.892 263.71 318.202 265.01 316.932 264.74C315.672 264.48 315.332 262.75 316.142 260.85C316.952 258.95 318.672 257.68 319.932 257.94C321.192 258.2 321.572 259.86 320.722 261.81H320.732Z" fill="white"/>
<path opacity="0.3" d="M306.21 239.6H305.98C304.51 239.6 303.21 240.38 302.78 241.5L285.56 280.99C285.52 281.09 285.5 281.19 285.5 281.29C285.5 281.83 286.03 282.26 286.7 282.27H287.94L306.22 239.6H306.21Z" fill="black"/>
<path d="M248.789 282.26H289.099V279.54H251.509C250.009 279.54 248.789 280.76 248.789 282.26Z" fill="#263238"/>
<path opacity="0.7" d="M248.789 282.26H289.099V279.54H251.509C250.009 279.54 248.789 280.76 248.789 282.26Z" fill="white"/>
<path opacity="0.2" d="M278.746 240.73C278.316 240.37 281.256 262.96 281.256 262.96L285.256 260.31C285.256 260.31 279.186 241.09 278.756 240.73H278.746Z" fill="black"/>
<path d="M472.864 296.69H144.664V448.47H472.864V296.69Z" fill="#263238"/>
<path opacity="0.4" d="M206.004 296.69H144.664V448.47H206.004V296.69Z" fill="black"/>
<path opacity="0.3" d="M472.864 296.69H144.664V301.71H472.864V296.69Z" fill="black"/>
<path d="M475.478 282.33H141.008V296.7H475.478V282.33Z" fill="#263238"/>
<path opacity="0.4" d="M212.148 282.33H141.008V296.7H212.148V282.33Z" fill="black"/>
<path opacity="0.3" d="M332.997 321.13H227.977V411.89H332.997V321.13Z" fill="black"/>
<path d="M328.484 326.75H232.484V406.27H328.484V326.75Z" fill="#263238"/>
<path opacity="0.3" d="M227.977 411.89L232.487 406.27H328.487L332.997 411.89H227.977Z" fill="white"/>
<path opacity="0.3" d="M227.977 321.13L232.517 326.71L328.487 326.75L332.997 321.13H227.977Z" fill="black"/>
<path opacity="0.3" d="M456.629 321.13H351.609V411.89H456.629V321.13Z" fill="black"/>
<path d="M452.117 326.75H356.117V406.27H452.117V326.75Z" fill="#263238"/>
<path opacity="0.3" d="M351.609 411.89L356.119 406.27H452.119L456.629 411.89H351.609Z" fill="white"/>
<path opacity="0.3" d="M351.609 321.13L356.149 326.71L452.119 326.75L456.629 321.13H351.609Z" fill="black"/>
</svg>
