<svg width="101" height="101" viewBox="0 0 101 101" fill="none" xmlns="http://www.w3.org/2000/svg">
<path d="M59.4508 35.266L45.3633 27.141C45.1258 27.0038 44.8563 26.9316 44.582 26.9316C44.3078 26.9316 44.0383 27.0038 43.8008 27.141C43.5633 27.2781 43.366 27.4753 43.2289 27.7129C43.0917 27.9504 43.0195 28.2198 43.0195 28.4941V44.7535C43.0195 45.0277 43.0917 45.2972 43.2289 45.5347C43.366 45.7722 43.5633 45.9695 43.8008 46.1066C44.0383 46.2437 44.3078 46.3159 44.582 46.3159C44.8563 46.3159 45.1258 46.2437 45.3633 46.1066L59.4508 37.9722C59.6883 37.8351 59.8855 37.6378 60.0226 37.4003C60.1598 37.1628 60.232 36.8934 60.232 36.6191C60.232 36.3448 60.1598 36.0754 60.0226 35.8379C59.8855 35.6004 59.6883 35.4031 59.4508 35.266ZM49.7305 84.7754H52.3555L51.0805 79.8254L49.7305 84.7754Z" fill="#8568F5"/>
<path d="M84.875 68.7344V27.65L84.4172 27.1922L62.0891 4.86406L61.6313 4.40625H22.375C20.7174 4.40625 19.1277 5.06473 17.9556 6.23683C16.7835 7.40894 16.125 8.99865 16.125 10.6562V63.3781C15.6513 63.65 15.2575 64.0418 14.9832 64.5141C14.7089 64.9864 14.5638 65.5226 14.5625 66.0688V88.7812C14.565 90.8525 15.3889 92.8382 16.8535 94.3028C18.3181 95.7674 20.3038 96.5913 22.375 96.5938H78.625C80.6962 96.5913 82.6819 95.7674 84.1465 94.3028C85.6111 92.8382 86.435 90.8525 86.4375 88.7812V71.4266C86.4364 70.8801 86.2915 70.3436 86.0172 69.871C85.7429 69.3984 85.3489 69.0064 84.875 68.7344ZM65.6719 29.8594H67.1375C68.7535 33.8108 68.9156 38.2073 67.595 42.2669C66.2744 46.3266 63.5567 49.7863 59.9252 52.0307C56.2938 54.2751 51.984 55.1588 47.7623 54.5245C43.5406 53.8902 39.6807 51.7791 36.8691 48.5667C34.0575 45.3542 32.4764 41.2487 32.4071 36.9802C32.3378 32.7117 33.7846 28.5569 36.4904 25.2548C39.1962 21.9528 42.9855 19.7174 47.1843 18.9463C51.3832 18.1753 55.7194 18.9185 59.4219 21.0437V23.6094C59.4219 25.267 60.0804 26.8567 61.2525 28.0288C62.4246 29.2009 64.0143 29.8594 65.6719 29.8594ZM53.7625 90.25L53.0125 87.325H49.0563L48.25 90.25H42.3125L41.5625 87.325H37.6L36.7938 90.25H33.7938L37.825 76.3H41.35L45.2875 90.1203L49.2812 76.3H52.8063L56.7813 90.25H53.7625ZM67.0359 78.8437H60.9813V81.6938H65.5L65.5187 84.2438L60.9875 84.2625V90.25H58V76.3H67.0359V78.8437ZM81.75 68.3016H47.5094L43.7594 64.0109C43.4661 63.6758 43.1046 63.4071 42.699 63.2231C42.2934 63.039 41.8532 62.9438 41.4078 62.9438H19.25V10.6562C19.25 9.82745 19.5792 9.03259 20.1653 8.44654C20.7513 7.86049 21.5462 7.53125 22.375 7.53125H59.4219V17.5312C55.0061 15.4605 50.0104 14.9793 45.2805 16.1691C40.5506 17.3589 36.3772 20.1465 33.4668 24.0602C30.5564 27.9738 29.0877 32.773 29.3095 37.6451C29.5313 42.5173 31.43 47.1631 34.684 50.7962C37.938 54.4292 42.3474 56.8261 47.1658 57.5812C51.9842 58.3363 56.9155 57.4031 61.1249 54.9397C65.3343 52.4763 68.5631 48.634 70.2647 44.0633C71.9663 39.4925 72.0362 34.4742 70.4625 29.8578H81.75V68.3016Z" fill="#8568F5"/>
<path d="M38.2754 84.7742H40.9004L39.6254 79.8242L38.2754 84.7742Z" fill="#8568F5"/>
</svg>
