<svg width="500" height="500" viewBox="0 0 500 500" fill="none" xmlns="http://www.w3.org/2000/svg">
<path d="M22.427 192.974C22.427 192.974 2.75926 259.236 57.6569 316.976C112.555 374.717 208.398 397.171 285.397 416.93C362.397 436.689 434.516 413.867 461.571 363.006C488.627 312.145 433.975 284.744 421.929 218.317C409.882 151.891 419.47 132.76 363.294 82.1796C307.118 31.5989 191.754 32.8066 113.759 84.7303C35.7642 136.654 22.427 192.974 22.427 192.974Z" fill="#8568F5"/>
<path opacity="0.7" d="M22.427 192.974C22.427 192.974 2.75926 259.236 57.6569 316.976C112.555 374.717 208.398 397.171 285.397 416.93C362.397 436.689 434.516 413.867 461.571 363.006C488.627 312.145 433.975 284.744 421.929 218.317C409.882 151.891 419.47 132.76 363.294 82.1796C307.118 31.5989 191.754 32.8066 113.759 84.7303C35.7642 136.654 22.427 192.974 22.427 192.974Z" fill="white"/>
<path d="M328.599 252.65L324.469 246.06H288.109V252.65V255.02V364.63H437.759V252.65H328.599Z" fill="#263238"/>
<path d="M436.783 255.67H289.223V362.24H436.783V255.67Z" fill="white"/>
<mask id="mask0_506_5983" style="mask-type:luminance" maskUnits="userSpaceOnUse" x="289" y="255" width="148" height="108">
<path d="M436.783 255.67H289.223V362.24H436.783V255.67Z" fill="white"/>
</mask>
<g mask="url(#mask0_506_5983)">
<path opacity="0.17" d="M437.504 254.76H434.074V363.05H437.504V254.76Z" fill="black"/>
<path opacity="0.17" d="M437.504 320.23H434.074V362.17H437.504V320.23Z" fill="black"/>
<path d="M436.973 254.23H288.633V260.03H436.973V254.23Z" fill="#FAAA19" stroke="#263238" stroke-miterlimit="10"/>
</g>
<path d="M436.783 255.67H289.223V362.24H436.783V255.67Z" stroke="#263238" stroke-linecap="round" stroke-linejoin="round"/>
<g opacity="0.17">
<path d="M366.101 265.61H355.781C355.661 265.611 355.542 265.589 355.431 265.543C355.32 265.498 355.219 265.431 355.135 265.346C355.05 265.262 354.983 265.161 354.938 265.05C354.892 264.939 354.87 264.82 354.871 264.7C354.871 264.459 354.967 264.227 355.138 264.057C355.308 263.886 355.54 263.79 355.781 263.79H366.101C366.343 263.79 366.574 263.886 366.745 264.057C366.915 264.227 367.011 264.459 367.011 264.7C367.011 264.941 366.915 265.173 366.745 265.344C366.574 265.514 366.343 265.61 366.101 265.61Z" fill="black"/>
<path d="M386.752 265.61H376.422C376.18 265.61 375.949 265.514 375.778 265.344C375.608 265.173 375.512 264.941 375.512 264.7C375.512 264.459 375.608 264.227 375.778 264.057C375.949 263.886 376.18 263.79 376.422 263.79H386.752C386.871 263.79 386.99 263.814 387.1 263.859C387.21 263.905 387.311 263.972 387.395 264.057C387.48 264.141 387.547 264.241 387.592 264.352C387.638 264.462 387.662 264.581 387.662 264.7C387.662 264.82 387.638 264.938 387.592 265.048C387.547 265.159 387.48 265.259 387.395 265.344C387.311 265.428 387.21 265.495 387.1 265.541C386.99 265.587 386.871 265.61 386.752 265.61Z" fill="black"/>
<path d="M407.39 265.61H397.07C396.829 265.61 396.597 265.514 396.427 265.344C396.256 265.173 396.16 264.941 396.16 264.7C396.16 264.459 396.256 264.227 396.427 264.057C396.597 263.886 396.829 263.79 397.07 263.79H407.39C407.51 263.79 407.628 263.814 407.738 263.859C407.849 263.905 407.949 263.972 408.034 264.057C408.118 264.141 408.185 264.241 408.231 264.352C408.277 264.462 408.3 264.581 408.3 264.7C408.301 264.82 408.279 264.939 408.234 265.05C408.188 265.161 408.121 265.262 408.037 265.346C407.952 265.431 407.851 265.498 407.74 265.543C407.629 265.589 407.51 265.611 407.39 265.61Z" fill="black"/>
<path d="M428.001 265.61H417.721C417.6 265.611 417.481 265.589 417.369 265.544C417.258 265.499 417.156 265.432 417.071 265.347C416.985 265.262 416.917 265.162 416.871 265.051C416.825 264.94 416.801 264.82 416.801 264.7C416.803 264.458 416.902 264.226 417.074 264.056C417.246 263.886 417.479 263.79 417.721 263.79H428.001C428.12 263.79 428.239 263.814 428.349 263.859C428.459 263.905 428.56 263.972 428.644 264.057C428.729 264.141 428.796 264.241 428.842 264.352C428.887 264.462 428.911 264.581 428.911 264.7C428.911 264.82 428.887 264.938 428.842 265.048C428.796 265.159 428.729 265.259 428.644 265.344C428.56 265.428 428.459 265.495 428.349 265.541C428.239 265.587 428.12 265.61 428.001 265.61Z" fill="black"/>
</g>
<path d="M414.683 319.95H404.973V350.58H414.683V319.95Z" fill="#FAAA19" stroke="#263238" stroke-miterlimit="10"/>
<path d="M403.89 339.77H394.18V350.58H403.89V339.77Z" fill="#263238" stroke="#263238" stroke-linecap="round" stroke-linejoin="round"/>
<path d="M393.101 279.4H383.391V350.57H393.101V279.4Z" fill="#F18F01" stroke="#263238" stroke-miterlimit="10"/>
<path d="M382.319 283.01H372.609V350.58H382.319V283.01Z" fill="white" stroke="#263238" stroke-linecap="round" stroke-linejoin="round"/>
<path d="M371.53 319.95H361.82V350.58H371.53V319.95Z" fill="#F18F01" stroke="#263238" stroke-miterlimit="10"/>
<path d="M360.741 310.04H351.031V350.58H360.741V310.04Z" fill="#263238" stroke="#263238" stroke-linecap="round" stroke-linejoin="round"/>
<path d="M349.96 345.17H340.25V350.58H349.96V345.17Z" fill="#FAAA19" stroke="#263238" stroke-miterlimit="10"/>
<path d="M339.171 339.77H329.461V350.58H339.171V339.77Z" fill="white" stroke="#263238" stroke-linecap="round" stroke-linejoin="round"/>
<path d="M328.382 319.95H318.672V350.58H328.382V319.95Z" fill="#FAAA19" stroke="#263238" stroke-miterlimit="10"/>
<path d="M330.942 292.45L334.412 312.16C331.533 312.67 328.578 312.543 325.754 311.788C322.93 311.032 320.306 309.667 318.066 307.788C315.827 305.909 314.027 303.562 312.792 300.912C311.558 298.262 310.919 295.373 310.922 292.45H330.942Z" stroke="#263238" stroke-width="0.75" stroke-linecap="round" stroke-linejoin="round"/>
<path d="M330.941 292.45L346.711 304.77C343.728 308.739 339.316 311.39 334.411 312.16L330.941 292.45Z" stroke="#263238" stroke-width="0.75" stroke-miterlimit="10"/>
<path d="M330.941 292.45L320.941 275.12C323.217 273.804 325.729 272.949 328.335 272.604C330.941 272.26 333.59 272.433 336.129 273.112C338.668 273.792 341.048 274.966 343.134 276.566C345.219 278.167 346.968 280.163 348.281 282.44C350.318 285.881 351.26 289.86 350.981 293.848C350.702 297.837 349.217 301.646 346.721 304.77L330.941 292.45Z" stroke="#263238" stroke-width="0.75" stroke-linecap="round" stroke-linejoin="round"/>
<path d="M337.845 299.345C341.656 295.533 341.656 289.354 337.845 285.542C334.033 281.731 327.854 281.731 324.042 285.542C320.23 289.354 320.23 295.533 324.042 299.345C327.854 303.156 334.033 303.156 337.845 299.345Z" fill="white" stroke="#263238" stroke-width="0.75" stroke-linecap="round" stroke-linejoin="round"/>
<path d="M359.281 371.42H383.071" stroke="#263238" stroke-miterlimit="10"/>
<path d="M359.281 375.47H383.071" stroke="#263238" stroke-miterlimit="10"/>
<path d="M359.281 379.52H383.071" stroke="#263238" stroke-miterlimit="10"/>
<path d="M359.281 383.56H383.071" stroke="#263238" stroke-miterlimit="10"/>
<path d="M410.312 346.81V379.63H387.062" stroke="#263238" stroke-miterlimit="10"/>
<path d="M139.161 82.52L133.311 73.19H81.8008V82.52V85.88V241.17H293.831V82.52H139.161Z" fill="#263238"/>
<path d="M292.431 86.8H83.3711V237.79H292.431V86.8Z" fill="white"/>
<mask id="mask1_506_5983" style="mask-type:luminance" maskUnits="userSpaceOnUse" x="83" y="86" width="210" height="152">
<path d="M292.431 86.8H83.3711V237.79H292.431V86.8Z" fill="white"/>
</mask>
<g mask="url(#mask1_506_5983)">
<path opacity="0.17" d="M293.463 85.5H288.613V238.93H293.463V85.5Z" fill="black"/>
<path opacity="0.17" d="M293.463 178.27H288.613V237.69H293.463V178.27Z" fill="black"/>
<path d="M292.713 84.76H82.543V92.97H292.713V84.76Z" fill="#FAAA19" stroke="#263238" stroke-miterlimit="10"/>
</g>
<path d="M292.431 86.8H83.3711V237.79H292.431V86.8Z" stroke="#263238" stroke-linecap="round" stroke-linejoin="round"/>
<g opacity="0.17">
<path d="M192.299 100.89H177.669C177.327 100.89 176.999 100.754 176.757 100.512C176.515 100.27 176.379 99.9421 176.379 99.6C176.379 99.4306 176.412 99.2628 176.477 99.1063C176.542 98.9498 176.637 98.8076 176.757 98.6878C176.877 98.568 177.019 98.473 177.175 98.4082C177.332 98.3434 177.499 98.31 177.669 98.31H192.299C192.468 98.31 192.636 98.3434 192.793 98.4082C192.949 98.473 193.091 98.568 193.211 98.6878C193.331 98.8076 193.426 98.9498 193.491 99.1063C193.556 99.2628 193.589 99.4306 193.589 99.6C193.589 99.9421 193.453 100.27 193.211 100.512C192.969 100.754 192.641 100.89 192.299 100.89Z" fill="black"/>
<path d="M221.551 100.89H206.931C206.588 100.89 206.26 100.754 206.018 100.512C205.777 100.27 205.641 99.9421 205.641 99.6C205.641 99.4306 205.674 99.2628 205.739 99.1063C205.804 98.9498 205.899 98.8076 206.018 98.6878C206.138 98.568 206.28 98.473 206.437 98.4082C206.593 98.3434 206.761 98.31 206.931 98.31H221.551C221.72 98.31 221.888 98.3434 222.044 98.4082C222.201 98.473 222.343 98.568 222.463 98.6878C222.583 98.8076 222.678 98.9498 222.742 99.1063C222.807 99.2628 222.841 99.4306 222.841 99.6C222.841 99.9421 222.705 100.27 222.463 100.512C222.221 100.754 221.893 100.89 221.551 100.89Z" fill="black"/>
<path d="M250.801 100.89H236.181C235.838 100.89 235.51 100.754 235.268 100.512C235.027 100.27 234.891 99.9421 234.891 99.6C234.891 99.4306 234.924 99.2628 234.989 99.1063C235.054 98.9498 235.149 98.8076 235.268 98.6878C235.388 98.568 235.53 98.473 235.687 98.4082C235.843 98.3434 236.011 98.31 236.181 98.31H250.801C250.97 98.31 251.138 98.3434 251.294 98.4082C251.451 98.473 251.593 98.568 251.713 98.6878C251.833 98.8076 251.928 98.9498 251.992 99.1063C252.057 99.2628 252.091 99.4306 252.091 99.6C252.091 99.9421 251.955 100.27 251.713 100.512C251.471 100.754 251.143 100.89 250.801 100.89Z" fill="black"/>
<path d="M280.061 100.89H265.431C265.088 100.89 264.76 100.754 264.518 100.512C264.277 100.27 264.141 99.9421 264.141 99.6C264.141 99.4306 264.174 99.2628 264.239 99.1063C264.304 98.9498 264.399 98.8076 264.518 98.6878C264.638 98.568 264.78 98.473 264.937 98.4082C265.093 98.3434 265.261 98.31 265.431 98.31H280.061C280.23 98.31 280.398 98.3434 280.554 98.4082C280.711 98.473 280.853 98.568 280.973 98.6878C281.093 98.8076 281.188 98.9498 281.252 99.1063C281.317 99.2628 281.351 99.4306 281.351 99.6C281.351 99.9421 281.215 100.27 280.973 100.512C280.731 100.754 280.403 100.89 280.061 100.89Z" fill="black"/>
</g>
<path d="M94.7812 173.57H283.101" stroke="#263238" stroke-width="0.5" stroke-miterlimit="10"/>
<path d="M94.7812 173.57V172.11" stroke="#263238" stroke-width="0.5" stroke-miterlimit="10"/>
<path d="M118.32 173.57V172.11" stroke="#263238" stroke-width="0.5" stroke-miterlimit="10"/>
<path d="M141.859 173.57V172.11" stroke="#263238" stroke-width="0.5" stroke-miterlimit="10"/>
<path d="M165.402 173.57V172.11" stroke="#263238" stroke-width="0.5" stroke-miterlimit="10"/>
<path d="M188.941 173.57V172.11" stroke="#263238" stroke-width="0.5" stroke-miterlimit="10"/>
<path d="M212.48 173.57V172.11" stroke="#263238" stroke-width="0.5" stroke-miterlimit="10"/>
<path d="M236.02 173.57V172.11" stroke="#263238" stroke-width="0.5" stroke-miterlimit="10"/>
<path d="M259.562 173.57V172.11" stroke="#263238" stroke-width="0.5" stroke-miterlimit="10"/>
<path d="M283.102 173.57V172.11" stroke="#263238" stroke-width="0.5" stroke-miterlimit="10"/>
<path d="M130.091 158.39L106.551 165.67" stroke="#263238" stroke-width="2" stroke-miterlimit="10" stroke-linecap="round"/>
<path d="M153.63 142.38L130.09 158.39" stroke="#263238" stroke-width="2" stroke-miterlimit="10" stroke-linecap="round"/>
<path d="M177.169 120.54L153.629 142.38" stroke="#263238" stroke-width="2" stroke-miterlimit="10" stroke-linecap="round"/>
<path d="M200.712 118.36L177.172 120.54" stroke="#263238" stroke-width="2" stroke-miterlimit="10" stroke-linecap="round"/>
<path d="M224.251 134.37L200.711 118.36" stroke="#263238" stroke-width="2" stroke-miterlimit="10" stroke-linecap="round"/>
<path d="M247.79 149.66L224.25 134.37" stroke="#263238" stroke-width="2" stroke-miterlimit="10" stroke-linecap="round"/>
<path d="M271.329 117.63L247.789 149.66" stroke="#263238" stroke-width="2" stroke-miterlimit="10" stroke-linecap="round"/>
<path d="M106.551 162.67C107.346 162.67 108.109 162.986 108.672 163.549C109.235 164.111 109.551 164.874 109.551 165.67C109.551 166.466 109.235 167.229 108.672 167.791C108.109 168.354 107.346 168.67 106.551 168.67C105.755 168.67 104.992 168.354 104.429 167.791C103.867 167.229 103.551 166.466 103.551 165.67C103.551 164.874 103.867 164.111 104.429 163.549C104.992 162.986 105.755 162.67 106.551 162.67Z" fill="#8568F5" stroke="#263238" stroke-miterlimit="10"/>
<path d="M130.09 155.39C130.885 155.39 131.649 155.706 132.211 156.269C132.774 156.831 133.09 157.594 133.09 158.39C133.09 159.186 132.774 159.949 132.211 160.511C131.649 161.074 130.885 161.39 130.09 161.39C129.294 161.39 128.531 161.074 127.969 160.511C127.406 159.949 127.09 159.186 127.09 158.39C127.09 157.594 127.406 156.831 127.969 156.269C128.531 155.706 129.294 155.39 130.09 155.39Z" fill="#8568F5" stroke="#263238" stroke-miterlimit="10"/>
<path d="M153.629 139.38C154.425 139.38 155.188 139.696 155.75 140.259C156.313 140.821 156.629 141.584 156.629 142.38C156.629 143.176 156.313 143.939 155.75 144.501C155.188 145.064 154.425 145.38 153.629 145.38C152.833 145.38 152.07 145.064 151.508 144.501C150.945 143.939 150.629 143.176 150.629 142.38C150.629 141.584 150.945 140.821 151.508 140.259C152.07 139.696 152.833 139.38 153.629 139.38Z" fill="#8568F5" stroke="#263238" stroke-miterlimit="10"/>
<path d="M177.172 117.54C177.968 117.54 178.731 117.856 179.293 118.419C179.856 118.981 180.172 119.744 180.172 120.54C180.172 121.336 179.856 122.099 179.293 122.661C178.731 123.224 177.968 123.54 177.172 123.54C176.376 123.54 175.613 123.224 175.051 122.661C174.488 122.099 174.172 121.336 174.172 120.54C174.172 119.744 174.488 118.981 175.051 118.419C175.613 117.856 176.376 117.54 177.172 117.54Z" fill="#8568F5" stroke="#263238" stroke-miterlimit="10"/>
<path d="M200.711 115.36C201.507 115.36 202.27 115.676 202.832 116.239C203.395 116.801 203.711 117.564 203.711 118.36C203.711 119.156 203.395 119.919 202.832 120.481C202.27 121.044 201.507 121.36 200.711 121.36C199.915 121.36 199.152 121.044 198.59 120.481C198.027 119.919 197.711 119.156 197.711 118.36C197.711 117.564 198.027 116.801 198.59 116.239C199.152 115.676 199.915 115.36 200.711 115.36Z" fill="#8568F5" stroke="#263238" stroke-miterlimit="10"/>
<path d="M224.25 131.37C225.046 131.37 225.809 131.686 226.371 132.249C226.934 132.811 227.25 133.574 227.25 134.37C227.25 135.166 226.934 135.929 226.371 136.491C225.809 137.054 225.046 137.37 224.25 137.37C223.454 137.37 222.691 137.054 222.129 136.491C221.566 135.929 221.25 135.166 221.25 134.37C221.25 133.574 221.566 132.811 222.129 132.249C222.691 131.686 223.454 131.37 224.25 131.37Z" fill="#8568F5" stroke="#263238" stroke-miterlimit="10"/>
<path d="M250.789 149.66C250.789 148.003 249.446 146.66 247.789 146.66C246.132 146.66 244.789 148.003 244.789 149.66C244.789 151.317 246.132 152.66 247.789 152.66C249.446 152.66 250.789 151.317 250.789 149.66Z" fill="#8568F5" stroke="#263238" stroke-miterlimit="10"/>
<path d="M271.332 114.63C272.128 114.63 272.891 114.946 273.453 115.509C274.016 116.071 274.332 116.834 274.332 117.63C274.332 118.426 274.016 119.189 273.453 119.751C272.891 120.314 272.128 120.63 271.332 120.63C270.536 120.63 269.773 120.314 269.211 119.751C268.648 119.189 268.332 118.426 268.332 117.63C268.332 116.834 268.648 116.071 269.211 115.509C269.773 114.946 270.536 114.63 271.332 114.63Z" fill="#8568F5" stroke="#263238" stroke-miterlimit="10"/>
<path d="M182.122 211.34L161.002 215.07C160.013 209.458 161.294 203.684 164.563 199.016C167.831 194.348 172.82 191.17 178.432 190.18C179.664 189.969 180.911 189.862 182.162 189.86L182.122 211.34Z" fill="#263238" stroke="#263238" stroke-linecap="round" stroke-linejoin="round"/>
<path d="M182.121 211.34L168.901 228.27C164.633 225.075 161.784 220.337 160.961 215.07L182.121 211.34Z" fill="#F18F01" stroke="#263238" stroke-miterlimit="10"/>
<path d="M182.121 211.34L200.731 200.6C202.149 203.046 203.071 205.747 203.443 208.549C203.816 211.352 203.632 214.2 202.902 216.931C202.172 219.662 200.91 222.222 199.188 224.465C197.467 226.707 195.32 228.588 192.871 230C189.176 232.197 184.897 233.214 180.608 232.914C176.319 232.613 172.224 231.011 168.871 228.32L182.121 211.34Z" fill="white" stroke="#263238" stroke-linecap="round" stroke-linejoin="round"/>
<path d="M182.121 211.34V189.86C185.905 189.795 189.636 190.761 192.914 192.652C196.192 194.544 198.894 197.291 200.731 200.6L182.121 211.34Z" fill="#F18F01" stroke="#263238" stroke-miterlimit="10"/>
<path d="M189.528 218.752C193.621 214.659 193.621 208.024 189.528 203.931C185.436 199.838 178.8 199.839 174.707 203.931C170.615 208.024 170.615 214.659 174.707 218.752C178.8 222.845 185.436 222.845 189.528 218.752Z" fill="white" stroke="#263238" stroke-linecap="round" stroke-linejoin="round"/>
<path d="M118.572 211.38L122.302 232.54C119.523 233.031 116.675 232.969 113.92 232.359C111.165 231.748 108.557 230.601 106.246 228.982C103.934 227.363 101.964 225.305 100.449 222.925C98.933 220.545 97.9011 217.889 97.412 215.11C97.1972 213.878 97.0868 212.63 97.082 211.38H118.572Z" fill="#263238" stroke="#263238" stroke-linecap="round" stroke-linejoin="round"/>
<path d="M118.57 211.38L135.5 224.61C132.301 228.871 127.565 231.716 122.3 232.54L118.57 211.38Z" fill="#F18F01" stroke="#263238" stroke-miterlimit="10"/>
<path d="M118.57 211.38L107.82 192.77C112.758 189.922 118.624 189.151 124.13 190.627C129.635 192.103 134.329 195.704 137.18 200.64C139.372 204.337 140.385 208.615 140.085 212.902C139.785 217.19 138.186 221.284 135.5 224.64L118.57 211.38Z" fill="white" stroke="#263238" stroke-linecap="round" stroke-linejoin="round"/>
<path d="M118.571 211.38H97.0812C97.0167 207.596 97.9819 203.865 99.8736 200.587C101.765 197.31 104.512 194.607 107.821 192.77L118.571 211.38Z" fill="#FAAA19" stroke="#263238" stroke-miterlimit="10"/>
<path d="M118.57 221.86C124.358 221.86 129.05 217.168 129.05 211.38C129.05 205.592 124.358 200.9 118.57 200.9C112.782 200.9 108.09 205.592 108.09 211.38C108.09 217.168 112.782 221.86 118.57 221.86Z" fill="white" stroke="#263238" stroke-linecap="round" stroke-linejoin="round"/>
<path d="M245.611 211.38L249.341 232.54C246.562 233.031 243.714 232.969 240.959 232.359C238.204 231.748 235.596 230.601 233.285 228.982C230.973 227.363 229.003 225.305 227.488 222.925C225.972 220.545 224.94 217.889 224.451 215.11C224.236 213.878 224.126 212.63 224.121 211.38H245.611Z" fill="#263238" stroke="#263238" stroke-linecap="round" stroke-linejoin="round"/>
<path d="M245.609 211.38L262.539 224.61C259.34 228.871 254.604 231.716 249.339 232.54L245.609 211.38Z" fill="#FAAA19" stroke="#263238" stroke-miterlimit="10"/>
<path d="M245.609 211.38L234.859 192.77C239.797 189.922 245.663 189.151 251.169 190.627C256.674 192.103 261.368 195.704 264.219 200.64C266.411 204.337 267.424 208.615 267.124 212.902C266.824 217.19 265.225 221.284 262.539 224.64L245.609 211.38Z" fill="white" stroke="#263238" stroke-linecap="round" stroke-linejoin="round"/>
<path d="M245.61 211.38H224.12C224.056 207.596 225.021 203.865 226.913 200.587C228.804 197.31 231.552 194.607 234.86 192.77L245.61 211.38Z" fill="#FAAA19" stroke="#263238" stroke-miterlimit="10"/>
<path d="M245.609 221.86C251.397 221.86 256.089 217.168 256.089 211.38C256.089 205.592 251.397 200.9 245.609 200.9C239.821 200.9 235.129 205.592 235.129 211.38C235.129 217.168 239.821 221.86 245.609 221.86Z" fill="white" stroke="#263238" stroke-linecap="round" stroke-linejoin="round"/>
<path d="M95.3008 109.86H119.091" stroke="#263238" stroke-miterlimit="10"/>
<path d="M95.3008 113.9H119.091" stroke="#263238" stroke-miterlimit="10"/>
<path d="M95.3008 117.95H119.091" stroke="#263238" stroke-miterlimit="10"/>
<path d="M95.3008 122H119.091" stroke="#263238" stroke-miterlimit="10"/>
<path d="M280.379 119.1H303.629L330.989 143.03" stroke="#263238" stroke-linecap="round" stroke-linejoin="round"/>
<path d="M335.352 136.19H359.142" stroke="#263238" stroke-miterlimit="10"/>
<path d="M335.352 140.24H359.142" stroke="#263238" stroke-miterlimit="10"/>
<path d="M335.352 144.29H359.142" stroke="#263238" stroke-miterlimit="10"/>
<path d="M335.352 148.33H359.142" stroke="#263238" stroke-miterlimit="10"/>
<path d="M335.352 205.25H359.142" stroke="#263238" stroke-miterlimit="10"/>
<path d="M335.352 209.3H359.142" stroke="#263238" stroke-miterlimit="10"/>
<path d="M335.352 213.35H359.142" stroke="#263238" stroke-miterlimit="10"/>
<path d="M335.352 217.4H359.142" stroke="#263238" stroke-miterlimit="10"/>
<path d="M106.961 285.26H130.751" stroke="#263238" stroke-miterlimit="10"/>
<path d="M106.961 289.31H130.751" stroke="#263238" stroke-miterlimit="10"/>
<path d="M106.961 293.36H130.751" stroke="#263238" stroke-miterlimit="10"/>
<path d="M106.961 297.4H130.751" stroke="#263238" stroke-miterlimit="10"/>
<path d="M256.449 199.1L266.019 188.16H304.319L331.669 210.73" stroke="#263238" stroke-miterlimit="10"/>
<path d="M118.32 231.93V283.21" stroke="#263238" stroke-miterlimit="10"/>
<path d="M71.9986 318.65C73.9286 319.5 78.6586 319.39 78.6586 319.39C78.6586 319.39 77.6586 316.3 77.5586 316.11C76.5586 313.94 73.2386 310.36 70.5586 310.72C70.1164 310.792 69.6945 310.957 69.3201 311.203C68.9458 311.449 68.6275 311.771 68.386 312.149C68.1445 312.526 67.9851 312.95 67.9184 313.393C67.8517 313.836 67.879 314.288 67.9986 314.72C68.4486 316.56 70.3486 317.93 71.9986 318.65Z" fill="#263238"/>
<path d="M133.859 302.58C131.179 302.29 128.009 305.95 127.029 308.15C126.939 308.34 125.959 311.46 126.029 311.46H126.089C125.579 312.03 125.089 312.65 124.479 313.34C123.479 314.63 122.259 316.09 121.089 317.77C119.812 319.564 118.64 321.43 117.579 323.36C116.377 325.515 115.372 327.774 114.579 330.11V330.19C114.579 329.4 114.579 327.19 114.579 327.03C114.269 324.65 112.269 320.22 109.579 319.73C109.137 319.662 108.685 319.688 108.253 319.806C107.822 319.923 107.42 320.13 107.073 320.413C106.726 320.696 106.442 321.048 106.24 321.447C106.038 321.846 105.922 322.283 105.899 322.73C105.749 324.62 107.119 326.52 108.459 327.73C109.969 329.08 114.159 330.39 114.459 330.49C113.711 332.886 113.119 335.328 112.689 337.8C112.439 339.24 112.219 340.7 112.029 342.16C112.029 341.48 112.029 340.87 112.029 340.78C111.719 338.4 109.729 333.98 107.079 333.49C106.637 333.421 106.185 333.445 105.753 333.562C105.322 333.679 104.919 333.886 104.573 334.169C104.227 334.453 103.944 334.806 103.743 335.206C103.543 335.605 103.429 336.043 103.409 336.49C103.249 338.39 104.619 340.28 105.959 341.49C107.299 342.7 110.869 343.89 111.809 344.19L111.599 345.87C111.279 348.57 110.969 351.27 110.599 353.87C110.469 354.8 110.299 355.71 110.139 356.62C110.139 356.02 110.139 355.51 110.139 355.43C109.839 353.05 107.839 348.63 105.139 348.14C104.697 348.071 104.245 348.095 103.813 348.212C103.382 348.329 102.979 348.536 102.633 348.819C102.287 349.103 102.004 349.456 101.803 349.856C101.603 350.255 101.489 350.693 101.469 351.14C101.309 353.03 102.689 354.93 104.029 356.14C105.369 357.35 108.589 358.42 109.709 358.79C109.509 359.72 109.319 360.64 109.079 361.53C108.909 362.14 108.789 362.73 108.579 363.33L108.009 365.1C107.609 366.21 107.199 367.36 106.779 368.43C106.489 369.18 106.199 369.89 105.909 370.6C106.059 369.68 106.299 367.87 106.309 367.71C106.274 365.601 105.703 363.536 104.649 361.71C104.669 361.477 104.669 361.243 104.649 361.01C104.592 360.566 104.443 360.139 104.211 359.757C103.978 359.375 103.668 359.046 103.3 358.791C102.933 358.537 102.515 358.362 102.076 358.279C101.636 358.196 101.184 358.207 100.749 358.31C98.1488 359 96.4988 363.56 96.3788 365.96C96.3788 366.1 96.4688 367.65 96.5388 368.62C96.4088 368.05 96.2888 367.5 96.1488 366.92C95.8688 365.77 95.5688 364.63 95.2388 363.41C95.0688 362.82 94.8888 362.23 94.7088 361.63C94.5288 361.03 94.2888 360.42 94.0788 359.81C93.5588 358.4 92.9688 357 92.3488 355.61C93.3488 355.36 96.9188 354.46 98.3488 353.36C99.7788 352.26 101.279 350.48 101.269 348.58C101.28 348.133 101.197 347.689 101.026 347.277C100.855 346.864 100.598 346.492 100.274 346.185C99.9498 345.877 99.5646 345.642 99.1433 345.493C98.7221 345.344 98.2743 345.285 97.8288 345.32C95.1488 345.61 92.8288 349.87 92.3488 352.23C92.3488 352.37 92.1588 354.1 92.0888 355.05C91.7088 354.21 91.3288 353.38 90.9088 352.54C89.7188 350.13 88.4288 347.73 87.1588 345.33C86.7688 344.6 86.3888 343.86 86.0088 343.13C86.3688 343.04 90.6288 342.06 92.2288 340.83C93.6488 339.74 95.1588 337.95 95.1488 336.05C95.16 335.603 95.0773 335.159 94.9059 334.747C94.7345 334.334 94.4784 333.962 94.1541 333.655C93.8298 333.347 93.4446 333.112 93.0233 332.963C92.6021 332.814 92.1543 332.755 91.7088 332.79C89.0288 333.08 86.7088 337.34 86.2288 339.69C86.2288 339.87 85.9688 342.36 85.9388 342.99C85.0988 341.37 84.2688 339.75 83.5288 338.11C82.5036 335.911 81.625 333.646 80.8988 331.33C81.0688 331.33 85.5088 330.33 87.1488 329.02C88.5788 327.93 90.0888 326.14 90.0688 324.24C90.0815 323.794 90 323.35 89.8298 322.937C89.6596 322.525 89.4044 322.153 89.0809 321.845C88.7573 321.538 88.3727 321.302 87.9519 321.153C87.5312 321.004 87.0838 320.945 86.6388 320.98C83.9588 321.27 81.6388 325.54 81.1488 327.89C81.1488 328.07 80.8788 330.75 80.8688 331.24C80.8688 331.1 80.7688 330.97 80.7288 330.83C80.0605 328.489 79.6053 326.093 79.3688 323.67C79.2188 322.33 79.1488 321.05 79.1088 319.8C79.9588 319.69 83.8188 319.18 85.4288 318.21C87.0388 317.24 88.6588 315.67 88.8488 313.78C88.9093 313.337 88.8761 312.887 88.7513 312.458C88.6265 312.029 88.4129 311.63 88.1244 311.289C87.8359 310.948 87.4789 310.671 87.0766 310.476C86.6742 310.282 86.2355 310.174 85.7888 310.16C83.0988 310.16 80.3288 314.16 79.5888 316.42C79.5888 316.55 79.2788 317.86 79.0888 318.81C79.0888 318.25 79.0888 317.66 79.0888 317.12C79.0888 315.12 79.2188 313.22 79.3488 311.57C79.4288 310.64 79.5188 309.79 79.6088 309C80.3888 308.47 83.4988 306.27 84.4588 304.7C85.4188 303.13 86.1588 300.96 85.4588 299.19C85.3094 298.769 85.073 298.384 84.7649 298.061C84.4568 297.737 84.0839 297.482 83.6707 297.312C83.2574 297.142 82.8131 297.062 82.3665 297.075C81.9199 297.088 81.4812 297.196 81.0788 297.39C78.6888 298.62 78.0788 303.39 78.4488 305.8C78.4488 306.01 79.3888 309.15 79.4488 309.12H79.4988C79.3888 309.88 79.2888 310.7 79.1888 311.59C79.0288 313.24 78.8588 315.1 78.8088 317.15C78.7356 319.348 78.789 321.548 78.9688 323.74C79.1615 326.198 79.5698 328.634 80.1888 331.02V331.11C79.7688 330.44 78.5188 328.62 78.4088 328.49C76.8388 326.68 72.7288 324.09 70.2488 325.14C69.8433 325.328 69.4817 325.599 69.1872 325.935C68.8927 326.271 68.672 326.666 68.5391 327.092C68.4063 327.519 68.3643 327.969 68.4159 328.413C68.4676 328.857 68.6116 329.285 68.8388 329.67C69.7588 331.33 71.9488 332.15 73.7188 332.41C75.7188 332.7 79.9388 331.48 80.2788 331.41C80.9714 333.824 81.8233 336.189 82.8288 338.49C83.4088 339.83 84.0388 341.16 84.6788 342.49C84.2988 341.93 83.9488 341.43 83.8888 341.36C82.3188 339.55 78.2188 336.96 75.7388 338.01C75.3326 338.196 74.9699 338.465 74.6746 338.8C74.3793 339.135 74.158 339.529 74.0249 339.955C73.8919 340.382 73.8502 340.831 73.9026 341.275C73.9549 341.719 74.1002 342.146 74.3288 342.53C75.2388 344.2 77.4288 345.02 79.2088 345.28C80.9888 345.54 84.6288 344.57 85.5788 344.28L86.3288 345.81C87.5488 348.24 88.7788 350.66 89.9088 353.07C90.3088 353.92 90.6788 354.77 91.0388 355.62C90.6988 355.12 90.4088 354.7 90.3588 354.62C88.7788 352.8 84.6788 350.22 82.1988 351.27C81.7926 351.456 81.4299 351.725 81.1346 352.06C80.8393 352.395 80.618 352.789 80.4849 353.215C80.3519 353.642 80.3102 354.091 80.3626 354.535C80.4149 354.979 80.5602 355.406 80.7888 355.79C81.7088 357.46 83.8988 358.28 85.6688 358.54C87.4388 358.8 90.7388 357.92 91.8688 357.61C92.2188 358.49 92.5688 359.37 92.8688 360.24C93.0588 360.84 93.2888 361.41 93.4488 362.02C93.6088 362.63 93.7788 363.22 93.9388 363.81C94.2188 364.96 94.5088 366.14 94.7488 367.27C94.9288 368.06 95.0788 368.81 95.2288 369.56C94.8388 368.71 94.0488 367.06 93.9688 366.93C92.6888 364.93 88.9688 361.72 86.4188 362.38C85.9883 362.502 85.5882 362.713 85.2449 363C84.9015 363.287 84.6225 363.643 84.4262 364.045C84.2299 364.447 84.1206 364.886 84.1056 365.333C84.0905 365.78 84.17 366.226 84.3388 366.64C84.9888 368.42 87.0288 369.57 88.7388 370.09C90.6288 370.67 94.8188 370.14 95.3388 370.09C95.5888 371.33 95.8188 372.55 96.0188 373.71C96.7288 377.71 97.1588 381.06 97.4288 383.4C97.4788 383.82 97.5188 384.19 97.5588 384.55H89.4588L92.4588 442.24H106.259L109.259 384.55H101.719L101.889 384.2C102.889 382.04 104.359 378.94 105.889 375.15C106.379 373.95 106.889 372.66 107.389 371.34C107.889 371.44 112.029 372.28 113.959 371.85C115.709 371.45 117.829 370.46 118.619 368.73C118.817 368.329 118.929 367.891 118.947 367.444C118.965 366.997 118.888 366.552 118.722 366.137C118.556 365.721 118.304 365.346 117.983 365.035C117.662 364.723 117.279 364.483 116.859 364.33C114.309 363.47 110.419 366.33 108.989 368.33C108.909 368.45 108.129 369.79 107.659 370.64L108.269 369.01C108.669 367.9 109.049 366.78 109.449 365.58C109.629 364.99 109.809 364.4 109.979 363.8C110.149 363.2 110.299 362.56 110.459 361.93C110.809 360.48 111.089 358.98 111.339 357.47C112.339 357.83 115.779 359.03 117.579 358.91C119.379 358.79 121.579 358.12 122.649 356.53C122.907 356.165 123.084 355.749 123.17 355.311C123.256 354.872 123.248 354.421 123.147 353.985C123.046 353.55 122.854 353.141 122.584 352.785C122.313 352.429 121.971 352.134 121.579 351.92C119.189 350.68 114.909 352.92 113.199 354.65C113.099 354.76 112.009 356.11 111.429 356.87C111.569 355.96 111.719 355.05 111.829 354.13C112.169 351.46 112.419 348.75 112.679 346.04C112.759 345.22 112.849 344.39 112.939 343.57C113.279 343.7 117.379 345.22 119.389 345.08C121.179 344.95 123.389 344.3 124.459 342.71C124.717 342.344 124.894 341.928 124.98 341.489C125.066 341.049 125.058 340.597 124.957 340.161C124.856 339.725 124.665 339.315 124.394 338.958C124.124 338.601 123.781 338.305 123.389 338.09C120.999 336.86 116.719 339.09 115.009 340.82C114.879 340.95 113.329 342.9 112.949 343.42C113.149 341.6 113.349 339.79 113.629 338.01C113.993 335.613 114.51 333.241 115.179 330.91C115.339 330.97 119.609 332.58 121.669 332.44C123.459 332.31 125.669 331.65 126.749 330.06C127.005 329.694 127.182 329.277 127.267 328.838C127.352 328.399 127.344 327.947 127.243 327.512C127.142 327.076 126.95 326.667 126.681 326.31C126.412 325.953 126.07 325.656 125.679 325.44C123.279 324.21 118.999 326.44 117.289 328.18C117.159 328.31 115.479 330.41 115.209 330.81C115.209 330.68 115.269 330.53 115.319 330.4C116.047 328.078 116.988 325.829 118.129 323.68C118.739 322.48 119.389 321.37 120.049 320.3C120.819 320.68 124.329 322.39 126.199 322.46C128.069 322.53 130.299 322.13 131.499 320.66C131.794 320.324 132.015 319.929 132.147 319.502C132.28 319.075 132.321 318.624 132.268 318.18C132.215 317.736 132.07 317.308 131.841 316.924C131.612 316.54 131.304 316.208 130.939 315.95C128.699 314.46 124.189 316.25 122.309 317.75C122.209 317.83 121.309 318.75 120.579 319.47C120.889 319 121.189 318.47 121.489 318.05C122.619 316.35 123.749 314.87 124.769 313.56C125.349 312.83 125.899 312.17 126.409 311.56C127.409 311.56 131.159 311.43 132.829 310.65C134.499 309.87 136.309 308.46 136.699 306.65C136.835 306.193 136.867 305.711 136.791 305.24C136.715 304.769 136.534 304.321 136.261 303.93C135.988 303.539 135.63 303.214 135.214 302.98C134.798 302.747 134.335 302.61 133.859 302.58ZM104.239 374.45C102.619 378.17 101.129 381.21 100.069 383.32L99.4788 384.47H99.2988C99.2988 384.05 99.1888 383.6 99.1188 383.1C98.7888 380.73 98.2788 377.35 97.4788 373.33C97.2288 372.06 96.9388 370.71 96.6288 369.33C97.8867 368.83 99.1124 368.252 100.299 367.6C101.679 369.1 105.209 370.84 105.669 371.06C105.189 372.23 104.709 373.38 104.239 374.45Z" fill="#263238"/>
<path d="M119.757 319.69C119.757 319.69 120.617 316.55 120.647 316.35C120.977 313.97 120.217 309.17 117.797 308C117.389 307.817 116.948 307.721 116.501 307.72C116.054 307.719 115.611 307.812 115.203 307.993C114.794 308.174 114.429 308.439 114.129 308.771C113.83 309.104 113.604 309.495 113.467 309.92C112.817 311.71 113.637 313.92 114.617 315.4C115.757 317.17 119.757 319.69 119.757 319.69Z" fill="#263238"/>
<path d="M291.83 467.97C319.676 467.97 342.25 461.339 342.25 453.16C342.25 444.981 319.676 438.35 291.83 438.35C263.984 438.35 241.41 444.981 241.41 453.16C241.41 461.339 263.984 467.97 291.83 467.97Z" fill="#8568F5"/>
<path opacity="0.5" d="M291.83 467.97C319.676 467.97 342.25 461.339 342.25 453.16C342.25 444.981 319.676 438.35 291.83 438.35C263.984 438.35 241.41 444.981 241.41 453.16C241.41 461.339 263.984 467.97 291.83 467.97Z" fill="#A97C6C"/>
<path d="M288.131 217.12C285.815 214.062 282.381 212.048 278.581 211.52C272.441 210.84 267.261 215.07 264.801 217.8C262.341 220.53 263.981 225.8 263.711 226.94C263.441 228.08 260.161 231.57 260.301 232.67C260.441 233.77 262.071 233.89 262.071 233.89C262.071 233.89 263.441 240.31 264.261 241.81C265.081 243.31 267.261 243.58 268.081 243.58C268.674 243.631 269.238 243.858 269.701 244.23L270.971 248.66L289.631 244.4L289.081 238.26C289.081 238.26 293.721 232.12 293.311 226.12C293.162 224.331 292.621 222.597 291.726 221.042C290.83 219.486 289.603 218.147 288.131 217.12Z" fill="#A97C6C" stroke="#263238" stroke-linecap="round" stroke-linejoin="round"/>
<path d="M284.31 219.71C280.31 220.39 274.76 214.66 271.31 217.12C271.31 217.12 266.67 220.94 266.95 222.71C267.23 224.48 269.4 225.85 269.26 227.48C269.12 229.11 269.81 232.53 270.63 231.03C271.45 229.53 271.04 227.89 272.27 227.48C273.5 227.07 275.27 229.26 275.54 231.3C275.81 233.34 275.4 234.3 276.49 235.8C277.259 236.81 278.25 237.63 279.385 238.199C280.52 238.767 281.77 239.069 283.04 239.08C285.057 238.949 287.062 238.675 289.04 238.26C289.04 238.26 293.68 232.12 293.27 226.12C293.121 224.331 292.579 222.597 291.684 221.042C290.789 219.486 289.562 218.147 288.09 217.12C288.09 217.12 288.27 219 284.31 219.71Z" fill="#EBEBEB" stroke="#263238" stroke-linecap="round" stroke-linejoin="round"/>
<path d="M271.211 234.71C271.211 234.71 271.621 237.85 273.531 237.3C275.441 236.75 275.851 234.03 275.851 234.03" stroke="#263238" stroke-linecap="round" stroke-linejoin="round"/>
<path d="M265.351 252.86C266.127 251.578 267.035 250.382 268.061 249.29C269.831 247.38 279.871 243.62 284.511 243.34C289.151 243.06 292.961 246.88 295.141 248.66C295.747 249.063 296.212 249.644 296.472 250.323C296.731 251.003 296.773 251.746 296.591 252.45C291.252 250.803 285.619 250.335 280.081 251.08C274.847 251.762 269.656 252.737 264.531 254L265.351 252.86Z" fill="#8568F5" stroke="#263238" stroke-linecap="round" stroke-linejoin="round"/>
<path d="M240.68 333.09C240.68 333.09 241.91 341.51 242.32 343.56C242.73 345.61 245.65 352.24 247.32 350.67C248.99 349.1 249.55 343.77 248.73 341.1C247.91 338.43 246.68 333.51 246.48 332.89C246.28 332.27 240.68 333.09 240.68 333.09Z" fill="#A97C6C" stroke="#263238" stroke-linecap="round" stroke-linejoin="round"/>
<path d="M238.34 303.19C237.357 306.472 236.763 309.859 236.57 313.28C236.747 318.406 237.292 323.512 238.2 328.56C238.76 332.2 241.2 335.88 243.11 335.79C248.98 335.52 246.8 324.61 247.89 318.33C248.98 312.05 249.89 311.65 250.48 304.69" fill="#8568F5"/>
<path d="M238.34 303.19C237.357 306.472 236.763 309.859 236.57 313.28C236.747 318.406 237.292 323.512 238.2 328.56C238.76 332.2 241.2 335.88 243.11 335.79C248.98 335.52 246.8 324.61 247.89 318.33C248.98 312.05 249.89 311.65 250.48 304.69" stroke="#263238" stroke-linecap="round" stroke-linejoin="round"/>
<path d="M266.591 444.64C265.41 444.634 264.24 444.879 263.161 445.36C261.441 446.15 261.011 447.22 261.591 448.29C262.171 449.36 263.441 451.94 265.521 453.22C267.601 454.5 270.451 455.15 272.091 456.22C273.731 457.29 276.811 456.93 277.891 455C278.971 453.07 277.671 448.78 277.671 448.78C275.261 448.183 272.895 447.418 270.591 446.49C268.091 445.36 266.591 444.64 266.591 444.64Z" fill="#A97C6C" stroke="#263238" stroke-linecap="round" stroke-linejoin="round"/>
<path d="M277.891 455C277.974 454.829 278.045 454.652 278.101 454.47C277.431 455.073 276.633 455.518 275.767 455.771C274.902 456.024 273.99 456.078 273.101 455.93C271.671 455.64 269.101 453.86 267.451 453.21C265.564 452.284 263.994 450.819 262.941 449C262.441 448.074 262.151 447.05 262.091 446C261.734 446.246 261.484 446.618 261.391 447.041C261.298 447.465 261.37 447.907 261.591 448.28C262.161 449.35 263.441 451.93 265.521 453.21C267.601 454.49 270.451 455.14 272.091 456.21C273.731 457.28 276.811 456.94 277.891 455Z" fill="#A97C6C" stroke="#263238" stroke-linecap="round" stroke-linejoin="round"/>
<path d="M294.059 446.47C294.059 446.47 294.559 449.83 294.559 451.19C294.559 452.55 296.849 454.98 299.209 454.98C301.569 454.98 303.919 454.05 304.919 452.84C305.919 451.63 305.569 447.4 305.569 447.4C305.569 447.4 296.269 448.83 294.059 446.47Z" fill="#A97C6C" stroke="#263238" stroke-linecap="round" stroke-linejoin="round"/>
<path d="M304.92 452.84C305.21 452.42 305.392 451.936 305.45 451.43C304.31 452.7 302.02 454.55 299.45 454.05C297.473 453.547 295.741 452.351 294.57 450.68C294.57 450.87 294.57 451.04 294.57 451.19C294.57 452.55 296.86 454.98 299.22 454.98C301.58 454.98 303.92 454.05 304.92 452.84Z" fill="#A97C6C" stroke="#263238" stroke-linecap="round" stroke-linejoin="round"/>
<path d="M254.709 320.11C254.709 320.11 255.249 331.29 254.979 336.11C254.709 340.93 255.389 365.3 255.979 373.35C256.569 381.4 258.299 399.54 259.519 406.9C260.739 414.26 267.199 443.19 267.199 443.19C267.199 443.19 265.889 445.81 266.199 446.9C266.509 447.99 269.139 450.83 273.069 451.27C276.999 451.71 277.759 450.83 278.529 449.08C279.299 447.33 279.619 442.75 279.839 439.92C280.059 437.09 282.419 431.32 281.599 423.68C280.779 416.04 282.279 389.44 282.279 389.44L283.509 371.16C283.509 371.16 284.329 393.53 285.149 396.94C285.969 400.35 292.149 437.17 292.849 439.24C293.549 441.31 292.959 445.02 293.389 445.9C293.819 446.78 294.159 448.73 295.249 449.61C296.339 450.49 301.029 450.92 302.779 450.15C304.529 449.38 305.939 448.41 305.939 447.64C305.939 446.87 306.599 443.28 306.379 441.31C306.159 439.34 305.619 437.71 305.619 437.17C305.619 436.63 307.249 407.58 307.249 399.54C307.249 391.5 306.249 382.48 306.249 382.48C306.249 382.48 309.389 358.75 309.929 349.2C310.407 342.465 310.18 335.698 309.249 329.01C308.709 326.15 307.749 320.01 307.749 320.01C307.749 320.01 296.289 323.56 287.289 323.83C278.289 324.1 275.149 324.78 270.099 323.56C265.049 322.34 258.369 320.56 257.829 320.15C257.289 319.74 254.159 318.2 254.709 320.11Z" fill="#263238" stroke="#263238" stroke-linecap="round" stroke-linejoin="round"/>
<path d="M283.492 371.12L285.812 351.07" stroke="#A97C6C" stroke-linecap="round" stroke-linejoin="round"/>
<path d="M285.262 355.71L292.812 352.59" stroke="#A97C6C" stroke-linecap="round" stroke-linejoin="round"/>
<path d="M306.272 382.44L300.602 407.59" stroke="#A97C6C" stroke-linecap="round" stroke-linejoin="round"/>
<path d="M324.622 251.06C324.622 251.06 326.392 245.76 327.032 244.15C327.672 242.54 329.122 240.78 329.122 238.7C329.122 236.62 328.312 231.95 327.832 233.24C327.373 234.691 327.157 236.208 327.192 237.73C327.221 238.529 326.997 239.316 326.552 239.98C326.552 239.98 324.622 235.81 323.022 235.65C321.422 235.49 321.412 235.97 322.022 236.65C322.828 237.298 323.5 238.096 324.002 239C324.396 239.579 324.668 240.232 324.802 240.92C324.802 240.92 322.072 237.87 320.802 237.87C319.532 237.87 318.392 238.51 319.192 239C319.958 239.368 320.768 239.637 321.602 239.8L322.732 242.05C322.732 242.05 320.002 241.05 319.192 241.89C318.382 242.73 320.002 243 320.002 243L321.122 243.16C320.332 244.481 319.841 245.959 319.682 247.49C319.737 249.105 319.898 250.715 320.162 252.31L324.622 251.06Z" fill="#A97C6C" stroke="#263238" stroke-linecap="round" stroke-linejoin="round"/>
<path d="M321.891 248.33C322.196 246.83 322.683 245.372 323.341 243.99C324.141 242.71 326.071 241.91 327.191 240.62C328.311 239.33 328.961 237.41 329.761 238.21C330.561 239.01 329.921 240.46 329.121 241.59C328.321 242.72 325.591 245.59 325.421 248.17" fill="#A97C6C"/>
<path d="M321.891 248.33C322.196 246.83 322.683 245.372 323.341 243.99C324.141 242.71 326.071 241.91 327.191 240.62C328.311 239.33 328.961 237.41 329.761 238.21C330.561 239.01 329.921 240.46 329.121 241.59C328.321 242.72 325.591 245.59 325.421 248.17" stroke="#263238" stroke-linecap="round" stroke-linejoin="round"/>
<path d="M318.84 255.71L319.16 250.9C320.197 250.353 321.374 250.127 322.54 250.25C324.62 250.41 325.26 251.25 325.26 251.25L325.42 256.55L318.84 255.71Z" fill="#8568F5" stroke="#263238" stroke-linecap="round" stroke-linejoin="round"/>
<path d="M248.929 307.5C249.207 307.23 249.452 306.928 249.659 306.6C249.659 306.6 249.659 306.7 249.719 306.85C250.719 303.85 252.529 299.51 252.529 299.51C252.529 299.51 253.069 319.97 254.849 322.15C256.219 323.85 258.849 324.33 260.849 324.76C263.529 325.33 266.219 325.89 268.929 326.28C278.339 327.64 287.769 327.09 297.159 325.88C299.899 325.53 304.419 325.71 306.399 323.38C307.407 322.1 307.938 320.509 307.899 318.88C307.899 318.33 308.989 295.55 308.989 295.55C308.989 295.55 320.719 304.28 323.179 304.01C325.639 303.74 327.269 301.55 326.999 295.01C326.729 288.47 325.999 256.4 325.219 254.9C324.439 253.4 320.039 253.13 318.399 255.04C316.759 256.95 315.999 272.8 315.999 272.8C315.999 272.8 310.779 261.45 308.599 257.9C306.419 254.35 293.189 250.13 293.189 250.13C293.189 250.13 284.869 247.4 276.819 249.13C270.907 250.312 265.226 252.446 259.999 255.45C255.909 257.77 247.859 259.95 246.489 262.81C245.119 265.67 240.219 295.96 239.129 299.92C238.809 301.05 238.449 302.3 238.129 303.64C238.266 304.389 238.488 305.12 238.789 305.82" fill="#8568F5"/>
<path d="M248.929 307.5C249.207 307.23 249.452 306.928 249.659 306.6C249.659 306.6 249.659 306.7 249.719 306.85C250.719 303.85 252.529 299.51 252.529 299.51C252.529 299.51 253.069 319.97 254.849 322.15C256.219 323.85 258.849 324.33 260.849 324.76C263.529 325.33 266.219 325.89 268.929 326.28C278.339 327.64 287.769 327.09 297.159 325.88C299.899 325.53 304.419 325.71 306.399 323.38C307.407 322.1 307.938 320.509 307.899 318.88C307.899 318.33 308.989 295.55 308.989 295.55C308.989 295.55 320.719 304.28 323.179 304.01C325.639 303.74 327.269 301.55 326.999 295.01C326.729 288.47 325.999 256.4 325.219 254.9C324.439 253.4 320.039 253.13 318.399 255.04C316.759 256.95 315.999 272.8 315.999 272.8C315.999 272.8 310.779 261.45 308.599 257.9C306.419 254.35 293.189 250.13 293.189 250.13C293.189 250.13 284.869 247.4 276.819 249.13C270.907 250.312 265.226 252.446 259.999 255.45C255.909 257.77 247.859 259.95 246.489 262.81C245.119 265.67 240.219 295.96 239.129 299.92C238.809 301.05 238.449 302.3 238.129 303.64C238.266 304.389 238.488 305.12 238.789 305.82" stroke="#263238" stroke-linecap="round" stroke-linejoin="round"/>
<path d="M298.441 294.58L302.551 291.21" stroke="#263238" stroke-miterlimit="10"/>
<path d="M270.891 317.2L295.121 297.31" stroke="#263238" stroke-miterlimit="10"/>
<path d="M267.582 312.47L277.982 303.97" stroke="#263238" stroke-miterlimit="10"/>
<path d="M249.72 318.53L243.72 329.67C243.239 330.559 243.07 331.584 243.24 332.58L246.36 350.58C246.354 350.646 246.361 350.712 246.381 350.775C246.401 350.838 246.432 350.896 246.475 350.947C246.517 350.997 246.569 351.039 246.627 351.07C246.686 351.1 246.749 351.119 246.815 351.125C246.881 351.131 246.947 351.124 247.01 351.104C247.073 351.085 247.131 351.053 247.182 351.01C247.232 350.968 247.274 350.916 247.305 350.858C247.335 350.8 247.354 350.736 247.36 350.67L252.92 335.72C253.154 335.081 253.237 334.396 253.16 333.72L251.34 318.85C251.361 318.744 251.361 318.634 251.34 318.528C251.318 318.422 251.276 318.32 251.216 318.23C251.156 318.14 251.078 318.063 250.988 318.003C250.898 317.943 250.796 317.901 250.69 317.88C250.475 317.838 250.252 317.882 250.07 318.004C249.889 318.126 249.763 318.315 249.72 318.53Z" fill="#263238" stroke="#263238" stroke-linecap="round" stroke-linejoin="round"/>
<path d="M315.992 272.8L322.032 286.79" stroke="#263238" stroke-linecap="round" stroke-linejoin="round"/>
<path d="M250.742 345.2C251.624 343.393 252.218 341.46 252.502 339.47C252.712 336.89 251.992 337.09 251.372 338.54C250.752 339.99 250.742 345.2 250.742 345.2Z" fill="#A97C6C" stroke="#263238" stroke-linecap="round" stroke-linejoin="round"/>
<path d="M247.862 349.92C247.862 349.92 250.332 347.05 250.742 345.2C251.152 343.35 252.172 339.66 251.152 340.07C250.132 340.48 249.712 342.53 249.712 342.53C249.544 342.416 249.349 342.346 249.147 342.328C248.944 342.31 248.74 342.345 248.555 342.428C248.369 342.511 248.208 342.64 248.087 342.804C247.966 342.967 247.888 343.158 247.862 343.36C247.452 345 247.862 349.92 247.862 349.92Z" fill="#A97C6C" stroke="#263238" stroke-linecap="round" stroke-linejoin="round"/>
<path d="M249.712 342.53C249.712 342.53 250.422 345.65 249.512 347.72" stroke="#263238" stroke-linecap="round" stroke-linejoin="round"/>
<path d="M309 295.55L309.55 277.41" stroke="#263238" stroke-linecap="round" stroke-linejoin="round"/>
<path d="M309.27 289.82L311.46 279.59" stroke="#263238" stroke-linecap="round" stroke-linejoin="round"/>
<path d="M252.53 299.51L251.98 278.91" stroke="#263238" stroke-linecap="round" stroke-linejoin="round"/>
<path d="M182.99 467.97C210.837 467.97 233.41 461.339 233.41 453.16C233.41 444.981 210.837 438.35 182.99 438.35C155.144 438.35 132.57 444.981 132.57 453.16C132.57 461.339 155.144 467.97 182.99 467.97Z" fill="#8568F5"/>
<path opacity="0.5" d="M182.99 467.97C210.837 467.97 233.41 461.339 233.41 453.16C233.41 444.981 210.837 438.35 182.99 438.35C155.144 438.35 132.57 444.981 132.57 453.16C132.57 461.339 155.144 467.97 182.99 467.97Z" fill="#FDD8BA"/>
<path d="M203.639 247.52C203.73 245.793 203.623 244.062 203.319 242.36C202.829 240.59 201.699 239.46 201.859 238.81C202.019 238.16 203.959 238.65 204.449 239.94C204.939 241.23 205.739 243.49 205.739 243.49V238.49C205.739 237.68 203.799 237.49 203.159 236.72C202.519 235.95 202.989 235.59 203.479 235.59C203.969 235.59 205.899 235.42 207.029 236.39C207.445 236.811 207.762 237.319 207.957 237.878C208.152 238.437 208.221 239.031 208.159 239.62C208.159 240.108 208.106 240.594 207.999 241.07C207.999 241.07 210.579 241.39 211.379 243.17C212.042 244.921 212.157 246.832 211.709 248.65C211.379 250.11 212.509 253.01 212.509 253.01L209.119 255.59C209.119 255.59 206.379 252.69 204.929 251.07C204.063 250.094 203.602 248.824 203.639 247.52Z" fill="#FDD8BA" stroke="#263238" stroke-linecap="round" stroke-linejoin="round"/>
<path d="M212.511 253L209.121 255.58C209.121 255.58 227.771 293.58 229.541 294.89C231.311 296.2 233.541 296.51 236.161 292.96C238.781 289.41 238.421 287.15 236.641 283.12C234.861 279.09 212.511 253 212.511 253Z" fill="#8568F5" stroke="#263238" stroke-linecap="round" stroke-linejoin="round"/>
<path d="M198.059 215.32C198.059 215.32 200.469 221.09 200.469 222.54C200.458 223.9 200.833 225.234 201.549 226.39C202.269 227.59 203.119 227.95 202.629 228.91C202.414 229.388 202.131 229.832 201.789 230.23C201.789 230.23 201.429 235.41 201.429 237.09C201.429 238.77 200.589 238.89 199.029 239.01C197.657 239.03 196.287 238.909 194.939 238.65L194.699 243.22C194.699 243.22 188.919 242.5 186.639 242.5H182.189L182.429 235.41C181.093 232.776 179.966 230.041 179.059 227.23C178.616 226.048 178.436 224.783 178.533 223.524C178.63 222.265 179.002 221.042 179.621 219.942C180.24 218.842 181.092 217.89 182.118 217.154C183.144 216.418 184.318 215.915 185.559 215.68C189.681 214.907 193.899 214.785 198.059 215.32Z" fill="#FDD8BA" stroke="#263238" stroke-linecap="round" stroke-linejoin="round"/>
<path d="M193.999 229.15C193.999 229.15 196.529 228.43 196.049 226.26C195.569 224.09 194.729 223.14 194.849 222.78C194.969 222.42 196.849 221.69 196.849 220.13C196.849 218.57 194.849 217.73 194.849 217.73C194.849 217.73 203.749 214.96 204.349 212.43C204.949 209.9 203.749 207.38 201.349 207.38C200.137 207.387 198.928 207.508 197.739 207.74C197.259 207.74 194.129 204.25 191.369 205.58C188.609 206.91 188.369 208.58 188.369 208.58C188.369 208.58 178.269 209.07 174.419 213.15C170.569 217.23 173.819 226.75 176.419 230.23C179.019 233.71 181.109 237.45 183.519 237.93C185.929 238.41 190.379 237.69 192.059 235.41C193.739 233.13 192.899 229.63 192.899 229.63L193.999 229.15Z" fill="#263238" stroke="#263238" stroke-linecap="round" stroke-linejoin="round"/>
<path d="M195.302 230C195.302 230 192.772 224.95 190.972 226C189.172 227.05 190.492 231.18 191.692 232.5C191.869 232.751 192.096 232.963 192.357 233.124C192.619 233.285 192.911 233.391 193.214 233.436C193.518 233.481 193.828 233.463 194.125 233.385C194.422 233.307 194.7 233.169 194.942 232.98" fill="#FDD8BA"/>
<path d="M195.302 230C195.302 230 192.772 224.95 190.972 226C189.172 227.05 190.492 231.18 191.692 232.5C191.869 232.751 192.096 232.963 192.357 233.124C192.619 233.285 192.911 233.391 193.214 233.436C193.518 233.481 193.828 233.463 194.125 233.385C194.422 233.307 194.7 233.169 194.942 232.98" stroke="#263238" stroke-linecap="round" stroke-linejoin="round"/>
<path d="M175.929 247.19C176.61 245.444 177.63 243.85 178.929 242.5C180.729 240.94 185.179 239.86 188.929 240.58C192.679 241.3 195.669 242.38 196.389 244.07C196.94 245.518 197.381 247.006 197.709 248.52C197.709 248.52 194.229 246.83 187.369 246.83C183.407 246.792 179.464 247.404 175.699 248.64L175.929 247.19Z" fill="#8568F5" stroke="#263238" stroke-linecap="round" stroke-linejoin="round"/>
<path d="M160.362 445C160.362 445 155.792 444.64 153.872 445.12C151.952 445.6 151.462 447.28 152.312 448.48C153.427 450.061 154.715 451.513 156.152 452.81C157.352 453.81 161.152 454.25 162.882 455.09C164.612 455.93 166.612 456.66 168.882 455.09C171.152 453.52 169.882 447.64 169.882 447.64C169.882 447.64 164.212 448.6 160.362 445Z" fill="#FDD8BA" stroke="#263238" stroke-linecap="round" stroke-linejoin="round"/>
<path d="M167.331 454.73C165.171 455.09 161.201 454.01 157.711 452.21C155.261 450.94 153.161 448 152.141 446.37C151.97 446.702 151.894 447.076 151.924 447.449C151.954 447.822 152.089 448.179 152.311 448.48C153.427 450.061 154.715 451.513 156.151 452.81C157.351 453.81 161.151 454.25 162.881 455.09C164.611 455.93 166.611 456.66 168.881 455.09C169.238 454.835 169.521 454.49 169.701 454.09C168.93 454.366 168.137 454.58 167.331 454.73Z" fill="#FDD8BA" stroke="#263238" stroke-linecap="round" stroke-linejoin="round"/>
<path d="M206.382 445C206.382 445 210.952 444.64 212.872 445.12C214.792 445.6 215.282 447.28 214.442 448.48C213.32 450.059 212.029 451.511 210.592 452.81C209.392 453.81 205.542 454.25 203.862 455.09C202.182 455.93 200.132 456.66 197.862 455.09C195.592 453.52 196.862 447.64 196.862 447.64C196.862 447.64 202.532 448.6 206.382 445Z" fill="#FDD8BA" stroke="#263238" stroke-linecap="round" stroke-linejoin="round"/>
<path d="M199.409 454.73C201.569 455.09 205.539 454.01 209.029 452.21C211.479 450.94 213.579 448 214.599 446.37C214.772 446.701 214.849 447.075 214.821 447.448C214.793 447.821 214.66 448.178 214.439 448.48C213.317 450.059 212.026 451.511 210.589 452.81C209.389 453.81 205.539 454.25 203.859 455.09C202.179 455.93 200.129 456.66 197.859 455.09C197.502 454.835 197.219 454.49 197.039 454.09C197.811 454.364 198.604 454.578 199.409 454.73Z" fill="#FDD8BA" stroke="#263238" stroke-linecap="round" stroke-linejoin="round"/>
<path d="M167.391 312.14C167.391 312.14 166.391 323.33 166.311 328.38C166.259 331.637 166.459 334.894 166.911 338.12L164.511 384.31C164.511 384.31 160.901 414.02 160.901 419.91C160.901 425.8 161.381 441.2 161.381 441.2C160.838 442.254 160.357 443.339 159.941 444.45C159.944 445.853 160.024 447.256 160.181 448.65C162.058 449.779 164.143 450.517 166.311 450.82C167.165 450.931 168.032 450.77 168.788 450.358C169.544 449.947 170.151 449.307 170.521 448.53C170.943 446.216 171.223 443.878 171.361 441.53C171.414 440.126 171.374 438.719 171.241 437.32C171.241 437.32 176.531 411.46 179.061 402.68C181.591 393.9 186.161 370.08 186.401 366.96C186.641 363.84 189.401 349.28 189.401 349.28C189.401 349.28 191.811 375.38 192.401 380.28C192.991 385.18 191.531 398.9 191.531 406.28C191.531 413.66 196.001 442.27 196.001 442.27C195.985 443.777 196.062 445.283 196.231 446.78C196.471 447.78 197.901 451.06 197.901 451.06C197.901 451.06 201.461 451.77 203.131 450.82C204.801 449.87 207.401 448.21 207.641 445.36C207.881 442.51 206.791 436.74 206.561 435.08C206.331 433.42 210.561 401.33 210.561 389.93C210.561 378.53 212.461 353.8 212.461 348.58C212.461 343.36 211.271 325.76 211.271 325.76L209.131 308.89C209.131 308.89 189.351 316.34 167.391 312.14Z" fill="#263238" stroke="#263238" stroke-linecap="round" stroke-linejoin="round"/>
<path d="M189.399 349.31L187.739 338.36H183.699" stroke="#FDD8BA" stroke-linecap="round" stroke-linejoin="round"/>
<path d="M159.58 254.29C159.58 254.29 132.37 295.11 132.85 296.77C133.33 298.43 159.46 312.22 159.46 312.22L159.22 306.99L149.22 293.68L163.22 278.95L159.58 254.29Z" fill="#8568F5" stroke="#263238" stroke-linecap="round" stroke-linejoin="round"/>
<path d="M159.221 307L162.981 305.45L166.981 309C166.981 309 168.371 311.91 167.351 312.15L166.351 312.39C166.351 312.39 167.481 315.13 165.711 315.94C163.941 316.75 161.351 315.78 160.221 314.81C159.293 313.807 158.53 312.663 157.961 311.42L159.221 307Z" fill="#FDD8BA" stroke="#263238" stroke-linecap="round" stroke-linejoin="round"/>
<path d="M164.111 306.73C164.111 306.73 165.571 308.35 165.401 309.15C165.231 309.95 164.601 312.7 163.951 312.86C163.301 313.02 162.661 311.73 162.821 311.25C162.956 310.773 163.066 310.289 163.151 309.8C163.151 309.8 161.691 310.93 160.891 310.28" fill="#FDD8BA"/>
<path d="M164.111 306.73C164.111 306.73 165.571 308.35 165.401 309.15C165.231 309.95 164.601 312.7 163.951 312.86C163.301 313.02 162.661 311.73 162.821 311.25C162.956 310.773 163.066 310.289 163.151 309.8C163.151 309.8 161.691 310.93 160.891 310.28" stroke="#263238" stroke-linecap="round" stroke-linejoin="round"/>
<path d="M194.821 246C190.762 245.348 186.632 245.267 182.551 245.76C177.354 246.47 172.295 247.971 167.551 250.21C164.551 251.65 159.621 253.82 159.621 254.3C159.621 254.78 166.621 299.4 166.621 299.4C166.621 299.4 166.621 310.95 167.341 312.63C168.061 314.31 170.231 314.56 175.521 315.16C183.466 315.649 191.44 315.408 199.341 314.44C204.031 313.59 208.121 312.87 208.841 310.71C209.561 308.55 208.601 302.77 208.601 302.77L211.051 256C208.96 253.508 206.385 251.466 203.481 250C200.676 248.497 197.784 247.161 194.821 246Z" fill="#8568F5" stroke="#263238" stroke-linecap="round" stroke-linejoin="round"/>
<path d="M234.22 282.16L211.05 256L209.43 281.8C209.43 281.8 227.37 297.08 231.43 296.6C235.49 296.12 236.19 293 236.19 293" fill="#8568F5"/>
<path d="M234.22 282.16L211.05 256L209.43 281.8C209.43 281.8 227.37 297.08 231.43 296.6C235.49 296.12 236.19 293 236.19 293" stroke="#263238" stroke-linecap="round" stroke-linejoin="round"/>
</svg>
