<svg width="350" height="350" viewBox="0 0 350 350" fill="none" xmlns="http://www.w3.org/2000/svg">
<rect width="350" height="350" fill="#FAAA19" fill-opacity="0.3"/>
<path d="M113.188 122.045H111.508V120.925H112.068V120.365H113.188V122.045Z" fill="#EBEBEB"/>
<path d="M109.242 122.045H106.974V120.925H109.242V122.045ZM104.706 122.045H102.445V120.925H104.706V122.045ZM100.177 122.045H97.9093V120.925H100.177V122.045ZM95.6413 122.045H93.3733V120.925H95.6413V122.045ZM91.1053 122.045H88.8373V120.925H91.1053V122.045ZM86.5763 122.045H84.3083V120.925H86.5763V122.045ZM82.0403 122.045H79.8003V120.925H82.0683L82.0403 122.045ZM77.5043 122.045H75.2363V120.925H77.5043V122.045ZM72.9683 122.045H70.7003V120.925H72.9683V122.045ZM68.4393 122.045H66.1713V120.925H68.4393V122.045ZM63.9033 122.045H61.6353V120.925H63.9033V122.045ZM59.3673 122.045H57.0993V120.925H59.3673V122.045ZM54.8313 122.045H52.5703V120.925H54.8313V122.045Z" fill="#EBEBEB"/>
<path d="M50.3011 122.045H48.6211V120.365H49.7411V120.925H50.3011V122.045Z" fill="#EBEBEB"/>
<path d="M49.7411 118.104H48.6211V115.836H49.7411V118.104ZM49.7411 113.568H48.6211V111.3H49.7411V113.568ZM49.7411 109.032H48.6211V106.764H49.7411V109.032ZM49.7411 104.496H48.6211V102.2H49.7411V104.496ZM49.7411 99.967H48.6211V97.6991H49.7411V99.967ZM49.7411 95.431H48.6211V93.163H49.7411V95.431ZM49.7411 90.8951H48.6211V88.627H49.7411V90.8951ZM49.7411 86.3591H48.6211V84.098H49.7411V86.3591ZM49.7411 81.83H48.6211V79.5621H49.7411V81.83ZM49.7411 77.294H48.6211V75.026H49.7411V77.294ZM49.7411 72.7581H48.6211V70.49H49.7411V72.7581ZM49.7411 68.222H48.6211V65.9611H49.7411V68.222ZM49.7411 63.693H48.6211V61.425H49.7411V63.693Z" fill="#EBEBEB"/>
<path d="M49.7411 59.1571H48.6211V57.4771H50.3011V58.597H49.7411V59.1571Z" fill="#EBEBEB"/>
<path d="M109.242 58.597H106.974V57.4771H109.242V58.597ZM104.706 58.597H102.445V57.4771H104.706V58.597ZM100.177 58.597H97.9093V57.4771H100.177V58.597ZM95.6413 58.597H93.3733V57.4771H95.6413V58.597ZM91.1053 58.597H88.8373V57.4771H91.1053V58.597ZM86.5763 58.597H84.3083V57.4771H86.5763V58.597ZM82.0403 58.597H79.8003V57.4771H82.0683L82.0403 58.597ZM77.5043 58.597H75.2363V57.4771H77.5043V58.597ZM72.9683 58.597H70.7003V57.4771H72.9683V58.597ZM68.4393 58.597H66.1713V57.4771H68.4393V58.597ZM63.9033 58.597H61.6353V57.4771H63.9033V58.597ZM59.3673 58.597H57.0993V57.4771H59.3673V58.597ZM54.8313 58.597H52.5703V57.4771H54.8313V58.597Z" fill="#EBEBEB"/>
<path d="M113.188 59.1571H112.068V58.597H111.508V57.4771H113.188V59.1571Z" fill="#EBEBEB"/>
<path d="M113.19 118.104H112.07V115.836H113.19V118.104ZM113.19 113.568H112.07V111.3H113.19V113.568ZM113.19 109.032H112.07V106.764H113.19V109.032ZM113.19 104.496H112.07V102.235H113.19V104.496ZM113.19 99.967H112.07V97.6991H113.19V99.967ZM113.19 95.431H112.07V93.163H113.19V95.431ZM113.19 90.8951H112.07V88.627H113.19V90.8951ZM113.19 86.3591H112.07V84.098H113.19V86.3591ZM113.19 81.83H112.07V79.5621H113.19V81.83ZM113.19 77.294H112.07V75.026H113.19V77.294ZM113.19 72.7581H112.07V70.49H113.19V72.7581ZM113.19 68.222H112.07V65.9611H113.19V68.222ZM113.19 63.693H112.07V61.425H113.19V63.693Z" fill="#EBEBEB"/>
<path d="M53.1366 117.537H45.2266V125.447H53.1366V117.537Z" fill="white"/>
<path d="M53.691 126H44.668V116.977H53.691V126ZM45.788 124.88H52.571V118.097H45.788V124.88Z" fill="#EBEBEB"/>
<path d="M53.1366 85.8062H45.2266V93.7162H53.1366V85.8062Z" fill="white"/>
<path d="M53.691 94.2761H44.668V85.2461H53.691V94.2761ZM45.788 93.1561H52.571V86.3661H45.788V93.1561Z" fill="#EBEBEB"/>
<path d="M53.1366 54.082H45.2266V61.992H53.1366V54.082Z" fill="white"/>
<path d="M53.691 62.5522H44.668V53.5222H53.691V62.5522ZM45.788 61.4322H52.571V54.6422H45.788V61.4322Z" fill="#EBEBEB"/>
<path d="M116.586 117.537H108.676V125.447H116.586V117.537Z" fill="white"/>
<path d="M117.143 126H108.113V116.977H117.143V126ZM109.233 124.88H116.023V118.097H109.233V124.88Z" fill="#EBEBEB"/>
<path d="M116.586 85.8062H108.676V93.7162H116.586V85.8062Z" fill="white"/>
<path d="M117.143 94.2761H108.113V85.2461H117.143V94.2761ZM109.233 93.1561H116.023V86.3661H109.233V93.1561Z" fill="#EBEBEB"/>
<path d="M116.586 54.082H108.676V61.992H116.586V54.082Z" fill="white"/>
<path d="M117.143 62.5522H108.113V53.5222H117.143V62.5522ZM109.233 61.4322H116.023V54.6422H109.233V61.4322Z" fill="#EBEBEB"/>
<path d="M84.8592 54.082H76.9492V61.992H84.8592V54.082Z" fill="white"/>
<path d="M85.4011 62.5522H76.3711V53.5222H85.4011V62.5522ZM77.4911 61.4322H84.2811V54.6422H77.4911V61.4322Z" fill="#EBEBEB"/>
<path d="M84.8592 117.537H76.9492V125.447H84.8592V117.537Z" fill="white"/>
<path d="M85.4011 126H76.3711V116.977H85.4011V126ZM77.4911 124.88H84.2811V118.097H77.4911V124.88Z" fill="#EBEBEB"/>
<path d="M98.6988 84H97.5858C94.4358 74.48 92.6228 70.567 87.3098 70.567H86.6098V109.004H91.5729V110.229H70.2718V109.004H75.2348V70.546H74.4788C69.1658 70.546 67.1988 74.9 64.1958 84H63.0898L63.6988 69.3H98.1598L98.6988 84Z" fill="#EBEBEB"/>
<path d="M64.8133 216.321H46.2773V224.154H64.8133V216.321Z" fill="#EBEBEB"/>
<path d="M161.665 155.162H143.129V162.995H161.665V155.162Z" fill="#EBEBEB"/>
<path d="M54.4735 226.198H35.9375V234.031H54.4735V226.198Z" fill="#EBEBEB"/>
<path d="M314.063 226.198H295.527V234.031H314.063V226.198Z" fill="#EBEBEB"/>
<path d="M303.724 40.1311H285.188V47.9641H303.724V40.1311Z" fill="#EBEBEB"/>
<path d="M314.063 50.0081H295.527V57.8411H314.063V50.0081Z" fill="#EBEBEB"/>
<path d="M64.8133 40.1311H46.2773V47.9641H64.8133V40.1311Z" fill="#EBEBEB"/>
<path d="M314.053 99.4421H179.492V105.217H314.053V99.4421Z" fill="#EBEBEB"/>
<path d="M199.058 127.967H193.822L191.715 105.224H199.058V127.967Z" fill="#EBEBEB"/>
<path d="M294.496 127.967H299.739L301.839 105.224H294.496V127.967Z" fill="#EBEBEB"/>
<path d="M191.715 105.224H199.058V113.057H192.436L191.715 105.224Z" fill="#DBDBDB"/>
<path d="M301.839 105.224L301.118 113.057H294.496V105.224H301.839Z" fill="#DBDBDB"/>
<path d="M228.201 64.785C222.23 72.87 216 82.285 214.488 92.393C214.488 92.547 214.712 92.596 214.747 92.449C215.432 89.6829 216.314 86.9693 217.386 84.329C221.313 83.244 225.17 82.362 227.228 78.463C229.328 74.459 229.062 69.237 228.663 64.869C228.663 64.638 228.348 64.624 228.201 64.785Z" fill="#EBEBEB"/>
<path d="M217.476 84.2521C220.157 78.2321 223.601 72.1841 227.976 67.2351C227.976 67.2351 228.053 67.2351 228.025 67.2841C225.293 70.8119 222.894 74.5846 220.857 78.5541C222.831 76.5521 225.001 74.7531 226.87 72.6251C226.873 72.621 226.878 72.6176 226.883 72.6152C226.888 72.6128 226.893 72.6114 226.899 72.611C226.904 72.6107 226.91 72.6115 226.915 72.6133C226.92 72.6151 226.925 72.6179 226.929 72.6216C226.933 72.6253 226.937 72.6297 226.939 72.6347C226.942 72.6397 226.943 72.6451 226.943 72.6506C226.944 72.6562 226.943 72.6617 226.941 72.6669C226.939 72.6722 226.936 72.677 226.933 72.6811C225.071 74.9141 223.041 77.3361 220.633 78.9811C219.982 80.1851 219.331 81.3821 218.666 82.5861C218.827 82.4951 218.995 82.4181 219.163 82.3341C219.163 82.3341 219.219 82.3341 219.163 82.3761C218.974 82.4671 218.792 82.5651 218.603 82.6491C218.288 83.2161 217.973 83.7901 217.651 84.3571C217.595 84.4901 217.42 84.3781 217.476 84.2521Z" fill="#A6A6A6"/>
<path d="M219.471 82.152C221.077 81.2534 222.61 80.2306 224.056 79.093C224.091 79.093 224.147 79.093 224.112 79.149C222.71 80.3589 221.174 81.4041 219.534 82.264C219.464 82.299 219.394 82.194 219.471 82.152Z" fill="#A6A6A6"/>
<path d="M213.855 92.3022C213.855 92.4282 214.079 92.4212 214.072 92.3022C214.107 88.9562 214.072 85.6032 214.128 82.2502C214.982 80.5212 216.823 79.5692 218.097 78.1832C219.017 77.1738 219.816 76.0602 220.477 74.8652C222.018 72.0153 222.959 68.8803 223.242 65.6532C223.592 62.0832 222.241 50.2952 220.736 50.7012C219.952 50.9182 217.425 56.7562 216.753 58.6812C215.665 61.8688 214.871 65.1491 214.38 68.4812C213.155 76.3002 213.26 84.3922 213.855 92.3022Z" fill="#EBEBEB"/>
<path d="M213.834 77.8962C214.016 73.6962 214.968 69.4052 215.857 65.2962C216.823 60.8792 217.957 56.7282 220.211 52.7872C220.222 52.7762 220.236 52.7689 220.251 52.7665C220.266 52.7641 220.281 52.7666 220.295 52.7738C220.308 52.7809 220.319 52.7922 220.325 52.806C220.332 52.8198 220.333 52.8353 220.33 52.8502C218.815 55.9137 217.642 59.1343 216.83 62.4542C216.984 62.2162 217.166 61.9922 217.327 61.7542C217.39 61.6632 217.53 61.7542 217.474 61.8382C217.275 62.1947 217.041 62.5301 216.774 62.8392C215.99 65.9962 215.43 69.2232 214.947 72.4432L215.059 72.3172C215.059 72.3172 215.122 72.3172 215.108 72.3592C215.094 72.4012 214.982 72.5692 214.912 72.6742C214.674 74.3122 214.45 75.9432 214.212 77.5742C217.196 75.1784 219.532 72.0741 221.009 68.5442C221.044 68.5442 221.009 68.5442 221.009 68.5442C219.609 72.2892 217.474 75.6212 214.142 77.8962C214.079 78.3302 214.016 78.7642 213.96 79.1982C213.96 79.2892 213.799 79.2682 213.799 79.1982C213.799 78.8132 213.799 78.4282 213.834 78.0432C213.823 78.0347 213.813 78.0237 213.807 78.0109C213.8 77.9981 213.797 77.984 213.797 77.9697C213.797 77.9554 213.8 77.9412 213.807 77.9285C213.813 77.9157 213.823 77.9046 213.834 77.8962Z" fill="#A6A6A6"/>
<path d="M215.208 71.7711C217.478 68.5459 219.462 65.1286 221.137 61.5581C221.137 61.5581 221.221 61.5581 221.207 61.5581C219.877 65.3047 217.883 68.7809 215.32 71.8201C215.264 71.9181 215.159 71.8411 215.208 71.7711Z" fill="#A6A6A6"/>
<path d="M218.16 60.7392C219.077 59.1082 220.05 57.5262 220.918 55.8392C220.918 55.7972 221.009 55.8392 220.988 55.8812C220.277 57.6091 219.375 59.2526 218.3 60.7812C218.289 60.7915 218.276 60.7987 218.262 60.8022C218.247 60.8057 218.232 60.8052 218.218 60.801C218.204 60.7967 218.191 60.7887 218.181 60.7779C218.171 60.767 218.163 60.7537 218.16 60.7392Z" fill="#A6A6A6"/>
<path d="M212.225 83.7411C212.178 85.9548 211.916 88.1586 211.441 90.3211L211.546 91.0211C212.229 88.634 212.624 86.1734 212.722 83.6921C212.743 83.6573 212.754 83.6173 212.754 83.5766C212.754 83.5359 212.743 83.496 212.722 83.4611C212.817 80.1334 212.569 76.8047 211.98 73.5281C210.951 67.3891 208.69 61.4951 204.406 56.8961C204.371 56.8657 204.329 56.8439 204.284 56.8322C204.239 56.8205 204.192 56.8194 204.147 56.8289C204.101 56.8384 204.059 56.8582 204.022 56.8869C203.986 56.9155 203.956 56.9522 203.937 56.9941C202.208 61.3831 202.81 66.6261 204.28 70.9941C205.083 73.3835 206.232 75.6426 207.689 77.7001C209.159 79.7441 211.028 81.4871 212.225 83.7411Z" fill="#EBEBEB"/>
<path d="M204.932 58.968C208.985 65.548 211.806 73.3531 212.156 81.1301C212.156 81.2701 211.925 81.3051 211.911 81.1301C211.813 80.4301 211.708 79.7301 211.596 79.0301C209.833 77.4702 208.284 75.6837 206.99 73.717C206.99 73.717 206.99 73.64 207.046 73.668C208.438 75.3889 209.932 77.0251 211.519 78.568C211.229 76.8554 210.882 75.1637 210.476 73.493L210.154 73.115C210.084 73.031 210.203 72.912 210.28 72.996L210.371 73.101C209.807 70.816 209.106 68.5672 208.271 66.367C207.242 65.135 206.087 64.0711 205.338 62.5871H205.387C205.996 63.4341 206.577 64.288 207.263 65.072C207.536 65.387 207.837 65.681 208.124 65.989C207.187 63.6029 206.076 61.2889 204.799 59.066C204.795 59.049 204.797 59.0314 204.803 59.0151C204.809 58.9989 204.82 58.9848 204.834 58.9745C204.848 58.9642 204.865 58.9581 204.882 58.957C204.899 58.9558 204.917 58.9597 204.932 58.968Z" fill="#A6A6A6"/>
<path d="M205.752 67.088C207.061 68.852 208.552 70.539 209.777 72.359C209.812 72.415 209.735 72.464 209.693 72.422C208.132 70.8364 206.778 69.0608 205.661 67.137C205.626 67.081 205.71 67.039 205.752 67.088Z" fill="#A6A6A6"/>
<path d="M209.957 72.8002L210.013 72.8562C210.048 72.8982 210.013 72.9612 209.95 72.9192L209.894 72.8632C209.859 72.8002 209.915 72.7302 209.957 72.8002Z" fill="#A6A6A6"/>
<path d="M197.946 69.9581C198.425 73.6362 199.907 77.1115 202.23 80.0031C203.193 81.1426 204.386 82.0658 205.73 82.7121C207.228 83.4541 208.803 84.3151 210.357 84.9241C211.098 86.8058 211.649 88.7568 212.002 90.7481L212.149 90.2301C211.155 81.6551 205.604 74.3261 198.506 69.6221C198.452 69.5742 198.383 69.545 198.311 69.5385C198.239 69.532 198.166 69.5486 198.104 69.586C198.042 69.6233 197.993 69.6795 197.965 69.7464C197.936 69.8132 197.93 69.8874 197.946 69.9581Z" fill="#EBEBEB"/>
<path d="M200.402 72.4922C200.346 72.4502 200.402 72.3592 200.472 72.4012C204.37 75.3018 207.48 79.1332 209.516 83.5452C209.565 83.6642 209.404 83.7692 209.341 83.6502C209.012 83.0692 208.676 82.5092 208.333 81.9562C206.716 81.6552 205.176 80.5142 203.979 79.4292C203.944 79.4292 203.979 79.3522 204.021 79.3802C204.641 79.9455 205.33 80.43 206.072 80.8222C206.737 81.1582 207.472 81.3682 208.13 81.6342C207.535 80.6822 206.905 79.7722 206.254 78.8832C204.494 78.2175 202.843 77.2951 201.354 76.1462C201.312 76.1462 201.354 76.0342 201.403 76.0692C202.867 76.9521 204.377 77.7582 205.925 78.4842C204.938 77.1788 203.872 75.9351 202.733 74.7602C202.18 74.4732 201.62 74.1792 201.088 73.8642C201.046 73.8642 201.088 73.7662 201.123 73.7872C201.566 73.941 201.989 74.1479 202.383 74.4032C201.767 73.7592 201.102 73.1152 200.402 72.4922Z" fill="#A6A6A6"/>
<path d="M200.548 75.4531C200.645 75.5103 200.736 75.5759 200.821 75.6491C200.821 75.6491 200.821 75.7051 200.786 75.6911C200.687 75.6484 200.593 75.5943 200.506 75.5301C200.457 75.5021 200.499 75.4251 200.548 75.4531Z" fill="#A6A6A6"/>
<path d="M220.85 99.4421H206.234L206.948 89.8661L207.228 86.7371H219.723L219.996 89.8661L220.85 99.4421Z" fill="#DBDBDB"/>
<path d="M219.997 89.8661H206.949L207.229 86.7371H219.724L219.997 89.8661Z" fill="#C7C7C7"/>
<path d="M220.724 84.175H206.234V87.3811H220.724V84.175Z" fill="#DBDBDB"/>
<path d="M256.375 99.4211V64.6311H247.611V99.4211H256.375Z" fill="#C7C7C7"/>
<path d="M256.367 66.591V62.769H247.603V66.591H256.367Z" fill="#DBDBDB"/>
<path d="M256.367 72.919V71.498H247.603V72.919H256.367Z" fill="#DBDBDB"/>
<path d="M256.367 94.8572V91.0352H247.603V94.8572H256.367Z" fill="#DBDBDB"/>
<path d="M262.492 99.421V58.842H256.367V99.421H262.492Z" fill="#DBDBDB"/>
<path d="M261.238 78.267V62.657H257.563V78.267H261.238Z" fill="#EBEBEB"/>
<path d="M306.089 95.0284L277.23 66.5005L272.924 70.8564L301.783 99.3843L306.089 95.0284Z" fill="#C7C7C7"/>
<path d="M298.465 89.1961L287.363 78.2219L284.78 80.8355L295.881 91.8096L298.465 89.1961Z" fill="#DBDBDB"/>
<path d="M272.879 99.4352V68.6072H262.484V99.4352H272.879Z" fill="#A6A6A6"/>
<path d="M272.887 96.1591V93.2891H262.492V96.1591H272.887Z" fill="#C7C7C7"/>
<path d="M272.887 91.3992V90.2861H262.492V91.3992H272.887Z" fill="#C7C7C7"/>
<path d="M236.255 99.4522L247.68 72.8345L241.08 70.0017L229.655 96.6194L236.255 99.4522Z" fill="#A6A6A6"/>
<path d="M237.458 96.6284L238.523 94.1455L231.924 91.3128L230.858 93.7957L237.458 96.6284Z" fill="#C7C7C7"/>
<path d="M244.251 80.7977L245.316 78.3147L238.717 75.4819L237.651 77.9649L244.251 80.7977Z" fill="#C7C7C7"/>
<path d="M243.101 83.4622L243.516 82.4973L236.916 79.6646L236.502 80.6294L243.101 83.4622Z" fill="#C7C7C7"/>
<path d="M263.142 179.333L222.64 189.924L209.039 137.928L239.118 130.06L249.548 127.337L252.138 137.242L263.142 179.333Z" fill="#EBEBEB"/>
<path d="M215.626 146.929L248.621 138.303L248.272 136.969L215.277 145.595L215.626 146.929Z" fill="#DBDBDB"/>
<path d="M216.52 150.305L249.516 141.679L249.167 140.345L216.172 148.97L216.52 150.305Z" fill="#DBDBDB"/>
<path d="M217.395 153.668L250.391 145.043L250.042 143.709L217.047 152.334L217.395 153.668Z" fill="#DBDBDB"/>
<path d="M218.282 157.039L251.277 148.414L250.929 147.079L217.933 155.705L218.282 157.039Z" fill="#DBDBDB"/>
<path d="M219.157 160.41L252.152 151.784L251.804 150.45L218.808 159.076L219.157 160.41Z" fill="#DBDBDB"/>
<path d="M220.04 163.78L253.035 155.155L252.686 153.821L219.691 162.446L220.04 163.78Z" fill="#DBDBDB"/>
<path d="M220.919 167.151L253.914 158.525L253.565 157.191L220.57 165.817L220.919 167.151Z" fill="#DBDBDB"/>
<path d="M221.802 170.522L254.797 161.896L254.448 160.562L221.453 169.187L221.802 170.522Z" fill="#DBDBDB"/>
<path d="M222.681 173.892L255.676 165.267L255.327 163.932L222.332 172.558L222.681 173.892Z" fill="#DBDBDB"/>
<path d="M223.563 177.256L256.559 168.63L256.21 167.296L223.215 175.922L223.563 177.256Z" fill="#DBDBDB"/>
<path d="M224.306 179.443L257.387 170.917L257.042 169.579L223.961 178.105L224.306 179.443Z" fill="#DBDBDB"/>
<path d="M225.333 183.995L258.328 175.37L257.979 174.036L224.984 182.661L225.333 183.995Z" fill="#DBDBDB"/>
<path d="M273.901 194.334L232.097 196.672L229.094 143.01L260.132 141.274L271.472 150.899L273.901 194.334Z" fill="#EBEBEB"/>
<path d="M260.133 141.274L271.473 150.899L260.707 151.501L260.133 141.274Z" fill="#DBDBDB"/>
<path d="M233.765 153.153L257.004 151.853L256.927 150.476L233.688 151.776L233.765 153.153Z" fill="#DBDBDB"/>
<path d="M233.957 156.634L257.195 155.335L257.118 153.958L233.88 155.257L233.957 156.634Z" fill="#DBDBDB"/>
<path d="M234.16 160.108L257.398 158.809L257.321 157.432L234.083 158.731L234.16 160.108Z" fill="#DBDBDB"/>
<path d="M234.352 163.584L268.402 161.68L268.325 160.303L234.275 162.207L234.352 163.584Z" fill="#DBDBDB"/>
<path d="M234.543 167.058L268.594 165.155L268.517 163.778L234.466 165.681L234.543 167.058Z" fill="#DBDBDB"/>
<path d="M234.734 170.54L268.785 168.636L268.708 167.259L234.657 169.163L234.734 170.54Z" fill="#DBDBDB"/>
<path d="M234.937 174.021L268.988 172.117L268.911 170.74L234.86 172.644L234.937 174.021Z" fill="#DBDBDB"/>
<path d="M235.129 177.495L269.18 175.591L269.103 174.214L235.052 176.118L235.129 177.495Z" fill="#DBDBDB"/>
<path d="M235.32 180.976L269.371 179.073L269.294 177.696L235.243 179.599L235.32 180.976Z" fill="#DBDBDB"/>
<path d="M235.519 184.451L269.57 182.547L269.493 181.17L235.443 183.074L235.519 184.451Z" fill="#DBDBDB"/>
<path d="M235.711 187.925L269.762 186.021L269.685 184.644L235.634 186.548L235.711 187.925Z" fill="#DBDBDB"/>
<path d="M235.906 191.406L269.957 189.502L269.88 188.126L235.829 190.029L235.906 191.406Z" fill="#DBDBDB"/>
<path d="M33.2695 292.432L68.7035 292.264L104.138 292.201L174.999 292.089L245.86 292.201L281.294 292.264L316.728 292.432L281.294 292.607L245.86 292.67L174.999 292.782L104.138 292.67L68.7035 292.607L33.2695 292.432Z" fill="#263238"/>
<path d="M112.455 133.7C108.143 124.026 98.7843 117.677 89.7893 120.085C70.4903 125.244 73.1153 154.42 59.2553 173.285C42.5113 196.077 42.3083 215.236 56.8823 218.015C73.2063 221.123 88.4593 203.616 86.7233 166.95C85.6383 144.018 90.4753 135.898 96.6843 134.134C101.248 132.839 106.344 138.334 106.344 138.334L112.455 133.7Z" fill="#263238"/>
<path d="M86.4502 154.259C86.3592 157.906 86.6812 161.546 86.8702 165.179C87.0592 168.812 87.3322 172.431 87.4442 176.05C87.5775 179.662 87.5284 183.279 87.2972 186.886C87.1006 190.473 86.5401 194.031 85.6242 197.505C84.7667 200.97 83.2505 204.238 81.1582 207.13C78.9315 209.976 76.2293 212.415 73.1712 214.34C70.0864 216.301 66.5922 217.528 62.9582 217.924C61.1275 218.126 59.2785 218.093 57.4562 217.826C56.5422 217.697 55.639 217.501 54.7542 217.238C53.857 217.011 52.9966 216.658 52.1992 216.188C53.763 217.227 55.5198 217.942 57.3652 218.288C59.2205 218.685 61.1187 218.845 63.0142 218.764C64.9137 218.661 66.7939 218.329 68.6142 217.777C70.4382 217.208 72.1923 216.436 73.8432 215.474C75.4887 214.524 77.0403 213.42 78.4772 212.177L79.5272 211.225L80.5422 210.238C81.2219 209.567 81.8557 208.852 82.4392 208.096C84.6898 205.06 86.328 201.615 87.2622 197.953C89.1662 190.722 89.2152 183.253 88.7532 176.008C88.5222 172.361 88.1232 168.735 87.6822 165.116C87.2412 161.497 86.7442 157.885 86.4502 154.259Z" fill="#263238"/>
<path d="M108.225 128.1C106.699 126.083 104.923 124.267 102.94 122.696C100.981 121.179 98.7028 120.127 96.2774 119.62C93.852 119.113 91.3431 119.165 88.9404 119.77C87.7399 120.08 86.5688 120.495 85.4404 121.009C84.3237 121.498 83.259 122.099 82.2624 122.801C80.333 124.285 78.6752 126.092 77.3624 128.142C76.0499 130.242 74.9591 132.473 74.1074 134.799C72.3084 139.461 71.0624 144.389 69.6064 149.268C68.22 154.208 66.4555 159.033 64.3284 163.702C62.0198 168.277 59.3588 172.665 56.3694 176.827C53.4854 181.027 50.4894 185.108 48.2004 189.588C46.997 191.797 46.0774 194.149 45.4634 196.588L45.0574 198.429C44.9734 199.052 44.9314 199.682 44.8684 200.305L44.7984 201.215V202.167L44.8404 204.064C44.0074 199.024 45.1414 193.753 47.3254 189.126C49.5094 184.499 52.3724 180.222 55.0954 175.945C57.8184 171.668 60.5344 167.412 62.6274 162.862C64.6634 158.261 66.3574 153.516 67.6954 148.666C69.1794 143.829 70.4324 138.866 72.3574 134.085C73.2962 131.656 74.4857 129.331 75.9064 127.148C77.3798 124.954 79.2507 123.054 81.4224 121.548C82.5242 120.824 83.6969 120.214 84.9224 119.728C86.1297 119.22 87.3809 118.824 88.6604 118.545C91.2184 117.962 93.8785 117.997 96.4202 118.647C98.962 119.297 101.312 120.544 103.276 122.283C105.194 123.977 106.861 125.935 108.225 128.1Z" fill="#263238"/>
<path d="M116.199 135.499C116.199 133.658 114.799 131.299 113.63 131.026C112.461 130.753 103.697 134.722 102.997 137.004C102.297 139.286 106.259 141.204 106.259 141.204L116.199 135.499Z" fill="#FF880D"/>
<path d="M107.534 208.166C112.602 238.511 120.183 262.731 128.205 268.989C134.68 274.043 144.025 277.977 153.72 280.987C164.095 284.072 174.663 286.471 185.353 288.169C188.643 288.715 191.387 289.107 193.333 289.408C198.149 290.108 208.684 258.783 205.569 254.604C204.869 253.645 201.719 252.7 197.288 251.762C182.371 248.647 151.144 246.204 149.513 244.37C147.882 242.536 132.811 220.416 120.694 203.392C112.21 191.478 104.727 191.338 107.534 208.166Z" fill="#F7A9A0"/>
<path d="M183.883 285.39C184.464 285.719 192.71 290.129 197.848 291.865C201.684 293.167 212.828 296.611 214.648 292.53C215.915 289.73 209.601 286.93 205.177 284.872C202.853 283.78 200.039 281.162 200.802 279.671C202.146 277.06 208.138 280.007 212.051 282.52C219.618 287.378 229.607 295.967 234.528 292.236C236.383 290.836 234.423 288.036 231.49 285.236C236.299 288.554 241.458 291.333 243.586 289.849C244.804 289.002 244.916 287.749 244.321 286.349C245.826 286.916 247.177 286.881 248.164 285.922C249.844 284.312 249.172 281.799 247.527 279.174C247.831 279.154 248.125 279.062 248.387 278.906C248.648 278.751 248.869 278.535 249.032 278.278C252.665 273.245 236.292 257.586 230.461 255.927C213.311 251.027 194.803 251.727 194.803 251.727C187.782 256.837 183.869 285.376 183.883 285.39Z" fill="#F7A9A0"/>
<path d="M210.083 270.361C214.192 271.159 218.074 272.856 221.451 275.331C225.371 278.285 228.416 282.226 232.014 285.53C232.112 285.621 231.965 285.768 231.867 285.677C230.187 283.976 228.318 282.436 226.561 280.777C224.804 279.118 223.18 277.522 221.36 276.045C218.073 273.334 214.211 271.407 210.069 270.41C209.999 270.424 210.041 270.354 210.083 270.361Z" fill="#263238"/>
<path d="M213.644 263.151C218.138 264.6 222.744 266.07 226.888 268.408C231.41 270.97 234.861 274.981 238.256 278.838C240.291 281.171 242.276 283.533 244.213 285.922C244.297 286.02 244.157 286.167 244.073 286.069C240.629 282.084 237.068 278.206 233.391 274.435C230.007 270.921 225.963 268.11 221.491 266.161C218.929 265.048 216.29 264.138 213.651 263.235C213.646 263.235 213.64 263.235 213.635 263.233C213.63 263.231 213.625 263.229 213.62 263.225C213.616 263.221 213.613 263.217 213.61 263.212C213.608 263.207 213.606 263.202 213.606 263.196C213.605 263.191 213.606 263.185 213.607 263.18C213.609 263.175 213.612 263.17 213.615 263.166C213.619 263.161 213.623 263.158 213.628 263.155C213.633 263.153 213.639 263.151 213.644 263.151Z" fill="#263238"/>
<path d="M218.796 256.935C223.178 258.041 227.007 258.993 230.822 261.534C235.869 264.908 240.622 270.417 242.316 272.377C244.164 274.533 245.942 276.752 247.685 278.992C247.755 279.083 247.594 279.209 247.524 279.118C243.528 274.189 239.216 269.524 234.616 265.153C232.458 263.034 229.983 261.263 227.28 259.903C224.537 258.684 221.694 257.703 218.782 256.97C218.782 256.97 218.775 256.935 218.796 256.935Z" fill="#263238"/>
<path d="M112.356 239.939L138.746 224.378C138.746 224.378 127.483 206.178 117.858 197.589C108.233 189 104.348 195.741 105.811 208.222C107.274 220.703 112.356 239.939 112.356 239.939Z" fill="#FF880D"/>
<path d="M121.014 232.022C120.849 233.072 120.533 234.093 120.076 235.053C119.999 235.207 119.929 235.368 119.852 235.522L118.767 236.159C118.928 235.669 119.124 235.186 119.334 234.71C119.762 233.738 120.328 232.833 121.014 232.022ZM110.269 218.113C109.31 217.653 108.289 217.337 107.238 217.175C108.883 218.534 110.855 219.439 112.957 219.8C112.145 219.114 111.24 218.546 110.269 218.113ZM119.32 202.713C119.675 203.713 120.173 204.656 120.797 205.513C120.597 203.388 119.842 201.353 118.606 199.612C118.697 200.679 118.937 201.727 119.32 202.727V202.713ZM131.451 215.243C130.574 215.361 129.712 215.577 128.882 215.887C127.883 216.247 126.941 216.746 126.082 217.371C127.144 217.286 128.188 217.051 129.183 216.671C130.009 216.371 130.8 215.981 131.542 215.509C131.521 215.422 131.49 215.338 131.451 215.257V215.243Z" fill="white"/>
<path d="M134.589 220.423C130.389 222.586 119.07 228.823 112.287 233.842C112.245 233.842 112.35 234.045 112.392 234.024C118.692 230.727 130.725 223.223 134.743 220.689C134.82 220.64 134.673 220.381 134.589 220.423Z" fill="#263238"/>
<path d="M136.577 225.666L112.364 239.939C112.364 239.939 107.275 220.71 105.812 208.222C104.874 200.165 106.155 194.502 109.774 193.809L136.577 225.666Z" fill="#263238"/>
<path d="M137.85 292.411H50.6016C50.6016 292.411 69.5506 219.226 87.0926 198.611C87.4846 198.135 87.8906 197.694 88.2966 197.274C88.3806 197.176 88.4506 197.106 88.5346 197.022C89.8919 195.571 91.4729 194.347 93.2176 193.396C93.5256 193.228 93.8336 193.074 94.1556 192.934C100.911 189.826 108.044 192.402 113.196 196.812C114.827 198.212 133.321 222.271 134.959 231.441C136.359 239.54 130.899 248.241 130.899 248.241L137.85 292.411Z" fill="#FF880D"/>
<path d="M99.3008 203.14C99.1329 204.193 98.8146 205.216 98.3557 206.178C97.9277 207.151 97.3594 208.057 96.6688 208.866C96.8356 207.815 97.1539 206.794 97.6137 205.835C98.0442 204.86 98.6123 203.953 99.3008 203.14ZM86.1687 244.104C85.7152 245.065 85.3995 246.085 85.2308 247.135C86.5899 245.49 87.4949 243.519 87.8558 241.416C87.1699 242.228 86.602 243.133 86.1687 244.104ZM75.3887 286.853C74.928 287.814 74.6119 288.838 74.4508 289.891C75.8012 288.238 76.705 286.267 77.0758 284.165C76.3899 284.977 75.822 285.882 75.3887 286.853ZM119.335 234.71C118.876 235.672 118.558 236.695 118.39 237.748C119.082 236.938 119.651 236.03 120.077 235.053C120.533 234.093 120.849 233.072 121.015 232.022C120.329 232.833 119.763 233.738 119.335 234.71ZM133.16 262.64C132.713 263.59 132.402 264.599 132.236 265.636C132.67 265.135 133.053 264.591 133.377 264.012L133.16 262.64ZM99.9307 282.499C99.4772 283.463 99.1615 284.485 98.9927 285.537C99.685 284.727 100.254 283.819 100.68 282.842C101.133 281.881 101.449 280.86 101.618 279.811C100.932 280.623 100.364 281.528 99.9307 282.499ZM110.27 218.099C109.311 217.639 108.29 217.323 107.239 217.161C108.883 218.52 110.855 219.425 112.958 219.786C112.145 219.105 111.24 218.542 110.27 218.113V218.099ZM116.038 252.84C115.077 252.386 114.056 252.071 113.007 251.902C113.817 252.59 114.723 253.158 115.695 253.589C116.656 254.042 117.676 254.358 118.726 254.527C117.913 253.846 117.008 253.283 116.038 252.854V252.84ZM118.138 290.829C117.174 290.375 116.151 290.06 115.1 289.891C116.748 291.248 118.721 292.153 120.826 292.516C120.013 291.835 119.108 291.272 118.138 290.843V290.829ZM75.9348 258.853C74.9711 258.399 73.9484 258.084 72.8968 257.915C73.7087 258.605 74.6165 259.173 75.5917 259.602C76.553 260.055 77.5734 260.371 78.6228 260.54C77.8096 259.859 76.9048 259.296 75.9348 258.867V258.853ZM132.67 241.731C132.725 242.443 132.859 243.148 133.069 243.831C133.188 243.537 133.314 243.229 133.433 242.914C133.209 242.505 132.954 242.114 132.67 241.745V241.731ZM130.976 282.261C131.334 283.259 131.831 284.202 132.453 285.061C132.369 284.001 132.133 282.959 131.753 281.967C131.393 280.968 130.893 280.026 130.269 279.167C130.358 280.231 130.596 281.277 130.976 282.275V282.261ZM85.7627 223.524C86.1176 224.523 86.6151 225.467 87.2397 226.324C87.1544 225.265 86.9187 224.223 86.5397 223.23C86.1766 222.233 85.6772 221.29 85.0558 220.43C85.1404 221.495 85.3785 222.541 85.7627 223.538V223.524ZM99.6157 259.434C99.9736 260.432 100.471 261.375 101.093 262.234C101.012 261.174 100.776 260.131 100.393 259.14C100.038 258.14 99.5404 257.197 98.9157 256.34C98.9998 257.404 99.2355 258.451 99.6157 259.448V259.434ZM61.9907 274.085C62.348 275.083 62.8453 276.026 63.4677 276.885C63.383 275.823 63.1473 274.779 62.7677 273.784C62.4046 272.787 61.9052 271.844 61.2838 270.984C61.3691 272.046 61.6072 273.091 61.9907 274.085ZM115.723 272.475C116.722 272.116 117.665 271.616 118.523 270.991C117.463 271.071 116.42 271.307 115.429 271.691C114.429 272.046 113.486 272.543 112.629 273.168C113.688 273.085 114.73 272.851 115.723 272.475ZM65.1478 244.804C65.0358 245.133 64.9168 245.455 64.8048 245.784L65.2598 245.63C66.2608 245.275 67.2043 244.775 68.0598 244.146C67.0632 244.228 66.083 244.45 65.1478 244.804ZM127.56 216.475C127.035 216.73 126.536 217.035 126.069 217.385C126.699 217.346 127.324 217.238 127.931 217.063C127.805 216.867 127.679 216.671 127.56 216.475ZM86.2108 272.475C87.2081 272.112 88.1503 271.612 89.0108 270.991C87.9507 271.071 86.9082 271.307 85.9167 271.691C84.9182 272.048 83.9754 272.545 83.1167 273.168C84.1757 273.085 85.2175 272.851 86.2108 272.475ZM52.9328 288.253C52.4638 288.435 52.0018 288.624 51.5328 288.848C51.4674 289.1 51.4044 289.333 51.3438 289.548C51.9737 289.411 52.5935 289.231 53.1988 289.009C54.1973 288.652 55.1401 288.154 55.9988 287.532C54.9476 287.625 53.9152 287.868 52.9328 288.253ZM100.533 233.506C101.53 233.143 102.472 232.643 103.333 232.022C102.273 232.102 101.23 232.338 100.239 232.722C99.2402 233.079 98.2974 233.576 97.4387 234.199C98.4949 234.112 99.5338 233.879 100.526 233.506H100.533Z" fill="white"/>
<path d="M117.809 245.119C114.092 245.482 110.407 246.121 106.784 247.03C104.992 247.506 103.235 248.059 101.478 248.654C100.603 248.955 99.7214 249.221 98.8324 249.48C97.9145 249.784 96.9621 249.973 95.9974 250.04C95.9834 250.045 95.9712 250.053 95.9625 250.065C95.9539 250.077 95.9492 250.092 95.9492 250.106C95.9492 250.121 95.9539 250.136 95.9625 250.148C95.9712 250.159 95.9834 250.168 95.9974 250.173C96.9102 250.213 97.8247 250.189 98.7344 250.103C99.6149 249.986 100.487 249.813 101.345 249.585C103.165 249.123 104.964 248.57 106.784 248.087C110.459 247.107 114.127 246.134 117.858 245.42C118.026 245.392 117.984 245.098 117.809 245.119Z" fill="#263238"/>
<path d="M127.021 248.325C123.957 248.034 120.879 247.915 117.802 247.968C116.255 247.968 114.729 248.122 113.196 248.283C112.496 248.36 111.733 248.451 111.005 248.549C110.277 248.647 109.416 248.871 108.611 248.969C108.527 248.969 108.534 249.116 108.611 249.102C109.367 249.032 110.144 249.102 110.907 249.067L113.21 248.983C114.743 248.934 116.276 248.899 117.816 248.836C120.889 248.703 123.948 248.605 127.021 248.584C127.196 248.577 127.182 248.346 127.021 248.325Z" fill="#263238"/>
<path d="M84.9102 199.864C71.0712 214.683 40.1101 267.932 50.7571 278.187C61.4041 288.442 128.317 288.638 140.238 288.638C145.663 288.638 134.547 252.938 128.73 252.238C123.886 251.643 88.6691 250.502 87.9551 249.074C87.1431 247.464 91.7421 234.472 95.8091 212.527C100.17 189 91.0002 193.319 84.9102 199.864Z" fill="#F7A9A0"/>
<path d="M148.035 244.888C160.061 243.208 163.435 244.629 172.808 237.825C178.975 233.359 184.47 235.382 180.956 242.473C175.195 254.079 160.131 259.497 154.356 259.875L148.035 244.888Z" fill="#F7A9A0"/>
<path d="M116.086 256.466C116.086 256.466 129.603 248.962 142.238 245.903C150.981 243.803 171.421 240.478 189.194 260.603C194.794 266.945 195.095 275.912 186.506 270.557C179.835 266.399 176.244 262.248 171.764 260.995C171.764 260.995 174.221 273.742 169.468 278.005C165.314 281.73 160.9 285.155 156.259 288.253C155.495 287.533 154.779 286.764 154.117 285.95C154.117 285.95 149.301 289.513 140.236 288.652L116.086 256.466Z" fill="#F7A9A0"/>
<path d="M150.903 245.224C155.103 247.401 163.86 252.168 169.691 258.566C176.159 265.671 186.708 281.106 181.416 285.831C177.531 289.289 173.016 283.731 173.016 283.731C173.016 283.731 176.033 291.032 171.84 293.391C168.018 295.54 164.763 291.046 164.763 291.046C164.763 291.046 165.827 295.792 161.753 297.157C156.853 298.795 155.411 288.589 149.006 285.957C147.543 285.383 150.903 245.224 150.903 245.224Z" fill="#F7A9A0"/>
<path d="M160.846 264.25C164.444 266.945 171.038 275.156 172.858 283.661C172.9 283.857 172.781 283.99 172.704 283.822C169.541 276.861 165.546 270.31 160.804 264.313C160.748 264.271 160.811 264.215 160.846 264.25Z" fill="#263238"/>
<path d="M154.06 270.9C156.916 273.546 163.335 282.31 164.889 290.997C164.924 291.186 164.791 291.312 164.721 291.144C161.924 284.027 158.326 277.252 153.997 270.949C153.955 270.9 153.997 270.858 154.06 270.9Z" fill="#263238"/>
<path d="M142.896 288.771C144.321 288.753 145.743 288.641 147.152 288.435C148.564 288.268 149.942 287.891 151.24 287.315H151.275C152.663 288.585 153.917 289.992 155.02 291.515C155.576 292.279 156.081 293.079 156.532 293.909C156.956 294.733 157.514 295.481 158.184 296.121C158.847 296.75 159.709 297.129 160.62 297.192C161.531 297.203 162.41 296.859 163.07 296.233C163.71 295.587 164.143 294.766 164.316 293.874C164.514 292.976 164.58 292.054 164.512 291.137L164.47 290.535L164.848 291.004C165.759 292.226 167.025 293.136 168.474 293.608C169.197 293.8 169.957 293.8 170.679 293.608C171.4 293.426 172.055 293.045 172.569 292.509C173.549 291.389 173.71 289.751 173.612 288.253C173.493 286.721 173.17 285.212 172.653 283.766L172.24 282.569L173.045 283.549C174.004 284.774 175.256 285.737 176.685 286.349C177.39 286.636 178.155 286.744 178.911 286.664C179.659 286.561 180.369 286.272 180.976 285.824C181.565 285.359 182 284.727 182.222 284.011C182.441 283.276 182.531 282.508 182.488 281.743C182.39 280.181 182.057 278.642 181.501 277.179C180.375 274.223 178.917 271.405 177.154 268.779C175.417 266.129 173.529 263.581 171.498 261.149L170.868 260.4L171.841 260.694C172.935 261.058 173.987 261.539 174.977 262.129C175.957 262.693 176.912 263.3 177.84 263.949C179.702 265.23 181.431 266.686 183.223 268.009C184.964 269.388 186.857 270.562 188.865 271.509C189.845 271.901 190.965 272.209 191.819 271.705C192.673 271.201 192.932 270.095 192.862 269.045C192.785 267.961 192.532 266.897 192.113 265.895C191.669 264.889 191.125 263.93 190.489 263.032C189.196 261.217 187.738 259.526 186.135 257.978C184.539 256.417 182.854 254.949 181.088 253.582C179.335 252.202 177.484 250.951 175.551 249.837L175.243 249.662L175.495 249.41C177.537 247.454 179.268 245.197 180.626 242.718C181.299 241.499 181.665 240.134 181.69 238.742C181.692 238.066 181.515 237.403 181.179 236.817C181.01 236.535 180.787 236.29 180.523 236.096C180.259 235.901 179.958 235.761 179.639 235.683C178.271 235.479 176.874 235.745 175.677 236.439C174.415 237.075 173.186 237.776 171.995 238.539C169.622 240.065 167.298 241.85 164.512 242.739C163.138 243.137 161.733 243.42 160.312 243.586C158.912 243.782 157.477 243.95 156.063 244.125C153.263 244.468 150.407 244.825 147.593 245.287C141.949 246.114 136.408 247.54 131.066 249.543C136.389 247.472 141.918 245.975 147.558 245.077C150.358 244.587 153.193 244.188 156.021 243.81L160.221 243.229C161.63 243.066 163.021 242.78 164.379 242.375C167.081 241.521 169.356 239.757 171.75 238.175C172.954 237.398 174.179 236.663 175.46 236.005C176.757 235.249 178.276 234.965 179.758 235.2C180.515 235.389 181.168 235.866 181.578 236.53C181.958 237.185 182.158 237.929 182.159 238.686C182.146 240.155 181.768 241.598 181.06 242.886C179.691 245.425 177.937 247.737 175.859 249.739L175.81 249.319C177.764 250.437 179.635 251.693 181.41 253.078C183.199 254.454 184.908 255.931 186.527 257.502C188.167 259.066 189.657 260.779 190.979 262.619C191.643 263.549 192.213 264.544 192.68 265.587C193.132 266.658 193.406 267.795 193.492 268.954C193.539 269.559 193.47 270.167 193.289 270.746C193.098 271.363 192.687 271.888 192.134 272.223C191.577 272.533 190.931 272.646 190.3 272.545C189.713 272.47 189.139 272.317 188.592 272.09C186.521 271.145 184.572 269.951 182.789 268.534C180.976 267.176 179.289 265.734 177.441 264.46C176.531 263.823 175.593 263.214 174.641 262.661C173.709 262.087 172.716 261.617 171.68 261.261L171.995 260.757C174.028 263.213 175.919 265.784 177.658 268.457C179.432 271.126 180.895 273.989 182.019 276.99C182.588 278.506 182.925 280.099 183.02 281.715C183.06 282.54 182.958 283.367 182.719 284.158C182.47 284.967 181.982 285.682 181.319 286.209C180.641 286.711 179.846 287.031 179.009 287.14C178.176 287.222 177.336 287.102 176.559 286.79C175.053 286.139 173.736 285.118 172.73 283.822L173.122 283.605C173.646 285.093 173.971 286.644 174.088 288.218C174.146 289.014 174.099 289.814 173.948 290.598C173.802 291.402 173.444 292.153 172.912 292.775C172.338 293.358 171.617 293.776 170.825 293.986C170.033 294.195 169.199 294.188 168.411 293.965C166.884 293.461 165.549 292.498 164.589 291.207L164.925 291.074C164.991 292.034 164.916 292.999 164.701 293.937C164.507 294.904 164.018 295.786 163.301 296.464C162.576 297.136 161.616 297.495 160.627 297.465C159.649 297.389 158.727 296.973 158.023 296.289C157.343 295.621 156.778 294.845 156.35 293.993C155.913 293.167 155.424 292.37 154.887 291.606C153.81 290.072 152.581 288.651 151.219 287.364H151.275C149.96 287.927 148.568 288.291 147.145 288.442C145.738 288.642 144.318 288.752 142.896 288.771Z" fill="#263238"/>
<path d="M63.2148 225.806L92.0338 236.187C92.0338 236.187 98.8518 215.887 99.3208 203.007C99.7898 190.127 92.1318 191.429 83.4518 200.522C74.7718 209.615 63.2148 225.806 63.2148 225.806Z" fill="#FF880D"/>
<path d="M99.2992 203.14C99.1313 204.193 98.813 205.216 98.3542 206.178C97.9262 207.151 97.3578 208.057 96.6672 208.866C96.834 207.815 97.1523 206.794 97.6122 205.835C98.0427 204.86 98.6108 203.953 99.2992 203.14ZM67.6172 227.395L68.3802 227.668C68.8022 226.764 69.0944 225.805 69.2482 224.819C68.5815 225.593 68.032 226.461 67.6172 227.395ZM85.7612 223.538C86.1161 224.537 86.6136 225.481 87.2382 226.338C87.1528 225.279 86.9171 224.237 86.5382 223.244C86.175 222.247 85.6756 221.304 85.0542 220.444C85.1402 221.504 85.3783 222.546 85.7612 223.538ZM77.1092 209.111C76.4836 209.345 75.8754 209.624 75.2892 209.944L74.8202 210.532C75.7032 210.41 76.5697 210.19 77.4032 209.874C78.4043 209.519 79.3477 209.019 80.2032 208.39C79.1428 208.482 78.101 208.725 77.1092 209.111Z" fill="white"/>
<path d="M92.399 230.461C88.038 228.585 76.047 223.86 67.836 221.858C67.787 221.858 67.717 222.033 67.759 222.054C74.318 224.798 87.779 229.278 92.259 230.748C92.399 230.776 92.511 230.496 92.399 230.461Z" fill="#263238"/>
<path d="M97.9992 219.541C97.9992 219.499 97.9502 219.478 97.9292 219.541C97.4112 220.535 96.9492 221.543 96.5292 222.572C97.0332 220.318 97.4835 218.059 97.8802 215.796C97.8802 215.779 97.8736 215.763 97.8617 215.751C97.8499 215.74 97.8339 215.733 97.8172 215.733C97.8005 215.733 97.7845 215.74 97.7727 215.751C97.7608 215.763 97.7542 215.779 97.7542 215.796C95.8222 222.439 93.7222 229.054 91.9302 235.739C91.1952 235.704 90.4532 235.655 89.7252 235.557C89.7019 235.555 89.6789 235.562 89.6602 235.576C89.6415 235.59 89.6285 235.611 89.6234 235.633C89.6184 235.656 89.6216 235.68 89.6326 235.701C89.6435 235.721 89.6615 235.737 89.6832 235.746C90.4812 235.942 91.2652 236.194 92.0422 236.446C92.1307 236.488 92.2319 236.493 92.3246 236.462C92.4173 236.431 92.4942 236.365 92.5392 236.278C93.9419 232.48 95.1107 228.599 96.0392 224.658C96.3402 224.056 96.6342 223.454 96.8932 222.831C97.3447 221.764 97.7144 220.664 97.9992 219.541Z" fill="#263238"/>
<path d="M99.5873 194.6C99.7273 196.161 105.53 206.99 112.474 207.655C114.735 207.872 116.45 195.573 116.45 195.573L116.786 194.691L121.448 182.385L107.889 170.66L105.915 169.085C105.915 169.085 104.858 172.536 103.591 176.848C103.528 177.044 103.465 177.247 103.409 177.457C103.353 177.667 103.248 177.933 103.192 178.157C102.989 178.801 102.793 179.459 102.604 180.117C102.464 180.614 102.324 181.097 102.191 181.629C102.058 182.161 101.918 182.672 101.771 183.204C100.455 188.44 99.5453 193.9 99.5873 194.6Z" fill="#F7A9A0"/>
<path d="M103.598 176.841C104.369 180.595 105.949 184.136 108.227 187.218C110.506 190.299 113.429 192.847 116.793 194.684L121.455 182.378L107.896 170.653L105.922 169.078C105.922 169.078 104.858 172.529 103.598 176.841Z" fill="#263238"/>
<path d="M141.67 164.542C140.48 187.642 126.529 189.504 121.559 189.238C117.044 189 101.7 187.621 100.496 164.549C99.2921 141.477 110.401 134.743 120.754 134.743C131.107 134.743 142.86 141.477 141.67 164.542Z" fill="#F7A9A0"/>
<path d="M138.598 160.391C138.079 160.273 137.567 160.126 137.065 159.95C136.504 159.869 135.985 159.606 135.588 159.201C135.489 159.049 135.443 158.869 135.455 158.689C135.468 158.508 135.539 158.337 135.658 158.2C135.939 157.969 136.276 157.818 136.635 157.76C136.994 157.702 137.362 157.74 137.702 157.871C138.426 158.036 139.064 158.462 139.494 159.068C139.586 159.211 139.635 159.378 139.633 159.549C139.631 159.719 139.579 159.885 139.484 160.026C139.388 160.167 139.253 160.277 139.096 160.342C138.938 160.407 138.765 160.424 138.598 160.391Z" fill="#263238"/>
<path d="M123.899 159.411C124.438 159.411 124.942 159.271 125.474 159.194C126.043 159.198 126.596 159.013 127.049 158.669C127.17 158.533 127.242 158.362 127.255 158.18C127.268 157.999 127.22 157.819 127.119 157.668C126.877 157.398 126.566 157.197 126.22 157.088C125.874 156.978 125.505 156.964 125.152 157.045C124.41 157.101 123.715 157.427 123.199 157.962C123.089 158.092 123.02 158.251 122.999 158.42C122.978 158.589 123.006 158.76 123.08 158.913C123.154 159.066 123.271 159.195 123.416 159.283C123.561 159.371 123.729 159.416 123.899 159.411Z" fill="#263238"/>
<path d="M126.214 165.116C126.214 165.053 126.081 165.186 126.081 165.249C126.081 166.824 125.759 168.616 124.31 169.071C124.261 169.071 124.261 169.162 124.31 169.155C126.06 169.001 126.438 166.6 126.214 165.116Z" fill="#263238"/>
<path d="M124.891 163.408C122.371 163.086 121.923 168.14 124.254 168.441C126.585 168.742 126.998 163.674 124.891 163.408Z" fill="#263238"/>
<path d="M123.9 163.583C123.431 163.828 122.955 164.283 122.416 164.283C121.877 164.283 121.373 163.716 121.016 163.17C121.016 163.114 120.932 163.17 120.925 163.219C120.827 164.185 121.107 165.214 122.136 165.452C123.165 165.69 123.83 164.871 124.159 163.919C124.201 163.8 124.068 163.485 123.9 163.583Z" fill="#263238"/>
<path d="M134.805 165.55C134.805 165.494 134.917 165.634 134.91 165.704C134.707 167.258 134.735 169.085 136.107 169.743C136.149 169.743 136.107 169.841 136.107 169.827C134.399 169.4 134.399 166.999 134.805 165.55Z" fill="#263238"/>
<path d="M136.359 164.052C138.893 164.108 138.599 169.176 136.254 169.127C133.909 169.078 134.231 164.01 136.359 164.052Z" fill="#263238"/>
<path d="M137.393 164.444C137.778 164.738 138.149 165.249 138.625 165.312C139.101 165.375 139.619 164.857 140.025 164.346C140.067 164.297 140.102 164.346 140.102 164.409C140.067 165.375 139.689 166.369 138.751 166.509C137.813 166.649 137.316 165.76 137.141 164.78C137.085 164.591 137.239 164.332 137.393 164.444Z" fill="#263238"/>
<path d="M125.047 177.191C125.369 177.604 125.677 178.157 126.237 178.283C126.817 178.35 127.404 178.292 127.959 178.115C127.971 178.109 127.985 178.108 127.998 178.111C128.011 178.115 128.022 178.122 128.03 178.133C128.037 178.144 128.041 178.158 128.039 178.171C128.038 178.184 128.032 178.197 128.022 178.206C127.758 178.484 127.423 178.685 127.052 178.786C126.682 178.888 126.291 178.885 125.922 178.78C125.615 178.656 125.352 178.443 125.166 178.169C124.98 177.895 124.88 177.571 124.879 177.24C124.872 177.142 124.998 177.1 125.047 177.191Z" fill="#263238"/>
<path d="M131.731 172.788C131.731 172.788 131.871 175.154 131.787 176.288C131.787 176.386 127.685 176.904 126.138 174.048C126.119 174.025 126.111 173.995 126.114 173.966C126.117 173.936 126.132 173.909 126.155 173.89C126.179 173.872 126.208 173.863 126.238 173.867C126.267 173.87 126.294 173.885 126.313 173.908C127.648 174.98 129.292 175.594 131.003 175.658C131.101 175.357 130.625 171.612 130.8 171.612C131.652 171.753 132.481 172.01 133.264 172.375C133.11 167.433 132.172 162.575 132.095 157.64C132.098 157.606 132.112 157.574 132.135 157.549C132.158 157.524 132.189 157.507 132.223 157.502C132.257 157.496 132.291 157.502 132.321 157.518C132.351 157.534 132.375 157.56 132.389 157.591C133.733 162.631 134.034 168.308 134.321 173.404C134.398 174.013 132.158 173.005 131.731 172.788Z" fill="#263238"/>
<path d="M100.755 164.052C102.339 163.714 103.807 162.97 105.017 161.894C106.227 160.818 107.137 159.446 107.657 157.913C127.425 157.43 133.963 145.166 133.963 145.166C137.757 155.491 141.145 157.262 141.698 158.816C141.698 158.816 143.343 149.863 140.354 143.038C137.708 136.997 130.918 130.529 120.236 131.901C114.181 132.678 109.085 137.921 109.085 137.921C109.085 137.921 102.54 138.621 99.8592 143.885C95.3652 152.733 100.755 164.052 100.755 164.052Z" fill="#263238"/>
<path d="M134.265 144.382C133.545 146.956 132.193 149.31 130.331 151.228C128.468 153.157 126.247 154.705 123.793 155.785L121.917 156.485C121.28 156.702 120.629 156.835 119.985 157.01C118.696 157.347 117.383 157.581 116.058 157.71C114.735 157.829 113.405 157.808 112.082 157.857C110.766 157.738 109.45 157.647 108.141 157.507C109.464 157.465 110.773 157.507 112.082 157.465C113.384 157.332 114.693 157.283 115.981 157.101C118.558 156.759 121.077 156.071 123.471 155.057C125.853 154.044 128.029 152.601 129.89 150.801C131.785 148.994 133.276 146.806 134.265 144.382Z" fill="#263238"/>
<path d="M121.058 172.704C119.714 172.419 118.478 171.762 117.489 170.808C116.501 169.855 115.8 168.643 115.466 167.311C115.132 165.978 115.179 164.579 115.602 163.272C116.024 161.965 116.805 160.803 117.855 159.918C118.905 159.033 120.183 158.461 121.542 158.266C122.902 158.072 124.289 158.262 125.545 158.817C126.801 159.372 127.877 160.268 128.649 161.404C129.421 162.54 129.859 163.87 129.913 165.242C129.986 167.185 129.286 169.078 127.966 170.506C126.646 171.934 124.814 172.78 122.871 172.858C122.262 172.878 121.654 172.826 121.058 172.704ZM123.9 159.313C123.382 159.205 122.853 159.16 122.325 159.18C120.712 159.246 119.186 159.923 118.056 161.075C116.926 162.227 116.277 163.766 116.242 165.379C116.207 166.992 116.788 168.558 117.867 169.757C118.946 170.957 120.441 171.7 122.049 171.836C123.657 171.972 125.256 171.49 126.52 170.488C127.785 169.486 128.621 168.04 128.856 166.444C129.092 164.848 128.711 163.222 127.79 161.897C126.869 160.572 125.478 159.648 123.9 159.313Z" fill="#455A64"/>
<path d="M137.82 174.181C135.076 173.593 133.186 170.254 133.543 166.446C133.679 164.621 134.384 162.885 135.559 161.483C136.025 160.849 136.646 160.346 137.363 160.023C138.08 159.699 138.869 159.566 139.652 159.637C140.436 159.707 141.188 159.978 141.835 160.424C142.483 160.87 143.005 161.476 143.35 162.183C144.246 163.778 144.618 165.615 144.414 167.433C144.036 171.458 141.292 174.51 138.296 174.23C138.135 174.237 137.974 174.216 137.82 174.181ZM139.92 160.685C139.801 160.656 139.679 160.637 139.556 160.629C138.93 160.597 138.305 160.717 137.735 160.978C137.165 161.238 136.666 161.633 136.28 162.127C135.243 163.376 134.621 164.918 134.502 166.537C134.173 170.037 135.902 173.047 138.373 173.278C140.844 173.509 143.098 170.856 143.42 167.37C143.604 165.757 143.278 164.127 142.489 162.708C142.227 162.212 141.865 161.776 141.425 161.427C140.985 161.079 140.477 160.826 139.934 160.685H139.92Z" fill="#455A64"/>
<path d="M129.591 166.061L129.031 165.256C130.228 164.43 132.902 163.422 134.512 165.494L133.735 166.096C132.3 164.234 129.703 165.991 129.591 166.061Z" fill="#455A64"/>
<path d="M96.8768 164.899L96.0508 164.367C96.2958 163.982 98.5288 160.601 100.741 160.454C102.841 160.321 115.777 162.771 116.33 162.876L116.148 163.835C112.431 163.135 102.4 161.322 100.804 161.434C99.3478 161.532 97.4718 163.968 96.8768 164.899Z" fill="#455A64"/>
<path d="M104.243 164.794C104.243 164.794 100.239 156.961 96.7526 158.291C93.2666 159.621 95.5836 170.492 99.1886 172.438C99.6341 172.719 100.132 172.908 100.652 172.992C101.172 173.076 101.704 173.054 102.215 172.927C102.727 172.8 103.207 172.571 103.628 172.254C104.048 171.936 104.4 171.537 104.663 171.08L104.243 164.794Z" fill="#F7A9A0"/>
<path d="M97.4957 161.392C97.4327 161.392 97.4117 161.462 97.4607 161.49C99.9807 162.939 101.038 165.606 101.661 168.308C101.003 167.209 100.002 166.523 98.5457 167.279C98.5304 167.289 98.5189 167.304 98.5128 167.321C98.5067 167.338 98.5064 167.357 98.512 167.374C98.5175 167.392 98.5286 167.407 98.5435 167.417C98.5584 167.428 98.5764 167.433 98.5947 167.433C99.0849 167.348 99.5894 167.418 100.038 167.632C100.487 167.847 100.858 168.195 101.101 168.63C101.5 169.357 101.822 170.124 102.06 170.919C102.151 171.178 102.599 171.108 102.55 170.821C102.546 170.8 102.546 170.779 102.55 170.758C103.082 167.363 101.101 162.239 97.4957 161.392Z" fill="#263238"/>
<path d="M196.45 292.425C194.178 292.213 191.92 291.87 189.688 291.396C187.446 290.956 185.232 290.384 183.059 289.681C187.604 290.135 192.092 291.055 196.45 292.425Z" fill="#263238"/>
<path d="M215.922 286.454C215.649 283.773 215.586 281.092 215.572 278.411C215.553 275.724 215.67 273.037 215.922 270.361C216.175 273.037 216.292 275.724 216.272 278.411C216.258 281.092 216.195 283.773 215.922 286.454Z" fill="#263238"/>
<path d="M209.083 286.566C207.563 284.541 206.15 282.438 204.848 280.266C203.519 278.106 202.306 275.877 201.215 273.588C204.235 277.668 206.869 282.019 209.083 286.587V286.566Z" fill="#263238"/>
<path d="M184.555 274.19C186.109 275.387 187.614 276.64 189.112 277.9C190.61 279.16 192.073 280.448 193.536 281.75C194.999 283.052 196.441 284.368 197.855 285.719L199.955 287.742C200.655 288.442 201.355 289.142 202.055 289.842C201.278 289.247 200.522 288.624 199.759 288.015L197.505 286.132C196.007 284.879 194.544 283.584 193.081 282.282C191.618 280.98 190.176 279.664 188.762 278.313C187.348 276.962 185.92 275.604 184.555 274.19Z" fill="#263238"/>
<path d="M228.637 291.2C230.809 290.502 233.02 289.929 235.259 289.485C237.493 289.008 239.753 288.665 242.028 288.456C237.669 289.825 233.182 290.744 228.637 291.2Z" fill="#263238"/>
<path d="M239.402 272.818C238.044 274.218 236.602 275.583 235.202 276.927C233.802 278.271 232.332 279.587 230.883 280.896C229.434 282.205 227.957 283.493 226.452 284.746L224.205 286.629C223.435 287.238 222.686 287.861 221.902 288.456C222.602 287.756 223.302 287.056 224.002 286.356L226.102 284.333C227.502 282.982 228.972 281.673 230.421 280.364C231.87 279.055 233.347 277.767 234.852 276.514C236.357 275.261 237.855 274.015 239.402 272.818Z" fill="#263238"/>
<path d="M303.051 285.656L305.039 285.39L301.819 207.655L278.726 175.126L277.004 176.54L299.971 208.922L303.051 285.656Z" fill="#263238"/>
<path d="M303.717 208.292C303.717 208.846 303.553 209.387 303.245 209.848C302.938 210.308 302.5 210.667 301.989 210.879C301.477 211.091 300.914 211.146 300.371 211.038C299.828 210.93 299.329 210.663 298.937 210.272C298.546 209.88 298.279 209.381 298.171 208.838C298.063 208.295 298.118 207.732 298.33 207.22C298.542 206.709 298.901 206.272 299.362 205.964C299.822 205.656 300.363 205.492 300.917 205.492C301.66 205.492 302.372 205.787 302.897 206.312C303.422 206.837 303.717 207.549 303.717 208.292Z" fill="#FF880D"/>
<path d="M280.916 176.12C280.916 176.674 280.752 177.215 280.445 177.676C280.137 178.136 279.7 178.495 279.188 178.707C278.676 178.919 278.113 178.974 277.57 178.866C277.027 178.758 276.528 178.492 276.137 178.1C275.745 177.708 275.478 177.209 275.37 176.666C275.262 176.123 275.318 175.56 275.53 175.049C275.741 174.537 276.1 174.1 276.561 173.792C277.021 173.484 277.563 173.32 278.116 173.32C278.859 173.32 279.571 173.615 280.096 174.14C280.621 174.665 280.916 175.377 280.916 176.12Z" fill="#FF880D"/>
<path d="M258.922 177.219L269.807 193.858L277.003 187.299L281.385 183.302L273.216 170.842L267.798 173.257L258.922 177.219Z" fill="#FF880D"/>
<path opacity="0.1" d="M258.922 177.219L269.807 193.858L277.003 187.299L267.798 173.257L258.922 177.219Z" fill="black"/>
<path d="M238.805 181.552L257.796 210.56L275.933 193.494L261.702 171.752L238.805 181.552Z" fill="#FF880D"/>
<path d="M285.879 292.432H320.116L318.009 281.68H287.979L285.879 292.432Z" fill="#FF880D"/>
<path d="M174.187 109.606C173.779 113.511 172.294 117.226 169.897 120.337C167.501 123.447 164.287 125.83 160.615 127.22C156.943 128.611 152.957 128.953 149.101 128.21C145.246 127.467 141.673 125.667 138.781 123.011L128.176 124.6L133.482 115.43C132.157 112.204 131.657 108.699 132.026 105.231C132.298 102.449 133.117 99.7474 134.437 97.2831C135.758 94.8188 137.552 92.6399 139.718 90.8721C141.884 89.1042 144.378 87.7823 147.057 86.9824C149.735 86.1824 152.546 85.9204 155.326 86.2112C158.107 86.502 160.802 87.3401 163.258 88.677C165.713 90.0139 167.879 91.8234 169.632 94.0011C171.386 96.1789 172.69 98.6819 173.472 101.366C174.254 104.05 174.497 106.863 174.187 109.641V109.606Z" fill="white"/>
<path d="M174.188 109.606C173.779 113.511 172.299 117.227 169.911 120.344C168.744 121.919 167.342 123.305 165.753 124.453C162.604 126.823 158.862 128.277 154.938 128.653C153.958 128.738 152.974 128.757 151.991 128.709C151.007 128.686 150.026 128.583 149.058 128.401C145.145 127.688 141.508 125.897 138.558 123.228L138.81 123.305L128.219 124.929L127.449 125.048L127.834 124.348L133.112 115.164V115.528C131.868 112.488 131.338 109.203 131.565 105.925C131.792 102.648 132.769 99.4673 134.421 96.6279C136.072 93.8009 138.34 91.3839 141.057 89.5579C144.437 87.3112 148.385 86.0714 152.443 85.9831C156.5 85.8948 160.499 86.9617 163.973 89.0593C167.447 91.157 170.253 94.199 172.064 97.8306C173.875 101.462 174.617 105.534 174.202 109.571L174.188 109.606ZM174.188 109.606C174.521 106.416 174.118 103.192 173.011 100.182C171.903 97.1712 170.121 94.4545 167.801 92.2399C165.481 90.0252 162.685 88.3714 159.626 87.4054C156.568 86.4393 153.328 86.1867 150.157 86.6669C147.012 87.1352 144.017 88.3182 141.4 90.1249C138.809 91.9423 136.645 94.3024 135.058 97.0409C133.499 99.7896 132.58 102.855 132.37 106.008C132.174 109.158 132.684 112.312 133.861 115.241L133.938 115.43L133.84 115.605L128.499 124.754L128.121 124.194L138.733 122.71H138.88L138.985 122.808C141.816 125.46 145.332 127.269 149.135 128.03C150.083 128.227 151.045 128.344 152.012 128.38C152.977 128.45 153.945 128.45 154.91 128.38C156.846 128.228 158.752 127.809 160.573 127.134C162.403 126.47 164.124 125.541 165.683 124.376C166.468 123.8 167.216 123.175 167.923 122.507C168.611 121.818 169.254 121.086 169.848 120.316C172.257 117.215 173.759 113.508 174.188 109.606Z" fill="#263238"/>
<path d="M164.927 108.045C164.927 108.553 164.776 109.05 164.494 109.472C164.212 109.895 163.811 110.224 163.341 110.418C162.872 110.613 162.355 110.664 161.857 110.564C161.359 110.465 160.901 110.221 160.542 109.861C160.182 109.502 159.938 109.044 159.838 108.546C159.739 108.048 159.79 107.531 159.985 107.062C160.179 106.592 160.508 106.191 160.931 105.909C161.353 105.627 161.85 105.476 162.358 105.476C162.696 105.475 163.03 105.541 163.342 105.67C163.654 105.798 163.938 105.987 164.177 106.226C164.415 106.465 164.605 106.749 164.733 107.061C164.862 107.373 164.928 107.707 164.927 108.045Z" fill="#263238"/>
<path d="M155.728 108.045C155.728 108.553 155.577 109.05 155.294 109.473C155.012 109.895 154.61 110.225 154.14 110.419C153.671 110.613 153.154 110.664 152.655 110.564C152.157 110.464 151.699 110.219 151.34 109.859C150.981 109.499 150.737 109.041 150.638 108.542C150.54 108.043 150.592 107.526 150.787 107.057C150.983 106.588 151.313 106.187 151.737 105.905C152.16 105.624 152.657 105.474 153.166 105.476C153.503 105.476 153.837 105.542 154.148 105.672C154.459 105.801 154.742 105.99 154.98 106.229C155.218 106.467 155.406 106.751 155.535 107.062C155.663 107.374 155.729 107.708 155.728 108.045Z" fill="#263238"/>
<path d="M146.536 108.045C146.536 108.553 146.386 109.05 146.103 109.472C145.821 109.895 145.42 110.224 144.951 110.418C144.481 110.613 143.965 110.664 143.466 110.564C142.968 110.465 142.51 110.221 142.151 109.861C141.792 109.502 141.547 109.044 141.448 108.546C141.349 108.048 141.4 107.531 141.594 107.062C141.788 106.592 142.118 106.191 142.54 105.909C142.963 105.627 143.459 105.476 143.967 105.476C144.305 105.475 144.64 105.541 144.952 105.67C145.264 105.798 145.547 105.987 145.786 106.226C146.025 106.465 146.214 106.749 146.343 107.061C146.472 107.373 146.537 107.707 146.536 108.045Z" fill="#263238"/>
<path d="M209.832 138.11H152.754V169.589H209.832V138.11Z" fill="#455A64"/>
<path d="M198.828 169.589H209.832V177.548L198.828 169.589Z" fill="#455A64"/>
<path d="M185.578 143.92H159.699V144.627H185.578V143.92Z" fill="white"/>
<path d="M203.162 147.749H159.699V148.456H203.162V147.749Z" fill="white"/>
<path d="M203.162 151.578H159.699V152.285H203.162V151.578Z" fill="white"/>
<path d="M194.832 155.407H159.699V156.114H194.832V155.407Z" fill="white"/>
<path d="M203.162 159.236H159.699V159.943H203.162V159.236Z" fill="white"/>
<path d="M175.687 163.065H159.699V163.772H175.687V163.065Z" fill="white"/>
<path d="M228.927 181.041H172.234V204.393H228.927V181.041Z" fill="#FF880D"/>
<path d="M228.929 211.89V204.386H217.547L228.929 211.89Z" fill="#FF880D"/>
<path d="M222.116 186.851H179.129V187.558H222.116V186.851Z" fill="white"/>
<path d="M203.657 190.68H179.129V191.387H203.657V190.68Z" fill="white"/>
<path d="M212.281 194.509H179.129V195.216H212.281V194.509Z" fill="white"/>
<path d="M190.679 198.338H179.129V199.045H190.679V198.338Z" fill="white"/>
<path d="M188.293 295.092H182.602V298.809H188.293V295.092Z" fill="#EBEBEB"/>
<path d="M195.668 294.847H189.977V298.564H195.668V294.847Z" fill="#EBEBEB"/>
<path d="M203.054 294.602H197.363V298.319H203.054V294.602Z" fill="#EBEBEB"/>
<path d="M210.433 294.357H204.742V298.074H210.433V294.357Z" fill="#EBEBEB"/>
<path d="M217.816 294.112H212.125V297.829H217.816V294.112Z" fill="#EBEBEB"/>
<path d="M225.195 293.867H219.504V297.584H225.195V293.867Z" fill="#EBEBEB"/>
<path d="M232.574 293.622H226.883V297.339H232.574V293.622Z" fill="#EBEBEB"/>
<path d="M239.957 293.377H234.266V297.094H239.957V293.377Z" fill="#EBEBEB"/>
<path d="M247.336 293.132H241.645V296.849H247.336V293.132Z" fill="#EBEBEB"/>
<path d="M248.729 300.951H181.207V296.422L248.729 294.539V300.951Z" fill="#DBDBDB"/>
<path d="M299.088 285.292H205.008L219.967 215.25H314.047L299.088 285.292Z" fill="#EBEBEB"/>
<path d="M302.564 285.292H208.484L223.443 215.25H317.523L302.564 285.292Z" fill="#DBDBDB"/>
<path d="M268.97 250.144C271.522 247.785 271.958 244.105 269.943 241.924C267.928 239.744 264.225 239.888 261.673 242.247C259.12 244.606 258.684 248.286 260.699 250.466C262.714 252.647 266.417 252.502 268.97 250.144Z" fill="white"/>
<path d="M275.958 303.583H229.688V299.985L275.958 298.494V303.583Z" fill="#EBEBEB"/>
<path d="M288.539 303.576H263.696L248.73 264.327H273.573L288.539 303.576Z" fill="#EBEBEB"/>
<path d="M292.626 303.576H267.783L252.824 264.327H277.667L292.626 303.576Z" fill="#A6A6A6"/>
<path d="M174.998 304.535H127.321C123.254 304.535 129.141 292.943 144.002 288.498C158.863 284.053 179.716 300.188 174.998 304.535Z" fill="#DBDBDB"/>
<path d="M156.309 304.535C156.347 303.214 156.566 301.904 156.96 300.643C157.346 299.371 157.887 298.151 158.57 297.01C159.249 295.862 160.102 294.826 161.097 293.937C162.081 293.043 163.216 292.332 164.45 291.837C163.939 292.257 163.358 292.537 162.889 293.006L162.189 293.629L161.489 294.329C160.604 295.252 159.829 296.273 159.179 297.374C158.518 298.475 157.951 299.629 157.485 300.825C157.01 302.034 156.617 303.273 156.309 304.535Z" fill="#263238"/>
<path d="M161.965 293.503C163.377 293.959 164.753 294.52 166.081 295.183C167.417 295.843 168.699 296.606 169.917 297.465C171.152 298.319 172.27 299.33 173.242 300.475C173.719 301.062 174.132 301.698 174.474 302.372C174.801 303.048 174.99 303.784 175.027 304.535C174.859 303.823 174.57 303.146 174.173 302.533C173.787 301.921 173.339 301.351 172.836 300.832C171.816 299.798 170.703 298.861 169.511 298.032C168.328 297.178 167.075 296.415 165.822 295.659C165.192 295.281 164.555 294.917 163.904 294.567C163.253 294.217 162.616 293.86 161.965 293.503Z" fill="#263238"/>
<path opacity="0.6" d="M86.5197 281.127C86.5197 281.127 103.53 273.287 103.53 262.78C103.53 252.273 81.4657 245.511 81.4657 237.3C81.4657 229.089 91.0907 224.252 91.0907 224.252C91.0907 224.252 75.8867 229.446 75.8867 239.834C75.8867 250.222 90.4327 257.257 91.8257 263.872C93.7577 273.049 86.5197 281.127 86.5197 281.127Z" fill="#DBDBDB"/>
<path opacity="0.6" d="M87.3568 281.127C87.3568 281.127 70.3398 274.967 70.3398 266.707C70.3398 258.447 92.3968 253.127 92.3968 246.666C92.3968 240.205 82.7788 236.411 82.7788 236.411C82.7788 236.411 97.9968 240.492 97.9968 248.661C97.9968 256.83 81.2948 262.444 80.0978 269.08C78.9148 275.583 87.3568 281.127 87.3568 281.127Z" fill="#DBDBDB"/>
<path d="M94.7856 307.552H78.6016V310.079H94.7856V307.552Z" fill="#455A64"/>
<path d="M94.7856 307.552H78.6016V309.218H94.7856V307.552Z" fill="#263238"/>
<path d="M59.3936 300.755C60.3759 302.21 61.7564 303.352 63.3701 304.043C64.9838 304.734 66.7625 304.947 68.4936 304.654C69.0535 304.551 69.6021 304.394 70.1316 304.185C70.9369 303.87 71.7046 303.466 72.4206 302.981L70.3626 299.929C69.9833 300.202 69.5776 300.437 69.1516 300.629C65.2946 302.379 62.8516 299.334 62.3756 298.641C60.1986 295.519 59.3796 288.4 61.5986 285.656C61.7456 285.453 62.3966 285.131 65.0006 285.691C65.4836 285.796 66.0296 285.915 66.6456 286.09C67.1239 286.253 67.6196 286.358 68.1226 286.405L68.1926 284.578L68.3676 282.751C68.1996 282.751 67.9406 282.646 67.5976 282.548C66.3928 282.195 65.1615 281.94 63.9156 281.785C61.9976 281.582 59.9886 281.785 58.7566 283.332C55.1306 287.805 56.6146 296.849 59.3936 300.755Z" fill="#455A64"/>
<path d="M70.3751 299.929C69.9958 300.202 69.5901 300.437 69.1641 300.629L70.1441 304.192C70.9494 303.877 71.7171 303.473 72.4331 302.988L70.3751 299.929Z" fill="#263238"/>
<path d="M63.9453 281.785L65.0303 285.691C65.5133 285.796 66.0593 285.915 66.6753 286.09C67.1536 286.252 67.6493 286.358 68.1523 286.405L68.2223 284.578L68.3973 282.751C68.2293 282.751 67.9703 282.646 67.6273 282.548C66.4225 282.195 65.1912 281.94 63.9453 281.785Z" fill="#263238"/>
<path d="M108.225 277.011C108.225 277.011 106.279 293.503 102.926 300.454C99.573 307.405 94.897 308.154 91.985 308.154H81.401C78.496 308.154 73.813 307.377 70.46 300.454C67.107 293.531 65.168 277.011 65.168 277.011H108.225Z" fill="#455A64"/>
<path d="M72.197 281.722C72.197 282.1 72.0849 282.469 71.8749 282.784C71.665 283.098 71.3665 283.343 71.0173 283.487C70.6681 283.632 70.2839 283.67 69.9132 283.596C69.5425 283.522 69.202 283.34 68.9347 283.073C68.6675 282.806 68.4855 282.465 68.4117 282.095C68.338 281.724 68.3758 281.34 68.5205 280.991C68.6651 280.641 68.91 280.343 69.2243 280.133C69.5386 279.923 69.908 279.811 70.286 279.811C70.537 279.811 70.7855 279.86 71.0173 279.956C71.2492 280.052 71.4598 280.193 71.6373 280.371C71.8147 280.548 71.9555 280.759 72.0515 280.991C72.1476 281.222 72.197 281.471 72.197 281.722ZM87.156 279.412C86.778 279.412 86.4086 279.524 86.0943 279.734C85.78 279.944 85.5351 280.242 85.3905 280.592C85.2458 280.941 85.208 281.325 85.2817 281.696C85.3555 282.066 85.5375 282.407 85.8047 282.674C86.072 282.941 86.4125 283.123 86.7832 283.197C87.1539 283.271 87.5381 283.233 87.8873 283.088C88.2365 282.944 88.535 282.699 88.7449 282.385C88.9549 282.07 89.067 281.701 89.067 281.323C89.067 280.816 88.8657 280.33 88.5073 279.972C88.1489 279.613 87.6628 279.412 87.156 279.412ZM87.156 303.415C86.778 303.415 86.4086 303.527 86.0943 303.737C85.78 303.947 85.5351 304.245 85.3905 304.595C85.2458 304.944 85.208 305.328 85.2817 305.699C85.3555 306.069 85.5375 306.41 85.8047 306.677C86.072 306.944 86.4125 307.126 86.7832 307.2C87.1539 307.274 87.5381 307.236 87.8873 307.091C88.2365 306.947 88.535 306.702 88.7449 306.388C88.9549 306.073 89.067 305.704 89.067 305.326C89.067 304.819 88.8657 304.333 88.5073 303.975C88.1489 303.616 87.6628 303.415 87.156 303.415ZM101.016 292.6C100.638 292.6 100.269 292.712 99.9543 292.922C99.64 293.132 99.3951 293.43 99.2505 293.78C99.1058 294.129 99.068 294.513 99.1417 294.884C99.2155 295.254 99.3975 295.595 99.6647 295.862C99.932 296.129 100.272 296.311 100.643 296.385C101.014 296.459 101.398 296.421 101.747 296.276C102.096 296.132 102.395 295.887 102.605 295.573C102.815 295.258 102.927 294.889 102.927 294.511C102.927 294.004 102.726 293.518 102.367 293.16C102.009 292.801 101.523 292.6 101.016 292.6ZM79.799 298.235C79.421 298.235 79.0516 298.347 78.7373 298.557C78.423 298.767 78.1781 299.065 78.0335 299.415C77.8888 299.764 77.851 300.148 77.9247 300.519C77.9985 300.889 78.1805 301.23 78.4477 301.497C78.715 301.764 79.0555 301.946 79.4262 302.02C79.7969 302.094 80.1811 302.056 80.5303 301.911C80.8795 301.767 81.178 301.522 81.3879 301.208C81.5979 300.893 81.71 300.524 81.71 300.146C81.71 299.639 81.5087 299.153 81.1503 298.795C80.7919 298.436 80.3058 298.235 79.799 298.235ZM102.199 279.412C101.821 279.412 101.452 279.524 101.137 279.734C100.823 279.944 100.578 280.242 100.433 280.592C100.289 280.941 100.251 281.325 100.325 281.696C100.398 282.066 100.58 282.407 100.848 282.674C101.115 282.941 101.455 283.123 101.826 283.197C102.197 283.271 102.581 283.233 102.93 283.088C103.28 282.944 103.578 282.699 103.788 282.385C103.998 282.07 104.11 281.701 104.11 281.323C104.11 280.816 103.909 280.33 103.55 279.972C103.192 279.613 102.706 279.412 102.199 279.412ZM86.904 292.292C86.526 292.292 86.1566 292.404 85.8423 292.614C85.528 292.824 85.2831 293.122 85.1385 293.472C84.9938 293.821 84.956 294.205 85.0297 294.576C85.1035 294.946 85.2855 295.287 85.5527 295.554C85.82 295.821 86.1605 296.003 86.5312 296.077C86.9019 296.151 87.2861 296.113 87.6353 295.968C87.9845 295.824 88.283 295.579 88.4929 295.265C88.7029 294.95 88.815 294.581 88.815 294.203C88.815 293.7 88.6166 293.217 88.2627 292.859C87.9089 292.501 87.4282 292.297 86.925 292.292H86.904ZM72.414 292.593C72.036 292.593 71.6666 292.705 71.3523 292.915C71.038 293.125 70.7931 293.423 70.6485 293.773C70.5038 294.122 70.466 294.506 70.5397 294.877C70.6135 295.247 70.7955 295.588 71.0627 295.855C71.33 296.122 71.6705 296.304 72.0412 296.378C72.4119 296.452 72.7961 296.414 73.1453 296.269C73.4945 296.125 73.793 295.88 74.0029 295.566C74.2129 295.251 74.325 294.882 74.325 294.504C74.3232 294.002 74.1239 293.521 73.7703 293.164C73.4166 292.808 72.937 292.605 72.435 292.6L72.414 292.593ZM94.765 286.195C94.387 286.195 94.0176 286.307 93.7033 286.517C93.389 286.727 93.1441 287.025 92.9995 287.375C92.8548 287.724 92.817 288.108 92.8907 288.479C92.9645 288.849 93.1465 289.19 93.4137 289.457C93.681 289.724 94.0215 289.906 94.3922 289.98C94.7629 290.054 95.1471 290.016 95.4963 289.871C95.8455 289.727 96.144 289.482 96.3539 289.168C96.5639 288.853 96.676 288.484 96.676 288.106C96.676 287.603 96.4776 287.12 96.1237 286.762C95.7699 286.404 95.2892 286.2 94.786 286.195H94.765ZM94.247 298.55C93.8687 298.548 93.4986 298.659 93.1834 298.869C92.8682 299.078 92.6222 299.376 92.4765 299.725C92.3308 300.074 92.2919 300.458 92.3649 300.829C92.4378 301.201 92.6193 301.542 92.8862 301.81C93.1532 302.078 93.4937 302.26 93.8646 302.335C94.2355 302.409 94.6201 302.371 94.9697 302.227C95.3193 302.083 95.6182 301.838 95.8285 301.523C96.0387 301.209 96.151 300.839 96.151 300.461C96.1511 299.959 95.9536 299.477 95.6012 299.119C95.2489 298.762 94.77 298.557 94.268 298.55H94.247ZM78.847 286.195C78.4687 286.193 78.0986 286.304 77.7834 286.514C77.4682 286.723 77.2222 287.021 77.0765 287.37C76.9308 287.719 76.8919 288.103 76.9649 288.474C77.0378 288.846 77.2193 289.187 77.4862 289.455C77.7532 289.723 78.0937 289.905 78.4646 289.98C78.8355 290.054 79.2201 290.016 79.5697 289.872C79.9193 289.728 80.2182 289.483 80.4284 289.168C80.6387 288.854 80.751 288.484 80.751 288.106C80.7511 287.605 80.5546 287.124 80.2037 286.767C79.8529 286.409 79.3757 286.204 78.875 286.195H78.847Z" fill="#37474F"/>
</svg>
