<svg width="392" height="246" viewBox="0 0 392 246" fill="none" xmlns="http://www.w3.org/2000/svg">
<g clip-path="url(#clip0_660_2176)">
<rect width="390.667" height="246" transform="translate(0.667969)" fill="#FAAA19" fill-opacity="0.2"/>
<path d="M104.293 58.3663C109.738 47.9416 103.238 36.0729 89.776 31.8569C76.3137 27.6408 60.9865 32.6738 55.5419 43.0985C50.0973 53.5232 56.597 65.3919 70.0593 69.608C83.5217 73.8241 98.8488 68.791 104.293 58.3663Z" fill="#EBEBEB"/>
<path d="M94.1724 67.7721C106.004 62.1907 109.752 50.2391 102.544 41.0774C95.3365 31.9157 79.9023 29.0132 68.071 34.5946C56.2396 40.176 52.4914 52.1276 59.6992 61.2893C66.9069 70.451 82.3411 73.3535 94.1724 67.7721Z" fill="#DBDBDB"/>
<path d="M86.4886 68.8988C99.1251 66.6037 106.966 56.8106 104.002 47.0254C101.039 37.2402 88.392 31.1683 75.7555 33.4634C63.1189 35.7585 55.2777 45.5515 58.2416 55.3367C61.2054 65.1219 73.8521 71.1939 86.4886 68.8988Z" fill="white"/>
<path opacity="0.5" d="M104.085 47.3235C93.3833 52.3487 75.7943 60.6115 65.9585 65.0992C63.1814 63.2836 60.9843 60.9952 59.5391 58.4129L92.0573 35.0743C95.0945 36.3132 97.7449 38.0516 99.8226 40.1676C101.9 42.2836 103.355 44.726 104.085 47.3235Z" fill="#EBEBEB"/>
<path opacity="0.5" d="M104.601 51.8232C104.515 53.8483 103.988 55.8475 103.041 57.7364L73.7362 68.4695C72.4568 68.1541 71.2167 67.7498 70.0312 67.2615C78.8842 63.2751 95.0693 56.0694 104.601 51.8232Z" fill="#EBEBEB"/>
<path d="M81.343 34.3073H80.8906V37.0675H81.343V34.3073Z" fill="#C7C7C7"/>
<path d="M70.4152 36.4782L70.0234 36.6533L71.8057 39.0438L72.1975 38.8686L70.4152 36.4782Z" fill="#C7C7C7"/>
<path d="M62.3512 42.5865L62.125 42.8899L65.212 44.27L65.4382 43.9666L62.3512 42.5865Z" fill="#C7C7C7"/>
<path d="M62.8888 51.0138H59.3242V51.3641H62.8888V51.0138Z" fill="#C7C7C7"/>
<path d="M65.2081 58.0991L62.1211 59.4792L62.3473 59.7826L65.4343 58.4025L65.2081 58.0991Z" fill="#C7C7C7"/>
<path d="M71.8002 63.3269L70.0195 65.7181L70.4114 65.8931L72.1921 63.5019L71.8002 63.3269Z" fill="#C7C7C7"/>
<path d="M81.343 65.3105H80.8906V68.0708H81.343V65.3105Z" fill="#C7C7C7"/>
<path d="M90.4269 63.3289L90.0352 63.504L91.8175 65.8945L92.2092 65.7193L90.4269 63.3289Z" fill="#C7C7C7"/>
<path d="M97.3121 57.7869L97.0859 58.0917L100.187 59.4718L100.413 59.167L97.3121 57.7869Z" fill="#C7C7C7"/>
<path d="M102.916 51.0138H99.3516V51.3641H102.916V51.0138Z" fill="#C7C7C7"/>
<path d="M99.88 42.5909L96.793 43.9711L97.0192 44.2745L100.106 42.8943L99.88 42.5909Z" fill="#C7C7C7"/>
<path d="M91.8153 36.4771L90.0352 38.8685L90.4271 39.0435L92.2072 36.652L91.8153 36.4771Z" fill="#C7C7C7"/>
<path d="M81.4586 35.5574L82.2308 52.4151L80 52.397L80.8502 35.5514L81.4586 35.5574Z" fill="#C7C7C7"/>
<path d="M95.0139 45.3061L80.3733 52.5481L79.3047 51.032L94.7253 44.8954L95.0139 45.3061Z" fill="#A6A6A6"/>
<path d="M81.8803 51.189C81.8803 51.3084 81.8346 51.4252 81.7489 51.5245C81.6632 51.6239 81.5413 51.7013 81.3988 51.747C81.2563 51.7927 81.0994 51.8047 80.9481 51.7814C80.7968 51.758 80.6579 51.7005 80.5488 51.6161C80.4397 51.5316 80.3654 51.424 80.3353 51.3068C80.3052 51.1896 80.3207 51.0682 80.3797 50.9578C80.4387 50.8475 80.5387 50.7531 80.667 50.6868C80.7952 50.6204 80.946 50.585 81.1003 50.585C81.3072 50.585 81.5056 50.6486 81.6519 50.7619C81.7981 50.8751 81.8803 51.0288 81.8803 51.189Z" fill="#C7C7C7"/>
<path d="M279.469 67.6601V34.73H223.207V67.6601H279.469Z" fill="#EBEBEB"/>
<path d="M275.008 64.0904V38.2936H227.67V64.0904H275.008Z" fill="white"/>
<path d="M266.887 59.6631V42.7209H235.796V59.6631H266.887Z" fill="#EBEBEB"/>
<path d="M280.748 34.724H279.469V67.6541H280.748V34.724Z" fill="#DBDBDB"/>
<path d="M228.947 38.2936H227.668V64.0904H228.947V38.2936Z" fill="#DBDBDB"/>
<path d="M268.019 57.7484C268.019 58.3457 267.79 58.9296 267.361 59.4262C266.933 59.9228 266.324 60.3099 265.611 60.5385C264.899 60.7671 264.114 60.8269 263.358 60.7104C262.601 60.5938 261.906 60.3062 261.361 59.8839C260.816 59.4615 260.444 58.9234 260.294 58.3376C260.143 57.7517 260.22 57.1445 260.516 56.5927C260.811 56.0409 261.311 55.5692 261.952 55.2374C262.593 54.9055 263.347 54.7284 264.119 54.7284C265.153 54.7284 266.145 55.0466 266.876 55.6129C267.608 56.1793 268.019 56.9474 268.019 57.7484Z" fill="#C7C7C7"/>
<path d="M347.867 95.6072V62.6771H291.606V95.6072H347.867Z" fill="#EBEBEB"/>
<path d="M343.406 92.0376V66.2407H296.068V92.0376H343.406Z" fill="white"/>
<path d="M349.146 62.6771H347.867V95.6072H349.146V62.6771Z" fill="#DBDBDB"/>
<path d="M297.346 66.2407H296.066V92.0376H297.346V66.2407Z" fill="#DBDBDB"/>
<path d="M335.277 70.5412V70.058H304.187V70.5412H335.277Z" fill="#EBEBEB"/>
<path d="M335.285 81.1353V80.6521H304.194V81.1353H335.285Z" fill="#EBEBEB"/>
<path d="M329.148 72.0693V71.5861H310.327V72.0693H329.148Z" fill="#EBEBEB"/>
<path d="M329.148 85.2969V84.8137H310.327V85.2969H329.148Z" fill="#EBEBEB"/>
<path d="M327.262 86.6257V86.1425H312.208V86.6257H327.262Z" fill="#EBEBEB"/>
<path d="M337.102 85.5687C337.102 86.0931 336.901 86.6058 336.525 87.0418C336.149 87.4778 335.614 87.8177 334.988 88.0184C334.363 88.2191 333.674 88.2716 333.01 88.1693C332.346 88.067 331.736 87.8144 331.257 87.4436C330.778 87.0728 330.452 86.6003 330.32 86.086C330.188 85.5716 330.255 85.0385 330.515 84.554C330.774 84.0695 331.213 83.6553 331.776 83.364C332.339 83.0726 333.001 82.9171 333.678 82.9171C334.586 82.9171 335.457 83.1965 336.099 83.6937C336.742 84.191 337.102 84.8654 337.102 85.5687Z" fill="#C7C7C7"/>
<path d="M334.235 75.1316H305.25V77.8919H334.235V75.1316Z" fill="#EBEBEB"/>
<path d="M196.287 182.897L194.469 191.323L182.177 242.742H180.188L189.134 191.323L190.452 182.897H196.287Z" fill="#DBDBDB"/>
<path d="M190.455 182.897H196.289L194.472 191.323H189.137L190.455 182.897Z" fill="#C7C7C7"/>
<path d="M234.896 242.742H232.915L220.614 191.323L218.805 182.897H224.631L225.949 191.323L234.896 242.742Z" fill="#DBDBDB"/>
<path d="M224.631 182.897L225.949 191.323H220.614L218.805 182.897H224.631Z" fill="#C7C7C7"/>
<path d="M271.775 242.742H269.794L257.501 191.323L255.684 182.897H261.51L262.836 191.323L271.775 242.742Z" fill="#DBDBDB"/>
<path d="M262.836 191.323H257.501L255.684 182.897H261.51L262.836 191.323Z" fill="#C7C7C7"/>
<path d="M268.633 186.859H178.535V181.2L212.262 179.503L223.596 128.875H265.193L268.633 186.859Z" fill="#DBDBDB"/>
<path d="M268.632 186.859H263.718L260.52 128.875H265.192L268.632 186.859Z" fill="#C7C7C7"/>
<path d="M337.236 157.378H277.277V242.681H337.236V157.378Z" fill="#455A64"/>
<path d="M337.236 157.378H277.277V162.941H337.236V157.378Z" fill="#263238"/>
<path d="M362.984 152.897H143.523V157.384H362.984V152.897Z" fill="#455A64"/>
<path d="M156.316 157.378L156.121 162.941L153.594 242.681H149.016V157.378H156.316Z" fill="#455A64"/>
<path d="M149.016 157.378H156.316L156.121 162.941H149.016V157.378Z" fill="#263238"/>
<path d="M357.557 157.378H337.238V242.681H357.557V157.378Z" fill="#37474F"/>
<path d="M357.557 157.378H337.238V162.941H357.557V157.378Z" fill="#263238"/>
<path d="M289.686 145.328H240.164V152.897H289.686V145.328Z" fill="#FF880D"/>
<path d="M248.082 145.328H243.246V152.897H248.082V145.328Z" fill="#37474F"/>
<path d="M251.895 145.328H249.875V152.897H251.895V145.328Z" fill="#37474F"/>
<path d="M283.852 145.328H279.016V152.897H283.852V145.328Z" fill="#37474F"/>
<path d="M271.636 139.681H237.285V145.328H271.636V139.681Z" fill="#455A64"/>
<path d="M286.457 139.681H271.637V145.328H286.457V139.681Z" fill="#455A64"/>
<path d="M271.636 140.267H237.285V144.743H271.636V140.267Z" fill="white"/>
<path d="M239.508 141.191C242.183 141.131 244.859 141.094 247.534 141.07L255.568 141.04L263.602 141.07C266.277 141.07 268.953 141.131 271.636 141.191C268.953 141.243 266.275 141.282 263.602 141.306L255.568 141.342L247.534 141.306C244.856 141.282 242.181 141.243 239.508 141.191Z" fill="#DBDBDB"/>
<path d="M239.508 142.067C242.183 142.013 244.859 141.97 247.534 141.952L255.568 141.916L263.602 141.952C266.277 141.952 268.953 142.013 271.636 142.067C268.953 142.121 266.277 142.164 263.602 142.182L255.568 142.218L247.534 142.182C244.859 142.164 242.183 142.121 239.508 142.067Z" fill="#DBDBDB"/>
<path d="M239.508 142.943C242.183 142.888 244.859 142.846 247.534 142.828L255.568 142.792L263.602 142.828C266.277 142.828 268.953 142.888 271.636 142.943C268.953 142.997 266.277 143.039 263.602 143.057L255.568 143.094L247.534 143.057C244.859 143.039 242.183 142.997 239.508 142.943Z" fill="#DBDBDB"/>
<path d="M239.508 143.825C242.183 143.764 244.859 143.728 247.534 143.704H255.568H263.602C266.277 143.704 268.953 143.764 271.636 143.825C268.953 143.877 266.275 143.915 263.602 143.939L255.568 143.969L247.534 143.939C244.856 143.915 242.181 143.877 239.508 143.825Z" fill="#DBDBDB"/>
<path d="M279.359 133.496H244.984V139.681H279.359V133.496Z" fill="#37474F"/>
<path d="M275.725 133.496H272.52V139.681H275.725V133.496Z" fill="#FF880D"/>
<path d="M270.412 133.496H269.172V139.681H270.412V133.496Z" fill="#FF880D"/>
<path d="M117.875 233.446H71.6055V236.738H117.875V233.446Z" fill="#FF880D"/>
<path opacity="0.1" d="M117.875 233.446H71.6055V236.738H117.875V233.446Z" fill="black"/>
<path d="M114.382 137.766H75.0938V233.446H114.382V137.766Z" fill="#FF880D"/>
<path d="M114.382 137.766H75.0938V233.452H114.382V137.766Z" fill="#FF880D"/>
<path opacity="0.1" d="M79.163 230.788C78.9913 230.788 78.8267 230.736 78.7052 230.642C78.5838 230.548 78.5156 230.42 78.5156 230.287V143.432C78.5156 143.299 78.5838 143.171 78.7052 143.077C78.8267 142.983 78.9913 142.931 79.163 142.931C79.3347 142.931 79.4994 142.983 79.6208 143.077C79.7422 143.171 79.8104 143.299 79.8104 143.432V230.287C79.8104 230.353 79.7937 230.418 79.7611 230.479C79.7286 230.54 79.6809 230.595 79.6208 230.642C79.5607 230.688 79.4893 230.725 79.4108 230.75C79.3322 230.775 79.248 230.788 79.163 230.788Z" fill="black"/>
<path opacity="0.1" d="M82.6279 230.788C82.4562 230.788 82.2915 230.736 82.1701 230.642C82.0487 230.548 81.9805 230.42 81.9805 230.287V143.432C81.9805 143.299 82.0487 143.171 82.1701 143.077C82.2915 142.983 82.4562 142.931 82.6279 142.931C82.7996 142.931 82.9642 142.983 83.0857 143.077C83.2071 143.171 83.2753 143.299 83.2753 143.432V230.287C83.2753 230.353 83.2585 230.418 83.226 230.479C83.1935 230.54 83.1458 230.595 83.0857 230.642C83.0255 230.688 82.9542 230.725 82.8756 230.75C82.7971 230.775 82.7129 230.788 82.6279 230.788Z" fill="black"/>
<path opacity="0.1" d="M86.0888 230.788C85.9164 230.788 85.7509 230.736 85.6282 230.642C85.5056 230.548 85.4356 230.421 85.4336 230.287V143.432C85.4356 143.298 85.5056 143.171 85.6282 143.077C85.7509 142.983 85.9164 142.931 86.0888 142.931C86.2605 142.931 86.4252 142.983 86.5466 143.077C86.668 143.171 86.7362 143.299 86.7362 143.432V230.287C86.7362 230.353 86.7194 230.418 86.6869 230.479C86.6544 230.54 86.6067 230.595 86.5466 230.642C86.4865 230.688 86.4151 230.725 86.3365 230.75C86.258 230.775 86.1738 230.788 86.0888 230.788Z" fill="black"/>
<path opacity="0.1" d="M89.5458 230.788C89.3741 230.788 89.2095 230.736 89.0881 230.642C88.9666 230.548 88.8984 230.42 88.8984 230.287V143.432C88.8984 143.299 88.9666 143.171 89.0881 143.077C89.2095 142.983 89.3741 142.931 89.5458 142.931C89.7183 142.931 89.8837 142.983 90.0064 143.077C90.129 143.171 90.199 143.298 90.201 143.432V230.287C90.199 230.421 90.129 230.548 90.0064 230.642C89.8837 230.736 89.7183 230.788 89.5458 230.788Z" fill="black"/>
<path opacity="0.1" d="M93.0419 230.788C92.8702 230.788 92.7056 230.736 92.5842 230.642C92.4627 230.548 92.3945 230.42 92.3945 230.287V143.432C92.3945 143.299 92.4627 143.171 92.5842 143.077C92.7056 142.983 92.8702 142.931 93.0419 142.931C93.2136 142.931 93.3783 142.983 93.4997 143.077C93.6211 143.171 93.6893 143.299 93.6893 143.432V230.287C93.6893 230.353 93.6726 230.418 93.6401 230.479C93.6075 230.54 93.5598 230.595 93.4997 230.642C93.4396 230.688 93.3682 230.725 93.2897 230.75C93.2111 230.775 93.127 230.788 93.0419 230.788Z" fill="black"/>
<path opacity="0.1" d="M96.4716 230.788C96.2992 230.788 96.1337 230.736 96.011 230.642C95.8884 230.548 95.8185 230.421 95.8164 230.287V143.432C95.8185 143.298 95.8884 143.171 96.011 143.077C96.1337 142.983 96.2992 142.931 96.4716 142.931C96.6433 142.931 96.808 142.983 96.9294 143.077C97.0508 143.171 97.119 143.299 97.119 143.432V230.287C97.119 230.353 97.1023 230.418 97.0697 230.479C97.0372 230.54 96.9895 230.595 96.9294 230.642C96.8693 230.688 96.7979 230.725 96.7194 230.75C96.6408 230.775 96.5566 230.788 96.4716 230.788Z" fill="black"/>
<path opacity="0.1" d="M99.9287 230.788C99.757 230.788 99.5923 230.736 99.4709 230.642C99.3495 230.548 99.2813 230.42 99.2812 230.287V143.432C99.2812 143.299 99.3495 143.171 99.4709 143.077C99.5923 142.983 99.757 142.931 99.9287 142.931C100.101 142.931 100.267 142.983 100.389 143.077C100.512 143.171 100.582 143.298 100.584 143.432V230.287C100.582 230.421 100.512 230.548 100.389 230.642C100.267 230.736 100.101 230.788 99.9287 230.788Z" fill="black"/>
<path opacity="0.1" d="M103.39 230.788C103.218 230.788 103.053 230.736 102.932 230.642C102.81 230.548 102.742 230.42 102.742 230.287V143.432C102.742 143.299 102.81 143.171 102.932 143.077C103.053 142.983 103.218 142.931 103.39 142.931C103.561 142.931 103.726 142.983 103.847 143.077C103.969 143.171 104.037 143.299 104.037 143.432V230.287C104.037 230.353 104.02 230.418 103.988 230.479C103.955 230.54 103.907 230.595 103.847 230.642C103.787 230.688 103.716 230.725 103.637 230.75C103.559 230.775 103.475 230.788 103.39 230.788Z" fill="black"/>
<path opacity="0.1" d="M106.854 230.788C106.682 230.788 106.517 230.736 106.394 230.642C106.271 230.548 106.201 230.421 106.199 230.287V143.432C106.201 143.298 106.271 143.171 106.394 143.077C106.517 142.983 106.682 142.931 106.854 142.931C107.026 142.931 107.191 142.983 107.312 143.077C107.434 143.171 107.502 143.299 107.502 143.432V230.287C107.502 230.353 107.485 230.418 107.453 230.479C107.42 230.54 107.372 230.595 107.312 230.642C107.252 230.688 107.181 230.725 107.102 230.75C107.024 230.775 106.939 230.788 106.854 230.788Z" fill="black"/>
<path opacity="0.1" d="M110.311 230.788C110.14 230.788 109.975 230.736 109.854 230.642C109.732 230.548 109.664 230.42 109.664 230.287V143.432C109.664 143.299 109.732 143.171 109.854 143.077C109.975 142.983 110.14 142.931 110.311 142.931C110.484 142.931 110.649 142.983 110.772 143.077C110.895 143.171 110.965 143.298 110.967 143.432V230.287C110.965 230.421 110.895 230.548 110.772 230.642C110.649 230.736 110.484 230.788 110.311 230.788Z" fill="black"/>
<path opacity="0.1" d="M114.382 137.766V141.729L75.0938 140.829V137.766H114.382Z" fill="black"/>
<path d="M120.667 236.744H68.8125V242.687H120.667V236.744Z" fill="#FF880D"/>
<path d="M124.974 138.183C124.974 141.372 122.025 144.145 117.01 144.145C109.584 144.145 109.21 138.213 109.21 138.213H80.3497C80.3497 138.213 79.9441 144.145 72.5497 144.145C67.5265 144.145 64.5859 141.372 64.5859 138.183C64.5859 135.368 67.1677 131.382 74.7259 131.382H114.88C122.4 131.382 124.974 135.368 124.974 138.183Z" fill="#FF880D"/>
<path opacity="0.1" d="M80.295 138.213C80.2408 137.662 80.0358 137.126 79.6937 136.641C79.3515 136.156 78.88 135.733 78.3105 135.4C77.741 135.067 77.0864 134.832 76.3904 134.71C75.6944 134.588 74.9727 134.582 74.2734 134.692C70.9194 135.205 68.9928 138.171 70.7478 140.037C72.0816 141.463 74.5464 140.968 74.9676 139.705C75.5526 137.966 73.2984 137.096 74.1174 136.081C74.9364 135.066 77.097 135.199 78.3996 135.906C79.3241 136.505 79.9862 137.311 80.295 138.213Z" fill="black"/>
<path opacity="0.1" d="M109.18 138.213C109.235 137.662 109.441 137.126 109.784 136.641C110.127 136.156 110.599 135.733 111.169 135.4C111.739 135.067 112.394 134.832 113.091 134.71C113.787 134.588 114.509 134.582 115.209 134.692C118.563 135.205 120.482 138.171 118.735 140.037C117.401 141.463 114.936 140.968 114.515 139.705C113.93 137.966 116.176 137.096 115.365 136.081C114.554 135.067 112.385 135.199 111.083 135.906C110.158 136.506 109.493 137.311 109.18 138.213Z" fill="black"/>
<path d="M27.0508 242.681L69.2878 242.536L111.525 242.482L195.999 242.385L280.473 242.482L322.71 242.536L364.947 242.681L322.71 242.832L280.473 242.887L195.999 242.983L111.525 242.887L69.2878 242.832L27.0508 242.681Z" fill="#263238"/>
<path d="M76.7059 101.72C76.7059 104.389 72.6031 106.854 67.8295 106.854C63.0559 106.854 58.9453 104.438 58.9453 101.72H76.7059Z" fill="#455A64"/>
<path d="M75.012 101.092C73.7016 98.7118 72.4458 96.3139 71.1978 93.916C70.566 92.708 69.9732 91.5 69.357 90.292L67.5318 86.668H68.0778L66.2448 90.292C65.6364 91.5 65.0436 92.708 64.404 93.916C63.156 96.332 61.908 98.7118 60.5898 101.092C61.6818 98.6453 62.8284 96.2172 63.9828 93.7892C64.5522 92.5812 65.1606 91.3732 65.7534 90.1652L67.5318 86.5412L67.8048 85.9855L68.0778 86.5412L69.8562 90.1652C70.4412 91.3732 71.0496 92.5812 71.619 93.7892C72.7578 96.2172 73.9278 98.6453 75.012 101.092Z" fill="#263238"/>
<path d="M77.2043 100.79H58.4375V101.72H77.2043V100.79Z" fill="#FF880D"/>
<path d="M130.534 110.121C130.534 112.791 126.439 115.249 121.658 115.249C116.876 115.249 112.773 112.863 112.773 110.121H130.534Z" fill="#455A64"/>
<path d="M128.848 109.493C127.53 107.113 126.274 104.716 125.034 102.312C124.394 101.104 123.801 99.8956 123.185 98.6876L121.36 95.0636H121.906L120.081 98.6876C119.465 99.8956 118.872 101.104 118.24 102.312C116.992 104.728 115.736 107.144 114.418 109.493C115.51 107.047 116.657 104.613 117.819 102.191C118.388 100.983 118.997 99.7748 119.582 98.5668L121.36 94.9428L121.633 94.3811L121.906 94.9428L123.684 98.5668C124.269 99.7748 124.878 100.983 125.447 102.191C126.578 104.613 127.756 107.047 128.848 109.493Z" fill="#263238"/>
<path d="M131.04 109.191H112.273V110.121H131.04V109.191Z" fill="#FF880D"/>
<path d="M121.299 95.275C119.809 95.1361 118.959 94.3871 117.399 93.7107C115.059 92.7261 105.847 91.0651 101.799 90.6907C100.185 90.5336 96.5888 91.1195 94.2098 90.7511C91.8308 90.3826 88.8044 88.77 87.2366 88.4317C83.2898 87.568 73.9766 86.36 71.309 86.5654C69.476 86.7043 68.345 87.1693 66.9098 86.8311C64.5698 86.3237 64.9754 83.6903 67.9784 84.1554C70.9814 84.6205 71.7301 85.2124 75.7004 85.7741C77.4164 86.0157 87.8216 86.6801 90.7076 87.1271C92.1536 87.3143 93.5617 87.6473 94.8962 88.1176C96.3572 88.0827 97.8179 88.1964 99.2408 88.4559C102.135 88.9028 112.056 91.3973 113.772 91.6812C117.672 92.3456 118.702 92.0255 121.705 92.4966C124.708 92.9677 123.702 95.5046 121.299 95.275Z" fill="#455A64"/>
<path d="M113.435 126.345H75.543V131.388H113.435V126.345Z" fill="#455A64"/>
<path d="M111.477 125.1H77.5078V126.339H111.477V125.1Z" fill="#37474F"/>
<path d="M96.8299 125.107H92.1499C91.4471 122.38 91.1851 119.596 91.3699 116.82C91.5961 111.686 93.5617 89.5431 93.5617 89.5431H95.3791C95.3791 89.5431 97.3447 111.686 97.5709 116.82C97.7655 119.595 97.5167 122.378 96.8299 125.107Z" fill="#455A64"/>
<path d="M95.9563 86.1787C95.9563 88.0451 95.3479 88.5524 95.3479 88.5524H93.6319C93.6319 88.5524 93.0312 88.0451 93.0312 86.1787C93.0312 84.3123 94.1623 78.4354 94.1623 78.4354H94.8096C94.8096 78.4354 95.9563 84.3184 95.9563 86.1787Z" fill="#455A64"/>
<path d="M96.735 89.3014C96.735 89.6455 96.6032 89.9818 96.3564 90.2678C96.1096 90.5539 95.7587 90.7769 95.3482 90.9085C94.9378 91.0402 94.4861 91.0746 94.0503 91.0075C93.6146 90.9404 93.2143 90.7747 92.9001 90.5314C92.586 90.2882 92.372 89.9782 92.2854 89.6408C92.1987 89.3033 92.2432 88.9536 92.4132 88.6357C92.5832 88.3179 92.8711 88.0462 93.2406 87.8551C93.61 87.6639 94.0443 87.5619 94.4886 87.5619C95.0844 87.5619 95.6558 87.7452 96.077 88.0714C96.4983 88.3976 96.735 88.8401 96.735 89.3014Z" fill="#37474F"/>
<path d="M94.4893 79.8247C95.4801 79.8247 96.2833 79.2027 96.2833 78.4355C96.2833 77.6682 95.4801 77.0463 94.4893 77.0463C93.4985 77.0463 92.6953 77.6682 92.6953 78.4355C92.6953 79.2027 93.4985 79.8247 94.4893 79.8247Z" fill="#37474F"/>
<path d="M328.234 112.121C319.545 118.71 318.094 128.906 319.912 137.839C319.966 138.038 320.364 137.984 320.364 137.797C320.364 135.761 320.286 133.744 320.294 131.757C320.341 131.666 320.38 131.575 320.434 131.485C322.776 130.292 324.713 128.68 326.081 126.786C327.532 124.575 328.102 122.081 329.201 119.773C329.311 119.55 329.006 119.616 328.804 119.731C323.515 122.751 321.83 126 320.309 130.343C320.342 128.071 320.65 125.806 321.23 123.578C322.376 119.459 324.638 115.376 328.46 112.314C328.477 112.302 328.49 112.288 328.5 112.273C328.509 112.257 328.514 112.241 328.516 112.224C328.517 112.207 328.513 112.189 328.506 112.173C328.498 112.157 328.487 112.142 328.472 112.13C328.457 112.117 328.439 112.107 328.419 112.099C328.399 112.092 328.378 112.088 328.356 112.087C328.334 112.086 328.311 112.089 328.291 112.094C328.27 112.1 328.251 112.109 328.234 112.121Z" fill="#263238"/>
<path d="M329.875 112.888C331.365 112.924 332.308 114.778 333.471 115.304C333.593 115.381 333.735 115.438 333.887 115.47C334.039 115.502 334.199 115.509 334.355 115.49C334.511 115.471 334.66 115.427 334.793 115.361C334.925 115.294 335.038 115.207 335.124 115.104C336.279 113.854 334.695 112.314 333.205 111.48C334.266 111.819 335.155 112.417 336.325 112.586C336.472 112.622 336.628 112.633 336.781 112.619C336.934 112.605 337.082 112.566 337.214 112.505C337.347 112.443 337.46 112.36 337.548 112.261C337.635 112.163 337.694 112.051 337.722 111.933C338.229 110.23 335.475 109.475 333.58 109.439C334.5 108.944 337.129 107.627 335.733 106.944C334.336 106.262 331.232 108.201 330.226 108.835C328.744 109.759 326.981 111.148 326.919 112.604C326.809 114.289 328.72 113.244 329.875 112.888Z" fill="#FF880D"/>
<path opacity="0.1" d="M329.875 112.888C331.365 112.924 332.308 114.778 333.471 115.304C333.593 115.381 333.735 115.438 333.887 115.47C334.039 115.502 334.199 115.509 334.355 115.49C334.511 115.471 334.66 115.427 334.793 115.361C334.925 115.294 335.038 115.207 335.124 115.104C336.279 113.854 334.695 112.314 333.205 111.48C334.266 111.819 335.155 112.417 336.325 112.586C336.472 112.622 336.628 112.633 336.781 112.619C336.934 112.605 337.082 112.566 337.214 112.505C337.347 112.443 337.46 112.36 337.548 112.261C337.635 112.163 337.694 112.051 337.722 111.933C338.229 110.23 335.475 109.475 333.58 109.439C334.5 108.944 337.129 107.627 335.733 106.944C334.336 106.262 331.232 108.201 330.226 108.835C328.744 109.759 326.981 111.148 326.919 112.604C326.809 114.289 328.72 113.244 329.875 112.888Z" fill="black"/>
<path d="M329.435 113.172C331.346 112.501 335.02 113.467 335.332 112.906C335.971 111.764 333.031 110.985 331.432 110.834C332.89 110.526 335.691 110.037 335.605 108.95C335.496 107.621 331.315 108.762 329.193 110.019C326.526 111.607 326.549 113.135 326.986 113.437C327.61 113.86 329.123 113.286 329.435 113.172Z" fill="#FF880D"/>
<path d="M308.439 111.468C317.448 117.798 319.405 127.939 318.017 136.921C317.978 137.126 317.572 137.084 317.565 136.891C317.463 134.861 317.44 132.844 317.338 130.851C317.284 130.76 317.237 130.675 317.19 130.585C314.792 129.461 312.777 127.908 311.317 126.055C309.757 123.886 309.063 121.41 307.838 119.139C307.721 118.916 308.033 118.976 308.236 119.085C313.696 121.942 315.513 125.125 317.245 129.437C317.1 127.169 316.68 124.916 315.989 122.709C314.647 118.62 312.19 114.609 308.189 111.661C308.072 111.541 308.322 111.353 308.439 111.468Z" fill="#263238"/>
<path d="M306.84 112.284C305.35 112.362 304.5 114.241 303.369 114.814C303.251 114.896 303.112 114.958 302.961 114.995C302.811 115.032 302.651 115.043 302.494 115.029C302.337 115.015 302.186 114.975 302.05 114.912C301.914 114.849 301.798 114.764 301.707 114.663C300.491 113.455 301.996 111.867 303.447 110.961C302.402 111.329 301.544 111.951 300.405 112.169C300.26 112.211 300.106 112.228 299.952 112.219C299.798 112.211 299.648 112.176 299.513 112.119C299.378 112.062 299.26 111.983 299.167 111.887C299.075 111.791 299.01 111.682 298.977 111.565C298.385 109.88 301.099 109.046 302.987 108.95C302.051 108.484 299.36 107.222 300.717 106.534C302.074 105.845 305.28 107.657 306.317 108.261C307.838 109.143 309.663 110.478 309.804 111.927C309.975 113.588 308.01 112.604 306.84 112.284Z" fill="#FF880D"/>
<path opacity="0.1" d="M306.84 112.284C305.35 112.362 304.5 114.241 303.369 114.814C303.251 114.896 303.112 114.958 302.961 114.995C302.811 115.032 302.651 115.043 302.494 115.029C302.337 115.015 302.186 114.975 302.05 114.912C301.914 114.849 301.798 114.764 301.707 114.663C300.491 113.455 301.996 111.867 303.447 110.961C302.402 111.329 301.544 111.951 300.405 112.169C300.26 112.211 300.106 112.228 299.952 112.219C299.798 112.211 299.648 112.176 299.513 112.119C299.378 112.062 299.26 111.983 299.167 111.887C299.075 111.791 299.01 111.682 298.977 111.565C298.385 109.88 301.099 109.046 302.987 108.95C302.051 108.484 299.36 107.222 300.717 106.534C302.074 105.845 305.28 107.657 306.317 108.261C307.838 109.143 309.663 110.478 309.804 111.927C309.975 113.588 308.01 112.604 306.84 112.284Z" fill="black"/>
<path d="M307.291 112.555C305.341 111.951 301.722 113.014 301.378 112.465C300.692 111.341 303.586 110.472 305.161 110.278C303.687 110.013 300.871 109.608 300.903 108.515C300.942 107.186 305.177 108.207 307.361 109.397C310.099 110.9 310.161 112.417 309.701 112.749C309.147 113.184 307.611 112.658 307.291 112.555Z" fill="#FF880D"/>
<path d="M317.68 128.181C318.292 131.568 319.228 134.915 320.481 138.195C320.498 138.26 320.548 138.317 320.62 138.353C320.692 138.389 320.779 138.402 320.863 138.388C320.947 138.375 321.02 138.336 321.067 138.281C321.114 138.225 321.13 138.157 321.112 138.093C320.52 135.012 319.443 131.98 318.85 128.9C318.202 125.779 317.97 122.616 318.156 119.459C318.538 114.259 320.356 108.732 324.739 104.667C324.833 104.571 324.63 104.432 324.529 104.522C315.762 112.441 317.158 122.147 317.166 123.017C315.925 119.737 314.646 115.98 309.951 112.64C309.748 112.501 309.584 112.567 309.623 112.809C310.458 118.891 312.642 122.062 317.197 125.312C317.29 126.278 317.454 127.239 317.68 128.181Z" fill="#263238"/>
<path d="M324.79 105.573C326.35 105.03 328.541 106.588 330.101 106.697C330.277 106.725 330.459 106.725 330.635 106.697C330.811 106.669 330.977 106.613 331.124 106.532C331.27 106.451 331.394 106.348 331.486 106.229C331.579 106.11 331.638 105.977 331.661 105.839C332.051 104.093 329.399 103.115 327.293 102.819C328.619 102.759 329.93 103.03 331.193 102.759C331.368 102.739 331.536 102.692 331.685 102.618C331.835 102.545 331.962 102.448 332.059 102.334C332.157 102.22 332.222 102.091 332.25 101.956C332.278 101.821 332.269 101.683 332.223 101.551C331.638 99.5876 328.284 99.8775 326.303 100.578C326.935 99.7084 328.783 97.2924 326.911 97.1534C325.039 97.0145 323.058 100.21 322.426 101.255C321.498 102.795 320.57 104.927 321.443 106.455C322.52 108.219 323.822 106.395 324.79 105.573Z" fill="#FF880D"/>
<path opacity="0.1" d="M324.79 105.573C326.35 105.03 328.541 106.588 330.101 106.697C330.277 106.725 330.459 106.725 330.635 106.697C330.811 106.669 330.977 106.613 331.124 106.532C331.27 106.451 331.394 106.348 331.486 106.229C331.579 106.11 331.638 105.977 331.661 105.839C332.051 104.093 329.399 103.115 327.293 102.819C328.619 102.759 329.93 103.03 331.193 102.759C331.368 102.739 331.536 102.692 331.685 102.618C331.835 102.545 331.962 102.448 332.059 102.334C332.157 102.22 332.222 102.091 332.25 101.956C332.278 101.821 332.269 101.683 332.223 101.551C331.638 99.5876 328.284 99.8775 326.303 100.578C326.935 99.7084 328.783 97.2924 326.911 97.1534C325.039 97.0145 323.058 100.21 322.426 101.255C321.498 102.795 320.57 104.927 321.443 106.455C322.52 108.219 323.822 106.395 324.79 105.573Z" fill="black"/>
<path d="M324.521 106.038C326.081 104.595 330.511 104.172 330.472 103.465C330.387 102.034 326.83 102.366 325.09 102.831C326.401 101.943 328.99 100.349 328.21 99.2493C327.235 97.9084 323.64 100.729 322.259 102.873C320.527 105.561 321.534 107.138 322.189 107.282C323.07 107.464 324.264 106.304 324.521 106.038Z" fill="#FF880D"/>
<path d="M311.888 130.011L307.988 152.897H331.521C331.037 150.867 326.654 129.987 326.654 129.987L311.888 130.011Z" fill="#FF880D"/>
<path d="M142.82 268.617C144.786 269.106 200.93 268.544 203.044 267.469C203.863 267.071 204.23 260.735 204.394 253.064C204.394 252.985 204.331 224.73 204.331 224.73L167.726 225.02L168.194 253.348C168.194 253.348 146.861 261.006 144.661 262.378C142.462 263.749 140.847 268.128 142.82 268.617Z" fill="#D3766A"/>
<path d="M215.851 99.5029C215.851 99.5029 206.367 173.511 204.994 179.116C204.674 180.397 205.532 186.787 205.399 195.714C205.111 215.187 204.448 250.31 204.448 250.31H168.045C168.045 250.31 166.883 189.457 168.638 178.258C170.393 167.06 181.586 99.5029 181.586 99.5029H215.851Z" fill="#D3766A"/>
<path d="M205.407 195.696C205.337 200.292 205.243 205.759 205.15 211.4L181.594 99.4607H215.851C215.851 99.4607 206.367 173.469 204.994 179.074C204.674 180.391 205.532 186.787 205.407 195.696Z" fill="#263238"/>
<path d="M188.769 271.196C190.781 271.576 246.73 267.934 248.743 266.751C249.523 266.31 249.312 259.962 248.743 252.303C248.743 252.224 244.843 224.126 244.843 224.126L208.861 226.385L212.644 254.574C212.644 254.574 192.029 263.386 190.024 264.872C188.02 266.358 186.764 270.827 188.769 271.196Z" fill="#D3766A"/>
<path d="M212.232 251.427L248.362 249.319C248.362 249.319 239.002 184.087 238.775 179.956C238.479 173.819 235.46 147.877 232.262 127.359C232.262 127.359 235.757 112.567 226.99 99.4788H181.555C181.555 99.4788 184.597 115.442 189.815 125.566C193.329 126.513 196.723 127.707 199.955 129.135C199.955 129.135 203.699 175.48 203.855 181.182C204.159 192.465 212.232 251.427 212.232 251.427Z" fill="#D3766A"/>
<path d="M181.554 99.4787C181.554 99.4787 167.202 175.1 166.64 182.13C166.079 189.161 166.383 191.063 166.383 191.063C166.383 191.063 186.445 195.895 196.936 195.986C220.281 196.155 242.472 189.342 242.472 189.342C242.472 189.342 232.995 127.528 232.925 127.377C235.381 117.885 233.608 108.029 227.894 99.4183L181.554 99.4787Z" fill="#37474F"/>
<path d="M183.622 99.4788L176.742 146.307L173.115 170.751L172.234 176.863C171.961 178.905 171.625 180.94 171.454 182.982C171.282 186.05 171.298 189.124 171.384 192.199C171.282 189.13 171.251 186.056 171.423 182.988C171.586 180.94 171.906 178.905 172.203 176.863L173.061 170.745L176.586 146.295L183.653 99.4848L183.622 99.4788Z" fill="#455A64"/>
<path d="M239.883 190.091C238.853 185.319 238.081 180.511 237.246 175.71C236.336 170.314 235.457 164.916 234.61 159.516C232.868 148.717 231.222 137.911 229.672 127.1C230.32 124.717 230.636 122.287 230.616 119.852C230.542 117.409 230.253 114.973 229.75 112.561C229.216 110.151 228.521 107.764 227.668 105.41C226.935 103.411 226.108 101.43 225.164 99.4788C226.131 101.424 226.958 103.405 227.691 105.404C228.552 107.758 229.255 110.145 229.797 112.555C230.313 114.969 230.615 117.406 230.702 119.852C230.735 122.302 230.427 124.749 229.782 127.148L234.735 159.547C235.567 164.954 236.425 170.354 237.309 175.746C238.12 180.505 238.9 185.313 239.883 190.091Z" fill="#455A64"/>
<path d="M197.755 99.4667L195.29 147.787L193.901 173.155L193.55 179.503C193.441 181.617 193.277 183.731 193.293 185.851C193.293 189.161 193.379 192.495 193.504 195.787C193.371 192.477 193.27 189.143 193.262 185.857C193.262 183.737 193.394 181.629 193.496 179.503L193.816 173.155L195.11 147.787L197.762 99.4667H197.755Z" fill="#455A64"/>
<path d="M233.972 191.553L229.963 160.936C228.476 149.661 227.027 138.386 225.618 127.112C225.822 124.698 225.796 122.275 225.54 119.864C225.33 117.448 224.947 115.032 224.511 112.616C224.074 110.2 223.543 107.832 222.951 105.446C222.459 103.441 221.929 101.436 221.344 99.4486C221.937 101.436 222.467 103.441 222.966 105.446C223.559 107.826 224.097 110.212 224.526 112.61C224.955 115.008 225.369 117.442 225.595 119.858C225.857 122.269 225.891 124.691 225.696 127.106C227.178 138.38 228.634 149.655 230.064 160.93L233.972 191.553Z" fill="#455A64"/>
<path d="M187.271 99.4727L182.474 147.509L179.955 172.424L179.362 178.657C179.261 179.696 179.175 180.735 179.097 181.774L179.003 184.896L178.738 193.691L178.972 184.902L179.058 181.78C179.136 180.741 179.214 179.696 179.308 178.657L179.885 172.424L182.303 147.503L187.287 99.4787L187.271 99.4727Z" fill="#455A64"/>
<path d="M192.508 99.4667L188.733 147.521L186.642 172.442L186.127 178.675C185.987 180.753 185.73 182.825 185.698 184.909C185.597 188.237 185.605 191.553 185.698 194.893C185.613 191.565 185.589 188.249 185.698 184.915C185.698 182.831 185.964 180.753 186.104 178.675L186.595 172.448L188.553 147.521L192.516 99.4727L192.508 99.4667Z" fill="#455A64"/>
<path d="M201.99 173.414C201.99 177.612 201.858 181.81 201.936 186.008C201.982 189.314 202.053 192.614 202.146 195.907C202.047 192.61 201.967 189.308 201.904 186.002C201.803 181.804 201.904 177.606 201.904 173.408L202.084 148.228L202.614 99.4546L202.24 148.234L201.99 173.414Z" fill="#455A64"/>
<path d="M227.381 192.942L223.965 161.872C222.707 150.493 221.49 139.109 220.315 127.722C220.343 126.494 220.286 125.266 220.143 124.043C220.029 122.835 219.896 121.609 219.745 120.365C219.449 117.921 219.129 115.473 218.786 113.02C218.162 108.511 217.494 103.997 216.781 99.4788C217.499 103.985 218.183 108.498 218.833 113.02C219.184 115.436 219.519 117.913 219.823 120.359C219.979 121.567 220.112 122.811 220.237 124.037C220.385 125.264 220.447 126.496 220.424 127.728C221.672 139.107 222.896 150.487 224.098 161.866L227.381 192.942Z" fill="#455A64"/>
<path d="M219.196 194.325L216.076 147.171L215.296 134.837L214.906 128.676L214.423 122.509L212.598 99.4486L214.509 122.509L215.023 128.67L215.429 134.837L216.279 147.165L219.196 194.325Z" fill="#455A64"/>
<path d="M210.577 195.364H210.569L208.986 147.545L207.582 99.4546L209.181 147.545L210.577 195.364Z" fill="#455A64"/>
<path d="M233.504 113.28L179.684 109.221C180.807 103.266 181.524 99.4788 181.524 99.4788L227.864 99.4365C230.754 103.767 232.662 108.45 233.504 113.28Z" fill="#263238"/>
<path d="M189.496 35.8957C184.411 40.0512 183.163 46.7254 183.163 46.7254C183.163 46.7254 178.389 53.5264 179.926 57.1142C180.338 58.1363 181.064 59.0661 182.04 59.8243C183.017 60.5826 184.215 61.1468 185.534 61.469L184.965 59.4698C184.965 59.4698 186.743 62.0126 192.406 62.9307C198.069 63.8488 205.455 62.3267 209.269 60.7261C211.53 59.7855 213.438 58.4081 214.807 56.7276L213.466 59.6751C215.291 59.4765 217.025 58.9314 218.512 58.0884C220 57.2453 221.195 56.1305 221.991 54.8431C225.064 50.2709 215.509 44.0195 214.667 42.6423C213.825 41.2652 212.436 31.1663 198.724 33.2079C198.724 33.2199 192.999 33.0387 189.496 35.8957Z" fill="#C7C7C7"/>
<path d="M183.52 61.2516C181.92 60.6116 180.611 59.6085 179.768 58.3765C178.864 57.1774 178.504 55.7782 178.746 54.4022C179.195 52.7827 180.014 51.2383 181.164 49.842C182.233 48.3562 183.45 46.9247 184.479 45.4268C184.534 45.3422 184.378 45.2818 184.3 45.3483C183.12 46.4906 182.027 47.6845 181.024 48.9239C179.987 50.0504 179.123 51.2666 178.45 52.5479C177.826 53.7361 177.656 55.0378 177.959 56.2988C178.267 57.3221 178.894 58.2716 179.784 59.0651C180.875 59.9415 182.11 60.703 183.458 61.3301C183.52 61.3845 183.621 61.2818 183.52 61.2516Z" fill="#C7C7C7"/>
<path d="M222.98 50.1803C221.186 46.4838 216.74 44.2128 213.994 41.0177C212.504 39.2842 211.327 37.3574 209.408 35.8716C209.353 35.8293 209.267 35.8716 209.314 35.938C210.874 37.2849 211.841 38.9218 213.004 40.474C214.234 42.018 215.661 43.4628 217.262 44.7866C220.094 47.263 223.502 50.1864 222.988 53.75C222.754 55.3928 221.576 57.235 219.423 57.7968C219.345 57.7968 219.423 57.9236 219.478 57.8934C220.323 57.6095 221.084 57.1953 221.716 56.6761C222.347 56.1569 222.836 55.5435 223.151 54.8734C223.827 53.3442 223.766 51.6774 222.98 50.1803Z" fill="#C7C7C7"/>
<path d="M223.214 51.1829C223.312 49.7654 222.838 48.3595 221.857 47.1602C220.789 46.0292 219.419 45.0897 217.84 44.406C216.085 43.5544 214.237 42.751 213.09 41.386C213.035 41.3316 212.934 41.386 212.981 41.4524C214.806 43.7356 218.144 44.7442 220.453 46.6468C223.097 48.8212 223.222 52.0828 221.561 54.668C220.486 56.2454 218.943 57.6031 217.06 58.6302C217.06 58.6302 217.06 58.6846 217.099 58.6664C220.305 56.933 223.074 54.3599 223.214 51.1829Z" fill="#C7C7C7"/>
<path d="M198.34 66.3433C197.022 70.7404 181.18 110.647 177.912 111.245C168.357 113.008 156.852 114.349 156.938 108.261C157.055 98.7056 178.778 75.21 190.166 65.4192C197.03 59.5604 199.659 62.0005 198.34 66.3433Z" fill="#37474F"/>
<path d="M198.34 66.3433C197.022 70.7404 181.18 110.647 177.912 111.245C168.357 113.014 156.852 114.349 156.938 108.261C156.938 108.013 156.938 107.754 156.993 107.482L193.208 63.1723C197.794 60.3999 199.448 62.7253 198.34 66.3433Z" fill="#263238"/>
<path d="M180.262 104.552C180.262 104.552 215.019 105.718 229.729 104.371C229.729 104.371 219.66 71.4834 208.95 62.6167C204.075 58.582 199.302 59.198 195.269 61.7952C194.255 62.4415 181.767 74.7208 180.706 78.9971C179.77 82.7842 183.741 86.982 183.741 86.982L180.262 104.552Z" fill="#EBEBEB"/>
<path d="M198.879 70.1001L197.038 67.1104L193.91 69.3995L194.456 71.6041L197.475 71.8578L198.879 70.1001Z" fill="#FF880D"/>
<path d="M197.474 71.8578L196.717 94.2179L190.22 104.105L185.969 94.2239L194.455 71.6041L197.474 71.8578Z" fill="#FF880D"/>
<path d="M195.657 61.4026C195.657 61.4026 190.314 72.5464 189.986 75.4094C189.659 78.2723 191.32 89.0175 191.32 89.0175C191.32 89.0175 199.463 77.6683 201.46 74.002C204.526 68.3003 205.204 60.3698 205.204 60.3698C205.204 60.3698 208.254 61.4449 212.263 65.697C217.63 71.3928 227.309 92.7804 230.484 104.697L193.879 108.768L190.244 104.105L187.748 108.768L179.066 105.017L183.746 86.982C183.746 86.982 179.207 83.1526 181.11 77.9764C183.177 72.3471 195.657 61.4026 195.657 61.4026Z" fill="#37474F"/>
<path d="M191.32 88.9933L185.969 76.1039L189.635 72.6913L186.452 72.2081C186.452 72.2081 194.783 62.1999 195.649 61.4026C195.446 61.8254 190.306 72.5887 189.986 75.3973C189.666 78.2059 191.226 88.4135 191.32 88.9933Z" fill="#263238"/>
<path d="M202.927 73.5551L204.487 77.8737L191.32 89.0114C191.562 88.6672 199.487 77.614 201.46 74.002C204.526 68.3063 205.204 60.3698 205.204 60.3698L206.632 72.7518L202.927 73.5551Z" fill="#263238"/>
<path d="M183.444 73.8329C184.224 72.9571 184.965 72.0813 185.784 71.2357C185.917 70.9337 186.073 70.6317 186.221 70.3479C186.442 69.9172 186.703 69.4994 187.001 69.0976C186.838 69.5449 186.635 69.9829 186.393 70.4083L186.19 70.7707C186.97 69.9311 187.812 69.1036 188.662 68.3003C187.102 70.2391 185.394 72.1055 183.819 74.0262C183.009 74.97 182.277 75.9524 181.627 76.9677C181.42 77.2948 181.24 77.6317 181.089 77.9764C180.428 79.7324 180.54 81.6087 181.408 83.3097C181.755 84.2302 182.198 85.1271 182.734 85.9914C182.781 86.0518 182.649 86.1062 182.61 86.0458C182.022 85.166 181.501 84.2605 181.05 83.3339C180.599 82.4313 180.336 81.4794 180.27 80.5132C180.067 77.771 181.861 75.9469 183.444 73.8329Z" fill="#263238"/>
<path d="M191.322 89.0175C191.322 90.2798 191.322 91.5361 191.276 92.7985C191.229 94.0609 191.135 95.3172 191.065 96.5735C190.995 97.8298 190.862 99.0861 190.722 100.342C190.581 101.599 190.433 102.855 190.223 104.105C190.223 102.843 190.223 101.581 190.269 100.324C190.316 99.068 190.41 97.8057 190.48 96.5493C190.55 95.293 190.683 94.0367 190.823 92.7804C190.964 91.5241 191.112 90.2677 191.322 89.0175Z" fill="#263238"/>
<path d="M194.575 92.2852C194.576 92.4944 194.479 92.6969 194.303 92.8556C194.127 93.0142 193.883 93.1184 193.615 93.1489C193.305 93.1745 192.994 93.1052 192.749 92.9556C192.627 92.8716 192.528 92.7685 192.461 92.6529C192.394 92.5373 192.359 92.4119 192.359 92.2852C192.359 92.1593 192.394 92.0349 192.461 91.9203C192.529 91.8057 192.627 91.7035 192.749 91.6208C192.87 91.5452 193.008 91.4892 193.157 91.456C193.306 91.4228 193.461 91.4131 193.615 91.4275C193.882 91.4566 194.126 91.5596 194.302 91.7172C194.479 91.8749 194.575 92.0766 194.575 92.2852ZM194.575 92.2852C194.575 92.1888 194.547 92.0937 194.493 92.0069C194.439 91.9201 194.36 91.8438 194.263 91.7838C194.174 91.7269 194.069 91.686 193.957 91.6641C193.845 91.6421 193.728 91.6397 193.615 91.657C193.423 91.6823 193.248 91.7596 193.122 91.8751C192.996 91.9907 192.927 92.137 192.927 92.2882C192.927 92.4394 192.996 92.5857 193.122 92.7012C193.248 92.8167 193.423 92.894 193.615 92.9194C193.728 92.9366 193.845 92.9342 193.957 92.9123C194.069 92.8904 194.174 92.8495 194.263 92.7925C194.361 92.7319 194.44 92.6547 194.494 92.5668C194.548 92.4788 194.576 92.3825 194.575 92.2852Z" fill="#263238"/>
<path d="M194.278 96.9541C194.277 97.1297 194.208 97.3011 194.078 97.4454C193.949 97.5896 193.766 97.6999 193.553 97.7614C193.341 97.823 193.109 97.8329 192.889 97.7899C192.669 97.7468 192.471 97.6529 192.322 97.5206C192.173 97.3883 192.079 97.2239 192.054 97.0493C192.028 96.8748 192.072 96.6983 192.18 96.5436C192.287 96.3889 192.453 96.2632 192.655 96.1833C192.857 96.1034 193.086 96.0731 193.31 96.0964C193.579 96.123 193.826 96.225 194.004 96.383C194.183 96.5411 194.28 96.7443 194.278 96.9541ZM194.278 96.9541C194.274 96.8574 194.244 96.7624 194.19 96.6751C194.137 96.5878 194.06 96.51 193.966 96.4467C193.777 96.3394 193.542 96.2938 193.31 96.3199C193.121 96.3487 192.95 96.4277 192.827 96.5434C192.704 96.6591 192.636 96.8043 192.636 96.9541C192.636 97.1039 192.704 97.2491 192.827 97.3648C192.95 97.4804 193.121 97.5595 193.31 97.5883C193.425 97.6029 193.542 97.5992 193.655 97.5774C193.768 97.5556 193.873 97.5161 193.966 97.4614C194.06 97.3981 194.137 97.3204 194.19 97.233C194.244 97.1457 194.274 97.0507 194.278 96.9541Z" fill="#263238"/>
<path d="M193.973 101.623C193.986 101.742 193.967 101.862 193.917 101.975C193.867 102.088 193.787 102.192 193.682 102.28C193.578 102.368 193.451 102.438 193.31 102.486C193.168 102.534 193.016 102.559 192.861 102.559C192.707 102.559 192.555 102.534 192.413 102.486C192.272 102.438 192.145 102.368 192.04 102.28C191.936 102.192 191.856 102.088 191.806 101.975C191.756 101.862 191.737 101.742 191.75 101.623C191.75 101.496 191.786 101.37 191.855 101.254C191.923 101.139 192.023 101.036 192.148 100.953C192.311 100.848 192.51 100.782 192.72 100.762C192.931 100.741 193.144 100.768 193.336 100.838C193.527 100.909 193.689 101.02 193.802 101.159C193.915 101.298 193.974 101.459 193.973 101.623ZM193.973 101.623C193.97 101.526 193.941 101.431 193.888 101.343C193.834 101.256 193.757 101.178 193.661 101.116C193.569 101.061 193.463 101.022 193.35 101C193.238 100.978 193.12 100.974 193.006 100.989C192.811 101.01 192.635 101.087 192.51 101.204C192.386 101.322 192.323 101.471 192.335 101.623C192.333 101.773 192.4 101.918 192.522 102.034C192.645 102.15 192.816 102.229 193.006 102.257C193.121 102.271 193.238 102.266 193.351 102.243C193.464 102.22 193.569 102.18 193.661 102.124C193.756 102.063 193.833 101.986 193.887 101.9C193.94 101.813 193.97 101.719 193.973 101.623Z" fill="#263238"/>
<path d="M206.281 93.2877L219.182 91.4757L219.588 92.7683L206.585 94.5924L206.281 93.2877Z" fill="#263238"/>
<path d="M206.844 67.4848C210.167 71.0122 227.904 85.0854 228.388 86.4746C228.668 87.2477 224.815 90.0503 224.878 90.612C225.143 92.8891 234.152 110.604 236.695 109.064C240.041 107.041 251.842 90.7026 249.838 84.4149C247.833 78.1273 213.396 62.526 208.147 61.2153C202.897 59.9046 203.576 64.0239 206.844 67.4848Z" fill="#37474F"/>
<path d="M220.486 79.3051C217.971 77.8272 215.788 76.0373 214.027 74.0081C215.292 74.7265 216.468 75.5354 217.537 76.4241C218.631 77.3129 219.618 78.2772 220.486 79.3051Z" fill="#263238"/>
<path d="M214.668 75.9167C215.208 75.9949 215.732 76.1269 216.228 76.3093C216.732 76.4819 217.204 76.7053 217.632 76.9737C217.091 76.8984 216.567 76.7663 216.072 76.5811C215.568 76.4086 215.096 76.1852 214.668 75.9167Z" fill="#263238"/>
<path d="M226.477 113.812C224.074 112.555 227.366 111.088 227.366 111.088C227.366 111.088 221.976 112.296 220.151 110.284C218.326 108.273 222.444 106.66 222.733 106.527C222.452 106.588 217.46 107.621 215.892 105.428C214.324 103.236 218.708 102.016 219.012 101.943C218.723 101.943 214.831 101.81 214.137 99.9378C212.936 96.7124 224.098 96.3138 226.516 94.3689C226.516 94.3689 225.431 90.1409 225.346 90.002C225.346 90.002 226.57 91.6569 228.52 92.0858C230.938 92.6173 233.107 92.9193 234.089 93.8192C234.547 94.2108 234.829 94.7062 234.893 95.2318C234.958 95.7574 234.802 96.2852 234.448 96.7366C234.448 96.7366 237.498 96.4648 238.801 98.162C239.464 99.0318 238.255 100.632 238.255 100.632C238.255 100.632 240.712 100.493 241.749 102.058C242.576 103.302 241.234 104.715 241.234 104.715C241.234 104.715 243.676 105.428 243.988 106.914C244.612 109.928 231.617 116.499 226.477 113.812Z" fill="#D3766A"/>
<path d="M241.046 104.963C241.093 104.963 241.139 104.963 241.108 105.005C237.389 108.109 232.539 110.262 227.201 111.178C227.029 111.209 226.904 111.003 227.084 110.949C232.087 109.486 236.789 107.47 241.046 104.963Z" fill="#263238"/>
<path d="M238.323 100.62C238.37 100.59 238.432 100.62 238.385 100.687C234.665 103.737 228.791 106.334 222.668 106.691C222.458 106.691 222.255 106.552 222.497 106.521C226.545 106.05 234.368 103.018 238.323 100.62Z" fill="#263238"/>
<path d="M218.559 101.852C224.417 101.339 229.479 99.4364 234.292 96.8755C234.354 96.8392 234.409 96.9117 234.362 96.948C232.443 98.6935 229.151 100.071 226.468 100.971C224.016 101.844 221.31 102.204 218.621 102.016C218.473 102.003 218.434 101.865 218.559 101.852Z" fill="#263238"/>
<path d="M241.371 104.703C242.237 103.864 242.822 102.807 242.237 101.75C241.964 101.271 241.477 100.885 240.864 100.663C240.13 100.47 239.347 100.414 238.579 100.499C239.008 100.033 239.244 99.4769 239.257 98.9043C239.269 98.3317 239.058 97.7697 238.649 97.2922C238.195 96.8849 237.561 96.6242 236.871 96.5614C236.075 96.5048 235.272 96.5292 234.484 96.6339C234.812 96.3369 235.046 95.9843 235.167 95.6046C235.288 95.2248 235.291 94.8285 235.178 94.4474C235.03 94.0351 234.758 93.6558 234.383 93.3408C234.009 93.0258 233.544 92.7841 233.025 92.6354C231.804 92.2932 230.534 92.0641 229.242 91.9529C228.581 91.8765 227.934 91.7386 227.316 91.5422C226.65 91.3028 226.091 90.9161 225.709 90.4308C225.631 90.3462 225.647 90.4308 225.709 90.5093C225.964 90.8368 226.283 91.1321 226.653 91.3851C227.052 91.6453 227.492 91.8646 227.963 92.0375C229.133 92.3821 230.335 92.6568 231.559 92.8589C232.614 93.0775 233.548 93.5568 234.219 94.2239C234.519 94.581 234.688 94.995 234.706 95.421C234.723 95.8469 234.59 96.2685 234.32 96.6399C234.312 96.6502 234.308 96.6621 234.308 96.6742C234.309 96.6864 234.314 96.6981 234.323 96.7078C234.333 96.7176 234.345 96.725 234.36 96.729C234.375 96.7331 234.391 96.7336 234.406 96.7305C235.121 96.7213 235.834 96.7843 236.528 96.9178C237.108 97.0332 237.628 97.2842 238.017 97.6365C238.384 98.0752 238.594 98.581 238.627 99.1029C238.66 99.6247 238.514 100.144 238.205 100.608C238.979 100.656 239.736 100.807 240.443 101.055C240.896 101.276 241.261 101.589 241.496 101.961C241.767 102.39 241.878 102.869 241.816 103.344C241.754 103.819 241.521 104.271 241.145 104.649C241.142 104.661 241.142 104.673 241.145 104.685C241.145 104.685 241.145 104.685 241.145 104.715C241.145 104.715 241.925 104.963 241.964 104.969C242.003 104.975 241.964 104.969 241.964 104.933C241.773 104.846 241.575 104.77 241.371 104.703Z" fill="#263238"/>
<path d="M200.354 112.199L189.574 79.5951L157.773 86.3418L168.553 118.952L200.354 112.199Z" fill="#FF880D"/>
<path d="M158.897 97.4071L155.574 87.3565L157.774 86.3418L161.377 97.2259L158.897 97.4071Z" fill="#FF880D"/>
<g opacity="0.2">
<path d="M200.354 112.199L189.574 79.5951L157.773 86.3418L168.553 118.952L200.354 112.199Z" fill="black"/>
<path d="M158.897 97.4071L155.574 87.3565L157.774 86.3418L161.377 97.2259L158.897 97.4071Z" fill="black"/>
</g>
<path d="M200.339 112.145L189.536 79.4622L158.406 84.5176L169.217 117.2L200.339 112.145Z" fill="#FF880D"/>
<path opacity="0.1" d="M200.339 112.145L189.536 79.4622L158.406 84.5176L169.217 117.2L200.339 112.145Z" fill="black"/>
<path d="M192.537 87.9726C193.004 88.3336 193.318 88.797 193.435 89.3002C193.552 89.8035 193.467 90.3225 193.192 90.7873C194.295 90.953 195.288 91.4124 196 92.0859C197.178 93.2939 195.22 95.2871 195.22 95.2871C196.319 95.6401 197.254 96.2423 197.903 97.0145C198.878 98.2829 197.256 100.487 197.256 100.487C198.02 101.25 198.405 102.199 198.34 103.163C198.059 105.736 193.527 107.542 190.665 108.708C187.802 109.874 178.263 111.124 176.476 111.498L166.625 97.3286C166.625 97.3286 177.545 89.2531 181.156 88.2686C184.222 87.3988 190.68 86.6438 192.537 87.9726Z" fill="#D3766A"/>
<path d="M167.921 96.3923C164.652 98.3795 154.879 106.056 157.266 109.855C159.653 113.655 167.601 113.208 178.615 111.136L167.921 96.3923Z" fill="#D3766A"/>
<path d="M192.881 90.5999C189.355 90.8959 186.142 91.9891 182.85 92.9313C182.78 92.9313 182.85 93.0401 182.897 93.0159C186.149 92.0495 189.613 91.5965 192.92 90.7267C192.938 90.7204 192.953 90.7093 192.961 90.6955C192.97 90.6816 192.972 90.6659 192.968 90.6509C192.963 90.6359 192.952 90.6227 192.936 90.6134C192.92 90.6041 192.901 90.5993 192.881 90.5999Z" fill="#263238"/>
<path d="M195.019 95.1239C194.229 95.247 193.463 95.4501 192.742 95.7279C191.957 95.9896 191.177 96.2614 190.402 96.5433C188.842 97.103 187.308 97.6949 185.8 98.3191C185.737 98.3191 185.8 98.4338 185.846 98.4097C187.406 97.8499 188.966 97.3144 190.526 96.803C191.306 96.5493 192.086 96.2957 192.866 96.0541C193.636 95.8586 194.376 95.5994 195.074 95.2809C195.088 95.2689 195.098 95.2544 195.103 95.2387C195.108 95.2229 195.107 95.2065 195.102 95.1909C195.097 95.1752 195.086 95.1609 195.072 95.1492C195.057 95.1375 195.039 95.1288 195.019 95.1239Z" fill="#263238"/>
<path d="M197.169 100.512C196.456 100.635 195.776 100.852 195.156 101.152L193.05 101.949C191.639 102.469 190.235 102.994 188.807 103.477C188.737 103.477 188.807 103.592 188.846 103.568C190.305 103.079 191.771 102.607 193.222 102.112L195.351 101.369C196.026 101.188 196.654 100.916 197.208 100.566C197.208 100.566 197.2 100.512 197.169 100.512Z" fill="#263238"/>
<path d="M167.921 96.3923C164.652 98.3795 154.879 106.056 157.266 109.855C159.653 113.655 167.406 114.271 177.951 112.936L167.921 96.3923Z" fill="#37474F"/>
<path d="M167.522 96.5252C166.369 97.1988 165.279 97.9355 164.262 98.7298L163.482 99.3338L163.154 99.5029C162.686 99.7506 162.226 100.004 161.789 100.282C160.949 100.839 160.156 101.438 159.418 102.076C159.364 102.124 159.457 102.185 159.512 102.142C160.3 101.547 161.148 100.999 162.047 100.506L162.406 100.312C161.977 100.693 161.555 101.073 161.173 101.472C160.136 102.524 159.185 103.626 158.326 104.77C158.323 104.78 158.324 104.79 158.329 104.8C158.334 104.809 158.343 104.817 158.354 104.823C158.365 104.828 158.378 104.831 158.392 104.83C158.405 104.829 158.417 104.825 158.428 104.818C159.988 102.789 167.008 97.3466 167.733 96.6943C168.458 96.042 168.1 96.1507 167.522 96.5252Z" fill="#263238"/>
<path d="M204.837 62.5683C204.58 63.269 200.82 66.9171 196.647 66.6091C195.29 66.5125 194.783 61.5295 194.783 61.5295L194.689 61.1006L193.332 55.0606L202.692 50.8991L204.034 50.3555C204.034 50.3555 204.268 52.0225 204.525 54.1003C204.525 54.1969 204.525 54.2935 204.525 54.3962C204.525 54.4989 204.564 54.6257 204.58 54.7345C204.619 55.0485 204.665 55.3385 204.697 55.6827C204.728 56.027 204.751 56.1539 204.775 56.4075C204.798 56.6612 204.814 56.9089 204.837 57.1625C205.003 58.9622 205.003 60.7687 204.837 62.5683Z" fill="#D3766A"/>
<path d="M204.502 54.1063C203.619 55.7534 202.284 57.232 200.59 58.4397C198.895 59.6475 196.882 60.5554 194.689 61.1006L193.332 55.0606L202.692 50.8991L204.034 50.3555C204.034 50.3555 204.244 52.0285 204.502 54.1063Z" fill="#263238"/>
<path d="M184.77 43.2766C181.353 53.6956 189.029 56.4498 191.922 57.0176C194.559 57.537 203.622 59.0289 208.396 48.9421C213.17 38.8553 208.006 34.3374 202.062 32.9119C196.119 31.4865 188.202 32.8636 184.77 43.2766Z" fill="#D3766A"/>
<path d="M188.982 41.8632C189.309 41.8632 189.613 41.8632 189.941 41.8632C190.278 41.9034 190.624 41.8567 190.924 41.7303C191.007 41.6768 191.066 41.6033 191.09 41.5213C191.114 41.4394 191.102 41.3536 191.056 41.2773C190.938 41.1363 190.772 41.0226 190.577 40.9482C190.383 40.8738 190.165 40.8414 189.949 40.8545C189.502 40.8249 189.056 40.9262 188.701 41.1384C188.617 41.1884 188.554 41.257 188.521 41.3351C188.489 41.4132 188.488 41.4972 188.518 41.5758C188.549 41.6545 188.609 41.7241 188.692 41.7754C188.775 41.8268 188.876 41.8574 188.982 41.8632Z" fill="#C7C7C7"/>
<path d="M198.34 43.5664C198.036 43.4819 197.77 43.3671 197.474 43.2584C197.158 43.1758 196.885 43.017 196.694 42.8054C196.651 42.7283 196.641 42.6424 196.666 42.5607C196.691 42.4789 196.751 42.4058 196.834 42.3524C197.023 42.2675 197.237 42.2228 197.454 42.2228C197.672 42.2228 197.886 42.2675 198.075 42.3524C198.49 42.4802 198.831 42.7207 199.034 43.0289C199.075 43.1041 199.086 43.1869 199.065 43.2669C199.045 43.3469 198.994 43.4204 198.92 43.4781C198.845 43.5357 198.75 43.5749 198.647 43.5906C198.544 43.6064 198.437 43.5979 198.34 43.5664Z" fill="#C7C7C7"/>
<path d="M195.448 45.759C195.448 45.7288 195.503 45.8073 195.495 45.8315C195.23 46.5382 195.081 47.3777 195.838 47.7764C195.838 47.7764 195.838 47.8247 195.838 47.8126C194.84 47.5046 195.05 46.3872 195.448 45.759Z" fill="#263238"/>
<path d="M196.509 45.1791C198.007 45.3845 197.368 47.6918 195.979 47.5045C194.591 47.3173 195.222 45.004 196.509 45.1791Z" fill="#263238"/>
<path d="M197.062 45.3966C197.281 45.5717 197.476 45.8435 197.78 45.9221C198.084 46.0006 198.482 45.8133 198.778 45.6201C198.778 45.6201 198.833 45.6201 198.825 45.6563C198.708 46.0972 198.365 46.514 197.733 46.4777C197.101 46.4415 196.867 45.9885 196.844 45.5174C196.844 45.4328 196.969 45.2999 197.062 45.3966Z" fill="#263238"/>
<path d="M190.095 44.6416C190.095 44.6416 190.017 44.6416 190.009 44.696C189.846 45.4147 189.51 46.2241 188.605 46.3268C188.605 46.3268 188.605 46.363 188.605 46.369C189.658 46.4174 190.095 45.3483 190.095 44.6416Z" fill="#263238"/>
<path d="M189.473 43.7659C188.007 43.4397 187.274 45.7289 188.631 46.0309C189.988 46.3329 190.698 44.0377 189.473 43.7659Z" fill="#263238"/>
<path d="M188.811 43.796C188.538 43.8746 188.233 44.0497 187.953 44.0074C187.672 43.9652 187.461 43.6692 187.329 43.4034C187.329 43.4034 187.282 43.4034 187.274 43.4034C187.118 43.8383 187.165 44.3336 187.68 44.5208C188.194 44.7081 188.631 44.3819 188.904 43.9712C188.982 43.9048 188.92 43.7658 188.811 43.796Z" fill="#263238"/>
<path d="M193.214 51.6117C192.977 51.7953 192.666 51.9104 192.333 51.9379C191.989 51.8843 191.663 51.7775 191.374 51.6238C191.374 51.6238 191.311 51.6238 191.327 51.6238C191.43 51.7832 191.586 51.9183 191.78 52.015C191.973 52.1117 192.196 52.1664 192.427 52.1735C192.624 52.1582 192.811 52.0987 192.965 52.002C193.118 51.9054 193.232 51.7761 193.292 51.6299C193.316 51.6178 193.246 51.5936 193.214 51.6117Z" fill="#263238"/>
<path d="M189.988 49.8239C190.233 50.2948 190.628 50.7103 191.135 51.0319C191.409 51.209 191.747 51.3166 192.102 51.34C192.882 51.34 193.1 50.8387 193.139 50.3675C193.151 50.1147 193.128 49.8615 193.069 49.6125C192.097 49.9338 191.018 50.0078 189.988 49.8239Z" fill="#263238"/>
<path d="M191.133 51.0501C191.41 51.2206 191.747 51.3218 192.1 51.34C192.88 51.34 193.098 50.8387 193.137 50.3676C192.753 50.2929 192.347 50.3195 191.984 50.443C191.621 50.5666 191.322 50.7802 191.133 51.0501Z" fill="#FF9CBD"/>
<path d="M190.111 48.3562C190.111 48.3562 189.612 49.389 189.464 49.8964C189.464 49.9387 189.604 49.993 189.823 50.0414C190.358 50.2175 190.945 50.2763 191.52 50.2114C192.095 50.1464 192.636 49.9601 193.083 49.6729C193.138 49.6306 193.083 49.5642 193.005 49.5823C192.05 49.8786 190.995 49.9253 190.002 49.7152C190.002 49.5702 190.938 47.9696 190.837 47.9455C190.319 47.8935 189.795 47.8935 189.277 47.9455C190.244 45.7711 191.617 43.7175 192.568 41.5612C192.568 41.4827 192.459 41.4344 192.412 41.5008C190.825 43.6476 189.519 45.9118 188.512 48.2596C188.38 48.5434 189.831 48.3985 190.111 48.3562Z" fill="#263238"/>
<g opacity="0.2">
<path d="M195.04 40.3654C194.484 40.2989 193.934 40.202 193.395 40.0755C192.849 39.9365 192.349 39.7131 191.835 39.5741C190.787 39.3618 189.699 39.2943 188.621 39.3748C188.527 39.3748 188.527 39.4231 188.621 39.4231C189.759 39.374 190.897 39.5141 191.959 39.8339C192.802 40.1488 193.697 40.3723 194.619 40.4983C196.741 40.7399 198.784 41.1868 200.368 42.3646C198.888 41.3027 197.033 40.6066 195.04 40.3654Z" fill="black"/>
<path d="M195.515 39.26C194.988 39.1971 194.467 39.1062 193.955 38.9882C193.441 38.8493 192.973 38.6379 192.45 38.511C191.456 38.3067 190.424 38.2412 189.4 38.3178C189.314 38.3178 189.314 38.3661 189.4 38.3661C190.479 38.3179 191.559 38.4497 192.567 38.7526C193.367 39.0427 194.215 39.2459 195.086 39.3566C197.103 39.4875 199.014 40.1091 200.546 41.1324C199.146 40.1359 197.395 39.4842 195.515 39.26Z" fill="black"/>
</g>
<path d="M207.053 49.0991C204.845 48.8273 205.415 45.2154 205.415 45.2154C205.415 45.2154 201.008 44.4242 201.055 39.2479C200.727 40.7417 200.974 42.277 201.764 43.6631C201.764 43.6631 194.191 41.6035 192.451 35.9682C192.451 35.9682 192.974 38.7768 193.918 39.9123C193.918 39.9123 190.876 38.6076 189.908 36.2883C189.908 36.2883 187.662 38.9459 186.375 39.5559C186.375 39.5559 188.153 25.4223 204.143 33.0388C204.143 33.0388 211.296 34.3072 212.653 39.6828C214.01 45.0584 207.053 49.0991 207.053 49.0991Z" fill="#C7C7C7"/>
<path d="M207.163 52.7895C206.945 52.8222 206.723 52.8384 206.5 52.8379C206.281 52.8402 206.062 52.8157 205.853 52.7654C205.567 52.715 205.3 52.6137 205.073 52.4694C204.9 52.3618 204.748 52.2357 204.62 52.0949C204.439 51.894 204.306 51.6688 204.23 51.4305L205.58 48.6944C205.58 48.6944 209.277 45.765 211.04 46.8341C212.803 47.9032 209.581 52.4211 207.163 52.7895Z" fill="#D3766A"/>
<path d="M210.096 48.1086V48.1569C208.396 48.4589 207.312 49.4978 206.469 50.6152C206.591 50.5044 206.742 50.4154 206.912 50.3544C207.083 50.2934 207.268 50.2618 207.456 50.2618C207.644 50.2618 207.829 50.2934 208 50.3544C208.17 50.4154 208.321 50.5044 208.443 50.6152C208.482 50.6152 208.443 50.6877 208.388 50.6756C208.121 50.5701 207.819 50.5314 207.523 50.565C207.226 50.5985 206.951 50.7026 206.734 50.8628C206.374 51.1306 206.052 51.4284 205.775 51.7507C205.681 51.8474 205.432 51.7507 205.518 51.6359C205.83 49.9991 207.873 47.9938 210.096 48.1086Z" fill="#263238"/>
<path d="M207.061 52.3185C207.032 52.3797 206.987 52.4358 206.929 52.4835C206.872 52.5313 206.802 52.5697 206.726 52.5967C206.649 52.6236 206.566 52.6386 206.481 52.6406C206.397 52.6426 206.313 52.6316 206.234 52.6084C206.076 52.561 205.948 52.4674 205.878 52.3476C205.808 52.2279 205.801 52.0916 205.86 51.9682C205.889 51.907 205.934 51.8509 205.992 51.8031C206.049 51.7554 206.119 51.7169 206.195 51.69C206.272 51.663 206.355 51.6481 206.44 51.6461C206.524 51.6441 206.608 51.655 206.687 51.6783C206.766 51.7004 206.84 51.7347 206.902 51.7791C206.964 51.8236 207.014 51.8773 207.049 51.937C207.084 51.9967 207.103 52.0612 207.105 52.1268C207.107 52.1923 207.092 52.2575 207.061 52.3185Z" fill="white"/>
<path d="M208.527 51.7447C208.483 51.8311 208.397 51.9006 208.287 51.938C208.178 51.9754 208.053 51.9775 207.942 51.944C207.885 51.9286 207.833 51.9044 207.789 51.873C207.745 51.8417 207.709 51.8036 207.684 51.7613C207.659 51.719 207.646 51.6732 207.645 51.6268C207.643 51.5803 207.654 51.5341 207.677 51.491C207.697 51.4476 207.729 51.4079 207.77 51.3741C207.81 51.3403 207.859 51.313 207.914 51.2939C207.968 51.2749 208.027 51.2643 208.087 51.2629C208.146 51.2614 208.206 51.2692 208.262 51.2856C208.374 51.3207 208.464 51.3881 208.514 51.4737C208.563 51.5593 208.568 51.6564 208.527 51.7447Z" fill="white"/>
<path d="M194.674 61.2275L197.295 66.0595L204.978 59.796L207.232 61.7469C207.232 61.7469 199.791 71.6163 199.728 71.1754L197.061 67.044L193.379 70.0097L193.535 62.6771L194.674 61.2275Z" fill="#EBEBEB"/>
<path d="M193.191 66.3615C193.269 65.1535 193.3 63.9455 193.456 62.7375C193.456 62.6952 193.542 62.6711 193.558 62.7375C193.893 63.8972 193.558 68.5238 193.558 69.6291C193.706 69.5023 196.966 67.0198 197.005 67.0561C197.575 67.7144 199.54 70.7465 199.673 71.0244C200.851 69.454 205.367 63.7764 206.763 62.2664C206.77 62.256 206.783 62.2482 206.797 62.2448C206.812 62.2414 206.828 62.2426 206.841 62.2482C206.854 62.2539 206.864 62.2634 206.869 62.2747C206.873 62.286 206.872 62.2982 206.864 62.3087C205.827 63.9576 199.844 71.6404 199.759 71.6163C198.73 70.1891 197.798 68.7214 196.966 67.2192C196.412 67.7567 193.129 70.5533 193.113 70.3721C193.048 69.0351 193.074 67.6964 193.191 66.3615Z" fill="#263238"/>
</g>
<defs>
<clipPath id="clip0_660_2176">
<rect width="390.667" height="246" fill="white" transform="translate(0.667969)"/>
</clipPath>
</defs>
</svg>
