<svg width="390" height="350" viewBox="0 0 390 350" fill="none" xmlns="http://www.w3.org/2000/svg">
<rect width="390" height="350" fill="#8468F5" fill-opacity="0.2"/>
<path d="M255.892 34.783C255.892 34.783 196.237 15.75 137.683 46.053C79.128 76.356 49.5738 136.5 24.177 184.723C-1.21979 232.946 13.4286 281.939 58.1304 304.29C102.832 326.641 133.229 293.692 195.941 292.089C258.653 290.486 275.501 298.529 327.55 266.735C379.6 234.941 388.991 159.859 347.947 104.335C306.904 48.811 255.892 34.783 255.892 34.783Z" fill="#8568F5"/>
<path opacity="0.7" d="M255.892 34.783C255.892 34.783 196.237 15.75 137.683 46.053C79.128 76.356 49.5738 136.5 24.177 184.723C-1.21979 232.946 13.4286 281.939 58.1304 304.29C102.832 326.641 133.229 293.692 195.941 292.089C258.653 290.486 275.501 298.529 327.55 266.735C379.6 234.941 388.991 159.859 347.947 104.335C306.904 48.811 255.892 34.783 255.892 34.783Z" fill="white"/>
<path d="M11.4414 315.133H382.199" stroke="#263238" stroke-width="0.988167" stroke-linecap="round" stroke-linejoin="round"/>
<path d="M140.533 99.2251H66.3008V199.15H140.533V99.2251Z" fill="#263238" stroke="#263238" stroke-width="0.951651" stroke-linecap="round" stroke-linejoin="round"/>
<path d="M134.599 107.212H72.2461V191.149H134.599V107.212Z" fill="white" stroke="#263238" stroke-width="0.951651" stroke-linecap="round" stroke-linejoin="round"/>
<path d="M103.789 123.872C107.684 123.872 110.841 121.039 110.841 117.544C110.841 114.049 107.684 111.216 103.789 111.216C99.8952 111.216 96.7383 114.049 96.7383 117.544C96.7383 121.039 99.8952 123.872 103.789 123.872Z" fill="#8568F5"/>
<path d="M87.0859 129.864H118.263" stroke="#263238" stroke-width="0.951651" stroke-miterlimit="10"/>
<path d="M87.0859 178.493H118.263" stroke="#263238" stroke-width="0.951651" stroke-miterlimit="10"/>
<path d="M77.4375 145.852H130.142" stroke="#263238" stroke-width="0.951651" stroke-miterlimit="10"/>
<path d="M77.4375 150.514H130.142" stroke="#263238" stroke-width="0.951651" stroke-miterlimit="10"/>
<path d="M77.4375 155.176H130.142" stroke="#263238" stroke-width="0.951651" stroke-miterlimit="10"/>
<path d="M77.4375 159.845H130.142" stroke="#263238" stroke-width="0.951651" stroke-miterlimit="10"/>
<path d="M77.4375 164.507H130.142" stroke="#263238" stroke-width="0.951651" stroke-miterlimit="10"/>
<path d="M45.2943 293.44C45.2943 293.44 45.7779 277.998 45.1695 264.74C44.5611 251.482 45.7857 222.992 45.7857 222.992" stroke="#263238" stroke-width="0.988167" stroke-miterlimit="10"/>
<path d="M45.5048 239.722L38.7812 234.983" stroke="#263238" stroke-width="0.988167" stroke-miterlimit="10"/>
<path d="M45.4336 242.991L47.8204 239.512" stroke="#263238" stroke-width="0.988167" stroke-miterlimit="10"/>
<path d="M44.8906 256.725L50.8576 252.294" stroke="#263238" stroke-width="0.988167" stroke-miterlimit="10"/>
<path d="M45.784 228.816L42.6328 226.247" stroke="#263238" stroke-width="0.988167" stroke-miterlimit="10"/>
<path d="M44.8257 259.133L40.8867 255.332" stroke="#263238" stroke-width="0.988167" stroke-miterlimit="10"/>
<path d="M45.1782 274.036L36.9648 267.316" stroke="#263238" stroke-width="0.988167" stroke-miterlimit="10"/>
<path d="M45.3867 282.317C47.4767 281.592 49.5094 280.741 51.4707 279.769" stroke="#263238" stroke-width="0.988167" stroke-miterlimit="10"/>
<path d="M40.8543 242.109C37.5627 239.82 26.5179 240.226 24.3651 245C22.2123 249.774 28.9671 257.46 35.4879 256.9C38.0385 256.683 39.1383 256.522 40.1679 255.248L31.0497 247.296L40.8777 254.387C41.1648 253.929 41.3925 253.443 41.5563 252.938C41.6795 252.565 41.781 252.186 41.8605 251.804C42.4923 248.969 43.9353 244.244 40.8543 242.109Z" fill="#8568F5"/>
<path d="M62.236 236.6C62.236 236.649 62.236 236.705 62.197 236.761C61.3078 240.303 56.7994 242.312 53.0086 242.011C52.4815 241.967 51.9595 241.883 51.4486 241.759C50.5622 243.026 50.0125 244.459 49.8421 245.947C49.6717 247.435 49.8851 248.939 50.4658 250.341C50.6344 250.735 50.8515 251.11 51.1132 251.461C52.2598 250.642 64.186 241.5 64.186 241.5L51.7762 252.224C55.5046 255.815 64.2952 255.325 67.3762 248.661C70.4572 241.997 66.5494 237.552 62.236 236.6Z" fill="#8568F5"/>
<path d="M56.1579 224.217C49.7229 222.95 43.9665 225.568 44.0757 231.595C44.0933 232.936 44.4197 234.26 45.0345 235.483C45.6493 236.705 46.5391 237.801 47.6481 238.7L54.2158 230.531L48.6387 239.386C49.1596 239.7 49.7134 239.967 50.2924 240.184C51.1111 240.478 51.9727 240.664 52.8508 240.737C56.6338 241.031 61.15 239.022 62.0392 235.48C63.0376 231.497 62.5929 225.484 56.1579 224.217Z" fill="#8568F5"/>
<path d="M48.6484 203.252C48.6484 203.252 47.9854 203.427 43.867 205.233C39.7486 207.039 36.496 212.891 39.7798 217.889C41.6284 220.738 43.7734 221.816 45.2866 222.215L46.9324 207.851L46.2694 222.404C46.5805 222.435 46.8944 222.435 47.2054 222.404C49.8808 222.152 54.1162 219.282 54.514 213.395C54.9118 207.508 48.6484 203.252 48.6484 203.252Z" fill="#8568F5"/>
<path d="M29.8441 216.3L42.2617 225.211C42.3977 224.805 42.4375 224.379 42.3787 223.958C41.8093 218.855 36.1387 215.901 32.3947 214.858C28.6507 213.815 26.0533 215.691 28.4557 220.577C30.8581 225.463 37.1839 227.787 39.9997 227.08C40.6753 226.925 41.2788 226.582 41.7235 226.1L29.8441 216.3Z" fill="#8568F5"/>
<path d="M38.3929 227.738C35.7097 227.815 31.3729 226.1 28.8379 222.789C26.2327 222.74 24.0721 223.846 23.3779 226.779C22.1143 232.099 26.3965 237.671 32.5741 236.985C35.2729 236.691 36.8329 235.858 37.7221 235.018L26.6695 225.974L38.4943 234.059C38.7241 233.679 38.8698 233.263 38.9233 232.834C39.3117 231.126 39.1271 229.352 38.3929 227.738Z" fill="#8568F5"/>
<path d="M38.3212 257.306C37.3179 257.7 36.2468 257.937 35.1544 258.006C31.114 258.3 26.9956 255.5 24.9598 252.147C22.4794 252.504 20.4982 253.701 20.0224 256.13C18.7978 262.353 25.2172 270.557 31.7224 269.262C33.4117 268.966 34.9756 268.253 36.2386 267.204L22.0426 254.982L37.0264 266.385C37.8841 265.395 38.4356 264.219 38.6254 262.976C39.3276 261.12 39.2188 259.093 38.3212 257.306Z" fill="#8568F5"/>
<path d="M66.8132 270.074C62.0552 265.125 56.3846 269.556 56.3846 269.556C56.3846 269.556 52.9058 270.585 51.5954 275.002C51.1877 276.344 51.2476 277.766 51.767 279.076L66.0956 271.6L52.118 279.79C53.4206 282.009 56.2676 283.367 60.1598 282.387C66.47 280.784 71.579 275.023 66.8132 270.074Z" fill="#8568F5"/>
<path d="M54.9448 288.778H35.1172V315.126H54.9448V288.778Z" fill="#263238"/>
<path d="M270.947 57.1409H185.272L184.141 67.7109H270.947V57.1409Z" stroke="#263238" stroke-width="0.94773" stroke-miterlimit="10"/>
<path d="M270.947 67.7109H185.272L184.141 78.2809H270.947V67.7109Z" stroke="#263238" stroke-width="0.94773" stroke-miterlimit="10"/>
<path d="M270.947 78.281H185.272L184.141 88.851H270.947V78.281Z" stroke="#263238" stroke-width="0.94773" stroke-miterlimit="10"/>
<path d="M270.947 88.8508H185.272L184.141 99.4208H270.947V88.8508Z" stroke="#263238" stroke-width="0.94773" stroke-miterlimit="10"/>
<path d="M270.947 99.4209H185.272L184.141 109.991H270.947V99.4209Z" stroke="#263238" stroke-width="0.94773" stroke-miterlimit="10"/>
<path d="M270.947 109.991H185.272L184.141 120.561H270.947V109.991Z" stroke="#263238" stroke-width="0.94773" stroke-miterlimit="10"/>
<path d="M270.947 120.561H185.272L184.141 131.131H270.947V120.561Z" stroke="#263238" stroke-width="0.94773" stroke-miterlimit="10"/>
<path d="M270.947 131.131H185.272L184.141 141.701H270.947V131.131Z" stroke="#263238" stroke-width="0.94773" stroke-miterlimit="10"/>
<path d="M270.947 141.701H185.272L184.141 152.271H270.947V141.701Z" stroke="#263238" stroke-width="0.94773" stroke-miterlimit="10"/>
<path d="M270.947 152.271H185.272L184.141 162.841H270.947V152.271Z" stroke="#263238" stroke-width="0.94773" stroke-miterlimit="10"/>
<path d="M270.947 162.841H185.272L184.141 173.411H270.947V162.841Z" stroke="#263238" stroke-width="0.94773" stroke-miterlimit="10"/>
<path d="M270.947 173.411H185.272L184.141 183.981H270.947V173.411Z" stroke="#263238" stroke-width="0.94773" stroke-miterlimit="10"/>
<path d="M270.947 183.981H185.272L184.141 194.551H270.947V183.981Z" stroke="#263238" stroke-width="0.94773" stroke-miterlimit="10"/>
<path d="M270.947 194.551H185.272L184.141 205.121H270.947V194.551Z" stroke="#263238" stroke-width="0.94773" stroke-miterlimit="10"/>
<path d="M270.947 205.121H185.272L184.141 215.691H270.947V205.121Z" stroke="#263238" stroke-width="0.94773" stroke-miterlimit="10"/>
<path d="M359.017 57.1409H273.342L272.211 67.7109H359.017V57.1409Z" stroke="#263238" stroke-width="0.94773" stroke-miterlimit="10"/>
<path d="M359.017 67.7109H273.342L272.211 78.2809H359.017V67.7109Z" stroke="#263238" stroke-width="0.94773" stroke-miterlimit="10"/>
<path d="M359.017 78.281H273.342L272.211 88.851H359.017V78.281Z" stroke="#263238" stroke-width="0.94773" stroke-miterlimit="10"/>
<path d="M359.017 88.8508H273.342L272.211 99.4208H359.017V88.8508Z" stroke="#263238" stroke-width="0.94773" stroke-miterlimit="10"/>
<path d="M359.017 99.4209H273.342L272.211 109.991H359.017V99.4209Z" stroke="#263238" stroke-width="0.94773" stroke-miterlimit="10"/>
<path d="M359.017 109.991H273.342L272.211 120.561H359.017V109.991Z" stroke="#263238" stroke-width="0.94773" stroke-miterlimit="10"/>
<path d="M359.017 120.561H273.342L272.211 131.131H359.017V120.561Z" stroke="#263238" stroke-width="0.94773" stroke-miterlimit="10"/>
<path d="M359.017 131.131H273.342L272.211 141.701H359.017V131.131Z" stroke="#263238" stroke-width="0.94773" stroke-miterlimit="10"/>
<path d="M359.017 141.701H273.342L272.211 152.271H359.017V141.701Z" stroke="#263238" stroke-width="0.94773" stroke-miterlimit="10"/>
<path d="M359.017 152.271H273.342L272.211 162.841H359.017V152.271Z" stroke="#263238" stroke-width="0.94773" stroke-miterlimit="10"/>
<path d="M359.017 162.841H273.342L272.211 173.411H359.017V162.841Z" stroke="#263238" stroke-width="0.94773" stroke-miterlimit="10"/>
<path d="M359.017 173.411H273.342L272.211 183.981H359.017V173.411Z" stroke="#263238" stroke-width="0.94773" stroke-miterlimit="10"/>
<path d="M359.017 183.981H273.342L272.211 194.551H359.017V183.981Z" stroke="#263238" stroke-width="0.94773" stroke-miterlimit="10"/>
<path d="M359.017 194.551H273.342L272.211 205.121H359.017V194.551Z" stroke="#263238" stroke-width="0.94773" stroke-miterlimit="10"/>
<path d="M359.017 205.121H273.342L272.211 215.691H359.017V205.121Z" stroke="#263238" stroke-width="0.94773" stroke-miterlimit="10"/>
<path d="M363.307 48.9509H182.145V56.9239H363.307V48.9509Z" stroke="#263238" stroke-width="0.94773" stroke-miterlimit="10"/>
<path d="M363.309 56.9309V197.365" stroke="#263238" stroke-width="0.94773" stroke-miterlimit="10"/>
<path d="M361.332 57.155V153.503" stroke="#263238" stroke-width="0.94773" stroke-miterlimit="10"/>
<path d="M364.586 197.05H362.152V200.627H364.586V197.05Z" fill="#263238" stroke="#263238" stroke-width="0.94773" stroke-miterlimit="10"/>
<path d="M362.395 152.74H359.961V156.317H362.395V152.74Z" fill="#263238" stroke="#263238" stroke-width="0.94773" stroke-miterlimit="10"/>
<path d="M329.698 315.133C332.818 306.397 345.408 270.214 345.408 261.87C345.408 252.371 341.656 251.146 334.488 249.27C327.319 247.394 267.899 248.353 260.731 249.886C253.563 251.419 250.482 257.586 249.117 263.067C247.884 268.044 236.371 307.433 234.133 315.098L329.698 315.133Z" fill="white" stroke="#263238" stroke-width="0.988167" stroke-linecap="round" stroke-linejoin="round"/>
<path d="M329.701 315.133C332.821 306.397 345.41 270.214 345.41 261.87C345.41 253.358 342.392 251.489 336.596 249.872L336.534 249.921C336.534 249.921 330.044 249.004 327.993 255.437C326.371 260.533 315.77 299.222 311.418 315.133H329.701Z" fill="#263238" stroke="#263238" stroke-width="0.988167" stroke-linecap="round" stroke-linejoin="round"/>
<path d="M130.622 266.798C130.622 266.798 136.862 272.398 141.963 274.064C147.064 275.73 153.031 273.364 153.031 273.364C153.031 273.364 149.248 263.669 140.606 259.308C131.964 254.947 128.461 261.954 130.622 266.798Z" fill="white" stroke="#263238" stroke-width="0.988167" stroke-linecap="round" stroke-linejoin="round"/>
<path d="M124.412 260.015C124.412 260.015 113.344 272.37 115.769 274.064C118.195 275.758 124.677 265.832 125.488 265.342C126.299 264.852 127.922 260.253 124.412 260.015Z" fill="white" stroke="#263238" stroke-width="0.988167" stroke-linecap="round" stroke-linejoin="round"/>
<path d="M129.809 256.382C129.809 256.382 126.026 254.681 124.412 256.382C122.797 258.083 123.632 263.648 123.866 267.764C124.1 271.88 124.95 278.187 127.649 276.731C130.347 275.275 130.082 263.648 130.082 260.981C130.088 259.445 129.997 257.909 129.809 256.382Z" fill="white" stroke="#263238" stroke-width="0.988167" stroke-linecap="round" stroke-linejoin="round"/>
<path d="M137.102 256.62C137.102 256.62 132.234 254.443 130.082 254.926C127.929 255.409 127.375 267.526 127.375 271.642C127.375 275.758 130.885 278.187 131.969 276.493C133.053 274.799 134.13 262.192 134.941 260.253C135.503 258.971 136.228 257.752 137.102 256.62Z" fill="white" stroke="#263238" stroke-width="0.988167" stroke-linecap="round" stroke-linejoin="round"/>
<path d="M197.341 276.731C197.341 276.731 195.991 274.792 185.196 272.853C174.401 270.914 159.815 267.526 158.192 266.798C156.57 266.07 143.575 257.6 139.8 255.654C136.025 253.708 134.395 256.354 133.56 259.042C132.725 261.73 130.05 274.064 130.315 275.275C130.58 276.486 133.014 278.187 133.825 276.493C134.636 274.799 138.146 265.104 138.419 264.131C138.692 263.158 147.327 271.887 149.488 273.826C151.648 275.765 154.074 276.976 157.046 276.976C158.67 276.989 160.293 276.907 161.905 276.731C161.905 276.731 191.6 294.42 197.005 296.597C202.411 298.774 206.989 296.114 207.527 294.665C208.066 293.216 208.612 284.487 205.64 281.365C202.668 278.243 197.341 276.731 197.341 276.731Z" fill="white" stroke="#263238" stroke-width="0.988167" stroke-linecap="round" stroke-linejoin="round"/>
<path d="M150.87 265.342C147.204 264.77 143.655 263.709 140.34 262.192C135.208 259.77 133.047 263.165 135.208 265.832C137.368 268.499 144.115 269.22 144.115 269.22C144.115 269.22 148.171 275.037 153.842 276.493C155.492 276.903 157.232 276.917 158.89 276.534C160.548 276.151 162.064 275.383 163.288 274.309" fill="white"/>
<path d="M150.87 265.342C147.204 264.77 143.655 263.709 140.34 262.192C135.208 259.77 133.047 263.165 135.208 265.832C137.368 268.499 144.115 269.22 144.115 269.22C144.115 269.22 148.171 275.037 153.842 276.493C155.492 276.903 157.232 276.917 158.89 276.534C160.548 276.151 162.064 275.383 163.288 274.309" stroke="#263238" stroke-width="0.988167" stroke-linecap="round" stroke-linejoin="round"/>
<path d="M206.756 238.21C206.756 238.21 196.764 268.254 199.463 270.676C202.161 273.098 211.342 279.153 212.723 277.676C214.103 276.199 218.12 264.103 218.12 257.082C218.12 250.061 208.643 233.849 206.756 238.21Z" fill="#8568F5" stroke="#263238" stroke-width="0.988167" stroke-linecap="round" stroke-linejoin="round"/>
<path d="M215.928 275.52C215.928 275.52 205.944 268.009 202.668 267.281C199.392 266.553 199.158 266.315 196.732 270.193C194.306 274.071 193.495 275.793 195.655 277.193C197.816 278.593 205.374 287.854 210.234 288.582C215.093 289.31 216.474 282.548 215.928 275.52Z" fill="#8568F5" stroke="#263238" stroke-width="0.988167" stroke-linecap="round" stroke-linejoin="round"/>
<path d="M195.992 315.133H301.62C302.501 312.095 308.71 290.493 310.98 280.364C313.413 269.465 317.735 231.182 317.735 224.882C317.735 218.582 317.462 202.482 313.14 196.182C308.819 189.882 291.004 176.799 279.663 171.682C268.322 166.565 259.383 162.232 253.478 161.749C247.574 161.266 225.936 177.254 219.158 191.31C219.158 191.31 205.898 200.032 204.845 205.604C203.792 211.176 203.769 217.819 206.468 230.419C209.166 243.019 210.266 251.3 210.266 251.3C210.266 251.3 200.274 277.942 198.902 288.848C197.693 298.774 196.242 312.711 195.992 315.133Z" fill="#8568F5" stroke="#263238" stroke-width="0.988167" stroke-linecap="round" stroke-linejoin="round"/>
<path d="M215.967 204.827C215.967 204.827 212.996 207.795 215.304 207.795C217.613 207.795 220.593 203.938 223.237 204.827C225.881 205.716 233.806 210.756 233.806 210.756C233.806 210.756 238.104 213.43 239.422 212.541C240.74 211.652 248.345 203.35 252.643 205.1C256.941 206.85 261.558 211.624 262.221 209.251C262.884 206.878 257.924 195.608 255.942 190.274C253.961 184.94 233.151 181.972 225.522 187.901C217.894 193.83 215.967 204.827 215.967 204.827Z" fill="#263238" stroke="#263238" stroke-width="0.988167" stroke-linecap="round" stroke-linejoin="round"/>
<path d="M237.622 214.424C237.622 214.424 234.83 215.915 234.83 226.093C234.882 232.813 235.333 239.526 236.179 246.204C236.179 246.204 233.754 246.904 234.027 248.381C234.3 249.858 238.075 250.082 238.075 250.082C238.075 250.082 219.987 287.182 218.902 308.231" stroke="#263238" stroke-width="0.988167" stroke-linecap="round" stroke-linejoin="round"/>
<path d="M253.617 244.118C254.779 244.055 255.903 244.02 256.971 244.02" stroke="#263238" stroke-width="0.988167" stroke-linecap="round" stroke-linejoin="round"/>
<path d="M221.602 249.109C221.602 249.109 236.734 245.609 249.448 244.426" stroke="#263238" stroke-width="0.988167" stroke-linecap="round" stroke-linejoin="round"/>
<path d="M228.895 251.776C228.895 251.776 246.172 248.381 258.324 247.898" stroke="#263238" stroke-width="0.988167" stroke-linecap="round" stroke-linejoin="round"/>
<path d="M220.975 188.902C220.975 188.902 218.238 195.524 215.71 200.438C213.183 205.352 209.392 207.998 211.709 208.187C214.026 208.376 221.607 202.895 223.503 201.187C225.398 199.479 229.189 205.156 230.671 207.235C232.153 209.314 236.568 214.795 237.621 214.417C238.674 214.039 250.046 200.809 252.152 198.919C254.258 197.029 259.741 208.558 262.9 210.819C266.059 213.08 264.796 208.362 264.375 205.527C263.953 202.692 262.269 179.627 260.163 169.043C258.057 158.459 250.888 154.105 247.098 153.727C243.307 153.349 236.958 153.727 233.198 158.074C229.438 162.421 220.975 188.902 220.975 188.902Z" fill="#8568F5" stroke="#263238" stroke-width="0.988167" stroke-linecap="round" stroke-linejoin="round"/>
<path d="M223.083 190.232C223.083 190.232 230.883 198.737 233.223 205.541C235.563 212.345 237.646 216.321 238.683 214.046C239.72 211.771 248.823 189.28 249.424 178.696C250.024 168.112 249.213 163.38 247.949 159.978C246.686 156.576 242.684 148.26 242.684 148.26C242.684 148.26 235.103 147.504 232.786 152.229C230.47 156.954 225.829 174.538 223.301 180.229C221.776 183.41 221.697 187 223.083 190.232Z" fill="white" stroke="#263238" stroke-width="0.988167" stroke-linecap="round" stroke-linejoin="round"/>
<path d="M241.024 160.3L233.325 154.784L228.754 163.8C226.796 170.1 224.714 177.037 223.294 180.215C221.765 183.403 221.689 187.002 223.084 190.239C225.705 193.159 228.073 196.255 230.166 199.5C238.216 185.283 241.024 160.3 241.024 160.3Z" fill="#263238" stroke="#263238" stroke-width="0.988167" stroke-linecap="round" stroke-linejoin="round"/>
<path d="M174.957 119.98C174.957 119.98 170.082 132.622 173.6 138.18C177.117 143.738 184.434 150.08 187.959 158.354C191.485 166.628 195.268 174.881 194.73 180.712C194.192 186.543 194.184 193.599 198.521 197.001C202.857 200.403 214.768 200.158 223.707 194.082C232.646 188.006 233.223 175.392 233.223 175.392C233.223 175.392 240.765 164.941 241.023 160.3C241.28 155.659 241.296 151.305 241.296 151.305C241.296 151.305 249.15 146.202 249.15 136.969C249.15 127.736 245.087 127.484 245.087 127.484C242.277 124.49 240.394 120.886 239.627 117.033C238.277 110.474 236.109 103.425 229.611 101.479C223.114 99.5329 206.859 103.425 196.571 108.773C186.282 114.121 174.957 119.98 174.957 119.98Z" fill="white" stroke="#263238" stroke-width="0.988167" stroke-linecap="round" stroke-linejoin="round"/>
<path d="M186.063 123.382C184.673 122.214 182.937 121.432 181.063 121.13C179.189 120.829 177.258 121.02 175.502 121.681C168.997 123.872 168.186 130.921 168.186 130.921C168.186 130.921 163.038 129.22 163.038 126.546V122.171C163.038 122.171 157.897 126.056 159.247 129.458C160.222 131.602 162.06 133.338 164.395 134.323C164.395 134.323 154.107 133.833 150.854 128.723C147.601 123.613 153.834 118.517 153.834 118.517L150.308 118.3C150.308 118.3 154.107 113.442 159.52 112.224C164.933 111.006 167.647 111.524 167.647 111.524L162.772 109.823C162.772 109.823 167.913 105.448 172.249 104.72C174.557 104.289 176.916 104.124 179.269 104.23C179.269 104.23 196.055 93.0299 210.953 92.0779C225.851 91.1259 238.035 97.9159 241.552 104.958C245.07 112 245.078 123.676 245.078 125.622V127.561C245.078 127.561 239.618 127.561 238.308 130.48C236.997 133.399 238.846 137.284 236.677 138.257C234.509 139.23 230.726 137.046 229.096 134.855C227.466 132.664 228.831 129.752 226.927 128.555C225.024 127.358 218.262 129.255 214.206 126.854C210.15 124.453 211.226 116.403 213.426 113.491C215.625 110.579 228.324 105.714 227.512 104.013C226.701 102.312 213.972 110.089 211.803 112.518C209.635 114.947 201.78 120.05 196.367 121.751C193.044 122.759 189.57 123.308 186.063 123.382Z" fill="#263238" stroke="#263238" stroke-width="0.988167" stroke-linecap="round" stroke-linejoin="round"/>
<path d="M236.702 138.208C238.87 137.235 236.975 133.35 238.332 130.431C239.689 127.512 245.102 127.512 245.102 127.512V125.573C245.135 120.608 244.631 115.652 243.597 110.775C238.917 110.775 234.525 111.426 231.117 112.966C226.616 114.982 229.994 114.478 233.363 115.997C236.733 117.516 227.178 118.013 220.439 121.037C213.699 124.061 214.253 126.784 214.253 126.784C218.309 129.22 225.08 127.274 226.975 128.485C228.87 129.696 227.521 132.622 229.143 134.785C230.766 136.948 234.541 139.181 236.702 138.208Z" fill="white" stroke="#8C8C8C" stroke-width="0.988167" stroke-linecap="round" stroke-linejoin="round"/>
<path d="M238.628 129.731C238.467 129.674 238.29 129.663 238.122 129.701C237.954 129.738 237.804 129.822 237.692 129.941L226.312 141.841C226.209 141.951 226.142 142.086 226.121 142.229C226.099 142.372 226.124 142.518 226.191 142.649C226.257 142.78 226.365 142.891 226.499 142.97C226.634 143.049 226.791 143.092 226.951 143.094C227.073 143.095 227.194 143.071 227.304 143.025C227.415 142.979 227.513 142.912 227.591 142.828L237.801 132.146C237.844 131.291 238.129 130.46 238.628 129.731Z" fill="#263238"/>
<path d="M225.103 166.6C219.377 164.941 207.007 166.103 204.417 167.762C204.417 167.762 197.545 172.354 194.082 174.531C194.636 176.559 194.854 178.648 194.729 180.733C194.183 186.571 194.183 193.62 198.52 197.022C202.857 200.424 214.768 200.179 223.706 194.103C232.645 188.027 233.222 175.392 233.222 175.392C233.222 175.392 230.836 168.266 225.103 166.6Z" fill="#263238" stroke="#263238" stroke-width="0.988167" stroke-linecap="round" stroke-linejoin="round"/>
<path d="M200.164 174.566C200.164 174.566 201.88 178.003 209.181 178.003C216.482 178.003 218.728 169.939 218.728 169.939C218.728 169.939 212.55 167.419 207.496 168.427C202.442 169.435 200.164 174.566 200.164 174.566Z" fill="white" stroke="#263238" stroke-width="0.988167" stroke-linecap="round" stroke-linejoin="round"/>
<path d="M190.323 147.357C190.846 148.694 190.651 149.975 189.879 150.22C189.107 150.465 188.061 149.569 187.539 148.232C187.016 146.895 187.211 145.607 187.983 145.369C188.756 145.131 189.77 146.013 190.323 147.357Z" fill="#263238"/>
<path d="M209.137 143.542C209.66 144.879 209.457 146.16 208.693 146.405C207.928 146.65 206.875 145.761 206.353 144.417C205.83 143.073 206.033 141.799 206.805 141.554C207.577 141.309 208.615 142.205 209.137 143.542Z" fill="#263238"/>
<path d="M173.871 151.578L226.911 142.338C226.911 142.338 228.541 150.85 225.562 152.789C222.582 154.728 210.664 156.198 207.419 155.953C204.174 155.708 200.399 148.953 200.399 148.953L196.865 149.653C196.871 151.114 196.962 152.575 197.138 154.028C197.301 155.156 197.392 156.292 197.411 157.43V157.675C194.952 159.064 192.188 159.959 189.307 160.3C184.167 161.056 177.662 162.757 173.871 151.578Z" stroke="#263238" stroke-width="1.97633" stroke-linecap="round" stroke-linejoin="round"/>
<path d="M196.89 149.632L196.531 148.05" stroke="#263238" stroke-width="1.97633" stroke-linecap="round" stroke-linejoin="round"/>
<path d="M200.421 148.953L199.797 147.371" stroke="#263238" stroke-width="1.97633" stroke-linecap="round" stroke-linejoin="round"/>
<path d="M178.3 144.34C178.164 144.393 178.048 144.481 177.965 144.592L173.16 151.2C173.078 151.314 173.031 151.445 173.024 151.581C173.018 151.717 173.052 151.852 173.124 151.972C173.196 152.091 173.303 152.191 173.432 152.261C173.562 152.331 173.711 152.368 173.862 152.369C174.003 152.369 174.141 152.338 174.265 152.278C174.389 152.218 174.495 152.131 174.572 152.026L179.252 145.565L178.3 144.34Z" fill="#263238"/>
<path d="M197.379 150.78C197.379 150.78 198.221 161.868 199.625 164.388C201.029 166.908 212.55 164.388 213.392 162.624C214.235 160.86 212.55 158.844 212.55 158.844H209.742" stroke="#263238" stroke-width="0.988167" stroke-linecap="round" stroke-linejoin="round"/>
<path d="M190.011 141.743C189.277 141.317 188.435 141.063 187.563 141.005C186.691 140.946 185.817 141.084 185.019 141.407C182.438 142.569 180.956 145.054 180.215 145.054C179.474 145.054 179.848 140.749 182.804 139.09C185.76 137.431 189.637 139.587 190.378 140.413C191.119 141.239 190.745 142.1 190.011 141.743Z" fill="#263238" stroke="#263238" stroke-width="0.988167" stroke-linecap="round" stroke-linejoin="round"/>
<path d="M210.993 136.01C210.46 135.388 209.761 134.897 208.961 134.583C208.16 134.268 207.284 134.14 206.414 134.211C203.544 134.533 201.235 136.437 200.533 136.213C199.831 135.989 201.781 132.013 205.213 131.355C208.645 130.697 211.453 133.868 211.866 134.855C212.28 135.842 211.57 136.542 210.993 136.01Z" fill="#263238" stroke="#263238" stroke-width="0.988167" stroke-linecap="round" stroke-linejoin="round"/>
<path d="M187.785 152.852C187.785 152.852 192.223 151.69 194.805 148.869" stroke="#263238" stroke-width="0.988167" stroke-linecap="round" stroke-linejoin="round"/>
<path d="M204.418 147.049C204.418 147.049 207.187 148.54 212.912 148.043" stroke="#263238" stroke-width="0.988167" stroke-linecap="round" stroke-linejoin="round"/>
<path d="M199.627 164.388C197.842 166.291 195.857 168.035 193.699 169.596C191.117 171.248 188.161 171.416 188.348 172.578C188.536 173.74 195.181 176.078 200.165 174.566C205.149 173.054 207.185 170.751 207.185 170.751C208.694 171.866 210.442 172.69 212.32 173.171C214.199 173.653 216.168 173.782 218.105 173.551C224.571 172.725 230.858 166.257 231.592 164.766C232.325 163.275 230.117 165.76 224.572 164.927C220.81 164.333 217.086 163.557 213.417 162.603C213.417 162.603 211.46 163.933 207.029 164.927C202.599 165.921 200.384 164.5 199.627 164.388Z" fill="#263238" stroke="#263238" stroke-width="0.988167" stroke-linecap="round" stroke-linejoin="round"/>
<path d="M195.273 129.164C195.273 129.164 200.538 122.738 207.075 126.14" stroke="#263238" stroke-width="0.988167" stroke-linecap="round" stroke-linejoin="round"/>
<path d="M156.782 268.737C156.782 268.737 152.461 268.982 149.497 267.043C146.533 265.104 143.553 266.553 143.257 268.492C142.96 270.431 145.682 274.092 148.919 275.275C152.156 276.458 160.261 276.248 162.179 276.493C164.098 276.738 167.039 280.854 172.702 282.793C178.364 284.732 187.288 284.249 187.288 284.249C187.288 284.249 187.015 276.255 184.043 272.349C181.071 268.443 171.087 264.355 166.493 266.049C163.34 267.173 160.092 268.072 156.782 268.737Z" fill="white" stroke="#263238" stroke-width="0.988167" stroke-linecap="round" stroke-linejoin="round"/>
<path d="M162.242 263.403C162.242 263.403 158.732 263.648 157.11 265.587C155.487 267.526 150.09 278.187 150.09 281.337C150.09 284.487 151.977 288.12 153.327 286.426C154.676 284.732 154.918 279.153 156.002 276.5C157.086 273.847 162.484 265.839 163.295 265.349C164.106 264.859 163.022 263.2 162.242 263.403Z" fill="white" stroke="#263238" stroke-width="0.988167" stroke-linecap="round" stroke-linejoin="round"/>
<path d="M170.042 262.192C170.042 262.192 165.721 260.015 163.568 260.981C161.415 261.947 158.435 272.615 158.162 275.765C157.889 278.915 158.942 290.542 162.218 290.297C165.494 290.052 163.802 282.8 163.802 277.942C163.802 273.084 169.199 266.042 169.199 266.042L170.042 262.192Z" fill="white" stroke="#263238" stroke-width="0.988167" stroke-linecap="round" stroke-linejoin="round"/>
<path d="M275.871 267.526C275.871 267.526 274.786 270.193 257.509 271.642C240.232 273.091 201.622 275.275 200.811 275.275C200 275.275 182.996 265.104 178.137 262.192C173.277 259.28 170.337 259.532 168.145 261.492C165.953 263.452 161.125 276.024 161.398 277.963C161.671 279.902 162.747 288.624 164.635 289.352C166.522 290.08 167.068 288.652 167.068 286.202C167.068 283.752 166.522 275.541 166.522 275.541L173.815 269.724C173.815 269.724 183.807 285.957 191.365 287.413C195.729 288.307 200.262 288.307 204.625 287.413C204.625 287.413 243.228 299.313 266.721 299.53C290.215 299.747 306.135 301.952 309.379 293.93C312.624 285.908 288.046 268.03 285.075 267.036C282.103 266.042 275.871 267.526 275.871 267.526Z" fill="white" stroke="#263238" stroke-width="0.988167" stroke-linecap="round" stroke-linejoin="round"/>
<path d="M183.535 270.676C183.535 270.676 177.295 266.07 175.439 266.315C173.582 266.56 167.639 270.193 165.174 271.404C162.709 272.615 158.427 275.275 155.728 278.67C153.029 282.065 155.455 283.759 156.805 282.548C158.154 281.337 163.045 277.459 164.098 276.731C165.151 276.003 173.278 272.615 173.278 272.615L186.234 281.337" fill="white"/>
<path d="M183.535 270.676C183.535 270.676 177.295 266.07 175.439 266.315C173.582 266.56 167.639 270.193 165.174 271.404C162.709 272.615 158.427 275.275 155.728 278.67C153.029 282.065 155.455 283.759 156.805 282.548C158.154 281.337 163.045 277.459 164.098 276.731C165.151 276.003 173.278 272.615 173.278 272.615L186.234 281.337" stroke="#263238" stroke-width="0.988167" stroke-linecap="round" stroke-linejoin="round"/>
<path d="M287.206 203C287.206 203 276.949 207.949 276.676 217.399C276.403 226.849 278.572 258.587 278.572 258.587C278.572 258.587 275.062 263.431 279.648 266.343C284.234 269.255 310.7 283.304 314.21 278.698C317.72 274.092 321.768 243.082 321.768 221.032C321.768 198.982 317.174 199.612 314.21 195.734C311.246 191.856 305.84 190.645 305.84 190.645" fill="#8568F5"/>
<path d="M287.206 203C287.206 203 276.949 207.949 276.676 217.399C276.403 226.849 278.572 258.587 278.572 258.587C278.572 258.587 275.062 263.431 279.648 266.343C284.234 269.255 310.7 283.304 314.21 278.698C317.72 274.092 321.768 243.082 321.768 221.032C321.768 198.982 317.174 199.612 314.21 195.734C311.246 191.856 305.84 190.645 305.84 190.645" stroke="#263238" stroke-width="0.988167" stroke-linecap="round" stroke-linejoin="round"/>
<path d="M300.171 261.226C300.171 261.226 282.348 255.892 279.649 256.137C276.95 256.382 276.677 260.015 273.409 263.403C270.141 266.791 270.429 269.773 271.506 270.263C272.582 270.753 286.193 273.112 295.101 281.351C304.008 289.59 303.915 298.536 307.16 298.298C310.404 298.06 310.67 293.692 313.4 286.664C316.13 279.636 319.335 274.309 317.175 269.22C315.014 264.131 300.171 261.226 300.171 261.226Z" fill="#8568F5" stroke="#263238" stroke-width="0.988167" stroke-linecap="round" stroke-linejoin="round"/>
<path d="M272.902 264.859C272.902 264.859 290.718 263.403 302.059 271.404" stroke="#263238" stroke-width="0.988167" stroke-linecap="round" stroke-linejoin="round"/>
<path d="M284.781 262.682C284.781 262.682 300.709 264.859 306.918 271.642" stroke="#263238" stroke-width="0.988167" stroke-linecap="round" stroke-linejoin="round"/>
<path d="M233.738 315.133H241.99C276.537 305.48 325.801 313.733 326.301 313.845C327.245 314.058 328.228 314.096 329.19 313.956C330.151 313.817 331.071 313.502 331.892 313.033C332.714 312.563 333.42 311.948 333.968 311.226C334.515 310.503 334.893 309.687 335.077 308.829C335.261 307.971 335.249 307.088 335.04 306.234C334.831 305.38 334.43 304.574 333.862 303.864C333.294 303.154 332.57 302.556 331.735 302.105C330.901 301.655 329.972 301.362 329.007 301.245C326.753 300.853 273.424 291.865 235.181 303.618C233.896 304.009 232.762 304.721 231.911 305.669C231.06 306.618 230.528 307.764 230.377 308.975C230.225 310.185 230.461 311.408 231.056 312.503C231.652 313.597 232.582 314.517 233.738 315.154V315.133Z" fill="white" stroke="#263238" stroke-width="0.988167" stroke-linecap="round" stroke-linejoin="round"/>
<path d="M239.549 315.133H247.794C282.34 305.48 331.605 313.733 332.112 313.845C333.057 314.059 334.042 314.098 335.004 313.959C335.967 313.82 336.888 313.506 337.71 313.036C338.533 312.566 339.24 311.951 339.788 311.227C340.336 310.504 340.714 309.687 340.898 308.828C341.082 307.968 341.069 307.084 340.859 306.23C340.648 305.375 340.246 304.568 339.676 303.858C339.106 303.149 338.381 302.55 337.544 302.101C336.707 301.652 335.777 301.36 334.811 301.245C332.564 300.853 279.228 291.865 240.985 303.618C239.7 304.01 238.567 304.722 237.717 305.671C236.867 306.62 236.335 307.767 236.185 308.977C236.034 310.187 236.271 311.41 236.867 312.504C237.462 313.598 238.393 314.517 239.549 315.154V315.133Z" fill="#263238" stroke="#263238" stroke-width="0.988167" stroke-linecap="round" stroke-linejoin="round"/>
<path d="M272.113 302.309C272.113 302.309 278.946 300.706 278.494 291.872C278.041 283.038 277.604 276.605 284.734 274.197C291.863 271.789 308.009 269.374 308.454 260.939C308.548 258.163 308.123 255.392 307.198 252.742" stroke="#263238" stroke-width="0.988167" stroke-linecap="round" stroke-linejoin="round"/>
<path d="M284.996 284.095C285.066 278.264 286.228 274.064 291.47 272.195C298.638 269.612 314.745 267.029 315.198 257.985C315.65 248.941 310.268 245.504 314.301 236.46" stroke="#263238" stroke-width="0.988167" stroke-linecap="round" stroke-linejoin="round"/>
<path d="M273.57 302.309C273.57 302.309 285.652 300.587 285.208 291.109C285.161 290.178 285.122 289.275 285.083 288.393" stroke="#263238" stroke-width="0.988167" stroke-linecap="round" stroke-linejoin="round"/>
<path d="M315.348 234.451C316.741 233.094 318.356 231.935 320.137 231.014" stroke="#263238" stroke-width="0.988167" stroke-linecap="round" stroke-linejoin="round"/>
<path d="M268.569 289.8L272.055 292.803C271.973 293.992 271.973 295.184 272.055 296.373C272.219 297.157 273.881 299.173 273.881 299.173C273.881 299.173 274.427 301.028 272.921 301.595C271.416 302.162 269.575 302.946 269.466 301.91C269.357 300.874 268.873 300.307 268.28 298.697C267.687 297.087 267.251 296.275 267.648 295.561L268.054 294.861L265.199 293.153C265.199 293.153 266.104 289.198 268.569 289.8Z" fill="white" stroke="#263238" stroke-width="0.988167" stroke-linecap="round" stroke-linejoin="round"/>
<path d="M265.199 293.153L267.789 294.644C269.887 292.495 272.071 292.775 272.071 292.775L268.569 289.8C266.104 289.198 265.199 293.153 265.199 293.153Z" fill="#8F8F8F" stroke="#263238" stroke-width="0.988167" stroke-linecap="round" stroke-linejoin="round"/>
<path d="M248.5 303.282L250.746 301.014C250.746 301.014 254.116 301.014 254.958 300.006C256.524 298.35 258.431 296.981 260.574 295.974C262.54 295.218 265.348 297.234 267.033 297.486C268.718 297.738 270.933 297.99 270.933 297.99C271.173 298.465 271.298 298.98 271.298 299.502C271.298 300.023 271.173 300.539 270.933 301.014L270.09 302.526L262.86 300.51C262.86 300.51 259.49 300.51 257.805 301.518C256.121 302.526 255.84 304.318 253.905 304.318C252.064 304.17 250.248 303.822 248.5 303.282Z" fill="white" stroke="#263238" stroke-width="0.988167" stroke-linecap="round" stroke-linejoin="round"/>
<path d="M267.035 297.5C265.787 297.311 263.915 296.149 262.223 295.876C262.853 297 263.063 298.276 262.823 299.516C262.753 299.866 262.667 300.216 262.574 300.531H262.862L270.171 302.547L270.974 301C271.215 300.525 271.339 300.01 271.339 299.488C271.339 298.966 271.215 298.451 270.974 297.976C270.974 297.976 268.72 297.738 267.035 297.5Z" fill="#8F8F8F" stroke="#263238" stroke-width="0.988167" stroke-linecap="round" stroke-linejoin="round"/>
<path d="M267.852 303.597L265.606 301.329C265.606 301.329 262.236 301.329 261.394 300.321C259.829 298.665 257.922 297.296 255.778 296.289C253.805 295.533 250.997 297.549 249.312 297.801C247.627 298.053 245.412 298.305 245.412 298.305C245.171 298.78 245.047 299.295 245.047 299.817C245.047 300.339 245.171 300.854 245.412 301.329L246.254 302.841L253.555 300.825C253.555 300.825 256.932 300.825 258.617 301.833C260.302 302.841 260.583 304.633 262.517 304.633C264.335 304.48 266.127 304.132 267.852 303.597Z" fill="white" stroke="#263238" stroke-width="0.988167" stroke-linecap="round" stroke-linejoin="round"/>
<path d="M249.312 297.801C250.568 297.612 252.432 296.457 254.124 296.177C253.499 297.302 253.289 298.577 253.524 299.817C253.602 300.174 253.688 300.517 253.781 300.832H253.5L246.2 302.848L245.357 301.336C245.117 300.861 244.992 300.346 244.992 299.824C244.992 299.302 245.117 298.787 245.357 298.312C245.357 298.312 247.627 298.053 249.312 297.801Z" fill="#8F8F8F" stroke="#263238" stroke-width="0.988167" stroke-linecap="round" stroke-linejoin="round"/>
<path d="M270.973 301L273.781 297.5C275.091 297.403 276.393 297.235 277.681 296.996C278.523 296.744 280.489 294.98 280.489 294.98C280.489 294.98 282.454 294.224 283.297 295.484C284.139 296.744 285.262 298.284 284.139 298.508C283.016 298.732 282.454 299.264 280.769 300.02C279.085 300.776 278.242 301.28 277.4 301.028L276.557 300.776L275.153 303.576C275.153 303.576 270.661 303.282 270.973 301Z" fill="white" stroke="#263238" stroke-width="0.988167" stroke-linecap="round" stroke-linejoin="round"/>
<path d="M275.184 303.534L276.456 301.021C273.78 299.46 273.78 297.521 273.78 297.521L270.972 301.021C270.66 303.282 275.184 303.534 275.184 303.534Z" fill="#8F8F8F" stroke="#263238" stroke-width="0.988167" stroke-linecap="round" stroke-linejoin="round"/>
<path d="M283.187 298.158L287.804 296.891C288.917 297.536 290.074 298.118 291.267 298.634C292.11 298.893 294.863 298.571 294.863 298.571C294.863 298.571 296.938 299.04 296.751 300.503C296.564 301.966 296.431 303.779 295.37 303.366C294.309 302.953 293.522 303.044 291.673 302.722C289.824 302.4 288.81 302.344 288.311 301.686L287.82 301L284.825 302.4C284.825 302.4 281.424 299.803 283.187 298.158Z" fill="white" stroke="#263238" stroke-width="0.988167" stroke-linecap="round" stroke-linejoin="round"/>
<path d="M284.818 302.456L287.532 301.161C286.463 298.459 287.805 296.891 287.805 296.891L283.187 298.158C281.425 299.803 284.818 302.456 284.818 302.456Z" fill="#8F8F8F" stroke="#263238" stroke-width="0.988167" stroke-linecap="round" stroke-linejoin="round"/>
<path d="M298.866 301.518H241.941C240.597 301.518 239.508 302.496 239.508 303.702V312.949C239.508 314.155 240.597 315.133 241.941 315.133H298.866C300.21 315.133 301.299 314.155 301.299 312.949V303.702C301.299 302.496 300.21 301.518 298.866 301.518Z" fill="white" stroke="#263238" stroke-width="0.988167" stroke-linecap="round" stroke-linejoin="round"/>
<path d="M288.297 301.476H295.254V306.551C295.254 307.236 294.951 307.893 294.411 308.377C293.872 308.862 293.14 309.134 292.376 309.134H291.175C290.412 309.134 289.68 308.862 289.14 308.377C288.6 307.893 288.297 307.236 288.297 306.551V301.476Z" fill="white" stroke="#263238" stroke-width="0.988167" stroke-linecap="round" stroke-linejoin="round"/>
<path d="M244.18 301.476H251.161V306.551C251.161 307.236 250.857 307.893 250.318 308.377C249.778 308.862 249.046 309.134 248.282 309.134H247.074C246.31 309.134 245.578 308.862 245.038 308.377C244.499 307.893 244.195 307.236 244.195 306.551V301.476H244.18Z" fill="white" stroke="#263238" stroke-width="0.988167" stroke-linecap="round" stroke-linejoin="round"/>
<path d="M94.8555 262.633H115.44C118.185 266.681 119.831 271.251 120.244 275.975H98.7477L94.8555 262.633Z" fill="#D6D6D6" stroke="#263238" stroke-width="0.988167" stroke-linecap="round" stroke-linejoin="round"/>
<path d="M103.636 274.981C103.636 274.981 98.176 258.433 89.596 257.824C75.7744 256.823 52.0234 258.433 52.0234 258.433C52.0234 258.433 71.1958 265.79 72.2254 278.971H105.687L103.636 274.981Z" fill="#D6D6D6" stroke="#263238" stroke-width="0.988167" stroke-linecap="round" stroke-linejoin="round"/>
<path d="M89.6362 257.824C87.4627 257.309 85.1543 257.526 83.1466 258.433C80.0734 259.966 73.2484 268.548 73.2484 268.548H35.6758C35.6758 268.548 44.5522 261.499 52.0558 258.433C59.5594 255.367 79.426 255.955 89.6362 257.824Z" fill="white" stroke="#263238" stroke-width="0.988167" stroke-linecap="round" stroke-linejoin="round"/>
<path d="M56.8524 273.448H111.952C113.732 273.446 115.488 273.815 117.081 274.527C118.674 275.239 120.061 276.274 121.132 277.55C125.555 282.821 134.306 291.655 145.312 294.595C155.343 297.276 162.308 297.325 166.123 296.982C166.563 296.947 167.006 296.996 167.423 297.127C167.84 297.257 168.222 297.466 168.543 297.738C168.864 298.011 169.116 298.342 169.284 298.708C169.452 299.075 169.531 299.47 169.516 299.866C169.352 303.366 168.775 308.504 166.825 310.842C164.874 313.077 162.086 314.602 158.978 315.133H53.4438C53.4438 315.133 43.1946 311.451 45.5892 300.727C47.9838 290.003 56.8524 273.448 56.8524 273.448Z" fill="#263238" stroke="#263238" stroke-width="0.988167" stroke-linecap="round" stroke-linejoin="round"/>
<path d="M77.9989 273.448H133.098C134.877 273.446 136.632 273.816 138.224 274.528C139.816 275.24 141.201 276.275 142.271 277.55C146.693 282.821 155.445 291.655 166.451 294.595C176.482 297.276 183.439 297.325 187.253 296.982C187.694 296.947 188.137 296.996 188.554 297.127C188.971 297.257 189.353 297.466 189.674 297.738C189.995 298.011 190.247 298.342 190.415 298.708C190.582 299.075 190.661 299.47 190.646 299.866C190.49 303.366 189.913 308.504 187.963 310.842C186.01 313.078 183.219 314.603 180.109 315.133H74.6137C74.6137 315.133 64.3723 311.451 66.7591 300.727C69.1459 290.003 77.9989 273.448 77.9989 273.448Z" fill="white" stroke="#263238" stroke-width="0.988167" stroke-linecap="round" stroke-linejoin="round"/>
<path d="M111.966 293.489C115.433 290.378 115.433 285.335 111.966 282.224C108.5 279.113 102.88 279.113 99.4133 282.224C95.9468 285.335 95.9468 290.378 99.4133 293.489C102.88 296.6 108.5 296.6 111.966 293.489Z" fill="white" stroke="#263238" stroke-width="0.988167" stroke-linecap="round" stroke-linejoin="round"/>
<path d="M114.697 293.486C118.163 290.375 118.163 285.331 114.697 282.22C111.23 279.109 105.61 279.109 102.144 282.22C98.6773 285.331 98.6773 290.375 102.144 293.486C105.61 296.597 111.23 296.597 114.697 293.486Z" fill="#263238" stroke="#263238" stroke-width="0.988167" stroke-linecap="round" stroke-linejoin="round"/>
</svg>
