<svg width="391" height="246" viewBox="0 0 391 246" fill="none" xmlns="http://www.w3.org/2000/svg">
<g clip-path="url(#clip0_660_2860)">
<rect width="390.667" height="246" transform="translate(0.332031)" fill="#8468F5" fill-opacity="0.2"/>
<path d="M359.322 169.89H262.922C261.2 169.89 259.797 168.575 259.797 166.96V35.3249C259.797 33.7099 261.2 32.3949 262.922 32.3949H359.322C361.045 32.3949 362.448 33.7099 362.448 35.3249V166.96C362.448 168.575 361.045 169.89 359.322 169.89ZM262.928 32.5199C261.28 32.5199 259.936 33.7799 259.936 35.3249V166.96C259.936 168.505 261.28 169.765 262.928 169.765H359.328C360.976 169.765 362.32 168.505 362.32 166.96V35.3249C362.32 33.7799 360.976 32.5199 359.328 32.5199H262.928Z" fill="#E0E0E0"/>
<path d="M248.166 169.89H151.766C150.043 169.89 148.641 168.575 148.641 166.96V35.3249C148.641 33.7099 150.043 32.3949 151.766 32.3949H248.166C249.889 32.3949 251.291 33.7099 251.291 35.3249V166.96C251.291 168.575 249.889 169.89 248.166 169.89ZM151.766 32.5199C150.118 32.5199 148.774 33.7799 148.774 35.3249V166.96C148.774 168.505 150.118 169.765 151.766 169.765H248.166C249.814 169.765 251.158 168.505 251.158 166.96V35.3249C251.158 33.7799 249.814 32.5199 248.166 32.5199H151.766Z" fill="#E0E0E0"/>
<path d="M137.071 169.89H40.6761C38.9534 169.89 37.5508 168.575 37.5508 166.96V35.3249C37.5508 33.7099 38.9534 32.3949 40.6761 32.3949H137.076C138.799 32.3949 140.201 33.7099 140.201 35.3249V166.96C140.201 168.575 138.799 169.89 137.076 169.89H137.071ZM40.6761 32.5199C39.0281 32.5199 37.6841 33.7799 37.6841 35.3249V166.96C37.6841 168.505 39.0281 169.765 40.6761 169.765H137.076C138.724 169.765 140.068 168.505 140.068 166.96V35.3249C140.068 33.7799 138.724 32.5199 137.076 32.5199H40.6761Z" fill="#E0E0E0"/>
<path d="M400 200.425H0V200.485H400V200.425Z" fill="#E0E0E0"/>
<path d="M378.328 215.115H348.605V215.325H378.328V215.115Z" fill="#EBEBEB"/>
<path d="M271.826 217.395H264.023V217.605H271.826V217.395Z" fill="#EBEBEB"/>
<path d="M60.4331 208.715H21.6758V208.925H60.4331V208.715Z" fill="#EBEBEB"/>
<path d="M74.115 208.715H68.4297V208.925H74.115V208.715Z" fill="#EBEBEB"/>
<path d="M176.641 212.27H92.582V212.48H176.641V212.27Z" fill="#EBEBEB"/>
<path d="M157.557 42.9249H123.227V84.2199H157.557V42.9249Z" fill="#E6E6E6"/>
<path d="M155.872 42.9249H115.547V84.2199H155.872V42.9249Z" fill="#F0F0F0"/>
<path d="M151.98 46.595H119.266V80.55H151.98V46.595Z" fill="white"/>
<path d="M141.82 57.4449H130.012V69.7049H141.82V57.4449Z" fill="#F0F0F0"/>
<path d="M303.221 42.75H268.891V84.045H303.221V42.75Z" fill="#E6E6E6"/>
<path d="M301.536 42.75H261.211V84.045H301.536V42.75Z" fill="#F0F0F0"/>
<path d="M297.644 46.415H264.93V80.37H297.644V46.415Z" fill="white"/>
<path d="M287.484 57.265H275.676V69.525H287.484V57.265Z" fill="#F0F0F0"/>
<path d="M76.1843 17.0699H37.043V24.2049H76.1843V17.0699Z" fill="#F0F0F0"/>
<path d="M73.3442 24.205H39.8828V27.86H73.3442V24.205Z" fill="#E0E0E0"/>
<path d="M69.8621 27.86H43.3555V191.225H69.8621V27.86Z" fill="#F0F0F0"/>
<path d="M66.6268 27.86H46.6055V191.225H66.6268V27.86Z" fill="#E0E0E0"/>
<path d="M60.7019 27.86H52.5312V191.225H60.7019V27.86Z" fill="#F0F0F0"/>
<path d="M76.1804 194.89H37.0391V202.025H76.1804V194.89Z" fill="#F0F0F0"/>
<path d="M73.3442 191.225H39.8828V194.89H73.3442V191.225Z" fill="#E0E0E0"/>
<path d="M225.13 17.0699H185.988V24.2049H225.13V17.0699Z" fill="#F0F0F0"/>
<path d="M222.289 24.205H188.828V27.86H222.289V24.205Z" fill="#E0E0E0"/>
<path d="M218.811 27.86H192.305V191.225H218.811V27.86Z" fill="#F0F0F0"/>
<path d="M215.572 27.86H195.551V191.225H215.572V27.86Z" fill="#E0E0E0"/>
<path d="M209.647 27.86H201.477V191.225H209.647V27.86Z" fill="#F0F0F0"/>
<path d="M225.126 194.89H185.984V202.025H225.126V194.89Z" fill="#F0F0F0"/>
<path d="M222.289 191.225H188.828V194.89H222.289V191.225Z" fill="#E0E0E0"/>
<path d="M357.993 17.0699H318.852V24.2049H357.993V17.0699Z" fill="#F0F0F0"/>
<path d="M355.153 24.205H321.691V27.86H355.153V24.205Z" fill="#E0E0E0"/>
<path d="M351.671 27.86H325.164V191.225H351.671V27.86Z" fill="#F0F0F0"/>
<path d="M348.431 27.86H328.41V191.225H348.431V27.86Z" fill="#E0E0E0"/>
<path d="M342.511 27.86H334.34V191.225H342.511V27.86Z" fill="#F0F0F0"/>
<path d="M357.989 194.89H318.848V202.025H357.989V194.89Z" fill="#F0F0F0"/>
<path d="M355.153 191.225H321.691V194.89H355.153V191.225Z" fill="#E0E0E0"/>
<path d="M311.403 236.525C311.403 238.22 261.526 239.59 200 239.59C138.475 239.59 88.5977 238.215 88.5977 236.525C88.5977 234.835 138.475 233.46 200 233.46C261.526 233.46 311.403 234.835 311.403 236.525Z" fill="#F5F5F5"/>
<path d="M146.811 53.12H131.488C129.529 53.12 127.941 54.6086 127.941 56.445V66.585C127.941 68.4213 129.529 69.91 131.488 69.91H146.811C148.77 69.91 150.357 68.4213 150.357 66.585V56.445C150.357 54.6086 148.77 53.12 146.811 53.12Z" fill="#8568F5"/>
<path d="M133.931 61.005C133.787 61.895 134.587 62.645 135.536 62.51C136.128 62.425 136.608 61.975 136.699 61.42C136.843 60.535 136.043 59.78 135.094 59.915C134.502 60 134.022 60.45 133.931 61.005Z" fill="white"/>
<path d="M138.185 61.005C138.041 61.895 138.841 62.645 139.79 62.51C140.382 62.425 140.862 61.975 140.953 61.42C141.097 60.535 140.297 59.78 139.347 59.915C138.755 60 138.275 60.45 138.185 61.005Z" fill="white"/>
<path d="M142.447 61.005C142.303 61.895 143.103 62.645 144.052 62.51C144.644 62.425 145.124 61.975 145.215 61.42C145.359 60.535 144.559 59.78 143.609 59.915C143.017 60 142.537 60.45 142.447 61.005Z" fill="white"/>
<path d="M133.031 69.23V73.365L137.442 68.275L133.031 69.23Z" fill="#8568F5"/>
<path d="M131.215 52.535H141.887C142.143 52.535 142.143 52.16 141.887 52.16H131.215C130.959 52.16 130.959 52.535 131.215 52.535Z" fill="#8568F5"/>
<path d="M266.224 84.24C266.224 84.24 267.141 80.57 265.456 73.92C265.456 73.915 265.835 73.775 265.835 73.77C265.605 72.84 265.349 71.98 265.109 71.235C265.109 71.215 265.109 71.205 265.109 71.205L274.384 77.185C274.048 79.27 274.64 83.36 275.035 85.09C275.035 85.09 276.08 88.245 271.68 88.175C268.464 88.125 266.235 84.24 266.235 84.24H266.224Z" fill="#FFB573"/>
<path d="M263.063 56.0099C263.063 56.0099 265.922 49.8949 273.885 52.4299C278.904 54.0299 282.471 56.1299 281.938 60.3799C281.586 63.2049 278.674 65.3149 276.823 65.1899C274.973 65.0699 261.469 60.6949 261.469 60.6949C261.469 60.6949 258.434 57.2049 263.063 56.0099Z" fill="#263238"/>
<g opacity="0.2">
<path d="M269.399 78.6899C270.551 79.9249 272.545 80.6199 274.38 80.6549C274.353 80.4999 274.359 80.2699 274.337 80.1199C274.305 79.8799 274.311 79.5149 274.295 79.2649C274.279 78.9549 274.273 78.6199 274.295 78.2999C274.311 78.1749 274.364 78.1899 274.38 78.0649L274.412 77.8049L268.865 76.0399C268.417 76.3499 268.476 77.6899 269.404 78.6949L269.399 78.6899Z" fill="black"/>
</g>
<path d="M261.889 65.9249C260.561 60.3399 265.735 55.1949 271.916 56.5399C278.188 57.9049 280.433 66.1549 280.001 71.4149C279.527 77.2599 272.54 80.9549 267.228 77.2849C263.697 74.8449 263.223 71.5099 261.889 65.9249Z" fill="#FFB573"/>
<path d="M266.172 57.1599C266.172 57.1599 271.484 61.7949 276.673 59.3999C281.863 57.0049 270.417 52.2249 266.172 57.1599Z" fill="#263238"/>
<path d="M267.234 67.91C266.263 68.965 265.426 67.89 263.127 66.75C262.812 66.595 262.466 66.47 261.986 66.455C262.525 68.325 263.047 69.875 263.469 70.985C263.597 71.32 263.73 71.625 263.879 71.905C262.098 69.9 260.05 67.51 259.405 66.43C259.277 66.21 259.17 66 259.09 65.795C259.122 65.72 259.159 65.645 259.197 65.575C259.362 65.26 259.57 64.965 259.805 64.695C260.183 64.27 260.642 63.905 261.154 63.59C262.807 62.56 264.669 62.105 266.253 61.865C266.413 63.64 268.029 67.045 267.234 67.91Z" fill="#263238"/>
<path d="M267.639 58.5499C267.639 58.5499 266.199 59.655 266.22 61C266.241 62.345 266.668 63.7299 266.668 63.7299C266.668 63.7299 262.3 65.0049 261.223 64.7249C260.145 64.4449 259.617 61.49 259.617 61.49C259.617 61.49 264.993 56.605 266.903 56.91C268.812 57.22 267.639 58.54 267.639 58.54V58.5499Z" fill="#263238"/>
<path d="M263.242 56.9149C263.242 56.9149 260.778 56.2749 259.109 58.6849C257.44 61.0949 258.096 64.1949 259.082 65.7949C260.069 67.3949 266.176 62.3149 263.242 56.9149Z" fill="#263238"/>
<path d="M260.225 69.985C260.871 71.46 262.188 72.515 263.489 72.995C265.447 73.715 265.969 71.73 265.617 69.89C265.297 68.23 264.588 66.235 262.529 66.305C260.503 66.375 259.489 68.3 260.231 69.99L260.225 69.985Z" fill="#FFB573"/>
<path d="M269.765 67.16C269.819 67.74 270.192 68.185 270.603 68.145C271.008 68.11 271.296 67.605 271.237 67.025C271.184 66.445 270.811 66 270.4 66.04C269.995 66.075 269.707 66.58 269.765 67.16Z" fill="#263238"/>
<path d="M276.099 66.78C276.152 67.36 276.526 67.805 276.931 67.765C277.336 67.73 277.624 67.225 277.566 66.645C277.512 66.065 277.139 65.62 276.728 65.66C276.323 65.695 276.035 66.2 276.094 66.78H276.099Z" fill="#263238"/>
<path d="M274.738 66.08C274.738 66.08 276.978 68.81 277.72 69.935C276.925 70.74 275.405 70.525 275.405 70.525L274.744 66.08H274.738Z" fill="#D58745"/>
<path d="M268.915 64.0149C269.011 64.0449 269.123 64.0249 269.203 63.9499C270.136 63.1349 271.118 63.3199 271.219 63.3399C271.374 63.3749 271.534 63.2849 271.571 63.1399C271.608 62.9949 271.512 62.8449 271.358 62.8099C271.304 62.7949 269.987 62.5149 268.803 63.5549C268.686 63.6599 268.68 63.8299 268.787 63.9399C268.824 63.9749 268.867 63.9999 268.915 64.0149Z" fill="#263238"/>
<path opacity="0.2" d="M264.547 69.8899C264.483 69.8899 264.43 69.8499 264.414 69.7899C264.307 69.3099 264.072 68.8599 263.726 68.4899C263.502 68.2499 263.134 67.9499 262.664 67.8799C262.243 67.8199 261.806 67.9949 261.624 68.2949C261.587 68.3549 261.507 68.3749 261.443 68.3449C261.379 68.3099 261.358 68.2349 261.39 68.1749C261.624 67.7749 262.168 67.5549 262.702 67.6299C263.251 67.7099 263.672 68.0499 263.923 68.3199C264.302 68.7199 264.563 69.2149 264.675 69.7349C264.691 69.8049 264.643 69.8699 264.568 69.8799C264.558 69.8799 264.552 69.8799 264.542 69.8799L264.547 69.8899Z" fill="black"/>
<path d="M279.248 63.56C279.301 63.545 279.349 63.515 279.387 63.47C279.488 63.355 279.472 63.18 279.349 63.085C278.107 62.125 276.827 62.505 276.768 62.515C276.613 62.56 276.528 62.715 276.576 62.86C276.624 63.005 276.784 63.085 276.939 63.04C276.992 63.02 277.979 62.74 278.976 63.51C279.056 63.57 279.157 63.585 279.248 63.56Z" fill="#263238"/>
<path d="M272.668 70.94C273.671 70.985 274.663 71.31 275.42 71.93C275.713 72.17 275.964 72.445 276.065 72.735C276.401 73.665 272.775 72.96 271.281 72.425C269.788 71.885 270.124 71.365 270.951 71.07C271.351 70.925 272.049 70.915 272.668 70.94Z" fill="#263238"/>
<path opacity="0.3" d="M266.342 62.3099C266.342 62.3099 263.809 63.8349 261.275 63.3949C258.742 62.9549 258.086 62.4299 258.086 62.4299L258.267 63.7199C258.267 63.7199 260.406 64.8999 263.019 64.7649C265.638 64.6299 266.742 64.0199 266.742 64.0199L266.337 62.3049L266.342 62.3099Z" fill="white"/>
<path d="M273.602 73.695C273.602 73.695 273.581 73.695 273.565 73.695C273.181 73.63 272.845 73.545 272.52 73.465C272.114 73.365 271.693 73.26 271.165 73.185C271.053 73.17 270.978 73.075 271 72.97C271.016 72.87 271.117 72.795 271.229 72.815C271.778 72.895 272.205 73 272.621 73.1C272.957 73.185 273.272 73.26 273.64 73.325C273.746 73.345 273.821 73.44 273.8 73.545C273.784 73.635 273.698 73.7 273.602 73.7V73.695Z" fill="#263238"/>
<path d="M292.188 226.605C292.263 225.8 292.204 225.13 291.282 225.08L289.975 225.01C289.484 225.01 289.132 225.32 288.732 225.575C285.74 227.525 284.514 225.005 283.356 225.01C281.868 225.01 282.823 229.475 282.754 229.71L281.127 234.895C280.983 235.33 281.271 236.26 281.767 236.385C281.852 236.405 281.948 236.42 282.039 236.415H299.303C302.05 236.415 302.082 233.265 300.951 233.04C295.863 232.055 293.858 230.495 292.183 229.355C292.183 229.355 292.076 227.84 292.183 226.6L292.188 226.605Z" fill="#263238"/>
<path opacity="0.3" d="M292.188 226.605C292.263 225.8 292.204 225.13 291.282 225.08L289.975 225.01C289.484 225.01 289.132 225.32 288.732 225.575C285.74 227.525 284.514 225.005 283.356 225.01C281.868 225.01 282.823 229.475 282.754 229.71L281.127 234.895C280.983 235.33 281.271 236.26 281.767 236.385C281.852 236.405 281.948 236.42 282.039 236.415H299.303C302.05 236.415 302.082 233.265 300.951 233.04C295.863 232.055 293.858 230.495 292.183 229.355C292.183 229.355 292.076 227.84 292.183 226.6L292.188 226.605Z" fill="white"/>
<path opacity="0.4" d="M299.31 236.42H282.046C281.956 236.42 281.865 236.41 281.774 236.39C281.438 236.305 281.204 235.85 281.129 235.43V235.035H301.518C301.246 235.77 300.564 236.425 299.316 236.425L299.31 236.42Z" fill="white"/>
<path d="M294.583 230.975C294.14 231.355 293.772 231.815 293.505 232.32C293.457 232.41 293.479 232.525 293.575 232.575C293.665 232.625 293.799 232.6 293.847 232.51C294.103 232.025 294.438 231.605 294.86 231.24C294.94 231.17 294.934 231.045 294.86 230.975C294.78 230.9 294.657 230.905 294.577 230.975H294.583Z" fill="#263238"/>
<path d="M292.993 230.07C292.587 230.435 292.241 230.855 291.974 231.32C291.926 231.405 291.947 231.53 292.043 231.575C292.139 231.62 292.262 231.6 292.315 231.51C292.571 231.065 292.881 230.685 293.27 230.34C293.35 230.27 293.345 230.145 293.27 230.075C293.195 230.005 293.067 230.005 292.987 230.075L292.993 230.07Z" fill="#263238"/>
<path d="M291.905 229.255C291.495 229.465 291.159 229.795 290.956 230.19C290.913 230.28 290.929 230.395 291.025 230.445C291.116 230.49 291.249 230.47 291.297 230.38C291.345 230.29 291.399 230.2 291.457 230.12C291.473 230.1 291.484 230.085 291.5 230.065C291.5 230.06 291.532 230.02 291.5 230.06C291.505 230.05 291.516 230.04 291.521 230.035C291.553 229.995 291.591 229.96 291.628 229.92C291.665 229.88 291.697 229.85 291.735 229.82C291.756 229.805 291.772 229.785 291.793 229.77C291.799 229.765 291.857 229.73 291.857 229.725C291.857 229.73 291.825 229.75 291.857 229.725L291.889 229.705C291.889 229.705 291.937 229.675 291.964 229.66C292.007 229.635 292.055 229.605 292.103 229.585C292.193 229.54 292.231 229.41 292.172 229.33C292.113 229.25 291.996 229.21 291.9 229.265L291.905 229.255Z" fill="#263238"/>
<path d="M292.006 227.585C291.526 227.59 291.046 227.68 290.604 227.85C290.502 227.89 290.433 227.975 290.465 228.08C290.492 228.17 290.609 228.25 290.71 228.21C291.132 228.045 291.558 227.96 292.006 227.955C292.113 227.955 292.209 227.87 292.209 227.765C292.209 227.66 292.118 227.575 292.006 227.575V227.585Z" fill="#263238"/>
<g opacity="0.3">
<path d="M287.102 228.185C287.075 228.65 286.899 229.155 286.462 229.37C286.19 229.505 285.87 229.5 285.561 229.49C284.643 229.465 283.726 229.44 282.814 229.415L282.803 229.39C282.659 228.17 282.27 225.195 283.406 225.195C284.302 225.195 285.241 226.905 287.107 226.405C287.091 227.05 287.118 227.875 287.102 228.185Z" fill="black"/>
</g>
<path d="M251.942 236.355H262.464C262.464 236.355 262.694 235.94 262.432 234.84C262.395 234.67 262.342 234.48 262.272 234.275C262.272 234.265 262.267 234.255 262.262 234.245C262.166 233.94 262.048 233.565 261.931 233.16C261.451 231.51 261.12 227.71 261.12 227.71C261.12 227.71 259.131 225.84 257.083 226.715C255.286 227.485 255.563 228.46 255.563 228.46C255.563 228.46 255.536 230.98 254.171 232.12C253.328 232.825 252.491 233.37 252.086 234.245C252.011 234.41 251.952 234.585 251.91 234.77C251.91 234.795 251.899 234.815 251.894 234.84C251.808 235.26 251.814 235.755 251.936 236.355H251.942Z" fill="#263238"/>
<g opacity="0.3">
<path d="M251.942 236.355H262.464C262.464 236.355 262.694 235.94 262.432 234.84C262.395 234.67 262.342 234.48 262.272 234.275C262.272 234.265 262.267 234.255 262.262 234.245C262.166 233.94 262.048 233.565 261.931 233.16C261.451 231.51 261.12 227.71 261.12 227.71C261.12 227.71 259.131 225.84 257.083 226.715C255.286 227.485 255.563 228.46 255.563 228.46C255.563 228.46 255.536 230.98 254.171 232.12C253.328 232.825 252.491 233.37 252.086 234.245C252.011 234.41 251.952 234.585 251.91 234.77C251.91 234.795 251.899 234.815 251.894 234.84C251.808 235.26 251.814 235.755 251.936 236.355H251.942Z" fill="white"/>
</g>
<g opacity="0.4">
<path d="M262.427 234.835C262.688 235.94 262.459 236.35 262.459 236.35H251.936C251.814 235.75 251.808 235.255 251.894 234.835H262.422H262.427Z" fill="white"/>
</g>
<path d="M256.135 230.235C256.727 229.805 257.505 229.86 258.033 230.345C258.177 230.475 258.396 230.27 258.252 230.14C257.585 229.535 256.641 229.5 255.911 230.03C255.751 230.145 255.975 230.35 256.129 230.235H256.135Z" fill="#263238"/>
<path d="M255.834 231.155C256.426 230.725 257.204 230.78 257.732 231.265C257.876 231.395 258.095 231.19 257.951 231.06C257.284 230.455 256.34 230.42 255.61 230.95C255.45 231.065 255.674 231.27 255.828 231.155H255.834Z" fill="#263238"/>
<path d="M255.537 232C256.129 231.57 256.908 231.625 257.436 232.11C257.58 232.24 257.798 232.035 257.654 231.905C256.988 231.295 256.044 231.265 255.313 231.795C255.153 231.91 255.377 232.115 255.532 232H255.537Z" fill="#263238"/>
<path d="M278.337 194.7C278.763 211.79 282.065 229.415 282.065 229.415L292.891 228.92C292.891 228.92 293.505 191.45 293.254 178.6C293.009 166.265 291.243 131.06 291.243 131.06L269.067 128.285C267.307 136.61 270.059 144.25 273.078 155.835C274.609 161.72 275.926 168.225 277.003 178.145C277.398 183.295 277.979 188.49 278.347 194.7H278.337Z" fill="#263238"/>
<path d="M252.929 191.525C251.286 209.38 253.745 229.415 253.745 229.415L262.667 229.49C262.667 229.49 267.441 197.625 270.694 180.845C274.881 163.72 278.577 128.5 278.577 128.5L257.339 128.005C253.857 136.175 254.15 143.795 255.062 155.095C255.563 161.175 255.803 172.295 254.641 177.94C253.947 181.255 253.505 185.88 252.929 191.525Z" fill="#263238"/>
<path d="M246.69 105.02C246.759 105.215 245.442 114.785 246.508 118.965C247.186 121.62 256.242 123.84 256.242 123.84V115.37C256.242 115.37 254.818 114.85 254.604 114.785C254.391 114.72 255.095 106.125 255.095 106.125L246.684 105.02H246.69Z" fill="#FFB573"/>
<path d="M294.09 100.82C294.053 101.025 296.874 110.305 296.485 114.585C296.234 117.305 287.637 120.765 287.637 120.765L286.293 112.39C286.293 112.39 287.621 111.675 287.818 111.58C288.016 111.485 285.957 103.085 285.957 103.085L294.096 100.82H294.09Z" fill="#FFB573"/>
<path d="M255.619 130.18C255.48 128.96 255.838 129.27 255.838 129.27L255.102 83.94C267.715 81.565 280.078 82.73 283.166 82.91C283.475 82.93 285.726 83.25 285.784 83.535C288.035 95.03 289.79 118.01 291.235 130.795" fill="#8568F5"/>
<path d="M274.741 79.4499L277.738 82.5799L272.303 89.0999L264.922 82.7099L266.538 78.9249L271.514 82.5799L274.741 79.4499Z" fill="#8568F5"/>
<path opacity="0.3" d="M277.738 82.58L274.629 86.31L271.626 83.2L269.077 86.31L264.922 82.71L269.135 87.575L271.695 83.94L274.501 87.4L277.738 82.58Z" fill="black"/>
<path d="M262.528 91.5099C261.718 92.2099 260.459 92.1649 259.707 91.4049C259.707 93.2299 260.859 94.8849 262.64 95.6249C264.422 94.8849 265.568 93.2299 265.574 91.4049C265.536 91.4399 265.499 91.4749 265.462 91.5099C264.651 92.2099 263.392 92.1649 262.64 91.4049C262.603 91.4399 262.566 91.4749 262.528 91.5099Z" fill="#8568F5"/>
<path opacity="0.4" d="M262.528 91.5099C261.718 92.2099 260.459 92.1649 259.707 91.4049C259.707 93.2299 260.859 94.8849 262.64 95.6249C264.422 94.8849 265.568 93.2299 265.574 91.4049C265.536 91.4399 265.499 91.4749 265.462 91.5099C264.651 92.2099 263.392 92.1649 262.64 91.4049C262.603 91.4399 262.566 91.4749 262.528 91.5099Z" fill="white"/>
<path opacity="0.2" d="M262.641 95.6249V91.4049C262.678 91.4399 262.715 91.4749 262.753 91.5099C263.563 92.2099 264.822 92.1649 265.574 91.4049C265.574 93.2299 264.422 94.8849 262.641 95.6249Z" fill="white"/>
<path d="M285.781 83.5349C285.781 83.5349 289.312 83.5349 291.232 88.5999C293.36 94.2149 297.835 106.63 297.835 106.63C297.835 106.63 285.909 108.57 286.853 108.57C287.797 108.57 285.781 83.5349 285.781 83.5349Z" fill="#8568F5"/>
<path d="M255.228 83.9399C255.228 83.9399 250.028 84.1049 248.3 91.4099C246.567 98.7149 245.441 106.325 245.441 106.325L256.241 106.855L255.228 83.9399Z" fill="#8568F5"/>
<path opacity="0.2" d="M288.951 108.125L287.324 93.5149L291.234 107.725L288.951 108.125Z" fill="black"/>
<path d="M255.523 107.06C255.347 101.47 255.347 95.32 255.523 89.73C255.699 95.32 255.699 101.47 255.523 107.06Z" fill="#263238"/>
<path d="M271.324 83.9399C272.476 91.8449 273.015 99.8199 273.506 107.785C273.954 115.75 274.386 123.72 274.402 131.7C273.436 116.21 272.674 99.3499 271.33 83.9399H271.324Z" fill="#263238"/>
<path d="M285.292 83.2899C285.292 83.2899 285.495 84.4499 284.348 84.3649C283.201 84.2799 278.609 83.8299 278.609 83.8299L279.121 82.6549C279.121 82.6549 283.239 82.0499 285.292 83.2899Z" fill="#8568F5"/>
<path opacity="0.4" d="M285.292 83.2899C285.292 83.2899 285.495 84.4499 284.348 84.3649C283.201 84.2799 278.609 83.8299 278.609 83.8299L279.121 82.6549C279.121 82.6549 283.239 82.0499 285.292 83.2899Z" fill="black"/>
<path d="M256.94 83.2499C256.94 83.2499 256.716 84.4049 257.862 84.3399C259.009 84.2749 263.612 83.9049 263.612 83.9049L263.126 82.7199C263.126 82.7199 259.025 82.0449 256.945 83.2499H256.94Z" fill="#8568F5"/>
<path opacity="0.4" d="M256.94 83.2499C256.94 83.2499 256.716 84.4049 257.862 84.3399C259.009 84.2749 263.612 83.9049 263.612 83.9049L263.126 82.7199C263.126 82.7199 259.025 82.0449 256.945 83.2499H256.94Z" fill="black"/>
<path d="M255.371 133.55L291.419 133.355L291.232 130.61L255.398 130.185L255.371 133.55Z" fill="black"/>
<path d="M270.976 133.55H277.387V129.845H270.976V133.55Z" fill="#263238"/>
<path opacity="0.6" d="M270.976 133.55H277.387V129.845H270.976V133.55Z" fill="white"/>
<path d="M264.337 130.185H262.012V133.88H264.337V130.185Z" fill="#263238"/>
<path d="M286.578 130.185H284.461V133.55H286.578V130.185Z" fill="#263238"/>
<path d="M259.981 134.64C259.975 134.525 259.975 134.405 259.981 134.29C260.082 132.675 261.565 131.445 263.287 131.54C265.01 131.635 266.322 133.025 266.221 134.64H265.357C265.357 133.475 264.349 132.53 263.106 132.53C261.863 132.53 260.855 133.475 260.855 134.64H259.981Z" fill="#263238"/>
<g opacity="0.7">
<path d="M259.981 134.64C259.975 134.525 259.975 134.405 259.981 134.29C260.082 132.675 261.565 131.445 263.287 131.54C265.01 131.635 266.322 133.025 266.221 134.64H265.357C265.357 133.475 264.349 132.53 263.106 132.53C261.863 132.53 260.855 133.475 260.855 134.64H259.981Z" fill="white"/>
</g>
<path d="M258.124 135.58C257.218 136.035 256.476 136.73 255.991 137.58C254.636 139.955 255.591 142.915 258.124 144.19C260.658 145.46 263.815 144.565 265.175 142.19C266.535 139.815 265.575 136.855 263.042 135.58L262.716 134.705C262.562 134.25 262.103 133.945 261.591 133.965H259.554C259.052 133.965 258.599 134.26 258.428 134.705L258.103 135.58H258.124ZM260.567 143.13C258.642 143.13 257.079 141.665 257.079 139.86C257.079 138.055 258.642 136.59 260.567 136.59C262.492 136.59 264.055 138.055 264.055 139.86C264.055 141.665 262.492 143.13 260.567 143.13Z" fill="#263238"/>
<path opacity="0.5" d="M258.124 135.58C257.218 136.035 256.476 136.73 255.991 137.58C254.636 139.955 255.591 142.915 258.124 144.19C260.658 145.46 263.815 144.565 265.175 142.19C266.535 139.815 265.575 136.855 263.042 135.58L262.716 134.705C262.562 134.25 262.103 133.945 261.591 133.965H259.554C259.052 133.965 258.599 134.26 258.428 134.705L258.103 135.58H258.124ZM260.567 143.13C258.642 143.13 257.079 141.665 257.079 139.86C257.079 138.055 258.642 136.59 260.567 136.59C262.492 136.59 264.055 138.055 264.055 139.86C264.055 141.665 262.492 143.13 260.567 143.13Z" fill="white"/>
<path d="M262.374 135.58C261.468 136.035 260.726 136.73 260.241 137.58C258.886 139.955 259.841 142.915 262.374 144.19C264.908 145.46 268.065 144.565 269.425 142.19C270.785 139.815 269.825 136.855 267.292 135.58L266.977 134.705C266.806 134.26 266.358 133.965 265.852 133.965H263.814C263.313 133.965 262.86 134.26 262.689 134.705L262.363 135.58H262.374ZM264.849 143.13C262.924 143.13 261.361 141.665 261.361 139.86C261.361 138.055 262.924 136.59 264.849 136.59C266.774 136.59 268.337 138.055 268.337 139.86C268.337 141.665 266.774 143.13 264.849 143.13Z" fill="#263238"/>
<path opacity="0.7" d="M262.374 135.58C261.468 136.035 260.726 136.73 260.241 137.58C258.886 139.955 259.841 142.915 262.374 144.19C264.908 145.46 268.065 144.565 269.425 142.19C270.785 139.815 269.825 136.855 267.292 135.58L266.977 134.705C266.806 134.26 266.358 133.965 265.852 133.965H263.814C263.313 133.965 262.86 134.26 262.689 134.705L262.363 135.58H262.374ZM264.849 143.13C262.924 143.13 261.361 141.665 261.361 139.86C261.361 138.055 262.924 136.59 264.849 136.59C266.774 136.59 268.337 138.055 268.337 139.86C268.337 141.665 266.774 143.13 264.849 143.13Z" fill="white"/>
<path d="M289.655 158.645C288.753 158.67 288.001 158.01 287.975 157.165L286.977 127.385C286.951 126.54 287.655 125.835 288.556 125.81C289.457 125.785 290.209 126.445 290.236 127.29L291.233 157.07C291.26 157.915 290.556 158.62 289.655 158.645Z" fill="#263238"/>
<path d="M289.453 132.3H294.739C295.363 132.3 295.864 131.825 295.864 131.245C295.864 130.66 295.357 130.19 294.739 130.19H289.453C288.829 130.19 288.328 130.665 288.328 131.245C288.328 131.83 288.835 132.3 289.453 132.3Z" fill="#263238"/>
<g opacity="0.3">
<path d="M289.655 158.645C288.753 158.67 288.001 158.01 287.975 157.165L286.977 127.385C286.951 126.54 287.655 125.835 288.556 125.81C289.457 125.785 290.209 126.445 290.236 127.29L291.233 157.07C291.26 157.915 290.556 158.62 289.655 158.645Z" fill="black"/>
<path d="M289.453 132.3H294.739C295.363 132.3 295.864 131.825 295.864 131.245C295.864 130.66 295.357 130.19 294.739 130.19H289.453C288.829 130.19 288.328 130.665 288.328 131.245C288.328 131.83 288.835 132.3 289.453 132.3Z" fill="black"/>
</g>
<path d="M294.216 146.575C295.368 146.505 296.248 145.575 296.173 144.495L295.544 135.065C295.469 133.98 294.472 133.15 293.314 133.22L291.234 133.34L291.992 144.735C292.066 145.815 293.058 146.64 294.21 146.57L294.216 146.575Z" fill="#263238"/>
<path opacity="0.3" d="M294.216 146.575C295.368 146.505 296.248 145.575 296.173 144.495L295.544 135.065C295.469 133.98 294.472 133.15 293.314 133.22L291.234 133.34L291.992 144.735C292.066 145.815 293.058 146.64 294.21 146.57L294.216 146.575Z" fill="black"/>
<path d="M185.998 216.71L184.03 230.24L179.326 230.465L177.801 217.42L185.998 216.71Z" fill="#EEC1BB"/>
<path d="M175.321 236.525H185.843C185.843 236.525 186.073 236.11 185.811 235.01C185.774 234.84 185.721 234.65 185.651 234.445C185.651 234.435 185.646 234.425 185.641 234.415C185.545 234.11 185.427 233.735 185.31 233.33C184.83 231.68 184.499 227.88 184.499 227.88C184.499 227.88 182.51 226.01 180.462 226.885C178.665 227.655 178.942 228.63 178.942 228.63C178.942 228.63 178.915 231.15 177.55 232.29C176.707 232.995 175.87 233.54 175.465 234.415C175.39 234.58 175.331 234.755 175.289 234.94C175.289 234.965 175.278 234.985 175.273 235.01C175.187 235.43 175.193 235.925 175.315 236.525H175.321Z" fill="#263238"/>
<g opacity="0.4">
<path d="M185.81 235.005C186.071 236.11 185.842 236.52 185.842 236.52H175.319C175.196 235.92 175.191 235.425 175.276 235.005H185.804H185.81Z" fill="white"/>
</g>
<path d="M179.513 230.4C180.105 229.97 180.884 230.025 181.412 230.51C181.556 230.64 181.775 230.435 181.631 230.305C180.964 229.7 180.02 229.665 179.289 230.195C179.129 230.31 179.353 230.515 179.508 230.4H179.513Z" fill="white"/>
<path d="M179.221 231.325C179.813 230.895 180.591 230.95 181.119 231.435C181.263 231.565 181.482 231.36 181.338 231.23C180.671 230.625 179.727 230.59 178.997 231.12C178.837 231.235 179.061 231.44 179.215 231.325H179.221Z" fill="white"/>
<path d="M178.92 232.17C179.512 231.74 180.29 231.795 180.818 232.28C180.962 232.41 181.181 232.205 181.037 232.075C180.37 231.465 179.426 231.435 178.696 231.965C178.536 232.08 178.76 232.285 178.914 232.17H178.92Z" fill="white"/>
<path d="M206.605 216.32L208.568 229.85L213.272 230.07L214.797 217.025L206.605 216.32Z" fill="#EEC1BB"/>
<path d="M217.276 236.13H206.753C206.753 236.13 206.524 235.715 206.785 234.615C206.823 234.445 206.876 234.255 206.945 234.05C206.945 234.04 206.951 234.03 206.956 234.02C207.052 233.715 207.169 233.34 207.287 232.935C207.767 231.285 208.097 227.485 208.097 227.485C208.097 227.485 210.087 225.615 212.135 226.49C213.932 227.26 213.655 228.235 213.655 228.235C213.655 228.235 213.681 230.755 215.047 231.895C215.889 232.6 216.727 233.145 217.132 234.02C217.207 234.185 217.265 234.36 217.308 234.545C217.308 234.57 217.319 234.59 217.319 234.615C217.404 235.035 217.399 235.53 217.276 236.13Z" fill="#263238"/>
<g opacity="0.4">
<path d="M206.793 234.615C206.532 235.72 206.761 236.13 206.761 236.13H217.284C217.406 235.53 217.412 235.035 217.326 234.615H206.798H206.793Z" fill="white"/>
</g>
<path d="M213.086 230.01C212.494 229.58 211.716 229.635 211.188 230.12C211.044 230.25 210.825 230.045 210.969 229.915C211.636 229.31 212.58 229.275 213.31 229.805C213.47 229.92 213.246 230.125 213.092 230.01H213.086Z" fill="white"/>
<path d="M213.383 230.93C212.791 230.5 212.013 230.555 211.485 231.04C211.341 231.17 211.122 230.965 211.266 230.835C211.933 230.23 212.877 230.195 213.607 230.725C213.767 230.84 213.543 231.045 213.389 230.93H213.383Z" fill="white"/>
<path d="M213.684 231.78C213.092 231.35 212.313 231.405 211.785 231.89C211.641 232.02 211.423 231.815 211.567 231.685C212.233 231.075 213.177 231.045 213.908 231.575C214.068 231.69 213.844 231.895 213.689 231.78H213.684Z" fill="white"/>
<path d="M173.371 132.45L199.558 130.675L215.19 130.535C215.19 130.535 216.971 168.6 216.971 177.435C216.971 188.24 216.806 225.83 216.806 225.83L203.665 225.765C203.665 225.765 201.478 186.565 200.075 179.71C200.075 179.71 198.566 153.995 196.033 148.315C196.033 148.315 194.961 148.24 194.694 149.4C194.054 154.635 192.555 173.74 191.659 179.95C191.659 179.95 189.718 215.445 187.462 225.75L175.649 225.765C174.091 211.135 173.089 159.74 173.089 159.74C172.214 148.575 173.371 132.445 173.371 132.445V132.45Z" fill="#8568F5"/>
<path opacity="0.3" d="M215.713 135.465C215.713 135.465 210.342 139.03 195.739 139.855C181.137 140.685 174.086 137.92 174.086 137.92L215.718 135.46L215.713 135.465Z" fill="black"/>
<path d="M190.94 80.8949C190.94 80.8949 191.489 77.1999 189.18 70.7949C189.18 70.7899 189.537 70.6199 189.537 70.6149C189.217 69.7199 188.886 68.8949 188.572 68.1749C188.566 68.1549 188.566 68.1449 188.566 68.1449L198.289 73.2449C198.161 75.3299 199.142 79.3049 199.697 80.9799C199.697 80.9799 201.036 83.9949 196.689 84.3099C193.516 84.5399 190.94 80.8949 190.94 80.8949Z" fill="#EEC1BB"/>
<path opacity="0.2" d="M198.589 76.1549L193.09 75.2249C193.661 76.7949 195.245 78.6149 199.042 78.6149C199.042 78.6149 198.583 76.8549 198.589 76.1549Z" fill="black"/>
<path d="M188.293 63.8399C189.194 69.4399 189.578 72.6149 192.89 75.2249C197.866 79.1549 204.885 76.0399 205.786 70.2799C206.602 65.0999 204.991 56.8099 198.895 55.1099C192.89 53.4349 187.391 58.2349 188.293 63.8349V63.8399Z" fill="#EEC1BB"/>
<path d="M186.89 57.1299C187.424 53.9599 195.712 53.2399 198.181 54.6299C198.549 54.8399 193.856 57.5599 194.144 57.4299L191.904 58.3699C191.541 58.3249 190.88 58.7749 190.613 59.8399C190.613 59.8399 191.69 68.4499 189.317 71.1649C187.13 70.3799 186.682 66.9699 185.829 64.9849C184.56 62.0299 182.954 57.6849 186.89 57.1199V57.1299Z" fill="#263238"/>
<path opacity="0.1" d="M205.784 70.2849C205.784 70.2849 200.707 69.7199 199.032 69.1749C199.032 69.1749 197.251 68.6349 194.915 68.3199C193.742 68.1599 190.936 65.3499 190.936 65.3499L190.19 65.7349L189.48 71.6049C189.48 71.6049 192.904 77.7099 198.702 76.9449C204.04 76.2399 205.656 71.6799 205.784 70.2899" fill="black"/>
<path d="M186.364 68.7299C186.983 70.1399 188.236 71.1449 189.479 71.5999C191.351 72.2849 191.847 70.3949 191.505 68.6349C191.201 67.0499 190.524 65.1449 188.556 65.2149C186.62 65.2799 185.655 67.1199 186.359 68.7299H186.364Z" fill="#EEC1BB"/>
<path d="M197.038 64.7549C197.091 65.3299 197.464 65.7699 197.864 65.7299C198.264 65.6949 198.547 65.1949 198.494 64.6199C198.44 64.0449 198.067 63.6049 197.667 63.6449C197.267 63.6799 196.984 64.1799 197.038 64.7549Z" fill="#263238"/>
<path d="M203.081 64.365C203.134 64.94 203.502 65.38 203.907 65.34C204.307 65.305 204.59 64.805 204.537 64.23C204.483 63.655 204.11 63.215 203.71 63.255C203.31 63.29 203.027 63.79 203.081 64.365Z" fill="#263238"/>
<path d="M201.086 64.21C201.086 64.21 203.299 66.91 204.035 68.025C203.246 68.82 201.742 68.61 201.742 68.61L201.086 64.21Z" fill="#D4827D"/>
<path d="M195.285 62.1599C195.381 62.1899 195.493 62.1699 195.567 62.0999C196.511 61.2749 197.551 61.4949 197.562 61.4949C197.717 61.5299 197.877 61.4399 197.914 61.2949C197.951 61.1499 197.855 61.0049 197.706 60.9699C197.653 60.9549 196.351 60.6799 195.178 61.7049C195.061 61.8049 195.055 61.9799 195.162 62.0849C195.199 62.1199 195.242 62.1449 195.285 62.1549V62.1599Z" fill="#263238"/>
<path d="M199.962 70.6249C199.93 70.6249 199.893 70.6149 199.861 70.5999C198.821 70.0299 198.037 69.8599 197.242 70.0449C197.135 70.0699 197.029 70.0099 197.002 69.9099C196.975 69.8099 197.039 69.7099 197.146 69.6849C198.293 69.4199 199.263 69.8349 200.063 70.2799C200.159 70.3299 200.191 70.4449 200.133 70.5349C200.095 70.5949 200.026 70.6299 199.962 70.6299V70.6249Z" fill="#263238"/>
<path opacity="0.2" d="M190.49 68.6449C190.426 68.6449 190.373 68.6049 190.362 68.5449C190.261 68.0849 190.037 67.6549 189.706 67.3049C189.493 67.0749 189.141 66.7899 188.693 66.7249C188.293 66.6649 187.877 66.8349 187.706 67.1199C187.669 67.1799 187.589 67.1999 187.525 67.1699C187.461 67.1349 187.44 67.0599 187.472 66.9999C187.696 66.6199 188.213 66.4049 188.73 66.4799C189.258 66.5549 189.658 66.8799 189.904 67.1399C190.266 67.5249 190.512 67.9949 190.624 68.4949C190.64 68.5649 190.592 68.6299 190.517 68.6399C190.506 68.6399 190.501 68.6399 190.49 68.6399V68.6449Z" fill="black"/>
<path d="M205.509 61.715C205.562 61.7 205.61 61.67 205.648 61.625C205.749 61.51 205.733 61.34 205.61 61.245C204.384 60.295 203.114 60.67 203.056 60.68C202.906 60.725 202.821 60.88 202.869 61.02C202.917 61.16 203.077 61.24 203.226 61.195C203.28 61.175 204.256 60.9 205.242 61.66C205.317 61.72 205.418 61.735 205.509 61.71V61.715Z" fill="#263238"/>
<path d="M203.338 56.14C203.653 56.035 203.935 55.875 204.058 55.595C204.266 55.13 203.887 54.59 203.391 54.395C202.901 54.2 202.341 54.26 201.808 54.32C202.362 54.23 203.04 54.025 203.104 53.5C203.141 53.185 202.911 52.885 202.618 52.73C202.325 52.575 201.978 52.535 201.642 52.505C197.626 52.135 193.509 52.73 189.797 54.22C189.221 54.45 188.639 54.715 188.218 55.15C187.797 55.585 187.578 56.24 187.829 56.775L191.808 58.22C193.882 59.445 196.533 59.285 198.965 58.985C200.106 58.845 201.253 58.68 202.362 58.38C202.815 58.255 203.274 58.105 203.621 57.8C203.968 57.5 204.17 57.015 203.994 56.6C203.887 56.345 203.61 56.17 203.333 56.135L203.338 56.14Z" fill="#263238"/>
<path d="M205.474 80.335C201.864 80.155 193.789 78.99 179.053 81.365L173.554 126.695L173.016 134.545C170.338 136.285 172.109 137.735 173.016 137.735C193.896 139.845 216.514 135.18 216.514 135.18C216.514 135.18 217.768 135.19 217.517 133.38C217.224 131.255 216.077 133 215.56 129.08C213.869 116.3 212.221 92.11 209.592 80.615C209.522 80.33 205.832 80.355 205.474 80.335Z" fill="#8568F5"/>
<g opacity="0.4">
<path d="M205.474 80.335C201.864 80.155 193.789 78.99 179.053 81.365L173.554 126.695L173.016 134.545C170.338 136.285 172.109 137.735 173.016 137.735C193.896 139.845 216.514 135.18 216.514 135.18C216.514 135.18 217.768 135.19 217.517 133.38C217.224 131.255 216.077 133 215.56 129.08C213.869 116.3 212.221 92.11 209.592 80.615C209.522 80.33 205.832 80.355 205.474 80.335Z" fill="white"/>
</g>
<path d="M198.69 77.025L201.687 80.155L196.252 86.675L188.871 80.285L190.492 76.505L195.463 80.155L198.69 77.025Z" fill="#8568F5"/>
<g opacity="0.4">
<path d="M198.69 77.025L201.687 80.155L196.252 86.675L188.871 80.285L190.492 76.505L195.463 80.155L198.69 77.025Z" fill="white"/>
</g>
<path opacity="0.3" d="M190.224 126.615L191.6 135.96L173.371 127.795C173.472 127.065 174.123 122.96 174.086 121.85L190.224 126.615Z" fill="black"/>
<path opacity="0.3" d="M214.854 125.945L214.833 114.95C214.833 114.95 200.539 132.145 200.603 132.155C200.673 132.17 200.198 137.26 200.603 137.83C201.009 138.4 203.654 137.985 205.051 137.59C206.449 137.195 207.211 135.425 207.478 134.415L212.161 130.01C212.161 130.01 214.982 127.535 215.073 127.355L214.843 125.94L214.854 125.945Z" fill="black"/>
<path opacity="0.3" d="M201.687 80.155L198.583 83.885L195.575 80.775L193.026 83.885L188.871 80.285L193.084 85.155L195.644 81.515L198.455 84.975L201.687 80.155Z" fill="black"/>
<path d="M216.972 135.22C213.601 136.05 209.542 136.84 206.108 137.37C195.158 138.99 183.884 139.595 172.902 137.89L175.665 138.145C189.494 139.175 203.404 137.765 216.972 135.22Z" fill="#263238"/>
<path d="M187.075 125.545C187.075 125.545 195.523 134.06 195.998 134.805C196.467 135.55 195.923 141.715 195.619 141.9C194.846 142.37 194.846 139.945 194.846 139.945C194.846 139.945 194.488 140.785 194.195 141.12C193.848 141.51 193.086 141.165 193.278 139.945C193.278 139.945 193.059 141.49 192.126 141.21C191.192 140.93 191.683 139.285 191.683 139.285C191.683 139.285 190.952 140.335 190.526 139.285C190.334 138.815 190.126 137.065 190.126 137.065C190.126 137.065 188.878 135.91 187.507 134.43C186.318 133.145 186.168 132.325 186.27 131.575C186.376 130.83 183.656 129.67 183.656 129.67L187.07 125.55L187.075 125.545Z" fill="#EEC1BB"/>
<path opacity="0.3" d="M194.77 139.98C195.106 138.275 195.079 136.5 194.695 134.805C194.695 134.805 195.298 136.33 195.314 137.205C195.341 138.5 194.77 139.975 194.77 139.975V139.98Z" fill="black"/>
<path opacity="0.3" d="M193.237 140.21C193.573 138.505 193.712 136.615 192.789 134.81C192.789 134.81 193.616 135.98 193.717 137.07C193.845 138.4 193.232 140.215 193.232 140.215L193.237 140.21Z" fill="black"/>
<path opacity="0.3" d="M191.667 139.28C192.126 137.725 191.865 136.18 191.145 135.135C191.145 135.135 191.459 135.395 191.907 136.48C192.361 137.565 191.667 139.28 191.667 139.28Z" fill="black"/>
<path d="M207.641 125.01C207.641 125.01 199.304 133.615 198.718 134.27C197.752 135.35 198.792 141.18 199.096 141.365C199.87 141.835 199.87 139.41 199.87 139.41C199.87 139.41 200.227 140.25 200.521 140.585C200.867 140.975 201.63 140.63 201.438 139.41C201.438 139.41 201.657 140.955 202.59 140.675C203.523 140.395 203.032 138.75 203.032 138.75C203.032 138.75 203.763 139.8 204.19 138.75C204.382 138.28 204.59 136.53 204.59 136.53C204.59 136.53 205.838 135.375 207.209 133.895C208.398 132.61 208.547 131.79 208.446 131.04C208.344 130.29 211.059 129.135 211.059 129.135L207.646 125.015L207.641 125.01Z" fill="#EEC1BB"/>
<path opacity="0.3" d="M199.939 139.445C199.603 137.74 199.63 135.965 200.014 134.27C200.014 134.27 199.411 135.795 199.395 136.67C199.369 137.965 199.939 139.44 199.939 139.44V139.445Z" fill="black"/>
<path opacity="0.3" d="M201.466 139.675C201.13 137.97 200.992 136.08 201.914 134.275C201.914 134.275 201.088 135.445 200.986 136.535C200.858 137.865 201.472 139.68 201.472 139.68L201.466 139.675Z" fill="black"/>
<path opacity="0.3" d="M203.042 138.745C202.584 137.19 202.845 135.645 203.565 134.6C203.565 134.6 203.25 134.86 202.802 135.945C202.349 137.03 203.042 138.745 203.042 138.745Z" fill="black"/>
<path d="M179.052 81.4349C179.052 81.4349 174.087 82.3649 172.892 88.6799C171.794 94.4899 168.7 107.41 168.7 107.41L167.282 114.77C166.626 117.105 167.874 120.605 169.852 121.975L184.151 133.215L190.279 125.645L178.226 115.305L183.639 93.9249L179.052 81.4299V81.4349Z" fill="#8568F5"/>
<g opacity="0.4">
<path d="M179.052 81.4349C179.052 81.4349 174.087 82.3649 172.892 88.6799C171.794 94.4899 168.7 107.41 168.7 107.41L167.282 114.77C166.626 117.105 167.874 120.605 169.852 121.975L184.151 133.215L190.279 125.645L178.226 115.305L183.639 93.9249L179.052 81.4299V81.4349Z" fill="white"/>
</g>
<path d="M208.715 80.5199C208.715 80.5199 213.339 80.4549 216.865 86.5599C218.081 88.6649 222.075 102.915 224.683 110.72C225.595 113.445 225.409 116.24 224.171 118.045C222.854 119.975 210.625 130.575 210.625 130.575L203.691 124.325L214.47 112.215L211.206 100.005L208.715 80.5199Z" fill="#8568F5"/>
<path opacity="0.4" d="M208.715 80.5199C208.715 80.5199 213.339 80.4549 216.865 86.5599C218.081 88.6649 222.075 102.915 224.683 110.72C225.595 113.445 225.409 116.24 224.171 118.045C222.854 119.975 210.625 130.575 210.625 130.575L203.691 124.325L214.47 112.215L211.206 100.005L208.715 80.5199Z" fill="white"/>
<path d="M173.723 115.31L178.219 115.245C180.283 116.91 182.299 118.68 184.331 120.395C186.379 122.13 188.4 123.89 190.432 125.64L190.368 125.72L187.269 129.48L184.144 133.22L187.147 129.395L190.181 125.59L190.197 125.735C188.181 124.015 186.165 122.305 184.165 120.57C182.229 118.885 179.973 116.99 178.224 115.38L173.728 115.315L173.723 115.31Z" fill="#263238"/>
<path d="M214.854 111.79C211.233 116.04 207.531 120.235 203.787 124.395L203.777 124.245C204.929 125.285 206.075 126.34 207.217 127.395C208.363 128.445 209.489 129.515 210.625 130.575C209.451 129.55 208.267 128.54 207.105 127.505C205.937 126.475 204.769 125.445 203.611 124.405L203.531 124.335L203.601 124.255C207.297 120.06 211.035 115.895 214.849 111.795L214.854 111.79Z" fill="#263238"/>
<path d="M209.728 130.605L202.357 125.065L201.387 126.305L208.896 131.85L209.728 130.605Z" fill="#263238"/>
<path d="M186.216 134.125L191.816 126.75L190.611 125.745L185 133.25L186.216 134.125Z" fill="#263238"/>
<path d="M200.379 127.485C199.457 127.485 198.699 126.99 198.699 126.385C198.699 125.78 199.451 125.285 200.379 125.285C201.307 125.285 202.059 125.78 202.059 126.385C202.059 126.99 201.307 127.485 200.379 127.485ZM200.379 125.535C199.601 125.535 198.966 125.915 198.966 126.385C198.966 126.855 199.601 127.235 200.379 127.235C201.158 127.235 201.793 126.855 201.793 126.385C201.793 125.915 201.158 125.535 200.379 125.535Z" fill="#263238"/>
<path d="M197.879 127.68C196.957 127.68 196.199 127.185 196.199 126.58C196.199 125.975 196.951 125.48 197.879 125.48C198.807 125.48 199.559 125.975 199.559 126.58C199.559 127.185 198.807 127.68 197.879 127.68ZM197.879 125.73C197.101 125.73 196.466 126.11 196.466 126.58C196.466 127.05 197.101 127.43 197.879 127.43C198.658 127.43 199.293 127.05 199.293 126.58C199.293 126.11 198.658 125.73 197.879 125.73Z" fill="#263238"/>
<path d="M195.293 127.68C194.371 127.68 193.613 127.185 193.613 126.58C193.613 125.975 194.365 125.48 195.293 125.48C196.221 125.48 196.973 125.975 196.973 126.58C196.973 127.185 196.221 127.68 195.293 127.68ZM195.293 125.73C194.515 125.73 193.88 126.11 193.88 126.58C193.88 127.05 194.515 127.43 195.293 127.43C196.072 127.43 196.707 127.05 196.707 126.58C196.707 126.11 196.072 125.73 195.293 125.73Z" fill="#263238"/>
<path d="M192.672 127.63C191.75 127.63 190.992 127.135 190.992 126.53C190.992 125.925 191.744 125.43 192.672 125.43C193.6 125.43 194.352 125.925 194.352 126.53C194.352 127.135 193.6 127.63 192.672 127.63ZM192.672 125.68C191.894 125.68 191.259 126.06 191.259 126.53C191.259 127 191.894 127.38 192.672 127.38C193.451 127.38 194.086 127 194.086 126.53C194.086 126.06 193.451 125.68 192.672 125.68Z" fill="#263238"/>
<path d="M213.729 110.745C212.966 105.395 212.321 99.49 211.91 94.11C212.673 99.46 213.318 105.365 213.729 110.745Z" fill="#263238"/>
<path opacity="0.3" d="M178.262 112.685L179.793 94.11C179.793 94.11 178.283 100.11 178.006 103.4C177.659 107.505 178.262 112.69 178.262 112.69V112.685Z" fill="black"/>
<path d="M184.307 95.615H193.438V92.955H184.307V95.615Z" fill="white"/>
<path d="M94.3733 82.5C93.808 77.55 97.6533 78.765 97.152 72.435C96.5973 65.465 103.669 63.72 103.669 63.72C103.669 63.72 106.112 60.66 109.504 59.8C113.845 58.7 124.933 61.385 122.389 70.195C120.869 75.45 121.803 75.235 122.64 77.43C123.829 80.54 120.965 84.805 124.123 86.69C124.123 86.69 111.989 86.455 99.0186 87.16C99.0186 87.16 94.72 85.53 94.3733 82.505V82.5Z" fill="#263238"/>
<path d="M104.07 86.9201C104.07 86.9201 106.236 87.9201 108.902 90.0751C109.457 90.5251 110.07 90.9151 110.721 91.2351C112.47 92.1051 114.065 92.6051 114.497 91.8151C114.593 91.6401 114.668 91.4551 114.721 91.2551C115.089 89.9301 114.94 88.0701 113.798 87.2201C112.513 86.2601 111.889 85.4401 112.124 84.1401C112.246 83.4051 112.529 82.6451 112.865 81.9051L111.377 81.0701L106.081 76.0601C106.689 79.1301 106.865 85.1101 104.076 86.9251L104.07 86.9201Z" fill="#B97964"/>
<path opacity="0.2" d="M112.071 84.425C110.615 83.615 109.015 82.21 109.207 80.605C109.292 79.93 109.447 79.29 109.623 78.875L112.583 82.545C112.338 83.135 112.252 83.53 112.076 84.425H112.071Z" fill="black"/>
<path d="M105.044 70.405C105.54 75.505 105.636 77.67 108.447 80.345C112.671 84.37 119.167 83.015 120.287 77.96C121.295 73.41 120.308 65.835 114.969 63.69C109.705 61.58 104.548 65.31 105.049 70.41L105.044 70.405Z" fill="#B97964"/>
<path d="M112.096 72.07C112.122 72.61 112.432 73.055 112.794 73.06C113.152 73.065 113.418 72.635 113.392 72.095C113.365 71.555 113.056 71.11 112.693 71.105C112.336 71.1 112.069 71.53 112.096 72.07Z" fill="#263238"/>
<path d="M117.463 72.055C117.489 72.58 117.799 73.01 118.156 73.015C118.513 73.02 118.78 72.605 118.753 72.08C118.727 71.555 118.417 71.13 118.06 71.12C117.703 71.115 117.436 71.53 117.463 72.055Z" fill="#263238"/>
<path d="M110.96 70.1901C111.029 70.1951 111.098 70.1801 111.152 70.1301C111.989 69.4001 112.933 69.6601 112.944 69.6601C113.082 69.7001 113.226 69.6251 113.258 69.4901C113.29 69.3551 113.2 69.2151 113.061 69.1751C113.013 69.1601 111.829 68.8401 110.789 69.7451C110.688 69.8351 110.682 69.9951 110.789 70.1001C110.837 70.1501 110.901 70.1801 110.965 70.1901H110.96Z" fill="#263238"/>
<path d="M119.265 69.4951C119.318 69.4801 119.366 69.4401 119.388 69.3851C119.436 69.2701 119.377 69.1251 119.254 69.0551C118.012 68.4001 117.089 68.9001 117.052 68.9201C116.94 68.9801 116.918 69.1251 116.993 69.2451C117.068 69.3651 117.222 69.4101 117.329 69.3501C117.366 69.3301 118.086 68.9551 119.073 69.4751C119.137 69.5101 119.206 69.5151 119.265 69.4951Z" fill="#263238"/>
<path d="M116 71.805C116 71.805 116.853 73.715 117.813 74.905C117.979 75.115 117.877 75.415 117.616 75.505C116.944 75.735 116.16 75.525 116.16 75.525L116.005 71.8L116 71.805Z" fill="#A24E3F"/>
<path d="M112.484 71.1251L113.732 70.8501C113.732 70.8501 113.05 71.7251 112.484 71.1251Z" fill="#263238"/>
<path d="M117.926 71.1301L119.174 70.8551C119.174 70.8551 118.491 71.7301 117.926 71.1301Z" fill="#263238"/>
<path d="M106.934 72.17C106.934 72.17 109.739 68.21 109.595 65C109.595 65 114.966 63.685 119.254 69.055C119.937 69.91 120.342 71.335 120.955 72.565C120.955 72.565 121.979 62.86 112.795 62.065C103.622 61.27 101.819 73.36 106.294 77.425C106.294 77.425 105.195 74.65 106.934 72.17Z" fill="#263238"/>
<path d="M103.402 74.5651C104.042 75.6101 105.087 76.2701 106.047 76.4951C107.487 76.8351 108.229 74.6651 107.738 73.3101C107.295 72.09 105.882 71.2851 104.479 71.5501C103.098 71.8101 102.666 73.3701 103.402 74.5651Z" fill="#B97964"/>
<path opacity="0.2" d="M106.442 74.4201C106.372 74.4201 106.314 74.3701 106.308 74.3051C106.276 73.8501 106.047 73.4201 105.684 73.1201C105.322 72.8201 104.836 72.6651 104.351 72.6951C104.276 72.6951 104.212 72.6451 104.207 72.5801C104.207 72.5101 104.26 72.4501 104.33 72.4451C104.879 72.4101 105.439 72.5901 105.855 72.9301C106.271 73.2751 106.532 73.7651 106.57 74.2851C106.57 74.3551 106.516 74.4151 106.447 74.4201H106.436H106.442Z" fill="black"/>
<path d="M115.207 76.6301C114.7 76.4201 113.719 75.8001 113.015 75.6351C112.604 75.5351 112.22 75.8851 112.215 76.2851C112.215 76.3301 112.215 76.3751 112.226 76.4201C112.343 77.0201 112.844 77.7001 114.252 78.2301C114.359 78.2751 114.466 78.3101 114.578 78.3501C114.578 78.3501 115.223 77.3351 115.698 76.8301C115.698 76.8301 115.5 76.7651 115.202 76.6351L115.207 76.6301Z" fill="#263238"/>
<path d="M115.691 76.815L115.35 77.255C113.974 76.735 113.083 76.195 112.816 75.64C112.992 75.46 114.635 76.35 114.635 76.35C114.875 76.485 114.971 76.515 115.691 76.815Z" fill="white"/>
<path d="M114.256 78.2251C112.795 77.6751 112.309 76.9651 112.219 76.3501C112.709 76.5551 113.275 76.8551 113.712 77.2651C114.048 77.5751 114.197 77.9151 114.256 78.2301V78.2251Z" fill="#DE5753"/>
<path d="M94.4766 225.055L95.0739 225.835L96.2632 225.355L97.0046 228.785L102.013 235.34C102.013 235.34 103.917 235.625 102.418 231.9C102.349 231.73 102.295 231.545 102.258 231.335C101.81 229.105 102.791 224.835 102.791 224.835L100.045 221.235C100.045 221.235 99.7566 221.235 99.2712 221.315C98.1352 221.495 95.8579 222.015 94.4766 225.05V225.055Z" fill="#8568F5"/>
<path opacity="0.2" d="M94.4766 225.055L95.0739 225.835L96.2632 225.355L97.0046 228.785L102.013 235.34C102.013 235.34 103.917 235.625 102.418 231.9C102.349 231.73 102.295 231.545 102.258 231.335C101.81 229.105 102.791 224.835 102.791 224.835L100.045 221.235C100.045 221.235 99.7566 221.235 99.2712 221.315C98.1352 221.495 95.8579 222.015 94.4766 225.05V225.055Z" fill="black"/>
<path d="M99.2724 221.32L99.2617 221.33C100.184 221.425 99.3737 225.265 99.7471 227.42C100.083 229.345 100.968 231.155 102.259 231.345C101.811 229.115 103.422 224.035 103.422 224.035L101.214 221.14C101.214 221.14 99.7631 221.245 99.2724 221.32Z" fill="#A24E3F"/>
<path d="M102.142 235.1H103.16L103.443 233.91L106.819 235.35H115.374C115.374 235.35 116.734 234.055 112.659 233.025C112.472 232.98 112.28 232.91 112.083 232.815C109.912 231.85 106.819 228.6 106.819 228.6H102.126C102.126 228.6 101.96 228.82 101.742 229.24C101.23 230.215 100.344 232.265 102.142 235.1Z" fill="#8568F5"/>
<path d="M101.746 229.24V229.255C102.365 228.6 105.186 231.47 107.255 232.445C109.101 233.315 111.175 233.695 112.093 232.815C109.922 231.85 106.471 227.43 106.471 227.43L102.701 227.54C102.701 227.54 101.97 228.825 101.751 229.24H101.746Z" fill="#B97964"/>
<path d="M109.922 190.48C112.253 184.46 115.101 178.545 118.53 173.755C104.525 136.095 104.967 119.25 104.967 119.25L121.831 119.235L123.629 125.535C123.629 125.535 127.842 141.215 129.069 150.215L132.589 170.225V170.28C132.829 174.435 131.847 178.56 129.751 182.215C127.458 186.21 123.405 190.95 121.181 195.25C118.253 200.93 115.495 206.62 113.133 211.715C110.647 217.085 108.626 221.775 107.362 225.035C106.167 225.16 102.562 223.13 101.527 221.29C101.527 221.29 104.082 205.585 109.927 190.48H109.922Z" fill="#263238"/>
<path opacity="0.2" d="M114.624 162.55C112.571 156.15 110.272 152.5 109.227 147.745C109.216 146.635 113.152 141.885 115.152 139.97C115.152 139.97 117.563 149.05 114.624 162.545V162.55Z" fill="black"/>
<path opacity="0.2" d="M113.129 211.715C110.643 217.085 108.622 221.775 107.358 225.035C106.163 225.16 102.558 223.13 101.523 221.29C101.523 221.29 104.078 205.585 109.918 190.48C111.107 196.715 112.435 204.595 113.129 211.715Z" fill="black"/>
<path d="M117.564 119.59C117.564 119.59 111.148 161.19 110.402 170.555C110.402 170.555 106.439 215.985 107.148 227.405L98.3057 227.81C98.3057 227.81 92.359 193.4 95.367 171.32C95.6283 168.44 92.887 149.665 92.455 142.19C91.415 124.195 99.2017 119.255 99.2017 119.255L117.57 119.6L117.564 119.59Z" fill="#263238"/>
<path d="M147.272 107.905C147.144 107.885 141.779 110.425 141.779 110.425L139.203 104.565L143.534 104.595C143.534 104.595 147.491 107.82 147.379 107.86" fill="#B97964"/>
<path d="M143.309 104.665C143.309 104.665 143.389 102.785 144.621 101.745C145.853 100.705 146.541 99.5701 147.517 98.8551C148.487 98.1401 148.167 99.6751 147.821 100.46C147.474 101.245 147.09 102.135 147.757 102.285C148.429 102.435 154.109 100.865 155.01 101.17C155.911 101.475 155.079 102 155.079 102C155.079 102 156.354 101.655 156.765 102.135C157.175 102.61 156.445 103.05 156.445 103.05C156.445 103.05 157.309 102.85 157.394 103.435C157.474 104.025 153.122 105.965 152.973 106.15C152.973 106.15 155.165 104.58 155.783 105.075C156.402 105.575 154.877 106.475 153.677 107.22C152.477 107.965 150.951 108.39 149.495 108.23C148.034 108.065 145.495 108.51 144.599 107.16C143.703 105.81 143.309 104.66 143.309 104.66V104.665Z" fill="#B97964"/>
<g opacity="0.2">
<path d="M156.301 103.225C154.845 103.625 153.405 104.07 151.997 104.565C152.125 104.915 152.221 105.275 152.29 105.64C152.322 105.825 152.018 105.8 151.981 105.62C151.767 104.515 151.282 103.45 150.546 102.47C150.429 102.31 150.679 102.195 150.797 102.355C150.978 102.6 151.143 102.845 151.293 103.095C151.303 103.07 151.325 103.055 151.351 103.045C152.423 102.58 153.554 102.245 154.749 102.025C154.93 101.995 155.037 102.265 154.85 102.3C153.682 102.51 152.573 102.84 151.527 103.295C151.485 103.31 151.682 103.71 151.639 103.695C151.831 104.02 151.757 103.955 151.89 104.295C153.303 103.805 154.733 103.355 156.194 102.955C156.37 102.905 156.471 103.175 156.295 103.225H156.301Z" fill="black"/>
</g>
<g opacity="0.2">
<path d="M150.198 104.19C148.438 103.815 146.86 104.415 146.086 105.725C146.001 105.875 145.724 105.725 145.809 105.57C146.646 104.15 148.353 103.525 150.252 103.925C150.449 103.97 150.39 104.23 150.204 104.19H150.198Z" fill="black"/>
</g>
<path d="M119.002 87.675C121.776 88.95 123.877 91.215 124.853 93.96C126.608 98.885 127.616 106.44 127.616 106.44C127.616 106.44 139.626 103.85 142.384 103.475L144.672 109.475C144.672 109.475 128.816 116.415 127.264 116.805C122.666 117.955 120.298 110.5 120.298 110.5L118.688 87.535L118.997 87.68L119.002 87.675Z" fill="#8568F5"/>
<path opacity="0.2" d="M106.365 120.21L104.962 140.875L92.3594 139.465V137.34L106.365 120.21Z" fill="black"/>
<path d="M100.266 120.73C99.7757 115.49 97.7864 105.885 94.3678 95.7951C93.2531 92.5151 95.1411 88.8101 95.1411 88.8101C95.1411 88.8101 99.7917 88.6951 100.266 88.6501C100.784 88.5951 101.312 88.5451 101.84 88.5001C105.834 88.1901 109.104 87.9651 112.661 88.1551C113.557 88.2051 114.474 88.2751 115.376 88.3451C115.669 88.3751 117.557 88.4001 117.84 88.4301C117.84 88.4301 122.96 94.0451 123.237 98.0101C123.386 100.225 124.528 101.18 124.4 106.475C124.378 110.075 121.594 115.315 121.338 120.375L100.261 120.73H100.266Z" fill="white"/>
<path d="M104.254 139.195L89.4219 137.74L98.8192 113.055C98.8192 113.055 98.0405 112.81 96.6965 108.08C96.0459 105.78 95.3685 103.34 94.7925 101.165C93.9552 98.0351 93.3312 95.4351 93.2832 94.5901C93.1339 91.9451 96.5579 87.7501 96.5579 87.7501L105.241 86.7501C105.241 86.7501 106.899 92.3701 107.251 103.115C107.603 113.85 104.254 139.195 104.254 139.195Z" fill="#8568F5"/>
<path d="M112.728 86.1251C112.728 86.1251 120.189 94.5651 122.024 100.655C123.229 104.66 120.851 116.2 121.128 119.255C121.587 124.285 123.955 130.445 127.027 139.465L129.059 139.195L123.459 119.23C123.459 119.23 126.051 104.185 125.357 100.42C124.669 96.6551 118.685 87.5301 118.685 87.5301L115.955 87.3551L112.723 86.1251H112.728Z" fill="#8568F5"/>
<path d="M105.01 85.5651C105.01 85.5651 108.365 91.7751 107.095 107.405L101.517 96.1701L103.533 93.1001L100.855 88.0801C100.855 88.0801 103.719 86.3501 104.925 85.4401L105.005 85.5651H105.01Z" fill="#8568F5"/>
<path opacity="0.2" d="M97.7757 106.805C97.5304 107.4 97.1464 107.805 96.6931 108.08C96.0424 105.78 95.3651 103.34 94.7891 101.165C96.2984 99.4451 97.5731 98.0051 97.5731 98.0051C97.5731 98.0051 99.3117 103.105 97.7757 106.8V106.805Z" fill="black"/>
<g opacity="0.2">
<path d="M105.01 85.5651C105.01 85.5651 108.365 91.7751 107.095 107.405L101.517 96.1701L103.533 93.1001L100.855 88.0801C100.855 88.0801 103.719 86.3501 104.925 85.4401L105.005 85.5651H105.01Z" fill="black"/>
</g>
<path d="M122.197 107.495C122.197 107.495 123.445 104.05 123.216 100.87C122.987 97.69 122.933 95.315 122.933 95.315L119.083 92.65L119.589 89.4C119.589 89.4 117.733 88.33 116.011 87.235C114.832 86.485 112.523 85.355 112.219 85.445C112.219 85.445 122.048 97.11 122.101 101.88C122.149 106.48 122.197 107.5 122.197 107.5V107.495Z" fill="#8568F5"/>
<path opacity="0.3" d="M122.197 107.495C122.197 107.495 123.445 104.05 123.216 100.87C122.987 97.69 122.933 95.315 122.933 95.315L119.083 92.65L119.589 89.4C119.589 89.4 117.733 88.33 116.011 87.235C114.832 86.485 112.523 85.355 112.219 85.445C112.219 85.445 122.048 97.11 122.101 101.88C122.149 106.48 122.197 107.5 122.197 107.5V107.495Z" fill="black"/>
<path opacity="0.3" d="M123.969 116.12L125.43 103.89V116.92C125.43 116.92 124.491 116.47 123.969 116.115V116.12Z" fill="black"/>
<path opacity="0.2" d="M106.675 116.705L97.6505 116.125L97.1172 117.525L106.509 118.645L106.675 116.705Z" fill="black"/>
<path d="M113.409 128.05H127.574C128.929 128.05 130.027 127.02 130.027 125.75V105.235C130.027 103.965 128.929 102.935 127.574 102.935H113.409C112.054 102.935 110.955 103.965 110.955 105.235V125.75C110.955 127.02 112.054 128.05 113.409 128.05Z" fill="#263238"/>
<path opacity="0.3" d="M113.409 128.05H127.574C128.929 128.05 130.027 127.02 130.027 125.75V105.235C130.027 103.965 128.929 102.935 127.574 102.935H113.409C112.054 102.935 110.955 103.965 110.955 105.235V125.75C110.955 127.02 112.054 128.05 113.409 128.05Z" fill="white"/>
<path d="M116.838 104.61H124.145V101.98H116.838V104.61Z" fill="#263238"/>
<path d="M122.473 102.33L123.113 100.555H117.859L118.345 102.33H122.473Z" fill="#263238"/>
<path d="M113.693 111.04L108.872 112.115L108.328 115.79C108.792 118.26 113.315 116.805 113.315 116.805L114.344 117.42C115.181 117.92 117.171 117.37 117.341 116.45L117.459 114.095C117.549 113.615 116.877 112.695 116.472 112.4L114.931 111.265C114.579 111.005 114.12 110.92 113.693 111.04Z" fill="#B97964"/>
<path d="M96.7907 87.7351C93.5214 87.6051 85.964 102.355 83.0147 109.545C82.14 111.675 83.4734 115.055 85.164 115.49C88.9507 116.47 108.503 116.8 108.503 116.8L109.223 111.505L93.0947 108.34L98.252 101.045C98.252 101.045 100.183 97.3651 99.82 93.9551C99.4574 90.5401 96.7854 87.7351 96.7854 87.7351H96.7907Z" fill="#8568F5"/>
<path opacity="0.2" d="M93.0954 108.345C93.0954 108.345 90.7061 108 89.1914 109.185C89.1914 109.185 90.8287 106.73 93.7621 107.41L93.1007 108.35L93.0954 108.345Z" fill="black"/>
<path d="M114.7 88.5501L112.055 85.1451L110.796 87.1701L105.9 84.0701L104.93 85.4351L106.786 90.5351C106.786 90.5351 111.42 92.3151 111.666 92.3151C111.911 92.3151 114.7 88.5501 114.7 88.5501Z" fill="white"/>
<path opacity="0.3" d="M114.824 88.7101L113.742 91.2201L111.054 88.7101L109.219 91.6551L106.488 90.4001L109.4 92.5651L111.086 89.3351L114.174 92.0601L114.824 88.7101Z" fill="black"/>
<path d="M55.1335 156.405C46.5735 165.79 44.0722 179.685 48.8775 191.185C54.2109 186.72 57.9708 179.915 58.2055 173.965C58.4455 168.015 56.7815 162.155 55.1335 156.405Z" fill="#8568F5"/>
<path d="M53.6406 192.265C50.7339 196.435 49.3472 201.515 49.7472 206.485C54.3766 204.975 58.4512 200.075 60.8992 196.095C63.3472 192.115 64.7126 187.645 65.9552 183.2C60.9419 184.855 56.5419 188.09 53.6352 192.265H53.6406Z" fill="#8568F5"/>
<path d="M52.5537 172.79C49.1137 184.38 47.3644 196.395 47.375 208.425C47.375 211.845 47.5244 215.265 47.8124 218.675C47.8337 218.915 48.2337 218.915 48.2124 218.675C47.2097 206.675 47.9564 194.56 50.4417 182.755C51.1404 179.44 51.9777 176.15 52.943 172.895C53.0124 172.66 52.6284 172.565 52.559 172.795L52.5537 172.79Z" fill="#263238"/>
<path d="M47.949 210.415C51.4637 202.575 56.077 195.235 61.4157 188.37C61.565 188.175 61.2183 187.985 61.069 188.18C55.709 195.075 51.0903 202.445 47.5597 210.315C47.4583 210.535 47.8477 210.635 47.9437 210.415H47.949Z" fill="#263238"/>
<path d="M42.9478 198.765C45.3691 202.245 46.5264 206.48 46.1904 210.62C42.3344 209.36 38.9318 205.275 36.8944 201.955C34.8571 198.635 33.7158 194.91 32.6758 191.205C36.8571 192.585 40.5264 195.285 42.9478 198.765Z" fill="#8568F5"/>
<path d="M47.8483 213.365C44.963 206.935 41.155 200.98 36.7817 195.35C36.6323 195.155 36.2857 195.345 36.435 195.54C40.787 201.14 44.5897 207.07 47.459 213.465C47.555 213.685 47.9443 213.59 47.843 213.365H47.8483Z" fill="#263238"/>
<path d="M47.9778 215.52C53.4231 210.27 58.9804 205.125 64.4258 199.87C64.6071 199.695 64.3244 199.43 64.1431 199.605C58.6978 204.855 53.1404 210 47.6951 215.255C47.5138 215.43 47.7964 215.695 47.9778 215.52Z" fill="#263238"/>
<path d="M64.6108 197.445C59.8854 201.715 55.5814 206.395 51.7734 211.405H52.6374C56.2321 211.245 59.7254 209.585 61.9761 206.955C64.2321 204.325 65.2134 200.775 64.6108 197.445Z" fill="#8568F5"/>
<path d="M42.2331 187.27C44.2598 190.38 46.1744 193.555 47.9611 196.79C48.0784 197.005 48.4251 196.815 48.3078 196.6C46.5158 193.365 44.6064 190.19 42.5798 187.08C42.4464 186.875 42.0998 187.065 42.2331 187.27Z" fill="#263238"/>
<path d="M37.3592 171.555C36.5859 174.815 35.8179 179.06 35.8125 182.455C35.8072 185.85 36.9112 189.165 38.9699 191.44C41.0285 193.715 45.1832 194.715 46.8579 193.41L37.3592 171.555Z" fill="#8568F5"/>
<path d="M57.8925 217.02H37.2578V220.605H57.8925V217.02Z" fill="#263238"/>
<path d="M54.5476 233.375H41.7369L39.4062 219.785H56.3876L54.5476 233.375Z" fill="#263238"/>
<path opacity="0.2" d="M39.5547 220.67H56.264L56.056 222.21H39.8214L39.5547 220.67Z" fill="black"/>
<path d="M353.059 156.405C344.499 165.79 341.998 179.685 346.803 191.185C352.137 186.72 355.897 179.915 356.131 173.965C356.371 168.015 354.707 162.155 353.059 156.405Z" fill="#8568F5"/>
<path d="M351.566 192.265C348.66 196.435 347.273 201.515 347.673 206.485C352.302 204.975 356.377 200.075 358.825 196.095C361.273 192.115 362.638 187.645 363.881 183.2C358.868 184.855 354.468 188.09 351.561 192.265H351.566Z" fill="#8568F5"/>
<path d="M350.48 172.79C347.04 184.38 345.29 196.395 345.301 208.425C345.301 211.845 345.45 215.265 345.738 218.675C345.76 218.915 346.16 218.915 346.138 218.675C345.136 206.675 345.882 194.56 348.367 182.755C349.066 179.44 349.903 176.15 350.869 172.895C350.938 172.66 350.554 172.565 350.485 172.795L350.48 172.79Z" fill="#263238"/>
<path d="M345.875 210.415C349.389 202.575 354.003 195.235 359.341 188.37C359.491 188.175 359.144 187.985 358.995 188.18C353.635 195.075 349.016 202.445 345.485 210.315C345.384 210.535 345.773 210.635 345.869 210.415H345.875Z" fill="#263238"/>
<path d="M340.874 198.765C343.295 202.245 344.452 206.48 344.116 210.62C340.26 209.36 336.858 205.275 334.82 201.955C332.783 198.635 331.642 194.91 330.602 191.205C334.783 192.585 338.452 195.285 340.874 198.765Z" fill="#8568F5"/>
<path d="M345.774 213.365C342.889 206.935 339.081 200.98 334.707 195.35C334.558 195.155 334.211 195.345 334.361 195.54C338.713 201.14 342.521 207.07 345.385 213.465C345.481 213.685 345.87 213.59 345.769 213.365H345.774Z" fill="#263238"/>
<path d="M345.904 215.52C351.349 210.27 356.906 205.125 362.352 199.87C362.533 199.695 362.25 199.43 362.069 199.605C356.624 204.855 351.066 210 345.621 215.255C345.44 215.43 345.722 215.695 345.904 215.52Z" fill="#263238"/>
<path d="M362.537 197.445C357.811 201.715 353.507 206.395 349.699 211.405H350.563C354.158 211.245 357.651 209.585 359.902 206.955C362.158 204.325 363.139 200.775 362.537 197.445Z" fill="#8568F5"/>
<path d="M340.159 187.27C342.186 190.38 344.1 193.555 345.887 196.79C346.004 197.005 346.351 196.815 346.234 196.6C344.442 193.365 342.532 190.19 340.506 187.08C340.372 186.875 340.026 187.065 340.159 187.27Z" fill="#263238"/>
<path d="M335.285 171.555C334.512 174.815 333.744 179.06 333.738 182.455C333.733 185.85 334.837 189.165 336.896 191.44C338.954 193.715 343.109 194.715 344.784 193.41L335.285 171.555Z" fill="#8568F5"/>
<path d="M355.818 217.02H335.184V220.605H355.818V217.02Z" fill="#263238"/>
<path d="M352.473 233.375H339.663L337.332 219.785H354.313L352.473 233.375Z" fill="#263238"/>
<path opacity="0.2" d="M337.48 220.67H354.19L353.982 222.21H337.747L337.48 220.67Z" fill="black"/>
</g>
<defs>
<clipPath id="clip0_660_2860">
<rect width="390.667" height="246" fill="white" transform="translate(0.332031)"/>
</clipPath>
</defs>
</svg>
