<svg width="750" height="500" viewBox="0 0 750 500" fill="none" xmlns="http://www.w3.org/2000/svg">
<rect width="750" height="500" fill="#8468F5" fill-opacity="0.8"/>
<path d="M598.942 354.43C598.942 352.84 598.872 236.96 598.752 49.54L598.942 49.74L51.1419 49.8L51.4019 49.54C51.4019 157.34 51.4019 260.47 51.4019 354.43L51.1619 354.19L599.002 354.43L51.1619 354.67H50.9219V354.43C50.9219 260.43 50.9219 157.34 50.9219 49.54V49.28H51.2219L599.022 49.34H599.222V49.54C599.002 237 599.002 352.84 598.942 354.43Z" fill="#E0E0E0"/>
<path d="M598.952 49.54H51.1016V72.89H598.952V49.54Z" fill="#E0E0E0"/>
<path d="M69.0009 60.52C69.0009 61.2661 68.7796 61.9954 68.3649 62.6155C67.9502 63.2357 67.3608 63.7189 66.6713 64.004C65.9819 64.289 65.2233 64.3631 64.4918 64.2168C63.7602 64.0705 63.0885 63.7105 62.5616 63.1822C62.0348 62.654 61.6765 61.9813 61.5322 61.2494C61.3878 60.5174 61.4639 59.7591 61.7508 59.0704C62.0377 58.3817 62.5224 57.7936 63.1437 57.3805C63.765 56.9675 64.4949 56.748 65.2409 56.75C65.7356 56.75 66.2253 56.8476 66.6821 57.0372C67.139 57.2268 67.5539 57.5046 67.9032 57.8548C68.2525 58.205 68.5292 58.6207 68.7176 59.0781C68.906 59.5354 69.0023 60.0254 69.0009 60.52Z" fill="white"/>
<path d="M80.6416 60.52C80.6416 61.2661 80.4202 61.9954 80.0055 62.6155C79.5908 63.2357 79.0014 63.7189 78.312 64.004C77.6225 64.289 76.864 64.3631 76.1324 64.2168C75.4008 64.0705 74.7291 63.7105 74.2022 63.1822C73.6754 62.654 73.3171 61.9813 73.1728 61.2494C73.0285 60.5174 73.1045 59.7591 73.3914 59.0704C73.6783 58.3817 74.1631 57.7936 74.7843 57.3805C75.4056 56.9675 76.1355 56.748 76.8816 56.75C77.3762 56.75 77.8659 56.8476 78.3228 57.0372C78.7796 57.2268 79.1945 57.5046 79.5438 57.8548C79.8931 58.205 80.1699 58.6207 80.3582 59.0781C80.5466 59.5354 80.6429 60.0254 80.6416 60.52Z" fill="white"/>
<path d="M92.3056 60.52C92.3056 61.2656 92.0845 61.9945 91.6703 62.6145C91.256 63.2345 90.6672 63.7177 89.9783 64.003C89.2895 64.2884 88.5314 64.363 87.8001 64.2176C87.0688 64.0721 86.3971 63.713 85.8698 63.1858C85.3426 62.6586 84.9835 61.9868 84.8381 61.2555C84.6926 60.5242 84.7673 59.7662 85.0526 59.0773C85.3379 58.3884 85.8212 57.7996 86.4411 57.3854C87.0611 56.9711 87.79 56.75 88.5356 56.75C89.0311 56.7487 89.5219 56.8453 89.9799 57.0343C90.4379 57.2233 90.854 57.5009 91.2044 57.8513C91.5547 58.2016 91.8323 58.6177 92.0213 59.0757C92.2103 59.5337 92.3069 60.0246 92.3056 60.52Z" fill="white"/>
<path d="M646.244 96.1201H92.1641V465.5H646.244V96.1201Z" fill="#FAFAFA"/>
<path d="M646.244 96.1201H92.1641V119.73H646.244V96.1201Z" fill="#263238"/>
<path d="M646.246 119.73C646.246 119.25 646.246 112.28 646.176 96.1201L646.246 96.1901L92.2462 96.3801L92.5062 96.1201V119.73L92.2462 119.47L646.326 119.73L92.1662 120H91.9062V95.8601H92.1962L646.246 96.0501H646.316V96.1201C646.266 112.28 646.246 119.25 646.246 119.73Z" fill="#263238"/>
<path d="M110.268 107.22C110.268 107.974 110.045 108.71 109.626 109.337C109.208 109.963 108.613 110.452 107.916 110.74C107.22 111.028 106.454 111.104 105.715 110.957C104.976 110.81 104.297 110.447 103.764 109.914C103.232 109.381 102.869 108.702 102.722 107.963C102.575 107.224 102.65 106.458 102.938 105.762C103.227 105.066 103.715 104.471 104.342 104.052C104.968 103.633 105.705 103.41 106.458 103.41C107.469 103.41 108.438 103.811 109.153 104.526C109.867 105.24 110.268 106.21 110.268 107.22Z" fill="#E0E0E0"/>
<path d="M122.05 107.22C122.05 107.974 121.826 108.71 121.408 109.337C120.989 109.963 120.394 110.452 119.698 110.74C119.002 111.028 118.235 111.104 117.496 110.957C116.757 110.81 116.078 110.447 115.546 109.914C115.013 109.381 114.65 108.702 114.503 107.963C114.356 107.224 114.431 106.458 114.72 105.762C115.008 105.066 115.496 104.471 116.123 104.052C116.75 103.633 117.486 103.41 118.24 103.41C118.74 103.409 119.236 103.506 119.699 103.697C120.162 103.888 120.583 104.169 120.937 104.523C121.291 104.877 121.571 105.298 121.762 105.76C121.953 106.223 122.051 106.719 122.05 107.22Z" fill="#E0E0E0"/>
<path d="M133.839 107.22C133.839 107.974 133.615 108.71 133.197 109.337C132.778 109.963 132.183 110.452 131.487 110.74C130.791 111.028 130.025 111.104 129.285 110.957C128.546 110.81 127.868 110.447 127.335 109.914C126.802 109.381 126.439 108.702 126.292 107.963C126.145 107.224 126.22 106.458 126.509 105.762C126.797 105.066 127.285 104.471 127.912 104.052C128.539 103.633 129.275 103.41 130.029 103.41C131.039 103.41 132.008 103.811 132.723 104.526C133.437 105.24 133.839 106.21 133.839 107.22Z" fill="#E0E0E0"/>
<path d="M247.706 188H225.706L221.506 198.16H210.266L231.386 150.76H242.226L263.416 198.16H251.906L247.706 188ZM244.256 179.67L236.736 161.52L229.226 179.67H244.256Z" fill="#455A64"/>
<path d="M307.307 179.9C307.307 191.35 299.377 198.66 289.157 198.66C284.277 198.66 280.347 197.1 277.707 193.92V198.12H267.617V147.87H278.187V165.55C280.897 162.55 284.617 161.15 289.187 161.15C299.377 161.15 307.307 168.46 307.307 179.9ZM296.607 179.9C296.607 173.61 292.607 169.81 287.327 169.81C282.047 169.81 278.047 173.61 278.047 179.9C278.047 186.19 282.047 189.99 287.327 189.99C292.607 189.99 296.607 186.2 296.607 179.9Z" fill="#455A64"/>
<path d="M311.633 179.9C311.633 168.9 320.093 161.15 331.633 161.15C343.173 161.15 351.633 168.93 351.633 179.9C351.633 190.87 343.233 198.66 331.633 198.66C320.033 198.66 311.633 190.87 311.633 179.9ZM340.953 179.9C340.953 173.61 336.953 169.81 331.673 169.81C326.393 169.81 322.333 173.61 322.333 179.9C322.333 186.19 326.393 190 331.673 190C336.953 190 340.993 186.2 340.993 179.9H340.953Z" fill="#455A64"/>
<path d="M395.403 161.69V198.12H385.403V193.79C383.983 195.369 382.237 196.622 380.287 197.462C378.336 198.303 376.227 198.712 374.103 198.66C364.953 198.66 358.523 193.52 358.523 182.27V161.69H369.083V180.69C369.083 186.78 371.793 189.49 376.473 189.49C381.343 189.49 384.863 186.37 384.863 179.67V161.67L395.403 161.69Z" fill="#455A64"/>
<path d="M428.713 196.36C426.143 197.976 423.146 198.778 420.113 198.66C411.513 198.66 406.503 194.26 406.503 185.59V170.59H400.883V162.5H406.503V153.63H417.073V162.5H426.143V170.63H417.073V185.46C417.073 188.57 418.763 190.26 421.603 190.26C423.134 190.281 424.632 189.808 425.873 188.91L428.713 196.36Z" fill="#455A64"/>
<path d="M490.546 161.69V198.12H480.546V193.79C479.123 195.369 477.376 196.621 475.424 197.462C473.472 198.302 471.361 198.711 469.236 198.66C460.096 198.66 453.656 193.52 453.656 182.27V161.69H464.226V180.69C464.226 186.78 466.936 189.49 471.606 189.49C476.486 189.49 480.006 186.37 480.006 179.67V161.67L490.546 161.69Z" fill="#455A64"/>
<path d="M496.844 194.73L500.364 187.15C504.184 189.431 508.545 190.646 512.994 190.67C517.874 190.67 519.704 189.38 519.704 187.35C519.704 181.35 497.704 187.49 497.704 172.93C497.704 166.02 503.934 161.15 514.564 161.15C519.564 161.15 525.134 162.3 528.564 164.33L525.044 171.85C521.844 170.036 518.221 169.101 514.544 169.14C509.804 169.14 507.774 170.63 507.774 172.52C507.774 178.75 529.774 172.73 529.774 187.08C529.774 193.85 523.474 198.66 512.574 198.66C506.464 198.66 500.224 197 496.844 194.73Z" fill="#455A64"/>
<path d="M582.257 465.47C560.877 443 529.487 432 498.437 432.22C475.757 432.37 452.097 439.14 431.027 430.78C411.517 423.04 399.137 404.25 383.967 389.78C360.342 367.434 329.124 354.877 296.607 354.64C274.787 354.57 250.767 359.58 232.767 347.24C220.627 338.91 214.417 324.56 205.887 312.55C180.887 277.34 132.757 262.66 92.4766 278.22V465.22L582.257 465.47Z" fill="#EBEBEB"/>
<path d="M646.243 465.5C646.243 463.8 646.163 321.31 646.033 96.1201L646.243 96.3301H92.2434L92.5034 96.0701C92.5034 227.61 92.5034 352.73 92.5034 465.45L92.2634 465.21L646.343 465.45L92.2634 465.69H92.0234V465.45C92.0234 352.73 92.0234 227.61 92.0234 96.0701V95.8101H92.3334H646.333H646.543V96.0201C646.323 321.31 646.243 463.8 646.243 465.5Z" fill="#263238"/>
<path d="M161.578 176.92C161.578 177.29 158.858 177.6 155.488 177.6C152.118 177.6 149.398 177.29 149.398 176.92C149.398 176.55 152.128 176.25 155.488 176.25C158.848 176.25 161.578 176.55 161.578 176.92Z" fill="#263238"/>
<path d="M168.045 160.36C168.415 160.36 168.715 163.12 168.715 166.54C168.715 169.96 168.415 172.72 168.045 172.72C167.675 172.72 167.375 169.95 167.375 166.54C167.375 163.13 167.675 160.36 168.045 160.36Z" fill="#263238"/>
<path d="M174.938 176.53C174.938 176.15 177.658 175.85 181.018 175.85C184.378 175.85 187.107 176.15 187.107 176.53C187.107 176.91 184.388 177.2 181.018 177.2C177.648 177.2 174.938 176.9 174.938 176.53Z" fill="#263238"/>
<path d="M168.467 193.09C168.097 193.09 167.797 190.32 167.797 186.91C167.797 183.5 168.097 180.73 168.467 180.73C168.837 180.73 169.137 183.5 169.137 186.91C169.137 190.32 168.837 193.09 168.467 193.09Z" fill="#263238"/>
<path d="M178.304 186C178.024 186.23 176.824 185.27 175.624 183.83C174.424 182.39 173.694 181.05 173.974 180.83C174.254 180.61 175.464 181.56 176.654 182.99C177.844 184.42 178.594 185.75 178.304 186Z" fill="#263238"/>
<path d="M177.735 167.2C178.005 167.46 177.205 168.69 175.965 169.94C174.725 171.19 173.505 172 173.245 171.74C172.985 171.48 173.775 170.25 175.015 168.99C176.255 167.73 177.475 166.94 177.735 167.2Z" fill="#263238"/>
<path d="M163.775 172C163.545 172.28 162.395 171.72 161.205 170.73C160.015 169.74 159.265 168.73 159.495 168.43C159.725 168.13 160.885 168.71 162.075 169.7C163.265 170.69 163.995 171.7 163.775 172Z" fill="#263238"/>
<path d="M163.233 180.26C163.503 180.52 162.813 181.72 161.683 182.96C160.553 184.2 159.423 184.96 159.153 184.74C158.883 184.52 159.563 183.29 160.693 182.05C161.823 180.81 162.993 180 163.233 180.26Z" fill="#263238"/>
<path d="M505.178 144.87C505.178 145.08 503.628 145.25 501.718 145.25C499.808 145.25 498.258 145.08 498.258 144.87C498.258 144.66 499.808 144.49 501.718 144.49C503.628 144.49 505.178 144.66 505.178 144.87Z" fill="#263238"/>
<path d="M508.849 135.47C509.059 135.47 509.229 137.04 509.229 138.97C509.229 140.9 509.059 142.48 508.849 142.48C508.639 142.48 508.469 140.91 508.469 138.97C508.469 137.03 508.639 135.47 508.849 135.47Z" fill="#263238"/>
<path d="M512.758 144.64C512.758 144.43 514.308 144.26 516.218 144.26C518.128 144.26 519.668 144.43 519.668 144.64C519.668 144.85 518.128 145.03 516.218 145.03C514.308 145.03 512.758 144.86 512.758 144.64Z" fill="#263238"/>
<path d="M509.083 154.05C508.873 154.05 508.703 152.48 508.703 150.54C508.703 148.6 508.873 147.03 509.083 147.03C509.293 147.03 509.463 148.6 509.463 150.54C509.463 152.48 509.293 154.05 509.083 154.05Z" fill="#263238"/>
<path d="M514.674 150C514.504 150.13 513.824 149.58 513.144 148.77C512.464 147.96 512.054 147.19 512.214 147.05C512.374 146.91 513.054 147.47 513.734 148.28C514.414 149.09 514.834 149.88 514.674 150Z" fill="#263238"/>
<path d="M514.344 139.35C514.494 139.5 514.044 140.2 513.344 140.91C512.644 141.62 511.944 142.07 511.794 141.91C511.644 141.75 512.094 141.07 512.794 140.36C513.494 139.65 514.194 139.2 514.344 139.35Z" fill="#263238"/>
<path d="M506.43 142.07C506.29 142.23 505.64 141.91 504.97 141.35C504.3 140.79 503.86 140.21 503.97 140.05C504.08 139.89 504.76 140.2 505.43 140.76C506.1 141.32 506.56 141.91 506.43 142.07Z" fill="#263238"/>
<path d="M506.113 146.77C506.263 146.91 505.873 147.59 505.233 148.3C504.593 149.01 503.953 149.45 503.793 149.3C503.633 149.15 504.033 148.47 504.673 147.77C505.313 147.07 505.993 146.63 506.113 146.77Z" fill="#263238"/>
<path d="M348.128 223.53C346.383 223.917 344.574 223.917 342.828 223.53C344.572 223.13 346.384 223.13 348.128 223.53Z" fill="#263238"/>
<path d="M350.995 216.32C351.382 218.089 351.382 219.921 350.995 221.69C350.595 219.922 350.595 218.088 350.995 216.32Z" fill="#263238"/>
<path d="M353.938 223.35C355.683 222.963 357.492 222.963 359.237 223.35C357.493 223.75 355.682 223.75 353.938 223.35Z" fill="#263238"/>
<path d="M351.126 230.56C350.739 228.788 350.739 226.953 351.126 225.18C351.513 226.953 351.513 228.788 351.126 230.56Z" fill="#263238"/>
<path d="M355.408 227.47C355.288 227.57 354.768 227.15 354.248 226.53C353.728 225.91 353.398 225.32 353.528 225.21C353.658 225.1 354.178 225.53 354.698 226.15C355.218 226.77 355.538 227.37 355.408 227.47Z" fill="#263238"/>
<path d="M355.168 219.29C355.278 219.41 354.938 219.94 354.398 220.49C353.858 221.04 353.318 221.38 353.208 221.27C353.098 221.16 353.438 220.62 353.978 220.08C354.518 219.54 355.048 219.18 355.168 219.29Z" fill="#263238"/>
<path d="M349.084 221.38C348.984 221.5 348.484 221.26 347.964 220.83C347.444 220.4 347.114 219.95 347.224 219.83C347.334 219.71 347.824 219.95 348.344 220.38C348.864 220.81 349.184 221.25 349.084 221.38Z" fill="#263238"/>
<path d="M348.845 225C348.965 225.11 348.665 225.63 348.175 226.17C347.685 226.71 347.175 227.06 347.075 226.95C346.975 226.84 347.255 226.32 347.745 225.78C348.235 225.24 348.725 224.87 348.845 225Z" fill="#263238"/>
<path d="M488.92 234.74C488.92 234.95 487.37 235.12 485.46 235.12C483.55 235.12 482 235 482 234.74C482 234.48 483.54 234.35 485.45 234.35C487.36 234.35 488.92 234.53 488.92 234.74Z" fill="#E0E0E0"/>
<path d="M492.583 225.33C492.793 225.33 492.963 226.9 492.963 228.84C492.963 230.78 492.793 232.35 492.583 232.35C492.373 232.35 492.203 230.78 492.203 228.84C492.203 226.9 492.373 225.33 492.583 225.33Z" fill="#E0E0E0"/>
<path d="M496.5 234.51C496.5 234.3 498.05 234.13 499.96 234.13C501.87 234.13 503.41 234.3 503.41 234.51C503.41 234.72 501.87 234.89 499.96 234.89C498.05 234.89 496.5 234.72 496.5 234.51Z" fill="#E0E0E0"/>
<path d="M492.825 243.92C492.615 243.92 492.445 242.34 492.445 240.41C492.445 238.48 492.615 236.9 492.825 236.9C493.035 236.9 493.205 238.47 493.205 240.41C493.205 242.35 492.995 243.92 492.825 243.92Z" fill="#E0E0E0"/>
<path d="M498.416 239.88C498.246 240.02 497.566 239.47 496.886 238.66C496.206 237.85 495.796 237.07 495.956 236.94C496.116 236.81 496.796 237.35 497.476 238.16C498.156 238.97 498.576 239.75 498.416 239.88Z" fill="#E0E0E0"/>
<path d="M498.087 229.22C498.237 229.37 497.787 230.06 497.087 230.77C496.387 231.48 495.687 231.94 495.537 231.77C495.387 231.6 495.837 230.93 496.537 230.21C497.237 229.49 497.937 229.07 498.087 229.22Z" fill="#E0E0E0"/>
<path d="M490.164 231.93C490.024 232.1 489.374 231.78 488.704 231.22C488.034 230.66 487.594 230.07 487.704 229.91C487.814 229.75 488.494 230.07 489.164 230.63C489.834 231.19 490.294 231.77 490.164 231.93Z" fill="#E0E0E0"/>
<path d="M489.855 236.63C490.005 236.78 489.615 237.46 488.975 238.16C488.335 238.86 487.695 239.32 487.535 239.16C487.375 239 487.775 238.33 488.415 237.63C489.055 236.93 489.695 236.49 489.855 236.63Z" fill="#E0E0E0"/>
<path d="M306.678 145.48L307.128 146.56C307.519 147.491 308.089 148.336 308.806 149.046C309.523 149.757 310.373 150.319 311.308 150.7L312.488 151.18L311.358 151.63C310.408 152.017 309.546 152.59 308.823 153.317C308.1 154.044 307.53 154.909 307.148 155.86L306.828 156.64L306.348 155.64C305.489 153.839 303.955 152.449 302.078 151.77L301.078 151.39L302.418 150.75C304.107 149.918 305.431 148.495 306.138 146.75L306.678 145.48Z" fill="#E0E0E0"/>
<path d="M131.043 226.4L131.343 227.12C131.601 227.74 131.979 228.302 132.457 228.774C132.934 229.246 133.5 229.619 134.123 229.87L134.903 230.19L134.153 230.49C133.522 230.748 132.95 231.13 132.469 231.612C131.988 232.095 131.608 232.669 131.353 233.3L131.142 233.82L130.823 233.17C130.252 231.974 129.236 231.048 127.993 230.59L127.312 230.35L128.203 229.92C129.313 229.371 130.19 228.441 130.672 227.3L131.043 226.4Z" fill="#E0E0E0"/>
<path d="M573.599 156.64L573.889 157.36C574.416 158.61 575.415 159.602 576.669 160.12L577.449 160.43L576.709 160.74C576.077 160.994 575.503 161.373 575.02 161.854C574.537 162.335 574.156 162.909 573.899 163.54L573.689 164.07L573.379 163.41C572.803 162.216 571.785 161.294 570.539 160.84L569.859 160.59L570.749 160.16C571.87 159.624 572.75 158.69 573.219 157.54L573.599 156.64Z" fill="#E0E0E0"/>
<path d="M574.928 187L575.378 188.08C575.767 189.013 576.336 189.861 577.053 190.573C577.771 191.285 578.622 191.848 579.558 192.23L580.738 192.7L579.608 193.16C578.658 193.546 577.796 194.118 577.071 194.843C576.346 195.568 575.774 196.43 575.388 197.38L575.078 198.17L574.598 197.17C573.739 195.369 572.205 193.978 570.328 193.3L569.328 192.93L570.668 192.28C572.347 191.465 573.67 190.063 574.388 188.34L574.928 187Z" fill="#263238"/>
<path d="M390.153 138.93L390.363 139.44C390.551 139.88 390.824 140.279 391.168 140.612C391.511 140.945 391.918 141.206 392.363 141.38L392.913 141.61L392.383 141.82C391.932 142 391.521 142.27 391.178 142.614C390.834 142.958 390.564 143.368 390.383 143.82L390.233 144.19L390.003 143.73C389.604 142.883 388.885 142.228 388.003 141.91L387.523 141.74L388.153 141.43C388.943 141.048 389.566 140.39 389.903 139.58L390.153 138.93Z" fill="#263238"/>
<path d="M250.759 221.83L251.029 222.48C251.262 223.044 251.605 223.555 252.037 223.984C252.47 224.413 252.984 224.752 253.549 224.98L254.259 225.27L253.579 225.54C253.006 225.772 252.485 226.117 252.048 226.555C251.612 226.993 251.269 227.516 251.039 228.09L250.849 228.57L250.559 227.97C250.036 226.887 249.11 226.051 247.979 225.64L247.359 225.41L248.169 225.02C249.183 224.525 249.982 223.68 250.419 222.64L250.759 221.83Z" fill="#263238"/>
<path d="M655.318 196.59C646.809 196.595 638.498 199.154 631.46 203.936C624.423 208.719 618.983 215.504 615.846 223.413C612.708 231.322 612.018 239.991 613.863 248.297C615.709 256.603 620.006 264.164 626.198 270L620.458 290.1L640.758 279C646.591 281.126 652.818 281.948 659.003 281.41C665.188 280.871 671.179 278.984 676.557 275.882C681.934 272.78 686.567 268.538 690.129 263.453C693.692 258.369 696.097 252.566 697.177 246.453C698.256 240.339 697.984 234.063 696.378 228.066C694.773 222.069 691.873 216.497 687.884 211.741C683.894 206.984 678.911 203.159 673.285 200.535C667.659 197.911 661.526 196.551 655.318 196.55V196.59Z" fill="#F5F5F5"/>
<path d="M655.317 196.59C655.317 196.59 655.567 196.59 656.077 196.59L658.297 196.68C658.787 196.68 659.297 196.68 659.937 196.77L661.937 197.06C662.647 197.18 663.417 197.25 664.227 197.43L666.777 198.07C677.065 200.848 685.912 207.433 691.527 216.49L692.847 218.66C693.227 219.42 693.607 220.2 693.987 220.99C696.406 226.031 697.767 231.513 697.987 237.1C698.089 239.1 698.055 241.105 697.887 243.1C697.817 244.1 697.607 245.1 697.467 246.1C697.387 246.61 697.317 247.1 697.237 247.63L696.847 249.15C695.871 253.349 694.226 257.363 691.977 261.04C687.19 269.04 679.916 275.253 671.267 278.73C661.948 282.411 651.645 282.764 642.097 279.73L640.717 279.25H640.927C634.007 283.04 627.217 286.76 620.627 290.35L620.097 290.65L620.257 290.06C622.257 283.13 624.167 276.41 626.007 269.96L626.077 270.21C623.435 267.696 621.111 264.868 619.157 261.79C617.305 258.818 615.815 255.635 614.717 252.31C613.691 249.123 613.044 245.828 612.787 242.49C612.707 241.68 612.677 240.87 612.667 240.07C612.622 239.271 612.622 238.469 612.667 237.67C612.691 236.106 612.828 234.545 613.077 233C613.921 227.258 615.936 221.751 618.997 216.82C621.612 212.595 624.929 208.848 628.807 205.74L631.447 203.74L634.117 202.12C634.947 201.606 635.812 201.152 636.707 200.76C637.567 200.37 638.367 199.92 639.207 199.62C641.995 198.51 644.89 197.689 647.847 197.17L651.067 196.7L653.427 196.6H654.877L653.437 196.7L651.077 196.84L647.877 197.34C644.94 197.886 642.065 198.727 639.297 199.85C638.467 200.15 637.677 200.61 636.827 201C635.937 201.4 635.076 201.857 634.247 202.37L631.567 204L628.997 206C625.166 209.087 621.892 212.808 619.317 217C616.315 221.902 614.351 227.368 613.547 233.06C613.307 234.592 613.173 236.139 613.147 237.69C613.102 238.479 613.102 239.271 613.147 240.06C613.147 240.85 613.147 241.65 613.267 242.46C613.534 245.757 614.181 249.012 615.197 252.16C617.416 258.904 621.287 264.985 626.457 269.85L626.567 269.95L626.517 270.1C624.687 276.54 622.767 283.26 620.797 290.2L620.427 289.9L640.717 278.8L640.817 278.74H640.937L642.307 279.21C651.738 282.211 661.916 281.857 671.117 278.21C679.669 274.777 686.864 268.642 691.607 260.74C693.837 257.107 695.471 253.14 696.447 248.99C696.577 248.49 696.707 247.99 696.827 247.49L697.067 245.97C697.197 244.97 697.407 243.97 697.487 242.97C697.653 241.001 697.689 239.024 697.597 237.05C697.403 231.505 696.072 226.059 693.687 221.05L692.567 218.74L691.267 216.59C688.13 211.501 683.943 207.141 678.987 203.8C675.242 201.286 671.12 199.386 666.777 198.17L664.237 197.5C663.437 197.32 662.667 197.24 661.967 197.11L659.967 196.8C659.367 196.71 658.817 196.72 658.337 196.68L656.117 196.54C655.567 196.62 655.317 196.59 655.317 196.59Z" fill="#263238"/>
<path d="M646 233.28H649L655.56 224.13V218.13C655.56 218.13 660.21 217.85 659.66 225.71C659.11 233.57 659.66 231.56 659.66 231.56C659.66 231.56 669.52 231.56 670.34 232.46C670.94 233.08 671.21 242.88 671.34 248.2C671.404 249.481 671.039 250.746 670.301 251.795C669.564 252.844 668.497 253.617 667.27 253.99C666.92 254.08 666.561 254.127 666.2 254.13C663.74 254.13 651.2 252.13 651.2 252.13H646V233.28Z" fill="#263238"/>
<path d="M637.43 231.63L639.28 252.19H644.43V232.04L637.43 231.63Z" fill="#263238"/>
<path d="M224.154 240.07C223.984 243.28 219.804 247.56 221.094 250.5C223.474 255.92 222.094 262.41 219.014 267.5C215.934 272.59 211.324 276.5 206.794 280.28C207.023 272.377 206.335 264.474 204.744 256.73C204.244 254.31 203.424 251.61 201.214 250.51C198.344 249.09 194.704 251.14 191.764 249.88C188.634 248.52 188.004 244.24 185.364 242.08C182.974 240.13 179.464 240.34 176.534 241.32C173.604 242.3 170.914 243.95 167.904 244.62C164.894 245.29 161.264 244.69 159.594 242.09C158.594 240.49 159.304 241.47 158.324 239.84C158.324 239.84 152.454 240.04 150.434 233.21C150.434 233.21 147.674 225.62 153.784 222.27C153.784 222.27 155.174 208.55 168.964 214.72C172.964 216.5 177.624 210.78 181.494 212.72C184.714 214.35 185.664 218.83 188.884 220.47C192.584 222.35 196.884 219.55 201.024 219.38C203.676 219.38 206.22 220.434 208.095 222.309C209.971 224.184 211.024 226.728 211.024 229.38C211.024 229.38 211.674 226.64 216.164 227.84C220.654 229.04 224.474 233.81 224.154 240.07Z" fill="#263238"/>
<path d="M218.309 262.15C218.395 260.598 218.107 259.048 217.469 257.63C216.889 256.46 214.719 253.8 212.339 253.63L212.689 239.5C212.715 238.098 212.217 236.736 211.292 235.682C210.367 234.628 209.082 233.957 207.689 233.8L179.999 230.88C177.735 230.641 175.447 230.862 173.271 231.53C171.096 232.199 169.078 233.3 167.339 234.769C165.601 236.238 164.177 238.043 163.155 240.076C162.132 242.109 161.531 244.329 161.389 246.6C160.719 257.25 160.319 270.28 161.579 278.22C164.119 294.22 176.359 296.22 176.359 296.22L176.059 307.38C175.589 319.27 184.489 326.43 193.669 326.43C202.849 326.43 211.329 318.5 211.059 306.73L211.959 270.73C213.509 270.587 214.952 269.874 216.009 268.73C217.531 266.879 218.346 264.547 218.309 262.15Z" fill="#FFBE9D"/>
<path d="M167.523 255.27C167.521 255.808 167.728 256.325 168.102 256.712C168.476 257.099 168.986 257.324 169.523 257.34C170.048 257.37 170.563 257.193 170.957 256.847C171.352 256.501 171.595 256.014 171.633 255.49C171.643 255.221 171.598 254.954 171.502 254.703C171.406 254.452 171.26 254.223 171.073 254.03C170.886 253.837 170.663 253.683 170.415 253.579C170.168 253.474 169.902 253.42 169.633 253.42C169.109 253.39 168.594 253.567 168.2 253.913C167.805 254.259 167.562 254.746 167.523 255.27Z" fill="#263238"/>
<path d="M164.167 253.38C164.417 253.65 165.967 252.5 168.167 252.5C170.367 252.5 171.987 253.61 172.227 253.34C172.337 253.22 172.077 252.74 171.377 252.23C170.423 251.568 169.288 251.218 168.127 251.23C166.984 251.212 165.865 251.563 164.937 252.23C164.267 252.78 163.997 253.26 164.167 253.38Z" fill="#263238"/>
<path d="M188.805 255.68C188.799 256.219 189.006 256.738 189.38 257.125C189.755 257.512 190.266 257.737 190.805 257.75C191.329 257.78 191.844 257.603 192.239 257.257C192.633 256.911 192.876 256.424 192.915 255.9C192.92 255.361 192.713 254.842 192.339 254.455C191.965 254.068 191.453 253.843 190.915 253.83C190.391 253.8 189.876 253.977 189.481 254.323C189.086 254.669 188.843 255.156 188.805 255.68Z" fill="#263238"/>
<path d="M185.839 253.79C186.089 254.06 187.639 252.91 189.839 252.92C192.039 252.93 193.659 254.02 193.899 253.75C194.009 253.63 193.759 253.15 193.049 252.64C192.096 251.978 190.96 251.628 189.799 251.64C188.657 251.627 187.54 251.977 186.609 252.64C185.939 253.19 185.709 253.67 185.839 253.79Z" fill="#263238"/>
<path d="M177.826 270.14C176.663 269.78 175.461 269.562 174.246 269.49C173.686 269.44 173.156 269.32 173.056 268.94C173.014 268.358 173.146 267.776 173.436 267.27L175.096 263C177.416 256.89 179.096 251.87 178.836 251.78C178.576 251.69 176.516 256.56 174.206 262.67C173.646 264.17 173.116 265.61 172.616 266.98C172.26 267.659 172.154 268.441 172.316 269.19C172.399 269.388 172.526 269.565 172.687 269.707C172.848 269.849 173.039 269.953 173.246 270.01C173.572 270.099 173.908 270.146 174.246 270.15C175.435 270.302 176.638 270.299 177.826 270.14Z" fill="#263238"/>
<path d="M176.31 296.23C183.834 296.343 191.242 294.366 197.71 290.52C197.71 290.52 192.17 302.52 176.18 301.05L176.31 296.23Z" fill="#EB996E"/>
<path d="M184.839 249.93C185.059 250.53 187.259 250.25 189.839 250.56C192.419 250.87 194.519 251.56 194.839 251.04C194.989 250.78 194.629 250.22 193.789 249.64C192.666 248.916 191.388 248.467 190.059 248.33C188.737 248.171 187.397 248.329 186.149 248.79C185.229 249.18 184.749 249.65 184.839 249.93Z" fill="#263238"/>
<path d="M163.806 248.25C164.196 248.75 165.706 248.25 167.536 248.25C169.366 248.25 170.906 248.58 171.266 248.06C171.426 247.8 171.176 247.3 170.506 246.83C169.599 246.266 168.545 245.983 167.478 246.017C166.41 246.05 165.376 246.4 164.506 247.02C163.846 247.49 163.636 248 163.806 248.25Z" fill="#263238"/>
<path d="M178.312 282.62C178.312 282.57 178.462 282.3 178.912 282.02C179.518 281.662 180.209 281.475 180.912 281.48C181.614 281.471 182.304 281.651 182.912 282C183.362 282.28 183.562 282.54 183.522 282.59C182.693 282.28 181.825 282.085 180.942 282.01C180.04 282.078 179.153 282.284 178.312 282.62Z" fill="#EB996E"/>
<path d="M210.867 266.4C211.39 266.187 211.897 265.94 212.387 265.66C212.935 265.301 213.389 264.816 213.711 264.245C214.033 263.674 214.213 263.035 214.237 262.38C214.248 261.721 214.104 261.069 213.815 260.476C213.527 259.884 213.103 259.368 212.577 258.97C212.124 258.657 211.603 258.455 211.057 258.38C211.007 258.32 211.797 258.05 212.787 258.66C213.41 259.058 213.921 259.608 214.272 260.26C214.622 260.911 214.799 261.641 214.787 262.38C214.775 263.2 214.517 263.998 214.047 264.67C213.674 265.212 213.182 265.66 212.607 265.98C212.099 266.331 211.479 266.481 210.867 266.4Z" fill="#EB996E"/>
<path d="M158.33 227.07C155.75 233.97 161.88 238.97 166.66 240.07C173.34 241.63 180.44 237.41 185.01 239.2C188.42 240.54 191.64 243.2 195.26 242.65C197.02 242.39 198.76 241.38 200.47 241.84C202.66 242.44 203.55 245.1 203.47 247.37C203.41 250.17 202.47 252.95 202.82 255.73C203.17 258.51 205.65 261.38 208.36 260.64C209.633 260.214 210.748 259.413 211.558 258.342C212.368 257.272 212.836 255.981 212.9 254.64C213.22 250.79 212.51 246.21 212.7 242.35C212.87 238.95 212.88 235.21 210.7 232.58C208.52 229.95 204.84 229.24 201.45 228.78C187.152 226.811 172.715 226.049 158.29 226.5" fill="#263238"/>
<path d="M149.919 228.54C149.833 228.309 149.785 228.066 149.779 227.82C149.742 227.106 149.887 226.394 150.199 225.75C150.694 224.716 151.552 223.901 152.609 223.46C153.278 223.205 154.001 223.126 154.709 223.23C155.459 223.3 156.209 223.5 156.999 223.54C157.818 223.586 158.635 223.406 159.359 223.02C160.15 222.579 160.885 222.045 161.549 221.43C162.269 220.81 162.999 220.13 163.839 219.52C164.714 218.882 165.717 218.441 166.779 218.23C169.074 217.885 171.418 218.285 173.469 219.37C175.599 220.546 177.586 221.966 179.389 223.6C181.141 225.23 183.134 226.58 185.299 227.6C186.325 228.03 187.441 228.201 188.549 228.1C189.599 227.941 190.614 227.603 191.549 227.1C193.304 226.047 195.168 225.189 197.109 224.54C198.854 224.042 200.696 223.984 202.469 224.37C203.931 224.701 205.276 225.424 206.359 226.46C207.168 227.244 207.799 228.192 208.209 229.24C208.465 229.901 208.603 230.602 208.619 231.31C208.632 231.493 208.632 231.677 208.619 231.86C208.619 231.98 208.619 232.04 208.619 232.04C208.606 231.108 208.423 230.186 208.079 229.32C207.652 228.316 207.018 227.413 206.219 226.67C205.16 225.696 203.857 225.026 202.449 224.73C200.737 224.383 198.966 224.458 197.289 224.95C195.379 225.612 193.545 226.477 191.819 227.53C190.821 228.052 189.737 228.391 188.619 228.53C187.431 228.65 186.233 228.474 185.129 228.02C182.916 226.986 180.875 225.616 179.079 223.96C177.305 222.352 175.352 220.953 173.259 219.79C171.309 218.748 169.079 218.352 166.889 218.66C164.799 219.01 163.289 220.48 161.889 221.72C161.193 222.346 160.424 222.887 159.599 223.33C158.807 223.739 157.919 223.925 157.029 223.87C156.199 223.81 155.449 223.6 154.729 223.51C154.058 223.403 153.37 223.465 152.729 223.69C151.725 224.092 150.898 224.841 150.399 225.8C150.075 226.417 149.903 227.103 149.899 227.8C149.879 228.29 149.999 228.53 149.919 228.54Z" fill="#455A64"/>
<path d="M157.65 239.66C157.421 239.724 157.179 239.724 156.95 239.66C156.613 239.593 156.294 239.455 156.014 239.255C155.735 239.055 155.502 238.798 155.33 238.5C154.847 237.528 154.713 236.419 154.95 235.36C155.186 233.959 155.747 232.634 156.59 231.49C157.61 230.086 159.028 229.02 160.66 228.43C162.533 227.734 164.584 227.682 166.49 228.28C168.516 229.036 170.41 230.11 172.1 231.46C173.858 232.892 175.85 234.009 177.99 234.76C180.175 235.315 182.478 235.189 184.59 234.4C186.587 233.685 188.507 232.77 190.32 231.67C191.984 230.67 193.704 229.765 195.47 228.96C197.023 228.253 198.688 227.823 200.39 227.69C201.628 227.588 202.874 227.739 204.052 228.134C205.23 228.53 206.314 229.161 207.24 229.99C207.72 230.461 208.119 231.009 208.42 231.61C208.527 231.819 208.608 232.041 208.66 232.27C208.274 231.474 207.749 230.752 207.11 230.14C206.188 229.368 205.122 228.785 203.974 228.427C202.826 228.068 201.618 227.94 200.42 228.05C198.762 228.205 197.145 228.648 195.64 229.36C193.896 230.172 192.199 231.083 190.56 232.09C188.722 233.214 186.776 234.149 184.75 234.88C182.539 235.709 180.128 235.841 177.84 235.26C175.661 234.485 173.632 233.342 171.84 231.88C170.199 230.555 168.36 229.495 166.39 228.74C164.58 228.162 162.63 228.193 160.84 228.83C159.28 229.386 157.917 230.387 156.92 231.71C156.091 232.798 155.529 234.065 155.28 235.41C155.024 236.411 155.12 237.47 155.55 238.41C155.697 238.697 155.902 238.951 156.152 239.155C156.401 239.36 156.69 239.511 157 239.6C157.214 239.638 157.432 239.659 157.65 239.66Z" fill="#455A64"/>
<path d="M218.889 266.31C218.889 266.31 219.249 265.83 219.779 264.91C220.506 263.596 220.914 262.13 220.969 260.63C221.014 259.616 220.886 258.601 220.589 257.63C220.222 256.507 219.682 255.447 218.989 254.49C218.289 253.49 217.459 252.39 216.729 251.19C215.9 249.959 215.445 248.514 215.419 247.03C215.562 245.566 216.019 244.151 216.759 242.88C217.398 241.751 217.781 240.494 217.879 239.2C217.907 238.107 217.649 237.027 217.132 236.064C216.615 235.101 215.855 234.29 214.929 233.71C213.638 232.946 212.123 232.65 210.639 232.87C210.098 232.967 209.564 233.097 209.039 233.26C209.152 233.17 209.276 233.096 209.409 233.04C209.794 232.873 210.197 232.749 210.609 232.67C212.147 232.361 213.745 232.617 215.109 233.39C216.116 233.987 216.948 234.84 217.519 235.862C218.09 236.884 218.379 238.039 218.359 239.21C218.269 240.575 217.88 241.903 217.219 243.1C216.516 244.307 216.079 245.65 215.939 247.04C215.964 248.428 216.391 249.78 217.169 250.93C217.869 252.09 218.689 253.15 219.389 254.22C220.097 255.226 220.643 256.336 221.009 257.51C221.305 258.542 221.417 259.619 221.339 260.69C221.253 262.215 220.793 263.695 219.999 265C219.782 265.356 219.53 265.691 219.249 266C218.999 266.22 218.899 266.32 218.889 266.31Z" fill="#455A64"/>
<path d="M176.997 254.64C176.905 253.803 176.765 252.971 176.577 252.15C176.223 250.781 175.587 249.501 174.709 248.392C173.832 247.283 172.732 246.369 171.481 245.71C170.229 245.051 168.854 244.661 167.443 244.565C166.032 244.468 164.617 244.667 163.287 245.15C161.43 245.845 159.815 247.064 158.637 248.66C157.374 250.377 156.693 252.453 156.693 254.585C156.693 256.717 157.374 258.793 158.637 260.51C159.221 261.335 159.938 262.058 160.757 262.65C161.524 263.235 162.378 263.697 163.287 264.02C164.868 264.602 166.569 264.779 168.236 264.535C169.902 264.29 171.481 263.632 172.827 262.62C174.661 261.239 175.981 259.286 176.577 257.07C176.763 256.252 176.903 255.424 176.997 254.59C177.06 255.44 176.986 256.294 176.777 257.12C176.245 259.462 174.907 261.543 172.997 263C171.609 264.074 169.971 264.78 168.237 265.052C166.503 265.325 164.729 265.156 163.077 264.56C162.119 264.229 161.218 263.75 160.407 263.14C159.551 262.519 158.798 261.767 158.177 260.91C156.84 259.108 156.117 256.924 156.117 254.68C156.117 252.436 156.84 250.252 158.177 248.45C159.414 246.773 161.119 245.5 163.077 244.79C164.846 244.157 166.752 244.009 168.597 244.36C170.555 244.741 172.363 245.678 173.804 247.057C175.245 248.436 176.26 250.2 176.727 252.14C176.949 252.954 177.04 253.798 176.997 254.64Z" fill="#263238"/>
<path d="M200.438 254.64C200.351 253.802 200.211 252.97 200.018 252.15C199.665 250.781 199.03 249.501 198.153 248.392C197.276 247.283 196.177 246.37 194.927 245.711C193.676 245.052 192.302 244.661 190.891 244.565C189.481 244.468 188.066 244.667 186.738 245.15C184.876 245.841 183.256 247.061 182.078 248.66C180.815 250.377 180.133 252.453 180.133 254.585C180.133 256.717 180.815 258.793 182.078 260.51C182.664 261.333 183.38 262.056 184.198 262.65C184.97 263.233 185.826 263.695 186.738 264.02C188.059 264.499 189.465 264.698 190.867 264.606C192.269 264.513 193.636 264.13 194.883 263.482C196.129 262.833 197.227 261.933 198.108 260.838C198.988 259.743 199.632 258.477 199.998 257.12C200.189 256.303 200.33 255.475 200.418 254.64C200.487 255.49 200.412 256.345 200.198 257.17C199.678 259.484 198.37 261.545 196.498 263C195.109 264.074 193.472 264.78 191.738 265.052C190.004 265.325 188.229 265.156 186.578 264.56C185.619 264.229 184.718 263.75 183.908 263.14C183.048 262.519 182.292 261.766 181.668 260.91C180.336 259.106 179.617 256.922 179.617 254.68C179.617 252.438 180.336 250.254 181.668 248.45C182.911 246.776 184.618 245.503 186.578 244.79C188.346 244.157 190.252 244.009 192.098 244.36C194.053 244.744 195.858 245.682 197.297 247.061C198.736 248.44 199.75 250.202 200.218 252.14C200.428 252.956 200.502 253.8 200.438 254.64Z" fill="#263238"/>
<path d="M180.44 252.92V253.02V252.84V253.04C179.888 253.163 179.324 253.217 178.76 253.2C177.76 253.2 176.93 253.08 176.93 252.94C176.93 252.8 177.75 252.68 178.76 252.68C179.324 252.658 179.889 252.712 180.44 252.84V253.04V252.86V252.96V252.92Z" fill="#263238"/>
<path d="M212.787 255.18C210.685 255.295 208.577 255.231 206.487 254.99C204.384 254.929 202.29 254.692 200.227 254.28C202.328 254.177 204.435 254.241 206.527 254.47C208.629 254.537 210.723 254.774 212.787 255.18Z" fill="#263238"/>
<path d="M186.996 269.59C187.182 270.107 187.206 270.669 187.066 271.2C186.852 272.53 186.158 273.736 185.115 274.589C184.072 275.442 182.752 275.884 181.406 275.83C180.855 275.863 180.307 275.727 179.836 275.44C179.836 275.36 180.456 275.52 181.406 275.44C182.641 275.397 183.829 274.951 184.786 274.169C185.743 273.387 186.418 272.312 186.706 271.11C186.996 270.2 186.936 269.59 186.996 269.59Z" fill="#263238"/>
<path d="M147.383 341.38C147.396 341.486 147.396 341.594 147.383 341.7V342.64C147.383 343.5 147.383 344.72 147.433 346.26C147.433 349.43 147.433 353.96 147.503 359.55C147.503 370.77 147.163 386.27 146.293 403.37C145.423 420.47 144.523 435.92 143.913 447.16C143.633 452.73 143.403 457.26 143.243 460.43C143.163 461.97 143.103 463.17 143.063 464.03C143.063 464.42 143.013 464.73 143.003 464.97C143.014 465.076 143.014 465.184 143.003 465.29C142.988 465.184 142.988 465.076 143.003 464.97C143.003 464.73 143.003 464.42 143.003 464.03C143.003 463.17 143.053 461.96 143.093 460.42C143.183 457.28 143.343 452.74 143.593 447.14C144.063 435.93 144.973 420.45 145.823 403.35C146.673 386.25 147.133 370.76 147.193 359.54C147.193 353.96 147.263 349.43 147.283 346.26C147.283 344.72 147.283 343.5 147.333 342.64V341.7C147.337 341.592 147.354 341.484 147.383 341.38Z" fill="#263238"/>
<path d="M243.998 324.16C238.618 317.95 228.108 317.04 223.448 320.41C218.788 323.78 216.198 329.5 215.728 335.23C215.258 340.96 216.728 346.71 218.908 352.02C222.418 360.54 227.608 367.44 235.358 376.22L255.358 402.44L216.808 440.08L232.808 465.29L265.578 438.89L292.678 410.17" fill="#8568F5"/>
<path d="M104.609 405C105.235 404.541 105.94 404.202 106.689 404C108.462 403.402 110.332 403.148 112.199 403.25C114.071 403.352 115.906 403.807 117.609 404.59C118.347 404.866 119.026 405.28 119.609 405.81C119.609 405.88 118.809 405.44 117.509 404.93C115.819 404.264 114.033 403.872 112.219 403.77C110.407 403.681 108.591 403.877 106.839 404.35C105.449 404.72 104.649 405.08 104.609 405Z" fill="#263238"/>
<path d="M249.186 330.05C235.736 312.21 221.256 313.68 213.876 313.47V305.64C208.426 305.64 200.976 310.55 197.126 314.06L193.316 319.29C192.337 316.426 190.703 313.831 188.543 311.711C186.383 309.591 183.758 308.005 180.876 307.08C178.798 306.42 176.667 305.938 174.506 305.64V312.64C156.426 313.15 146.756 318.09 134.676 332.07C134.056 332.79 132.826 334.02 131.416 335.41L95.6762 377.41C88.3762 385.49 81.6762 396.61 83.2462 407.41C84.9562 419.57 92.0462 427.57 105.616 436.74L143.216 461.11L143.036 465.3H232.766C232.766 465.3 293.616 420.41 295.106 403.78C296.266 390.64 275.306 362.79 249.186 330.05ZM144.726 425.36L118.416 405.73L146.836 376.32L144.726 425.36ZM230.886 426.92L230.176 412.39L233.996 374.22C241.496 382.82 255.376 399.89 255.376 402.44L230.886 426.92Z" fill="#8568F5"/>
<path d="M213.859 313.51C213.669 313.926 213.441 314.325 213.179 314.7C212.699 315.44 212.009 316.51 211.099 317.8C208.756 321.183 206.123 324.355 203.229 327.28C202.379 328.14 201.519 328.95 200.679 329.72L200.259 330.11V329.54C200.211 326.254 198.892 323.114 196.579 320.78C195.97 320.049 195.181 319.491 194.289 319.16C193.946 319.093 193.59 319.153 193.289 319.33C193.406 319.184 193.562 319.074 193.739 319.012C193.916 318.95 194.106 318.939 194.289 318.98C195.252 319.25 196.116 319.791 196.779 320.54C197.862 321.569 198.756 322.781 199.419 324.12C200.248 325.805 200.699 327.652 200.739 329.53L200.319 329.34C201.139 328.57 201.999 327.77 202.839 326.91C205.708 323.997 208.364 320.882 210.789 317.59L212.989 314.59C213.242 314.201 213.533 313.84 213.859 313.51Z" fill="#263238"/>
<path d="M174.484 312.68C174.777 312.961 175.038 313.273 175.264 313.61L177.264 316.24C178.934 318.48 181.194 321.6 183.674 325.06L185.294 327.32L184.844 327.39C185.328 325.774 185.999 324.22 186.844 322.76C187.543 321.575 188.539 320.592 189.734 319.91C190.523 319.454 191.414 319.206 192.324 319.19C192.664 319.156 193.007 319.204 193.324 319.33C193.324 319.33 192.984 319.33 192.324 319.33C191.462 319.417 190.63 319.701 189.894 320.16C188.785 320.86 187.865 321.821 187.214 322.96C186.41 324.402 185.766 325.928 185.294 327.51L185.134 327.98L184.844 327.58L183.224 325.32C180.744 321.86 178.524 318.71 176.934 316.42C176.204 315.33 175.584 314.42 175.084 313.69C174.848 313.376 174.647 313.038 174.484 312.68Z" fill="#263238"/>
<g opacity="0.1">
<path d="M193.297 319.33C194.796 320.972 195.921 322.919 196.596 325.037C197.271 327.155 197.479 329.394 197.207 331.6C197.017 333.06 196.847 335.01 198.207 335.55C199.157 335.92 200.207 335.27 200.977 334.63C206.811 329.929 211.611 324.073 215.077 317.43C215.412 316.908 215.593 316.301 215.597 315.68C215.589 315.372 215.464 315.079 215.246 314.861C215.028 314.643 214.735 314.518 214.427 314.51C214.016 314.624 213.661 314.884 213.427 315.24C209.267 320.04 204.667 325.03 200.507 329.82C200.694 327.154 199.869 324.515 198.197 322.43C196.547 320.43 194.747 318.36 193.327 319.33" fill="black"/>
</g>
<path d="M231.666 463.62C231.548 463.491 231.445 463.35 231.356 463.2C231.136 462.88 230.866 462.46 230.516 461.94L227.446 457.18C224.836 453.04 221.186 447.27 216.936 440.56L216.836 440.39L216.976 440.26L226.356 430.9L246.766 410.7C249.366 408.16 251.486 406.1 252.986 404.62L254.706 402.99C254.898 402.791 255.106 402.607 255.326 402.44C255.162 402.663 254.978 402.87 254.776 403.06C254.366 403.49 253.776 404.06 253.136 404.77L246.996 411L226.686 431.31C223.386 434.6 220.206 437.75 217.296 440.64V440.34C221.476 447.09 225.076 452.89 227.646 457.06C228.886 459.06 229.886 460.72 230.596 461.9C230.916 462.43 231.166 462.9 231.366 463.2C231.481 463.328 231.582 463.469 231.666 463.62Z" fill="#263238"/>
<path d="M220.637 323.65L220.487 323.84L220.027 324.38C219.597 324.84 219.027 325.56 218.307 326.5C216.328 329.199 215.016 332.327 214.477 335.63C213.84 340.554 214.613 345.558 216.707 350.06C217.845 352.748 219.324 355.279 221.107 357.59C222.997 360 224.997 362.41 227.047 365C235.117 375.17 242.047 384.64 247.147 391.44L253.147 399.51C253.837 400.43 254.377 401.17 254.777 401.71L255.187 402.29L255.317 402.49C255.317 402.49 255.247 402.44 255.147 402.32L254.697 401.77L252.997 399.58C251.527 397.71 249.427 394.99 246.847 391.58C241.687 384.84 234.697 375.4 226.647 365.25C224.647 362.7 222.647 360.25 220.707 357.88C218.905 355.528 217.413 352.953 216.267 350.22C214.159 345.634 213.413 340.538 214.117 335.54C214.891 331.286 216.942 327.369 219.997 324.31L220.497 323.81C220.567 323.7 220.627 323.64 220.637 323.65Z" fill="#263238"/>
<path d="M254.369 336.56C254.369 336.61 253.819 336.8 252.879 337.3C251.564 338.025 250.367 338.946 249.329 340.03C247.797 341.653 246.455 343.444 245.329 345.37C243.958 347.778 242.466 350.114 240.859 352.37C239.349 354.424 237.397 356.113 235.147 357.311C232.897 358.509 230.406 359.185 227.859 359.29C226.329 359.367 224.797 359.222 223.309 358.86C222.905 358.769 222.508 358.652 222.119 358.51C221.981 358.465 221.847 358.408 221.719 358.34C223.721 358.821 225.782 359.017 227.839 358.92C230.059 358.768 232.229 358.188 234.229 357.21C236.672 356.01 238.792 354.24 240.409 352.05C242.179 349.75 243.519 347.29 244.879 345.15C246.042 343.206 247.435 341.41 249.029 339.8C250.114 338.715 251.371 337.816 252.749 337.14C253.125 336.964 253.512 336.814 253.909 336.69C254.056 336.626 254.21 336.582 254.369 336.56Z" fill="#FAFAFA"/>
<path d="M230.517 424.49H230.277L229.607 424.33C229.307 424.25 228.937 424.2 228.497 424.13C227.993 424.046 227.486 423.99 226.977 423.96C223.712 423.81 220.447 424.23 217.327 425.2C215.158 425.824 213.036 426.599 210.977 427.52C208.757 428.52 206.457 429.74 203.977 430.91C201.386 432.183 198.68 433.207 195.897 433.97C194.41 434.354 192.889 434.595 191.357 434.69C189.772 434.766 188.184 434.652 186.627 434.35C183.585 433.661 180.681 432.464 178.037 430.81C175.457 429.27 173.147 427.52 170.937 425.9C166.567 422.62 162.387 419.9 158.417 418.72C156.643 418.17 154.803 417.867 152.947 417.82C151.547 417.793 150.151 417.958 148.797 418.31C147.646 418.634 146.533 419.08 145.477 419.64L145.667 419.5L146.267 419.14C147.053 418.714 147.885 418.379 148.747 418.14C150.116 417.752 151.533 417.557 152.957 417.56C154.84 417.576 156.711 417.855 158.517 418.39C162.577 419.54 166.827 422.28 171.217 425.54C173.437 427.16 175.747 428.88 178.297 430.4C180.892 432.022 183.741 433.195 186.727 433.87C188.241 434.168 189.786 434.279 191.327 434.2C192.825 434.114 194.312 433.883 195.767 433.51C198.521 432.762 201.199 431.757 203.767 430.51C206.247 429.35 208.557 428.13 210.767 427.16C212.849 426.246 214.994 425.484 217.187 424.88C220.347 423.93 223.654 423.561 226.947 423.79C228.163 423.856 229.365 424.092 230.517 424.49Z" fill="#FAFAFA"/>
<path d="M131.668 415.61C131.668 415.61 131.718 415.73 131.748 415.96C131.811 416.29 131.851 416.624 131.868 416.96C131.968 418.199 131.914 419.445 131.708 420.67C131.412 422.512 130.701 424.263 129.628 425.79C128.253 427.605 126.503 429.102 124.498 430.18C122.498 431.41 120.428 432.44 118.778 433.64C117.286 434.652 115.981 435.914 114.918 437.37C114.216 438.354 113.816 439.522 113.768 440.73C113.768 441.59 113.898 442.06 113.838 442.07C113.779 441.968 113.738 441.856 113.718 441.74C113.632 441.413 113.578 441.078 113.558 440.74C113.517 439.476 113.866 438.229 114.558 437.17C115.606 435.638 116.924 434.31 118.448 433.25C120.128 432 122.158 430.95 124.178 429.74C126.118 428.69 127.821 427.25 129.178 425.51C130.229 424.049 130.949 422.377 131.288 420.61C131.517 419.411 131.624 418.191 131.608 416.97C131.596 416.516 131.616 416.061 131.668 415.61Z" fill="#FAFAFA"/>
<path d="M282.575 374.22C280.522 374.565 278.527 375.191 276.645 376.08C274.631 377.063 272.822 378.421 271.315 380.08C270.433 381.065 269.675 382.153 269.055 383.32C268.395 384.53 267.945 385.9 267.295 387.25C266.699 388.609 265.8 389.814 264.665 390.77C263.597 391.641 262.386 392.318 261.085 392.77C258.895 393.495 256.585 393.781 254.285 393.61C252.749 393.518 251.22 393.337 249.705 393.07C249.146 392.997 248.595 392.88 248.055 392.72C248.618 392.722 249.18 392.772 249.735 392.87C250.815 392.98 252.365 393.19 254.295 393.24C256.544 393.354 258.794 393.038 260.925 392.31C262.221 391.89 263.415 391.205 264.431 390.297C265.447 389.39 266.262 388.281 266.825 387.04C267.455 385.72 267.915 384.34 268.605 383.09C269.261 381.898 270.064 380.793 270.995 379.8C272.553 378.096 274.432 376.716 276.525 375.74C277.92 375.078 279.401 374.613 280.925 374.36C281.339 374.292 281.756 374.245 282.175 374.22C282.307 374.198 282.442 374.198 282.575 374.22Z" fill="#FAFAFA"/>
<path d="M232.873 382.66L232.643 382.73L231.963 382.88C231.363 383.01 230.473 383.17 229.313 383.35C226.048 383.854 222.746 384.088 219.443 384.05C214.526 384.015 209.646 383.188 204.993 381.6C202.267 380.61 199.636 379.375 197.133 377.91C194.48 376.338 191.704 374.983 188.833 373.86C187.373 373.344 185.855 373.008 184.313 372.86C182.813 372.747 181.305 372.821 179.823 373.08C177.029 373.652 174.334 374.629 171.823 375.98C166.973 378.55 162.893 381.41 159.203 383.4C156.349 385.094 153.238 386.31 149.993 387C149.115 387.189 148.22 387.286 147.323 387.29H146.623C146.543 387.301 146.462 387.301 146.383 387.29H146.623L147.313 387.21C148.203 387.158 149.086 387.027 149.953 386.82C153.15 386.061 156.21 384.809 159.023 383.11C162.653 381.11 166.713 378.2 171.593 375.58C174.152 374.18 176.906 373.169 179.763 372.58C181.287 372.309 182.839 372.228 184.383 372.34C185.97 372.497 187.532 372.849 189.033 373.39C191.932 374.522 194.731 375.893 197.403 377.49C199.886 378.938 202.489 380.169 205.183 381.17C209.783 382.762 214.606 383.616 219.473 383.7C222.758 383.773 226.044 383.595 229.303 383.17C230.463 383.02 231.353 382.89 231.963 382.79L232.653 382.7C232.724 382.677 232.798 382.664 232.873 382.66Z" fill="#FAFAFA"/>
<path d="M135.126 388.44C135.223 387.929 135.203 387.402 135.066 386.9C134.785 386.253 134.353 385.681 133.807 385.234C133.261 384.787 132.616 384.477 131.926 384.33C131.056 384.07 130.066 383.92 129.006 383.68C127.831 383.463 126.728 382.958 125.796 382.21C124.818 381.329 124.059 380.234 123.576 379.01C123.084 377.71 122.699 376.373 122.426 375.01C122.166 373.684 121.784 372.385 121.286 371.13C120.805 369.974 120.177 368.884 119.416 367.89C118.131 366.188 116.481 364.797 114.586 363.82C113.326 363.16 111.979 362.682 110.586 362.4C109.586 362.2 109.016 362.16 109.016 362.11C109.154 362.082 109.297 362.082 109.436 362.11C109.831 362.122 110.225 362.159 110.616 362.22C112.072 362.422 113.487 362.858 114.806 363.51C116.766 364.478 118.477 365.884 119.806 367.62C120.618 368.636 121.291 369.756 121.806 370.95C122.323 372.244 122.718 373.583 122.986 374.95C123.251 376.274 123.622 377.575 124.096 378.84C124.547 379.983 125.252 381.008 126.156 381.84C127.023 382.554 128.054 383.041 129.156 383.26C130.156 383.52 131.156 383.69 132.086 383.98C132.817 384.156 133.494 384.508 134.058 385.007C134.621 385.506 135.053 386.135 135.316 386.84C135.417 387.237 135.417 387.653 135.316 388.05C135.282 388.192 135.217 388.326 135.126 388.44Z" fill="#FAFAFA"/>
<path d="M214.105 337.15C213.175 336.638 212.188 336.239 211.165 335.96C209.951 335.71 208.699 335.71 207.485 335.96C205.866 336.278 204.297 336.806 202.815 337.53C201.145 338.28 199.385 339.26 197.465 340.27C195.43 341.403 193.273 342.298 191.035 342.94C188.516 343.556 185.898 343.641 183.345 343.19C180.624 342.693 177.986 341.821 175.505 340.6C170.395 338.11 166.145 334.77 162.045 332.17C158.511 329.711 154.565 327.906 150.395 326.84C147.577 326.149 144.638 326.114 141.805 326.74C140.788 327.021 139.787 327.355 138.805 327.74C139.746 327.209 140.755 326.809 141.805 326.55C144.665 325.836 147.655 325.815 150.525 326.49C154.757 327.515 158.766 329.304 162.355 331.77C166.495 334.36 170.745 337.69 175.775 340.14C178.213 341.341 180.803 342.202 183.475 342.7C185.96 343.141 188.51 343.066 190.965 342.48C193.173 341.866 195.304 341.001 197.315 339.9C199.235 338.9 201.015 337.9 202.715 337.2C204.233 336.492 205.836 335.981 207.485 335.68C208.741 335.466 210.028 335.514 211.265 335.82C212.034 336.033 212.773 336.342 213.465 336.74C213.685 336.865 213.899 337.002 214.105 337.15Z" fill="#FAFAFA"/>
<path d="M208.453 464.11L211.233 465.5H227.233L230.463 462.86L218.823 443.6C217.393 444.23 211.113 445.21 209.083 445.92C207.332 446.535 205.489 446.846 203.633 446.84C201.564 446.886 199.496 446.715 197.463 446.33L197.023 446.19C196.751 446.073 196.459 446.012 196.163 446.01C194.433 445.86 193.063 447.67 194.033 449.1C195.003 450.53 199.733 452.44 205.773 452.27H206.063C211.363 452.27 206.503 456.71 203.353 459.35C202.797 459.799 202.365 460.383 202.099 461.047C201.833 461.71 201.741 462.431 201.833 463.14C201.851 463.395 201.924 463.643 202.046 463.867C202.169 464.092 202.338 464.287 202.543 464.44C203.883 465.29 208.453 464.11 208.453 464.11Z" fill="#FFBE9D"/>
<path d="M143.162 461.72C143.152 461.627 143.152 461.533 143.162 461.44C143.162 461.22 143.162 460.95 143.162 460.61C143.162 459.84 143.222 458.77 143.272 457.42C143.392 454.62 143.552 450.63 143.762 445.71C144.172 435.79 144.762 422.15 145.372 407.08C145.982 392.01 146.372 378.32 146.652 368.43C146.762 363.51 146.842 359.52 146.902 356.71C146.902 355.36 146.952 354.29 146.972 353.52C146.972 353.18 146.972 352.91 146.972 352.7C146.96 352.604 146.96 352.506 146.972 352.41C146.987 352.506 146.987 352.604 146.972 352.7C146.972 352.91 146.972 353.19 146.972 353.52C146.972 354.29 146.972 355.36 146.972 356.71C146.972 359.48 146.972 363.48 146.892 368.43C146.752 378.33 146.352 392 145.762 407.1C145.172 422.2 144.522 435.85 144.002 445.73C143.722 450.64 143.502 454.63 143.342 457.43C143.252 458.78 143.182 459.85 143.132 460.61L143.062 461.44C143.106 461.529 143.14 461.623 143.162 461.72Z" fill="#263238"/>
<path d="M186.692 463.62C186.677 463.497 186.677 463.373 186.692 463.25C186.692 462.98 186.642 462.62 186.602 462.16L186.312 457.95C186.192 456.13 186.042 453.89 185.962 451.29C185.882 448.69 185.692 445.74 185.672 442.47C185.652 439.2 185.532 435.61 185.582 431.76C185.582 429.84 185.582 427.85 185.582 425.76C185.582 423.67 185.672 421.6 185.722 419.44C185.972 410.79 186.422 401.29 187.122 391.33C188.522 371.4 190.302 353.41 191.442 340.38C192.002 333.88 192.442 328.62 192.782 324.94C192.932 323.15 193.062 321.74 193.142 320.75C193.192 320.29 193.222 319.93 193.252 319.66C193.282 319.39 193.302 319.29 193.302 319.29C193.316 319.413 193.316 319.537 193.302 319.66L193.252 320.76C193.182 321.76 193.092 323.16 192.982 324.96C192.752 328.61 192.342 333.89 191.812 340.41C190.762 353.41 189.042 371.41 187.642 391.36C186.942 401.36 186.482 410.81 186.202 419.45C186.202 421.61 186.092 423.72 186.042 425.77C185.992 427.82 186.042 429.77 185.972 431.77C185.912 435.61 185.972 439.19 185.972 442.46C185.972 445.73 186.122 448.69 186.182 451.28C186.242 453.87 186.352 456.12 186.442 457.94C186.532 459.76 186.592 461.16 186.642 462.15V463.25C186.672 463.371 186.689 463.495 186.692 463.62Z" fill="#263238"/>
<path d="M194.055 365.1C194.005 365.05 194.565 364.82 195.185 365.35C195.362 365.507 195.499 365.704 195.585 365.925C195.67 366.146 195.701 366.385 195.675 366.62C195.611 366.911 195.461 367.176 195.245 367.381C195.029 367.585 194.756 367.721 194.462 367.769C194.168 367.818 193.867 367.777 193.596 367.652C193.326 367.528 193.099 367.325 192.945 367.07C192.845 366.857 192.797 366.624 192.806 366.389C192.814 366.154 192.879 365.925 192.995 365.72C193.405 365.01 193.995 365.05 193.995 365.12C193.995 365.19 193.565 365.29 193.335 365.88C193.262 366.037 193.224 366.207 193.224 366.38C193.224 366.553 193.262 366.723 193.335 366.88C193.452 367.031 193.609 367.147 193.787 367.217C193.965 367.286 194.159 367.306 194.347 367.274C194.536 367.242 194.713 367.16 194.858 367.036C195.004 366.912 195.113 366.751 195.175 366.57C195.196 366.404 195.181 366.236 195.133 366.075C195.085 365.915 195.004 365.767 194.895 365.64C194.515 365.13 194.055 365.19 194.055 365.1Z" fill="#263238"/>
<path d="M191.243 410C191.193 409.95 191.763 409.71 192.383 410.25C192.558 410.407 192.693 410.603 192.776 410.822C192.86 411.041 192.89 411.277 192.863 411.51C192.812 411.806 192.666 412.078 192.449 412.285C192.231 412.492 191.952 412.624 191.653 412.66C191.36 412.719 191.055 412.684 190.782 412.56C190.51 412.436 190.283 412.23 190.133 411.97C190.036 411.755 189.991 411.519 190.001 411.283C190.012 411.047 190.078 410.816 190.193 410.61C190.603 409.9 191.193 409.95 191.193 410.01C191.193 410.07 190.763 410.19 190.533 410.77C190.457 410.926 190.418 411.097 190.418 411.27C190.418 411.443 190.457 411.614 190.533 411.77C190.638 411.94 190.791 412.075 190.972 412.158C191.154 412.241 191.356 412.267 191.553 412.234C191.75 412.2 191.932 412.109 192.077 411.971C192.221 411.833 192.321 411.655 192.363 411.46C192.387 411.296 192.374 411.128 192.325 410.969C192.277 410.81 192.194 410.664 192.083 410.54C191.713 410 191.243 410.07 191.243 410Z" fill="#263238"/>
<path d="M262.997 440.85C262.546 440.839 262.097 440.782 261.657 440.68C260.449 440.423 259.269 440.045 258.137 439.55C254.368 437.876 251.22 435.06 249.137 431.5C248.085 429.519 247.25 427.43 246.647 425.27C246.153 423.538 245.408 421.887 244.437 420.37C243.767 419.364 242.904 418.5 241.897 417.83C241.167 417.38 240.707 417.23 240.727 417.18C240.844 417.189 240.959 417.216 241.067 417.26C241.389 417.364 241.7 417.498 241.997 417.66C243.085 418.279 244.022 419.133 244.737 420.16C245.778 421.696 246.577 423.382 247.107 425.16C247.721 427.28 248.552 429.331 249.587 431.28C251.622 434.761 254.657 437.548 258.297 439.28C259.821 439.925 261.392 440.45 262.997 440.85Z" fill="#FAFAFA"/>
<path d="M365.44 465.47L348.44 416.13L356.3 368.79C358.59 356.02 359.87 344.79 356.44 338.36C347.27 321.23 336.2 319.69 321.08 315.76C317.96 314.95 294.23 314.15 291.62 314.76C271.03 317.07 257.85 327.99 250.62 345.76L242.78 377.36L232.01 410.36C231.109 412.277 229.788 413.968 228.145 415.306C226.503 416.644 224.58 417.595 222.52 418.09L181 432.28L181.35 440.41L181 451.41L236.3 441C247.38 438.92 258.65 434.83 261.83 424.14L267.78 406.52C270.69 413.98 273.86 420.82 273.86 420.82L269.86 465.25L365.44 465.47Z" fill="#455A64"/>
<path d="M351.194 377.81L335.394 430.64C334.188 434.668 332.005 438.335 329.039 441.315C326.073 444.295 322.416 446.495 318.394 447.72L252.634 465.24L243.914 442.54L303.354 420.44L317.944 367.54C317.944 367.54 321.314 337.96 348.064 339.48" fill="#455A64"/>
<path d="M348.055 339.48H347.255C346.725 339.48 345.945 339.42 344.915 339.48C341.903 339.566 338.93 340.171 336.125 341.27C334.097 342.064 332.189 343.134 330.455 344.45C328.399 346.032 326.577 347.897 325.045 349.99C321.379 355.202 319.003 361.21 318.115 367.52C314.115 382.24 309.115 400.26 303.585 420.45V420.57H303.475L243.995 442.78L244.145 442.45L245.695 446.45C248.145 452.85 250.565 459.15 252.855 465.12L252.545 464.96L309.045 449.96L315.415 448.26C316.415 447.98 317.505 447.72 318.525 447.42C319.526 447.105 320.508 446.731 321.465 446.3C326.946 443.82 331.357 439.455 333.895 434C334.65 432.311 335.272 430.566 335.755 428.78C336.808 425.287 337.808 421.953 338.755 418.78C342.605 406.04 345.695 395.78 347.825 388.78L350.295 380.68L350.945 378.59C351.095 378.12 351.185 377.88 351.185 377.88C351.185 377.88 351.125 378.13 350.995 378.6C350.865 379.07 350.655 379.79 350.385 380.71C349.835 382.58 349.035 385.31 348.005 388.84L339.085 418.91C338.145 422.103 337.145 425.437 336.085 428.91C335.605 430.716 334.983 432.482 334.225 434.19C333.419 435.966 332.412 437.643 331.225 439.19C328.684 442.447 325.398 445.046 321.645 446.77C320.667 447.209 319.665 447.593 318.645 447.92C317.645 448.22 316.575 448.48 315.525 448.77L309.155 450.47L252.665 465.55L252.445 465.61L252.365 465.4C250.075 459.4 247.645 453.12 245.195 446.73L243.645 442.73L243.555 442.49L243.795 442.4L303.245 420.32L303.095 420.48C308.685 400.31 313.675 382.29 317.745 367.59C318.653 361.227 321.074 355.174 324.805 349.94C326.356 347.828 328.205 345.952 330.295 344.37C332.052 343.053 333.984 341.986 336.035 341.2C338.862 340.104 341.863 339.525 344.895 339.49C345.674 339.447 346.455 339.447 347.235 339.49L348.055 339.48Z" fill="#263238"/>
<path d="M306.624 408.57C306.365 408.628 306.099 408.648 305.834 408.63C305.117 408.625 304.403 408.541 303.704 408.38C301.376 407.838 299.227 406.705 297.464 405.09C295.678 403.511 294.287 401.535 293.404 399.32C293.244 398.941 293.114 398.549 293.014 398.15C292.924 397.856 292.857 397.555 292.814 397.25C292.734 396.75 292.704 396.47 292.744 396.47C292.784 396.47 293.014 397.55 293.744 399.17C294.696 401.277 296.079 403.161 297.804 404.7C299.519 406.258 301.573 407.395 303.804 408.02C305.504 408.48 306.624 408.46 306.624 408.57Z" fill="#263238"/>
<path d="M267.574 368.39C267.439 368.923 267.255 369.441 267.024 369.94C266.634 370.94 266.024 372.35 265.394 374.13C264.094 377.66 262.264 382.67 262.074 388.43C261.98 391.139 262.348 393.845 263.164 396.43C263.834 398.528 264.743 400.541 265.874 402.43C266.636 403.711 267.467 404.95 268.364 406.14C268.727 406.564 269.061 407.012 269.364 407.48C269.364 407.48 269.244 407.39 269.044 407.18C268.844 406.97 268.574 406.68 268.234 406.27C267.259 405.121 266.37 403.901 265.574 402.62C264.388 400.716 263.432 398.679 262.724 396.55C261.877 393.926 261.488 391.176 261.574 388.42C261.888 383.449 263.062 378.57 265.044 374C265.754 372.24 266.394 370.84 266.834 369.87C267.042 369.358 267.289 368.863 267.574 368.39Z" fill="#263238"/>
<path d="M309.133 427.49C308.496 426.03 307.683 424.653 306.713 423.39C305.611 422.242 304.372 421.235 303.023 420.39C303.509 420.43 303.977 420.592 304.383 420.86C306.47 421.978 308.066 423.831 308.863 426.06C309.069 426.507 309.162 426.998 309.133 427.49Z" fill="#263238"/>
<path d="M245.123 445.7C245.123 445.7 226.313 447.38 226.573 459.6L249.993 458.41L245.123 445.7Z" fill="#B78876"/>
<path d="M275.448 240.93C273.728 249.25 272.088 257.583 270.528 265.93C268.528 276.51 266.728 287.57 269.718 297.93C271.358 303.61 274.378 308.77 277.368 313.87C279.048 316.73 280.888 319.75 283.868 321.23C287.918 323.23 293.038 321.65 296.268 318.48C299.498 315.31 301.128 310.89 302.268 306.48C304.438 297.94 304.918 289.07 305.268 280.26C305.618 271.45 305.798 262.31 303.268 253.77C300.738 245.23 295.198 237.15 286.948 233.77" fill="#263238"/>
<path d="M276.805 234.25C279.159 232.42 282.017 231.355 284.995 231.2C287.395 226.34 293.085 224.11 298.405 223.08C306.245 221.55 305.405 221.34 312.695 224.56C319.985 227.78 330.365 236.88 331.695 244.76C332.903 251.672 335.117 258.369 338.265 264.64C340.265 268.79 344.165 271.64 346.475 275.64C347.721 277.809 348.454 280.234 348.619 282.73C348.783 285.226 348.375 287.726 347.425 290.04C345.545 294.55 341.555 298.53 341.935 303.39C342.145 306.22 342.045 308.24 343.165 310.85C346.955 319.69 345.165 331.47 337.025 336.57C328.885 341.67 317.105 339.89 310.815 332.57C305.355 326.25 304.305 317.23 304.815 308.89C305.325 300.55 307.245 292.26 306.705 283.89" fill="#263238"/>
<path d="M286.147 465.24L286.027 462.36L243.627 457.89L225.047 404.48L145.477 402.68L169.547 465.24C208.887 465.54 247.753 465.54 286.147 465.24Z" fill="#263238"/>
<path d="M189.625 434.82C190.035 435.533 190.648 436.109 191.385 436.474C192.123 436.839 192.952 436.977 193.768 436.87C194.584 436.764 195.35 436.418 195.969 435.877C196.588 435.335 197.033 434.622 197.247 433.827C197.461 433.033 197.435 432.193 197.171 431.413C196.908 430.634 196.419 429.95 195.767 429.448C195.115 428.946 194.329 428.649 193.508 428.594C192.687 428.54 191.868 428.73 191.155 429.14C190.199 429.69 189.5 430.598 189.213 431.663C188.927 432.728 189.074 433.864 189.625 434.82Z" fill="white"/>
<path d="M305.458 336.42C314.998 336.42 323.578 328.29 323.298 316.21L325.018 247.21C325.049 245.765 324.535 244.362 323.579 243.279C322.624 242.195 321.295 241.51 319.858 241.36L291.428 238.36C289.105 238.115 286.756 238.343 284.523 239.03C282.291 239.716 280.22 240.848 278.435 242.356C276.651 243.863 275.19 245.717 274.141 247.804C273.091 249.891 272.475 252.169 272.328 254.5C271.648 265.42 271.238 278.79 272.528 286.94C275.128 303.33 287.698 305.42 287.698 305.42L287.388 316.87C286.908 329.07 296.038 336.41 305.458 336.41V336.42Z" fill="#B78876"/>
<path d="M278.688 263.4C278.682 263.944 278.887 264.468 279.26 264.863C279.633 265.259 280.145 265.494 280.688 265.52C280.954 265.542 281.223 265.51 281.477 265.426C281.731 265.342 281.966 265.208 282.167 265.032C282.369 264.856 282.533 264.641 282.65 264.4C282.766 264.159 282.834 263.897 282.848 263.63C282.856 263.086 282.652 262.56 282.278 262.164C281.905 261.768 281.391 261.533 280.848 261.51C280.581 261.488 280.312 261.52 280.058 261.604C279.804 261.688 279.569 261.822 279.368 261.998C279.167 262.175 279.003 262.389 278.886 262.63C278.769 262.871 278.701 263.133 278.688 263.4Z" fill="#263238"/>
<path d="M275.226 261.46C275.486 261.73 277.086 260.56 279.346 260.56C281.606 260.56 283.266 261.7 283.506 261.42C283.626 261.3 283.366 260.81 282.646 260.28C281.661 259.613 280.495 259.264 279.306 259.28C278.131 259.278 276.986 259.649 276.036 260.34C275.336 260.84 275.106 261.34 275.226 261.46Z" fill="#263238"/>
<path d="M300.524 263.82C300.515 264.364 300.72 264.89 301.093 265.286C301.467 265.682 301.98 265.917 302.524 265.94C302.791 265.963 303.061 265.932 303.316 265.849C303.571 265.766 303.807 265.632 304.01 265.456C304.212 265.279 304.377 265.064 304.495 264.822C304.612 264.581 304.68 264.318 304.694 264.05C304.699 263.506 304.494 262.982 304.121 262.587C303.748 262.191 303.237 261.956 302.694 261.93C302.426 261.907 302.157 261.938 301.901 262.021C301.646 262.104 301.41 262.238 301.207 262.414C301.005 262.591 300.84 262.806 300.723 263.048C300.605 263.289 300.537 263.552 300.524 263.82Z" fill="#263238"/>
<path d="M297.464 261.88C297.724 262.16 299.314 260.98 301.574 260.98C303.834 260.98 305.494 262.12 305.744 261.84C305.864 261.72 305.604 261.23 304.874 260.7C303.891 260.035 302.729 259.686 301.544 259.7C300.366 259.698 299.217 260.069 298.264 260.76C297.574 261.26 297.334 261.76 297.464 261.88Z" fill="#263238"/>
<path d="M289.258 278.66C288.067 278.288 286.834 278.067 285.588 278C285.008 277.94 284.458 277.82 284.358 277.43C284.313 276.831 284.449 276.231 284.748 275.71C285.288 274.32 285.858 272.85 286.458 271.32C288.828 265.05 290.548 259.9 290.288 259.81C290.028 259.72 287.908 264.72 285.538 270.98C284.968 272.53 284.418 273.98 283.898 275.41C283.541 276.106 283.435 276.905 283.598 277.67C283.682 277.874 283.812 278.056 283.976 278.203C284.141 278.351 284.336 278.459 284.548 278.52C284.874 278.608 285.21 278.652 285.548 278.65C286.779 278.813 288.026 278.817 289.258 278.66Z" fill="#263238"/>
<path d="M287.695 305.43C295.413 305.546 303.012 303.517 309.645 299.57C309.645 299.57 304.315 310.83 287.915 309.3L287.695 305.43Z" fill="#AA6550"/>
<path d="M290.215 284.11C290.641 283.564 291.201 283.138 291.841 282.873C292.481 282.608 293.178 282.514 293.865 282.6C294.363 282.645 294.848 282.789 295.289 283.025C295.73 283.26 296.12 283.581 296.435 283.97C296.738 284.347 296.918 284.809 296.951 285.292C296.983 285.775 296.866 286.256 296.615 286.67C296.25 287.084 295.767 287.377 295.232 287.511C294.696 287.645 294.132 287.613 293.615 287.42C292.549 287.04 291.567 286.456 290.725 285.7C290.473 285.518 290.256 285.291 290.085 285.03C289.999 284.905 289.953 284.757 289.953 284.605C289.953 284.453 289.999 284.305 290.085 284.18" fill="#AA6550"/>
<path d="M295.913 280.22C295.543 280.22 295.533 282.66 293.433 284.4C291.333 286.14 288.723 285.87 288.703 286.22C288.703 286.37 289.283 286.69 290.393 286.72C291.847 286.752 293.264 286.267 294.393 285.35C295.462 284.473 296.147 283.214 296.303 281.84C296.353 280.82 296.073 280.21 295.913 280.22Z" fill="#263238"/>
<path d="M296.448 257.92C296.668 258.54 298.928 258.25 301.588 258.57C304.248 258.89 306.388 259.57 306.738 259.06C306.898 258.79 306.518 258.22 305.658 257.62C304.509 256.876 303.2 256.416 301.838 256.28C300.486 256.122 299.116 256.283 297.838 256.75C296.848 257.15 296.358 257.63 296.448 257.92Z" fill="#263238"/>
<path d="M276.055 254.91C276.455 255.43 278.055 254.91 279.895 254.91C281.735 254.91 283.355 255.25 283.715 254.72C283.875 254.46 283.625 253.94 282.935 253.46C282.005 252.872 280.921 252.576 279.821 252.61C278.721 252.644 277.657 253.006 276.765 253.65C276.105 254.13 275.885 254.66 276.055 254.91Z" fill="#263238"/>
<path d="M272.664 251.78C278.834 248.2 284.844 244.89 288.664 238.89C290.794 244.89 294.954 247.89 300.474 251.08C305.994 254.27 312.164 256.14 318.274 257.97C315.184 260.97 314.774 265.82 315.484 270.07C316.194 274.32 317.824 278.41 318.094 282.71C318.444 288.45 316.344 294.08 316.214 299.83C316.034 307.72 319.514 315.17 322.924 322.28L337.734 313.65L335.604 275.2L335.784 247.99L312.694 226.53L283.454 229.73L272.664 251.78Z" fill="#263238"/>
<path d="M269.378 332.63C276.888 340.22 276.088 353.75 284.378 360.54C289.438 364.7 296.828 365.09 303.038 362.99C309.248 360.89 314.468 356.64 319.258 352.16C324.048 347.68 328.578 342.87 334.028 339.24C339.318 335.71 348.378 333.54 349.658 327.3C350.598 322.74 345.798 317.25 344.898 312.68C343.468 305.42 351.318 299.81 352.628 292.53C355.248 277.98 347.568 260.9 339.568 248.53C331.568 236.16 327.048 222.15 306.768 221C288.618 220.19 276.258 228.9 270.218 241.5C267.218 247.81 266.488 254.95 265.898 261.93C264.528 278.23 263.768 295.51 271.298 310.03C272.858 313.03 274.718 316.85 272.618 319.51C270.698 321.94 266.348 321.84 265.128 324.69C263.908 327.54 267.118 330.34 269.378 332.63ZM291.998 236C294.428 235.9 301.638 236 309.678 246.71C314.488 253.12 314.478 263.5 314.378 272.55C314.288 279.28 314.378 296.31 314.378 296.31C314.378 296.31 315.438 317.82 308.128 319.72C299.128 322.06 291.298 320.45 284.588 314.06C277.878 307.67 274.038 298.7 272.508 289.56C270.978 280.42 270.118 271.1 271.318 261.91C271.95 256.271 273.814 250.839 276.778 246C278.466 243.354 280.694 241.095 283.318 239.372C285.941 237.648 288.899 236.499 291.998 236Z" fill="#8568F5"/>
<g opacity="0.3">
<path d="M348.055 320.27C342.055 323.53 337.905 328.38 333.055 333.16C328.205 337.94 322.715 342.57 316.055 344.29C309.395 346.01 301.385 343.96 298.055 337.97C316.825 341.17 338.615 326.18 345.055 308.25C344.67 309.808 344.649 311.433 344.995 313C345.863 315.484 346.885 317.912 348.055 320.27Z" fill="black"/>
</g>
<g opacity="0.3">
<path d="M273.425 315.32C274.077 317.747 275.218 320.016 276.777 321.986C278.337 323.957 280.283 325.588 282.495 326.78C283.522 327.208 284.485 327.777 285.355 328.47C285.784 328.825 286.096 329.301 286.251 329.836C286.407 330.371 286.397 330.94 286.225 331.47C285.908 332.009 285.414 332.422 284.827 332.637C284.239 332.852 283.596 332.857 283.005 332.65C281.854 332.186 280.827 331.46 280.005 330.53C276.735 327.37 273.365 324.17 272.445 319.73C272.977 319.083 273.348 318.319 273.525 317.5C273.571 316.772 273.537 316.041 273.425 315.32Z" fill="black"/>
</g>
<path d="M343.568 311.8C343.5 312.004 343.406 312.199 343.288 312.38C343.078 312.75 342.808 313.32 342.378 314C341.202 315.952 339.906 317.829 338.498 319.62C336.428 322.297 334.136 324.796 331.648 327.09C328.617 329.939 325.18 332.322 321.448 334.16C319.48 335.02 317.455 335.745 315.388 336.33C313.465 336.89 311.508 337.324 309.528 337.63C306.18 338.176 302.778 338.304 299.398 338.01C297.125 337.803 294.878 337.374 292.688 336.73C291.908 336.52 291.328 336.28 290.928 336.14C290.718 336.083 290.517 335.999 290.328 335.89C290.328 335.89 291.188 336.13 292.748 336.53C294.94 337.101 297.179 337.473 299.438 337.64C302.779 337.879 306.136 337.718 309.438 337.16C311.391 336.843 313.321 336.402 315.218 335.84C317.264 335.257 319.268 334.539 321.218 333.69C324.902 331.856 328.3 329.498 331.308 326.69C333.793 324.43 336.093 321.975 338.188 319.35C339.617 317.588 340.952 315.752 342.188 313.85C342.638 313.19 342.938 312.64 343.188 312.29C343.302 312.117 343.429 311.954 343.568 311.8Z" fill="#263238"/>
<path d="M297.539 330.35C297.157 330.505 296.757 330.61 296.349 330.66C295.247 330.86 294.129 330.96 293.009 330.96C289.269 330.973 285.597 329.963 282.389 328.04C279.181 326.117 276.56 323.354 274.809 320.05C274.278 319.059 273.84 318.021 273.499 316.95C273.353 316.564 273.259 316.16 273.219 315.75C273.786 317.156 274.427 318.531 275.139 319.87C276.926 323.056 279.514 325.72 282.646 327.6C285.778 329.481 289.347 330.511 292.999 330.59C295.809 330.67 297.529 330.24 297.539 330.35Z" fill="#263238"/>
<path d="M293.648 355.13C293.834 355.053 294.029 355.003 294.228 354.98C294.608 354.89 295.228 354.81 295.908 354.63C297.964 354.188 299.99 353.623 301.978 352.94C308.524 350.618 314.683 347.325 320.248 343.17C325.804 339 331.067 334.452 335.998 329.56L340.538 325.16C341.038 324.67 341.458 324.28 341.778 323.97C341.917 323.824 342.072 323.693 342.238 323.58C342.127 323.746 342 323.9 341.858 324.04L340.678 325.3C339.678 326.38 338.148 327.93 336.258 329.82C331.385 334.808 326.136 339.414 320.558 343.6C314.955 347.783 308.724 351.054 302.098 353.29C300.087 353.946 298.032 354.461 295.948 354.83C295.218 354.98 294.628 355.03 294.238 355.08C294.045 355.121 293.846 355.138 293.648 355.13Z" fill="#263238"/>
<path d="M645.814 376.11L610.534 334.51L610.454 334.59C609.064 333.22 607.844 332 607.224 331.29C595.004 317.13 585.294 312.29 566.584 312.03L530.224 312.81C523.464 313.37 508.124 310.48 493.934 329.29C468.084 361.68 447.354 389.23 448.524 402.23C449.994 418.68 512.734 465.58 512.734 465.58L598.974 465.51L598.794 458.94L636.004 434.79C649.424 425.72 656.434 417.79 658.134 405.79C659.624 395.11 653.004 384.11 645.814 376.11ZM487.814 400.87C487.814 398.34 501.414 382.39 508.814 373.87L512.664 410.7L512.004 425.09L487.814 400.87ZM597.224 423.54L595.174 375L623.294 404.09L597.224 423.54Z" fill="#455A64"/>
<path d="M543.331 396.437L479.582 427.944C477.888 428.781 477.194 430.832 478.031 432.525L498.638 474.221C499.475 475.914 501.526 476.608 503.219 475.772L566.969 444.265C568.662 443.428 569.356 441.377 568.519 439.684L547.912 397.988C547.075 396.295 545.024 395.6 543.331 396.437Z" fill="#E0E0E0"/>
<path d="M523.007 432.19C523.673 431.783 524.446 431.582 525.226 431.613C526.007 431.645 526.761 431.907 527.392 432.367C528.024 432.827 528.505 433.464 528.775 434.197C529.044 434.93 529.09 435.727 528.907 436.486C528.724 437.246 528.319 437.934 527.745 438.464C527.171 438.993 526.452 439.341 525.681 439.462C524.909 439.584 524.118 439.473 523.409 439.145C522.7 438.817 522.104 438.287 521.697 437.62C521.151 436.726 520.982 435.652 521.227 434.634C521.473 433.615 522.113 432.736 523.007 432.19Z" fill="white"/>
<path d="M594.632 340.46C594.644 340.566 594.644 340.674 594.632 340.78C594.632 341.02 594.632 341.32 594.632 341.71C594.632 342.56 594.632 343.76 594.632 345.28C594.632 348.42 594.692 352.9 594.732 358.43C594.792 369.53 595.222 384.85 596.082 401.77C596.942 418.69 597.822 434 598.292 445.09C598.532 450.63 598.692 455.09 598.782 458.23C598.782 459.75 598.842 460.95 598.862 461.8C598.862 462.19 598.862 462.49 598.862 462.73C598.873 462.836 598.873 462.944 598.862 463.05C598.851 462.944 598.851 462.837 598.862 462.73C598.862 462.49 598.862 462.19 598.802 461.8C598.802 460.95 598.692 459.8 598.622 458.23C598.462 455.1 598.232 450.62 597.962 445.11C597.352 433.99 596.522 418.69 595.602 401.79C594.682 384.89 594.362 369.53 594.402 358.43C594.402 352.91 594.402 348.43 594.472 345.28C594.472 343.76 594.472 342.56 594.522 341.71C594.522 341.32 594.522 341.02 594.522 340.78C594.549 340.671 594.586 340.563 594.632 340.46Z" fill="#263238"/>
<path d="M504.84 318.71C509.44 315.36 514.79 316.37 519.4 319.71C524.01 323.05 526.57 328.71 527.03 334.38C527.49 340.05 526.03 345.73 523.88 350.99C520.41 359.42 515.28 366.24 507.61 374.92L487.85 400.87L526 438.11L510.19 463.05L478.25 437.34C467.34 428.13 458.06 418.71 451.25 408.97" fill="#455A64"/>
<path d="M451.242 409L451.472 409.3L452.142 410.2C452.732 410.99 453.612 412.2 454.802 413.66C458.225 417.937 461.899 422.007 465.802 425.85C468.302 428.34 471.152 431.01 474.332 433.85C477.512 436.69 481.092 439.5 484.892 442.55L510.292 462.93L509.942 462.99C514.852 455.24 520.182 446.82 525.732 438.04V438.36L506.052 419.16L487.592 401.16L487.432 401.01L487.562 400.83C494.562 391.68 501.182 382.98 507.342 374.89C511.106 370.748 514.596 366.365 517.792 361.77C520.645 357.583 522.954 353.05 524.662 348.28C526.283 344.046 527.044 339.532 526.902 335C526.736 331.187 525.574 327.485 523.532 324.26C521.853 321.667 519.512 319.568 516.752 318.18C514.729 317.103 512.451 316.598 510.162 316.72C508.743 316.832 507.363 317.241 506.112 317.92C505.252 318.38 504.852 318.69 504.842 318.67L505.142 318.44C505.437 318.221 505.748 318.024 506.072 317.85C507.326 317.139 508.717 316.702 510.152 316.57C512.474 316.418 514.792 316.909 516.852 317.99C519.664 319.367 522.051 321.478 523.762 324.1C525.858 327.365 527.058 331.124 527.242 335C527.41 339.519 526.69 344.028 525.122 348.27C523.418 353.081 521.106 357.655 518.242 361.88C515.047 366.494 511.556 370.897 507.792 375.06C501.632 383.15 495.002 391.86 488.042 401.06V400.72L506.512 418.72L526.182 437.93L526.332 438.08L526.222 438.25C520.662 447.03 515.322 455.44 510.402 463.18L510.262 463.41L510.052 463.24L484.702 442.79C480.912 439.73 477.312 436.89 474.162 434.05C471.012 431.21 468.162 428.54 465.652 426.05C461.755 422.174 458.098 418.063 454.702 413.74C453.532 412.24 452.702 411.04 452.102 410.23C451.822 409.84 451.612 409.53 451.462 409.31C451.312 409.09 451.242 409 451.242 409Z" fill="#263238"/>
<path d="M637.004 403.4C636.323 403.241 635.655 403.034 635.004 402.78C631.806 401.764 628.348 401.945 625.274 403.29C624.649 403.609 624.005 403.886 623.344 404.12C623.858 403.626 624.458 403.23 625.114 402.95C626.652 402.171 628.336 401.722 630.059 401.632C631.781 401.542 633.503 401.814 635.114 402.43C635.796 402.64 636.436 402.968 637.004 403.4Z" fill="#263238"/>
<path d="M533.81 461.88L526.87 465.33C525.186 466.168 523.296 466.502 521.426 466.293C519.557 466.083 517.787 465.34 516.33 464.15L512 460.62L524 441.75C525.41 442.36 531.21 443.18 533.21 443.89C534.942 444.497 536.765 444.801 538.6 444.79C540.648 444.834 542.696 444.666 544.71 444.29C544.84 444.24 545.02 444.2 545.14 444.15C545.412 444.037 545.706 443.986 546 444C547.71 443.84 549.07 445.64 548.11 447C547.15 448.36 542.47 450.3 536.49 450.13H536.21C530.96 450.13 535.78 454.52 538.89 457.13C539.441 457.574 539.868 458.152 540.131 458.809C540.394 459.465 540.483 460.179 540.39 460.88C540.374 461.133 540.304 461.38 540.183 461.602C540.062 461.825 539.894 462.019 539.69 462.17C538.33 463.05 533.81 461.88 533.81 461.88Z" fill="#A36853"/>
<path d="M549.87 329.4C540.67 329.4 532.4 321.56 532.48 309.88L530.82 243.37H531.01C530.983 241.974 531.482 240.618 532.409 239.574C533.335 238.529 534.621 237.87 536.01 237.73L563.43 234.83C565.67 234.594 567.934 234.813 570.087 235.475C572.24 236.136 574.236 237.227 575.956 238.681C577.676 240.135 579.084 241.921 580.096 243.934C581.107 245.946 581.7 248.142 581.84 250.39C582.5 260.92 582.9 273.81 581.65 281.67C579.11 297.5 567 299.52 567 299.52L567.29 310.52C567.76 322.28 558.95 329.36 549.87 329.36V329.4Z" fill="#A36853"/>
<path d="M575.681 259C575.681 259.522 575.477 260.023 575.113 260.397C574.748 260.771 574.252 260.987 573.731 261C573.472 261.022 573.212 260.991 572.966 260.91C572.72 260.83 572.492 260.7 572.297 260.529C572.102 260.358 571.943 260.15 571.83 259.916C571.718 259.683 571.653 259.429 571.641 259.17C571.641 258.64 571.851 258.131 572.226 257.756C572.601 257.381 573.11 257.17 573.641 257.17C574.15 257.158 574.644 257.341 575.023 257.681C575.402 258.021 575.637 258.493 575.681 259Z" fill="#263238"/>
<path d="M579.006 257.12C578.756 257.39 577.226 256.25 575.006 256.26C572.786 256.27 571.236 257.35 571.006 257.09C570.776 256.83 571.146 256.49 571.846 255.98C572.788 255.326 573.909 254.977 575.056 254.98C576.188 254.973 577.294 255.323 578.216 255.98C578.916 256.53 579.146 257 579.006 257.12Z" fill="#263238"/>
<path d="M554.638 259.4C554.644 259.667 554.597 259.932 554.5 260.181C554.402 260.429 554.256 260.656 554.07 260.847C553.883 261.038 553.661 261.19 553.415 261.293C553.169 261.397 552.904 261.45 552.638 261.45C552.12 261.475 551.613 261.299 551.223 260.957C550.833 260.616 550.591 260.136 550.547 259.62C550.541 259.353 550.588 259.088 550.685 258.839C550.783 258.591 550.929 258.364 551.115 258.173C551.302 257.982 551.524 257.831 551.77 257.727C552.016 257.623 552.281 257.57 552.547 257.57C553.065 257.545 553.572 257.722 553.962 258.063C554.352 258.404 554.594 258.884 554.638 259.4Z" fill="#263238"/>
<path d="M557.575 257.53C557.325 257.8 555.785 256.66 553.575 256.66C551.365 256.66 549.795 257.76 549.575 257.49C549.455 257.38 549.715 256.9 550.415 256.39C551.355 255.732 552.477 255.382 553.625 255.39C554.757 255.383 555.863 255.732 556.785 256.39C557.475 256.93 557.705 257.41 557.575 257.53Z" fill="#263238"/>
<path d="M565.492 273.71C566.639 273.345 567.829 273.13 569.032 273.07C569.592 273.01 570.122 272.9 570.212 272.52C570.259 271.945 570.13 271.37 569.842 270.87C569.312 269.52 568.772 268.11 568.192 266.63C565.902 260.63 564.252 255.63 564.492 255.53C564.732 255.43 566.792 260.26 569.072 266.3C569.632 267.79 570.152 269.21 570.652 270.57C571.006 271.243 571.108 272.019 570.942 272.76C570.86 272.954 570.736 273.128 570.578 273.268C570.421 273.408 570.234 273.511 570.032 273.57C569.722 273.652 569.403 273.696 569.082 273.7C567.89 273.852 566.684 273.855 565.492 273.71Z" fill="#263238"/>
<path d="M567.006 299.52C559.563 299.63 552.235 297.674 545.836 293.87C545.836 293.87 551.316 305.76 567.126 304.28L567.006 299.52Z" fill="#8F5039"/>
<path d="M558.558 253.71C558.348 254.31 556.168 254.02 553.608 254.33C551.048 254.64 548.978 255.33 548.608 254.81C548.448 254.55 548.808 253.99 549.608 253.42C550.721 252.715 551.981 252.273 553.291 252.13C554.602 251.986 555.927 252.143 557.168 252.59C558.178 253 558.658 253.43 558.558 253.71Z" fill="#263238"/>
<path d="M578.216 250.81C577.836 251.31 576.326 250.81 574.526 250.81C572.726 250.81 571.186 251.14 570.836 250.62C570.676 250.37 570.926 249.88 571.586 249.41C572.477 248.833 573.526 248.55 574.586 248.6C575.647 248.613 576.677 248.963 577.526 249.6C578.176 250.06 578.386 250.57 578.216 250.81Z" fill="#263238"/>
<path d="M531.007 258.48C533.697 258 535.847 258.83 536.607 261.48C537.737 265.43 536.967 267.38 537.157 270.1L541.157 268.9C540.157 259.79 542.427 253.05 541.437 243.9C546.997 245.7 554.637 242.26 557.007 236.5C559.366 238.234 562.169 239.263 565.089 239.469C568.01 239.674 570.929 239.047 573.507 237.66C574.156 238.841 575.163 239.785 576.384 240.357C577.604 240.929 578.974 241.098 580.297 240.84C583.297 239.99 586.477 235.72 587.347 232.69C588.907 227.24 588.147 219.42 583.727 215.87C579.307 212.32 570.447 213.17 567.007 217.68C565.647 219.46 565.487 222.75 563.297 223.2C561.347 223.6 559.577 222.2 557.797 221.28C552.247 218.53 544.577 222.18 543.207 228.22C538.567 225.45 532.947 223.64 527.757 225.13C522.567 226.62 518.427 232.38 520.197 237.48C520.927 239.62 522.577 241.48 522.757 243.71C523.107 248.06 517.887 252 519.557 256.03C520.487 258.29 523.217 259.29 524.447 261.4C525.827 263.76 524.967 266.74 525.087 269.47C525.267 274.03 527.607 280.78 531.977 282.08" fill="#263238"/>
<path d="M531.412 258.43C530.741 258.525 530.109 258.799 529.581 259.223C529.053 259.648 528.649 260.206 528.412 260.84C527.83 262.052 527.552 263.387 527.602 264.73C527.513 266.83 528.188 268.89 529.502 270.53C530.175 271.327 531.081 271.893 532.092 272.15C533.103 272.406 534.17 272.34 535.142 271.96" fill="#A36853"/>
<path d="M534.145 268.53C534.145 268.58 533.555 268.8 532.625 268.47C532.088 268.264 531.615 267.919 531.255 267.47C530.822 266.889 530.569 266.194 530.525 265.47C530.476 264.778 530.617 264.086 530.935 263.47C531.203 262.964 531.587 262.529 532.055 262.2C532.875 261.66 533.515 261.69 533.505 261.75C533.079 261.967 532.672 262.218 532.285 262.5C531.851 262.862 531.511 263.324 531.295 263.847C531.079 264.37 530.994 264.937 531.045 265.5C531.073 266.055 531.248 266.593 531.552 267.059C531.856 267.524 532.278 267.901 532.775 268.15C533.222 268.312 533.68 268.439 534.145 268.53Z" fill="#8F5039"/>
<path d="M558.552 281.43C560.552 282.8 564.332 282.08 565.752 280.05C562.701 278.386 559.889 276.318 557.392 273.9C557.392 273.9 554.552 278.62 558.552 281.43Z" fill="#FAFAFA"/>
<path d="M565.002 286.05C564.189 285.726 563.333 285.524 562.462 285.45C561.593 285.523 560.738 285.714 559.922 286.02C559.922 286.02 560.072 285.71 560.522 285.44C561.114 285.1 561.784 284.92 562.467 284.92C563.15 284.92 563.82 285.1 564.412 285.44C564.862 285.73 565.062 286 565.002 286.05Z" fill="#AA6550"/>
<path d="M540.67 350.08C544.891 343.853 548.728 337.374 552.16 330.68C556.29 322.8 555.59 322.4 554.6 322.05C551.94 321.1 546.81 335.62 546.13 331.82C545.45 328.02 554.43 314.82 551.61 313.98C547.93 312.84 542.84 328.15 542.32 329.41C541.8 330.67 539.97 329.9 540.51 328.79C541.28 327.2 548.94 310.21 545.33 309.06C543.33 308.43 542.61 312.17 542.61 312.17C542.61 312.17 536.61 328.62 534.92 328.02C533.23 327.42 536.42 317.63 537.73 314.41C539.04 311.19 538.06 309.28 536.19 309.84C534.91 310.22 530.66 319.98 529.44 323.19C528.22 326.4 525.02 335.29 523.08 329.54C523.08 329.45 523.01 329.37 522.97 329.28C521.22 323.56 517.97 319.74 516.28 319.28C514.59 318.82 513.36 320.68 514.06 322.28C514.149 322.559 514.3 322.815 514.5 323.03C514.59 323.13 514.68 323.28 514.77 323.39C515.773 325.175 516.59 327.058 517.21 329.01C517.802 330.748 518.096 332.574 518.08 334.41C518.08 336.54 519.08 342.74 519 344.27" fill="#FFAD9D"/>
<path d="M517.998 342L493.808 390C493.808 390 480.128 350.43 472.748 334.69C469.938 328.69 464.298 324.53 458.888 321.77V321.66L457.758 321.21C453.876 319.354 449.797 317.942 445.598 317C420.078 309.69 396.038 312.24 368.208 322C368.208 322 353.758 325.88 346.748 344.73C340.448 361.73 333.378 387.73 332.168 392.33C323.498 421.51 335.878 437.76 353.108 435.76C360.208 434.64 366.248 428.76 368.918 426.48L378.028 417.92L378.228 424.55L367.998 465.5L472.738 465.28L453.838 416.79L458.038 394.56L465.228 411.64C467.486 417.011 471.263 421.605 476.095 424.861C480.928 428.116 486.605 429.89 492.43 429.965C498.256 430.041 503.977 428.414 508.892 425.285C513.807 422.156 517.701 417.66 520.098 412.35L544.588 350.69L517.998 342Z" fill="#8568F5"/>
<path d="M391.87 401.84C391.593 402.314 391.279 402.766 390.93 403.19C390.3 404.03 389.35 405.24 388.14 406.69C385.73 409.6 382.26 413.51 378.23 417.64C374.2 421.77 370.36 425.32 367.48 427.77C366.05 429.01 364.86 429.97 364.02 430.61C363.606 430.986 363.158 431.321 362.68 431.61C363.053 431.208 363.457 430.837 363.89 430.5C364.69 429.81 365.84 428.8 367.24 427.5C370.04 424.97 373.83 421.39 377.85 417.27C381.87 413.15 385.39 409.27 387.85 406.45C389.1 405.03 390.08 403.86 390.76 403.06C391.094 402.622 391.465 402.214 391.87 401.84Z" fill="#263238"/>
<path d="M454.182 415.23C454.174 415.042 454.191 414.854 454.232 414.67C454.312 414.25 454.392 413.73 454.502 413.09L455.592 407.27C456.512 402.36 457.772 395.58 458.772 388.03C459.025 386.143 459.252 384.307 459.452 382.52C459.698 380.822 459.795 379.105 459.742 377.39C459.557 374.482 459.125 371.595 458.452 368.76C457.912 366.32 457.452 364.36 457.142 362.99C457.002 362.3 456.922 361.76 456.882 361.4C456.857 361.211 456.857 361.019 456.882 360.83C456.945 361.007 456.986 361.192 457.002 361.38C457.072 361.74 457.192 362.27 457.362 362.95C457.692 364.3 458.242 366.24 458.832 368.68C459.564 371.528 460.036 374.437 460.242 377.37C460.302 379.108 460.215 380.847 459.982 382.57C459.792 384.36 459.562 386.21 459.312 388.1C458.312 395.67 456.982 402.45 455.972 407.34C455.452 409.73 455.032 411.69 454.722 413.13C454.572 413.76 454.452 414.28 454.362 414.7C454.319 414.882 454.259 415.06 454.182 415.23Z" fill="#263238"/>
<path d="M491.68 401.74C492.061 397.797 492.787 393.896 493.85 390.08C493.74 392.074 493.456 394.055 493 396C492.723 397.947 492.282 399.868 491.68 401.74Z" fill="#263238"/>
<path d="M495.366 403.16C494.864 400.938 494.53 398.682 494.366 396.41C494.016 394.157 493.838 391.88 493.836 389.6C494.338 391.822 494.672 394.078 494.836 396.35C495.186 398.603 495.363 400.88 495.366 403.16Z" fill="#263238"/>
<path d="M418.112 465.28C417.972 465.28 417.852 449.2 417.852 429.38C417.852 409.56 417.972 393.47 418.112 393.47C418.252 393.47 418.372 409.54 418.372 429.38C418.372 449.22 418.252 465.28 418.112 465.28Z" fill="#263238"/>
<g opacity="0.2">
<path d="M457.406 363.73C462.316 373.14 466.586 382.5 466.976 393.11C467.276 401.36 463.976 408.24 467.386 415.76C467.216 415.89 464.306 409.41 463.016 406.37C460.366 400.11 458.016 394.52 458.016 394.52C458.016 394.52 459.836 380.39 460.016 377.98C460.196 375.57 457.406 363.73 457.406 363.73Z" fill="black"/>
</g>
<g opacity="0.2">
<path d="M335.876 411.54C335.876 416.26 332.946 400.68 335.686 396.85C337.616 394.16 340.916 392.85 344.116 392.06C347.316 391.27 350.666 390.74 353.506 389.06C357.176 386.89 359.506 383.06 362.076 379.7C364.646 376.34 368.076 361.95 372.316 361.64V382.64C362.162 389.213 351.601 395.135 340.696 400.37C339.143 401.781 337.91 403.508 337.079 405.434C336.248 407.361 335.838 409.442 335.876 411.54Z" fill="black"/>
</g>
<g opacity="0.2">
<path d="M378 417.93C384.85 414.08 389.85 408.93 397.59 407.6C405.04 406.28 412.71 407.6 420.25 407.08C419.843 403.273 419.427 399.46 419 395.64L397.43 395.4L378 417.93Z" fill="black"/>
</g>
<path d="M372.318 361.4C372.458 361.4 372.578 366.07 372.578 371.83C372.578 377.59 372.458 382.27 372.318 382.27C372.054 378.797 371.968 375.312 372.058 371.83C371.968 368.351 372.055 364.87 372.318 361.4Z" fill="#263238"/>
<path d="M335.857 411.43C335.695 410.824 335.654 410.192 335.737 409.57C335.838 408.063 336.196 406.585 336.797 405.2C337.389 403.814 338.218 402.542 339.247 401.44C339.641 400.955 340.123 400.548 340.667 400.24C339.32 401.811 338.18 403.548 337.277 405.41C336.531 407.342 336.053 409.368 335.857 411.43Z" fill="#263238"/>
<path d="M340.164 400.56C340.703 400.417 341.229 400.226 341.734 399.99C342.734 399.59 344.174 398.99 345.924 398.16C349.424 396.56 354.194 394.16 359.254 391.16C364.314 388.16 368.724 385.21 371.814 382.95C373.364 381.81 374.604 380.87 375.434 380.2C375.884 379.873 376.305 379.508 376.694 379.11C376.203 379.378 375.735 379.685 375.294 380.03L371.584 382.63C368.434 384.81 364.014 387.72 358.964 390.69C353.914 393.66 349.194 396.08 345.744 397.77L341.644 399.77C341.128 399.989 340.633 400.253 340.164 400.56Z" fill="#263238"/>
<path d="M471.567 271.82C469.847 269.57 467.117 267.82 466.567 265.07C465.877 261.38 469.567 257.92 468.897 254.22C468.457 251.69 466.127 249.91 463.747 248.93C461.367 247.95 458.747 247.48 456.567 246.17C453.95 244.491 451.941 242.017 450.837 239.11C450.511 238.316 450.227 237.505 449.987 236.68C449.764 234.913 449.358 233.174 448.777 231.49C448.687 231.05 448.607 230.61 448.527 230.17L448.637 231.17C448.305 230.338 447.868 229.551 447.337 228.83C445.507 226.39 441.847 225.03 439.337 226.74L440.537 225.94C439.02 222.27 436.582 219.054 433.458 216.601C430.335 214.149 426.632 212.543 422.707 211.94C421.21 211.73 419.695 211.68 418.187 211.79C412.797 211.51 405.007 213.08 401.717 215.17C397.517 217.83 393.217 221.48 391.107 225.99C389.977 228.42 389.207 231.23 387.107 232.85C384.247 235.01 380.237 234.17 376.667 234.57C370.787 235.24 365.667 239.75 363.667 245.32C362.736 248.139 362.401 251.122 362.683 254.077C362.966 257.033 363.859 259.898 365.307 262.49C365.927 263.64 366.657 264.97 366.167 266.18C365.66 267.078 364.868 267.782 363.917 268.18C361.52 269.417 359.605 271.42 358.477 273.87C357.477 276.36 357.857 279.51 359.877 281.27C360.724 281.945 361.736 282.382 362.809 282.535C363.881 282.688 364.975 282.552 365.977 282.14C365.381 283.647 365.066 285.25 365.047 286.87C365.004 288.64 365.438 290.39 366.301 291.936C367.165 293.482 368.427 294.768 369.957 295.66C373.087 297.29 377.467 296.43 379.307 293.42C379.295 295.639 379.884 297.821 381.011 299.732C382.139 301.644 383.762 303.215 385.71 304.279C387.657 305.343 389.857 305.861 392.074 305.776C394.292 305.692 396.446 305.009 398.307 303.8C399.787 302.8 401.307 301.48 403.057 301.8C404.807 302.12 405.797 303.8 406.997 305.02C410.197 308.35 415.657 308.73 419.867 306.84C424.077 304.95 427.177 301.17 429.407 297.13C430.184 298.293 431.274 299.214 432.551 299.786C433.828 300.358 435.24 300.559 436.626 300.364C438.011 300.17 439.314 299.589 440.384 298.688C441.455 297.787 442.249 296.602 442.677 295.27C444.236 297.286 446.376 298.775 448.809 299.536C451.242 300.296 453.849 300.29 456.278 299.52C458.708 298.75 460.842 297.252 462.393 295.229C463.943 293.206 464.835 290.756 464.947 288.21C466.706 287.95 468.366 287.236 469.765 286.138C471.163 285.039 472.251 283.596 472.92 281.949C473.59 280.301 473.818 278.508 473.582 276.746C473.347 274.984 472.656 273.313 471.577 271.9L471.567 271.82ZM370.997 274.91C370.997 274.91 370.997 274.91 370.997 274.85L371.097 274.8L370.997 274.91Z" fill="#263238"/>
<path d="M434.44 300C434.44 300 447.25 297.88 449.9 281.17C451.22 272.86 450.8 259.24 450.1 248.11C449.951 245.734 449.323 243.413 448.254 241.286C447.185 239.159 445.697 237.271 443.879 235.734C442.061 234.197 439.951 233.044 437.676 232.344C435.4 231.644 433.007 231.411 430.64 231.66L401.64 234.73C400.169 234.885 398.811 235.589 397.836 236.701C396.861 237.813 396.341 239.252 396.38 240.73L399.43 313.31C397.32 313.76 392.53 314.8 390.18 315.48C390.18 315.48 412.6 365.59 418.09 365.01C423.58 364.43 445.52 317.01 445.52 317.01C441.699 315.858 437.82 314.907 433.9 314.16C433.837 309.434 434.018 304.708 434.44 300Z" fill="#FFAD9D"/>
<path d="M443.622 257.21C443.627 257.767 443.415 258.305 443.03 258.708C442.646 259.112 442.119 259.349 441.562 259.37C441.288 259.399 441.011 259.371 440.748 259.288C440.485 259.205 440.243 259.069 440.035 258.888C439.828 258.706 439.66 258.484 439.542 258.235C439.425 257.986 439.36 257.715 439.352 257.44C439.346 256.883 439.558 256.345 439.943 255.942C440.328 255.538 440.855 255.301 441.412 255.28C441.684 255.258 441.958 255.291 442.218 255.377C442.478 255.463 442.717 255.6 442.923 255.779C443.129 255.959 443.297 256.179 443.417 256.424C443.537 256.67 443.607 256.937 443.622 257.21Z" fill="#263238"/>
<path d="M447.151 255.23C446.881 255.51 445.261 254.31 442.951 254.32C440.641 254.33 438.951 255.48 438.711 255.2C438.581 255.07 438.851 254.57 439.591 254.03C440.597 253.349 441.786 252.99 443.001 253C444.201 252.998 445.37 253.376 446.341 254.08C447.001 254.6 447.281 255.11 447.151 255.23Z" fill="#263238"/>
<path d="M421.366 257.64C421.372 258.199 421.158 258.738 420.771 259.142C420.384 259.546 419.855 259.782 419.296 259.8C419.022 259.829 418.745 259.801 418.482 259.718C418.22 259.635 417.977 259.499 417.77 259.318C417.562 259.136 417.394 258.914 417.277 258.665C417.159 258.416 417.094 258.145 417.086 257.87C417.081 257.311 417.294 256.772 417.681 256.368C418.068 255.965 418.597 255.728 419.156 255.71C419.429 255.688 419.703 255.721 419.962 255.807C420.222 255.893 420.462 256.03 420.668 256.21C420.874 256.389 421.041 256.609 421.161 256.854C421.281 257.1 421.351 257.367 421.366 257.64Z" fill="#263238"/>
<path d="M424.475 255.66C424.215 255.94 422.585 254.74 420.285 254.75C417.985 254.76 416.285 255.91 416.035 255.63C415.915 255.5 416.185 255 416.925 254.46C417.925 253.771 419.111 253.404 420.325 253.41C421.524 253.41 422.693 253.788 423.665 254.49C424.365 255 424.605 255.54 424.475 255.66Z" fill="#263238"/>
<path d="M432.849 272.76C434.066 272.379 435.326 272.154 436.599 272.09C437.179 272.03 437.739 271.91 437.839 271.51C437.89 270.901 437.754 270.29 437.449 269.76C436.889 268.34 436.319 266.84 435.709 265.28C433.289 258.9 431.539 253.65 431.799 253.55C432.059 253.45 434.219 258.55 436.639 264.94L438.309 269.45C438.681 270.16 438.788 270.979 438.609 271.76C438.522 271.972 438.385 272.16 438.212 272.309C438.038 272.459 437.832 272.565 437.609 272.62C437.282 272.705 436.947 272.752 436.609 272.76C435.36 272.915 434.098 272.915 432.849 272.76Z" fill="#263238"/>
<path d="M434.44 300C426.572 300.111 418.827 298.033 412.07 294C412.07 294 417.5 305.47 434.22 303.91L434.44 300Z" fill="#ED9482"/>
<path d="M426.358 276.37C426.866 276.014 427.441 275.765 428.048 275.64C428.354 275.584 428.671 275.625 428.952 275.758C429.234 275.891 429.467 276.108 429.618 276.38C429.682 276.58 429.762 276.774 429.858 276.96C430.198 277.42 430.908 277.25 431.448 277.41C431.652 277.496 431.837 277.622 431.992 277.78C432.148 277.938 432.27 278.125 432.353 278.33C432.436 278.535 432.477 278.755 432.474 278.976C432.472 279.198 432.426 279.417 432.338 279.62C432.137 280.026 431.857 280.388 431.513 280.683C431.169 280.979 430.77 281.202 430.338 281.34C429.206 281.806 427.974 281.975 426.758 281.83C426.333 281.814 425.916 281.708 425.535 281.518C425.154 281.328 424.818 281.06 424.548 280.73C424.296 280.288 424.178 279.783 424.208 279.275C424.238 278.767 424.415 278.279 424.718 277.87C425.34 277.056 426.119 276.376 427.008 275.87" fill="#ED9482"/>
<path d="M426.071 274.36C426.441 274.36 426.451 276.84 428.591 278.61C430.731 280.38 433.391 280.11 433.411 280.46C433.411 280.62 432.821 280.95 431.691 280.98C430.235 280.994 428.82 280.499 427.691 279.58C426.586 278.694 425.869 277.414 425.691 276.01C425.621 275 425.901 274.34 426.071 274.36Z" fill="#263238"/>
<path d="M425.516 251.63C425.286 252.25 422.986 251.96 420.286 252.28C417.586 252.6 415.386 253.35 415.036 252.78C414.876 252.52 415.256 251.93 416.136 251.32C417.315 250.576 418.648 250.11 420.034 249.958C421.42 249.805 422.823 249.97 424.136 250.44C425.116 250.84 425.616 251.33 425.516 251.63Z" fill="#263238"/>
<path d="M446.296 250C445.886 250.53 444.296 250 442.386 250C440.476 250 438.866 250.35 438.496 249.8C438.326 249.54 438.586 249.01 439.286 248.52C440.235 247.926 441.34 247.626 442.459 247.66C443.579 247.694 444.664 248.059 445.576 248.71C446.256 249.23 446.476 249.77 446.296 250Z" fill="#263238"/>
<path d="M440.331 229.22C439.707 232.18 438.497 234.985 436.771 237.47C435.046 239.955 432.84 242.069 430.285 243.688C427.729 245.307 424.875 246.398 421.891 246.896C418.907 247.395 415.854 247.291 412.911 246.59C412.427 250.26 411.005 253.744 408.782 256.704C406.559 259.665 403.611 262.002 400.221 263.49C404.845 271.873 406.73 281.492 405.611 291C405.121 295 403.951 299.27 400.911 302C396.271 306.16 388.451 305.15 383.991 300.81C379.711 296.64 378.201 290.12 379.411 284.27C380.621 278.42 384.291 273.27 388.901 269.51C386.959 269.178 385.148 268.31 383.672 267.004C382.196 265.699 381.114 264.008 380.547 262.121C379.979 260.234 379.95 258.226 380.461 256.324C380.972 254.421 382.004 252.698 383.441 251.35C384.751 250.11 386.441 249.19 387.441 247.68C388.441 246.17 388.601 244.49 389.171 242.88C390.661 238.67 394.421 235.76 398.001 233.08C401.001 230.82 404.361 228.46 408.141 228.47C410.141 228.47 412.141 229.17 414.141 228.9C416.891 228.53 419.041 226.44 421.311 224.9C424.469 222.55 428.397 221.478 432.311 221.9C436.181 222.51 439.791 225.4 440.521 229.24" fill="#263238"/>
<path d="M438.841 230.87C438.251 234.1 439.841 237.41 442.261 239.67C444.681 241.93 447.671 243.33 450.661 244.67C449.619 241.493 448.163 238.467 446.331 235.67C445.407 234.265 444.213 233.058 442.82 232.117C441.426 231.176 439.859 230.521 438.211 230.19" fill="#263238"/>
<path d="M365.359 269.39C365.245 269.052 365.214 268.692 365.269 268.34C365.417 267.319 365.955 266.394 366.769 265.76C368.085 264.801 369.708 264.36 371.329 264.52C373.199 264.52 375.269 265.14 377.559 265C378.798 264.896 379.995 264.5 381.051 263.845C382.108 263.19 382.995 262.294 383.639 261.23C384.353 260.041 384.746 258.687 384.779 257.3C384.879 255.87 384.779 254.37 384.829 252.81C384.844 251.174 385.353 249.582 386.289 248.24C387.33 246.9 388.711 245.864 390.289 245.24C393.439 243.81 397.029 243.79 400.469 243.15C402.176 242.872 403.821 242.296 405.329 241.45C406.742 240.55 407.968 239.385 408.939 238.02C410.889 235.34 412.199 232.35 413.989 229.8C416.14 226.598 419.305 224.211 422.976 223.023C426.646 221.835 430.609 221.915 434.229 223.25C435.73 223.792 437.147 224.543 438.439 225.48C439.559 226.25 440.554 227.188 441.389 228.26C441.316 228.207 441.249 228.147 441.189 228.08L440.639 227.53C439.919 226.844 439.147 226.215 438.329 225.65C435.296 223.559 431.681 222.478 427.999 222.56C425.295 222.652 422.652 223.381 420.283 224.688C417.915 225.994 415.888 227.842 414.369 230.08C412.619 232.58 411.319 235.57 409.369 238.33C408.36 239.751 407.083 240.961 405.609 241.89C404.06 242.772 402.367 243.372 400.609 243.66C397.089 244.31 393.609 244.33 390.529 245.66C389.034 246.255 387.723 247.235 386.729 248.5C385.843 249.76 385.361 251.26 385.349 252.8C385.259 254.31 385.349 255.8 385.279 257.29C385.229 258.749 384.805 260.171 384.049 261.42C383.366 262.533 382.427 263.468 381.31 264.146C380.194 264.824 378.932 265.227 377.629 265.32C375.239 265.44 373.179 264.82 371.349 264.77C369.789 264.587 368.217 264.982 366.929 265.88C366.137 266.477 365.596 267.346 365.409 268.32C365.347 268.673 365.33 269.033 365.359 269.39Z" fill="#FAFAFA"/>
<path d="M390.195 346.58L391.255 373.22L393.935 398.72L422.265 397.51L420.225 347.16L390.195 346.58Z" fill="#263238"/>
<path d="M386.039 346.49L387.099 373.22L389.779 398.72L418.109 397.51L416.069 347.08L386.039 346.49Z" fill="#455A64"/>
<path d="M383.377 401.84C390.896 401.498 398.386 400.696 405.807 399.44C414.587 398.03 414.497 397.24 414.187 396.23C413.347 393.53 398.647 398.11 401.287 395.29C403.927 392.47 419.857 391.79 418.857 389.01C417.567 385.38 402.257 390.46 400.937 390.79C399.617 391.12 399.137 389.21 400.347 388.97C402.087 388.63 420.277 384.61 419.037 381.03C418.357 379.03 414.927 380.71 414.927 380.71C414.927 380.71 398.147 385.71 397.617 384.04C397.087 382.37 406.847 379.04 410.207 378.14C413.567 377.24 414.517 375.33 412.947 374.14C411.877 373.35 401.517 375.78 398.217 376.73C394.917 377.68 385.877 380.42 389.317 375.42C389.377 375.34 389.417 375.26 389.467 375.18C392.997 370.36 394.107 365.47 393.467 363.83C392.827 362.19 390.597 362.34 389.747 363.83C389.58 364.071 389.464 364.343 389.407 364.63C389.407 364.76 389.317 364.93 389.277 365.07C388.46 366.937 387.455 368.717 386.277 370.38C385.242 371.899 383.954 373.229 382.467 374.31C380.757 375.56 376.467 380.14 375.117 380.95" fill="#FFAD9D"/>
<path d="M376.89 379.48L391.87 401.84L367.18 427.02L368.02 386.18L376.89 379.48Z" fill="#8568F5"/>
</svg>
