<svg width="159" height="15" viewBox="0 0 159 15" fill="none" xmlns="http://www.w3.org/2000/svg">
<path fill-rule="evenodd" clip-rule="evenodd" d="M7.66201 4.41725C4.07385 4.7888 1.93627 5.12317 1.59272 5.49472C0.752941 6.31214 2.43245 6.72099 7.73833 6.75815C7.7765 6.75815 145.539 3.71134 145.577 3.71134C151.799 3.45125 152.295 3.11692 152.295 2.48528C152.295 1.66787 150.616 1.11039 147.027 0.850303C142.294 0.441594 34.1914 1.77922 7.66201 4.41725ZM147.905 6.27502C146.226 6.34933 36.9017 8.80154 34.1533 9.02448C0.485761 11.4396 -2.10993 11.8112 1.5164 13.5947C3.2723 14.4493 6.59325 14.4492 20.984 13.4831C55.6822 11.2166 154.471 10.9567 157.945 9.73057C159.548 9.13609 159.777 5.86631 147.905 6.27502Z" fill="#FF450D"/>
</svg>
