<svg width="480" height="350" viewBox="0 0 480 350" fill="none" xmlns="http://www.w3.org/2000/svg">
<path d="M432.936 162.813C419.989 134.309 404.021 108.129 385.57 85.036C365.659 60.116 345.365 43.274 319.182 32.368C301.454 24.99 282.965 20.762 264.392 19.978C229.851 18.522 201.365 28.798 172.994 54.74C142.574 82.551 114.197 114.016 84.5584 143.22C81.4672 146.265 78.3568 149.296 75.2336 152.292C23.5408 201.901 -1.57283 290.031 33.3904 311.57H435.65C435.65 311.57 472.238 309.155 463.221 260.001C456.91 225.596 446.606 192.906 432.936 162.813Z" fill="#8568F5"/>
<path opacity="0.7" d="M432.936 162.813C419.989 134.309 404.021 108.129 385.57 85.036C365.659 60.116 345.365 43.274 319.182 32.368C301.454 24.99 282.965 20.762 264.392 19.978C229.851 18.522 201.365 28.798 172.994 54.74C142.574 82.551 114.197 114.016 84.5584 143.22C81.4672 146.265 78.3568 149.296 75.2336 152.292C23.5408 201.901 -1.57283 290.031 33.3904 311.57H435.65C435.65 311.57 472.238 309.155 463.221 260.001C456.91 225.596 446.606 192.906 432.936 162.813Z" fill="white"/>
<path d="M424.525 227.661H394.105V272.02H424.525V227.661Z" fill="#263238"/>
<path d="M407.539 137.305V234.395L410.649 230.993V174.524L420.275 149.632L410.048 170.513L409.664 140.378L407.539 137.305Z" fill="#263238"/>
<path d="M401.485 133.028L383.776 120.764L394.4 133.35L377.286 128.828L389.382 135.289H368.729L385.843 138.194L365.779 142.387L382.009 141.743L366.957 148.519L383.187 145.614L361.645 161.749L387.321 148.197L373.747 163.044L386.137 154.329L377.286 171.43L390.272 154.973L383.776 169.82L395.283 154.007V164.976L400.595 151.746V159.166L405.907 143.675V151.424L409.664 140.378L410.63 137.543L399.123 120.442L402.662 130.767L399.123 127.54L401.485 133.028Z" fill="#8568F5"/>
<path d="M399.244 163.387L378.444 166.215L393.957 168.56L378.117 176.953L391.205 173.537L375.25 187.887L390.162 178.241L377.093 195.419L389.26 183.645L381.567 199.339L392.421 185.822L385.151 213.248L397.106 184.947L395.244 205.842L399.756 190.498L402.853 209.86L403.32 188.132L406.93 204.106L406.636 183.897L413.01 192.374L409.426 178.465L413.74 184.198L408.844 168.539L413.343 174.524L409.829 163.387L408.933 160.524L390.111 155.309L398.84 160.825L394.232 160.79L399.244 163.387Z" fill="#8568F5"/>
<path d="M399.244 163.387L378.444 166.215L393.957 168.56L378.117 176.953L391.205 173.537L375.25 187.887L390.162 178.241L377.093 195.419L389.26 183.645L381.567 199.339L392.421 185.822L385.151 213.248L397.106 184.947L395.244 205.842L399.756 190.498L402.853 209.86L403.32 188.132L406.93 204.106L406.636 183.897L413.01 192.374L409.426 178.465L413.74 184.198L408.844 168.539L413.343 174.524L409.829 163.387L408.933 160.524L390.111 155.309L398.84 160.825L394.232 160.79L399.244 163.387Z" fill="#8568F5"/>
<path d="M418.193 127.092L445.688 122.864L426.584 131.712L449.496 136.479L431.672 137.046L456.6 149.38L434.494 142.667L456.619 159.712L437.349 149.24L452.133 166.411L433.995 153.209L451.934 185.556L427.717 153.86L436.689 179.886L426.078 161.966L428.222 187.901L420.773 160.279L421.195 182.077L415.198 156.114L409.72 169.358L409.918 150.213L406.213 159.173L407.538 137.305L403.672 146.65L404.645 131.082L404.901 127.085L427.326 113.309L417.899 123.662L423.781 121.884L418.193 127.092Z" fill="#8568F5"/>
<path d="M414.629 121.793L425.841 102.431L414.328 114.051L418.462 95.333L412.561 108.563V85.974L409.905 104.692L406.065 82.74L406.661 100.492L400.459 84.035L403.115 101.787L388.363 78.225L400.76 106.302L387.185 91.455L395.153 105.014L379.512 95.333L394.558 109.529L380.99 102.431L395.448 115.017H385.413L397.509 120.827H390.725L404.888 126.637H397.809L407.902 130.746L410.494 131.803L426.136 119.21L416.689 123.088L419.64 119.21L414.629 121.793Z" fill="#8568F5"/>
<path d="M20.2422 333.578V279.51L26.3926 271.586H458.975L466.373 281.204V332.962" fill="white"/>
<path d="M20.2422 333.578V279.51L26.3926 271.586H458.975L466.373 281.204V332.962" stroke="#263238" stroke-linecap="round" stroke-linejoin="round"/>
<path d="M23.5586 279.762H462.234" stroke="#263238" stroke-linecap="round" stroke-linejoin="round"/>
<path d="M419.583 55.475H398.124C396.725 55.475 395.59 56.716 395.59 58.247V70.364C395.59 71.8949 396.725 73.136 398.124 73.136H419.583C420.983 73.136 422.118 71.8949 422.118 70.364V58.247C422.118 56.716 420.983 55.475 419.583 55.475Z" stroke="#263238" stroke-linecap="round" stroke-linejoin="round"/>
<path d="M432.273 30.87H421.195C419.795 30.87 418.66 32.1111 418.66 33.642V36.932C418.66 38.4629 419.795 39.704 421.195 39.704H432.273C433.673 39.704 434.807 38.4629 434.807 36.932V33.642C434.807 32.1111 433.673 30.87 432.273 30.87Z" stroke="#263238" stroke-linecap="round" stroke-linejoin="round"/>
<path d="M439.766 85.75H435.03C433.631 85.75 432.496 86.9911 432.496 88.522V89.285C432.496 90.8159 433.631 92.057 435.03 92.057H439.766C441.166 92.057 442.301 90.8159 442.301 89.285V88.522C442.301 86.9911 441.166 85.75 439.766 85.75Z" stroke="#263238" stroke-linecap="round" stroke-linejoin="round"/>
<path d="M290.398 195.51H259.71C258.31 195.51 257.176 196.751 257.176 198.282V209.139C257.176 210.67 258.31 211.911 259.71 211.911H290.398C291.798 211.911 292.933 210.67 292.933 209.139V198.282C292.933 196.751 291.798 195.51 290.398 195.51Z" stroke="#263238" stroke-linecap="round" stroke-linejoin="round"/>
<path d="M317.502 185.416H311.038C309.639 185.416 308.504 186.657 308.504 188.188V190.211C308.504 191.742 309.639 192.983 311.038 192.983H317.502C318.902 192.983 320.037 191.742 320.037 190.211V188.188C320.037 186.657 318.902 185.416 317.502 185.416Z" stroke="#263238" stroke-linecap="round" stroke-linejoin="round"/>
<path d="M283.474 231.462H270.667C269.268 231.462 268.133 232.703 268.133 234.234V237.524C268.133 239.055 269.268 240.296 270.667 240.296H283.474C284.873 240.296 286.008 239.055 286.008 237.524V234.234C286.008 232.703 284.873 231.462 283.474 231.462Z" stroke="#263238" stroke-linecap="round" stroke-linejoin="round"/>
<path d="M186.592 187.306H167.437C166.037 187.306 164.902 188.547 164.902 190.078V197.148C164.902 198.679 166.037 199.92 167.437 199.92H186.592C187.992 199.92 189.126 198.679 189.126 197.148V190.078C189.126 188.547 187.992 187.306 186.592 187.306Z" stroke="#263238" stroke-linecap="round" stroke-linejoin="round"/>
<path d="M144.49 207.494H131.101C129.701 207.494 128.566 208.735 128.566 210.266V216.076C128.566 217.607 129.701 218.848 131.101 218.848H144.49C145.889 218.848 147.024 217.607 147.024 216.076V210.266C147.024 208.735 145.889 207.494 144.49 207.494Z" stroke="#263238" stroke-linecap="round" stroke-linejoin="round"/>
<path d="M139.869 186.046H132.253C130.853 186.046 129.719 187.287 129.719 188.818V191.471C129.719 193.002 130.853 194.243 132.253 194.243H139.869C141.269 194.243 142.404 193.002 142.404 191.471V188.818C142.404 187.287 141.269 186.046 139.869 186.046Z" stroke="#263238" stroke-linecap="round" stroke-linejoin="round"/>
<path d="M71.2484 83.23H63.05C61.6503 83.23 60.5156 84.471 60.5156 86.002V87.395C60.5156 88.9259 61.6503 90.167 63.05 90.167H71.2484C72.6481 90.167 73.7828 88.9259 73.7828 87.395V86.002C73.7828 84.471 72.6481 83.23 71.2484 83.23Z" stroke="#263238" stroke-linecap="round" stroke-linejoin="round"/>
<path d="M62.0209 47.901H40.5617C39.162 47.901 38.0273 49.1421 38.0273 50.673V60.9C38.0273 62.4309 39.162 63.672 40.5617 63.672H62.0209C63.4207 63.672 64.5553 62.4309 64.5553 60.9V50.673C64.5553 49.1421 63.4207 47.901 62.0209 47.901Z" stroke="#263238" stroke-linecap="round" stroke-linejoin="round"/>
<path d="M84.5116 47.271H74.5852C73.1855 47.271 72.0508 48.5121 72.0508 50.043V51.436C72.0508 52.9669 73.1855 54.208 74.5852 54.208H84.5116C85.9113 54.208 87.046 52.9669 87.046 51.436V50.043C87.046 48.5121 85.9113 47.271 84.5116 47.271Z" stroke="#263238" stroke-linecap="round" stroke-linejoin="round"/>
<path d="M67.7854 18.886H59.011C57.6113 18.886 56.4766 20.1271 56.4766 21.658V23.681C56.4766 25.2119 57.6113 26.453 59.011 26.453H67.7854C69.1851 26.453 70.3198 25.2119 70.3198 23.681V21.658C70.3198 20.1271 69.1851 18.886 67.7854 18.886Z" stroke="#263238" stroke-linecap="round" stroke-linejoin="round"/>
<path d="M35.4863 219.478H27.8703C26.4706 219.478 25.3359 220.719 25.3359 222.25V224.273C25.3359 225.804 26.4706 227.045 27.8703 227.045H35.4863C36.886 227.045 38.0207 225.804 38.0207 224.273V222.25C38.0207 220.719 36.886 219.478 35.4863 219.478Z" stroke="#263238" stroke-linecap="round" stroke-linejoin="round"/>
<path d="M444.381 203.707H426.96C425.56 203.707 424.426 204.948 424.426 206.479V217.336C424.426 218.867 425.56 220.108 426.96 220.108H444.381C445.781 220.108 446.915 218.867 446.915 217.336V206.479C446.915 204.948 445.781 203.707 444.381 203.707Z" stroke="#263238" stroke-linecap="round" stroke-linejoin="round"/>
<path d="M279.673 28.7141H245.427C243.174 28.7141 241.344 30.7091 241.344 33.1801V52.22C241.344 54.586 243.033 56.518 245.158 56.672L243.149 64.253L252.141 56.686H279.673C281.926 56.686 283.757 54.684 283.757 52.22V33.1801C283.757 30.7161 281.933 28.7141 279.673 28.7141Z" fill="#263238" stroke="#263238" stroke-linecap="round" stroke-linejoin="round"/>
<path d="M278.267 26.663H244.021C241.768 26.663 239.938 28.665 239.938 31.129V50.169C239.938 52.535 241.627 54.467 243.752 54.621L241.742 62.202L250.734 54.635H278.267C280.52 54.635 282.35 52.64 282.35 50.169V31.129C282.35 28.665 280.526 26.663 278.267 26.663Z" fill="#FF880D" stroke="#263238" stroke-miterlimit="10"/>
<path d="M254.076 40.145C254.076 40.964 253.468 41.622 252.725 41.622C251.983 41.622 251.375 40.957 251.375 40.145C251.375 39.333 251.983 38.668 252.725 38.668C253.468 38.668 254.076 39.333 254.076 40.145Z" fill="#263238"/>
<path d="M262.498 40.145C262.498 40.964 261.89 41.622 261.147 41.622C260.405 41.622 259.797 40.957 259.797 40.145C259.797 39.333 260.405 38.668 261.147 38.668C261.89 38.668 262.498 39.333 262.498 40.145Z" fill="#263238"/>
<path d="M270.92 40.145C270.92 40.964 270.312 41.622 269.569 41.622C268.827 41.622 268.219 40.957 268.219 40.145C268.219 39.333 268.827 38.668 269.569 38.668C270.312 38.668 270.92 39.333 270.92 40.145Z" fill="#263238"/>
<path d="M380.704 16.695H86.957V174.951H380.704V16.695Z" stroke="#263238" stroke-linecap="round" stroke-linejoin="round"/>
<path d="M380.704 169.344H86.957V174.951H380.704V169.344Z" stroke="#263238" stroke-linecap="round" stroke-linejoin="round"/>
<path d="M106.126 152.18H41.6909L38.1133 104.118H109.71L106.126 152.18Z" fill="#8568F5" stroke="#263238" stroke-linecap="round" stroke-linejoin="round"/>
<path d="M106.126 155.617H41.6909L38.1133 107.933H109.71L106.126 155.617Z" fill="#263238" stroke="#263238" stroke-linecap="round" stroke-linejoin="round"/>
<path d="M103.898 117.873H43.7383V273.994H103.898V117.873Z" fill="#8568F5" stroke="#263238" stroke-linecap="round" stroke-linejoin="round"/>
<path d="M90.511 140H55.9062V187.306H90.511V140Z" stroke="#263238" stroke-linecap="round" stroke-linejoin="round"/>
<path d="M111.861 260.792H35.7773V273.987H111.861V260.792Z" fill="#8568F5" stroke="#263238" stroke-linecap="round" stroke-linejoin="round"/>
<path d="M210.715 34.839C210.715 34.839 205.627 33.572 201.845 35.007C198.063 36.442 194.056 41.251 194.594 42.35C195.131 43.449 198.063 42.266 198.063 42.266C198.063 42.266 195.362 45.22 195.746 45.64C196.13 46.06 196.52 46.396 196.52 46.396C196.52 46.396 193.205 50.022 192.738 54.495C192.277 58.968 194.127 60.823 194.127 60.823L196.443 59.22C196.443 59.22 195.983 63.357 198.76 65.464C201.538 67.571 201.845 66.563 201.845 66.563C201.845 66.563 205.16 71.54 210.562 72.387C215.963 73.234 218.971 72.555 220.975 71.372C222.978 70.189 224.52 68.754 224.52 68.754C224.52 68.754 224.059 70.525 226.139 69.685C228.219 68.845 232.079 63.945 232.079 63.945C232.079 63.945 232.93 65.296 234.005 63.609C235.08 61.922 234.159 55.09 234.159 55.09C234.159 55.09 237.09 56.105 236.475 53.571C235.861 51.037 233.237 42.77 230.843 40.747C228.45 38.724 224.827 37.457 224.827 37.457C224.827 37.457 226.6 38.213 226.139 36.953C225.679 35.693 221.589 33.327 217.73 33.243C213.871 33.159 212.719 34.51 212.719 34.51C212.719 34.51 211.714 32.907 211.176 33.579C210.639 34.251 210.715 34.846 210.715 34.846V34.839Z" fill="#263238" stroke="#263238" stroke-linecap="round" stroke-linejoin="round"/>
<path d="M204.205 50.918C204.205 50.918 203.085 51.324 203.271 53.067C203.456 54.803 204.999 57.519 204.999 57.519L204.205 50.918Z" stroke="#263238" stroke-linecap="round" stroke-linejoin="round"/>
<path d="M222.682 50.869C222.682 50.869 224.134 50.666 223.994 52.864C223.853 55.062 222.496 57.876 222.496 57.876L222.682 50.869Z" stroke="#263238" stroke-linecap="round" stroke-linejoin="round"/>
<path d="M189.172 138.474C189.172 138.474 188.001 152.887 191.278 164.052C194.555 175.217 199.335 187.565 199.553 190.96C199.771 194.355 194.67 207.214 196.071 217.602C197.473 227.99 205.134 248.507 205.735 252.896C206.337 257.292 204.18 273.343 204.385 275.142C204.59 276.941 207.835 277.473 209.14 277.459C210.446 277.445 212.231 276.087 212.231 276.087C212.231 276.087 214.58 276.843 216.769 276.507C218.958 276.171 219.086 273.819 218.478 271.628C217.87 269.437 215.553 256.452 215.38 253.631C215.207 250.81 220.609 233.121 221.678 222.992C222.887 211.533 222.939 201.81 223.489 197.575C224.033 193.333 224.302 190.981 224.302 190.981C224.302 190.981 230.99 171.311 233.23 160.622C235.47 149.933 234.631 138.502 234.625 137.557C234.619 136.619 231.444 126.301 231.444 126.301L191.649 125.958L189.166 138.467L189.172 138.474Z" fill="#263238" stroke="#263238" stroke-linecap="round" stroke-linejoin="round"/>
<path d="M215.388 253.638C215.369 253.302 215.426 252.742 215.548 252.021L211.567 251.958L205.577 252.021C205.653 252.357 205.711 252.658 205.743 252.896C206.345 257.292 204.188 273.343 204.393 275.142C204.597 276.941 207.842 277.473 209.148 277.459C210.453 277.445 212.239 276.087 212.239 276.087C212.239 276.087 214.588 276.843 216.777 276.507C218.965 276.171 219.093 273.819 218.485 271.628C217.877 269.437 215.561 256.452 215.388 253.631V253.638Z" fill="#A97C6C" stroke="#263238" stroke-linecap="round" stroke-linejoin="round"/>
<path d="M218.479 271.635C218.479 271.635 217.065 272.069 215.407 272.265C213.75 272.461 211.996 271.768 211.996 271.768C211.996 271.768 212.835 272.825 212.847 273.714C212.854 274.603 212.233 276.087 212.233 276.087C212.233 276.087 215.785 276.885 217.443 276.15C219.1 275.415 219.247 273.154 218.486 271.628L218.479 271.635Z" fill="#8568F5" stroke="#263238" stroke-linecap="round" stroke-linejoin="round"/>
<path d="M212.494 271.761L204.59 271.586C204.43 273.378 204.334 274.701 204.385 275.142C204.59 276.941 207.835 277.473 209.14 277.459C210.446 277.445 212.231 276.087 212.231 276.087C213.076 274.708 212.494 271.754 212.494 271.754V271.761Z" fill="#8568F5" stroke="#263238" stroke-linecap="round" stroke-linejoin="round"/>
<path d="M211.566 251.951L211.79 258.412L212.494 271.761" fill="#A97C6C"/>
<path d="M211.566 251.951L211.79 258.412L212.494 271.761" stroke="#263238" stroke-linecap="round" stroke-linejoin="round"/>
<path d="M213.082 157.164C213.172 153.027 213.236 150.164 213.236 150.164" stroke="#878787" stroke-linecap="round" stroke-linejoin="round"/>
<path d="M211.324 236.859C211.657 220.108 212.278 189.14 212.367 187.25C212.451 185.577 212.783 170.751 213.014 160.356" stroke="#878787" stroke-linecap="round" stroke-linejoin="round"/>
<path d="M211.117 247.429C211.117 247.429 211.175 244.559 211.264 240.072" stroke="#878787" stroke-linecap="round" stroke-linejoin="round"/>
<path d="M207.43 146.167L213.388 149.177L217.881 145.964" stroke="#878787" stroke-linecap="round" stroke-linejoin="round"/>
<path d="M203.363 74.396C203.363 74.396 211.011 72.128 215.056 72.366C219.101 72.604 222.269 74.158 222.269 74.158C222.269 74.158 224.125 82.761 224.567 93.044C225.008 103.327 223.799 125.559 223.363 128.905C222.928 132.251 222.711 134.162 222.711 134.162C222.711 134.162 215.171 129.619 212.439 129.5C209.706 129.381 204.131 131.649 204.131 131.649C204.131 131.649 201.943 115.276 201.616 104.279C201.29 93.282 202.16 77.385 202.16 77.385L203.363 74.396Z" fill="white" stroke="#263238" stroke-linecap="round" stroke-linejoin="round"/>
<path d="M207.215 121.051L217.768 111.867" stroke="#263238" stroke-linecap="round" stroke-linejoin="round"/>
<path d="M220.696 105.665L215.812 110.369" stroke="#263238" stroke-linecap="round" stroke-linejoin="round"/>
<path d="M208.027 65.296L206.945 73.836C206.945 73.836 208.827 79.184 213.909 79.338C218.99 79.492 221.531 73.528 221.531 73.528L219.605 64.631L208.033 65.303L208.027 65.296Z" fill="#A97C6C" stroke="#263238" stroke-linecap="round" stroke-linejoin="round"/>
<path d="M208.879 66.269L207.816 72.45L213.73 68.663L208.879 66.269Z" fill="#263238" stroke="#263238" stroke-linecap="round" stroke-linejoin="round"/>
<path d="M211.614 41.433C211.614 41.433 209.374 41.622 207.044 43.547C204.715 45.472 204.939 49.126 204.984 51.863C205.028 54.6 205.617 62.013 206.552 63.896C207.492 65.779 211.153 68.901 213.259 68.992C215.364 69.083 220.139 65.597 220.996 62.692C221.854 59.787 222.961 52.185 222.257 47.74C221.553 43.295 217.489 42.182 217.489 42.182C217.489 42.182 217.643 43.806 217.022 43.463C216.401 43.12 211.614 41.426 211.614 41.426V41.433Z" fill="#A97C6C" stroke="#263238" stroke-linecap="round" stroke-linejoin="round"/>
<path d="M212.178 57.176C212.178 57.176 212.043 58.079 212.395 58.373C212.747 58.667 213.49 58.632 214.021 58.436C214.552 58.24 214.622 57.127 214.622 56.987" stroke="#263238" stroke-linecap="round" stroke-linejoin="round"/>
<path d="M209.178 60.144C209.178 60.144 213.549 61.103 217.37 59.717C217.37 59.717 216.173 62.643 213.633 63.42C211.092 64.197 209.172 60.144 209.172 60.144H209.178Z" fill="white" stroke="#263238" stroke-linecap="round" stroke-linejoin="round"/>
<path d="M206.617 50.218C206.617 50.218 208.268 48.846 209.926 49.567" stroke="#263238" stroke-linecap="round" stroke-linejoin="round"/>
<path d="M217.004 49.854C217.004 49.854 219.25 50.001 219.846 50.869" stroke="#263238" stroke-linecap="round" stroke-linejoin="round"/>
<path d="M209.985 53.5501C209.985 54.2221 209.735 54.7611 209.428 54.7611C209.121 54.7611 208.871 54.2151 208.871 53.5501C208.871 52.8851 209.121 52.3391 209.428 52.3391C209.735 52.3391 209.985 52.8851 209.985 53.5501Z" fill="#263238"/>
<path d="M217.133 53.55C217.133 54.222 216.884 54.768 216.576 54.768C216.269 54.768 216.02 54.222 216.02 53.55C216.02 52.878 216.269 52.332 216.576 52.332C216.884 52.332 217.133 52.878 217.133 53.55Z" fill="#263238"/>
<path d="M204.371 51.954L205.101 55.713C205.101 55.713 208.806 56.147 211.846 55.132L212.55 51.296C212.55 51.296 207.347 49.777 204.371 51.947V51.954Z" stroke="#263238" stroke-linecap="round" stroke-linejoin="round"/>
<path d="M222.363 51.954L221.633 55.713C221.633 55.713 217.928 56.147 214.888 55.132L214.184 51.296C214.184 51.296 219.387 49.777 222.363 51.947V51.954Z" stroke="#263238" stroke-linecap="round" stroke-linejoin="round"/>
<path d="M212.551 51.303C212.551 51.303 213.876 51.163 214.183 51.303" stroke="#263238" stroke-linecap="round" stroke-linejoin="round"/>
<path d="M207.151 72.919C207.151 72.919 201.199 74.585 197.577 75.32C193.948 76.055 191.234 76.881 190.697 78.057C190.159 79.233 182.435 108.465 182.972 110.67C183.51 112.875 184.918 113.68 187.138 114.709C189.353 115.738 191.171 116.032 191.171 116.032C191.171 116.032 186.063 139.979 186.332 140.931C186.601 141.883 190.902 146.517 197.078 146.881C203.254 147.245 205.538 146.881 205.878 140.714C206.21 134.547 204.265 117.061 204.265 117.061C204.265 117.061 203.529 106.043 203.529 97.083C203.529 88.123 207.158 72.919 207.158 72.919H207.151Z" fill="#8568F5" stroke="#263238" stroke-linecap="round" stroke-linejoin="round"/>
<path d="M196.318 83.342C196.318 83.342 192.766 96.747 192.196 100.632C191.627 104.517 191.051 114.289 191.051 114.289" stroke="#263238" stroke-linecap="round" stroke-linejoin="round"/>
<path d="M213.747 78.582L209.484 77.665L210.528 74.34L213.932 75.075L213.747 78.582Z" fill="#263238"/>
<path d="M213.779 78.3847L209.516 77.4648L208.899 80.8849L213.162 81.8048L213.779 78.3847Z" fill="#263238"/>
<path d="M210.151 96.04L206.746 95.305L208.89 80.955L213.152 81.872L210.151 96.04Z" fill="#616161" stroke="#263238" stroke-linecap="round" stroke-linejoin="round"/>
<path d="M213.825 78.3917L209.523 77.4636L209.429 77.9856L213.73 78.9136L213.825 78.3917Z" fill="white" stroke="#263238" stroke-width="0.5" stroke-linecap="round" stroke-linejoin="round"/>
<path d="M196.98 98.588L202.088 94.773C202.088 94.773 207.105 82.362 207.56 81.907C208.02 81.452 213.012 82.733 213.332 82.922C213.646 83.111 213.864 83.587 213.812 84.028C213.761 84.469 213.595 85.33 213.595 85.33C213.595 85.33 213.537 86.429 213.492 86.8C213.448 87.164 213.192 88.242 213.16 88.529C213.128 88.823 212.961 89.684 212.961 89.684C212.961 89.684 214.312 90.314 214.894 91.133C215.476 91.952 215.246 92.218 214.76 92.302C214.273 92.386 213.454 91.903 213.121 91.854C212.788 91.805 209.729 91.315 208.955 91.574C208.18 91.84 208.084 93.233 207.169 94.731C206.254 96.236 204.635 97.342 204.635 97.342L198.83 106.61L196.98 98.581V98.588Z" fill="#A97C6C" stroke="#263238" stroke-linecap="round" stroke-linejoin="round"/>
<path d="M212.969 89.684C212.969 89.684 211.26 89.495 210.486 89.39C209.718 89.285 208.054 88.697 207.484 89.117" stroke="#263238" stroke-linecap="round" stroke-linejoin="round"/>
<path d="M207.254 86.842C207.356 86.821 211.433 87.381 212.201 87.521C212.969 87.661 213.206 87.836 213.206 87.836" stroke="#263238" stroke-linecap="round" stroke-linejoin="round"/>
<path d="M213.449 85.729C213.449 85.729 210.205 84.994 209.264 84.686C208.323 84.378 207.536 84.378 207.273 84.665" stroke="#263238" stroke-linecap="round" stroke-linejoin="round"/>
<path d="M197.941 97.398L200.475 107.373C200.475 107.373 193.403 119.441 190.126 120.827C186.843 122.213 183.643 121.513 182.76 118.762C181.877 116.018 181.595 111.51 182.952 109.424C184.309 107.338 197.941 97.398 197.941 97.398Z" fill="#8568F5" stroke="#263238" stroke-linecap="round" stroke-linejoin="round"/>
<path d="M242.254 100.506L244.776 93.737C244.776 93.737 245.691 89.348 246.152 88.221C246.612 87.094 251.995 85.337 252.34 85.211C252.686 85.085 254.977 82.831 255.316 84.336C255.662 85.841 255.547 86.093 254.516 86.716C253.486 87.346 251.31 88.718 251.31 88.718C251.31 88.718 258.529 87.969 258.984 87.969C259.438 87.969 263.912 87.591 263.105 89.6C262.305 91.602 260.468 94.108 258.984 94.99C257.492 95.865 248.212 98.497 248.212 98.497L245.46 104.384L242.254 100.499V100.506Z" fill="#A97C6C" stroke="#263238" stroke-linecap="round" stroke-linejoin="round"/>
<path d="M263.334 88.809C263.334 88.809 261.837 84.266 261.382 84.581C260.928 84.896 260.883 85.218 261.094 85.897C261.299 86.576 262.131 89.397 262.131 89.53C262.131 89.663 263.251 90.573 263.334 88.802V88.809Z" fill="#A97C6C" stroke="#263238" stroke-linecap="round" stroke-linejoin="round"/>
<path d="M261.434 92.323C261.434 92.323 262.957 90.951 263.104 89.607C263.251 88.263 263.334 86.17 263.123 85.351C262.912 84.532 261.901 85.435 262.08 85.89C262.253 86.352 261.446 91.476 261.434 92.323Z" fill="#A97C6C" stroke="#263238" stroke-linecap="round" stroke-linejoin="round"/>
<path d="M259.223 95.074C259.223 95.074 261.354 92.673 261.437 92.323C261.52 91.973 262.723 85.715 262.083 85.89C261.437 86.065 260.714 87.297 260.554 88.354C260.394 89.411 259.223 95.067 259.223 95.067V95.074Z" fill="#A97C6C" stroke="#263238" stroke-linecap="round" stroke-linejoin="round"/>
<path d="M247.586 95.935C247.586 95.935 248.712 94.262 249.762 93.73C250.812 93.198 257.736 92.939 257.736 92.939C257.736 92.939 260.232 86.331 260.552 87.563C260.872 88.795 259.432 94.486 258.984 94.99C258.536 95.494 251.535 97.692 250.082 98.042" fill="#A97C6C"/>
<path d="M247.586 95.935C247.586 95.935 248.712 94.262 249.762 93.73C250.812 93.198 257.736 92.939 257.736 92.939C257.736 92.939 260.232 86.331 260.552 87.563C260.872 88.795 259.432 94.486 258.984 94.99C258.536 95.494 251.535 97.692 250.082 98.042" stroke="#263238" stroke-linecap="round" stroke-linejoin="round"/>
<path d="M221.524 73.528C221.524 73.528 223.579 88.977 223.463 103.39C223.348 117.803 219.451 136.724 219.227 139.979C219.003 143.234 218.881 145.74 222.548 147.119C226.215 148.498 229.652 146.615 232.974 144.235C236.295 141.855 236.987 139.846 236.987 139.846L232.289 120.176C232.289 120.176 237.217 124.439 240.193 119.924C243.169 115.416 247.182 104.51 247.182 104.51L242.945 98.994L238.017 104.384C238.017 104.384 235.041 78.449 234.235 77.567C233.435 76.692 232.404 76.566 231.943 76.566C231.483 76.566 221.524 73.521 221.524 73.521V73.528Z" fill="#8568F5" stroke="#263238" stroke-linecap="round" stroke-linejoin="round"/>
<path d="M238.017 104.391L234.113 108.227" stroke="#263238" stroke-linecap="round" stroke-linejoin="round"/>
<path d="M230.938 90.244C231.897 95.494 233.158 103.026 233.088 106.148C232.973 111.16 232.288 120.183 232.288 120.183" stroke="#263238" stroke-linecap="round" stroke-linejoin="round"/>
<path d="M229.883 84.721C229.883 84.721 230.12 85.876 230.459 87.675" stroke="#263238" stroke-linecap="round" stroke-linejoin="round"/>
<path d="M446.8 333.319L443.152 304.85V285.873H451.741C451.741 285.873 453.591 288.638 454.096 293.055C454.538 296.905 457.015 325.864 457.655 333.312H446.8V333.319Z" fill="#F6B684" stroke="#263238" stroke-linecap="round" stroke-linejoin="round"/>
<path d="M381.656 333.319C382.29 325.871 384.773 296.912 385.215 293.062C385.72 288.638 387.57 285.88 387.57 285.88H396.159V304.857L392.511 333.326H381.656V333.319Z" fill="#F6B684" stroke="#263238" stroke-linecap="round" stroke-linejoin="round"/>
<path d="M452.583 294.532C450.733 298.214 448.372 298.767 448.877 299.509C449.383 300.244 451.232 302.638 449.888 305.032C448.538 307.426 446.183 309.456 445.677 310.009C445.255 310.471 443.06 327.719 442.356 333.319H397.626C396.922 327.719 394.733 310.471 394.304 310.009C393.799 309.456 391.444 307.433 390.093 305.032C388.743 302.638 390.599 300.244 391.104 299.509C391.61 298.774 389.255 298.221 387.399 294.532C385.549 290.85 387.738 289.926 387.738 287.903C387.738 285.88 386.055 284.774 386.893 282.38C387.732 279.986 390.938 280.903 391.943 281.092C392.954 281.274 393.12 281.463 396.826 280.539C400.531 279.615 410.637 274.274 410.637 274.274L415.188 273.917V273.168L419.988 273.546L424.788 273.168V273.917L429.338 274.274C429.338 274.274 439.444 279.615 443.149 280.539C446.855 281.463 447.021 281.274 448.032 281.092C449.044 280.91 452.244 279.986 453.082 282.38C453.927 284.774 452.237 285.88 452.237 287.903C452.237 289.926 454.426 290.85 452.576 294.532H452.583Z" fill="#636363" stroke="#263238" stroke-linecap="round" stroke-linejoin="round"/>
<path d="M396.717 333.319L395.809 305.529C419.009 309.883 443.655 305.529 443.655 305.529L442.977 333.319H396.717Z" fill="#263238" stroke="#263238" stroke-linecap="round" stroke-linejoin="round"/>
<path d="M409.656 236.152C409.656 236.152 407.781 239.393 407.678 241.773C407.582 244.153 407.582 245.77 406.891 246.526C406.2 247.282 405.112 247.387 405.707 248.577C406.302 249.767 406.993 250.628 406.993 250.628C406.993 250.628 407.883 254.52 408.574 256.249C409.265 257.978 409.56 260.358 410.155 261.002C410.75 261.653 412.133 261.758 412.133 261.758L412.728 266.623L416.875 260.897L412.824 233.667L409.662 236.152H409.656Z" fill="#F6B684" stroke="#263238" stroke-linecap="round" stroke-linejoin="round"/>
<path d="M423.442 227.661C423.442 227.661 428.005 227.178 431.832 234.101C435.66 241.024 434.776 250.523 433.01 255.024C431.244 259.532 427.269 264.845 422.412 265.65C417.554 266.455 412.402 263.396 409.311 253.575C406.22 243.754 409.752 232.813 412.696 230.076C415.64 227.339 420.056 226.051 423.442 227.661Z" fill="#BDBDBD" stroke="#263238" stroke-linecap="round" stroke-linejoin="round"/>
<path d="M425.355 242.312C425.355 242.312 436.689 254.065 435.659 265.006C434.628 275.947 429.476 275.149 430.065 283.199C430.654 291.249 435.806 293.503 435.07 298.816C434.334 304.129 431.832 307.832 428.593 309.603C425.355 311.374 423.147 311.374 423.147 311.374L423.736 307.188C423.736 307.188 420.939 311.213 416.964 310.408C412.99 309.603 410.635 306.383 409.899 303.968L409.163 301.553C409.163 301.553 411.812 301.875 412.548 298.011C413.284 294.147 409.752 292.215 408.427 288.834C407.102 285.453 405.63 278.208 408.132 270.802C410.635 263.396 415.345 261.142 416.817 254.058C418.289 246.974 418.436 241.661 420.939 240.051C423.441 238.441 425.355 242.305 425.355 242.305V242.312Z" fill="#BDBDBD" stroke="#263238" stroke-linecap="round" stroke-linejoin="round"/>
<path d="M424.177 304.927C424.177 304.927 427.268 303.156 425.354 294.301C423.441 285.446 419.025 285.768 421.969 275.793C424.913 265.811 429.034 261.142 427.857 253.743C426.679 246.337 423.146 242.473 423.146 242.473" stroke="#263238" stroke-linecap="round" stroke-linejoin="round"/>
<path d="M414.314 308.147C414.314 308.147 418.583 308.147 417.699 301.224C416.816 294.301 410.487 295.428 408.426 288.827" stroke="#263238" stroke-linecap="round" stroke-linejoin="round"/>
<path d="M420.645 243.922C420.645 243.922 423.442 248.752 420.351 259.539C417.26 270.326 410.783 272.902 411.225 281.589C411.666 290.283 415.199 292.698 415.199 292.698" stroke="#263238" stroke-linecap="round" stroke-linejoin="round"/>
<path d="M423.44 229.432C423.44 229.432 424.029 234.262 422.852 237.965" stroke="#263238" stroke-linecap="round" stroke-linejoin="round"/>
<path d="M419.026 240.541C419.026 240.541 413.138 240.702 409.605 239.414" stroke="#263238" stroke-linecap="round" stroke-linejoin="round"/>
<path d="M409.75 251.328C409.75 251.328 414.46 252.294 417.11 248.913" stroke="#263238" stroke-linecap="round" stroke-linejoin="round"/>
<path d="M432.715 238.287C432.715 238.287 429.624 242.795 425.355 242.312" stroke="#263238" stroke-linecap="round" stroke-linejoin="round"/>
<path d="M372.693 333.319C371.816 324.275 368.315 288.029 368.315 285.957C368.315 283.591 364.245 282.555 361.576 280.63C358.907 278.705 346.575 269.689 346.575 269.689L333.608 269.248L320.642 269.689C320.642 269.689 308.309 278.712 305.64 280.63C302.971 282.555 298.901 283.591 298.901 285.957C298.901 288.029 295.4 324.275 294.523 333.319H372.687H372.693Z" fill="#BDBDBD" stroke="#263238" stroke-linecap="round" stroke-linejoin="round"/>
<path d="M302.035 286.839C302.035 286.839 306.906 299.705 309.069 303.107" stroke="#263238" stroke-linecap="round" stroke-linejoin="round"/>
<path d="M302.852 297.045L306.5 302.96" stroke="#263238" stroke-linecap="round" stroke-linejoin="round"/>
<path d="M363.965 290.388L357.879 303.849" stroke="#263238" stroke-linecap="round" stroke-linejoin="round"/>
<path d="M362.477 298.228L359.77 302.96" stroke="#263238" stroke-linecap="round" stroke-linejoin="round"/>
<path d="M325.633 254.198L324.59 267.33H344.116L342.023 254.765L325.633 254.198Z" fill="#FDD8BA" stroke="#263238" stroke-linecap="round" stroke-linejoin="round"/>
<path d="M321.869 241.766C321.869 241.766 318.586 240.569 319.136 245.357C319.68 250.145 324.058 252.987 324.058 252.987L321.869 241.766Z" fill="#FDD8BA" stroke="#263238" stroke-linecap="round" stroke-linejoin="round"/>
<path d="M346.615 241.766C346.615 241.766 349.898 240.569 349.347 245.357C348.803 250.145 344.426 252.987 344.426 252.987L346.615 241.766Z" fill="#FDD8BA" stroke="#263238" stroke-linecap="round" stroke-linejoin="round"/>
<path d="M347.86 233.093C347.726 232.043 344.167 226.513 342.254 225.463C340.34 224.413 338.561 223.216 336.372 226.359C336.372 226.359 336.302 226.31 336.186 226.219C336.334 225.96 336.314 225.729 336.314 225.729C336.314 225.729 335.124 221.711 332.916 220.71C330.714 219.709 326.305 221.312 325.018 224.826C324.986 224.917 324.974 224.98 324.942 225.064C323.425 226.296 322.023 228.249 321.185 231.294C319.546 237.279 320.225 237.727 320.775 238.175C321.319 238.623 320.641 243.11 321.319 246.554C322.004 249.991 324.462 255.976 329.665 258.524C334.862 261.065 339.649 258.972 340.878 258.076C342.106 257.18 346.894 248.801 347.303 246.106C347.713 243.411 346.209 236.831 346.209 236.831C346.209 236.831 347.988 234.136 347.847 233.093H347.86Z" fill="#263238" stroke="#263238" stroke-linecap="round" stroke-linejoin="round"/>
<path d="M320.679 264.019L317.895 271.782L348.813 271.439L345.363 264.243L320.679 264.019Z" fill="#BDBDBD" stroke="#263238" stroke-linecap="round" stroke-linejoin="round"/>
<path d="M359.027 333.319L360.038 305.032C334.08 309.47 306.496 305.032 306.496 305.032L307.251 333.319H359.027Z" fill="#263238" stroke="#263238" stroke-linecap="round" stroke-linejoin="round"/>
<path d="M278.546 333.319C279.301 324.275 282.328 288.029 282.328 285.957C282.328 283.591 278.258 282.555 275.589 280.63C272.92 278.705 260.588 269.689 260.588 269.689L247.621 269.248L234.655 269.689C234.655 269.689 222.322 278.712 219.653 280.63C216.984 282.555 212.914 283.591 212.914 285.957C212.914 288.029 214.648 324.275 215.084 333.319H278.54H278.546Z" fill="#FAAA19" stroke="#263238" stroke-linecap="round" stroke-linejoin="round"/>
<path d="M216.055 286.839C216.055 286.839 220.925 299.705 223.088 303.107" stroke="#263238" stroke-linecap="round" stroke-linejoin="round"/>
<path d="M216.871 297.045L220.519 302.96" stroke="#263238" stroke-linecap="round" stroke-linejoin="round"/>
<path d="M277.982 290.388L271.902 303.849" stroke="#263238" stroke-linecap="round" stroke-linejoin="round"/>
<path d="M276.496 298.228L273.789 302.96" stroke="#263238" stroke-linecap="round" stroke-linejoin="round"/>
<path d="M273.047 333.319L274.058 305.032C248.1 309.47 220.516 305.032 220.516 305.032L221.271 333.319H273.047Z" fill="#263238" stroke="#263238" stroke-linecap="round" stroke-linejoin="round"/>
<path d="M245.597 222.586C245.597 222.586 237.655 221.816 235.786 226.933C233.917 232.043 229.475 256.067 227.607 261.177C225.738 266.287 227.37 271.145 231.581 273.441C235.792 275.737 255.645 275.996 258.915 275.744C262.186 275.485 267.095 272.93 268.029 270.375C268.963 267.82 268.496 261.177 266.858 258.363C265.219 255.549 263.587 242.522 260.784 233.576C257.981 224.63 254.243 217.224 245.597 222.586Z" fill="#263238" stroke="#263238" stroke-linecap="round" stroke-linejoin="round"/>
<path d="M203.878 333.319C203.078 325.521 199.744 293.643 198.304 291.312C196.665 288.659 179.014 275.786 179.014 275.786L165.062 275.17L151.11 275.786C151.11 275.786 133.465 288.659 131.82 291.312C130.38 293.643 127.046 325.521 126.246 333.319H203.872H203.878Z" fill="#636363" stroke="#263238" stroke-linecap="round" stroke-linejoin="round"/>
<path d="M146.793 301.161C146.793 301.161 158.223 306.838 160.105 307.356" stroke="#263238" stroke-linecap="round" stroke-linejoin="round"/>
<path d="M158.223 303.226L166.075 307.013" stroke="#263238" stroke-linecap="round" stroke-linejoin="round"/>
<path d="M194.742 298.578C194.742 298.578 190.307 305.116 188.938 305.977" stroke="#263238" stroke-linecap="round" stroke-linejoin="round"/>
<path d="M136.379 299.096C136.379 299.096 137.915 305.634 139.451 307.188" stroke="#263238" stroke-linecap="round" stroke-linejoin="round"/>
<path d="M156.895 260.351L155.852 272.461H175.378L173.292 260.876L156.895 260.351Z" fill="#FDD8BA" stroke="#263238" stroke-linecap="round" stroke-linejoin="round"/>
<path d="M153.139 248.892C153.139 248.892 149.856 247.786 150.406 252.203C150.95 256.62 155.328 259.238 155.328 259.238L153.139 248.892Z" fill="#FDD8BA" stroke="#263238" stroke-linecap="round" stroke-linejoin="round"/>
<path d="M177.876 248.892C177.876 248.892 181.16 247.786 180.609 252.203C180.065 256.62 175.688 259.238 175.688 259.238L177.876 248.892Z" fill="#FDD8BA" stroke="#263238" stroke-linecap="round" stroke-linejoin="round"/>
<path d="M152.567 270.711L149.156 276.57L180.075 276.255L177.348 270.851L152.567 270.711Z" fill="#636363" stroke="#263238" stroke-linecap="round" stroke-linejoin="round"/>
<path d="M190.289 333.319L191.3 307.237C165.342 311.332 137.758 307.237 137.758 307.237L138.513 333.319H190.289Z" fill="#263238" stroke="#263238" stroke-linecap="round" stroke-linejoin="round"/>
<path d="M172.116 231.707C172.116 231.707 166.772 229.46 162.1 230.475C157.428 231.483 153.863 235.977 152.417 240.576C150.97 245.175 152.525 250.565 152.525 251.237C152.525 251.909 153.863 257.411 154.637 259.203C155.412 260.995 159.201 266.161 159.201 266.161H170.887C170.887 266.161 175.559 259.315 176.449 257.964C177.338 256.62 178.676 250.334 178.9 247.639C179.124 244.944 177.453 237.09 175.783 234.731C174.113 232.372 172.109 231.7 172.109 231.7L172.116 231.707Z" fill="#263238" stroke="#263238" stroke-linecap="round" stroke-linejoin="round"/>
<path d="M50.8153 333.319L54.4633 304.85V285.873H45.8745C45.8745 285.873 44.0249 288.638 43.5193 293.055C43.0777 296.905 40.6009 325.864 39.9609 333.312H50.8153V333.319Z" fill="#FDD8BA" fill-opacity="0.8" stroke="#263238" stroke-linecap="round" stroke-linejoin="round"/>
<path d="M115.959 333.319C115.326 325.871 112.843 296.912 112.401 293.062C111.895 288.638 110.046 285.88 110.046 285.88H101.457V304.857L105.105 333.326H115.959V333.319Z" fill="#FDD8BA" fill-opacity="0.8" stroke="#263238" stroke-linecap="round" stroke-linejoin="round"/>
<path d="M55.256 333.319H99.9856C100.606 328.377 102.386 314.391 103.083 310.835L110.04 285.88L104.542 282.373C103.909 282.324 102.59 280.987 100.779 280.539C97.0736 279.615 86.968 274.274 86.968 274.274L82.4176 273.917V273.168L77.6176 273.546L72.8176 273.168V273.917L68.2672 274.274C68.2672 274.274 58.1616 279.615 54.456 280.539C50.7504 281.463 46.8784 286.062 45.8672 285.88L51.928 310.009C52.3504 310.471 54.5456 327.719 55.2496 333.319H55.256Z" fill="#D1D1D1" stroke="#263238" stroke-linecap="round" stroke-linejoin="round"/>
<path d="M100.895 333.319L101.803 305.529C78.6034 309.883 53.957 305.529 53.957 305.529L54.6354 333.319H100.895Z" fill="#263238" stroke="#263238" stroke-linecap="round" stroke-linejoin="round"/>
<path d="M91.7679 258.237C90.4495 249.606 90.9808 241.549 88.6128 235.214C88.3056 234.395 87.7231 233.709 86.9487 233.142C86.2959 231.763 85.592 230.699 84.92 230.069C81.976 227.332 77.56 226.044 74.1744 227.654C74.1744 227.654 70.5647 227.276 67.0767 232.064C66.9359 232.155 66.8335 232.246 66.7823 232.33C66.7823 232.33 60.7343 241.829 61.5215 249.305C62.3087 256.788 61.7839 268.296 59.6783 273.189C57.5727 278.082 54.4688 280.518 54.4688 280.518C54.4688 280.518 59.1472 286.132 60.9904 293.041C62.8336 299.95 68.6192 313.474 75.9856 313.761C78.8784 313.873 81.6943 312.06 84.1135 309.197C84.2927 307.447 84.4528 305.151 84.4528 302.624C84.4528 297.122 84.0687 292.684 84.0687 292.684C84.0687 292.684 86.584 298.396 86.392 303.051C86.3344 304.402 86.0848 305.76 85.752 307.02C88.6576 302.673 90.7375 296.884 91.2495 291.613C92.2991 280.679 97.2975 278.95 97.2975 278.95C97.2975 278.95 93.0863 266.861 91.7743 258.23L91.7679 258.237Z" fill="#BDBDBD" stroke="#263238" stroke-linecap="round" stroke-linejoin="round"/>
<path d="M73.0048 297.437C72.8768 299.019 72.6528 300.461 72.3008 301.686" stroke="#263238" stroke-linecap="round" stroke-linejoin="round"/>
<path d="M63.6133 249.032C63.6133 249.032 64.1381 261.982 67.8245 268.597C70.7173 273.798 73.2837 286.097 73.1045 295.176" stroke="#263238" stroke-linecap="round" stroke-linejoin="round"/>
<path d="M65.6621 280.476C65.9181 285.306 64.1453 287.952 61.7773 288.162" stroke="#263238" stroke-linecap="round" stroke-linejoin="round"/>
<path d="M63.0904 258.818C63.0904 258.818 62.3032 266.588 64.6712 274.932C64.9656 275.975 65.196 276.962 65.356 277.886" stroke="#263238" stroke-linecap="round" stroke-linejoin="round"/>
<path d="M85.125 281.799C86.0914 282.856 87.2242 283.339 88.3506 282.982" stroke="#263238" stroke-linecap="round" stroke-linejoin="round"/>
<path d="M88.8742 246.729C88.8742 246.729 84.663 261.401 82.8262 268.884C81.879 272.734 82.391 276.661 83.6198 279.405" stroke="#263238" stroke-linecap="round" stroke-linejoin="round"/>
<path d="M75.9196 276.01C75.8108 277.284 75.7404 278.558 75.7148 279.825" stroke="#263238" stroke-linecap="round" stroke-linejoin="round"/>
<path d="M80.7148 253.351C80.7148 253.351 77.4316 262.92 76.1836 273.434" stroke="#263238" stroke-linecap="round" stroke-linejoin="round"/>
<path d="M86.9504 233.149C86.9504 233.149 84.1408 232.057 82.5664 236.95" stroke="#263238" stroke-linecap="round" stroke-linejoin="round"/>
<path d="M11.4961 333.319H474.606" stroke="#263238" stroke-linecap="round" stroke-linejoin="round"/>
</svg>
